<svg xmlns="http://www.w3.org/2000/svg" width="880" height="340" viewBox="0 0 880 340" role="img" aria-label="Agent surface — fixed grounding">
<rect width="880" height="340" rx="6" fill="#1a1a19"/>
<text x="64" y="24" font-family='system-ui, -apple-system, "Segoe UI", sans-serif' font-size="14" font-weight="600" fill="#ffffff">Agent surface — fixed grounding</text>
<text x="64" y="41" font-family='system-ui, -apple-system, "Segoe UI", sans-serif' font-size="11" fill="#c3c2b7">reference-solution floor per task, per dev commit, 2026-07-22 to 2026-07-28</text>
<line x1="64" y1="306.0" x2="730" y2="306.0" stroke="#2c2c2a" stroke-width="1"/>
<text x="56" y="309.5" text-anchor="end" font-family='system-ui, -apple-system, "Segoe UI", sans-serif' font-size="11" style="font-variant-numeric: tabular-nums" fill="#898781">0</text>
<line x1="64" y1="239.4" x2="730" y2="239.4" stroke="#2c2c2a" stroke-width="1"/>
<text x="56" y="242.9" text-anchor="end" font-family='system-ui, -apple-system, "Segoe UI", sans-serif' font-size="11" style="font-variant-numeric: tabular-nums" fill="#898781">5,000</text>
<line x1="64" y1="172.9" x2="730" y2="172.9" stroke="#2c2c2a" stroke-width="1"/>
<text x="56" y="176.4" text-anchor="end" font-family='system-ui, -apple-system, "Segoe UI", sans-serif' font-size="11" style="font-variant-numeric: tabular-nums" fill="#898781">10,000</text>
<line x1="64" y1="106.3" x2="730" y2="106.3" stroke="#2c2c2a" stroke-width="1"/>
<text x="56" y="109.8" text-anchor="end" font-family='system-ui, -apple-system, "Segoe UI", sans-serif' font-size="11" style="font-variant-numeric: tabular-nums" fill="#898781">15,000</text>
<text x="56" y="46" text-anchor="end" font-family='system-ui, -apple-system, "Segoe UI", sans-serif' font-size="10" fill="#898781">tokens</text>
<line x1="64" y1="306" x2="730" y2="306" stroke="#383835" stroke-width="1"/>
<text x="64.0" y="322" text-anchor="middle" font-family='system-ui, -apple-system, "Segoe UI", sans-serif' font-size="11" style="font-variant-numeric: tabular-nums" fill="#898781">07-22</text>
<text x="114.0" y="322" text-anchor="middle" font-family='system-ui, -apple-system, "Segoe UI", sans-serif' font-size="11" style="font-variant-numeric: tabular-nums" fill="#898781">07-23</text>
<text x="147.2" y="322" text-anchor="middle" font-family='system-ui, -apple-system, "Segoe UI", sans-serif' font-size="11" style="font-variant-numeric: tabular-nums" fill="#898781">07-24</text>
<text x="247.2" y="322" text-anchor="middle" font-family='system-ui, -apple-system, "Segoe UI", sans-serif' font-size="11" style="font-variant-numeric: tabular-nums" fill="#898781">07-25</text>
<text x="446.9" y="322" text-anchor="middle" font-family='system-ui, -apple-system, "Segoe UI", sans-serif' font-size="11" style="font-variant-numeric: tabular-nums" fill="#898781">07-26</text>
<text x="513.5" y="322" text-anchor="middle" font-family='system-ui, -apple-system, "Segoe UI", sans-serif' font-size="11" style="font-variant-numeric: tabular-nums" fill="#898781">07-27</text>
<text x="596.8" y="322" text-anchor="middle" font-family='system-ui, -apple-system, "Segoe UI", sans-serif' font-size="11" style="font-variant-numeric: tabular-nums" fill="#898781">07-28</text>
<path d="M64.0,242.5 L80.7,242.5 L97.3,242.5 L114.0,242.5 L130.6,242.5 L147.2,242.5 L163.9,242.5 L180.6,66.1 L197.2,66.1 L213.8,66.1 L230.5,71.6 L247.2,71.6 L263.8,71.6 L280.4,72.0 L297.1,74.4 L313.8,74.4 L330.4,74.4 L347.1,74.4 L363.7,74.4 L380.4,74.4 L397.0,74.5 L413.6,74.5 L430.3,74.5 L446.9,74.5 L463.6,74.5 L480.2,74.5 L496.9,74.5 L513.5,74.5 L530.2,74.5 L546.9,74.5 L563.5,74.5 L580.1,74.5 L596.8,74.5 L613.5,74.5 L630.1,74.5 L646.8,74.5 L663.4,74.5 L680.0,68.9 L696.7,68.9 L713.4,56.0 L730.0,56.0" fill="none" stroke="#3987e5" stroke-width="2" stroke-linejoin="round" stroke-linecap="round"/>
<circle cx="730.0" cy="56.0" r="6" fill="#1a1a19"/>
<circle cx="730.0" cy="56.0" r="4" fill="#3987e5"/>
<path d="M713.4,56.0 L730.0,56.0" fill="none" stroke="#199e70" stroke-width="2" stroke-linejoin="round" stroke-linecap="round"/>
<circle cx="730.0" cy="56.0" r="6" fill="#1a1a19"/>
<circle cx="730.0" cy="56.0" r="4" fill="#199e70"/>
<path d="M713.4,56.0 L730.0,56.0" fill="none" stroke="#c98500" stroke-width="2" stroke-linejoin="round" stroke-linecap="round"/>
<circle cx="730.0" cy="56.0" r="6" fill="#1a1a19"/>
<circle cx="730.0" cy="56.0" r="4" fill="#c98500"/>
<path d="M64.0,242.5 L80.7,242.5 L97.3,242.5 L114.0,242.5 L130.6,242.5 L147.2,242.5 L163.9,242.5 L180.6,66.1 L197.2,66.1 L213.8,66.1 L230.5,71.6 L247.2,71.6 L263.8,71.6 L280.4,72.0 L297.1,74.4 L313.8,74.4 L330.4,74.4 L347.1,74.4 L363.7,74.4 L380.4,74.4 L397.0,74.5 L413.6,74.5 L430.3,74.5 L446.9,74.5 L463.6,74.5 L480.2,74.5 L496.9,74.5 L513.5,74.5 L530.2,74.5 L546.9,74.5 L563.5,74.5 L580.1,74.5 L596.8,74.5 L613.5,74.5 L630.1,74.5 L646.8,74.5 L663.4,74.5 L680.0,68.9 L696.7,68.9" fill="none" stroke="#008300" stroke-width="2" stroke-linejoin="round" stroke-linecap="round"/>
<circle cx="696.7" cy="68.9" r="6" fill="#1a1a19"/>
<circle cx="696.7" cy="68.9" r="4" fill="#008300"/>
<path d="M64.0,242.5 L80.7,242.5 L97.3,242.5 L114.0,242.5 L130.6,242.5 L147.2,242.5 L163.9,242.5 L180.6,66.1 L197.2,66.1 L213.8,66.1 L230.5,71.6 L247.2,71.6 L263.8,71.6 L280.4,72.0 L297.1,74.4 L313.8,74.4 L330.4,74.4 L347.1,74.4 L363.7,74.4 L380.4,74.4 L397.0,74.5 L413.6,74.5 L430.3,74.5 L446.9,74.5 L463.6,74.5 L480.2,74.5 L496.9,74.5 L513.5,74.5 L530.2,74.5 L546.9,74.5 L563.5,74.5 L580.1,74.5 L596.8,74.5 L613.5,74.5 L630.1,74.5 L646.8,74.5 L663.4,74.5 L680.0,68.9 L696.7,68.9 L713.4,56.0 L730.0,56.0" fill="none" stroke="#9085e9" stroke-width="2" stroke-linejoin="round" stroke-linecap="round"/>
<circle cx="730.0" cy="56.0" r="6" fill="#1a1a19"/>
<circle cx="730.0" cy="56.0" r="4" fill="#9085e9"/>
<path d="M64.0,242.5 L80.7,242.5 L97.3,242.5 L114.0,242.5 L130.6,242.5 L147.2,242.5 L163.9,242.5 L180.6,66.1 L197.2,66.1 L213.8,66.1 L230.5,71.6 L247.2,71.6 L263.8,71.6 L280.4,72.0 L297.1,74.4 L313.8,74.4 L330.4,74.4 L347.1,74.4 L363.7,74.4 L380.4,74.4 L397.0,74.5 L413.6,74.5 L430.3,74.5 L446.9,74.5 L463.6,74.5 L480.2,74.5 L496.9,74.5 L513.5,74.5 L530.2,74.5 L546.9,74.5 L563.5,74.5 L580.1,74.5 L596.8,74.5 L613.5,74.5 L630.1,74.5 L646.8,74.5 L663.4,74.5 L680.0,68.9 L696.7,68.9 L713.4,56.0 L730.0,56.0" fill="none" stroke="#e66767" stroke-width="2" stroke-linejoin="round" stroke-linecap="round"/>
<circle cx="730.0" cy="56.0" r="6" fill="#1a1a19"/>
<circle cx="730.0" cy="56.0" r="4" fill="#e66767"/>
<circle cx="745.0" cy="52.5" r="3.5" fill="#3987e5"/>
<text x="753.0" y="56.0" font-family='system-ui, -apple-system, "Segoe UI", sans-serif' font-size="11" fill="#ffffff">from_scratch</text>
<text x="753.0" y="68.0" font-family='system-ui, -apple-system, "Segoe UI", sans-serif' font-size="10" style="font-variant-numeric: tabular-nums" fill="#c3c2b7">19k</text>
<line x1="736.0" y1="56.0" x2="740.0" y2="84.0" stroke="#383835" stroke-width="1"/>
<circle cx="745.0" cy="80.5" r="3.5" fill="#199e70"/>
<text x="753.0" y="84.0" font-family='system-ui, -apple-system, "Segoe UI", sans-serif' font-size="11" fill="#ffffff">intent_fan_out</text>
<text x="753.0" y="96.0" font-family='system-ui, -apple-system, "Segoe UI", sans-serif' font-size="10" style="font-variant-numeric: tabular-nums" fill="#c3c2b7">19k</text>
<line x1="736.0" y1="56.0" x2="740.0" y2="112.0" stroke="#383835" stroke-width="1"/>
<circle cx="745.0" cy="108.5" r="3.5" fill="#c98500"/>
<text x="753.0" y="112.0" font-family='system-ui, -apple-system, "Segoe UI", sans-serif' font-size="11" fill="#ffffff">intent_word</text>
<text x="753.0" y="124.0" font-family='system-ui, -apple-system, "Segoe UI", sans-serif' font-size="10" style="font-variant-numeric: tabular-nums" fill="#c3c2b7">19k</text>
<line x1="736.0" y1="56.0" x2="740.0" y2="140.0" stroke="#383835" stroke-width="1"/>
<circle cx="745.0" cy="136.5" r="3.5" fill="#9085e9"/>
<text x="753.0" y="140.0" font-family='system-ui, -apple-system, "Segoe UI", sans-serif' font-size="11" fill="#ffffff">repair</text>
<text x="753.0" y="152.0" font-family='system-ui, -apple-system, "Segoe UI", sans-serif' font-size="10" style="font-variant-numeric: tabular-nums" fill="#c3c2b7">19k</text>
<line x1="736.0" y1="56.0" x2="740.0" y2="168.0" stroke="#383835" stroke-width="1"/>
<circle cx="745.0" cy="164.5" r="3.5" fill="#e66767"/>
<text x="753.0" y="168.0" font-family='system-ui, -apple-system, "Segoe UI", sans-serif' font-size="11" fill="#ffffff">tweak</text>
<text x="753.0" y="180.0" font-family='system-ui, -apple-system, "Segoe UI", sans-serif' font-size="10" style="font-variant-numeric: tabular-nums" fill="#c3c2b7">19k</text>
<line x1="702.7" y1="68.9" x2="706.7" y2="196.0" stroke="#383835" stroke-width="1"/>
<circle cx="711.7" cy="192.5" r="3.5" fill="#008300"/>
<text x="719.7" y="196.0" font-family='system-ui, -apple-system, "Segoe UI", sans-serif' font-size="11" fill="#ffffff">nudge</text>
<text x="719.7" y="208.0" font-family='system-ui, -apple-system, "Segoe UI", sans-serif' font-size="10" style="font-variant-numeric: tabular-nums" fill="#c3c2b7">18k</text>
</svg>