<svg xmlns="http://www.w3.org/2000/svg" width="880" height="340" viewBox="0 0 880 340" role="img" aria-label="Whole-instrument render cost">
<rect width="880" height="340" rx="6" fill="#fcfcfb"/>
<text x="64" y="24" font-family='system-ui, -apple-system, "Segoe UI", sans-serif' font-size="14" font-weight="600" fill="#0b0b0b">Whole-instrument render cost</text>
<text x="64" y="41" font-family='system-ui, -apple-system, "Segoe UI", sans-serif' font-size="11" fill="#52514e">render_block of 1 s of audio - callgrind instructions (Ir), per main commit, 2026-06-28 to 2026-07-11</text>
<line x1="64" y1="306.0" x2="730" y2="306.0" stroke="#e1e0d9" stroke-width="1"/>
<text x="56" y="309.5" text-anchor="end" font-family='system-ui, -apple-system, "Segoe UI", sans-serif' font-size="11" style="font-variant-numeric: tabular-nums" fill="#898781">0</text>
<line x1="64" y1="228.2" x2="730" y2="228.2" stroke="#e1e0d9" stroke-width="1"/>
<text x="56" y="231.7" text-anchor="end" font-family='system-ui, -apple-system, "Segoe UI", sans-serif' font-size="11" style="font-variant-numeric: tabular-nums" fill="#898781">20</text>
<line x1="64" y1="150.4" x2="730" y2="150.4" stroke="#e1e0d9" stroke-width="1"/>
<text x="56" y="153.9" text-anchor="end" font-family='system-ui, -apple-system, "Segoe UI", sans-serif' font-size="11" style="font-variant-numeric: tabular-nums" fill="#898781">40</text>
<line x1="64" y1="72.6" x2="730" y2="72.6" stroke="#e1e0d9" stroke-width="1"/>
<text x="56" y="76.1" text-anchor="end" font-family='system-ui, -apple-system, "Segoe UI", sans-serif' font-size="11" style="font-variant-numeric: tabular-nums" fill="#898781">60</text>
<text x="56" y="46" text-anchor="end" font-family='system-ui, -apple-system, "Segoe UI", sans-serif' font-size="10" fill="#898781">Ir (M)</text>
<line x1="64" y1="306" x2="730" y2="306" stroke="#c3c2b7" stroke-width="1"/>
<text x="64.0" y="322" text-anchor="middle" font-family='system-ui, -apple-system, "Segoe UI", sans-serif' font-size="11" style="font-variant-numeric: tabular-nums" fill="#898781">06-28</text>
<text x="129.5" y="322" text-anchor="middle" font-family='system-ui, -apple-system, "Segoe UI", sans-serif' font-size="11" style="font-variant-numeric: tabular-nums" fill="#898781">06-30</text>
<text x="184.1" y="322" text-anchor="middle" font-family='system-ui, -apple-system, "Segoe UI", sans-serif' font-size="11" style="font-variant-numeric: tabular-nums" fill="#898781">07-02</text>
<text x="304.2" y="322" text-anchor="middle" font-family='system-ui, -apple-system, "Segoe UI", sans-serif' font-size="11" style="font-variant-numeric: tabular-nums" fill="#898781">07-04</text>
<text x="478.9" y="322" text-anchor="middle" font-family='system-ui, -apple-system, "Segoe UI", sans-serif' font-size="11" style="font-variant-numeric: tabular-nums" fill="#898781">07-07</text>
<text x="588.1" y="322" text-anchor="middle" font-family='system-ui, -apple-system, "Segoe UI", sans-serif' font-size="11" style="font-variant-numeric: tabular-nums" fill="#898781">07-09</text>
<text x="675.4" y="322" text-anchor="middle" font-family='system-ui, -apple-system, "Segoe UI", sans-serif' font-size="11" style="font-variant-numeric: tabular-nums" fill="#898781">07-11</text>
<path d="M64.0,72.9 L74.9,73.0 L85.8,80.1 L96.8,80.1 L107.7,94.2 L118.6,108.6 L129.5,108.6 L140.4,105.1 L151.3,105.4 L162.3,105.7 L173.2,105.7 L184.1,105.6 L195.0,105.5 L205.9,105.5 L216.9,105.5 L227.8,105.5" fill="none" stroke="#2a78d6" stroke-width="2" stroke-linejoin="round" stroke-linecap="round"/>
<path d="M249.6,105.7 L260.5,122.6 L271.4,122.6 L282.4,125.2 L293.3,125.0 L304.2,125.0 L315.1,125.0 L326.0,125.0 L337.0,125.0 L347.9,125.0 L358.8,124.3 L369.7,124.3 L380.6,124.3 L391.5,124.3 L402.5,124.3 L413.4,124.5 L424.3,124.5 L435.2,124.5 L446.1,127.9 L457.0,127.9 L468.0,127.9 L478.9,127.9 L489.8,127.9 L500.7,127.9 L511.6,127.9 L522.6,127.9 L533.5,127.9 L544.4,127.9 L555.3,127.9 L566.2,127.9 L577.1,127.9 L588.1,127.9 L599.0,127.9 L609.9,128.8 L620.8,128.8 L631.7,128.8 L642.7,128.2 L653.6,132.1 L664.5,132.1 L675.4,131.7 L686.3,135.3 L697.2,135.3 L708.2,135.3 L719.1,135.3 L730.0,135.3" fill="none" stroke="#2a78d6" stroke-width="2" stroke-linejoin="round" stroke-linecap="round"/>
<circle cx="730.0" cy="135.3" r="6" fill="#fcfcfb"/>
<circle cx="730.0" cy="135.3" r="4" fill="#2a78d6"/>
<path d="M64.0,98.8 L74.9,98.9 L85.8,98.2 L96.8,98.2 L107.7,107.4 L118.6,120.8 L129.5,120.7 L140.4,117.1 L151.3,117.4 L162.3,117.8 L173.2,117.7 L184.1,117.7 L195.0,117.5 L205.9,117.7 L216.9,117.7 L227.8,117.7" fill="none" stroke="#1baf7a" stroke-width="2" stroke-linejoin="round" stroke-linecap="round"/>
<path d="M249.6,117.8 L260.5,134.9 L271.4,134.9 L282.4,136.9 L293.3,136.6 L304.2,136.6 L315.1,136.6 L326.0,136.6 L337.0,136.6 L347.9,136.6 L358.8,135.8 L369.7,135.8 L380.6,135.8 L391.5,135.8 L402.5,135.8 L413.4,136.0 L424.3,136.0 L435.2,136.0 L446.1,139.7 L457.0,139.7 L468.0,139.6 L478.9,139.6 L489.8,139.6 L500.7,139.6 L511.6,139.6 L522.6,139.6 L533.5,139.6 L544.4,139.6 L555.3,139.6 L566.2,139.6 L577.1,139.6 L588.1,139.6 L599.0,139.6 L609.9,140.5 L620.8,140.5 L631.7,140.5 L642.7,139.8 L653.6,143.5 L664.5,143.5 L675.4,143.5 L686.3,147.1 L697.2,147.1 L708.2,147.1 L719.1,147.1 L730.0,147.1" fill="none" stroke="#1baf7a" stroke-width="2" stroke-linejoin="round" stroke-linecap="round"/>
<circle cx="730.0" cy="147.1" r="6" fill="#fcfcfb"/>
<circle cx="730.0" cy="147.1" r="4" fill="#1baf7a"/>
<path d="M64.0,83.1 L74.9,83.1 L85.8,82.4 L96.8,82.4 L107.7,95.7 L118.6,110.0 L129.5,109.9 L140.4,106.6 L151.3,106.9 L162.3,107.2 L173.2,107.2 L184.1,107.0 L195.0,107.1 L205.9,107.1 L216.9,107.1 L227.8,107.1" fill="none" stroke="#eda100" stroke-width="2" stroke-linejoin="round" stroke-linecap="round"/>
<path d="M249.6,107.2 L260.5,125.6 L271.4,125.6 L282.4,127.5 L293.3,127.3 L304.2,127.3 L315.1,127.3 L326.0,127.3 L337.0,127.3 L347.9,127.5 L358.8,126.6 L369.7,126.3 L380.6,126.3 L391.5,126.3 L402.5,126.3 L413.4,126.9 L424.3,126.9 L435.2,126.8 L446.1,130.5 L457.0,130.5 L468.0,130.3 L478.9,130.3 L489.8,130.4 L500.7,130.4 L511.6,130.4 L522.6,130.4 L533.5,130.4 L544.4,130.4 L555.3,130.4 L566.2,130.4 L577.1,130.4 L588.1,130.4 L599.0,130.4 L609.9,131.3 L620.8,131.4 L631.7,131.4 L642.7,130.7 L653.6,133.9 L664.5,133.9 L675.4,133.9 L686.3,137.8 L697.2,137.8 L708.2,137.8 L719.1,137.8 L730.0,137.8" fill="none" stroke="#eda100" stroke-width="2" stroke-linejoin="round" stroke-linecap="round"/>
<circle cx="730.0" cy="137.8" r="6" fill="#fcfcfb"/>
<circle cx="730.0" cy="137.8" r="4" fill="#eda100"/>
<path d="M64.0,56.6 L74.9,56.6 L85.8,56.0 L96.8,56.0 L107.7,65.0 L118.6,82.2 L129.5,82.1 L140.4,78.6 L151.3,78.8 L162.3,79.3 L173.2,79.3 L184.1,79.2 L195.0,79.1 L205.9,79.2 L216.9,79.2 L227.8,79.2" fill="none" stroke="#008300" stroke-width="2" stroke-linejoin="round" stroke-linecap="round"/>
<path d="M249.6,79.2 L260.5,97.8 L271.4,97.8 L282.4,99.5 L293.3,99.2 L304.2,99.2 L315.1,99.2 L326.0,99.2 L337.0,99.2 L347.9,99.4 L358.8,98.8 L369.7,98.6 L380.6,98.6 L391.5,98.6 L402.5,98.6 L413.4,98.9 L424.3,98.9 L435.2,98.9 L446.1,102.4 L457.0,102.4 L468.0,102.3 L478.9,102.3 L489.8,102.4 L500.7,102.4 L511.6,102.4 L522.6,102.4 L533.5,102.4 L544.4,102.4 L555.3,102.4 L566.2,102.4 L577.1,102.4 L588.1,102.4 L599.0,102.4 L609.9,103.3 L620.8,103.3 L631.7,103.3 L642.7,102.7 L653.6,106.1 L664.5,106.1 L675.4,106.1 L686.3,109.4 L697.2,109.4 L708.2,109.4 L719.1,109.4 L730.0,109.4" fill="none" stroke="#008300" stroke-width="2" stroke-linejoin="round" stroke-linecap="round"/>
<circle cx="730.0" cy="109.4" r="6" fill="#fcfcfb"/>
<circle cx="730.0" cy="109.4" r="4" fill="#008300"/>
<path d="M64.0,222.5 L74.9,222.4 L85.8,222.5 L96.8,222.5 L107.7,229.0 L118.6,236.2 L129.5,236.1 L140.4,234.3 L151.3,234.3 L162.3,234.5 L173.2,234.5 L184.1,234.7 L195.0,234.7 L205.9,234.6 L216.9,234.6 L227.8,234.6" fill="none" stroke="#4a3aa7" stroke-width="2" stroke-linejoin="round" stroke-linecap="round"/>
<path d="M249.6,234.6 L260.5,240.3 L271.4,240.3 L282.4,240.1 L293.3,239.7 L304.2,239.7 L315.1,239.7 L326.0,239.7 L337.0,239.7 L347.9,239.6 L358.8,239.1 L369.7,239.1 L380.6,239.1 L391.5,239.1 L402.5,239.1 L413.4,239.2 L424.3,239.2 L435.2,239.2 L446.1,239.1 L457.0,239.1 L468.0,239.0 L478.9,239.0 L489.8,239.1 L500.7,239.1 L511.6,239.1 L522.6,239.1 L533.5,239.1 L544.4,239.1 L555.3,239.1 L566.2,239.1 L577.1,239.1 L588.1,239.1 L599.0,239.0 L609.9,239.5 L620.8,239.6 L631.7,239.6 L642.7,239.4 L653.6,241.0 L664.5,241.1 L675.4,241.1 L686.3,244.4 L697.2,244.4 L708.2,244.4 L719.1,244.4 L730.0,244.4" fill="none" stroke="#4a3aa7" stroke-width="2" stroke-linejoin="round" stroke-linecap="round"/>
<circle cx="730.0" cy="244.4" r="6" fill="#fcfcfb"/>
<circle cx="730.0" cy="244.4" r="4" fill="#4a3aa7"/>
<circle cx="745.0" cy="105.9" r="3.5" fill="#008300"/>
<text x="753.0" y="109.4" font-family='system-ui, -apple-system, "Segoe UI", sans-serif' font-size="11" fill="#0b0b0b">reverb</text>
<text x="753.0" y="121.4" font-family='system-ui, -apple-system, "Segoe UI", sans-serif' font-size="10" style="font-variant-numeric: tabular-nums" fill="#52514e">50.5M</text>
<circle cx="745.0" cy="133.9" r="3.5" fill="#2a78d6"/>
<text x="753.0" y="137.4" font-family='system-ui, -apple-system, "Segoe UI", sans-serif' font-size="11" fill="#0b0b0b">auto-filter</text>
<text x="753.0" y="149.4" font-family='system-ui, -apple-system, "Segoe UI", sans-serif' font-size="10" style="font-variant-numeric: tabular-nums" fill="#52514e">43.9M</text>
<line x1="736.0" y1="137.8" x2="740.0" y2="165.4" stroke="#c3c2b7" stroke-width="1"/>
<circle cx="745.0" cy="161.9" r="3.5" fill="#eda100"/>
<text x="753.0" y="165.4" font-family='system-ui, -apple-system, "Segoe UI", sans-serif' font-size="11" fill="#0b0b0b">echo</text>
<text x="753.0" y="177.4" font-family='system-ui, -apple-system, "Segoe UI", sans-serif' font-size="10" style="font-variant-numeric: tabular-nums" fill="#52514e">43.2M</text>
<line x1="736.0" y1="147.1" x2="740.0" y2="193.4" stroke="#c3c2b7" stroke-width="1"/>
<circle cx="745.0" cy="189.9" r="3.5" fill="#1baf7a"/>
<text x="753.0" y="193.4" font-family='system-ui, -apple-system, "Segoe UI", sans-serif' font-size="11" fill="#0b0b0b">autotune</text>
<text x="753.0" y="205.4" font-family='system-ui, -apple-system, "Segoe UI", sans-serif' font-size="10" style="font-variant-numeric: tabular-nums" fill="#52514e">40.9M</text>
<circle cx="745.0" cy="240.9" r="3.5" fill="#4a3aa7"/>
<text x="753.0" y="244.4" font-family='system-ui, -apple-system, "Segoe UI", sans-serif' font-size="11" fill="#0b0b0b">sampler-arp</text>
<text x="753.0" y="256.4" font-family='system-ui, -apple-system, "Segoe UI", sans-serif' font-size="10" style="font-variant-numeric: tabular-nums" fill="#52514e">15.8M</text>
</svg>