<svg xmlns="http://www.w3.org/2000/svg" width="880" height="340" viewBox="0 0 880 340" role="img" aria-label="Whole-instrument render cost">
<rect width="880" height="340" rx="6" fill="#1a1a19"/>
<text x="64" y="24" font-family='system-ui, -apple-system, "Segoe UI", sans-serif' font-size="14" font-weight="600" fill="#ffffff">Whole-instrument render cost</text>
<text x="64" y="41" font-family='system-ui, -apple-system, "Segoe UI", sans-serif' font-size="11" fill="#c3c2b7">render_block of 1 s of audio - callgrind instructions (Ir), per dev commit, 2026-07-12 to 2026-07-21</text>
<line x1="64" y1="306.0" x2="730" y2="306.0" stroke="#2c2c2a" stroke-width="1"/>
<text x="56" y="309.5" text-anchor="end" font-family='system-ui, -apple-system, "Segoe UI", sans-serif' font-size="11" style="font-variant-numeric: tabular-nums" fill="#898781">0</text>
<line x1="64" y1="207.1" x2="730" y2="207.1" stroke="#2c2c2a" stroke-width="1"/>
<text x="56" y="210.6" text-anchor="end" font-family='system-ui, -apple-system, "Segoe UI", sans-serif' font-size="11" style="font-variant-numeric: tabular-nums" fill="#898781">20</text>
<line x1="64" y1="108.2" x2="730" y2="108.2" stroke="#2c2c2a" stroke-width="1"/>
<text x="56" y="111.7" text-anchor="end" font-family='system-ui, -apple-system, "Segoe UI", sans-serif' font-size="11" style="font-variant-numeric: tabular-nums" fill="#898781">40</text>
<text x="56" y="46" text-anchor="end" font-family='system-ui, -apple-system, "Segoe UI", sans-serif' font-size="10" fill="#898781">Ir (M)</text>
<line x1="64" y1="306" x2="730" y2="306" stroke="#383835" stroke-width="1"/>
<text x="64.0" y="322" text-anchor="middle" font-family='system-ui, -apple-system, "Segoe UI", sans-serif' font-size="11" style="font-variant-numeric: tabular-nums" fill="#898781">07-12</text>
<text x="148.8" y="322" text-anchor="middle" font-family='system-ui, -apple-system, "Segoe UI", sans-serif' font-size="11" style="font-variant-numeric: tabular-nums" fill="#898781">07-14</text>
<text x="257.7" y="322" text-anchor="middle" font-family='system-ui, -apple-system, "Segoe UI", sans-serif' font-size="11" style="font-variant-numeric: tabular-nums" fill="#898781">07-17</text>
<text x="403.1" y="322" text-anchor="middle" font-family='system-ui, -apple-system, "Segoe UI", sans-serif' font-size="11" style="font-variant-numeric: tabular-nums" fill="#898781">07-19</text>
<text x="621.0" y="322" text-anchor="middle" font-family='system-ui, -apple-system, "Segoe UI", sans-serif' font-size="11" style="font-variant-numeric: tabular-nums" fill="#898781">07-21</text>
<path d="M64.0,88.9 L76.1,88.9 L88.2,88.9 L100.3,88.9 L112.4,88.9 L124.5,88.9 L136.7,88.9 L148.8,88.9 L160.9,88.9 L173.0,88.9 L185.1,88.9 L197.2,88.9 L209.3,88.9 L221.4,88.9 L233.5,88.9 L245.6,88.9 L257.7,88.9 L269.9,88.9 L282.0,88.9 L294.1,88.9 L306.2,88.9 L318.3,88.9 L330.4,88.9 L342.5,88.9 L354.6,88.9 L366.7,88.9 L378.8,88.9 L390.9,88.9 L403.1,89.0 L415.2,89.0 L427.3,89.0 L439.4,89.0 L451.5,89.0 L463.6,89.3 L475.7,89.3 L487.8,89.3 L499.9,89.3 L512.0,89.3 L524.1,89.3 L536.3,89.2 L548.4,89.2 L560.5,89.3 L572.6,89.3 L584.7,89.3 L596.8,89.3 L608.9,89.3 L621.0,89.3 L633.1,89.3 L645.2,89.3 L657.3,89.3 L669.5,120.2 L681.6,120.2 L693.7,120.2 L705.8,120.2 L717.9,120.2 L730.0,120.1" fill="none" stroke="#3987e5" stroke-width="2" stroke-linejoin="round" stroke-linecap="round"/>
<circle cx="730.0" cy="120.1" r="6" fill="#1a1a19"/>
<circle cx="730.0" cy="120.1" r="4" fill="#3987e5"/>
<path d="M64.0,103.9 L76.1,103.9 L88.2,103.9 L100.3,103.9 L112.4,103.9 L124.5,103.9 L136.7,103.8 L148.8,103.8 L160.9,103.8 L173.0,103.8 L185.1,103.8 L197.2,103.8 L209.3,103.8 L221.4,103.8 L233.5,103.9 L245.6,103.9 L257.7,103.9 L269.9,103.9 L282.0,103.9 L294.1,103.9 L306.2,103.9 L318.3,103.9 L330.4,103.9 L342.5,103.9 L354.6,103.9 L366.7,103.9 L378.8,103.9 L390.9,103.9 L403.1,103.9 L415.2,103.9 L427.3,103.9 L439.4,103.9 L451.5,103.9 L463.6,104.2 L475.7,104.2 L487.8,104.2 L499.9,104.2 L512.0,104.1 L524.1,104.1 L536.3,104.2 L548.4,104.2 L560.5,104.2 L572.6,104.2 L584.7,104.2 L596.8,104.2 L608.9,104.2 L621.0,104.2 L633.1,104.2 L645.2,104.2 L657.3,104.2 L669.5,131.8 L681.6,131.8 L693.7,131.8 L705.8,131.8 L717.9,131.8 L730.0,131.8" fill="none" stroke="#199e70" stroke-width="2" stroke-linejoin="round" stroke-linecap="round"/>
<circle cx="730.0" cy="131.8" r="6" fill="#1a1a19"/>
<circle cx="730.0" cy="131.8" r="4" fill="#199e70"/>
<path d="M64.0,92.1 L76.1,92.1 L88.2,92.1 L100.3,92.1 L112.4,92.1 L124.5,92.1 L136.7,92.1 L148.8,92.1 L160.9,92.1 L173.0,92.1 L185.1,92.1 L197.2,92.1 L209.3,92.1 L221.4,92.1 L233.5,92.1 L245.6,92.1 L257.7,92.1 L269.9,92.1 L282.0,92.1 L294.1,92.1 L306.2,92.1 L318.3,92.1 L330.4,92.1 L342.5,92.1 L354.6,92.1 L366.7,92.1 L378.8,92.1 L390.9,92.1 L403.1,92.1 L415.2,92.1 L427.3,92.1 L439.4,92.1 L451.5,92.1 L463.6,92.4 L475.7,92.4 L487.8,92.4 L499.9,92.4 L512.0,92.4 L524.1,92.4 L536.3,92.3 L548.4,92.3 L560.5,92.4 L572.6,92.4 L584.7,92.4 L596.8,92.4 L608.9,92.4 L621.0,92.4 L633.1,92.4 L645.2,92.4 L657.3,92.4 L669.5,120.0 L681.6,119.9 L693.7,119.9 L705.8,119.9 L717.9,119.9 L730.0,120.0" fill="none" stroke="#c98500" stroke-width="2" stroke-linejoin="round" stroke-linecap="round"/>
<circle cx="730.0" cy="120.0" r="6" fill="#1a1a19"/>
<circle cx="730.0" cy="120.0" r="4" fill="#c98500"/>
<path d="M64.0,56.0 L76.1,56.0 L88.2,56.0 L100.3,56.0 L112.4,56.0 L124.5,56.0 L136.7,56.0 L148.8,56.0 L160.9,56.0 L173.0,56.0 L185.1,56.0 L197.2,56.0 L209.3,56.0 L221.4,56.0 L233.5,56.0 L245.6,56.0 L257.7,56.0 L269.9,56.0 L282.0,56.0 L294.1,56.0 L306.2,56.0 L318.3,56.0 L330.4,56.0 L342.5,56.0 L354.6,56.0 L366.7,56.0 L378.8,56.0 L390.9,56.0 L403.1,56.0 L415.2,56.0 L427.3,56.0 L439.4,56.0 L451.5,56.0 L463.6,56.3 L475.7,56.3 L487.8,56.3 L499.9,56.3 L512.0,56.3 L524.1,56.3 L536.3,56.2 L548.4,56.2 L560.5,56.3 L572.6,56.3 L584.7,56.3 L596.8,56.3 L608.9,56.3 L621.0,56.3 L633.1,56.3 L645.2,56.3 L657.3,56.3 L669.5,83.9 L681.6,83.9 L693.7,83.9 L705.8,83.9 L717.9,83.9 L730.0,83.9" fill="none" stroke="#008300" stroke-width="2" stroke-linejoin="round" stroke-linecap="round"/>
<circle cx="730.0" cy="83.9" r="6" fill="#1a1a19"/>
<circle cx="730.0" cy="83.9" r="4" fill="#008300"/>
<path d="M64.0,227.6 L76.1,227.6 L88.2,227.6 L100.3,227.6 L112.4,227.6 L124.5,227.6 L136.7,227.6 L148.8,227.6 L160.9,227.6 L173.0,227.6 L185.1,227.6 L197.2,227.6 L209.3,227.6 L221.4,227.6 L233.5,227.6 L245.6,227.6 L257.7,227.6 L269.9,227.6 L282.0,227.6 L294.1,227.6 L306.2,227.6 L318.3,227.6 L330.4,227.6 L342.5,227.6 L354.6,227.6 L366.7,227.6 L378.8,227.6 L390.9,227.6 L403.1,227.6 L415.2,227.6 L427.3,227.6 L439.4,227.6 L451.5,227.6 L463.6,227.8 L475.7,227.8 L487.8,227.8 L499.9,227.8 L512.0,227.7 L524.1,227.7 L536.3,227.8 L548.4,227.8 L560.5,227.7 L572.6,227.7 L584.7,227.7 L596.8,227.7 L608.9,227.7 L621.0,227.7 L633.1,227.7 L645.2,227.7 L657.3,227.7 L669.5,227.7 L681.6,227.7 L693.7,227.7 L705.8,227.7 L717.9,227.7 L730.0,227.7" fill="none" stroke="#9085e9" stroke-width="2" stroke-linejoin="round" stroke-linecap="round"/>
<circle cx="730.0" cy="227.7" r="6" fill="#1a1a19"/>
<circle cx="730.0" cy="227.7" r="4" fill="#9085e9"/>
<circle cx="745.0" cy="80.4" r="3.5" fill="#008300"/>
<text x="753.0" y="83.9" font-family='system-ui, -apple-system, "Segoe UI", sans-serif' font-size="11" fill="#ffffff">reverb</text>
<text x="753.0" y="95.9" font-family='system-ui, -apple-system, "Segoe UI", sans-serif' font-size="10" style="font-variant-numeric: tabular-nums" fill="#c3c2b7">44.9M</text>
<circle cx="745.0" cy="116.5" r="3.5" fill="#c98500"/>
<text x="753.0" y="120.0" font-family='system-ui, -apple-system, "Segoe UI", sans-serif' font-size="11" fill="#ffffff">echo</text>
<text x="753.0" y="132.0" font-family='system-ui, -apple-system, "Segoe UI", sans-serif' font-size="10" style="font-variant-numeric: tabular-nums" fill="#c3c2b7">37.6M</text>
<line x1="736.0" y1="120.1" x2="740.0" y2="148.0" stroke="#383835" stroke-width="1"/>
<circle cx="745.0" cy="144.5" r="3.5" fill="#3987e5"/>
<text x="753.0" y="148.0" font-family='system-ui, -apple-system, "Segoe UI", sans-serif' font-size="11" fill="#ffffff">auto-filter</text>
<text x="753.0" y="160.0" font-family='system-ui, -apple-system, "Segoe UI", sans-serif' font-size="10" style="font-variant-numeric: tabular-nums" fill="#c3c2b7">37.6M</text>
<line x1="736.0" y1="131.8" x2="740.0" y2="176.0" stroke="#383835" stroke-width="1"/>
<circle cx="745.0" cy="172.5" r="3.5" fill="#199e70"/>
<text x="753.0" y="176.0" font-family='system-ui, -apple-system, "Segoe UI", sans-serif' font-size="11" fill="#ffffff">autotune</text>
<text x="753.0" y="188.0" font-family='system-ui, -apple-system, "Segoe UI", sans-serif' font-size="10" style="font-variant-numeric: tabular-nums" fill="#c3c2b7">35.2M</text>
<circle cx="745.0" cy="224.2" r="3.5" fill="#9085e9"/>
<text x="753.0" y="227.7" font-family='system-ui, -apple-system, "Segoe UI", sans-serif' font-size="11" fill="#ffffff">sampler-arp</text>
<text x="753.0" y="239.7" font-family='system-ui, -apple-system, "Segoe UI", sans-serif' font-size="10" style="font-variant-numeric: tabular-nums" fill="#c3c2b7">15.8M</text>
</svg>