<svg xmlns="http://www.w3.org/2000/svg" width="880" height="340" viewBox="0 0 880 340" role="img" aria-label="Whole-instrument render cost">
<rect width="880" height="340" rx="6" fill="#fcfcfb"/>
<text x="64" y="24" font-family='system-ui, -apple-system, "Segoe UI", sans-serif' font-size="14" font-weight="600" fill="#0b0b0b">Whole-instrument render cost</text>
<text x="64" y="41" font-family='system-ui, -apple-system, "Segoe UI", sans-serif' font-size="11" fill="#52514e">render_block of 1 s of audio - callgrind instructions (Ir), per main commit, 2026-06-28 to 2026-07-10</text>
<line x1="64" y1="306.0" x2="730" y2="306.0" stroke="#e1e0d9" stroke-width="1"/>
<text x="56" y="309.5" text-anchor="end" font-family='system-ui, -apple-system, "Segoe UI", sans-serif' font-size="11" style="font-variant-numeric: tabular-nums" fill="#898781">0</text>
<line x1="64" y1="228.2" x2="730" y2="228.2" stroke="#e1e0d9" stroke-width="1"/>
<text x="56" y="231.7" text-anchor="end" font-family='system-ui, -apple-system, "Segoe UI", sans-serif' font-size="11" style="font-variant-numeric: tabular-nums" fill="#898781">20</text>
<line x1="64" y1="150.4" x2="730" y2="150.4" stroke="#e1e0d9" stroke-width="1"/>
<text x="56" y="153.9" text-anchor="end" font-family='system-ui, -apple-system, "Segoe UI", sans-serif' font-size="11" style="font-variant-numeric: tabular-nums" fill="#898781">40</text>
<line x1="64" y1="72.6" x2="730" y2="72.6" stroke="#e1e0d9" stroke-width="1"/>
<text x="56" y="76.1" text-anchor="end" font-family='system-ui, -apple-system, "Segoe UI", sans-serif' font-size="11" style="font-variant-numeric: tabular-nums" fill="#898781">60</text>
<text x="56" y="46" text-anchor="end" font-family='system-ui, -apple-system, "Segoe UI", sans-serif' font-size="10" fill="#898781">Ir (M)</text>
<line x1="64" y1="306" x2="730" y2="306" stroke="#c3c2b7" stroke-width="1"/>
<text x="64.0" y="322" text-anchor="middle" font-family='system-ui, -apple-system, "Segoe UI", sans-serif' font-size="11" style="font-variant-numeric: tabular-nums" fill="#898781">06-28</text>
<text x="143.9" y="322" text-anchor="middle" font-family='system-ui, -apple-system, "Segoe UI", sans-serif' font-size="11" style="font-variant-numeric: tabular-nums" fill="#898781">06-30</text>
<text x="210.5" y="322" text-anchor="middle" font-family='system-ui, -apple-system, "Segoe UI", sans-serif' font-size="11" style="font-variant-numeric: tabular-nums" fill="#898781">07-02</text>
<text x="357.0" y="322" text-anchor="middle" font-family='system-ui, -apple-system, "Segoe UI", sans-serif' font-size="11" style="font-variant-numeric: tabular-nums" fill="#898781">07-04</text>
<text x="570.2" y="322" text-anchor="middle" font-family='system-ui, -apple-system, "Segoe UI", sans-serif' font-size="11" style="font-variant-numeric: tabular-nums" fill="#898781">07-07</text>
<text x="703.4" y="322" text-anchor="middle" font-family='system-ui, -apple-system, "Segoe UI", sans-serif' font-size="11" style="font-variant-numeric: tabular-nums" fill="#898781">07-09</text>
<path d="M64.0,72.9 L77.3,73.0 L90.6,80.1 L104.0,80.1 L117.3,94.2 L130.6,108.6 L143.9,108.6 L157.2,105.1 L170.6,105.4 L183.9,105.7 L197.2,105.7 L210.5,105.6 L223.8,105.5 L237.2,105.5 L250.5,105.5 L263.8,105.5" fill="none" stroke="#2a78d6" stroke-width="2" stroke-linejoin="round" stroke-linecap="round"/>
<path d="M290.4,105.7 L303.8,122.6 L317.1,122.6 L330.4,125.2 L343.7,125.0 L357.0,125.0 L370.4,125.0 L383.7,125.0 L397.0,125.0 L410.3,125.0 L423.6,124.3 L437.0,124.3 L450.3,124.3 L463.6,124.3 L476.9,124.3 L490.2,124.5 L503.6,124.5 L516.9,124.5 L530.2,127.9 L543.5,127.9 L556.8,127.9 L570.2,127.9 L583.5,127.9 L596.8,127.9 L610.1,127.9 L623.4,127.9 L636.8,127.9 L650.1,127.9 L663.4,127.9 L676.7,127.9 L690.0,127.9 L703.4,127.9 L716.7,127.9 L730.0,128.8" fill="none" stroke="#2a78d6" stroke-width="2" stroke-linejoin="round" stroke-linecap="round"/>
<circle cx="730.0" cy="128.8" r="6" fill="#fcfcfb"/>
<circle cx="730.0" cy="128.8" r="4" fill="#2a78d6"/>
<path d="M64.0,98.8 L77.3,98.9 L90.6,98.2 L104.0,98.2 L117.3,107.4 L130.6,120.8 L143.9,120.7 L157.2,117.1 L170.6,117.4 L183.9,117.8 L197.2,117.7 L210.5,117.7 L223.8,117.5 L237.2,117.7 L250.5,117.7 L263.8,117.7" fill="none" stroke="#1baf7a" stroke-width="2" stroke-linejoin="round" stroke-linecap="round"/>
<path d="M290.4,117.8 L303.8,134.9 L317.1,134.9 L330.4,136.9 L343.7,136.6 L357.0,136.6 L370.4,136.6 L383.7,136.6 L397.0,136.6 L410.3,136.6 L423.6,135.8 L437.0,135.8 L450.3,135.8 L463.6,135.8 L476.9,135.8 L490.2,136.0 L503.6,136.0 L516.9,136.0 L530.2,139.7 L543.5,139.7 L556.8,139.6 L570.2,139.6 L583.5,139.6 L596.8,139.6 L610.1,139.6 L623.4,139.6 L636.8,139.6 L650.1,139.6 L663.4,139.6 L676.7,139.6 L690.0,139.6 L703.4,139.6 L716.7,139.6 L730.0,140.5" fill="none" stroke="#1baf7a" stroke-width="2" stroke-linejoin="round" stroke-linecap="round"/>
<circle cx="730.0" cy="140.5" r="6" fill="#fcfcfb"/>
<circle cx="730.0" cy="140.5" r="4" fill="#1baf7a"/>
<path d="M64.0,83.1 L77.3,83.1 L90.6,82.4 L104.0,82.4 L117.3,95.7 L130.6,110.0 L143.9,109.9 L157.2,106.6 L170.6,106.9 L183.9,107.2 L197.2,107.2 L210.5,107.0 L223.8,107.1 L237.2,107.1 L250.5,107.1 L263.8,107.1" fill="none" stroke="#eda100" stroke-width="2" stroke-linejoin="round" stroke-linecap="round"/>
<path d="M290.4,107.2 L303.8,125.6 L317.1,125.6 L330.4,127.5 L343.7,127.3 L357.0,127.3 L370.4,127.3 L383.7,127.3 L397.0,127.3 L410.3,127.5 L423.6,126.6 L437.0,126.3 L450.3,126.3 L463.6,126.3 L476.9,126.3 L490.2,126.9 L503.6,126.9 L516.9,126.8 L530.2,130.5 L543.5,130.5 L556.8,130.3 L570.2,130.3 L583.5,130.4 L596.8,130.4 L610.1,130.4 L623.4,130.4 L636.8,130.4 L650.1,130.4 L663.4,130.4 L676.7,130.4 L690.0,130.4 L703.4,130.4 L716.7,130.4 L730.0,131.3" fill="none" stroke="#eda100" stroke-width="2" stroke-linejoin="round" stroke-linecap="round"/>
<circle cx="730.0" cy="131.3" r="6" fill="#fcfcfb"/>
<circle cx="730.0" cy="131.3" r="4" fill="#eda100"/>
<path d="M64.0,56.6 L77.3,56.6 L90.6,56.0 L104.0,56.0 L117.3,65.0 L130.6,82.2 L143.9,82.1 L157.2,78.6 L170.6,78.8 L183.9,79.3 L197.2,79.3 L210.5,79.2 L223.8,79.1 L237.2,79.2 L250.5,79.2 L263.8,79.2" fill="none" stroke="#008300" stroke-width="2" stroke-linejoin="round" stroke-linecap="round"/>
<path d="M290.4,79.2 L303.8,97.8 L317.1,97.8 L330.4,99.5 L343.7,99.2 L357.0,99.2 L370.4,99.2 L383.7,99.2 L397.0,99.2 L410.3,99.4 L423.6,98.8 L437.0,98.6 L450.3,98.6 L463.6,98.6 L476.9,98.6 L490.2,98.9 L503.6,98.9 L516.9,98.9 L530.2,102.4 L543.5,102.4 L556.8,102.3 L570.2,102.3 L583.5,102.4 L596.8,102.4 L610.1,102.4 L623.4,102.4 L636.8,102.4 L650.1,102.4 L663.4,102.4 L676.7,102.4 L690.0,102.4 L703.4,102.4 L716.7,102.4 L730.0,103.3" fill="none" stroke="#008300" stroke-width="2" stroke-linejoin="round" stroke-linecap="round"/>
<circle cx="730.0" cy="103.3" r="6" fill="#fcfcfb"/>
<circle cx="730.0" cy="103.3" r="4" fill="#008300"/>
<path d="M64.0,222.5 L77.3,222.4 L90.6,222.5 L104.0,222.5 L117.3,229.0 L130.6,236.2 L143.9,236.1 L157.2,234.3 L170.6,234.3 L183.9,234.5 L197.2,234.5 L210.5,234.7 L223.8,234.7 L237.2,234.6 L250.5,234.6 L263.8,234.6" fill="none" stroke="#4a3aa7" stroke-width="2" stroke-linejoin="round" stroke-linecap="round"/>
<path d="M290.4,234.6 L303.8,240.3 L317.1,240.3 L330.4,240.1 L343.7,239.7 L357.0,239.7 L370.4,239.7 L383.7,239.7 L397.0,239.7 L410.3,239.6 L423.6,239.1 L437.0,239.1 L450.3,239.1 L463.6,239.1 L476.9,239.1 L490.2,239.2 L503.6,239.2 L516.9,239.2 L530.2,239.1 L543.5,239.1 L556.8,239.0 L570.2,239.0 L583.5,239.1 L596.8,239.1 L610.1,239.1 L623.4,239.1 L636.8,239.1 L650.1,239.1 L663.4,239.1 L676.7,239.1 L690.0,239.1 L703.4,239.1 L716.7,239.0 L730.0,239.5" fill="none" stroke="#4a3aa7" stroke-width="2" stroke-linejoin="round" stroke-linecap="round"/>
<circle cx="730.0" cy="239.5" r="6" fill="#fcfcfb"/>
<circle cx="730.0" cy="239.5" r="4" fill="#4a3aa7"/>
<circle cx="745.0" cy="99.8" r="3.5" fill="#008300"/>
<text x="753.0" y="103.3" font-family='system-ui, -apple-system, "Segoe UI", sans-serif' font-size="11" fill="#0b0b0b">reverb</text>
<text x="753.0" y="115.3" font-family='system-ui, -apple-system, "Segoe UI", sans-serif' font-size="10" style="font-variant-numeric: tabular-nums" fill="#52514e">52.1M</text>
<circle cx="745.0" cy="127.8" r="3.5" fill="#2a78d6"/>
<text x="753.0" y="131.3" font-family='system-ui, -apple-system, "Segoe UI", sans-serif' font-size="11" fill="#0b0b0b">auto-filter</text>
<text x="753.0" y="143.3" font-family='system-ui, -apple-system, "Segoe UI", sans-serif' font-size="10" style="font-variant-numeric: tabular-nums" fill="#52514e">45.5M</text>
<line x1="736.0" y1="131.3" x2="740.0" y2="159.3" stroke="#c3c2b7" stroke-width="1"/>
<circle cx="745.0" cy="155.8" r="3.5" fill="#eda100"/>
<text x="753.0" y="159.3" font-family='system-ui, -apple-system, "Segoe UI", sans-serif' font-size="11" fill="#0b0b0b">echo</text>
<text x="753.0" y="171.3" font-family='system-ui, -apple-system, "Segoe UI", sans-serif' font-size="10" style="font-variant-numeric: tabular-nums" fill="#52514e">44.9M</text>
<line x1="736.0" y1="140.5" x2="740.0" y2="187.3" stroke="#c3c2b7" stroke-width="1"/>
<circle cx="745.0" cy="183.8" r="3.5" fill="#1baf7a"/>
<text x="753.0" y="187.3" font-family='system-ui, -apple-system, "Segoe UI", sans-serif' font-size="11" fill="#0b0b0b">autotune</text>
<text x="753.0" y="199.3" font-family='system-ui, -apple-system, "Segoe UI", sans-serif' font-size="10" style="font-variant-numeric: tabular-nums" fill="#52514e">42.5M</text>
<circle cx="745.0" cy="236.0" r="3.5" fill="#4a3aa7"/>
<text x="753.0" y="239.5" font-family='system-ui, -apple-system, "Segoe UI", sans-serif' font-size="11" fill="#0b0b0b">sampler-arp</text>
<text x="753.0" y="251.5" font-family='system-ui, -apple-system, "Segoe UI", sans-serif' font-size="10" style="font-variant-numeric: tabular-nums" fill="#52514e">17.1M</text>
</svg>