<svg xmlns="http://www.w3.org/2000/svg" width="880" height="340" viewBox="0 0 880 340" role="img" aria-label="Whole-instrument render cost">
<rect width="880" height="340" rx="6" fill="#1a1a19"/>
<text x="64" y="24" font-family='system-ui, -apple-system, "Segoe UI", sans-serif' font-size="14" font-weight="600" fill="#ffffff">Whole-instrument render cost</text>
<text x="64" y="41" font-family='system-ui, -apple-system, "Segoe UI", sans-serif' font-size="11" fill="#c3c2b7">render_block of 1 s of audio - callgrind instructions (Ir), per main commit, 2026-06-28 to 2026-07-07</text>
<line x1="64" y1="306.0" x2="730" y2="306.0" stroke="#2c2c2a" stroke-width="1"/>
<text x="56" y="309.5" text-anchor="end" font-family='system-ui, -apple-system, "Segoe UI", sans-serif' font-size="11" style="font-variant-numeric: tabular-nums" fill="#898781">0</text>
<line x1="64" y1="228.2" x2="730" y2="228.2" stroke="#2c2c2a" stroke-width="1"/>
<text x="56" y="231.7" text-anchor="end" font-family='system-ui, -apple-system, "Segoe UI", sans-serif' font-size="11" style="font-variant-numeric: tabular-nums" fill="#898781">20</text>
<line x1="64" y1="150.4" x2="730" y2="150.4" stroke="#2c2c2a" stroke-width="1"/>
<text x="56" y="153.9" text-anchor="end" font-family='system-ui, -apple-system, "Segoe UI", sans-serif' font-size="11" style="font-variant-numeric: tabular-nums" fill="#898781">40</text>
<line x1="64" y1="72.6" x2="730" y2="72.6" stroke="#2c2c2a" stroke-width="1"/>
<text x="56" y="76.1" text-anchor="end" font-family='system-ui, -apple-system, "Segoe UI", sans-serif' font-size="11" style="font-variant-numeric: tabular-nums" fill="#898781">60</text>
<text x="56" y="46" text-anchor="end" font-family='system-ui, -apple-system, "Segoe UI", sans-serif' font-size="10" fill="#898781">Ir (M)</text>
<line x1="64" y1="306" x2="730" y2="306" stroke="#383835" stroke-width="1"/>
<text x="64.0" y="322" text-anchor="middle" font-family='system-ui, -apple-system, "Segoe UI", sans-serif' font-size="11" style="font-variant-numeric: tabular-nums" fill="#898781">06-28</text>
<text x="161.5" y="322" text-anchor="middle" font-family='system-ui, -apple-system, "Segoe UI", sans-serif' font-size="11" style="font-variant-numeric: tabular-nums" fill="#898781">06-30</text>
<text x="242.7" y="322" text-anchor="middle" font-family='system-ui, -apple-system, "Segoe UI", sans-serif' font-size="11" style="font-variant-numeric: tabular-nums" fill="#898781">07-02</text>
<text x="421.4" y="322" text-anchor="middle" font-family='system-ui, -apple-system, "Segoe UI", sans-serif' font-size="11" style="font-variant-numeric: tabular-nums" fill="#898781">07-04</text>
<text x="681.3" y="322" text-anchor="middle" font-family='system-ui, -apple-system, "Segoe UI", sans-serif' font-size="11" style="font-variant-numeric: tabular-nums" fill="#898781">07-07</text>
<path d="M64.0,72.9 L80.2,73.0 L96.5,80.1 L112.7,80.1 L129.0,94.2 L145.2,108.6 L161.5,108.6 L177.7,105.1 L194.0,105.4 L210.2,105.7 L226.4,105.7 L242.7,105.6 L258.9,105.5 L275.2,105.5 L291.4,105.5 L307.7,105.5" fill="none" stroke="#3987e5" stroke-width="2" stroke-linejoin="round" stroke-linecap="round"/>
<path d="M340.1,105.7 L356.4,122.6 L372.6,122.6 L388.9,125.2 L405.1,125.0 L421.4,125.0 L437.6,125.0 L453.9,125.0 L470.1,125.0 L486.3,125.0 L502.6,124.3 L518.8,124.3 L535.1,124.3 L551.3,124.3 L567.6,124.3 L583.8,124.5 L600.0,124.5 L616.3,124.5 L632.5,127.9 L648.8,127.9 L665.0,127.9 L681.3,127.9 L697.5,127.9 L713.8,127.9 L730.0,127.9" fill="none" stroke="#3987e5" stroke-width="2" stroke-linejoin="round" stroke-linecap="round"/>
<circle cx="730.0" cy="127.9" r="6" fill="#1a1a19"/>
<circle cx="730.0" cy="127.9" r="4" fill="#3987e5"/>
<path d="M64.0,98.8 L80.2,98.9 L96.5,98.2 L112.7,98.2 L129.0,107.4 L145.2,120.8 L161.5,120.7 L177.7,117.1 L194.0,117.4 L210.2,117.8 L226.4,117.7 L242.7,117.7 L258.9,117.5 L275.2,117.7 L291.4,117.7 L307.7,117.7" fill="none" stroke="#199e70" stroke-width="2" stroke-linejoin="round" stroke-linecap="round"/>
<path d="M340.1,117.8 L356.4,134.9 L372.6,134.9 L388.9,136.9 L405.1,136.6 L421.4,136.6 L437.6,136.6 L453.9,136.6 L470.1,136.6 L486.3,136.6 L502.6,135.8 L518.8,135.8 L535.1,135.8 L551.3,135.8 L567.6,135.8 L583.8,136.0 L600.0,136.0 L616.3,136.0 L632.5,139.7 L648.8,139.7 L665.0,139.6 L681.3,139.6 L697.5,139.6 L713.8,139.6 L730.0,139.6" fill="none" stroke="#199e70" stroke-width="2" stroke-linejoin="round" stroke-linecap="round"/>
<circle cx="730.0" cy="139.6" r="6" fill="#1a1a19"/>
<circle cx="730.0" cy="139.6" r="4" fill="#199e70"/>
<path d="M64.0,83.1 L80.2,83.1 L96.5,82.4 L112.7,82.4 L129.0,95.7 L145.2,110.0 L161.5,109.9 L177.7,106.6 L194.0,106.9 L210.2,107.2 L226.4,107.2 L242.7,107.0 L258.9,107.1 L275.2,107.1 L291.4,107.1 L307.7,107.1" fill="none" stroke="#c98500" stroke-width="2" stroke-linejoin="round" stroke-linecap="round"/>
<path d="M340.1,107.2 L356.4,125.6 L372.6,125.6 L388.9,127.5 L405.1,127.3 L421.4,127.3 L437.6,127.3 L453.9,127.3 L470.1,127.3 L486.3,127.5 L502.6,126.6 L518.8,126.3 L535.1,126.3 L551.3,126.3 L567.6,126.3 L583.8,126.9 L600.0,126.9 L616.3,126.8 L632.5,130.5 L648.8,130.5 L665.0,130.3 L681.3,130.3 L697.5,130.4 L713.8,130.4 L730.0,130.4" fill="none" stroke="#c98500" stroke-width="2" stroke-linejoin="round" stroke-linecap="round"/>
<circle cx="730.0" cy="130.4" r="6" fill="#1a1a19"/>
<circle cx="730.0" cy="130.4" r="4" fill="#c98500"/>
<path d="M64.0,56.6 L80.2,56.6 L96.5,56.0 L112.7,56.0 L129.0,65.0 L145.2,82.2 L161.5,82.1 L177.7,78.6 L194.0,78.8 L210.2,79.3 L226.4,79.3 L242.7,79.2 L258.9,79.1 L275.2,79.2 L291.4,79.2 L307.7,79.2" fill="none" stroke="#008300" stroke-width="2" stroke-linejoin="round" stroke-linecap="round"/>
<path d="M340.1,79.2 L356.4,97.8 L372.6,97.8 L388.9,99.5 L405.1,99.2 L421.4,99.2 L437.6,99.2 L453.9,99.2 L470.1,99.2 L486.3,99.4 L502.6,98.8 L518.8,98.6 L535.1,98.6 L551.3,98.6 L567.6,98.6 L583.8,98.9 L600.0,98.9 L616.3,98.9 L632.5,102.4 L648.8,102.4 L665.0,102.3 L681.3,102.3 L697.5,102.4 L713.8,102.4 L730.0,102.4" fill="none" stroke="#008300" stroke-width="2" stroke-linejoin="round" stroke-linecap="round"/>
<circle cx="730.0" cy="102.4" r="6" fill="#1a1a19"/>
<circle cx="730.0" cy="102.4" r="4" fill="#008300"/>
<path d="M64.0,222.5 L80.2,222.4 L96.5,222.5 L112.7,222.5 L129.0,229.0 L145.2,236.2 L161.5,236.1 L177.7,234.3 L194.0,234.3 L210.2,234.5 L226.4,234.5 L242.7,234.7 L258.9,234.7 L275.2,234.6 L291.4,234.6 L307.7,234.6" fill="none" stroke="#9085e9" stroke-width="2" stroke-linejoin="round" stroke-linecap="round"/>
<path d="M340.1,234.6 L356.4,240.3 L372.6,240.3 L388.9,240.1 L405.1,239.7 L421.4,239.7 L437.6,239.7 L453.9,239.7 L470.1,239.7 L486.3,239.6 L502.6,239.1 L518.8,239.1 L535.1,239.1 L551.3,239.1 L567.6,239.1 L583.8,239.2 L600.0,239.2 L616.3,239.2 L632.5,239.1 L648.8,239.1 L665.0,239.0 L681.3,239.0 L697.5,239.1 L713.8,239.1 L730.0,239.1" fill="none" stroke="#9085e9" stroke-width="2" stroke-linejoin="round" stroke-linecap="round"/>
<circle cx="730.0" cy="239.1" r="6" fill="#1a1a19"/>
<circle cx="730.0" cy="239.1" r="4" fill="#9085e9"/>
<circle cx="745.0" cy="98.9" r="3.5" fill="#008300"/>
<text x="753.0" y="102.4" font-family='system-ui, -apple-system, "Segoe UI", sans-serif' font-size="11" fill="#ffffff">reverb</text>
<text x="753.0" y="114.4" font-family='system-ui, -apple-system, "Segoe UI", sans-serif' font-size="10" style="font-variant-numeric: tabular-nums" fill="#c3c2b7">52.3M</text>
<circle cx="745.0" cy="126.9" r="3.5" fill="#3987e5"/>
<text x="753.0" y="130.4" font-family='system-ui, -apple-system, "Segoe UI", sans-serif' font-size="11" fill="#ffffff">auto-filter</text>
<text x="753.0" y="142.4" font-family='system-ui, -apple-system, "Segoe UI", sans-serif' font-size="10" style="font-variant-numeric: tabular-nums" fill="#c3c2b7">45.8M</text>
<line x1="736.0" y1="130.4" x2="740.0" y2="158.4" stroke="#383835" stroke-width="1"/>
<circle cx="745.0" cy="154.9" r="3.5" fill="#c98500"/>
<text x="753.0" y="158.4" font-family='system-ui, -apple-system, "Segoe UI", sans-serif' font-size="11" fill="#ffffff">echo</text>
<text x="753.0" y="170.4" font-family='system-ui, -apple-system, "Segoe UI", sans-serif' font-size="10" style="font-variant-numeric: tabular-nums" fill="#c3c2b7">45.2M</text>
<line x1="736.0" y1="139.6" x2="740.0" y2="186.4" stroke="#383835" stroke-width="1"/>
<circle cx="745.0" cy="182.9" r="3.5" fill="#199e70"/>
<text x="753.0" y="186.4" font-family='system-ui, -apple-system, "Segoe UI", sans-serif' font-size="11" fill="#ffffff">autotune</text>
<text x="753.0" y="198.4" font-family='system-ui, -apple-system, "Segoe UI", sans-serif' font-size="10" style="font-variant-numeric: tabular-nums" fill="#c3c2b7">42.8M</text>
<circle cx="745.0" cy="235.6" r="3.5" fill="#9085e9"/>
<text x="753.0" y="239.1" font-family='system-ui, -apple-system, "Segoe UI", sans-serif' font-size="11" fill="#ffffff">sampler-arp</text>
<text x="753.0" y="251.1" font-family='system-ui, -apple-system, "Segoe UI", sans-serif' font-size="10" style="font-variant-numeric: tabular-nums" fill="#c3c2b7">17.2M</text>
</svg>