<svg xmlns="http://www.w3.org/2000/svg" width="880" height="340" viewBox="0 0 880 340" role="img" aria-label="Whole-instrument render cost">
<rect width="880" height="340" rx="6" fill="#1a1a19"/>
<text x="64" y="24" font-family='system-ui, -apple-system, "Segoe UI", sans-serif' font-size="14" font-weight="600" fill="#ffffff">Whole-instrument render cost</text>
<text x="64" y="41" font-family='system-ui, -apple-system, "Segoe UI", sans-serif' font-size="11" fill="#c3c2b7">render_block of 1 s of audio - callgrind instructions (Ir), per main commit, 2026-06-28 to 2026-07-11</text>
<line x1="64" y1="306.0" x2="730" y2="306.0" stroke="#2c2c2a" stroke-width="1"/>
<text x="56" y="309.5" text-anchor="end" font-family='system-ui, -apple-system, "Segoe UI", sans-serif' font-size="11" style="font-variant-numeric: tabular-nums" fill="#898781">0</text>
<line x1="64" y1="228.2" x2="730" y2="228.2" stroke="#2c2c2a" stroke-width="1"/>
<text x="56" y="231.7" text-anchor="end" font-family='system-ui, -apple-system, "Segoe UI", sans-serif' font-size="11" style="font-variant-numeric: tabular-nums" fill="#898781">20</text>
<line x1="64" y1="150.4" x2="730" y2="150.4" stroke="#2c2c2a" stroke-width="1"/>
<text x="56" y="153.9" text-anchor="end" font-family='system-ui, -apple-system, "Segoe UI", sans-serif' font-size="11" style="font-variant-numeric: tabular-nums" fill="#898781">40</text>
<line x1="64" y1="72.6" x2="730" y2="72.6" stroke="#2c2c2a" stroke-width="1"/>
<text x="56" y="76.1" text-anchor="end" font-family='system-ui, -apple-system, "Segoe UI", sans-serif' font-size="11" style="font-variant-numeric: tabular-nums" fill="#898781">60</text>
<text x="56" y="46" text-anchor="end" font-family='system-ui, -apple-system, "Segoe UI", sans-serif' font-size="10" fill="#898781">Ir (M)</text>
<line x1="64" y1="306" x2="730" y2="306" stroke="#383835" stroke-width="1"/>
<text x="64.0" y="322" text-anchor="middle" font-family='system-ui, -apple-system, "Segoe UI", sans-serif' font-size="11" style="font-variant-numeric: tabular-nums" fill="#898781">06-28</text>
<text x="123.6" y="322" text-anchor="middle" font-family='system-ui, -apple-system, "Segoe UI", sans-serif' font-size="11" style="font-variant-numeric: tabular-nums" fill="#898781">06-30</text>
<text x="173.3" y="322" text-anchor="middle" font-family='system-ui, -apple-system, "Segoe UI", sans-serif' font-size="11" style="font-variant-numeric: tabular-nums" fill="#898781">07-02</text>
<text x="282.7" y="322" text-anchor="middle" font-family='system-ui, -apple-system, "Segoe UI", sans-serif' font-size="11" style="font-variant-numeric: tabular-nums" fill="#898781">07-04</text>
<text x="441.7" y="322" text-anchor="middle" font-family='system-ui, -apple-system, "Segoe UI", sans-serif' font-size="11" style="font-variant-numeric: tabular-nums" fill="#898781">07-07</text>
<text x="541.1" y="322" text-anchor="middle" font-family='system-ui, -apple-system, "Segoe UI", sans-serif' font-size="11" style="font-variant-numeric: tabular-nums" fill="#898781">07-09</text>
<text x="620.7" y="322" text-anchor="middle" font-family='system-ui, -apple-system, "Segoe UI", sans-serif' font-size="11" style="font-variant-numeric: tabular-nums" fill="#898781">07-11</text>
<path d="M64.0,72.9 L73.9,73.0 L83.9,80.1 L93.8,80.1 L103.8,94.2 L113.7,108.6 L123.6,108.6 L133.6,105.1 L143.5,105.4 L153.5,105.7 L163.4,105.7 L173.3,105.6 L183.3,105.5 L193.2,105.5 L203.2,105.5 L213.1,105.5" fill="none" stroke="#3987e5" stroke-width="2" stroke-linejoin="round" stroke-linecap="round"/>
<path d="M233.0,105.7 L242.9,122.6 L252.9,122.6 L262.8,125.2 L272.7,125.0 L282.7,125.0 L292.6,125.0 L302.6,125.0 L312.5,125.0 L322.4,125.0 L332.4,124.3 L342.3,124.3 L352.3,124.3 L362.2,124.3 L372.1,124.3 L382.1,124.5 L392.0,124.5 L402.0,124.5 L411.9,127.9 L421.9,127.9 L431.8,127.9 L441.7,127.9 L451.7,127.9 L461.6,127.9 L471.6,127.9 L481.5,127.9 L491.4,127.9 L501.4,127.9 L511.3,127.9 L521.3,127.9 L531.2,127.9 L541.1,127.9 L551.1,127.9 L561.0,128.8 L571.0,128.8 L580.9,128.8 L590.8,128.2 L600.8,132.1 L610.7,132.1 L620.7,131.7 L630.6,135.3 L640.5,135.3 L650.5,135.3 L660.4,135.3 L670.4,135.3 L680.3,135.3 L690.2,135.3 L700.2,135.3 L710.1,135.3 L720.1,135.3 L730.0,135.3" fill="none" stroke="#3987e5" stroke-width="2" stroke-linejoin="round" stroke-linecap="round"/>
<circle cx="730.0" cy="135.3" r="6" fill="#1a1a19"/>
<circle cx="730.0" cy="135.3" r="4" fill="#3987e5"/>
<path d="M64.0,98.8 L73.9,98.9 L83.9,98.2 L93.8,98.2 L103.8,107.4 L113.7,120.8 L123.6,120.7 L133.6,117.1 L143.5,117.4 L153.5,117.8 L163.4,117.7 L173.3,117.7 L183.3,117.5 L193.2,117.7 L203.2,117.7 L213.1,117.7" fill="none" stroke="#199e70" stroke-width="2" stroke-linejoin="round" stroke-linecap="round"/>
<path d="M233.0,117.8 L242.9,134.9 L252.9,134.9 L262.8,136.9 L272.7,136.6 L282.7,136.6 L292.6,136.6 L302.6,136.6 L312.5,136.6 L322.4,136.6 L332.4,135.8 L342.3,135.8 L352.3,135.8 L362.2,135.8 L372.1,135.8 L382.1,136.0 L392.0,136.0 L402.0,136.0 L411.9,139.7 L421.9,139.7 L431.8,139.6 L441.7,139.6 L451.7,139.6 L461.6,139.6 L471.6,139.6 L481.5,139.6 L491.4,139.6 L501.4,139.6 L511.3,139.6 L521.3,139.6 L531.2,139.6 L541.1,139.6 L551.1,139.6 L561.0,140.5 L571.0,140.5 L580.9,140.5 L590.8,139.8 L600.8,143.5 L610.7,143.5 L620.7,143.5 L630.6,147.1 L640.5,147.1 L650.5,147.1 L660.4,147.1 L670.4,147.1 L680.3,147.1 L690.2,147.1 L700.2,147.1 L710.1,147.1 L720.1,147.1 L730.0,147.1" fill="none" stroke="#199e70" stroke-width="2" stroke-linejoin="round" stroke-linecap="round"/>
<circle cx="730.0" cy="147.1" r="6" fill="#1a1a19"/>
<circle cx="730.0" cy="147.1" r="4" fill="#199e70"/>
<path d="M64.0,83.1 L73.9,83.1 L83.9,82.4 L93.8,82.4 L103.8,95.7 L113.7,110.0 L123.6,109.9 L133.6,106.6 L143.5,106.9 L153.5,107.2 L163.4,107.2 L173.3,107.0 L183.3,107.1 L193.2,107.1 L203.2,107.1 L213.1,107.1" fill="none" stroke="#c98500" stroke-width="2" stroke-linejoin="round" stroke-linecap="round"/>
<path d="M233.0,107.2 L242.9,125.6 L252.9,125.6 L262.8,127.5 L272.7,127.3 L282.7,127.3 L292.6,127.3 L302.6,127.3 L312.5,127.3 L322.4,127.5 L332.4,126.6 L342.3,126.3 L352.3,126.3 L362.2,126.3 L372.1,126.3 L382.1,126.9 L392.0,126.9 L402.0,126.8 L411.9,130.5 L421.9,130.5 L431.8,130.3 L441.7,130.3 L451.7,130.4 L461.6,130.4 L471.6,130.4 L481.5,130.4 L491.4,130.4 L501.4,130.4 L511.3,130.4 L521.3,130.4 L531.2,130.4 L541.1,130.4 L551.1,130.4 L561.0,131.3 L571.0,131.4 L580.9,131.4 L590.8,130.7 L600.8,133.9 L610.7,133.9 L620.7,133.9 L630.6,137.8 L640.5,137.8 L650.5,137.8 L660.4,137.8 L670.4,137.8 L680.3,137.8 L690.2,137.8 L700.2,137.8 L710.1,137.8 L720.1,137.8 L730.0,137.8" fill="none" stroke="#c98500" stroke-width="2" stroke-linejoin="round" stroke-linecap="round"/>
<circle cx="730.0" cy="137.8" r="6" fill="#1a1a19"/>
<circle cx="730.0" cy="137.8" r="4" fill="#c98500"/>
<path d="M64.0,56.6 L73.9,56.6 L83.9,56.0 L93.8,56.0 L103.8,65.0 L113.7,82.2 L123.6,82.1 L133.6,78.6 L143.5,78.8 L153.5,79.3 L163.4,79.3 L173.3,79.2 L183.3,79.1 L193.2,79.2 L203.2,79.2 L213.1,79.2" fill="none" stroke="#008300" stroke-width="2" stroke-linejoin="round" stroke-linecap="round"/>
<path d="M233.0,79.2 L242.9,97.8 L252.9,97.8 L262.8,99.5 L272.7,99.2 L282.7,99.2 L292.6,99.2 L302.6,99.2 L312.5,99.2 L322.4,99.4 L332.4,98.8 L342.3,98.6 L352.3,98.6 L362.2,98.6 L372.1,98.6 L382.1,98.9 L392.0,98.9 L402.0,98.9 L411.9,102.4 L421.9,102.4 L431.8,102.3 L441.7,102.3 L451.7,102.4 L461.6,102.4 L471.6,102.4 L481.5,102.4 L491.4,102.4 L501.4,102.4 L511.3,102.4 L521.3,102.4 L531.2,102.4 L541.1,102.4 L551.1,102.4 L561.0,103.3 L571.0,103.3 L580.9,103.3 L590.8,102.7 L600.8,106.1 L610.7,106.1 L620.7,106.1 L630.6,109.4 L640.5,109.4 L650.5,109.4 L660.4,109.4 L670.4,109.4 L680.3,109.4 L690.2,109.4 L700.2,109.4 L710.1,109.4 L720.1,109.4 L730.0,109.4" fill="none" stroke="#008300" stroke-width="2" stroke-linejoin="round" stroke-linecap="round"/>
<circle cx="730.0" cy="109.4" r="6" fill="#1a1a19"/>
<circle cx="730.0" cy="109.4" r="4" fill="#008300"/>
<path d="M64.0,222.5 L73.9,222.4 L83.9,222.5 L93.8,222.5 L103.8,229.0 L113.7,236.2 L123.6,236.1 L133.6,234.3 L143.5,234.3 L153.5,234.5 L163.4,234.5 L173.3,234.7 L183.3,234.7 L193.2,234.6 L203.2,234.6 L213.1,234.6" fill="none" stroke="#9085e9" stroke-width="2" stroke-linejoin="round" stroke-linecap="round"/>
<path d="M233.0,234.6 L242.9,240.3 L252.9,240.3 L262.8,240.1 L272.7,239.7 L282.7,239.7 L292.6,239.7 L302.6,239.7 L312.5,239.7 L322.4,239.6 L332.4,239.1 L342.3,239.1 L352.3,239.1 L362.2,239.1 L372.1,239.1 L382.1,239.2 L392.0,239.2 L402.0,239.2 L411.9,239.1 L421.9,239.1 L431.8,239.0 L441.7,239.0 L451.7,239.1 L461.6,239.1 L471.6,239.1 L481.5,239.1 L491.4,239.1 L501.4,239.1 L511.3,239.1 L521.3,239.1 L531.2,239.1 L541.1,239.1 L551.1,239.0 L561.0,239.5 L571.0,239.6 L580.9,239.6 L590.8,239.4 L600.8,241.0 L610.7,241.1 L620.7,241.1 L630.6,244.4 L640.5,244.4 L650.5,244.4 L660.4,244.4 L670.4,244.4 L680.3,244.4 L690.2,244.4 L700.2,244.4 L710.1,244.4 L720.1,244.4 L730.0,244.4" fill="none" stroke="#9085e9" stroke-width="2" stroke-linejoin="round" stroke-linecap="round"/>
<circle cx="730.0" cy="244.4" r="6" fill="#1a1a19"/>
<circle cx="730.0" cy="244.4" r="4" fill="#9085e9"/>
<circle cx="745.0" cy="105.9" r="3.5" fill="#008300"/>
<text x="753.0" y="109.4" font-family='system-ui, -apple-system, "Segoe UI", sans-serif' font-size="11" fill="#ffffff">reverb</text>
<text x="753.0" y="121.4" font-family='system-ui, -apple-system, "Segoe UI", sans-serif' font-size="10" style="font-variant-numeric: tabular-nums" fill="#c3c2b7">50.5M</text>
<circle cx="745.0" cy="133.9" r="3.5" fill="#3987e5"/>
<text x="753.0" y="137.4" font-family='system-ui, -apple-system, "Segoe UI", sans-serif' font-size="11" fill="#ffffff">auto-filter</text>
<text x="753.0" y="149.4" font-family='system-ui, -apple-system, "Segoe UI", sans-serif' font-size="10" style="font-variant-numeric: tabular-nums" fill="#c3c2b7">43.9M</text>
<line x1="736.0" y1="137.8" x2="740.0" y2="165.4" stroke="#383835" stroke-width="1"/>
<circle cx="745.0" cy="161.9" r="3.5" fill="#c98500"/>
<text x="753.0" y="165.4" font-family='system-ui, -apple-system, "Segoe UI", sans-serif' font-size="11" fill="#ffffff">echo</text>
<text x="753.0" y="177.4" font-family='system-ui, -apple-system, "Segoe UI", sans-serif' font-size="10" style="font-variant-numeric: tabular-nums" fill="#c3c2b7">43.2M</text>
<line x1="736.0" y1="147.1" x2="740.0" y2="193.4" stroke="#383835" stroke-width="1"/>
<circle cx="745.0" cy="189.9" r="3.5" fill="#199e70"/>
<text x="753.0" y="193.4" font-family='system-ui, -apple-system, "Segoe UI", sans-serif' font-size="11" fill="#ffffff">autotune</text>
<text x="753.0" y="205.4" font-family='system-ui, -apple-system, "Segoe UI", sans-serif' font-size="10" style="font-variant-numeric: tabular-nums" fill="#c3c2b7">40.9M</text>
<circle cx="745.0" cy="240.9" r="3.5" fill="#9085e9"/>
<text x="753.0" y="244.4" font-family='system-ui, -apple-system, "Segoe UI", sans-serif' font-size="11" fill="#ffffff">sampler-arp</text>
<text x="753.0" y="256.4" font-family='system-ui, -apple-system, "Segoe UI", sans-serif' font-size="10" style="font-variant-numeric: tabular-nums" fill="#c3c2b7">15.8M</text>
</svg>