<svg xmlns="http://www.w3.org/2000/svg" width="880" height="340" viewBox="0 0 880 340" role="img" aria-label="Whole-instrument render cost">
<rect width="880" height="340" rx="6" fill="#fcfcfb"/>
<text x="64" y="24" font-family='system-ui, -apple-system, "Segoe UI", sans-serif' font-size="14" font-weight="600" fill="#0b0b0b">Whole-instrument render cost</text>
<text x="64" y="41" font-family='system-ui, -apple-system, "Segoe UI", sans-serif' font-size="11" fill="#52514e">render_block of 1 s of audio - callgrind instructions (Ir), per main commit, 2026-06-28 to 2026-07-08</text>
<line x1="64" y1="306.0" x2="730" y2="306.0" stroke="#e1e0d9" stroke-width="1"/>
<text x="56" y="309.5" text-anchor="end" font-family='system-ui, -apple-system, "Segoe UI", sans-serif' font-size="11" style="font-variant-numeric: tabular-nums" fill="#898781">0</text>
<line x1="64" y1="228.2" x2="730" y2="228.2" stroke="#e1e0d9" stroke-width="1"/>
<text x="56" y="231.7" text-anchor="end" font-family='system-ui, -apple-system, "Segoe UI", sans-serif' font-size="11" style="font-variant-numeric: tabular-nums" fill="#898781">20</text>
<line x1="64" y1="150.4" x2="730" y2="150.4" stroke="#e1e0d9" stroke-width="1"/>
<text x="56" y="153.9" text-anchor="end" font-family='system-ui, -apple-system, "Segoe UI", sans-serif' font-size="11" style="font-variant-numeric: tabular-nums" fill="#898781">40</text>
<line x1="64" y1="72.6" x2="730" y2="72.6" stroke="#e1e0d9" stroke-width="1"/>
<text x="56" y="76.1" text-anchor="end" font-family='system-ui, -apple-system, "Segoe UI", sans-serif' font-size="11" style="font-variant-numeric: tabular-nums" fill="#898781">60</text>
<text x="56" y="46" text-anchor="end" font-family='system-ui, -apple-system, "Segoe UI", sans-serif' font-size="10" fill="#898781">Ir (M)</text>
<line x1="64" y1="306" x2="730" y2="306" stroke="#c3c2b7" stroke-width="1"/>
<text x="64.0" y="322" text-anchor="middle" font-family='system-ui, -apple-system, "Segoe UI", sans-serif' font-size="11" style="font-variant-numeric: tabular-nums" fill="#898781">06-28</text>
<text x="152.8" y="322" text-anchor="middle" font-family='system-ui, -apple-system, "Segoe UI", sans-serif' font-size="11" style="font-variant-numeric: tabular-nums" fill="#898781">06-30</text>
<text x="226.8" y="322" text-anchor="middle" font-family='system-ui, -apple-system, "Segoe UI", sans-serif' font-size="11" style="font-variant-numeric: tabular-nums" fill="#898781">07-02</text>
<text x="389.6" y="322" text-anchor="middle" font-family='system-ui, -apple-system, "Segoe UI", sans-serif' font-size="11" style="font-variant-numeric: tabular-nums" fill="#898781">07-04</text>
<text x="626.4" y="322" text-anchor="middle" font-family='system-ui, -apple-system, "Segoe UI", sans-serif' font-size="11" style="font-variant-numeric: tabular-nums" fill="#898781">07-07</text>
<path d="M64.0,72.9 L78.8,73.0 L93.6,80.1 L108.4,80.1 L123.2,94.2 L138.0,108.6 L152.8,108.6 L167.6,105.1 L182.4,105.4 L197.2,105.7 L212.0,105.7 L226.8,105.6 L241.6,105.5 L256.4,105.5 L271.2,105.5 L286.0,105.5" fill="none" stroke="#2a78d6" stroke-width="2" stroke-linejoin="round" stroke-linecap="round"/>
<path d="M315.6,105.7 L330.4,122.6 L345.2,122.6 L360.0,125.2 L374.8,125.0 L389.6,125.0 L404.4,125.0 L419.2,125.0 L434.0,125.0 L448.8,125.0 L463.6,124.3 L478.4,124.3 L493.2,124.3 L508.0,124.3 L522.8,124.3 L537.6,124.5 L552.4,124.5 L567.2,124.5 L582.0,127.9 L596.8,127.9 L611.6,127.9 L626.4,127.9 L641.2,127.9 L656.0,127.9 L670.8,127.9 L685.6,127.9 L700.4,127.9 L715.2,127.9 L730.0,127.9" fill="none" stroke="#2a78d6" stroke-width="2" stroke-linejoin="round" stroke-linecap="round"/>
<circle cx="730.0" cy="127.9" r="6" fill="#fcfcfb"/>
<circle cx="730.0" cy="127.9" r="4" fill="#2a78d6"/>
<path d="M64.0,98.8 L78.8,98.9 L93.6,98.2 L108.4,98.2 L123.2,107.4 L138.0,120.8 L152.8,120.7 L167.6,117.1 L182.4,117.4 L197.2,117.8 L212.0,117.7 L226.8,117.7 L241.6,117.5 L256.4,117.7 L271.2,117.7 L286.0,117.7" fill="none" stroke="#1baf7a" stroke-width="2" stroke-linejoin="round" stroke-linecap="round"/>
<path d="M315.6,117.8 L330.4,134.9 L345.2,134.9 L360.0,136.9 L374.8,136.6 L389.6,136.6 L404.4,136.6 L419.2,136.6 L434.0,136.6 L448.8,136.6 L463.6,135.8 L478.4,135.8 L493.2,135.8 L508.0,135.8 L522.8,135.8 L537.6,136.0 L552.4,136.0 L567.2,136.0 L582.0,139.7 L596.8,139.7 L611.6,139.6 L626.4,139.6 L641.2,139.6 L656.0,139.6 L670.8,139.6 L685.6,139.6 L700.4,139.6 L715.2,139.6 L730.0,139.6" fill="none" stroke="#1baf7a" stroke-width="2" stroke-linejoin="round" stroke-linecap="round"/>
<circle cx="730.0" cy="139.6" r="6" fill="#fcfcfb"/>
<circle cx="730.0" cy="139.6" r="4" fill="#1baf7a"/>
<path d="M64.0,83.1 L78.8,83.1 L93.6,82.4 L108.4,82.4 L123.2,95.7 L138.0,110.0 L152.8,109.9 L167.6,106.6 L182.4,106.9 L197.2,107.2 L212.0,107.2 L226.8,107.0 L241.6,107.1 L256.4,107.1 L271.2,107.1 L286.0,107.1" fill="none" stroke="#eda100" stroke-width="2" stroke-linejoin="round" stroke-linecap="round"/>
<path d="M315.6,107.2 L330.4,125.6 L345.2,125.6 L360.0,127.5 L374.8,127.3 L389.6,127.3 L404.4,127.3 L419.2,127.3 L434.0,127.3 L448.8,127.5 L463.6,126.6 L478.4,126.3 L493.2,126.3 L508.0,126.3 L522.8,126.3 L537.6,126.9 L552.4,126.9 L567.2,126.8 L582.0,130.5 L596.8,130.5 L611.6,130.3 L626.4,130.3 L641.2,130.4 L656.0,130.4 L670.8,130.4 L685.6,130.4 L700.4,130.4 L715.2,130.4 L730.0,130.4" fill="none" stroke="#eda100" stroke-width="2" stroke-linejoin="round" stroke-linecap="round"/>
<circle cx="730.0" cy="130.4" r="6" fill="#fcfcfb"/>
<circle cx="730.0" cy="130.4" r="4" fill="#eda100"/>
<path d="M64.0,56.6 L78.8,56.6 L93.6,56.0 L108.4,56.0 L123.2,65.0 L138.0,82.2 L152.8,82.1 L167.6,78.6 L182.4,78.8 L197.2,79.3 L212.0,79.3 L226.8,79.2 L241.6,79.1 L256.4,79.2 L271.2,79.2 L286.0,79.2" fill="none" stroke="#008300" stroke-width="2" stroke-linejoin="round" stroke-linecap="round"/>
<path d="M315.6,79.2 L330.4,97.8 L345.2,97.8 L360.0,99.5 L374.8,99.2 L389.6,99.2 L404.4,99.2 L419.2,99.2 L434.0,99.2 L448.8,99.4 L463.6,98.8 L478.4,98.6 L493.2,98.6 L508.0,98.6 L522.8,98.6 L537.6,98.9 L552.4,98.9 L567.2,98.9 L582.0,102.4 L596.8,102.4 L611.6,102.3 L626.4,102.3 L641.2,102.4 L656.0,102.4 L670.8,102.4 L685.6,102.4 L700.4,102.4 L715.2,102.4 L730.0,102.4" fill="none" stroke="#008300" stroke-width="2" stroke-linejoin="round" stroke-linecap="round"/>
<circle cx="730.0" cy="102.4" r="6" fill="#fcfcfb"/>
<circle cx="730.0" cy="102.4" r="4" fill="#008300"/>
<path d="M64.0,222.5 L78.8,222.4 L93.6,222.5 L108.4,222.5 L123.2,229.0 L138.0,236.2 L152.8,236.1 L167.6,234.3 L182.4,234.3 L197.2,234.5 L212.0,234.5 L226.8,234.7 L241.6,234.7 L256.4,234.6 L271.2,234.6 L286.0,234.6" fill="none" stroke="#4a3aa7" stroke-width="2" stroke-linejoin="round" stroke-linecap="round"/>
<path d="M315.6,234.6 L330.4,240.3 L345.2,240.3 L360.0,240.1 L374.8,239.7 L389.6,239.7 L404.4,239.7 L419.2,239.7 L434.0,239.7 L448.8,239.6 L463.6,239.1 L478.4,239.1 L493.2,239.1 L508.0,239.1 L522.8,239.1 L537.6,239.2 L552.4,239.2 L567.2,239.2 L582.0,239.1 L596.8,239.1 L611.6,239.0 L626.4,239.0 L641.2,239.1 L656.0,239.1 L670.8,239.1 L685.6,239.1 L700.4,239.1 L715.2,239.1 L730.0,239.1" fill="none" stroke="#4a3aa7" stroke-width="2" stroke-linejoin="round" stroke-linecap="round"/>
<circle cx="730.0" cy="239.1" r="6" fill="#fcfcfb"/>
<circle cx="730.0" cy="239.1" r="4" fill="#4a3aa7"/>
<circle cx="745.0" cy="98.9" r="3.5" fill="#008300"/>
<text x="753.0" y="102.4" font-family='system-ui, -apple-system, "Segoe UI", sans-serif' font-size="11" fill="#0b0b0b">reverb</text>
<text x="753.0" y="114.4" font-family='system-ui, -apple-system, "Segoe UI", sans-serif' font-size="10" style="font-variant-numeric: tabular-nums" fill="#52514e">52.3M</text>
<circle cx="745.0" cy="126.9" r="3.5" fill="#2a78d6"/>
<text x="753.0" y="130.4" font-family='system-ui, -apple-system, "Segoe UI", sans-serif' font-size="11" fill="#0b0b0b">auto-filter</text>
<text x="753.0" y="142.4" font-family='system-ui, -apple-system, "Segoe UI", sans-serif' font-size="10" style="font-variant-numeric: tabular-nums" fill="#52514e">45.8M</text>
<line x1="736.0" y1="130.4" x2="740.0" y2="158.4" stroke="#c3c2b7" stroke-width="1"/>
<circle cx="745.0" cy="154.9" r="3.5" fill="#eda100"/>
<text x="753.0" y="158.4" font-family='system-ui, -apple-system, "Segoe UI", sans-serif' font-size="11" fill="#0b0b0b">echo</text>
<text x="753.0" y="170.4" font-family='system-ui, -apple-system, "Segoe UI", sans-serif' font-size="10" style="font-variant-numeric: tabular-nums" fill="#52514e">45.2M</text>
<line x1="736.0" y1="139.6" x2="740.0" y2="186.4" stroke="#c3c2b7" stroke-width="1"/>
<circle cx="745.0" cy="182.9" r="3.5" fill="#1baf7a"/>
<text x="753.0" y="186.4" font-family='system-ui, -apple-system, "Segoe UI", sans-serif' font-size="11" fill="#0b0b0b">autotune</text>
<text x="753.0" y="198.4" font-family='system-ui, -apple-system, "Segoe UI", sans-serif' font-size="10" style="font-variant-numeric: tabular-nums" fill="#52514e">42.8M</text>
<circle cx="745.0" cy="235.6" r="3.5" fill="#4a3aa7"/>
<text x="753.0" y="239.1" font-family='system-ui, -apple-system, "Segoe UI", sans-serif' font-size="11" fill="#0b0b0b">sampler-arp</text>
<text x="753.0" y="251.1" font-family='system-ui, -apple-system, "Segoe UI", sans-serif' font-size="10" style="font-variant-numeric: tabular-nums" fill="#52514e">17.2M</text>
</svg>