<svg xmlns="http://www.w3.org/2000/svg" width="880" height="340" viewBox="0 0 880 340" role="img" aria-label="Whole-instrument render cost">
<rect width="880" height="340" rx="6" fill="#1a1a19"/>
<text x="64" y="24" font-family='system-ui, -apple-system, "Segoe UI", sans-serif' font-size="14" font-weight="600" fill="#ffffff">Whole-instrument render cost</text>
<text x="64" y="41" font-family='system-ui, -apple-system, "Segoe UI", sans-serif' font-size="11" fill="#c3c2b7">render_block of 1 s of audio - callgrind instructions (Ir), per dev commit, 2026-07-12 to 2026-07-21</text>
<line x1="64" y1="306.0" x2="730" y2="306.0" stroke="#2c2c2a" stroke-width="1"/>
<text x="56" y="309.5" text-anchor="end" font-family='system-ui, -apple-system, "Segoe UI", sans-serif' font-size="11" style="font-variant-numeric: tabular-nums" fill="#898781">0</text>
<line x1="64" y1="207.1" x2="730" y2="207.1" stroke="#2c2c2a" stroke-width="1"/>
<text x="56" y="210.6" text-anchor="end" font-family='system-ui, -apple-system, "Segoe UI", sans-serif' font-size="11" style="font-variant-numeric: tabular-nums" fill="#898781">20</text>
<line x1="64" y1="108.2" x2="730" y2="108.2" stroke="#2c2c2a" stroke-width="1"/>
<text x="56" y="111.7" text-anchor="end" font-family='system-ui, -apple-system, "Segoe UI", sans-serif' font-size="11" style="font-variant-numeric: tabular-nums" fill="#898781">40</text>
<text x="56" y="46" text-anchor="end" font-family='system-ui, -apple-system, "Segoe UI", sans-serif' font-size="10" fill="#898781">Ir (M)</text>
<line x1="64" y1="306" x2="730" y2="306" stroke="#383835" stroke-width="1"/>
<text x="64.0" y="322" text-anchor="middle" font-family='system-ui, -apple-system, "Segoe UI", sans-serif' font-size="11" style="font-variant-numeric: tabular-nums" fill="#898781">07-12</text>
<text x="165.3" y="322" text-anchor="middle" font-family='system-ui, -apple-system, "Segoe UI", sans-serif' font-size="11" style="font-variant-numeric: tabular-nums" fill="#898781">07-14</text>
<text x="295.7" y="322" text-anchor="middle" font-family='system-ui, -apple-system, "Segoe UI", sans-serif' font-size="11" style="font-variant-numeric: tabular-nums" fill="#898781">07-17</text>
<text x="469.4" y="322" text-anchor="middle" font-family='system-ui, -apple-system, "Segoe UI", sans-serif' font-size="11" style="font-variant-numeric: tabular-nums" fill="#898781">07-19</text>
<text x="730.0" y="322" text-anchor="middle" font-family='system-ui, -apple-system, "Segoe UI", sans-serif' font-size="11" style="font-variant-numeric: tabular-nums" fill="#898781">07-21</text>
<path d="M64.0,88.9 L78.5,88.9 L93.0,88.9 L107.4,88.9 L121.9,88.9 L136.4,88.9 L150.9,88.9 L165.3,88.9 L179.8,88.9 L194.3,88.9 L208.8,88.9 L223.3,88.9 L237.7,88.9 L252.2,88.9 L266.7,88.9 L281.2,88.9 L295.7,88.9 L310.1,88.9 L324.6,88.9 L339.1,88.9 L353.6,88.9 L368.0,88.9 L382.5,88.9 L397.0,88.9 L411.5,88.9 L426.0,88.9 L440.4,88.9 L454.9,88.9 L469.4,89.0 L483.9,89.0 L498.3,89.0 L512.8,89.0 L527.3,89.0 L541.8,89.3 L556.3,89.3 L570.7,89.3 L585.2,89.3 L599.7,89.3 L614.2,89.3 L628.7,89.2 L643.1,89.2 L657.6,89.3 L672.1,89.3 L686.6,89.3 L701.0,89.3 L715.5,89.3 L730.0,89.3" fill="none" stroke="#3987e5" stroke-width="2" stroke-linejoin="round" stroke-linecap="round"/>
<circle cx="730.0" cy="89.3" r="6" fill="#1a1a19"/>
<circle cx="730.0" cy="89.3" r="4" fill="#3987e5"/>
<path d="M64.0,103.9 L78.5,103.9 L93.0,103.9 L107.4,103.9 L121.9,103.9 L136.4,103.9 L150.9,103.8 L165.3,103.8 L179.8,103.8 L194.3,103.8 L208.8,103.8 L223.3,103.8 L237.7,103.8 L252.2,103.8 L266.7,103.9 L281.2,103.9 L295.7,103.9 L310.1,103.9 L324.6,103.9 L339.1,103.9 L353.6,103.9 L368.0,103.9 L382.5,103.9 L397.0,103.9 L411.5,103.9 L426.0,103.9 L440.4,103.9 L454.9,103.9 L469.4,103.9 L483.9,103.9 L498.3,103.9 L512.8,103.9 L527.3,103.9 L541.8,104.2 L556.3,104.2 L570.7,104.2 L585.2,104.2 L599.7,104.1 L614.2,104.1 L628.7,104.2 L643.1,104.2 L657.6,104.2 L672.1,104.2 L686.6,104.2 L701.0,104.2 L715.5,104.2 L730.0,104.2" fill="none" stroke="#199e70" stroke-width="2" stroke-linejoin="round" stroke-linecap="round"/>
<circle cx="730.0" cy="104.2" r="6" fill="#1a1a19"/>
<circle cx="730.0" cy="104.2" r="4" fill="#199e70"/>
<path d="M64.0,92.1 L78.5,92.1 L93.0,92.1 L107.4,92.1 L121.9,92.1 L136.4,92.1 L150.9,92.1 L165.3,92.1 L179.8,92.1 L194.3,92.1 L208.8,92.1 L223.3,92.1 L237.7,92.1 L252.2,92.1 L266.7,92.1 L281.2,92.1 L295.7,92.1 L310.1,92.1 L324.6,92.1 L339.1,92.1 L353.6,92.1 L368.0,92.1 L382.5,92.1 L397.0,92.1 L411.5,92.1 L426.0,92.1 L440.4,92.1 L454.9,92.1 L469.4,92.1 L483.9,92.1 L498.3,92.1 L512.8,92.1 L527.3,92.1 L541.8,92.4 L556.3,92.4 L570.7,92.4 L585.2,92.4 L599.7,92.4 L614.2,92.4 L628.7,92.3 L643.1,92.3 L657.6,92.4 L672.1,92.4 L686.6,92.4 L701.0,92.4 L715.5,92.4 L730.0,92.4" fill="none" stroke="#c98500" stroke-width="2" stroke-linejoin="round" stroke-linecap="round"/>
<circle cx="730.0" cy="92.4" r="6" fill="#1a1a19"/>
<circle cx="730.0" cy="92.4" r="4" fill="#c98500"/>
<path d="M64.0,56.0 L78.5,56.0 L93.0,56.0 L107.4,56.0 L121.9,56.0 L136.4,56.0 L150.9,56.0 L165.3,56.0 L179.8,56.0 L194.3,56.0 L208.8,56.0 L223.3,56.0 L237.7,56.0 L252.2,56.0 L266.7,56.0 L281.2,56.0 L295.7,56.0 L310.1,56.0 L324.6,56.0 L339.1,56.0 L353.6,56.0 L368.0,56.0 L382.5,56.0 L397.0,56.0 L411.5,56.0 L426.0,56.0 L440.4,56.0 L454.9,56.0 L469.4,56.0 L483.9,56.0 L498.3,56.0 L512.8,56.0 L527.3,56.0 L541.8,56.3 L556.3,56.3 L570.7,56.3 L585.2,56.3 L599.7,56.3 L614.2,56.3 L628.7,56.2 L643.1,56.2 L657.6,56.3 L672.1,56.3 L686.6,56.3 L701.0,56.3 L715.5,56.3 L730.0,56.3" fill="none" stroke="#008300" stroke-width="2" stroke-linejoin="round" stroke-linecap="round"/>
<circle cx="730.0" cy="56.3" r="6" fill="#1a1a19"/>
<circle cx="730.0" cy="56.3" r="4" fill="#008300"/>
<path d="M64.0,227.6 L78.5,227.6 L93.0,227.6 L107.4,227.6 L121.9,227.6 L136.4,227.6 L150.9,227.6 L165.3,227.6 L179.8,227.6 L194.3,227.6 L208.8,227.6 L223.3,227.6 L237.7,227.6 L252.2,227.6 L266.7,227.6 L281.2,227.6 L295.7,227.6 L310.1,227.6 L324.6,227.6 L339.1,227.6 L353.6,227.6 L368.0,227.6 L382.5,227.6 L397.0,227.6 L411.5,227.6 L426.0,227.6 L440.4,227.6 L454.9,227.6 L469.4,227.6 L483.9,227.6 L498.3,227.6 L512.8,227.6 L527.3,227.6 L541.8,227.8 L556.3,227.8 L570.7,227.8 L585.2,227.8 L599.7,227.7 L614.2,227.7 L628.7,227.8 L643.1,227.8 L657.6,227.7 L672.1,227.7 L686.6,227.7 L701.0,227.7 L715.5,227.7 L730.0,227.7" fill="none" stroke="#9085e9" stroke-width="2" stroke-linejoin="round" stroke-linecap="round"/>
<circle cx="730.0" cy="227.7" r="6" fill="#1a1a19"/>
<circle cx="730.0" cy="227.7" r="4" fill="#9085e9"/>
<circle cx="745.0" cy="52.8" r="3.5" fill="#008300"/>
<text x="753.0" y="56.3" font-family='system-ui, -apple-system, "Segoe UI", sans-serif' font-size="11" fill="#ffffff">reverb</text>
<text x="753.0" y="68.3" font-family='system-ui, -apple-system, "Segoe UI", sans-serif' font-size="10" style="font-variant-numeric: tabular-nums" fill="#c3c2b7">50.5M</text>
<circle cx="745.0" cy="85.8" r="3.5" fill="#3987e5"/>
<text x="753.0" y="89.3" font-family='system-ui, -apple-system, "Segoe UI", sans-serif' font-size="11" fill="#ffffff">auto-filter</text>
<text x="753.0" y="101.3" font-family='system-ui, -apple-system, "Segoe UI", sans-serif' font-size="10" style="font-variant-numeric: tabular-nums" fill="#c3c2b7">43.8M</text>
<line x1="736.0" y1="92.4" x2="740.0" y2="117.3" stroke="#383835" stroke-width="1"/>
<circle cx="745.0" cy="113.8" r="3.5" fill="#c98500"/>
<text x="753.0" y="117.3" font-family='system-ui, -apple-system, "Segoe UI", sans-serif' font-size="11" fill="#ffffff">echo</text>
<text x="753.0" y="129.3" font-family='system-ui, -apple-system, "Segoe UI", sans-serif' font-size="10" style="font-variant-numeric: tabular-nums" fill="#c3c2b7">43.2M</text>
<line x1="736.0" y1="104.2" x2="740.0" y2="145.3" stroke="#383835" stroke-width="1"/>
<circle cx="745.0" cy="141.8" r="3.5" fill="#199e70"/>
<text x="753.0" y="145.3" font-family='system-ui, -apple-system, "Segoe UI", sans-serif' font-size="11" fill="#ffffff">autotune</text>
<text x="753.0" y="157.3" font-family='system-ui, -apple-system, "Segoe UI", sans-serif' font-size="10" style="font-variant-numeric: tabular-nums" fill="#c3c2b7">40.8M</text>
<circle cx="745.0" cy="224.2" r="3.5" fill="#9085e9"/>
<text x="753.0" y="227.7" font-family='system-ui, -apple-system, "Segoe UI", sans-serif' font-size="11" fill="#ffffff">sampler-arp</text>
<text x="753.0" y="239.7" font-family='system-ui, -apple-system, "Segoe UI", sans-serif' font-size="10" style="font-variant-numeric: tabular-nums" fill="#c3c2b7">15.8M</text>
</svg>