<svg xmlns="http://www.w3.org/2000/svg" width="880" height="340" viewBox="0 0 880 340" role="img" aria-label="Whole-instrument render cost">
<rect width="880" height="340" rx="6" fill="#fcfcfb"/>
<text x="64" y="24" font-family='system-ui, -apple-system, "Segoe UI", sans-serif' font-size="14" font-weight="600" fill="#0b0b0b">Whole-instrument render cost</text>
<text x="64" y="41" font-family='system-ui, -apple-system, "Segoe UI", sans-serif' font-size="11" fill="#52514e">render_block of 1 s of audio - callgrind instructions (Ir), per dev commit, 2026-07-12 to 2026-07-20</text>
<line x1="64" y1="306.0" x2="730" y2="306.0" stroke="#e1e0d9" stroke-width="1"/>
<text x="56" y="309.5" text-anchor="end" font-family='system-ui, -apple-system, "Segoe UI", sans-serif' font-size="11" style="font-variant-numeric: tabular-nums" fill="#898781">0</text>
<line x1="64" y1="207.1" x2="730" y2="207.1" stroke="#e1e0d9" stroke-width="1"/>
<text x="56" y="210.6" text-anchor="end" font-family='system-ui, -apple-system, "Segoe UI", sans-serif' font-size="11" style="font-variant-numeric: tabular-nums" fill="#898781">20</text>
<line x1="64" y1="108.2" x2="730" y2="108.2" stroke="#e1e0d9" stroke-width="1"/>
<text x="56" y="111.7" text-anchor="end" font-family='system-ui, -apple-system, "Segoe UI", sans-serif' font-size="11" style="font-variant-numeric: tabular-nums" fill="#898781">40</text>
<text x="56" y="46" text-anchor="end" font-family='system-ui, -apple-system, "Segoe UI", sans-serif' font-size="10" fill="#898781">Ir (M)</text>
<line x1="64" y1="306" x2="730" y2="306" stroke="#c3c2b7" stroke-width="1"/>
<text x="64.0" y="322" text-anchor="middle" font-family='system-ui, -apple-system, "Segoe UI", sans-serif' font-size="11" style="font-variant-numeric: tabular-nums" fill="#898781">07-12</text>
<text x="163.9" y="322" text-anchor="middle" font-family='system-ui, -apple-system, "Segoe UI", sans-serif' font-size="11" style="font-variant-numeric: tabular-nums" fill="#898781">07-13</text>
<text x="180.6" y="322" text-anchor="middle" font-family='system-ui, -apple-system, "Segoe UI", sans-serif' font-size="11" style="font-variant-numeric: tabular-nums" fill="#898781">07-14</text>
<text x="197.2" y="322" text-anchor="middle" font-family='system-ui, -apple-system, "Segoe UI", sans-serif' font-size="11" style="font-variant-numeric: tabular-nums" fill="#898781">07-16</text>
<text x="330.4" y="322" text-anchor="middle" font-family='system-ui, -apple-system, "Segoe UI", sans-serif' font-size="11" style="font-variant-numeric: tabular-nums" fill="#898781">07-17</text>
<text x="430.3" y="322" text-anchor="middle" font-family='system-ui, -apple-system, "Segoe UI", sans-serif' font-size="11" style="font-variant-numeric: tabular-nums" fill="#898781">07-18</text>
<text x="530.2" y="322" text-anchor="middle" font-family='system-ui, -apple-system, "Segoe UI", sans-serif' font-size="11" style="font-variant-numeric: tabular-nums" fill="#898781">07-19</text>
<text x="580.1" y="322" text-anchor="middle" font-family='system-ui, -apple-system, "Segoe UI", sans-serif' font-size="11" style="font-variant-numeric: tabular-nums" fill="#898781">07-20</text>
<path d="M64.0,88.9 L80.7,88.9 L97.3,88.9 L114.0,88.9 L130.6,88.9 L147.2,88.9 L163.9,88.9 L180.6,88.9 L197.2,88.9 L213.8,88.9 L230.5,88.9 L247.2,88.9 L263.8,88.9 L280.4,88.9 L297.1,88.9 L313.8,88.9 L330.4,88.9 L347.1,88.9 L363.7,88.9 L380.4,88.9 L397.0,88.9 L413.6,88.9 L430.3,88.9 L446.9,88.9 L463.6,88.9 L480.2,88.9 L496.9,88.9 L513.5,88.9 L530.2,89.0 L546.9,89.0 L563.5,89.0 L580.1,89.0 L596.8,89.0 L613.5,89.3 L630.1,89.3 L646.8,89.3 L663.4,89.3 L680.0,89.3 L696.7,89.3 L713.4,89.2 L730.0,89.2" fill="none" stroke="#2a78d6" stroke-width="2" stroke-linejoin="round" stroke-linecap="round"/>
<circle cx="730.0" cy="89.2" r="6" fill="#fcfcfb"/>
<circle cx="730.0" cy="89.2" r="4" fill="#2a78d6"/>
<path d="M64.0,103.9 L80.7,103.9 L97.3,103.9 L114.0,103.9 L130.6,103.9 L147.2,103.9 L163.9,103.8 L180.6,103.8 L197.2,103.8 L213.8,103.8 L230.5,103.8 L247.2,103.8 L263.8,103.8 L280.4,103.8 L297.1,103.9 L313.8,103.9 L330.4,103.9 L347.1,103.9 L363.7,103.9 L380.4,103.9 L397.0,103.9 L413.6,103.9 L430.3,103.9 L446.9,103.9 L463.6,103.9 L480.2,103.9 L496.9,103.9 L513.5,103.9 L530.2,103.9 L546.9,103.9 L563.5,103.9 L580.1,103.9 L596.8,103.9 L613.5,104.2 L630.1,104.2 L646.8,104.2 L663.4,104.2 L680.0,104.1 L696.7,104.1 L713.4,104.2 L730.0,104.2" fill="none" stroke="#1baf7a" stroke-width="2" stroke-linejoin="round" stroke-linecap="round"/>
<circle cx="730.0" cy="104.2" r="6" fill="#fcfcfb"/>
<circle cx="730.0" cy="104.2" r="4" fill="#1baf7a"/>
<path d="M64.0,92.1 L80.7,92.1 L97.3,92.1 L114.0,92.1 L130.6,92.1 L147.2,92.1 L163.9,92.1 L180.6,92.1 L197.2,92.1 L213.8,92.1 L230.5,92.1 L247.2,92.1 L263.8,92.1 L280.4,92.1 L297.1,92.1 L313.8,92.1 L330.4,92.1 L347.1,92.1 L363.7,92.1 L380.4,92.1 L397.0,92.1 L413.6,92.1 L430.3,92.1 L446.9,92.1 L463.6,92.1 L480.2,92.1 L496.9,92.1 L513.5,92.1 L530.2,92.1 L546.9,92.1 L563.5,92.1 L580.1,92.1 L596.8,92.1 L613.5,92.4 L630.1,92.4 L646.8,92.4 L663.4,92.4 L680.0,92.4 L696.7,92.4 L713.4,92.3 L730.0,92.3" fill="none" stroke="#eda100" stroke-width="2" stroke-linejoin="round" stroke-linecap="round"/>
<circle cx="730.0" cy="92.3" r="6" fill="#fcfcfb"/>
<circle cx="730.0" cy="92.3" r="4" fill="#eda100"/>
<path d="M64.0,56.0 L80.7,56.0 L97.3,56.0 L114.0,56.0 L130.6,56.0 L147.2,56.0 L163.9,56.0 L180.6,56.0 L197.2,56.0 L213.8,56.0 L230.5,56.0 L247.2,56.0 L263.8,56.0 L280.4,56.0 L297.1,56.0 L313.8,56.0 L330.4,56.0 L347.1,56.0 L363.7,56.0 L380.4,56.0 L397.0,56.0 L413.6,56.0 L430.3,56.0 L446.9,56.0 L463.6,56.0 L480.2,56.0 L496.9,56.0 L513.5,56.0 L530.2,56.0 L546.9,56.0 L563.5,56.0 L580.1,56.0 L596.8,56.0 L613.5,56.3 L630.1,56.3 L646.8,56.3 L663.4,56.3 L680.0,56.3 L696.7,56.3 L713.4,56.2 L730.0,56.2" fill="none" stroke="#008300" stroke-width="2" stroke-linejoin="round" stroke-linecap="round"/>
<circle cx="730.0" cy="56.2" r="6" fill="#fcfcfb"/>
<circle cx="730.0" cy="56.2" r="4" fill="#008300"/>
<path d="M64.0,227.6 L80.7,227.6 L97.3,227.6 L114.0,227.6 L130.6,227.6 L147.2,227.6 L163.9,227.6 L180.6,227.6 L197.2,227.6 L213.8,227.6 L230.5,227.6 L247.2,227.6 L263.8,227.6 L280.4,227.6 L297.1,227.6 L313.8,227.6 L330.4,227.6 L347.1,227.6 L363.7,227.6 L380.4,227.6 L397.0,227.6 L413.6,227.6 L430.3,227.6 L446.9,227.6 L463.6,227.6 L480.2,227.6 L496.9,227.6 L513.5,227.6 L530.2,227.6 L546.9,227.6 L563.5,227.6 L580.1,227.6 L596.8,227.6 L613.5,227.8 L630.1,227.8 L646.8,227.8 L663.4,227.8 L680.0,227.7 L696.7,227.7 L713.4,227.8 L730.0,227.8" fill="none" stroke="#4a3aa7" stroke-width="2" stroke-linejoin="round" stroke-linecap="round"/>
<circle cx="730.0" cy="227.8" r="6" fill="#fcfcfb"/>
<circle cx="730.0" cy="227.8" r="4" fill="#4a3aa7"/>
<circle cx="745.0" cy="52.7" r="3.5" fill="#008300"/>
<text x="753.0" y="56.2" font-family='system-ui, -apple-system, "Segoe UI", sans-serif' font-size="11" fill="#0b0b0b">reverb</text>
<text x="753.0" y="68.2" font-family='system-ui, -apple-system, "Segoe UI", sans-serif' font-size="10" style="font-variant-numeric: tabular-nums" fill="#52514e">50.5M</text>
<circle cx="745.0" cy="85.7" r="3.5" fill="#2a78d6"/>
<text x="753.0" y="89.2" font-family='system-ui, -apple-system, "Segoe UI", sans-serif' font-size="11" fill="#0b0b0b">auto-filter</text>
<text x="753.0" y="101.2" font-family='system-ui, -apple-system, "Segoe UI", sans-serif' font-size="10" style="font-variant-numeric: tabular-nums" fill="#52514e">43.8M</text>
<line x1="736.0" y1="92.3" x2="740.0" y2="117.2" stroke="#c3c2b7" stroke-width="1"/>
<circle cx="745.0" cy="113.7" r="3.5" fill="#eda100"/>
<text x="753.0" y="117.2" font-family='system-ui, -apple-system, "Segoe UI", sans-serif' font-size="11" fill="#0b0b0b">echo</text>
<text x="753.0" y="129.2" font-family='system-ui, -apple-system, "Segoe UI", sans-serif' font-size="10" style="font-variant-numeric: tabular-nums" fill="#52514e">43.2M</text>
<line x1="736.0" y1="104.2" x2="740.0" y2="145.2" stroke="#c3c2b7" stroke-width="1"/>
<circle cx="745.0" cy="141.7" r="3.5" fill="#1baf7a"/>
<text x="753.0" y="145.2" font-family='system-ui, -apple-system, "Segoe UI", sans-serif' font-size="11" fill="#0b0b0b">autotune</text>
<text x="753.0" y="157.2" font-family='system-ui, -apple-system, "Segoe UI", sans-serif' font-size="10" style="font-variant-numeric: tabular-nums" fill="#52514e">40.8M</text>
<circle cx="745.0" cy="224.3" r="3.5" fill="#4a3aa7"/>
<text x="753.0" y="227.8" font-family='system-ui, -apple-system, "Segoe UI", sans-serif' font-size="11" fill="#0b0b0b">sampler-arp</text>
<text x="753.0" y="239.8" font-family='system-ui, -apple-system, "Segoe UI", sans-serif' font-size="10" style="font-variant-numeric: tabular-nums" fill="#52514e">15.8M</text>
</svg>