<svg xmlns="http://www.w3.org/2000/svg" width="880" height="340" viewBox="0 0 880 340" role="img" aria-label="Whole-instrument render cost">
<rect width="880" height="340" rx="6" fill="#fcfcfb"/>
<text x="64" y="24" font-family='system-ui, -apple-system, "Segoe UI", sans-serif' font-size="14" font-weight="600" fill="#0b0b0b">Whole-instrument render cost</text>
<text x="64" y="41" font-family='system-ui, -apple-system, "Segoe UI", sans-serif' font-size="11" fill="#52514e">render_block of 1 s of audio - callgrind instructions (Ir), per dev commit, 2026-07-12 to 2026-07-21</text>
<line x1="64" y1="306.0" x2="730" y2="306.0" stroke="#e1e0d9" stroke-width="1"/>
<text x="56" y="309.5" text-anchor="end" font-family='system-ui, -apple-system, "Segoe UI", sans-serif' font-size="11" style="font-variant-numeric: tabular-nums" fill="#898781">0</text>
<line x1="64" y1="207.1" x2="730" y2="207.1" stroke="#e1e0d9" stroke-width="1"/>
<text x="56" y="210.6" text-anchor="end" font-family='system-ui, -apple-system, "Segoe UI", sans-serif' font-size="11" style="font-variant-numeric: tabular-nums" fill="#898781">20</text>
<line x1="64" y1="108.2" x2="730" y2="108.2" stroke="#e1e0d9" stroke-width="1"/>
<text x="56" y="111.7" text-anchor="end" font-family='system-ui, -apple-system, "Segoe UI", sans-serif' font-size="11" style="font-variant-numeric: tabular-nums" fill="#898781">40</text>
<text x="56" y="46" text-anchor="end" font-family='system-ui, -apple-system, "Segoe UI", sans-serif' font-size="10" fill="#898781">Ir (M)</text>
<line x1="64" y1="306" x2="730" y2="306" stroke="#c3c2b7" stroke-width="1"/>
<text x="64.0" y="322" text-anchor="middle" font-family='system-ui, -apple-system, "Segoe UI", sans-serif' font-size="11" style="font-variant-numeric: tabular-nums" fill="#898781">07-12</text>
<text x="157.2" y="322" text-anchor="middle" font-family='system-ui, -apple-system, "Segoe UI", sans-serif' font-size="11" style="font-variant-numeric: tabular-nums" fill="#898781">07-14</text>
<text x="277.1" y="322" text-anchor="middle" font-family='system-ui, -apple-system, "Segoe UI", sans-serif' font-size="11" style="font-variant-numeric: tabular-nums" fill="#898781">07-17</text>
<text x="437.0" y="322" text-anchor="middle" font-family='system-ui, -apple-system, "Segoe UI", sans-serif' font-size="11" style="font-variant-numeric: tabular-nums" fill="#898781">07-19</text>
<text x="676.7" y="322" text-anchor="middle" font-family='system-ui, -apple-system, "Segoe UI", sans-serif' font-size="11" style="font-variant-numeric: tabular-nums" fill="#898781">07-21</text>
<path d="M64.0,88.9 L77.3,88.9 L90.6,88.9 L104.0,88.9 L117.3,88.9 L130.6,88.9 L143.9,88.9 L157.2,88.9 L170.6,88.9 L183.9,88.9 L197.2,88.9 L210.5,88.9 L223.8,88.9 L237.2,88.9 L250.5,88.9 L263.8,88.9 L277.1,88.9 L290.4,88.9 L303.8,88.9 L317.1,88.9 L330.4,88.9 L343.7,88.9 L357.0,88.9 L370.4,88.9 L383.7,88.9 L397.0,88.9 L410.3,88.9 L423.6,88.9 L437.0,89.0 L450.3,89.0 L463.6,89.0 L476.9,89.0 L490.2,89.0 L503.6,89.3 L516.9,89.3 L530.2,89.3 L543.5,89.3 L556.8,89.3 L570.2,89.3 L583.5,89.2 L596.8,89.2 L610.1,89.3 L623.4,89.3 L636.8,89.3 L650.1,89.3 L663.4,89.3 L676.7,89.3 L690.0,89.3 L703.4,89.3 L716.7,89.3 L730.0,120.2" fill="none" stroke="#2a78d6" stroke-width="2" stroke-linejoin="round" stroke-linecap="round"/>
<circle cx="730.0" cy="120.2" r="6" fill="#fcfcfb"/>
<circle cx="730.0" cy="120.2" r="4" fill="#2a78d6"/>
<path d="M64.0,103.9 L77.3,103.9 L90.6,103.9 L104.0,103.9 L117.3,103.9 L130.6,103.9 L143.9,103.8 L157.2,103.8 L170.6,103.8 L183.9,103.8 L197.2,103.8 L210.5,103.8 L223.8,103.8 L237.2,103.8 L250.5,103.9 L263.8,103.9 L277.1,103.9 L290.4,103.9 L303.8,103.9 L317.1,103.9 L330.4,103.9 L343.7,103.9 L357.0,103.9 L370.4,103.9 L383.7,103.9 L397.0,103.9 L410.3,103.9 L423.6,103.9 L437.0,103.9 L450.3,103.9 L463.6,103.9 L476.9,103.9 L490.2,103.9 L503.6,104.2 L516.9,104.2 L530.2,104.2 L543.5,104.2 L556.8,104.1 L570.2,104.1 L583.5,104.2 L596.8,104.2 L610.1,104.2 L623.4,104.2 L636.8,104.2 L650.1,104.2 L663.4,104.2 L676.7,104.2 L690.0,104.2 L703.4,104.2 L716.7,104.2 L730.0,131.8" fill="none" stroke="#1baf7a" stroke-width="2" stroke-linejoin="round" stroke-linecap="round"/>
<circle cx="730.0" cy="131.8" r="6" fill="#fcfcfb"/>
<circle cx="730.0" cy="131.8" r="4" fill="#1baf7a"/>
<path d="M64.0,92.1 L77.3,92.1 L90.6,92.1 L104.0,92.1 L117.3,92.1 L130.6,92.1 L143.9,92.1 L157.2,92.1 L170.6,92.1 L183.9,92.1 L197.2,92.1 L210.5,92.1 L223.8,92.1 L237.2,92.1 L250.5,92.1 L263.8,92.1 L277.1,92.1 L290.4,92.1 L303.8,92.1 L317.1,92.1 L330.4,92.1 L343.7,92.1 L357.0,92.1 L370.4,92.1 L383.7,92.1 L397.0,92.1 L410.3,92.1 L423.6,92.1 L437.0,92.1 L450.3,92.1 L463.6,92.1 L476.9,92.1 L490.2,92.1 L503.6,92.4 L516.9,92.4 L530.2,92.4 L543.5,92.4 L556.8,92.4 L570.2,92.4 L583.5,92.3 L596.8,92.3 L610.1,92.4 L623.4,92.4 L636.8,92.4 L650.1,92.4 L663.4,92.4 L676.7,92.4 L690.0,92.4 L703.4,92.4 L716.7,92.4 L730.0,120.0" fill="none" stroke="#eda100" stroke-width="2" stroke-linejoin="round" stroke-linecap="round"/>
<circle cx="730.0" cy="120.0" r="6" fill="#fcfcfb"/>
<circle cx="730.0" cy="120.0" r="4" fill="#eda100"/>
<path d="M64.0,56.0 L77.3,56.0 L90.6,56.0 L104.0,56.0 L117.3,56.0 L130.6,56.0 L143.9,56.0 L157.2,56.0 L170.6,56.0 L183.9,56.0 L197.2,56.0 L210.5,56.0 L223.8,56.0 L237.2,56.0 L250.5,56.0 L263.8,56.0 L277.1,56.0 L290.4,56.0 L303.8,56.0 L317.1,56.0 L330.4,56.0 L343.7,56.0 L357.0,56.0 L370.4,56.0 L383.7,56.0 L397.0,56.0 L410.3,56.0 L423.6,56.0 L437.0,56.0 L450.3,56.0 L463.6,56.0 L476.9,56.0 L490.2,56.0 L503.6,56.3 L516.9,56.3 L530.2,56.3 L543.5,56.3 L556.8,56.3 L570.2,56.3 L583.5,56.2 L596.8,56.2 L610.1,56.3 L623.4,56.3 L636.8,56.3 L650.1,56.3 L663.4,56.3 L676.7,56.3 L690.0,56.3 L703.4,56.3 L716.7,56.3 L730.0,83.9" fill="none" stroke="#008300" stroke-width="2" stroke-linejoin="round" stroke-linecap="round"/>
<circle cx="730.0" cy="83.9" r="6" fill="#fcfcfb"/>
<circle cx="730.0" cy="83.9" r="4" fill="#008300"/>
<path d="M64.0,227.6 L77.3,227.6 L90.6,227.6 L104.0,227.6 L117.3,227.6 L130.6,227.6 L143.9,227.6 L157.2,227.6 L170.6,227.6 L183.9,227.6 L197.2,227.6 L210.5,227.6 L223.8,227.6 L237.2,227.6 L250.5,227.6 L263.8,227.6 L277.1,227.6 L290.4,227.6 L303.8,227.6 L317.1,227.6 L330.4,227.6 L343.7,227.6 L357.0,227.6 L370.4,227.6 L383.7,227.6 L397.0,227.6 L410.3,227.6 L423.6,227.6 L437.0,227.6 L450.3,227.6 L463.6,227.6 L476.9,227.6 L490.2,227.6 L503.6,227.8 L516.9,227.8 L530.2,227.8 L543.5,227.8 L556.8,227.7 L570.2,227.7 L583.5,227.8 L596.8,227.8 L610.1,227.7 L623.4,227.7 L636.8,227.7 L650.1,227.7 L663.4,227.7 L676.7,227.7 L690.0,227.7 L703.4,227.7 L716.7,227.7 L730.0,227.7" fill="none" stroke="#4a3aa7" stroke-width="2" stroke-linejoin="round" stroke-linecap="round"/>
<circle cx="730.0" cy="227.7" r="6" fill="#fcfcfb"/>
<circle cx="730.0" cy="227.7" r="4" fill="#4a3aa7"/>
<circle cx="745.0" cy="80.4" r="3.5" fill="#008300"/>
<text x="753.0" y="83.9" font-family='system-ui, -apple-system, "Segoe UI", sans-serif' font-size="11" fill="#0b0b0b">reverb</text>
<text x="753.0" y="95.9" font-family='system-ui, -apple-system, "Segoe UI", sans-serif' font-size="10" style="font-variant-numeric: tabular-nums" fill="#52514e">44.9M</text>
<circle cx="745.0" cy="116.5" r="3.5" fill="#eda100"/>
<text x="753.0" y="120.0" font-family='system-ui, -apple-system, "Segoe UI", sans-serif' font-size="11" fill="#0b0b0b">echo</text>
<text x="753.0" y="132.0" font-family='system-ui, -apple-system, "Segoe UI", sans-serif' font-size="10" style="font-variant-numeric: tabular-nums" fill="#52514e">37.6M</text>
<line x1="736.0" y1="120.2" x2="740.0" y2="148.0" stroke="#c3c2b7" stroke-width="1"/>
<circle cx="745.0" cy="144.5" r="3.5" fill="#2a78d6"/>
<text x="753.0" y="148.0" font-family='system-ui, -apple-system, "Segoe UI", sans-serif' font-size="11" fill="#0b0b0b">auto-filter</text>
<text x="753.0" y="160.0" font-family='system-ui, -apple-system, "Segoe UI", sans-serif' font-size="10" style="font-variant-numeric: tabular-nums" fill="#52514e">37.6M</text>
<line x1="736.0" y1="131.8" x2="740.0" y2="176.0" stroke="#c3c2b7" stroke-width="1"/>
<circle cx="745.0" cy="172.5" r="3.5" fill="#1baf7a"/>
<text x="753.0" y="176.0" font-family='system-ui, -apple-system, "Segoe UI", sans-serif' font-size="11" fill="#0b0b0b">autotune</text>
<text x="753.0" y="188.0" font-family='system-ui, -apple-system, "Segoe UI", sans-serif' font-size="10" style="font-variant-numeric: tabular-nums" fill="#52514e">35.2M</text>
<circle cx="745.0" cy="224.2" r="3.5" fill="#4a3aa7"/>
<text x="753.0" y="227.7" font-family='system-ui, -apple-system, "Segoe UI", sans-serif' font-size="11" fill="#0b0b0b">sampler-arp</text>
<text x="753.0" y="239.7" font-family='system-ui, -apple-system, "Segoe UI", sans-serif' font-size="10" style="font-variant-numeric: tabular-nums" fill="#52514e">15.8M</text>
</svg>