<svg xmlns="http://www.w3.org/2000/svg" width="880" height="340" viewBox="0 0 880 340" role="img" aria-label="Whole-instrument render cost">
<rect width="880" height="340" rx="6" fill="#fcfcfb"/>
<text x="64" y="24" font-family='system-ui, -apple-system, "Segoe UI", sans-serif' font-size="14" font-weight="600" fill="#0b0b0b">Whole-instrument render cost</text>
<text x="64" y="41" font-family='system-ui, -apple-system, "Segoe UI", sans-serif' font-size="11" fill="#52514e">render_block of 1 s of audio - callgrind instructions (Ir), per dev commit, 2026-07-12 to 2026-07-21</text>
<line x1="64" y1="306.0" x2="730" y2="306.0" stroke="#e1e0d9" stroke-width="1"/>
<text x="56" y="309.5" text-anchor="end" font-family='system-ui, -apple-system, "Segoe UI", sans-serif' font-size="11" style="font-variant-numeric: tabular-nums" fill="#898781">0</text>
<line x1="64" y1="207.1" x2="730" y2="207.1" stroke="#e1e0d9" stroke-width="1"/>
<text x="56" y="210.6" text-anchor="end" font-family='system-ui, -apple-system, "Segoe UI", sans-serif' font-size="11" style="font-variant-numeric: tabular-nums" fill="#898781">20</text>
<line x1="64" y1="108.2" x2="730" y2="108.2" stroke="#e1e0d9" stroke-width="1"/>
<text x="56" y="111.7" text-anchor="end" font-family='system-ui, -apple-system, "Segoe UI", sans-serif' font-size="11" style="font-variant-numeric: tabular-nums" fill="#898781">40</text>
<text x="56" y="46" text-anchor="end" font-family='system-ui, -apple-system, "Segoe UI", sans-serif' font-size="10" fill="#898781">Ir (M)</text>
<line x1="64" y1="306" x2="730" y2="306" stroke="#c3c2b7" stroke-width="1"/>
<text x="64.0" y="322" text-anchor="middle" font-family='system-ui, -apple-system, "Segoe UI", sans-serif' font-size="11" style="font-variant-numeric: tabular-nums" fill="#898781">07-12</text>
<text x="159.1" y="322" text-anchor="middle" font-family='system-ui, -apple-system, "Segoe UI", sans-serif' font-size="11" style="font-variant-numeric: tabular-nums" fill="#898781">07-14</text>
<text x="281.5" y="322" text-anchor="middle" font-family='system-ui, -apple-system, "Segoe UI", sans-serif' font-size="11" style="font-variant-numeric: tabular-nums" fill="#898781">07-17</text>
<text x="444.6" y="322" text-anchor="middle" font-family='system-ui, -apple-system, "Segoe UI", sans-serif' font-size="11" style="font-variant-numeric: tabular-nums" fill="#898781">07-19</text>
<text x="689.2" y="322" text-anchor="middle" font-family='system-ui, -apple-system, "Segoe UI", sans-serif' font-size="11" style="font-variant-numeric: tabular-nums" fill="#898781">07-21</text>
<path d="M64.0,88.9 L77.6,88.9 L91.2,88.9 L104.8,88.9 L118.4,88.9 L132.0,88.9 L145.6,88.9 L159.1,88.9 L172.7,88.9 L186.3,88.9 L199.9,88.9 L213.5,88.9 L227.1,88.9 L240.7,88.9 L254.3,88.9 L267.9,88.9 L281.5,88.9 L295.1,88.9 L308.7,88.9 L322.2,88.9 L335.8,88.9 L349.4,88.9 L363.0,88.9 L376.6,88.9 L390.2,88.9 L403.8,88.9 L417.4,88.9 L431.0,88.9 L444.6,89.0 L458.2,89.0 L471.8,89.0 L485.3,89.0 L498.9,89.0 L512.5,89.3 L526.1,89.3 L539.7,89.3 L553.3,89.3 L566.9,89.3 L580.5,89.3 L594.1,89.2 L607.7,89.2 L621.3,89.3 L634.9,89.3 L648.4,89.3 L662.0,89.3 L675.6,89.3 L689.2,89.3 L702.8,89.3 L716.4,89.3 L730.0,89.3" fill="none" stroke="#2a78d6" stroke-width="2" stroke-linejoin="round" stroke-linecap="round"/>
<circle cx="730.0" cy="89.3" r="6" fill="#fcfcfb"/>
<circle cx="730.0" cy="89.3" r="4" fill="#2a78d6"/>
<path d="M64.0,103.9 L77.6,103.9 L91.2,103.9 L104.8,103.9 L118.4,103.9 L132.0,103.9 L145.6,103.8 L159.1,103.8 L172.7,103.8 L186.3,103.8 L199.9,103.8 L213.5,103.8 L227.1,103.8 L240.7,103.8 L254.3,103.9 L267.9,103.9 L281.5,103.9 L295.1,103.9 L308.7,103.9 L322.2,103.9 L335.8,103.9 L349.4,103.9 L363.0,103.9 L376.6,103.9 L390.2,103.9 L403.8,103.9 L417.4,103.9 L431.0,103.9 L444.6,103.9 L458.2,103.9 L471.8,103.9 L485.3,103.9 L498.9,103.9 L512.5,104.2 L526.1,104.2 L539.7,104.2 L553.3,104.2 L566.9,104.1 L580.5,104.1 L594.1,104.2 L607.7,104.2 L621.3,104.2 L634.9,104.2 L648.4,104.2 L662.0,104.2 L675.6,104.2 L689.2,104.2 L702.8,104.2 L716.4,104.2 L730.0,104.2" fill="none" stroke="#1baf7a" stroke-width="2" stroke-linejoin="round" stroke-linecap="round"/>
<circle cx="730.0" cy="104.2" r="6" fill="#fcfcfb"/>
<circle cx="730.0" cy="104.2" r="4" fill="#1baf7a"/>
<path d="M64.0,92.1 L77.6,92.1 L91.2,92.1 L104.8,92.1 L118.4,92.1 L132.0,92.1 L145.6,92.1 L159.1,92.1 L172.7,92.1 L186.3,92.1 L199.9,92.1 L213.5,92.1 L227.1,92.1 L240.7,92.1 L254.3,92.1 L267.9,92.1 L281.5,92.1 L295.1,92.1 L308.7,92.1 L322.2,92.1 L335.8,92.1 L349.4,92.1 L363.0,92.1 L376.6,92.1 L390.2,92.1 L403.8,92.1 L417.4,92.1 L431.0,92.1 L444.6,92.1 L458.2,92.1 L471.8,92.1 L485.3,92.1 L498.9,92.1 L512.5,92.4 L526.1,92.4 L539.7,92.4 L553.3,92.4 L566.9,92.4 L580.5,92.4 L594.1,92.3 L607.7,92.3 L621.3,92.4 L634.9,92.4 L648.4,92.4 L662.0,92.4 L675.6,92.4 L689.2,92.4 L702.8,92.4 L716.4,92.4 L730.0,92.4" fill="none" stroke="#eda100" stroke-width="2" stroke-linejoin="round" stroke-linecap="round"/>
<circle cx="730.0" cy="92.4" r="6" fill="#fcfcfb"/>
<circle cx="730.0" cy="92.4" r="4" fill="#eda100"/>
<path d="M64.0,56.0 L77.6,56.0 L91.2,56.0 L104.8,56.0 L118.4,56.0 L132.0,56.0 L145.6,56.0 L159.1,56.0 L172.7,56.0 L186.3,56.0 L199.9,56.0 L213.5,56.0 L227.1,56.0 L240.7,56.0 L254.3,56.0 L267.9,56.0 L281.5,56.0 L295.1,56.0 L308.7,56.0 L322.2,56.0 L335.8,56.0 L349.4,56.0 L363.0,56.0 L376.6,56.0 L390.2,56.0 L403.8,56.0 L417.4,56.0 L431.0,56.0 L444.6,56.0 L458.2,56.0 L471.8,56.0 L485.3,56.0 L498.9,56.0 L512.5,56.3 L526.1,56.3 L539.7,56.3 L553.3,56.3 L566.9,56.3 L580.5,56.3 L594.1,56.2 L607.7,56.2 L621.3,56.3 L634.9,56.3 L648.4,56.3 L662.0,56.3 L675.6,56.3 L689.2,56.3 L702.8,56.3 L716.4,56.3 L730.0,56.3" fill="none" stroke="#008300" stroke-width="2" stroke-linejoin="round" stroke-linecap="round"/>
<circle cx="730.0" cy="56.3" r="6" fill="#fcfcfb"/>
<circle cx="730.0" cy="56.3" r="4" fill="#008300"/>
<path d="M64.0,227.6 L77.6,227.6 L91.2,227.6 L104.8,227.6 L118.4,227.6 L132.0,227.6 L145.6,227.6 L159.1,227.6 L172.7,227.6 L186.3,227.6 L199.9,227.6 L213.5,227.6 L227.1,227.6 L240.7,227.6 L254.3,227.6 L267.9,227.6 L281.5,227.6 L295.1,227.6 L308.7,227.6 L322.2,227.6 L335.8,227.6 L349.4,227.6 L363.0,227.6 L376.6,227.6 L390.2,227.6 L403.8,227.6 L417.4,227.6 L431.0,227.6 L444.6,227.6 L458.2,227.6 L471.8,227.6 L485.3,227.6 L498.9,227.6 L512.5,227.8 L526.1,227.8 L539.7,227.8 L553.3,227.8 L566.9,227.7 L580.5,227.7 L594.1,227.8 L607.7,227.8 L621.3,227.7 L634.9,227.7 L648.4,227.7 L662.0,227.7 L675.6,227.7 L689.2,227.7 L702.8,227.7 L716.4,227.7 L730.0,227.7" fill="none" stroke="#4a3aa7" stroke-width="2" stroke-linejoin="round" stroke-linecap="round"/>
<circle cx="730.0" cy="227.7" r="6" fill="#fcfcfb"/>
<circle cx="730.0" cy="227.7" r="4" fill="#4a3aa7"/>
<circle cx="745.0" cy="52.8" r="3.5" fill="#008300"/>
<text x="753.0" y="56.3" font-family='system-ui, -apple-system, "Segoe UI", sans-serif' font-size="11" fill="#0b0b0b">reverb</text>
<text x="753.0" y="68.3" font-family='system-ui, -apple-system, "Segoe UI", sans-serif' font-size="10" style="font-variant-numeric: tabular-nums" fill="#52514e">50.5M</text>
<circle cx="745.0" cy="85.8" r="3.5" fill="#2a78d6"/>
<text x="753.0" y="89.3" font-family='system-ui, -apple-system, "Segoe UI", sans-serif' font-size="11" fill="#0b0b0b">auto-filter</text>
<text x="753.0" y="101.3" font-family='system-ui, -apple-system, "Segoe UI", sans-serif' font-size="10" style="font-variant-numeric: tabular-nums" fill="#52514e">43.8M</text>
<line x1="736.0" y1="92.4" x2="740.0" y2="117.3" stroke="#c3c2b7" stroke-width="1"/>
<circle cx="745.0" cy="113.8" r="3.5" fill="#eda100"/>
<text x="753.0" y="117.3" font-family='system-ui, -apple-system, "Segoe UI", sans-serif' font-size="11" fill="#0b0b0b">echo</text>
<text x="753.0" y="129.3" font-family='system-ui, -apple-system, "Segoe UI", sans-serif' font-size="10" style="font-variant-numeric: tabular-nums" fill="#52514e">43.2M</text>
<line x1="736.0" y1="104.2" x2="740.0" y2="145.3" stroke="#c3c2b7" stroke-width="1"/>
<circle cx="745.0" cy="141.8" r="3.5" fill="#1baf7a"/>
<text x="753.0" y="145.3" font-family='system-ui, -apple-system, "Segoe UI", sans-serif' font-size="11" fill="#0b0b0b">autotune</text>
<text x="753.0" y="157.3" font-family='system-ui, -apple-system, "Segoe UI", sans-serif' font-size="10" style="font-variant-numeric: tabular-nums" fill="#52514e">40.8M</text>
<circle cx="745.0" cy="224.2" r="3.5" fill="#4a3aa7"/>
<text x="753.0" y="227.7" font-family='system-ui, -apple-system, "Segoe UI", sans-serif' font-size="11" fill="#0b0b0b">sampler-arp</text>
<text x="753.0" y="239.7" font-family='system-ui, -apple-system, "Segoe UI", sans-serif' font-size="10" style="font-variant-numeric: tabular-nums" fill="#52514e">15.8M</text>
</svg>