<svg xmlns="http://www.w3.org/2000/svg" width="880" height="340" viewBox="0 0 880 340" role="img" aria-label="Whole-instrument render cost">
<rect width="880" height="340" rx="6" fill="#fcfcfb"/>
<text x="64" y="24" font-family='system-ui, -apple-system, "Segoe UI", sans-serif' font-size="14" font-weight="600" fill="#0b0b0b">Whole-instrument render cost</text>
<text x="64" y="41" font-family='system-ui, -apple-system, "Segoe UI", sans-serif' font-size="11" fill="#52514e">render_block of 1 s of audio - callgrind instructions (Ir), per dev commit, 2026-07-12 to 2026-07-22</text>
<line x1="64" y1="306.0" x2="730" y2="306.0" stroke="#e1e0d9" stroke-width="1"/>
<text x="56" y="309.5" text-anchor="end" font-family='system-ui, -apple-system, "Segoe UI", sans-serif' font-size="11" style="font-variant-numeric: tabular-nums" fill="#898781">0</text>
<line x1="64" y1="207.1" x2="730" y2="207.1" stroke="#e1e0d9" stroke-width="1"/>
<text x="56" y="210.6" text-anchor="end" font-family='system-ui, -apple-system, "Segoe UI", sans-serif' font-size="11" style="font-variant-numeric: tabular-nums" fill="#898781">20</text>
<line x1="64" y1="108.2" x2="730" y2="108.2" stroke="#e1e0d9" stroke-width="1"/>
<text x="56" y="111.7" text-anchor="end" font-family='system-ui, -apple-system, "Segoe UI", sans-serif' font-size="11" style="font-variant-numeric: tabular-nums" fill="#898781">40</text>
<text x="56" y="46" text-anchor="end" font-family='system-ui, -apple-system, "Segoe UI", sans-serif' font-size="10" fill="#898781">Ir (M)</text>
<line x1="64" y1="306" x2="730" y2="306" stroke="#c3c2b7" stroke-width="1"/>
<text x="64.0" y="322" text-anchor="middle" font-family='system-ui, -apple-system, "Segoe UI", sans-serif' font-size="11" style="font-variant-numeric: tabular-nums" fill="#898781">07-12</text>
<text x="144.4" y="322" text-anchor="middle" font-family='system-ui, -apple-system, "Segoe UI", sans-serif' font-size="11" style="font-variant-numeric: tabular-nums" fill="#898781">07-14</text>
<text x="247.7" y="322" text-anchor="middle" font-family='system-ui, -apple-system, "Segoe UI", sans-serif' font-size="11" style="font-variant-numeric: tabular-nums" fill="#898781">07-17</text>
<text x="385.5" y="322" text-anchor="middle" font-family='system-ui, -apple-system, "Segoe UI", sans-serif' font-size="11" style="font-variant-numeric: tabular-nums" fill="#898781">07-19</text>
<text x="592.2" y="322" text-anchor="middle" font-family='system-ui, -apple-system, "Segoe UI", sans-serif' font-size="11" style="font-variant-numeric: tabular-nums" fill="#898781">07-21</text>
<path d="M64.0,88.9 L75.5,88.9 L87.0,88.9 L98.4,88.9 L109.9,88.9 L121.4,88.9 L132.9,88.9 L144.4,88.9 L155.9,88.9 L167.3,88.9 L178.8,88.9 L190.3,88.9 L201.8,88.9 L213.3,88.9 L224.8,88.9 L236.2,88.9 L247.7,88.9 L259.2,88.9 L270.7,88.9 L282.2,88.9 L293.7,88.9 L305.1,88.9 L316.6,88.9 L328.1,88.9 L339.6,88.9 L351.1,88.9 L362.6,88.9 L374.0,88.9 L385.5,89.0 L397.0,89.0 L408.5,89.0 L420.0,89.0 L431.4,89.0 L442.9,89.3 L454.4,89.3 L465.9,89.3 L477.4,89.3 L488.9,89.3 L500.3,89.3 L511.8,89.2 L523.3,89.2 L534.8,89.3 L546.3,89.3 L557.8,89.3 L569.2,89.3 L580.7,89.3 L592.2,89.3 L603.7,89.3 L615.2,89.3 L626.7,89.3 L638.1,120.2 L649.6,120.2 L661.1,120.2 L672.6,120.2 L684.1,120.2 L695.6,120.1 L707.0,120.1 L718.5,120.1 L730.0,120.1" fill="none" stroke="#2a78d6" stroke-width="2" stroke-linejoin="round" stroke-linecap="round"/>
<circle cx="730.0" cy="120.1" r="6" fill="#fcfcfb"/>
<circle cx="730.0" cy="120.1" r="4" fill="#2a78d6"/>
<path d="M64.0,103.9 L75.5,103.9 L87.0,103.9 L98.4,103.9 L109.9,103.9 L121.4,103.9 L132.9,103.8 L144.4,103.8 L155.9,103.8 L167.3,103.8 L178.8,103.8 L190.3,103.8 L201.8,103.8 L213.3,103.8 L224.8,103.9 L236.2,103.9 L247.7,103.9 L259.2,103.9 L270.7,103.9 L282.2,103.9 L293.7,103.9 L305.1,103.9 L316.6,103.9 L328.1,103.9 L339.6,103.9 L351.1,103.9 L362.6,103.9 L374.0,103.9 L385.5,103.9 L397.0,103.9 L408.5,103.9 L420.0,103.9 L431.4,103.9 L442.9,104.2 L454.4,104.2 L465.9,104.2 L477.4,104.2 L488.9,104.1 L500.3,104.1 L511.8,104.2 L523.3,104.2 L534.8,104.2 L546.3,104.2 L557.8,104.2 L569.2,104.2 L580.7,104.2 L592.2,104.2 L603.7,104.2 L615.2,104.2 L626.7,104.2 L638.1,131.8 L649.6,131.8 L661.1,131.8 L672.6,131.8 L684.1,131.8 L695.6,131.8 L707.0,132.0 L718.5,132.0 L730.0,132.0" fill="none" stroke="#1baf7a" stroke-width="2" stroke-linejoin="round" stroke-linecap="round"/>
<circle cx="730.0" cy="132.0" r="6" fill="#fcfcfb"/>
<circle cx="730.0" cy="132.0" r="4" fill="#1baf7a"/>
<path d="M64.0,92.1 L75.5,92.1 L87.0,92.1 L98.4,92.1 L109.9,92.1 L121.4,92.1 L132.9,92.1 L144.4,92.1 L155.9,92.1 L167.3,92.1 L178.8,92.1 L190.3,92.1 L201.8,92.1 L213.3,92.1 L224.8,92.1 L236.2,92.1 L247.7,92.1 L259.2,92.1 L270.7,92.1 L282.2,92.1 L293.7,92.1 L305.1,92.1 L316.6,92.1 L328.1,92.1 L339.6,92.1 L351.1,92.1 L362.6,92.1 L374.0,92.1 L385.5,92.1 L397.0,92.1 L408.5,92.1 L420.0,92.1 L431.4,92.1 L442.9,92.4 L454.4,92.4 L465.9,92.4 L477.4,92.4 L488.9,92.4 L500.3,92.4 L511.8,92.3 L523.3,92.3 L534.8,92.4 L546.3,92.4 L557.8,92.4 L569.2,92.4 L580.7,92.4 L592.2,92.4 L603.7,92.4 L615.2,92.4 L626.7,92.4 L638.1,120.0 L649.6,119.9 L661.1,119.9 L672.6,119.9 L684.1,119.9 L695.6,120.0 L707.0,120.0 L718.5,120.0 L730.0,120.0" fill="none" stroke="#eda100" stroke-width="2" stroke-linejoin="round" stroke-linecap="round"/>
<circle cx="730.0" cy="120.0" r="6" fill="#fcfcfb"/>
<circle cx="730.0" cy="120.0" r="4" fill="#eda100"/>
<path d="M64.0,56.0 L75.5,56.0 L87.0,56.0 L98.4,56.0 L109.9,56.0 L121.4,56.0 L132.9,56.0 L144.4,56.0 L155.9,56.0 L167.3,56.0 L178.8,56.0 L190.3,56.0 L201.8,56.0 L213.3,56.0 L224.8,56.0 L236.2,56.0 L247.7,56.0 L259.2,56.0 L270.7,56.0 L282.2,56.0 L293.7,56.0 L305.1,56.0 L316.6,56.0 L328.1,56.0 L339.6,56.0 L351.1,56.0 L362.6,56.0 L374.0,56.0 L385.5,56.0 L397.0,56.0 L408.5,56.0 L420.0,56.0 L431.4,56.0 L442.9,56.3 L454.4,56.3 L465.9,56.3 L477.4,56.3 L488.9,56.3 L500.3,56.3 L511.8,56.2 L523.3,56.2 L534.8,56.3 L546.3,56.3 L557.8,56.3 L569.2,56.3 L580.7,56.3 L592.2,56.3 L603.7,56.3 L615.2,56.3 L626.7,56.3 L638.1,83.9 L649.6,83.9 L661.1,83.9 L672.6,83.9 L684.1,83.9 L695.6,83.9 L707.0,83.8 L718.5,83.8 L730.0,83.8" fill="none" stroke="#008300" stroke-width="2" stroke-linejoin="round" stroke-linecap="round"/>
<circle cx="730.0" cy="83.8" r="6" fill="#fcfcfb"/>
<circle cx="730.0" cy="83.8" r="4" fill="#008300"/>
<path d="M64.0,227.6 L75.5,227.6 L87.0,227.6 L98.4,227.6 L109.9,227.6 L121.4,227.6 L132.9,227.6 L144.4,227.6 L155.9,227.6 L167.3,227.6 L178.8,227.6 L190.3,227.6 L201.8,227.6 L213.3,227.6 L224.8,227.6 L236.2,227.6 L247.7,227.6 L259.2,227.6 L270.7,227.6 L282.2,227.6 L293.7,227.6 L305.1,227.6 L316.6,227.6 L328.1,227.6 L339.6,227.6 L351.1,227.6 L362.6,227.6 L374.0,227.6 L385.5,227.6 L397.0,227.6 L408.5,227.6 L420.0,227.6 L431.4,227.6 L442.9,227.8 L454.4,227.8 L465.9,227.8 L477.4,227.8 L488.9,227.7 L500.3,227.7 L511.8,227.8 L523.3,227.8 L534.8,227.7 L546.3,227.7 L557.8,227.7 L569.2,227.7 L580.7,227.7 L592.2,227.7 L603.7,227.7 L615.2,227.7 L626.7,227.7 L638.1,227.7 L649.6,227.7 L661.1,227.7 L672.6,227.7 L684.1,227.7 L695.6,227.7 L707.0,227.8 L718.5,227.8 L730.0,227.8" fill="none" stroke="#4a3aa7" stroke-width="2" stroke-linejoin="round" stroke-linecap="round"/>
<circle cx="730.0" cy="227.8" r="6" fill="#fcfcfb"/>
<circle cx="730.0" cy="227.8" r="4" fill="#4a3aa7"/>
<circle cx="745.0" cy="80.3" r="3.5" fill="#008300"/>
<text x="753.0" y="83.8" font-family='system-ui, -apple-system, "Segoe UI", sans-serif' font-size="11" fill="#0b0b0b">reverb</text>
<text x="753.0" y="95.8" font-family='system-ui, -apple-system, "Segoe UI", sans-serif' font-size="10" style="font-variant-numeric: tabular-nums" fill="#52514e">44.9M</text>
<circle cx="745.0" cy="116.5" r="3.5" fill="#eda100"/>
<text x="753.0" y="120.0" font-family='system-ui, -apple-system, "Segoe UI", sans-serif' font-size="11" fill="#0b0b0b">echo</text>
<text x="753.0" y="132.0" font-family='system-ui, -apple-system, "Segoe UI", sans-serif' font-size="10" style="font-variant-numeric: tabular-nums" fill="#52514e">37.6M</text>
<line x1="736.0" y1="120.1" x2="740.0" y2="148.0" stroke="#c3c2b7" stroke-width="1"/>
<circle cx="745.0" cy="144.5" r="3.5" fill="#2a78d6"/>
<text x="753.0" y="148.0" font-family='system-ui, -apple-system, "Segoe UI", sans-serif' font-size="11" fill="#0b0b0b">auto-filter</text>
<text x="753.0" y="160.0" font-family='system-ui, -apple-system, "Segoe UI", sans-serif' font-size="10" style="font-variant-numeric: tabular-nums" fill="#52514e">37.6M</text>
<line x1="736.0" y1="132.0" x2="740.0" y2="176.0" stroke="#c3c2b7" stroke-width="1"/>
<circle cx="745.0" cy="172.5" r="3.5" fill="#1baf7a"/>
<text x="753.0" y="176.0" font-family='system-ui, -apple-system, "Segoe UI", sans-serif' font-size="11" fill="#0b0b0b">autotune</text>
<text x="753.0" y="188.0" font-family='system-ui, -apple-system, "Segoe UI", sans-serif' font-size="10" style="font-variant-numeric: tabular-nums" fill="#52514e">35.2M</text>
<circle cx="745.0" cy="224.3" r="3.5" fill="#4a3aa7"/>
<text x="753.0" y="227.8" font-family='system-ui, -apple-system, "Segoe UI", sans-serif' font-size="11" fill="#0b0b0b">sampler-arp</text>
<text x="753.0" y="239.8" font-family='system-ui, -apple-system, "Segoe UI", sans-serif' font-size="10" style="font-variant-numeric: tabular-nums" fill="#52514e">15.8M</text>
</svg>