<svg xmlns="http://www.w3.org/2000/svg" width="880" height="340" viewBox="0 0 880 340" role="img" aria-label="Whole-instrument render cost">
<rect width="880" height="340" rx="6" fill="#1a1a19"/>
<text x="64" y="24" font-family='system-ui, -apple-system, "Segoe UI", sans-serif' font-size="14" font-weight="600" fill="#ffffff">Whole-instrument render cost</text>
<text x="64" y="41" font-family='system-ui, -apple-system, "Segoe UI", sans-serif' font-size="11" fill="#c3c2b7">render_block of 1 s of audio - callgrind instructions (Ir), per dev commit, 2026-07-12 to 2026-07-21</text>
<line x1="64" y1="306.0" x2="730" y2="306.0" stroke="#2c2c2a" stroke-width="1"/>
<text x="56" y="309.5" text-anchor="end" font-family='system-ui, -apple-system, "Segoe UI", sans-serif' font-size="11" style="font-variant-numeric: tabular-nums" fill="#898781">0</text>
<line x1="64" y1="207.1" x2="730" y2="207.1" stroke="#2c2c2a" stroke-width="1"/>
<text x="56" y="210.6" text-anchor="end" font-family='system-ui, -apple-system, "Segoe UI", sans-serif' font-size="11" style="font-variant-numeric: tabular-nums" fill="#898781">20</text>
<line x1="64" y1="108.2" x2="730" y2="108.2" stroke="#2c2c2a" stroke-width="1"/>
<text x="56" y="111.7" text-anchor="end" font-family='system-ui, -apple-system, "Segoe UI", sans-serif' font-size="11" style="font-variant-numeric: tabular-nums" fill="#898781">40</text>
<text x="56" y="46" text-anchor="end" font-family='system-ui, -apple-system, "Segoe UI", sans-serif' font-size="10" fill="#898781">Ir (M)</text>
<line x1="64" y1="306" x2="730" y2="306" stroke="#383835" stroke-width="1"/>
<text x="64.0" y="322" text-anchor="middle" font-family='system-ui, -apple-system, "Segoe UI", sans-serif' font-size="11" style="font-variant-numeric: tabular-nums" fill="#898781">07-12</text>
<text x="152.0" y="322" text-anchor="middle" font-family='system-ui, -apple-system, "Segoe UI", sans-serif' font-size="11" style="font-variant-numeric: tabular-nums" fill="#898781">07-14</text>
<text x="265.1" y="322" text-anchor="middle" font-family='system-ui, -apple-system, "Segoe UI", sans-serif' font-size="11" style="font-variant-numeric: tabular-nums" fill="#898781">07-17</text>
<text x="415.8" y="322" text-anchor="middle" font-family='system-ui, -apple-system, "Segoe UI", sans-serif' font-size="11" style="font-variant-numeric: tabular-nums" fill="#898781">07-19</text>
<text x="642.0" y="322" text-anchor="middle" font-family='system-ui, -apple-system, "Segoe UI", sans-serif' font-size="11" style="font-variant-numeric: tabular-nums" fill="#898781">07-21</text>
<path d="M64.0,88.9 L76.6,88.9 L89.1,88.9 L101.7,88.9 L114.3,88.9 L126.8,88.9 L139.4,88.9 L152.0,88.9 L164.5,88.9 L177.1,88.9 L189.7,88.9 L202.2,88.9 L214.8,88.9 L227.4,88.9 L239.9,88.9 L252.5,88.9 L265.1,88.9 L277.6,88.9 L290.2,88.9 L302.8,88.9 L315.3,88.9 L327.9,88.9 L340.5,88.9 L353.0,88.9 L365.6,88.9 L378.2,88.9 L390.7,88.9 L403.3,88.9 L415.8,89.0 L428.4,89.0 L441.0,89.0 L453.5,89.0 L466.1,89.0 L478.7,89.3 L491.2,89.3 L503.8,89.3 L516.4,89.3 L528.9,89.3 L541.5,89.3 L554.1,89.2 L566.6,89.2 L579.2,89.3 L591.8,89.3 L604.3,89.3 L616.9,89.3 L629.5,89.3 L642.0,89.3 L654.6,89.3 L667.2,89.3 L679.7,89.3 L692.3,120.2 L704.9,120.2 L717.4,120.2 L730.0,120.2" fill="none" stroke="#3987e5" stroke-width="2" stroke-linejoin="round" stroke-linecap="round"/>
<circle cx="730.0" cy="120.2" r="6" fill="#1a1a19"/>
<circle cx="730.0" cy="120.2" r="4" fill="#3987e5"/>
<path d="M64.0,103.9 L76.6,103.9 L89.1,103.9 L101.7,103.9 L114.3,103.9 L126.8,103.9 L139.4,103.8 L152.0,103.8 L164.5,103.8 L177.1,103.8 L189.7,103.8 L202.2,103.8 L214.8,103.8 L227.4,103.8 L239.9,103.9 L252.5,103.9 L265.1,103.9 L277.6,103.9 L290.2,103.9 L302.8,103.9 L315.3,103.9 L327.9,103.9 L340.5,103.9 L353.0,103.9 L365.6,103.9 L378.2,103.9 L390.7,103.9 L403.3,103.9 L415.8,103.9 L428.4,103.9 L441.0,103.9 L453.5,103.9 L466.1,103.9 L478.7,104.2 L491.2,104.2 L503.8,104.2 L516.4,104.2 L528.9,104.1 L541.5,104.1 L554.1,104.2 L566.6,104.2 L579.2,104.2 L591.8,104.2 L604.3,104.2 L616.9,104.2 L629.5,104.2 L642.0,104.2 L654.6,104.2 L667.2,104.2 L679.7,104.2 L692.3,131.8 L704.9,131.8 L717.4,131.8 L730.0,131.8" fill="none" stroke="#199e70" stroke-width="2" stroke-linejoin="round" stroke-linecap="round"/>
<circle cx="730.0" cy="131.8" r="6" fill="#1a1a19"/>
<circle cx="730.0" cy="131.8" r="4" fill="#199e70"/>
<path d="M64.0,92.1 L76.6,92.1 L89.1,92.1 L101.7,92.1 L114.3,92.1 L126.8,92.1 L139.4,92.1 L152.0,92.1 L164.5,92.1 L177.1,92.1 L189.7,92.1 L202.2,92.1 L214.8,92.1 L227.4,92.1 L239.9,92.1 L252.5,92.1 L265.1,92.1 L277.6,92.1 L290.2,92.1 L302.8,92.1 L315.3,92.1 L327.9,92.1 L340.5,92.1 L353.0,92.1 L365.6,92.1 L378.2,92.1 L390.7,92.1 L403.3,92.1 L415.8,92.1 L428.4,92.1 L441.0,92.1 L453.5,92.1 L466.1,92.1 L478.7,92.4 L491.2,92.4 L503.8,92.4 L516.4,92.4 L528.9,92.4 L541.5,92.4 L554.1,92.3 L566.6,92.3 L579.2,92.4 L591.8,92.4 L604.3,92.4 L616.9,92.4 L629.5,92.4 L642.0,92.4 L654.6,92.4 L667.2,92.4 L679.7,92.4 L692.3,120.0 L704.9,119.9 L717.4,119.9 L730.0,119.9" fill="none" stroke="#c98500" stroke-width="2" stroke-linejoin="round" stroke-linecap="round"/>
<circle cx="730.0" cy="119.9" r="6" fill="#1a1a19"/>
<circle cx="730.0" cy="119.9" r="4" fill="#c98500"/>
<path d="M64.0,56.0 L76.6,56.0 L89.1,56.0 L101.7,56.0 L114.3,56.0 L126.8,56.0 L139.4,56.0 L152.0,56.0 L164.5,56.0 L177.1,56.0 L189.7,56.0 L202.2,56.0 L214.8,56.0 L227.4,56.0 L239.9,56.0 L252.5,56.0 L265.1,56.0 L277.6,56.0 L290.2,56.0 L302.8,56.0 L315.3,56.0 L327.9,56.0 L340.5,56.0 L353.0,56.0 L365.6,56.0 L378.2,56.0 L390.7,56.0 L403.3,56.0 L415.8,56.0 L428.4,56.0 L441.0,56.0 L453.5,56.0 L466.1,56.0 L478.7,56.3 L491.2,56.3 L503.8,56.3 L516.4,56.3 L528.9,56.3 L541.5,56.3 L554.1,56.2 L566.6,56.2 L579.2,56.3 L591.8,56.3 L604.3,56.3 L616.9,56.3 L629.5,56.3 L642.0,56.3 L654.6,56.3 L667.2,56.3 L679.7,56.3 L692.3,83.9 L704.9,83.9 L717.4,83.9 L730.0,83.9" fill="none" stroke="#008300" stroke-width="2" stroke-linejoin="round" stroke-linecap="round"/>
<circle cx="730.0" cy="83.9" r="6" fill="#1a1a19"/>
<circle cx="730.0" cy="83.9" r="4" fill="#008300"/>
<path d="M64.0,227.6 L76.6,227.6 L89.1,227.6 L101.7,227.6 L114.3,227.6 L126.8,227.6 L139.4,227.6 L152.0,227.6 L164.5,227.6 L177.1,227.6 L189.7,227.6 L202.2,227.6 L214.8,227.6 L227.4,227.6 L239.9,227.6 L252.5,227.6 L265.1,227.6 L277.6,227.6 L290.2,227.6 L302.8,227.6 L315.3,227.6 L327.9,227.6 L340.5,227.6 L353.0,227.6 L365.6,227.6 L378.2,227.6 L390.7,227.6 L403.3,227.6 L415.8,227.6 L428.4,227.6 L441.0,227.6 L453.5,227.6 L466.1,227.6 L478.7,227.8 L491.2,227.8 L503.8,227.8 L516.4,227.8 L528.9,227.7 L541.5,227.7 L554.1,227.8 L566.6,227.8 L579.2,227.7 L591.8,227.7 L604.3,227.7 L616.9,227.7 L629.5,227.7 L642.0,227.7 L654.6,227.7 L667.2,227.7 L679.7,227.7 L692.3,227.7 L704.9,227.7 L717.4,227.7 L730.0,227.7" fill="none" stroke="#9085e9" stroke-width="2" stroke-linejoin="round" stroke-linecap="round"/>
<circle cx="730.0" cy="227.7" r="6" fill="#1a1a19"/>
<circle cx="730.0" cy="227.7" r="4" fill="#9085e9"/>
<circle cx="745.0" cy="80.4" r="3.5" fill="#008300"/>
<text x="753.0" y="83.9" font-family='system-ui, -apple-system, "Segoe UI", sans-serif' font-size="11" fill="#ffffff">reverb</text>
<text x="753.0" y="95.9" font-family='system-ui, -apple-system, "Segoe UI", sans-serif' font-size="10" style="font-variant-numeric: tabular-nums" fill="#c3c2b7">44.9M</text>
<circle cx="745.0" cy="116.4" r="3.5" fill="#c98500"/>
<text x="753.0" y="119.9" font-family='system-ui, -apple-system, "Segoe UI", sans-serif' font-size="11" fill="#ffffff">echo</text>
<text x="753.0" y="131.9" font-family='system-ui, -apple-system, "Segoe UI", sans-serif' font-size="10" style="font-variant-numeric: tabular-nums" fill="#c3c2b7">37.6M</text>
<line x1="736.0" y1="120.2" x2="740.0" y2="147.9" stroke="#383835" stroke-width="1"/>
<circle cx="745.0" cy="144.4" r="3.5" fill="#3987e5"/>
<text x="753.0" y="147.9" font-family='system-ui, -apple-system, "Segoe UI", sans-serif' font-size="11" fill="#ffffff">auto-filter</text>
<text x="753.0" y="159.9" font-family='system-ui, -apple-system, "Segoe UI", sans-serif' font-size="10" style="font-variant-numeric: tabular-nums" fill="#c3c2b7">37.6M</text>
<line x1="736.0" y1="131.8" x2="740.0" y2="175.9" stroke="#383835" stroke-width="1"/>
<circle cx="745.0" cy="172.4" r="3.5" fill="#199e70"/>
<text x="753.0" y="175.9" font-family='system-ui, -apple-system, "Segoe UI", sans-serif' font-size="11" fill="#ffffff">autotune</text>
<text x="753.0" y="187.9" font-family='system-ui, -apple-system, "Segoe UI", sans-serif' font-size="10" style="font-variant-numeric: tabular-nums" fill="#c3c2b7">35.2M</text>
<circle cx="745.0" cy="224.2" r="3.5" fill="#9085e9"/>
<text x="753.0" y="227.7" font-family='system-ui, -apple-system, "Segoe UI", sans-serif' font-size="11" fill="#ffffff">sampler-arp</text>
<text x="753.0" y="239.7" font-family='system-ui, -apple-system, "Segoe UI", sans-serif' font-size="10" style="font-variant-numeric: tabular-nums" fill="#c3c2b7">15.8M</text>
</svg>