<svg xmlns="http://www.w3.org/2000/svg" width="880" height="340" viewBox="0 0 880 340" role="img" aria-label="Whole-instrument render cost">
<rect width="880" height="340" rx="6" fill="#1a1a19"/>
<text x="64" y="24" font-family='system-ui, -apple-system, "Segoe UI", sans-serif' font-size="14" font-weight="600" fill="#ffffff">Whole-instrument render cost</text>
<text x="64" y="41" font-family='system-ui, -apple-system, "Segoe UI", sans-serif' font-size="11" fill="#c3c2b7">render_block of 1 s of audio - callgrind instructions (Ir), per dev commit, 2026-07-12 to 2026-07-20</text>
<line x1="64" y1="306.0" x2="730" y2="306.0" stroke="#2c2c2a" stroke-width="1"/>
<text x="56" y="309.5" text-anchor="end" font-family='system-ui, -apple-system, "Segoe UI", sans-serif' font-size="11" style="font-variant-numeric: tabular-nums" fill="#898781">0</text>
<line x1="64" y1="207.1" x2="730" y2="207.1" stroke="#2c2c2a" stroke-width="1"/>
<text x="56" y="210.6" text-anchor="end" font-family='system-ui, -apple-system, "Segoe UI", sans-serif' font-size="11" style="font-variant-numeric: tabular-nums" fill="#898781">20</text>
<line x1="64" y1="108.2" x2="730" y2="108.2" stroke="#2c2c2a" stroke-width="1"/>
<text x="56" y="111.7" text-anchor="end" font-family='system-ui, -apple-system, "Segoe UI", sans-serif' font-size="11" style="font-variant-numeric: tabular-nums" fill="#898781">40</text>
<text x="56" y="46" text-anchor="end" font-family='system-ui, -apple-system, "Segoe UI", sans-serif' font-size="10" fill="#898781">Ir (M)</text>
<line x1="64" y1="306" x2="730" y2="306" stroke="#383835" stroke-width="1"/>
<text x="64.0" y="322" text-anchor="middle" font-family='system-ui, -apple-system, "Segoe UI", sans-serif' font-size="11" style="font-variant-numeric: tabular-nums" fill="#898781">07-12</text>
<text x="185.1" y="322" text-anchor="middle" font-family='system-ui, -apple-system, "Segoe UI", sans-serif' font-size="11" style="font-variant-numeric: tabular-nums" fill="#898781">07-13</text>
<text x="205.3" y="322" text-anchor="middle" font-family='system-ui, -apple-system, "Segoe UI", sans-serif' font-size="11" style="font-variant-numeric: tabular-nums" fill="#898781">07-14</text>
<text x="225.5" y="322" text-anchor="middle" font-family='system-ui, -apple-system, "Segoe UI", sans-serif' font-size="11" style="font-variant-numeric: tabular-nums" fill="#898781">07-16</text>
<text x="386.9" y="322" text-anchor="middle" font-family='system-ui, -apple-system, "Segoe UI", sans-serif' font-size="11" style="font-variant-numeric: tabular-nums" fill="#898781">07-17</text>
<text x="508.0" y="322" text-anchor="middle" font-family='system-ui, -apple-system, "Segoe UI", sans-serif' font-size="11" style="font-variant-numeric: tabular-nums" fill="#898781">07-18</text>
<text x="629.1" y="322" text-anchor="middle" font-family='system-ui, -apple-system, "Segoe UI", sans-serif' font-size="11" style="font-variant-numeric: tabular-nums" fill="#898781">07-19</text>
<text x="689.6" y="322" text-anchor="middle" font-family='system-ui, -apple-system, "Segoe UI", sans-serif' font-size="11" style="font-variant-numeric: tabular-nums" fill="#898781">07-20</text>
<path d="M64.0,88.9 L84.2,88.9 L104.4,88.9 L124.5,88.9 L144.7,88.9 L164.9,88.9 L185.1,88.9 L205.3,88.9 L225.5,88.9 L245.6,88.9 L265.8,88.9 L286.0,88.9 L306.2,88.9 L326.4,88.9 L346.5,88.9 L366.7,88.9 L386.9,88.9 L407.1,88.9 L427.3,88.9 L447.5,88.9 L467.6,88.9 L487.8,88.9 L508.0,88.9 L528.2,88.9 L548.4,88.9 L568.5,88.9 L588.7,88.9 L608.9,88.9 L629.1,89.0 L649.3,89.0 L669.5,89.0 L689.6,89.0 L709.8,89.0 L730.0,89.3" fill="none" stroke="#3987e5" stroke-width="2" stroke-linejoin="round" stroke-linecap="round"/>
<circle cx="730.0" cy="89.3" r="6" fill="#1a1a19"/>
<circle cx="730.0" cy="89.3" r="4" fill="#3987e5"/>
<path d="M64.0,103.9 L84.2,103.9 L104.4,103.9 L124.5,103.9 L144.7,103.9 L164.9,103.9 L185.1,103.8 L205.3,103.8 L225.5,103.8 L245.6,103.8 L265.8,103.8 L286.0,103.8 L306.2,103.8 L326.4,103.8 L346.5,103.9 L366.7,103.9 L386.9,103.9 L407.1,103.9 L427.3,103.9 L447.5,103.9 L467.6,103.9 L487.8,103.9 L508.0,103.9 L528.2,103.9 L548.4,103.9 L568.5,103.9 L588.7,103.9 L608.9,103.9 L629.1,103.9 L649.3,103.9 L669.5,103.9 L689.6,103.9 L709.8,103.9 L730.0,104.2" fill="none" stroke="#199e70" stroke-width="2" stroke-linejoin="round" stroke-linecap="round"/>
<circle cx="730.0" cy="104.2" r="6" fill="#1a1a19"/>
<circle cx="730.0" cy="104.2" r="4" fill="#199e70"/>
<path d="M64.0,92.1 L84.2,92.1 L104.4,92.1 L124.5,92.1 L144.7,92.1 L164.9,92.1 L185.1,92.1 L205.3,92.1 L225.5,92.1 L245.6,92.1 L265.8,92.1 L286.0,92.1 L306.2,92.1 L326.4,92.1 L346.5,92.1 L366.7,92.1 L386.9,92.1 L407.1,92.1 L427.3,92.1 L447.5,92.1 L467.6,92.1 L487.8,92.1 L508.0,92.1 L528.2,92.1 L548.4,92.1 L568.5,92.1 L588.7,92.1 L608.9,92.1 L629.1,92.1 L649.3,92.1 L669.5,92.1 L689.6,92.1 L709.8,92.1 L730.0,92.4" fill="none" stroke="#c98500" stroke-width="2" stroke-linejoin="round" stroke-linecap="round"/>
<circle cx="730.0" cy="92.4" r="6" fill="#1a1a19"/>
<circle cx="730.0" cy="92.4" r="4" fill="#c98500"/>
<path d="M64.0,56.0 L84.2,56.0 L104.4,56.0 L124.5,56.0 L144.7,56.0 L164.9,56.0 L185.1,56.0 L205.3,56.0 L225.5,56.0 L245.6,56.0 L265.8,56.0 L286.0,56.0 L306.2,56.0 L326.4,56.0 L346.5,56.0 L366.7,56.0 L386.9,56.0 L407.1,56.0 L427.3,56.0 L447.5,56.0 L467.6,56.0 L487.8,56.0 L508.0,56.0 L528.2,56.0 L548.4,56.0 L568.5,56.0 L588.7,56.0 L608.9,56.0 L629.1,56.0 L649.3,56.0 L669.5,56.0 L689.6,56.0 L709.8,56.0 L730.0,56.3" fill="none" stroke="#008300" stroke-width="2" stroke-linejoin="round" stroke-linecap="round"/>
<circle cx="730.0" cy="56.3" r="6" fill="#1a1a19"/>
<circle cx="730.0" cy="56.3" r="4" fill="#008300"/>
<path d="M64.0,227.6 L84.2,227.6 L104.4,227.6 L124.5,227.6 L144.7,227.6 L164.9,227.6 L185.1,227.6 L205.3,227.6 L225.5,227.6 L245.6,227.6 L265.8,227.6 L286.0,227.6 L306.2,227.6 L326.4,227.6 L346.5,227.6 L366.7,227.6 L386.9,227.6 L407.1,227.6 L427.3,227.6 L447.5,227.6 L467.6,227.6 L487.8,227.6 L508.0,227.6 L528.2,227.6 L548.4,227.6 L568.5,227.6 L588.7,227.6 L608.9,227.6 L629.1,227.6 L649.3,227.6 L669.5,227.6 L689.6,227.6 L709.8,227.6 L730.0,227.8" fill="none" stroke="#9085e9" stroke-width="2" stroke-linejoin="round" stroke-linecap="round"/>
<circle cx="730.0" cy="227.8" r="6" fill="#1a1a19"/>
<circle cx="730.0" cy="227.8" r="4" fill="#9085e9"/>
<circle cx="745.0" cy="52.8" r="3.5" fill="#008300"/>
<text x="753.0" y="56.3" font-family='system-ui, -apple-system, "Segoe UI", sans-serif' font-size="11" fill="#ffffff">reverb</text>
<text x="753.0" y="68.3" font-family='system-ui, -apple-system, "Segoe UI", sans-serif' font-size="10" style="font-variant-numeric: tabular-nums" fill="#c3c2b7">50.5M</text>
<circle cx="745.0" cy="85.8" r="3.5" fill="#3987e5"/>
<text x="753.0" y="89.3" font-family='system-ui, -apple-system, "Segoe UI", sans-serif' font-size="11" fill="#ffffff">auto-filter</text>
<text x="753.0" y="101.3" font-family='system-ui, -apple-system, "Segoe UI", sans-serif' font-size="10" style="font-variant-numeric: tabular-nums" fill="#c3c2b7">43.8M</text>
<line x1="736.0" y1="92.4" x2="740.0" y2="117.3" stroke="#383835" stroke-width="1"/>
<circle cx="745.0" cy="113.8" r="3.5" fill="#c98500"/>
<text x="753.0" y="117.3" font-family='system-ui, -apple-system, "Segoe UI", sans-serif' font-size="11" fill="#ffffff">echo</text>
<text x="753.0" y="129.3" font-family='system-ui, -apple-system, "Segoe UI", sans-serif' font-size="10" style="font-variant-numeric: tabular-nums" fill="#c3c2b7">43.2M</text>
<line x1="736.0" y1="104.2" x2="740.0" y2="145.3" stroke="#383835" stroke-width="1"/>
<circle cx="745.0" cy="141.8" r="3.5" fill="#199e70"/>
<text x="753.0" y="145.3" font-family='system-ui, -apple-system, "Segoe UI", sans-serif' font-size="11" fill="#ffffff">autotune</text>
<text x="753.0" y="157.3" font-family='system-ui, -apple-system, "Segoe UI", sans-serif' font-size="10" style="font-variant-numeric: tabular-nums" fill="#c3c2b7">40.8M</text>
<circle cx="745.0" cy="224.3" r="3.5" fill="#9085e9"/>
<text x="753.0" y="227.8" font-family='system-ui, -apple-system, "Segoe UI", sans-serif' font-size="11" fill="#ffffff">sampler-arp</text>
<text x="753.0" y="239.8" font-family='system-ui, -apple-system, "Segoe UI", sans-serif' font-size="10" style="font-variant-numeric: tabular-nums" fill="#c3c2b7">15.8M</text>
</svg>