<svg xmlns="http://www.w3.org/2000/svg" width="880" height="340" viewBox="0 0 880 340" role="img" aria-label="Whole-instrument render cost">
<rect width="880" height="340" rx="6" fill="#fcfcfb"/>
<text x="64" y="24" font-family='system-ui, -apple-system, "Segoe UI", sans-serif' font-size="14" font-weight="600" fill="#0b0b0b">Whole-instrument render cost</text>
<text x="64" y="41" font-family='system-ui, -apple-system, "Segoe UI", sans-serif' font-size="11" fill="#52514e">render_block of 1 s of audio - callgrind instructions (Ir), per dev commit, 2026-07-12 to 2026-07-19</text>
<line x1="64" y1="306.0" x2="730" y2="306.0" stroke="#e1e0d9" stroke-width="1"/>
<text x="56" y="309.5" text-anchor="end" font-family='system-ui, -apple-system, "Segoe UI", sans-serif' font-size="11" style="font-variant-numeric: tabular-nums" fill="#898781">0</text>
<line x1="64" y1="207.1" x2="730" y2="207.1" stroke="#e1e0d9" stroke-width="1"/>
<text x="56" y="210.6" text-anchor="end" font-family='system-ui, -apple-system, "Segoe UI", sans-serif' font-size="11" style="font-variant-numeric: tabular-nums" fill="#898781">20</text>
<line x1="64" y1="108.2" x2="730" y2="108.2" stroke="#e1e0d9" stroke-width="1"/>
<text x="56" y="111.7" text-anchor="end" font-family='system-ui, -apple-system, "Segoe UI", sans-serif' font-size="11" style="font-variant-numeric: tabular-nums" fill="#898781">40</text>
<text x="56" y="46" text-anchor="end" font-family='system-ui, -apple-system, "Segoe UI", sans-serif' font-size="10" fill="#898781">Ir (M)</text>
<line x1="64" y1="306" x2="730" y2="306" stroke="#c3c2b7" stroke-width="1"/>
<text x="64.0" y="322" text-anchor="middle" font-family='system-ui, -apple-system, "Segoe UI", sans-serif' font-size="11" style="font-variant-numeric: tabular-nums" fill="#898781">07-12</text>
<text x="206.7" y="322" text-anchor="middle" font-family='system-ui, -apple-system, "Segoe UI", sans-serif' font-size="11" style="font-variant-numeric: tabular-nums" fill="#898781">07-13</text>
<text x="230.5" y="322" text-anchor="middle" font-family='system-ui, -apple-system, "Segoe UI", sans-serif' font-size="11" style="font-variant-numeric: tabular-nums" fill="#898781">07-14</text>
<text x="254.3" y="322" text-anchor="middle" font-family='system-ui, -apple-system, "Segoe UI", sans-serif' font-size="11" style="font-variant-numeric: tabular-nums" fill="#898781">07-16</text>
<text x="444.6" y="322" text-anchor="middle" font-family='system-ui, -apple-system, "Segoe UI", sans-serif' font-size="11" style="font-variant-numeric: tabular-nums" fill="#898781">07-17</text>
<text x="587.3" y="322" text-anchor="middle" font-family='system-ui, -apple-system, "Segoe UI", sans-serif' font-size="11" style="font-variant-numeric: tabular-nums" fill="#898781">07-18</text>
<text x="730.0" y="322" text-anchor="middle" font-family='system-ui, -apple-system, "Segoe UI", sans-serif' font-size="11" style="font-variant-numeric: tabular-nums" fill="#898781">07-19</text>
<path d="M64.0,88.9 L87.8,88.9 L111.6,88.9 L135.4,88.9 L159.1,88.9 L182.9,88.9 L206.7,88.9 L230.5,88.9 L254.3,88.9 L278.1,88.9 L301.9,88.9 L325.6,88.9 L349.4,88.9 L373.2,88.9 L397.0,88.9 L420.8,88.9 L444.6,88.9 L468.4,88.9 L492.1,88.9 L515.9,88.9 L539.7,88.9 L563.5,88.9 L587.3,88.9 L611.1,88.9 L634.9,88.9 L658.6,88.9 L682.4,88.9 L706.2,88.9 L730.0,89.0" fill="none" stroke="#2a78d6" stroke-width="2" stroke-linejoin="round" stroke-linecap="round"/>
<circle cx="730.0" cy="89.0" r="6" fill="#fcfcfb"/>
<circle cx="730.0" cy="89.0" r="4" fill="#2a78d6"/>
<path d="M64.0,103.9 L87.8,103.9 L111.6,103.9 L135.4,103.9 L159.1,103.9 L182.9,103.9 L206.7,103.8 L230.5,103.8 L254.3,103.8 L278.1,103.8 L301.9,103.8 L325.6,103.8 L349.4,103.8 L373.2,103.8 L397.0,103.9 L420.8,103.9 L444.6,103.9 L468.4,103.9 L492.1,103.9 L515.9,103.9 L539.7,103.9 L563.5,103.9 L587.3,103.9 L611.1,103.9 L634.9,103.9 L658.6,103.9 L682.4,103.9 L706.2,103.9 L730.0,103.9" fill="none" stroke="#1baf7a" stroke-width="2" stroke-linejoin="round" stroke-linecap="round"/>
<circle cx="730.0" cy="103.9" r="6" fill="#fcfcfb"/>
<circle cx="730.0" cy="103.9" r="4" fill="#1baf7a"/>
<path d="M64.0,92.1 L87.8,92.1 L111.6,92.1 L135.4,92.1 L159.1,92.1 L182.9,92.1 L206.7,92.1 L230.5,92.1 L254.3,92.1 L278.1,92.1 L301.9,92.1 L325.6,92.1 L349.4,92.1 L373.2,92.1 L397.0,92.1 L420.8,92.1 L444.6,92.1 L468.4,92.1 L492.1,92.1 L515.9,92.1 L539.7,92.1 L563.5,92.1 L587.3,92.1 L611.1,92.1 L634.9,92.1 L658.6,92.1 L682.4,92.1 L706.2,92.1 L730.0,92.1" fill="none" stroke="#eda100" stroke-width="2" stroke-linejoin="round" stroke-linecap="round"/>
<circle cx="730.0" cy="92.1" r="6" fill="#fcfcfb"/>
<circle cx="730.0" cy="92.1" r="4" fill="#eda100"/>
<path d="M64.0,56.0 L87.8,56.0 L111.6,56.0 L135.4,56.0 L159.1,56.0 L182.9,56.0 L206.7,56.0 L230.5,56.0 L254.3,56.0 L278.1,56.0 L301.9,56.0 L325.6,56.0 L349.4,56.0 L373.2,56.0 L397.0,56.0 L420.8,56.0 L444.6,56.0 L468.4,56.0 L492.1,56.0 L515.9,56.0 L539.7,56.0 L563.5,56.0 L587.3,56.0 L611.1,56.0 L634.9,56.0 L658.6,56.0 L682.4,56.0 L706.2,56.0 L730.0,56.0" fill="none" stroke="#008300" stroke-width="2" stroke-linejoin="round" stroke-linecap="round"/>
<circle cx="730.0" cy="56.0" r="6" fill="#fcfcfb"/>
<circle cx="730.0" cy="56.0" r="4" fill="#008300"/>
<path d="M64.0,227.6 L87.8,227.6 L111.6,227.6 L135.4,227.6 L159.1,227.6 L182.9,227.6 L206.7,227.6 L230.5,227.6 L254.3,227.6 L278.1,227.6 L301.9,227.6 L325.6,227.6 L349.4,227.6 L373.2,227.6 L397.0,227.6 L420.8,227.6 L444.6,227.6 L468.4,227.6 L492.1,227.6 L515.9,227.6 L539.7,227.6 L563.5,227.6 L587.3,227.6 L611.1,227.6 L634.9,227.6 L658.6,227.6 L682.4,227.6 L706.2,227.6 L730.0,227.6" fill="none" stroke="#4a3aa7" stroke-width="2" stroke-linejoin="round" stroke-linecap="round"/>
<circle cx="730.0" cy="227.6" r="6" fill="#fcfcfb"/>
<circle cx="730.0" cy="227.6" r="4" fill="#4a3aa7"/>
<circle cx="745.0" cy="52.5" r="3.5" fill="#008300"/>
<text x="753.0" y="56.0" font-family='system-ui, -apple-system, "Segoe UI", sans-serif' font-size="11" fill="#0b0b0b">reverb</text>
<text x="753.0" y="68.0" font-family='system-ui, -apple-system, "Segoe UI", sans-serif' font-size="10" style="font-variant-numeric: tabular-nums" fill="#52514e">50.5M</text>
<circle cx="745.0" cy="85.5" r="3.5" fill="#2a78d6"/>
<text x="753.0" y="89.0" font-family='system-ui, -apple-system, "Segoe UI", sans-serif' font-size="11" fill="#0b0b0b">auto-filter</text>
<text x="753.0" y="101.0" font-family='system-ui, -apple-system, "Segoe UI", sans-serif' font-size="10" style="font-variant-numeric: tabular-nums" fill="#52514e">43.9M</text>
<line x1="736.0" y1="92.1" x2="740.0" y2="117.0" stroke="#c3c2b7" stroke-width="1"/>
<circle cx="745.0" cy="113.5" r="3.5" fill="#eda100"/>
<text x="753.0" y="117.0" font-family='system-ui, -apple-system, "Segoe UI", sans-serif' font-size="11" fill="#0b0b0b">echo</text>
<text x="753.0" y="129.0" font-family='system-ui, -apple-system, "Segoe UI", sans-serif' font-size="10" style="font-variant-numeric: tabular-nums" fill="#52514e">43.2M</text>
<line x1="736.0" y1="103.9" x2="740.0" y2="145.0" stroke="#c3c2b7" stroke-width="1"/>
<circle cx="745.0" cy="141.5" r="3.5" fill="#1baf7a"/>
<text x="753.0" y="145.0" font-family='system-ui, -apple-system, "Segoe UI", sans-serif' font-size="11" fill="#0b0b0b">autotune</text>
<text x="753.0" y="157.0" font-family='system-ui, -apple-system, "Segoe UI", sans-serif' font-size="10" style="font-variant-numeric: tabular-nums" fill="#52514e">40.9M</text>
<circle cx="745.0" cy="224.1" r="3.5" fill="#4a3aa7"/>
<text x="753.0" y="227.6" font-family='system-ui, -apple-system, "Segoe UI", sans-serif' font-size="11" fill="#0b0b0b">sampler-arp</text>
<text x="753.0" y="239.6" font-family='system-ui, -apple-system, "Segoe UI", sans-serif' font-size="10" style="font-variant-numeric: tabular-nums" fill="#52514e">15.8M</text>
</svg>