<svg xmlns="http://www.w3.org/2000/svg" width="880" height="340" viewBox="0 0 880 340" role="img" aria-label="Whole-instrument render cost">
<rect width="880" height="340" rx="6" fill="#fcfcfb"/>
<text x="64" y="24" font-family='system-ui, -apple-system, "Segoe UI", sans-serif' font-size="14" font-weight="600" fill="#0b0b0b">Whole-instrument render cost</text>
<text x="64" y="41" font-family='system-ui, -apple-system, "Segoe UI", sans-serif' font-size="11" fill="#52514e">render_block of 1 s of audio - callgrind instructions (Ir), per dev commit, 2026-07-12 to 2026-07-17</text>
<line x1="64" y1="306.0" x2="730" y2="306.0" stroke="#e1e0d9" stroke-width="1"/>
<text x="56" y="309.5" text-anchor="end" font-family='system-ui, -apple-system, "Segoe UI", sans-serif' font-size="11" style="font-variant-numeric: tabular-nums" fill="#898781">0</text>
<line x1="64" y1="207.1" x2="730" y2="207.1" stroke="#e1e0d9" stroke-width="1"/>
<text x="56" y="210.6" text-anchor="end" font-family='system-ui, -apple-system, "Segoe UI", sans-serif' font-size="11" style="font-variant-numeric: tabular-nums" fill="#898781">20</text>
<line x1="64" y1="108.2" x2="730" y2="108.2" stroke="#e1e0d9" stroke-width="1"/>
<text x="56" y="111.7" text-anchor="end" font-family='system-ui, -apple-system, "Segoe UI", sans-serif' font-size="11" style="font-variant-numeric: tabular-nums" fill="#898781">40</text>
<text x="56" y="46" text-anchor="end" font-family='system-ui, -apple-system, "Segoe UI", sans-serif' font-size="10" fill="#898781">Ir (M)</text>
<line x1="64" y1="306" x2="730" y2="306" stroke="#c3c2b7" stroke-width="1"/>
<text x="64.0" y="322" text-anchor="middle" font-family='system-ui, -apple-system, "Segoe UI", sans-serif' font-size="11" style="font-variant-numeric: tabular-nums" fill="#898781">07-12</text>
<text x="299.1" y="322" text-anchor="middle" font-family='system-ui, -apple-system, "Segoe UI", sans-serif' font-size="11" style="font-variant-numeric: tabular-nums" fill="#898781">07-13</text>
<text x="338.2" y="322" text-anchor="middle" font-family='system-ui, -apple-system, "Segoe UI", sans-serif' font-size="11" style="font-variant-numeric: tabular-nums" fill="#898781">07-14</text>
<text x="377.4" y="322" text-anchor="middle" font-family='system-ui, -apple-system, "Segoe UI", sans-serif' font-size="11" style="font-variant-numeric: tabular-nums" fill="#898781">07-16</text>
<text x="690.8" y="322" text-anchor="middle" font-family='system-ui, -apple-system, "Segoe UI", sans-serif' font-size="11" style="font-variant-numeric: tabular-nums" fill="#898781">07-17</text>
<path d="M64.0,88.9 L103.2,88.9 L142.4,88.9 L181.5,88.9 L220.7,88.9 L259.9,88.9 L299.1,88.9 L338.2,88.9 L377.4,88.9 L416.6,88.9 L455.8,88.9 L494.9,88.9 L534.1,88.9 L573.3,88.9 L612.5,88.9 L651.6,88.9 L690.8,88.9 L730.0,88.9" fill="none" stroke="#2a78d6" stroke-width="2" stroke-linejoin="round" stroke-linecap="round"/>
<circle cx="730.0" cy="88.9" r="6" fill="#fcfcfb"/>
<circle cx="730.0" cy="88.9" r="4" fill="#2a78d6"/>
<path d="M64.0,103.9 L103.2,103.9 L142.4,103.9 L181.5,103.9 L220.7,103.9 L259.9,103.9 L299.1,103.8 L338.2,103.8 L377.4,103.8 L416.6,103.8 L455.8,103.8 L494.9,103.8 L534.1,103.8 L573.3,103.8 L612.5,103.9 L651.6,103.9 L690.8,103.9 L730.0,103.9" fill="none" stroke="#1baf7a" stroke-width="2" stroke-linejoin="round" stroke-linecap="round"/>
<circle cx="730.0" cy="103.9" r="6" fill="#fcfcfb"/>
<circle cx="730.0" cy="103.9" r="4" fill="#1baf7a"/>
<path d="M64.0,92.1 L103.2,92.1 L142.4,92.1 L181.5,92.1 L220.7,92.1 L259.9,92.1 L299.1,92.1 L338.2,92.1 L377.4,92.1 L416.6,92.1 L455.8,92.1 L494.9,92.1 L534.1,92.1 L573.3,92.1 L612.5,92.1 L651.6,92.1 L690.8,92.1 L730.0,92.1" fill="none" stroke="#eda100" stroke-width="2" stroke-linejoin="round" stroke-linecap="round"/>
<circle cx="730.0" cy="92.1" r="6" fill="#fcfcfb"/>
<circle cx="730.0" cy="92.1" r="4" fill="#eda100"/>
<path d="M64.0,56.0 L103.2,56.0 L142.4,56.0 L181.5,56.0 L220.7,56.0 L259.9,56.0 L299.1,56.0 L338.2,56.0 L377.4,56.0 L416.6,56.0 L455.8,56.0 L494.9,56.0 L534.1,56.0 L573.3,56.0 L612.5,56.0 L651.6,56.0 L690.8,56.0 L730.0,56.0" fill="none" stroke="#008300" stroke-width="2" stroke-linejoin="round" stroke-linecap="round"/>
<circle cx="730.0" cy="56.0" r="6" fill="#fcfcfb"/>
<circle cx="730.0" cy="56.0" r="4" fill="#008300"/>
<path d="M64.0,227.6 L103.2,227.6 L142.4,227.6 L181.5,227.6 L220.7,227.6 L259.9,227.6 L299.1,227.6 L338.2,227.6 L377.4,227.6 L416.6,227.6 L455.8,227.6 L494.9,227.6 L534.1,227.6 L573.3,227.6 L612.5,227.6 L651.6,227.6 L690.8,227.6 L730.0,227.6" fill="none" stroke="#4a3aa7" stroke-width="2" stroke-linejoin="round" stroke-linecap="round"/>
<circle cx="730.0" cy="227.6" r="6" fill="#fcfcfb"/>
<circle cx="730.0" cy="227.6" r="4" fill="#4a3aa7"/>
<circle cx="745.0" cy="52.5" r="3.5" fill="#008300"/>
<text x="753.0" y="56.0" font-family='system-ui, -apple-system, "Segoe UI", sans-serif' font-size="11" fill="#0b0b0b">reverb</text>
<text x="753.0" y="68.0" font-family='system-ui, -apple-system, "Segoe UI", sans-serif' font-size="10" style="font-variant-numeric: tabular-nums" fill="#52514e">50.5M</text>
<circle cx="745.0" cy="85.4" r="3.5" fill="#2a78d6"/>
<text x="753.0" y="88.9" font-family='system-ui, -apple-system, "Segoe UI", sans-serif' font-size="11" fill="#0b0b0b">auto-filter</text>
<text x="753.0" y="100.9" font-family='system-ui, -apple-system, "Segoe UI", sans-serif' font-size="10" style="font-variant-numeric: tabular-nums" fill="#52514e">43.9M</text>
<line x1="736.0" y1="92.1" x2="740.0" y2="116.9" stroke="#c3c2b7" stroke-width="1"/>
<circle cx="745.0" cy="113.4" r="3.5" fill="#eda100"/>
<text x="753.0" y="116.9" font-family='system-ui, -apple-system, "Segoe UI", sans-serif' font-size="11" fill="#0b0b0b">echo</text>
<text x="753.0" y="128.9" font-family='system-ui, -apple-system, "Segoe UI", sans-serif' font-size="10" style="font-variant-numeric: tabular-nums" fill="#52514e">43.2M</text>
<line x1="736.0" y1="103.9" x2="740.0" y2="144.9" stroke="#c3c2b7" stroke-width="1"/>
<circle cx="745.0" cy="141.4" r="3.5" fill="#1baf7a"/>
<text x="753.0" y="144.9" font-family='system-ui, -apple-system, "Segoe UI", sans-serif' font-size="11" fill="#0b0b0b">autotune</text>
<text x="753.0" y="156.9" font-family='system-ui, -apple-system, "Segoe UI", sans-serif' font-size="10" style="font-variant-numeric: tabular-nums" fill="#52514e">40.9M</text>
<circle cx="745.0" cy="224.1" r="3.5" fill="#4a3aa7"/>
<text x="753.0" y="227.6" font-family='system-ui, -apple-system, "Segoe UI", sans-serif' font-size="11" fill="#0b0b0b">sampler-arp</text>
<text x="753.0" y="239.6" font-family='system-ui, -apple-system, "Segoe UI", sans-serif' font-size="10" style="font-variant-numeric: tabular-nums" fill="#52514e">15.9M</text>
</svg>