<svg xmlns="http://www.w3.org/2000/svg" width="880" height="340" viewBox="0 0 880 340" role="img" aria-label="Whole-instrument render cost">
<rect width="880" height="340" rx="6" fill="#1a1a19"/>
<text x="64" y="24" font-family='system-ui, -apple-system, "Segoe UI", sans-serif' font-size="14" font-weight="600" fill="#ffffff">Whole-instrument render cost</text>
<text x="64" y="41" font-family='system-ui, -apple-system, "Segoe UI", sans-serif' font-size="11" fill="#c3c2b7">render_block of 1 s of audio - callgrind instructions (Ir), per main commit, 2026-06-28 to 2026-07-11</text>
<line x1="64" y1="306.0" x2="730" y2="306.0" stroke="#2c2c2a" stroke-width="1"/>
<text x="56" y="309.5" text-anchor="end" font-family='system-ui, -apple-system, "Segoe UI", sans-serif' font-size="11" style="font-variant-numeric: tabular-nums" fill="#898781">0</text>
<line x1="64" y1="228.2" x2="730" y2="228.2" stroke="#2c2c2a" stroke-width="1"/>
<text x="56" y="231.7" text-anchor="end" font-family='system-ui, -apple-system, "Segoe UI", sans-serif' font-size="11" style="font-variant-numeric: tabular-nums" fill="#898781">20</text>
<line x1="64" y1="150.4" x2="730" y2="150.4" stroke="#2c2c2a" stroke-width="1"/>
<text x="56" y="153.9" text-anchor="end" font-family='system-ui, -apple-system, "Segoe UI", sans-serif' font-size="11" style="font-variant-numeric: tabular-nums" fill="#898781">40</text>
<line x1="64" y1="72.6" x2="730" y2="72.6" stroke="#2c2c2a" stroke-width="1"/>
<text x="56" y="76.1" text-anchor="end" font-family='system-ui, -apple-system, "Segoe UI", sans-serif' font-size="11" style="font-variant-numeric: tabular-nums" fill="#898781">60</text>
<text x="56" y="46" text-anchor="end" font-family='system-ui, -apple-system, "Segoe UI", sans-serif' font-size="10" fill="#898781">Ir (M)</text>
<line x1="64" y1="306" x2="730" y2="306" stroke="#383835" stroke-width="1"/>
<text x="64.0" y="322" text-anchor="middle" font-family='system-ui, -apple-system, "Segoe UI", sans-serif' font-size="11" style="font-variant-numeric: tabular-nums" fill="#898781">06-28</text>
<text x="122.8" y="322" text-anchor="middle" font-family='system-ui, -apple-system, "Segoe UI", sans-serif' font-size="11" style="font-variant-numeric: tabular-nums" fill="#898781">06-30</text>
<text x="171.7" y="322" text-anchor="middle" font-family='system-ui, -apple-system, "Segoe UI", sans-serif' font-size="11" style="font-variant-numeric: tabular-nums" fill="#898781">07-02</text>
<text x="279.5" y="322" text-anchor="middle" font-family='system-ui, -apple-system, "Segoe UI", sans-serif' font-size="11" style="font-variant-numeric: tabular-nums" fill="#898781">07-04</text>
<text x="436.2" y="322" text-anchor="middle" font-family='system-ui, -apple-system, "Segoe UI", sans-serif' font-size="11" style="font-variant-numeric: tabular-nums" fill="#898781">07-07</text>
<text x="534.1" y="322" text-anchor="middle" font-family='system-ui, -apple-system, "Segoe UI", sans-serif' font-size="11" style="font-variant-numeric: tabular-nums" fill="#898781">07-09</text>
<text x="612.5" y="322" text-anchor="middle" font-family='system-ui, -apple-system, "Segoe UI", sans-serif' font-size="11" style="font-variant-numeric: tabular-nums" fill="#898781">07-11</text>
<path d="M64.0,72.9 L73.8,73.0 L83.6,80.1 L93.4,80.1 L103.2,94.2 L113.0,108.6 L122.8,108.6 L132.6,105.1 L142.4,105.4 L152.1,105.7 L161.9,105.7 L171.7,105.6 L181.5,105.5 L191.3,105.5 L201.1,105.5 L210.9,105.5" fill="none" stroke="#3987e5" stroke-width="2" stroke-linejoin="round" stroke-linecap="round"/>
<path d="M230.5,105.7 L240.3,122.6 L250.1,122.6 L259.9,125.2 L269.7,125.0 L279.5,125.0 L289.3,125.0 L299.1,125.0 L308.9,125.0 L318.6,125.0 L328.4,124.3 L338.2,124.3 L348.0,124.3 L357.8,124.3 L367.6,124.3 L377.4,124.5 L387.2,124.5 L397.0,124.5 L406.8,127.9 L416.6,127.9 L426.4,127.9 L436.2,127.9 L446.0,127.9 L455.8,127.9 L465.6,127.9 L475.4,127.9 L485.1,127.9 L494.9,127.9 L504.7,127.9 L514.5,127.9 L524.3,127.9 L534.1,127.9 L543.9,127.9 L553.7,128.8 L563.5,128.8 L573.3,128.8 L583.1,128.2 L592.9,132.1 L602.7,132.1 L612.5,131.7 L622.3,135.3 L632.1,135.3 L641.9,135.3 L651.6,135.3 L661.4,135.3 L671.2,135.3 L681.0,135.3 L690.8,135.3 L700.6,135.3 L710.4,135.3 L720.2,135.3 L730.0,135.3" fill="none" stroke="#3987e5" stroke-width="2" stroke-linejoin="round" stroke-linecap="round"/>
<circle cx="730.0" cy="135.3" r="6" fill="#1a1a19"/>
<circle cx="730.0" cy="135.3" r="4" fill="#3987e5"/>
<path d="M64.0,98.8 L73.8,98.9 L83.6,98.2 L93.4,98.2 L103.2,107.4 L113.0,120.8 L122.8,120.7 L132.6,117.1 L142.4,117.4 L152.1,117.8 L161.9,117.7 L171.7,117.7 L181.5,117.5 L191.3,117.7 L201.1,117.7 L210.9,117.7" fill="none" stroke="#199e70" stroke-width="2" stroke-linejoin="round" stroke-linecap="round"/>
<path d="M230.5,117.8 L240.3,134.9 L250.1,134.9 L259.9,136.9 L269.7,136.6 L279.5,136.6 L289.3,136.6 L299.1,136.6 L308.9,136.6 L318.6,136.6 L328.4,135.8 L338.2,135.8 L348.0,135.8 L357.8,135.8 L367.6,135.8 L377.4,136.0 L387.2,136.0 L397.0,136.0 L406.8,139.7 L416.6,139.7 L426.4,139.6 L436.2,139.6 L446.0,139.6 L455.8,139.6 L465.6,139.6 L475.4,139.6 L485.1,139.6 L494.9,139.6 L504.7,139.6 L514.5,139.6 L524.3,139.6 L534.1,139.6 L543.9,139.6 L553.7,140.5 L563.5,140.5 L573.3,140.5 L583.1,139.8 L592.9,143.5 L602.7,143.5 L612.5,143.5 L622.3,147.1 L632.1,147.1 L641.9,147.1 L651.6,147.1 L661.4,147.1 L671.2,147.1 L681.0,147.1 L690.8,147.1 L700.6,147.1 L710.4,147.1 L720.2,147.1 L730.0,147.1" fill="none" stroke="#199e70" stroke-width="2" stroke-linejoin="round" stroke-linecap="round"/>
<circle cx="730.0" cy="147.1" r="6" fill="#1a1a19"/>
<circle cx="730.0" cy="147.1" r="4" fill="#199e70"/>
<path d="M64.0,83.1 L73.8,83.1 L83.6,82.4 L93.4,82.4 L103.2,95.7 L113.0,110.0 L122.8,109.9 L132.6,106.6 L142.4,106.9 L152.1,107.2 L161.9,107.2 L171.7,107.0 L181.5,107.1 L191.3,107.1 L201.1,107.1 L210.9,107.1" fill="none" stroke="#c98500" stroke-width="2" stroke-linejoin="round" stroke-linecap="round"/>
<path d="M230.5,107.2 L240.3,125.6 L250.1,125.6 L259.9,127.5 L269.7,127.3 L279.5,127.3 L289.3,127.3 L299.1,127.3 L308.9,127.3 L318.6,127.5 L328.4,126.6 L338.2,126.3 L348.0,126.3 L357.8,126.3 L367.6,126.3 L377.4,126.9 L387.2,126.9 L397.0,126.8 L406.8,130.5 L416.6,130.5 L426.4,130.3 L436.2,130.3 L446.0,130.4 L455.8,130.4 L465.6,130.4 L475.4,130.4 L485.1,130.4 L494.9,130.4 L504.7,130.4 L514.5,130.4 L524.3,130.4 L534.1,130.4 L543.9,130.4 L553.7,131.3 L563.5,131.4 L573.3,131.4 L583.1,130.7 L592.9,133.9 L602.7,133.9 L612.5,133.9 L622.3,137.8 L632.1,137.8 L641.9,137.8 L651.6,137.8 L661.4,137.8 L671.2,137.8 L681.0,137.8 L690.8,137.8 L700.6,137.8 L710.4,137.8 L720.2,137.8 L730.0,137.8" fill="none" stroke="#c98500" stroke-width="2" stroke-linejoin="round" stroke-linecap="round"/>
<circle cx="730.0" cy="137.8" r="6" fill="#1a1a19"/>
<circle cx="730.0" cy="137.8" r="4" fill="#c98500"/>
<path d="M64.0,56.6 L73.8,56.6 L83.6,56.0 L93.4,56.0 L103.2,65.0 L113.0,82.2 L122.8,82.1 L132.6,78.6 L142.4,78.8 L152.1,79.3 L161.9,79.3 L171.7,79.2 L181.5,79.1 L191.3,79.2 L201.1,79.2 L210.9,79.2" fill="none" stroke="#008300" stroke-width="2" stroke-linejoin="round" stroke-linecap="round"/>
<path d="M230.5,79.2 L240.3,97.8 L250.1,97.8 L259.9,99.5 L269.7,99.2 L279.5,99.2 L289.3,99.2 L299.1,99.2 L308.9,99.2 L318.6,99.4 L328.4,98.8 L338.2,98.6 L348.0,98.6 L357.8,98.6 L367.6,98.6 L377.4,98.9 L387.2,98.9 L397.0,98.9 L406.8,102.4 L416.6,102.4 L426.4,102.3 L436.2,102.3 L446.0,102.4 L455.8,102.4 L465.6,102.4 L475.4,102.4 L485.1,102.4 L494.9,102.4 L504.7,102.4 L514.5,102.4 L524.3,102.4 L534.1,102.4 L543.9,102.4 L553.7,103.3 L563.5,103.3 L573.3,103.3 L583.1,102.7 L592.9,106.1 L602.7,106.1 L612.5,106.1 L622.3,109.4 L632.1,109.4 L641.9,109.4 L651.6,109.4 L661.4,109.4 L671.2,109.4 L681.0,109.4 L690.8,109.4 L700.6,109.4 L710.4,109.4 L720.2,109.4 L730.0,109.4" fill="none" stroke="#008300" stroke-width="2" stroke-linejoin="round" stroke-linecap="round"/>
<circle cx="730.0" cy="109.4" r="6" fill="#1a1a19"/>
<circle cx="730.0" cy="109.4" r="4" fill="#008300"/>
<path d="M64.0,222.5 L73.8,222.4 L83.6,222.5 L93.4,222.5 L103.2,229.0 L113.0,236.2 L122.8,236.1 L132.6,234.3 L142.4,234.3 L152.1,234.5 L161.9,234.5 L171.7,234.7 L181.5,234.7 L191.3,234.6 L201.1,234.6 L210.9,234.6" fill="none" stroke="#9085e9" stroke-width="2" stroke-linejoin="round" stroke-linecap="round"/>
<path d="M230.5,234.6 L240.3,240.3 L250.1,240.3 L259.9,240.1 L269.7,239.7 L279.5,239.7 L289.3,239.7 L299.1,239.7 L308.9,239.7 L318.6,239.6 L328.4,239.1 L338.2,239.1 L348.0,239.1 L357.8,239.1 L367.6,239.1 L377.4,239.2 L387.2,239.2 L397.0,239.2 L406.8,239.1 L416.6,239.1 L426.4,239.0 L436.2,239.0 L446.0,239.1 L455.8,239.1 L465.6,239.1 L475.4,239.1 L485.1,239.1 L494.9,239.1 L504.7,239.1 L514.5,239.1 L524.3,239.1 L534.1,239.1 L543.9,239.0 L553.7,239.5 L563.5,239.6 L573.3,239.6 L583.1,239.4 L592.9,241.0 L602.7,241.1 L612.5,241.1 L622.3,244.4 L632.1,244.4 L641.9,244.4 L651.6,244.4 L661.4,244.4 L671.2,244.4 L681.0,244.4 L690.8,244.4 L700.6,244.4 L710.4,244.4 L720.2,244.4 L730.0,244.4" fill="none" stroke="#9085e9" stroke-width="2" stroke-linejoin="round" stroke-linecap="round"/>
<circle cx="730.0" cy="244.4" r="6" fill="#1a1a19"/>
<circle cx="730.0" cy="244.4" r="4" fill="#9085e9"/>
<circle cx="745.0" cy="105.9" r="3.5" fill="#008300"/>
<text x="753.0" y="109.4" font-family='system-ui, -apple-system, "Segoe UI", sans-serif' font-size="11" fill="#ffffff">reverb</text>
<text x="753.0" y="121.4" font-family='system-ui, -apple-system, "Segoe UI", sans-serif' font-size="10" style="font-variant-numeric: tabular-nums" fill="#c3c2b7">50.5M</text>
<circle cx="745.0" cy="133.9" r="3.5" fill="#3987e5"/>
<text x="753.0" y="137.4" font-family='system-ui, -apple-system, "Segoe UI", sans-serif' font-size="11" fill="#ffffff">auto-filter</text>
<text x="753.0" y="149.4" font-family='system-ui, -apple-system, "Segoe UI", sans-serif' font-size="10" style="font-variant-numeric: tabular-nums" fill="#c3c2b7">43.9M</text>
<line x1="736.0" y1="137.8" x2="740.0" y2="165.4" stroke="#383835" stroke-width="1"/>
<circle cx="745.0" cy="161.9" r="3.5" fill="#c98500"/>
<text x="753.0" y="165.4" font-family='system-ui, -apple-system, "Segoe UI", sans-serif' font-size="11" fill="#ffffff">echo</text>
<text x="753.0" y="177.4" font-family='system-ui, -apple-system, "Segoe UI", sans-serif' font-size="10" style="font-variant-numeric: tabular-nums" fill="#c3c2b7">43.2M</text>
<line x1="736.0" y1="147.1" x2="740.0" y2="193.4" stroke="#383835" stroke-width="1"/>
<circle cx="745.0" cy="189.9" r="3.5" fill="#199e70"/>
<text x="753.0" y="193.4" font-family='system-ui, -apple-system, "Segoe UI", sans-serif' font-size="11" fill="#ffffff">autotune</text>
<text x="753.0" y="205.4" font-family='system-ui, -apple-system, "Segoe UI", sans-serif' font-size="10" style="font-variant-numeric: tabular-nums" fill="#c3c2b7">40.9M</text>
<circle cx="745.0" cy="240.9" r="3.5" fill="#9085e9"/>
<text x="753.0" y="244.4" font-family='system-ui, -apple-system, "Segoe UI", sans-serif' font-size="11" fill="#ffffff">sampler-arp</text>
<text x="753.0" y="256.4" font-family='system-ui, -apple-system, "Segoe UI", sans-serif' font-size="10" style="font-variant-numeric: tabular-nums" fill="#c3c2b7">15.8M</text>
</svg>