<svg xmlns="http://www.w3.org/2000/svg" width="880" height="340" viewBox="0 0 880 340" role="img" aria-label="Whole-instrument render cost">
<rect width="880" height="340" rx="6" fill="#fcfcfb"/>
<text x="64" y="24" font-family='system-ui, -apple-system, "Segoe UI", sans-serif' font-size="14" font-weight="600" fill="#0b0b0b">Whole-instrument render cost</text>
<text x="64" y="41" font-family='system-ui, -apple-system, "Segoe UI", sans-serif' font-size="11" fill="#52514e">render_block of 1 s of audio - callgrind instructions (Ir), per main commit, 2026-06-28 to 2026-07-11</text>
<line x1="64" y1="306.0" x2="730" y2="306.0" stroke="#e1e0d9" stroke-width="1"/>
<text x="56" y="309.5" text-anchor="end" font-family='system-ui, -apple-system, "Segoe UI", sans-serif' font-size="11" style="font-variant-numeric: tabular-nums" fill="#898781">0</text>
<line x1="64" y1="228.2" x2="730" y2="228.2" stroke="#e1e0d9" stroke-width="1"/>
<text x="56" y="231.7" text-anchor="end" font-family='system-ui, -apple-system, "Segoe UI", sans-serif' font-size="11" style="font-variant-numeric: tabular-nums" fill="#898781">20</text>
<line x1="64" y1="150.4" x2="730" y2="150.4" stroke="#e1e0d9" stroke-width="1"/>
<text x="56" y="153.9" text-anchor="end" font-family='system-ui, -apple-system, "Segoe UI", sans-serif' font-size="11" style="font-variant-numeric: tabular-nums" fill="#898781">40</text>
<line x1="64" y1="72.6" x2="730" y2="72.6" stroke="#e1e0d9" stroke-width="1"/>
<text x="56" y="76.1" text-anchor="end" font-family='system-ui, -apple-system, "Segoe UI", sans-serif' font-size="11" style="font-variant-numeric: tabular-nums" fill="#898781">60</text>
<text x="56" y="46" text-anchor="end" font-family='system-ui, -apple-system, "Segoe UI", sans-serif' font-size="10" fill="#898781">Ir (M)</text>
<line x1="64" y1="306" x2="730" y2="306" stroke="#c3c2b7" stroke-width="1"/>
<text x="64.0" y="322" text-anchor="middle" font-family='system-ui, -apple-system, "Segoe UI", sans-serif' font-size="11" style="font-variant-numeric: tabular-nums" fill="#898781">06-28</text>
<text x="124.5" y="322" text-anchor="middle" font-family='system-ui, -apple-system, "Segoe UI", sans-serif' font-size="11" style="font-variant-numeric: tabular-nums" fill="#898781">06-30</text>
<text x="175.0" y="322" text-anchor="middle" font-family='system-ui, -apple-system, "Segoe UI", sans-serif' font-size="11" style="font-variant-numeric: tabular-nums" fill="#898781">07-02</text>
<text x="286.0" y="322" text-anchor="middle" font-family='system-ui, -apple-system, "Segoe UI", sans-serif' font-size="11" style="font-variant-numeric: tabular-nums" fill="#898781">07-04</text>
<text x="447.5" y="322" text-anchor="middle" font-family='system-ui, -apple-system, "Segoe UI", sans-serif' font-size="11" style="font-variant-numeric: tabular-nums" fill="#898781">07-07</text>
<text x="548.4" y="322" text-anchor="middle" font-family='system-ui, -apple-system, "Segoe UI", sans-serif' font-size="11" style="font-variant-numeric: tabular-nums" fill="#898781">07-09</text>
<text x="629.1" y="322" text-anchor="middle" font-family='system-ui, -apple-system, "Segoe UI", sans-serif' font-size="11" style="font-variant-numeric: tabular-nums" fill="#898781">07-11</text>
<path d="M64.0,72.9 L74.1,73.0 L84.2,80.1 L94.3,80.1 L104.4,94.2 L114.5,108.6 L124.5,108.6 L134.6,105.1 L144.7,105.4 L154.8,105.7 L164.9,105.7 L175.0,105.6 L185.1,105.5 L195.2,105.5 L205.3,105.5 L215.4,105.5" fill="none" stroke="#2a78d6" stroke-width="2" stroke-linejoin="round" stroke-linecap="round"/>
<path d="M235.5,105.7 L245.6,122.6 L255.7,122.6 L265.8,125.2 L275.9,125.0 L286.0,125.0 L296.1,125.0 L306.2,125.0 L316.3,125.0 L326.4,125.0 L336.5,124.3 L346.5,124.3 L356.6,124.3 L366.7,124.3 L376.8,124.3 L386.9,124.5 L397.0,124.5 L407.1,124.5 L417.2,127.9 L427.3,127.9 L437.4,127.9 L447.5,127.9 L457.5,127.9 L467.6,127.9 L477.7,127.9 L487.8,127.9 L497.9,127.9 L508.0,127.9 L518.1,127.9 L528.2,127.9 L538.3,127.9 L548.4,127.9 L558.5,127.9 L568.5,128.8 L578.6,128.8 L588.7,128.8 L598.8,128.2 L608.9,132.1 L619.0,132.1 L629.1,131.7 L639.2,135.3 L649.3,135.3 L659.4,135.3 L669.5,135.3 L679.5,135.3 L689.6,135.3 L699.7,135.3 L709.8,135.3 L719.9,135.3 L730.0,135.3" fill="none" stroke="#2a78d6" stroke-width="2" stroke-linejoin="round" stroke-linecap="round"/>
<circle cx="730.0" cy="135.3" r="6" fill="#fcfcfb"/>
<circle cx="730.0" cy="135.3" r="4" fill="#2a78d6"/>
<path d="M64.0,98.8 L74.1,98.9 L84.2,98.2 L94.3,98.2 L104.4,107.4 L114.5,120.8 L124.5,120.7 L134.6,117.1 L144.7,117.4 L154.8,117.8 L164.9,117.7 L175.0,117.7 L185.1,117.5 L195.2,117.7 L205.3,117.7 L215.4,117.7" fill="none" stroke="#1baf7a" stroke-width="2" stroke-linejoin="round" stroke-linecap="round"/>
<path d="M235.5,117.8 L245.6,134.9 L255.7,134.9 L265.8,136.9 L275.9,136.6 L286.0,136.6 L296.1,136.6 L306.2,136.6 L316.3,136.6 L326.4,136.6 L336.5,135.8 L346.5,135.8 L356.6,135.8 L366.7,135.8 L376.8,135.8 L386.9,136.0 L397.0,136.0 L407.1,136.0 L417.2,139.7 L427.3,139.7 L437.4,139.6 L447.5,139.6 L457.5,139.6 L467.6,139.6 L477.7,139.6 L487.8,139.6 L497.9,139.6 L508.0,139.6 L518.1,139.6 L528.2,139.6 L538.3,139.6 L548.4,139.6 L558.5,139.6 L568.5,140.5 L578.6,140.5 L588.7,140.5 L598.8,139.8 L608.9,143.5 L619.0,143.5 L629.1,143.5 L639.2,147.1 L649.3,147.1 L659.4,147.1 L669.5,147.1 L679.5,147.1 L689.6,147.1 L699.7,147.1 L709.8,147.1 L719.9,147.1 L730.0,147.1" fill="none" stroke="#1baf7a" stroke-width="2" stroke-linejoin="round" stroke-linecap="round"/>
<circle cx="730.0" cy="147.1" r="6" fill="#fcfcfb"/>
<circle cx="730.0" cy="147.1" r="4" fill="#1baf7a"/>
<path d="M64.0,83.1 L74.1,83.1 L84.2,82.4 L94.3,82.4 L104.4,95.7 L114.5,110.0 L124.5,109.9 L134.6,106.6 L144.7,106.9 L154.8,107.2 L164.9,107.2 L175.0,107.0 L185.1,107.1 L195.2,107.1 L205.3,107.1 L215.4,107.1" fill="none" stroke="#eda100" stroke-width="2" stroke-linejoin="round" stroke-linecap="round"/>
<path d="M235.5,107.2 L245.6,125.6 L255.7,125.6 L265.8,127.5 L275.9,127.3 L286.0,127.3 L296.1,127.3 L306.2,127.3 L316.3,127.3 L326.4,127.5 L336.5,126.6 L346.5,126.3 L356.6,126.3 L366.7,126.3 L376.8,126.3 L386.9,126.9 L397.0,126.9 L407.1,126.8 L417.2,130.5 L427.3,130.5 L437.4,130.3 L447.5,130.3 L457.5,130.4 L467.6,130.4 L477.7,130.4 L487.8,130.4 L497.9,130.4 L508.0,130.4 L518.1,130.4 L528.2,130.4 L538.3,130.4 L548.4,130.4 L558.5,130.4 L568.5,131.3 L578.6,131.4 L588.7,131.4 L598.8,130.7 L608.9,133.9 L619.0,133.9 L629.1,133.9 L639.2,137.8 L649.3,137.8 L659.4,137.8 L669.5,137.8 L679.5,137.8 L689.6,137.8 L699.7,137.8 L709.8,137.8 L719.9,137.8 L730.0,137.8" fill="none" stroke="#eda100" stroke-width="2" stroke-linejoin="round" stroke-linecap="round"/>
<circle cx="730.0" cy="137.8" r="6" fill="#fcfcfb"/>
<circle cx="730.0" cy="137.8" r="4" fill="#eda100"/>
<path d="M64.0,56.6 L74.1,56.6 L84.2,56.0 L94.3,56.0 L104.4,65.0 L114.5,82.2 L124.5,82.1 L134.6,78.6 L144.7,78.8 L154.8,79.3 L164.9,79.3 L175.0,79.2 L185.1,79.1 L195.2,79.2 L205.3,79.2 L215.4,79.2" fill="none" stroke="#008300" stroke-width="2" stroke-linejoin="round" stroke-linecap="round"/>
<path d="M235.5,79.2 L245.6,97.8 L255.7,97.8 L265.8,99.5 L275.9,99.2 L286.0,99.2 L296.1,99.2 L306.2,99.2 L316.3,99.2 L326.4,99.4 L336.5,98.8 L346.5,98.6 L356.6,98.6 L366.7,98.6 L376.8,98.6 L386.9,98.9 L397.0,98.9 L407.1,98.9 L417.2,102.4 L427.3,102.4 L437.4,102.3 L447.5,102.3 L457.5,102.4 L467.6,102.4 L477.7,102.4 L487.8,102.4 L497.9,102.4 L508.0,102.4 L518.1,102.4 L528.2,102.4 L538.3,102.4 L548.4,102.4 L558.5,102.4 L568.5,103.3 L578.6,103.3 L588.7,103.3 L598.8,102.7 L608.9,106.1 L619.0,106.1 L629.1,106.1 L639.2,109.4 L649.3,109.4 L659.4,109.4 L669.5,109.4 L679.5,109.4 L689.6,109.4 L699.7,109.4 L709.8,109.4 L719.9,109.4 L730.0,109.4" fill="none" stroke="#008300" stroke-width="2" stroke-linejoin="round" stroke-linecap="round"/>
<circle cx="730.0" cy="109.4" r="6" fill="#fcfcfb"/>
<circle cx="730.0" cy="109.4" r="4" fill="#008300"/>
<path d="M64.0,222.5 L74.1,222.4 L84.2,222.5 L94.3,222.5 L104.4,229.0 L114.5,236.2 L124.5,236.1 L134.6,234.3 L144.7,234.3 L154.8,234.5 L164.9,234.5 L175.0,234.7 L185.1,234.7 L195.2,234.6 L205.3,234.6 L215.4,234.6" fill="none" stroke="#4a3aa7" stroke-width="2" stroke-linejoin="round" stroke-linecap="round"/>
<path d="M235.5,234.6 L245.6,240.3 L255.7,240.3 L265.8,240.1 L275.9,239.7 L286.0,239.7 L296.1,239.7 L306.2,239.7 L316.3,239.7 L326.4,239.6 L336.5,239.1 L346.5,239.1 L356.6,239.1 L366.7,239.1 L376.8,239.1 L386.9,239.2 L397.0,239.2 L407.1,239.2 L417.2,239.1 L427.3,239.1 L437.4,239.0 L447.5,239.0 L457.5,239.1 L467.6,239.1 L477.7,239.1 L487.8,239.1 L497.9,239.1 L508.0,239.1 L518.1,239.1 L528.2,239.1 L538.3,239.1 L548.4,239.1 L558.5,239.0 L568.5,239.5 L578.6,239.6 L588.7,239.6 L598.8,239.4 L608.9,241.0 L619.0,241.1 L629.1,241.1 L639.2,244.4 L649.3,244.4 L659.4,244.4 L669.5,244.4 L679.5,244.4 L689.6,244.4 L699.7,244.4 L709.8,244.4 L719.9,244.4 L730.0,244.4" fill="none" stroke="#4a3aa7" stroke-width="2" stroke-linejoin="round" stroke-linecap="round"/>
<circle cx="730.0" cy="244.4" r="6" fill="#fcfcfb"/>
<circle cx="730.0" cy="244.4" r="4" fill="#4a3aa7"/>
<circle cx="745.0" cy="105.9" r="3.5" fill="#008300"/>
<text x="753.0" y="109.4" font-family='system-ui, -apple-system, "Segoe UI", sans-serif' font-size="11" fill="#0b0b0b">reverb</text>
<text x="753.0" y="121.4" font-family='system-ui, -apple-system, "Segoe UI", sans-serif' font-size="10" style="font-variant-numeric: tabular-nums" fill="#52514e">50.5M</text>
<circle cx="745.0" cy="133.9" r="3.5" fill="#2a78d6"/>
<text x="753.0" y="137.4" font-family='system-ui, -apple-system, "Segoe UI", sans-serif' font-size="11" fill="#0b0b0b">auto-filter</text>
<text x="753.0" y="149.4" font-family='system-ui, -apple-system, "Segoe UI", sans-serif' font-size="10" style="font-variant-numeric: tabular-nums" fill="#52514e">43.9M</text>
<line x1="736.0" y1="137.8" x2="740.0" y2="165.4" stroke="#c3c2b7" stroke-width="1"/>
<circle cx="745.0" cy="161.9" r="3.5" fill="#eda100"/>
<text x="753.0" y="165.4" font-family='system-ui, -apple-system, "Segoe UI", sans-serif' font-size="11" fill="#0b0b0b">echo</text>
<text x="753.0" y="177.4" font-family='system-ui, -apple-system, "Segoe UI", sans-serif' font-size="10" style="font-variant-numeric: tabular-nums" fill="#52514e">43.2M</text>
<line x1="736.0" y1="147.1" x2="740.0" y2="193.4" stroke="#c3c2b7" stroke-width="1"/>
<circle cx="745.0" cy="189.9" r="3.5" fill="#1baf7a"/>
<text x="753.0" y="193.4" font-family='system-ui, -apple-system, "Segoe UI", sans-serif' font-size="11" fill="#0b0b0b">autotune</text>
<text x="753.0" y="205.4" font-family='system-ui, -apple-system, "Segoe UI", sans-serif' font-size="10" style="font-variant-numeric: tabular-nums" fill="#52514e">40.9M</text>
<circle cx="745.0" cy="240.9" r="3.5" fill="#4a3aa7"/>
<text x="753.0" y="244.4" font-family='system-ui, -apple-system, "Segoe UI", sans-serif' font-size="11" fill="#0b0b0b">sampler-arp</text>
<text x="753.0" y="256.4" font-family='system-ui, -apple-system, "Segoe UI", sans-serif' font-size="10" style="font-variant-numeric: tabular-nums" fill="#52514e">15.8M</text>
</svg>