<svg xmlns="http://www.w3.org/2000/svg" width="880" height="340" viewBox="0 0 880 340" role="img" aria-label="Whole-instrument render cost">
<rect width="880" height="340" rx="6" fill="#fcfcfb"/>
<text x="64" y="24" font-family='system-ui, -apple-system, "Segoe UI", sans-serif' font-size="14" font-weight="600" fill="#0b0b0b">Whole-instrument render cost</text>
<text x="64" y="41" font-family='system-ui, -apple-system, "Segoe UI", sans-serif' font-size="11" fill="#52514e">render_block of 1 s of audio - callgrind instructions (Ir), per dev commit, 2026-07-12 to 2026-07-22</text>
<line x1="64" y1="306.0" x2="730" y2="306.0" stroke="#e1e0d9" stroke-width="1"/>
<text x="56" y="309.5" text-anchor="end" font-family='system-ui, -apple-system, "Segoe UI", sans-serif' font-size="11" style="font-variant-numeric: tabular-nums" fill="#898781">0</text>
<line x1="64" y1="207.1" x2="730" y2="207.1" stroke="#e1e0d9" stroke-width="1"/>
<text x="56" y="210.6" text-anchor="end" font-family='system-ui, -apple-system, "Segoe UI", sans-serif' font-size="11" style="font-variant-numeric: tabular-nums" fill="#898781">20</text>
<line x1="64" y1="108.2" x2="730" y2="108.2" stroke="#e1e0d9" stroke-width="1"/>
<text x="56" y="111.7" text-anchor="end" font-family='system-ui, -apple-system, "Segoe UI", sans-serif' font-size="11" style="font-variant-numeric: tabular-nums" fill="#898781">40</text>
<text x="56" y="46" text-anchor="end" font-family='system-ui, -apple-system, "Segoe UI", sans-serif' font-size="10" fill="#898781">Ir (M)</text>
<line x1="64" y1="306" x2="730" y2="306" stroke="#c3c2b7" stroke-width="1"/>
<text x="64.0" y="322" text-anchor="middle" font-family='system-ui, -apple-system, "Segoe UI", sans-serif' font-size="11" style="font-variant-numeric: tabular-nums" fill="#898781">07-12</text>
<text x="145.8" y="322" text-anchor="middle" font-family='system-ui, -apple-system, "Segoe UI", sans-serif' font-size="11" style="font-variant-numeric: tabular-nums" fill="#898781">07-14</text>
<text x="250.9" y="322" text-anchor="middle" font-family='system-ui, -apple-system, "Segoe UI", sans-serif' font-size="11" style="font-variant-numeric: tabular-nums" fill="#898781">07-17</text>
<text x="391.2" y="322" text-anchor="middle" font-family='system-ui, -apple-system, "Segoe UI", sans-serif' font-size="11" style="font-variant-numeric: tabular-nums" fill="#898781">07-19</text>
<text x="601.5" y="322" text-anchor="middle" font-family='system-ui, -apple-system, "Segoe UI", sans-serif' font-size="11" style="font-variant-numeric: tabular-nums" fill="#898781">07-21</text>
<path d="M64.0,88.9 L75.7,88.9 L87.4,88.9 L99.1,88.9 L110.7,88.9 L122.4,88.9 L134.1,88.9 L145.8,88.9 L157.5,88.9 L169.2,88.9 L180.8,88.9 L192.5,88.9 L204.2,88.9 L215.9,88.9 L227.6,88.9 L239.3,88.9 L250.9,88.9 L262.6,88.9 L274.3,88.9 L286.0,88.9 L297.7,88.9 L309.4,88.9 L321.1,88.9 L332.7,88.9 L344.4,88.9 L356.1,88.9 L367.8,88.9 L379.5,88.9 L391.2,89.0 L402.8,89.0 L414.5,89.0 L426.2,89.0 L437.9,89.0 L449.6,89.3 L461.3,89.3 L472.9,89.3 L484.6,89.3 L496.3,89.3 L508.0,89.3 L519.7,89.2 L531.4,89.2 L543.1,89.3 L554.7,89.3 L566.4,89.3 L578.1,89.3 L589.8,89.3 L601.5,89.3 L613.2,89.3 L624.8,89.3 L636.5,89.3 L648.2,120.2 L659.9,120.2 L671.6,120.2 L683.3,120.2 L694.9,120.2 L706.6,120.1 L718.3,120.1 L730.0,120.1" fill="none" stroke="#2a78d6" stroke-width="2" stroke-linejoin="round" stroke-linecap="round"/>
<circle cx="730.0" cy="120.1" r="6" fill="#fcfcfb"/>
<circle cx="730.0" cy="120.1" r="4" fill="#2a78d6"/>
<path d="M64.0,103.9 L75.7,103.9 L87.4,103.9 L99.1,103.9 L110.7,103.9 L122.4,103.9 L134.1,103.8 L145.8,103.8 L157.5,103.8 L169.2,103.8 L180.8,103.8 L192.5,103.8 L204.2,103.8 L215.9,103.8 L227.6,103.9 L239.3,103.9 L250.9,103.9 L262.6,103.9 L274.3,103.9 L286.0,103.9 L297.7,103.9 L309.4,103.9 L321.1,103.9 L332.7,103.9 L344.4,103.9 L356.1,103.9 L367.8,103.9 L379.5,103.9 L391.2,103.9 L402.8,103.9 L414.5,103.9 L426.2,103.9 L437.9,103.9 L449.6,104.2 L461.3,104.2 L472.9,104.2 L484.6,104.2 L496.3,104.1 L508.0,104.1 L519.7,104.2 L531.4,104.2 L543.1,104.2 L554.7,104.2 L566.4,104.2 L578.1,104.2 L589.8,104.2 L601.5,104.2 L613.2,104.2 L624.8,104.2 L636.5,104.2 L648.2,131.8 L659.9,131.8 L671.6,131.8 L683.3,131.8 L694.9,131.8 L706.6,131.8 L718.3,132.0 L730.0,132.0" fill="none" stroke="#1baf7a" stroke-width="2" stroke-linejoin="round" stroke-linecap="round"/>
<circle cx="730.0" cy="132.0" r="6" fill="#fcfcfb"/>
<circle cx="730.0" cy="132.0" r="4" fill="#1baf7a"/>
<path d="M64.0,92.1 L75.7,92.1 L87.4,92.1 L99.1,92.1 L110.7,92.1 L122.4,92.1 L134.1,92.1 L145.8,92.1 L157.5,92.1 L169.2,92.1 L180.8,92.1 L192.5,92.1 L204.2,92.1 L215.9,92.1 L227.6,92.1 L239.3,92.1 L250.9,92.1 L262.6,92.1 L274.3,92.1 L286.0,92.1 L297.7,92.1 L309.4,92.1 L321.1,92.1 L332.7,92.1 L344.4,92.1 L356.1,92.1 L367.8,92.1 L379.5,92.1 L391.2,92.1 L402.8,92.1 L414.5,92.1 L426.2,92.1 L437.9,92.1 L449.6,92.4 L461.3,92.4 L472.9,92.4 L484.6,92.4 L496.3,92.4 L508.0,92.4 L519.7,92.3 L531.4,92.3 L543.1,92.4 L554.7,92.4 L566.4,92.4 L578.1,92.4 L589.8,92.4 L601.5,92.4 L613.2,92.4 L624.8,92.4 L636.5,92.4 L648.2,120.0 L659.9,119.9 L671.6,119.9 L683.3,119.9 L694.9,119.9 L706.6,120.0 L718.3,120.0 L730.0,120.0" fill="none" stroke="#eda100" stroke-width="2" stroke-linejoin="round" stroke-linecap="round"/>
<circle cx="730.0" cy="120.0" r="6" fill="#fcfcfb"/>
<circle cx="730.0" cy="120.0" r="4" fill="#eda100"/>
<path d="M64.0,56.0 L75.7,56.0 L87.4,56.0 L99.1,56.0 L110.7,56.0 L122.4,56.0 L134.1,56.0 L145.8,56.0 L157.5,56.0 L169.2,56.0 L180.8,56.0 L192.5,56.0 L204.2,56.0 L215.9,56.0 L227.6,56.0 L239.3,56.0 L250.9,56.0 L262.6,56.0 L274.3,56.0 L286.0,56.0 L297.7,56.0 L309.4,56.0 L321.1,56.0 L332.7,56.0 L344.4,56.0 L356.1,56.0 L367.8,56.0 L379.5,56.0 L391.2,56.0 L402.8,56.0 L414.5,56.0 L426.2,56.0 L437.9,56.0 L449.6,56.3 L461.3,56.3 L472.9,56.3 L484.6,56.3 L496.3,56.3 L508.0,56.3 L519.7,56.2 L531.4,56.2 L543.1,56.3 L554.7,56.3 L566.4,56.3 L578.1,56.3 L589.8,56.3 L601.5,56.3 L613.2,56.3 L624.8,56.3 L636.5,56.3 L648.2,83.9 L659.9,83.9 L671.6,83.9 L683.3,83.9 L694.9,83.9 L706.6,83.9 L718.3,83.8 L730.0,83.8" fill="none" stroke="#008300" stroke-width="2" stroke-linejoin="round" stroke-linecap="round"/>
<circle cx="730.0" cy="83.8" r="6" fill="#fcfcfb"/>
<circle cx="730.0" cy="83.8" r="4" fill="#008300"/>
<path d="M64.0,227.6 L75.7,227.6 L87.4,227.6 L99.1,227.6 L110.7,227.6 L122.4,227.6 L134.1,227.6 L145.8,227.6 L157.5,227.6 L169.2,227.6 L180.8,227.6 L192.5,227.6 L204.2,227.6 L215.9,227.6 L227.6,227.6 L239.3,227.6 L250.9,227.6 L262.6,227.6 L274.3,227.6 L286.0,227.6 L297.7,227.6 L309.4,227.6 L321.1,227.6 L332.7,227.6 L344.4,227.6 L356.1,227.6 L367.8,227.6 L379.5,227.6 L391.2,227.6 L402.8,227.6 L414.5,227.6 L426.2,227.6 L437.9,227.6 L449.6,227.8 L461.3,227.8 L472.9,227.8 L484.6,227.8 L496.3,227.7 L508.0,227.7 L519.7,227.8 L531.4,227.8 L543.1,227.7 L554.7,227.7 L566.4,227.7 L578.1,227.7 L589.8,227.7 L601.5,227.7 L613.2,227.7 L624.8,227.7 L636.5,227.7 L648.2,227.7 L659.9,227.7 L671.6,227.7 L683.3,227.7 L694.9,227.7 L706.6,227.7 L718.3,227.8 L730.0,227.8" fill="none" stroke="#4a3aa7" stroke-width="2" stroke-linejoin="round" stroke-linecap="round"/>
<circle cx="730.0" cy="227.8" r="6" fill="#fcfcfb"/>
<circle cx="730.0" cy="227.8" r="4" fill="#4a3aa7"/>
<circle cx="745.0" cy="80.3" r="3.5" fill="#008300"/>
<text x="753.0" y="83.8" font-family='system-ui, -apple-system, "Segoe UI", sans-serif' font-size="11" fill="#0b0b0b">reverb</text>
<text x="753.0" y="95.8" font-family='system-ui, -apple-system, "Segoe UI", sans-serif' font-size="10" style="font-variant-numeric: tabular-nums" fill="#52514e">44.9M</text>
<circle cx="745.0" cy="116.5" r="3.5" fill="#eda100"/>
<text x="753.0" y="120.0" font-family='system-ui, -apple-system, "Segoe UI", sans-serif' font-size="11" fill="#0b0b0b">echo</text>
<text x="753.0" y="132.0" font-family='system-ui, -apple-system, "Segoe UI", sans-serif' font-size="10" style="font-variant-numeric: tabular-nums" fill="#52514e">37.6M</text>
<line x1="736.0" y1="120.1" x2="740.0" y2="148.0" stroke="#c3c2b7" stroke-width="1"/>
<circle cx="745.0" cy="144.5" r="3.5" fill="#2a78d6"/>
<text x="753.0" y="148.0" font-family='system-ui, -apple-system, "Segoe UI", sans-serif' font-size="11" fill="#0b0b0b">auto-filter</text>
<text x="753.0" y="160.0" font-family='system-ui, -apple-system, "Segoe UI", sans-serif' font-size="10" style="font-variant-numeric: tabular-nums" fill="#52514e">37.6M</text>
<line x1="736.0" y1="132.0" x2="740.0" y2="176.0" stroke="#c3c2b7" stroke-width="1"/>
<circle cx="745.0" cy="172.5" r="3.5" fill="#1baf7a"/>
<text x="753.0" y="176.0" font-family='system-ui, -apple-system, "Segoe UI", sans-serif' font-size="11" fill="#0b0b0b">autotune</text>
<text x="753.0" y="188.0" font-family='system-ui, -apple-system, "Segoe UI", sans-serif' font-size="10" style="font-variant-numeric: tabular-nums" fill="#52514e">35.2M</text>
<circle cx="745.0" cy="224.3" r="3.5" fill="#4a3aa7"/>
<text x="753.0" y="227.8" font-family='system-ui, -apple-system, "Segoe UI", sans-serif' font-size="11" fill="#0b0b0b">sampler-arp</text>
<text x="753.0" y="239.8" font-family='system-ui, -apple-system, "Segoe UI", sans-serif' font-size="10" style="font-variant-numeric: tabular-nums" fill="#52514e">15.8M</text>
</svg>