<svg xmlns="http://www.w3.org/2000/svg" width="880" height="340" viewBox="0 0 880 340" role="img" aria-label="Whole-instrument render cost">
<rect width="880" height="340" rx="6" fill="#fcfcfb"/>
<text x="64" y="24" font-family='system-ui, -apple-system, "Segoe UI", sans-serif' font-size="14" font-weight="600" fill="#0b0b0b">Whole-instrument render cost</text>
<text x="64" y="41" font-family='system-ui, -apple-system, "Segoe UI", sans-serif' font-size="11" fill="#52514e">render_block of 1 s of audio - callgrind instructions (Ir), per main commit, 2026-06-28 to 2026-07-11</text>
<line x1="64" y1="306.0" x2="730" y2="306.0" stroke="#e1e0d9" stroke-width="1"/>
<text x="56" y="309.5" text-anchor="end" font-family='system-ui, -apple-system, "Segoe UI", sans-serif' font-size="11" style="font-variant-numeric: tabular-nums" fill="#898781">0</text>
<line x1="64" y1="228.2" x2="730" y2="228.2" stroke="#e1e0d9" stroke-width="1"/>
<text x="56" y="231.7" text-anchor="end" font-family='system-ui, -apple-system, "Segoe UI", sans-serif' font-size="11" style="font-variant-numeric: tabular-nums" fill="#898781">20</text>
<line x1="64" y1="150.4" x2="730" y2="150.4" stroke="#e1e0d9" stroke-width="1"/>
<text x="56" y="153.9" text-anchor="end" font-family='system-ui, -apple-system, "Segoe UI", sans-serif' font-size="11" style="font-variant-numeric: tabular-nums" fill="#898781">40</text>
<line x1="64" y1="72.6" x2="730" y2="72.6" stroke="#e1e0d9" stroke-width="1"/>
<text x="56" y="76.1" text-anchor="end" font-family='system-ui, -apple-system, "Segoe UI", sans-serif' font-size="11" style="font-variant-numeric: tabular-nums" fill="#898781">60</text>
<text x="56" y="46" text-anchor="end" font-family='system-ui, -apple-system, "Segoe UI", sans-serif' font-size="10" fill="#898781">Ir (M)</text>
<line x1="64" y1="306" x2="730" y2="306" stroke="#c3c2b7" stroke-width="1"/>
<text x="64.0" y="322" text-anchor="middle" font-family='system-ui, -apple-system, "Segoe UI", sans-serif' font-size="11" style="font-variant-numeric: tabular-nums" fill="#898781">06-28</text>
<text x="128.5" y="322" text-anchor="middle" font-family='system-ui, -apple-system, "Segoe UI", sans-serif' font-size="11" style="font-variant-numeric: tabular-nums" fill="#898781">06-30</text>
<text x="182.2" y="322" text-anchor="middle" font-family='system-ui, -apple-system, "Segoe UI", sans-serif' font-size="11" style="font-variant-numeric: tabular-nums" fill="#898781">07-02</text>
<text x="300.3" y="322" text-anchor="middle" font-family='system-ui, -apple-system, "Segoe UI", sans-serif' font-size="11" style="font-variant-numeric: tabular-nums" fill="#898781">07-04</text>
<text x="472.2" y="322" text-anchor="middle" font-family='system-ui, -apple-system, "Segoe UI", sans-serif' font-size="11" style="font-variant-numeric: tabular-nums" fill="#898781">07-07</text>
<text x="579.6" y="322" text-anchor="middle" font-family='system-ui, -apple-system, "Segoe UI", sans-serif' font-size="11" style="font-variant-numeric: tabular-nums" fill="#898781">07-09</text>
<text x="665.5" y="322" text-anchor="middle" font-family='system-ui, -apple-system, "Segoe UI", sans-serif' font-size="11" style="font-variant-numeric: tabular-nums" fill="#898781">07-11</text>
<path d="M64.0,72.9 L74.7,73.0 L85.5,80.1 L96.2,80.1 L107.0,94.2 L117.7,108.6 L128.5,108.6 L139.2,105.1 L149.9,105.4 L160.7,105.7 L171.4,105.7 L182.2,105.6 L192.9,105.5 L203.6,105.5 L214.4,105.5 L225.1,105.5" fill="none" stroke="#2a78d6" stroke-width="2" stroke-linejoin="round" stroke-linecap="round"/>
<path d="M246.6,105.7 L257.4,122.6 L268.1,122.6 L278.8,125.2 L289.6,125.0 L300.3,125.0 L311.1,125.0 L321.8,125.0 L332.5,125.0 L343.3,125.0 L354.0,124.3 L364.8,124.3 L375.5,124.3 L386.3,124.3 L397.0,124.3 L407.7,124.5 L418.5,124.5 L429.2,124.5 L440.0,127.9 L450.7,127.9 L461.5,127.9 L472.2,127.9 L482.9,127.9 L493.7,127.9 L504.4,127.9 L515.2,127.9 L525.9,127.9 L536.6,127.9 L547.4,127.9 L558.1,127.9 L568.9,127.9 L579.6,127.9 L590.4,127.9 L601.1,128.8 L611.8,128.8 L622.6,128.8 L633.3,128.2 L644.1,132.1 L654.8,132.1 L665.5,131.7 L676.3,135.3 L687.0,135.3 L697.8,135.3 L708.5,135.3 L719.3,135.3 L730.0,135.3" fill="none" stroke="#2a78d6" stroke-width="2" stroke-linejoin="round" stroke-linecap="round"/>
<circle cx="730.0" cy="135.3" r="6" fill="#fcfcfb"/>
<circle cx="730.0" cy="135.3" r="4" fill="#2a78d6"/>
<path d="M64.0,98.8 L74.7,98.9 L85.5,98.2 L96.2,98.2 L107.0,107.4 L117.7,120.8 L128.5,120.7 L139.2,117.1 L149.9,117.4 L160.7,117.8 L171.4,117.7 L182.2,117.7 L192.9,117.5 L203.6,117.7 L214.4,117.7 L225.1,117.7" fill="none" stroke="#1baf7a" stroke-width="2" stroke-linejoin="round" stroke-linecap="round"/>
<path d="M246.6,117.8 L257.4,134.9 L268.1,134.9 L278.8,136.9 L289.6,136.6 L300.3,136.6 L311.1,136.6 L321.8,136.6 L332.5,136.6 L343.3,136.6 L354.0,135.8 L364.8,135.8 L375.5,135.8 L386.3,135.8 L397.0,135.8 L407.7,136.0 L418.5,136.0 L429.2,136.0 L440.0,139.7 L450.7,139.7 L461.5,139.6 L472.2,139.6 L482.9,139.6 L493.7,139.6 L504.4,139.6 L515.2,139.6 L525.9,139.6 L536.6,139.6 L547.4,139.6 L558.1,139.6 L568.9,139.6 L579.6,139.6 L590.4,139.6 L601.1,140.5 L611.8,140.5 L622.6,140.5 L633.3,139.8 L644.1,143.5 L654.8,143.5 L665.5,143.5 L676.3,147.1 L687.0,147.1 L697.8,147.1 L708.5,147.1 L719.3,147.1 L730.0,147.1" fill="none" stroke="#1baf7a" stroke-width="2" stroke-linejoin="round" stroke-linecap="round"/>
<circle cx="730.0" cy="147.1" r="6" fill="#fcfcfb"/>
<circle cx="730.0" cy="147.1" r="4" fill="#1baf7a"/>
<path d="M64.0,83.1 L74.7,83.1 L85.5,82.4 L96.2,82.4 L107.0,95.7 L117.7,110.0 L128.5,109.9 L139.2,106.6 L149.9,106.9 L160.7,107.2 L171.4,107.2 L182.2,107.0 L192.9,107.1 L203.6,107.1 L214.4,107.1 L225.1,107.1" fill="none" stroke="#eda100" stroke-width="2" stroke-linejoin="round" stroke-linecap="round"/>
<path d="M246.6,107.2 L257.4,125.6 L268.1,125.6 L278.8,127.5 L289.6,127.3 L300.3,127.3 L311.1,127.3 L321.8,127.3 L332.5,127.3 L343.3,127.5 L354.0,126.6 L364.8,126.3 L375.5,126.3 L386.3,126.3 L397.0,126.3 L407.7,126.9 L418.5,126.9 L429.2,126.8 L440.0,130.5 L450.7,130.5 L461.5,130.3 L472.2,130.3 L482.9,130.4 L493.7,130.4 L504.4,130.4 L515.2,130.4 L525.9,130.4 L536.6,130.4 L547.4,130.4 L558.1,130.4 L568.9,130.4 L579.6,130.4 L590.4,130.4 L601.1,131.3 L611.8,131.4 L622.6,131.4 L633.3,130.7 L644.1,133.9 L654.8,133.9 L665.5,133.9 L676.3,137.8 L687.0,137.8 L697.8,137.8 L708.5,137.8 L719.3,137.8 L730.0,137.8" fill="none" stroke="#eda100" stroke-width="2" stroke-linejoin="round" stroke-linecap="round"/>
<circle cx="730.0" cy="137.8" r="6" fill="#fcfcfb"/>
<circle cx="730.0" cy="137.8" r="4" fill="#eda100"/>
<path d="M64.0,56.6 L74.7,56.6 L85.5,56.0 L96.2,56.0 L107.0,65.0 L117.7,82.2 L128.5,82.1 L139.2,78.6 L149.9,78.8 L160.7,79.3 L171.4,79.3 L182.2,79.2 L192.9,79.1 L203.6,79.2 L214.4,79.2 L225.1,79.2" fill="none" stroke="#008300" stroke-width="2" stroke-linejoin="round" stroke-linecap="round"/>
<path d="M246.6,79.2 L257.4,97.8 L268.1,97.8 L278.8,99.5 L289.6,99.2 L300.3,99.2 L311.1,99.2 L321.8,99.2 L332.5,99.2 L343.3,99.4 L354.0,98.8 L364.8,98.6 L375.5,98.6 L386.3,98.6 L397.0,98.6 L407.7,98.9 L418.5,98.9 L429.2,98.9 L440.0,102.4 L450.7,102.4 L461.5,102.3 L472.2,102.3 L482.9,102.4 L493.7,102.4 L504.4,102.4 L515.2,102.4 L525.9,102.4 L536.6,102.4 L547.4,102.4 L558.1,102.4 L568.9,102.4 L579.6,102.4 L590.4,102.4 L601.1,103.3 L611.8,103.3 L622.6,103.3 L633.3,102.7 L644.1,106.1 L654.8,106.1 L665.5,106.1 L676.3,109.4 L687.0,109.4 L697.8,109.4 L708.5,109.4 L719.3,109.4 L730.0,109.4" fill="none" stroke="#008300" stroke-width="2" stroke-linejoin="round" stroke-linecap="round"/>
<circle cx="730.0" cy="109.4" r="6" fill="#fcfcfb"/>
<circle cx="730.0" cy="109.4" r="4" fill="#008300"/>
<path d="M64.0,222.5 L74.7,222.4 L85.5,222.5 L96.2,222.5 L107.0,229.0 L117.7,236.2 L128.5,236.1 L139.2,234.3 L149.9,234.3 L160.7,234.5 L171.4,234.5 L182.2,234.7 L192.9,234.7 L203.6,234.6 L214.4,234.6 L225.1,234.6" fill="none" stroke="#4a3aa7" stroke-width="2" stroke-linejoin="round" stroke-linecap="round"/>
<path d="M246.6,234.6 L257.4,240.3 L268.1,240.3 L278.8,240.1 L289.6,239.7 L300.3,239.7 L311.1,239.7 L321.8,239.7 L332.5,239.7 L343.3,239.6 L354.0,239.1 L364.8,239.1 L375.5,239.1 L386.3,239.1 L397.0,239.1 L407.7,239.2 L418.5,239.2 L429.2,239.2 L440.0,239.1 L450.7,239.1 L461.5,239.0 L472.2,239.0 L482.9,239.1 L493.7,239.1 L504.4,239.1 L515.2,239.1 L525.9,239.1 L536.6,239.1 L547.4,239.1 L558.1,239.1 L568.9,239.1 L579.6,239.1 L590.4,239.0 L601.1,239.5 L611.8,239.6 L622.6,239.6 L633.3,239.4 L644.1,241.0 L654.8,241.1 L665.5,241.1 L676.3,244.4 L687.0,244.4 L697.8,244.4 L708.5,244.4 L719.3,244.4 L730.0,244.4" fill="none" stroke="#4a3aa7" stroke-width="2" stroke-linejoin="round" stroke-linecap="round"/>
<circle cx="730.0" cy="244.4" r="6" fill="#fcfcfb"/>
<circle cx="730.0" cy="244.4" r="4" fill="#4a3aa7"/>
<circle cx="745.0" cy="105.9" r="3.5" fill="#008300"/>
<text x="753.0" y="109.4" font-family='system-ui, -apple-system, "Segoe UI", sans-serif' font-size="11" fill="#0b0b0b">reverb</text>
<text x="753.0" y="121.4" font-family='system-ui, -apple-system, "Segoe UI", sans-serif' font-size="10" style="font-variant-numeric: tabular-nums" fill="#52514e">50.5M</text>
<circle cx="745.0" cy="133.9" r="3.5" fill="#2a78d6"/>
<text x="753.0" y="137.4" font-family='system-ui, -apple-system, "Segoe UI", sans-serif' font-size="11" fill="#0b0b0b">auto-filter</text>
<text x="753.0" y="149.4" font-family='system-ui, -apple-system, "Segoe UI", sans-serif' font-size="10" style="font-variant-numeric: tabular-nums" fill="#52514e">43.9M</text>
<line x1="736.0" y1="137.8" x2="740.0" y2="165.4" stroke="#c3c2b7" stroke-width="1"/>
<circle cx="745.0" cy="161.9" r="3.5" fill="#eda100"/>
<text x="753.0" y="165.4" font-family='system-ui, -apple-system, "Segoe UI", sans-serif' font-size="11" fill="#0b0b0b">echo</text>
<text x="753.0" y="177.4" font-family='system-ui, -apple-system, "Segoe UI", sans-serif' font-size="10" style="font-variant-numeric: tabular-nums" fill="#52514e">43.2M</text>
<line x1="736.0" y1="147.1" x2="740.0" y2="193.4" stroke="#c3c2b7" stroke-width="1"/>
<circle cx="745.0" cy="189.9" r="3.5" fill="#1baf7a"/>
<text x="753.0" y="193.4" font-family='system-ui, -apple-system, "Segoe UI", sans-serif' font-size="11" fill="#0b0b0b">autotune</text>
<text x="753.0" y="205.4" font-family='system-ui, -apple-system, "Segoe UI", sans-serif' font-size="10" style="font-variant-numeric: tabular-nums" fill="#52514e">40.9M</text>
<circle cx="745.0" cy="240.9" r="3.5" fill="#4a3aa7"/>
<text x="753.0" y="244.4" font-family='system-ui, -apple-system, "Segoe UI", sans-serif' font-size="11" fill="#0b0b0b">sampler-arp</text>
<text x="753.0" y="256.4" font-family='system-ui, -apple-system, "Segoe UI", sans-serif' font-size="10" style="font-variant-numeric: tabular-nums" fill="#52514e">15.8M</text>
</svg>