<svg xmlns="http://www.w3.org/2000/svg" width="880" height="340" viewBox="0 0 880 340" role="img" aria-label="Whole-instrument render cost">
<rect width="880" height="340" rx="6" fill="#1a1a19"/>
<text x="64" y="24" font-family='system-ui, -apple-system, "Segoe UI", sans-serif' font-size="14" font-weight="600" fill="#ffffff">Whole-instrument render cost</text>
<text x="64" y="41" font-family='system-ui, -apple-system, "Segoe UI", sans-serif' font-size="11" fill="#c3c2b7">render_block of 1 s of audio - callgrind instructions (Ir), per main commit, 2026-06-28 to 2026-07-11</text>
<line x1="64" y1="306.0" x2="730" y2="306.0" stroke="#2c2c2a" stroke-width="1"/>
<text x="56" y="309.5" text-anchor="end" font-family='system-ui, -apple-system, "Segoe UI", sans-serif' font-size="11" style="font-variant-numeric: tabular-nums" fill="#898781">0</text>
<line x1="64" y1="228.2" x2="730" y2="228.2" stroke="#2c2c2a" stroke-width="1"/>
<text x="56" y="231.7" text-anchor="end" font-family='system-ui, -apple-system, "Segoe UI", sans-serif' font-size="11" style="font-variant-numeric: tabular-nums" fill="#898781">20</text>
<line x1="64" y1="150.4" x2="730" y2="150.4" stroke="#2c2c2a" stroke-width="1"/>
<text x="56" y="153.9" text-anchor="end" font-family='system-ui, -apple-system, "Segoe UI", sans-serif' font-size="11" style="font-variant-numeric: tabular-nums" fill="#898781">40</text>
<line x1="64" y1="72.6" x2="730" y2="72.6" stroke="#2c2c2a" stroke-width="1"/>
<text x="56" y="76.1" text-anchor="end" font-family='system-ui, -apple-system, "Segoe UI", sans-serif' font-size="11" style="font-variant-numeric: tabular-nums" fill="#898781">60</text>
<text x="56" y="46" text-anchor="end" font-family='system-ui, -apple-system, "Segoe UI", sans-serif' font-size="10" fill="#898781">Ir (M)</text>
<line x1="64" y1="306" x2="730" y2="306" stroke="#383835" stroke-width="1"/>
<text x="64.0" y="322" text-anchor="middle" font-family='system-ui, -apple-system, "Segoe UI", sans-serif' font-size="11" style="font-variant-numeric: tabular-nums" fill="#898781">06-28</text>
<text x="121.9" y="322" text-anchor="middle" font-family='system-ui, -apple-system, "Segoe UI", sans-serif' font-size="11" style="font-variant-numeric: tabular-nums" fill="#898781">06-30</text>
<text x="170.2" y="322" text-anchor="middle" font-family='system-ui, -apple-system, "Segoe UI", sans-serif' font-size="11" style="font-variant-numeric: tabular-nums" fill="#898781">07-02</text>
<text x="276.3" y="322" text-anchor="middle" font-family='system-ui, -apple-system, "Segoe UI", sans-serif' font-size="11" style="font-variant-numeric: tabular-nums" fill="#898781">07-04</text>
<text x="430.8" y="322" text-anchor="middle" font-family='system-ui, -apple-system, "Segoe UI", sans-serif' font-size="11" style="font-variant-numeric: tabular-nums" fill="#898781">07-07</text>
<text x="527.3" y="322" text-anchor="middle" font-family='system-ui, -apple-system, "Segoe UI", sans-serif' font-size="11" style="font-variant-numeric: tabular-nums" fill="#898781">07-09</text>
<text x="604.5" y="322" text-anchor="middle" font-family='system-ui, -apple-system, "Segoe UI", sans-serif' font-size="11" style="font-variant-numeric: tabular-nums" fill="#898781">07-11</text>
<path d="M64.0,72.9 L73.7,73.0 L83.3,80.1 L93.0,80.1 L102.6,94.2 L112.3,108.6 L121.9,108.6 L131.6,105.1 L141.2,105.4 L150.9,105.7 L160.5,105.7 L170.2,105.6 L179.8,105.5 L189.5,105.5 L199.1,105.5 L208.8,105.5" fill="none" stroke="#3987e5" stroke-width="2" stroke-linejoin="round" stroke-linecap="round"/>
<path d="M228.1,105.7 L237.7,122.6 L247.4,122.6 L257.0,125.2 L266.7,125.0 L276.3,125.0 L286.0,125.0 L295.7,125.0 L305.3,125.0 L315.0,125.0 L324.6,124.3 L334.3,124.3 L343.9,124.3 L353.6,124.3 L363.2,124.3 L372.9,124.5 L382.5,124.5 L392.2,124.5 L401.8,127.9 L411.5,127.9 L421.1,127.9 L430.8,127.9 L440.4,127.9 L450.1,127.9 L459.7,127.9 L469.4,127.9 L479.0,127.9 L488.7,127.9 L498.3,127.9 L508.0,127.9 L517.7,127.9 L527.3,127.9 L537.0,127.9 L546.6,128.8 L556.3,128.8 L565.9,128.8 L575.6,128.2 L585.2,132.1 L594.9,132.1 L604.5,131.7 L614.2,135.3 L623.8,135.3 L633.5,135.3 L643.1,135.3 L652.8,135.3 L662.4,135.3 L672.1,135.3 L681.7,135.3 L691.4,135.3 L701.0,135.3 L710.7,135.3 L720.3,135.3 L730.0,135.3" fill="none" stroke="#3987e5" stroke-width="2" stroke-linejoin="round" stroke-linecap="round"/>
<circle cx="730.0" cy="135.3" r="6" fill="#1a1a19"/>
<circle cx="730.0" cy="135.3" r="4" fill="#3987e5"/>
<path d="M64.0,98.8 L73.7,98.9 L83.3,98.2 L93.0,98.2 L102.6,107.4 L112.3,120.8 L121.9,120.7 L131.6,117.1 L141.2,117.4 L150.9,117.8 L160.5,117.7 L170.2,117.7 L179.8,117.5 L189.5,117.7 L199.1,117.7 L208.8,117.7" fill="none" stroke="#199e70" stroke-width="2" stroke-linejoin="round" stroke-linecap="round"/>
<path d="M228.1,117.8 L237.7,134.9 L247.4,134.9 L257.0,136.9 L266.7,136.6 L276.3,136.6 L286.0,136.6 L295.7,136.6 L305.3,136.6 L315.0,136.6 L324.6,135.8 L334.3,135.8 L343.9,135.8 L353.6,135.8 L363.2,135.8 L372.9,136.0 L382.5,136.0 L392.2,136.0 L401.8,139.7 L411.5,139.7 L421.1,139.6 L430.8,139.6 L440.4,139.6 L450.1,139.6 L459.7,139.6 L469.4,139.6 L479.0,139.6 L488.7,139.6 L498.3,139.6 L508.0,139.6 L517.7,139.6 L527.3,139.6 L537.0,139.6 L546.6,140.5 L556.3,140.5 L565.9,140.5 L575.6,139.8 L585.2,143.5 L594.9,143.5 L604.5,143.5 L614.2,147.1 L623.8,147.1 L633.5,147.1 L643.1,147.1 L652.8,147.1 L662.4,147.1 L672.1,147.1 L681.7,147.1 L691.4,147.1 L701.0,147.1 L710.7,147.1 L720.3,147.1 L730.0,147.1" fill="none" stroke="#199e70" stroke-width="2" stroke-linejoin="round" stroke-linecap="round"/>
<circle cx="730.0" cy="147.1" r="6" fill="#1a1a19"/>
<circle cx="730.0" cy="147.1" r="4" fill="#199e70"/>
<path d="M64.0,83.1 L73.7,83.1 L83.3,82.4 L93.0,82.4 L102.6,95.7 L112.3,110.0 L121.9,109.9 L131.6,106.6 L141.2,106.9 L150.9,107.2 L160.5,107.2 L170.2,107.0 L179.8,107.1 L189.5,107.1 L199.1,107.1 L208.8,107.1" fill="none" stroke="#c98500" stroke-width="2" stroke-linejoin="round" stroke-linecap="round"/>
<path d="M228.1,107.2 L237.7,125.6 L247.4,125.6 L257.0,127.5 L266.7,127.3 L276.3,127.3 L286.0,127.3 L295.7,127.3 L305.3,127.3 L315.0,127.5 L324.6,126.6 L334.3,126.3 L343.9,126.3 L353.6,126.3 L363.2,126.3 L372.9,126.9 L382.5,126.9 L392.2,126.8 L401.8,130.5 L411.5,130.5 L421.1,130.3 L430.8,130.3 L440.4,130.4 L450.1,130.4 L459.7,130.4 L469.4,130.4 L479.0,130.4 L488.7,130.4 L498.3,130.4 L508.0,130.4 L517.7,130.4 L527.3,130.4 L537.0,130.4 L546.6,131.3 L556.3,131.4 L565.9,131.4 L575.6,130.7 L585.2,133.9 L594.9,133.9 L604.5,133.9 L614.2,137.8 L623.8,137.8 L633.5,137.8 L643.1,137.8 L652.8,137.8 L662.4,137.8 L672.1,137.8 L681.7,137.8 L691.4,137.8 L701.0,137.8 L710.7,137.8 L720.3,137.8 L730.0,137.8" fill="none" stroke="#c98500" stroke-width="2" stroke-linejoin="round" stroke-linecap="round"/>
<circle cx="730.0" cy="137.8" r="6" fill="#1a1a19"/>
<circle cx="730.0" cy="137.8" r="4" fill="#c98500"/>
<path d="M64.0,56.6 L73.7,56.6 L83.3,56.0 L93.0,56.0 L102.6,65.0 L112.3,82.2 L121.9,82.1 L131.6,78.6 L141.2,78.8 L150.9,79.3 L160.5,79.3 L170.2,79.2 L179.8,79.1 L189.5,79.2 L199.1,79.2 L208.8,79.2" fill="none" stroke="#008300" stroke-width="2" stroke-linejoin="round" stroke-linecap="round"/>
<path d="M228.1,79.2 L237.7,97.8 L247.4,97.8 L257.0,99.5 L266.7,99.2 L276.3,99.2 L286.0,99.2 L295.7,99.2 L305.3,99.2 L315.0,99.4 L324.6,98.8 L334.3,98.6 L343.9,98.6 L353.6,98.6 L363.2,98.6 L372.9,98.9 L382.5,98.9 L392.2,98.9 L401.8,102.4 L411.5,102.4 L421.1,102.3 L430.8,102.3 L440.4,102.4 L450.1,102.4 L459.7,102.4 L469.4,102.4 L479.0,102.4 L488.7,102.4 L498.3,102.4 L508.0,102.4 L517.7,102.4 L527.3,102.4 L537.0,102.4 L546.6,103.3 L556.3,103.3 L565.9,103.3 L575.6,102.7 L585.2,106.1 L594.9,106.1 L604.5,106.1 L614.2,109.4 L623.8,109.4 L633.5,109.4 L643.1,109.4 L652.8,109.4 L662.4,109.4 L672.1,109.4 L681.7,109.4 L691.4,109.4 L701.0,109.4 L710.7,109.4 L720.3,109.4 L730.0,109.4" fill="none" stroke="#008300" stroke-width="2" stroke-linejoin="round" stroke-linecap="round"/>
<circle cx="730.0" cy="109.4" r="6" fill="#1a1a19"/>
<circle cx="730.0" cy="109.4" r="4" fill="#008300"/>
<path d="M64.0,222.5 L73.7,222.4 L83.3,222.5 L93.0,222.5 L102.6,229.0 L112.3,236.2 L121.9,236.1 L131.6,234.3 L141.2,234.3 L150.9,234.5 L160.5,234.5 L170.2,234.7 L179.8,234.7 L189.5,234.6 L199.1,234.6 L208.8,234.6" fill="none" stroke="#9085e9" stroke-width="2" stroke-linejoin="round" stroke-linecap="round"/>
<path d="M228.1,234.6 L237.7,240.3 L247.4,240.3 L257.0,240.1 L266.7,239.7 L276.3,239.7 L286.0,239.7 L295.7,239.7 L305.3,239.7 L315.0,239.6 L324.6,239.1 L334.3,239.1 L343.9,239.1 L353.6,239.1 L363.2,239.1 L372.9,239.2 L382.5,239.2 L392.2,239.2 L401.8,239.1 L411.5,239.1 L421.1,239.0 L430.8,239.0 L440.4,239.1 L450.1,239.1 L459.7,239.1 L469.4,239.1 L479.0,239.1 L488.7,239.1 L498.3,239.1 L508.0,239.1 L517.7,239.1 L527.3,239.1 L537.0,239.0 L546.6,239.5 L556.3,239.6 L565.9,239.6 L575.6,239.4 L585.2,241.0 L594.9,241.1 L604.5,241.1 L614.2,244.4 L623.8,244.4 L633.5,244.4 L643.1,244.4 L652.8,244.4 L662.4,244.4 L672.1,244.4 L681.7,244.4 L691.4,244.4 L701.0,244.4 L710.7,244.4 L720.3,244.4 L730.0,244.4" fill="none" stroke="#9085e9" stroke-width="2" stroke-linejoin="round" stroke-linecap="round"/>
<circle cx="730.0" cy="244.4" r="6" fill="#1a1a19"/>
<circle cx="730.0" cy="244.4" r="4" fill="#9085e9"/>
<circle cx="745.0" cy="105.9" r="3.5" fill="#008300"/>
<text x="753.0" y="109.4" font-family='system-ui, -apple-system, "Segoe UI", sans-serif' font-size="11" fill="#ffffff">reverb</text>
<text x="753.0" y="121.4" font-family='system-ui, -apple-system, "Segoe UI", sans-serif' font-size="10" style="font-variant-numeric: tabular-nums" fill="#c3c2b7">50.5M</text>
<circle cx="745.0" cy="133.9" r="3.5" fill="#3987e5"/>
<text x="753.0" y="137.4" font-family='system-ui, -apple-system, "Segoe UI", sans-serif' font-size="11" fill="#ffffff">auto-filter</text>
<text x="753.0" y="149.4" font-family='system-ui, -apple-system, "Segoe UI", sans-serif' font-size="10" style="font-variant-numeric: tabular-nums" fill="#c3c2b7">43.9M</text>
<line x1="736.0" y1="137.8" x2="740.0" y2="165.4" stroke="#383835" stroke-width="1"/>
<circle cx="745.0" cy="161.9" r="3.5" fill="#c98500"/>
<text x="753.0" y="165.4" font-family='system-ui, -apple-system, "Segoe UI", sans-serif' font-size="11" fill="#ffffff">echo</text>
<text x="753.0" y="177.4" font-family='system-ui, -apple-system, "Segoe UI", sans-serif' font-size="10" style="font-variant-numeric: tabular-nums" fill="#c3c2b7">43.2M</text>
<line x1="736.0" y1="147.1" x2="740.0" y2="193.4" stroke="#383835" stroke-width="1"/>
<circle cx="745.0" cy="189.9" r="3.5" fill="#199e70"/>
<text x="753.0" y="193.4" font-family='system-ui, -apple-system, "Segoe UI", sans-serif' font-size="11" fill="#ffffff">autotune</text>
<text x="753.0" y="205.4" font-family='system-ui, -apple-system, "Segoe UI", sans-serif' font-size="10" style="font-variant-numeric: tabular-nums" fill="#c3c2b7">40.9M</text>
<circle cx="745.0" cy="240.9" r="3.5" fill="#9085e9"/>
<text x="753.0" y="244.4" font-family='system-ui, -apple-system, "Segoe UI", sans-serif' font-size="11" fill="#ffffff">sampler-arp</text>
<text x="753.0" y="256.4" font-family='system-ui, -apple-system, "Segoe UI", sans-serif' font-size="10" style="font-variant-numeric: tabular-nums" fill="#c3c2b7">15.8M</text>
</svg>