<svg xmlns="http://www.w3.org/2000/svg" width="880" height="340" viewBox="0 0 880 340" role="img" aria-label="Whole-instrument render cost">
<rect width="880" height="340" rx="6" fill="#1a1a19"/>
<text x="64" y="24" font-family='system-ui, -apple-system, "Segoe UI", sans-serif' font-size="14" font-weight="600" fill="#ffffff">Whole-instrument render cost</text>
<text x="64" y="41" font-family='system-ui, -apple-system, "Segoe UI", sans-serif' font-size="11" fill="#c3c2b7">render_block of 1 s of audio - callgrind instructions (Ir), per main commit, 2026-06-28 to 2026-07-08</text>
<line x1="64" y1="306.0" x2="730" y2="306.0" stroke="#2c2c2a" stroke-width="1"/>
<text x="56" y="309.5" text-anchor="end" font-family='system-ui, -apple-system, "Segoe UI", sans-serif' font-size="11" style="font-variant-numeric: tabular-nums" fill="#898781">0</text>
<line x1="64" y1="228.2" x2="730" y2="228.2" stroke="#2c2c2a" stroke-width="1"/>
<text x="56" y="231.7" text-anchor="end" font-family='system-ui, -apple-system, "Segoe UI", sans-serif' font-size="11" style="font-variant-numeric: tabular-nums" fill="#898781">20</text>
<line x1="64" y1="150.4" x2="730" y2="150.4" stroke="#2c2c2a" stroke-width="1"/>
<text x="56" y="153.9" text-anchor="end" font-family='system-ui, -apple-system, "Segoe UI", sans-serif' font-size="11" style="font-variant-numeric: tabular-nums" fill="#898781">40</text>
<line x1="64" y1="72.6" x2="730" y2="72.6" stroke="#2c2c2a" stroke-width="1"/>
<text x="56" y="76.1" text-anchor="end" font-family='system-ui, -apple-system, "Segoe UI", sans-serif' font-size="11" style="font-variant-numeric: tabular-nums" fill="#898781">60</text>
<text x="56" y="46" text-anchor="end" font-family='system-ui, -apple-system, "Segoe UI", sans-serif' font-size="10" fill="#898781">Ir (M)</text>
<line x1="64" y1="306" x2="730" y2="306" stroke="#383835" stroke-width="1"/>
<text x="64.0" y="322" text-anchor="middle" font-family='system-ui, -apple-system, "Segoe UI", sans-serif' font-size="11" style="font-variant-numeric: tabular-nums" fill="#898781">06-28</text>
<text x="156.9" y="322" text-anchor="middle" font-family='system-ui, -apple-system, "Segoe UI", sans-serif' font-size="11" style="font-variant-numeric: tabular-nums" fill="#898781">06-30</text>
<text x="234.4" y="322" text-anchor="middle" font-family='system-ui, -apple-system, "Segoe UI", sans-serif' font-size="11" style="font-variant-numeric: tabular-nums" fill="#898781">07-02</text>
<text x="404.7" y="322" text-anchor="middle" font-family='system-ui, -apple-system, "Segoe UI", sans-serif' font-size="11" style="font-variant-numeric: tabular-nums" fill="#898781">07-04</text>
<text x="652.6" y="322" text-anchor="middle" font-family='system-ui, -apple-system, "Segoe UI", sans-serif' font-size="11" style="font-variant-numeric: tabular-nums" fill="#898781">07-07</text>
<path d="M64.0,72.9 L79.5,73.0 L95.0,80.1 L110.5,80.1 L126.0,94.2 L141.4,108.6 L156.9,108.6 L172.4,105.1 L187.9,105.4 L203.4,105.7 L218.9,105.7 L234.4,105.6 L249.9,105.5 L265.3,105.5 L280.8,105.5 L296.3,105.5" fill="none" stroke="#3987e5" stroke-width="2" stroke-linejoin="round" stroke-linecap="round"/>
<path d="M327.3,105.7 L342.8,122.6 L358.3,122.6 L373.8,125.2 L389.3,125.0 L404.7,125.0 L420.2,125.0 L435.7,125.0 L451.2,125.0 L466.7,125.0 L482.2,124.3 L497.7,124.3 L513.2,124.3 L528.7,124.3 L544.1,124.3 L559.6,124.5 L575.1,124.5 L590.6,124.5 L606.1,127.9 L621.6,127.9 L637.1,127.9 L652.6,127.9 L668.0,127.9 L683.5,127.9 L699.0,127.9 L714.5,127.9 L730.0,127.9" fill="none" stroke="#3987e5" stroke-width="2" stroke-linejoin="round" stroke-linecap="round"/>
<circle cx="730.0" cy="127.9" r="6" fill="#1a1a19"/>
<circle cx="730.0" cy="127.9" r="4" fill="#3987e5"/>
<path d="M64.0,98.8 L79.5,98.9 L95.0,98.2 L110.5,98.2 L126.0,107.4 L141.4,120.8 L156.9,120.7 L172.4,117.1 L187.9,117.4 L203.4,117.8 L218.9,117.7 L234.4,117.7 L249.9,117.5 L265.3,117.7 L280.8,117.7 L296.3,117.7" fill="none" stroke="#199e70" stroke-width="2" stroke-linejoin="round" stroke-linecap="round"/>
<path d="M327.3,117.8 L342.8,134.9 L358.3,134.9 L373.8,136.9 L389.3,136.6 L404.7,136.6 L420.2,136.6 L435.7,136.6 L451.2,136.6 L466.7,136.6 L482.2,135.8 L497.7,135.8 L513.2,135.8 L528.7,135.8 L544.1,135.8 L559.6,136.0 L575.1,136.0 L590.6,136.0 L606.1,139.7 L621.6,139.7 L637.1,139.6 L652.6,139.6 L668.0,139.6 L683.5,139.6 L699.0,139.6 L714.5,139.6 L730.0,139.6" fill="none" stroke="#199e70" stroke-width="2" stroke-linejoin="round" stroke-linecap="round"/>
<circle cx="730.0" cy="139.6" r="6" fill="#1a1a19"/>
<circle cx="730.0" cy="139.6" r="4" fill="#199e70"/>
<path d="M64.0,83.1 L79.5,83.1 L95.0,82.4 L110.5,82.4 L126.0,95.7 L141.4,110.0 L156.9,109.9 L172.4,106.6 L187.9,106.9 L203.4,107.2 L218.9,107.2 L234.4,107.0 L249.9,107.1 L265.3,107.1 L280.8,107.1 L296.3,107.1" fill="none" stroke="#c98500" stroke-width="2" stroke-linejoin="round" stroke-linecap="round"/>
<path d="M327.3,107.2 L342.8,125.6 L358.3,125.6 L373.8,127.5 L389.3,127.3 L404.7,127.3 L420.2,127.3 L435.7,127.3 L451.2,127.3 L466.7,127.5 L482.2,126.6 L497.7,126.3 L513.2,126.3 L528.7,126.3 L544.1,126.3 L559.6,126.9 L575.1,126.9 L590.6,126.8 L606.1,130.5 L621.6,130.5 L637.1,130.3 L652.6,130.3 L668.0,130.4 L683.5,130.4 L699.0,130.4 L714.5,130.4 L730.0,130.4" fill="none" stroke="#c98500" stroke-width="2" stroke-linejoin="round" stroke-linecap="round"/>
<circle cx="730.0" cy="130.4" r="6" fill="#1a1a19"/>
<circle cx="730.0" cy="130.4" r="4" fill="#c98500"/>
<path d="M64.0,56.6 L79.5,56.6 L95.0,56.0 L110.5,56.0 L126.0,65.0 L141.4,82.2 L156.9,82.1 L172.4,78.6 L187.9,78.8 L203.4,79.3 L218.9,79.3 L234.4,79.2 L249.9,79.1 L265.3,79.2 L280.8,79.2 L296.3,79.2" fill="none" stroke="#008300" stroke-width="2" stroke-linejoin="round" stroke-linecap="round"/>
<path d="M327.3,79.2 L342.8,97.8 L358.3,97.8 L373.8,99.5 L389.3,99.2 L404.7,99.2 L420.2,99.2 L435.7,99.2 L451.2,99.2 L466.7,99.4 L482.2,98.8 L497.7,98.6 L513.2,98.6 L528.7,98.6 L544.1,98.6 L559.6,98.9 L575.1,98.9 L590.6,98.9 L606.1,102.4 L621.6,102.4 L637.1,102.3 L652.6,102.3 L668.0,102.4 L683.5,102.4 L699.0,102.4 L714.5,102.4 L730.0,102.4" fill="none" stroke="#008300" stroke-width="2" stroke-linejoin="round" stroke-linecap="round"/>
<circle cx="730.0" cy="102.4" r="6" fill="#1a1a19"/>
<circle cx="730.0" cy="102.4" r="4" fill="#008300"/>
<path d="M64.0,222.5 L79.5,222.4 L95.0,222.5 L110.5,222.5 L126.0,229.0 L141.4,236.2 L156.9,236.1 L172.4,234.3 L187.9,234.3 L203.4,234.5 L218.9,234.5 L234.4,234.7 L249.9,234.7 L265.3,234.6 L280.8,234.6 L296.3,234.6" fill="none" stroke="#9085e9" stroke-width="2" stroke-linejoin="round" stroke-linecap="round"/>
<path d="M327.3,234.6 L342.8,240.3 L358.3,240.3 L373.8,240.1 L389.3,239.7 L404.7,239.7 L420.2,239.7 L435.7,239.7 L451.2,239.7 L466.7,239.6 L482.2,239.1 L497.7,239.1 L513.2,239.1 L528.7,239.1 L544.1,239.1 L559.6,239.2 L575.1,239.2 L590.6,239.2 L606.1,239.1 L621.6,239.1 L637.1,239.0 L652.6,239.0 L668.0,239.1 L683.5,239.1 L699.0,239.1 L714.5,239.1 L730.0,239.1" fill="none" stroke="#9085e9" stroke-width="2" stroke-linejoin="round" stroke-linecap="round"/>
<circle cx="730.0" cy="239.1" r="6" fill="#1a1a19"/>
<circle cx="730.0" cy="239.1" r="4" fill="#9085e9"/>
<circle cx="745.0" cy="98.9" r="3.5" fill="#008300"/>
<text x="753.0" y="102.4" font-family='system-ui, -apple-system, "Segoe UI", sans-serif' font-size="11" fill="#ffffff">reverb</text>
<text x="753.0" y="114.4" font-family='system-ui, -apple-system, "Segoe UI", sans-serif' font-size="10" style="font-variant-numeric: tabular-nums" fill="#c3c2b7">52.3M</text>
<circle cx="745.0" cy="126.9" r="3.5" fill="#3987e5"/>
<text x="753.0" y="130.4" font-family='system-ui, -apple-system, "Segoe UI", sans-serif' font-size="11" fill="#ffffff">auto-filter</text>
<text x="753.0" y="142.4" font-family='system-ui, -apple-system, "Segoe UI", sans-serif' font-size="10" style="font-variant-numeric: tabular-nums" fill="#c3c2b7">45.8M</text>
<line x1="736.0" y1="130.4" x2="740.0" y2="158.4" stroke="#383835" stroke-width="1"/>
<circle cx="745.0" cy="154.9" r="3.5" fill="#c98500"/>
<text x="753.0" y="158.4" font-family='system-ui, -apple-system, "Segoe UI", sans-serif' font-size="11" fill="#ffffff">echo</text>
<text x="753.0" y="170.4" font-family='system-ui, -apple-system, "Segoe UI", sans-serif' font-size="10" style="font-variant-numeric: tabular-nums" fill="#c3c2b7">45.2M</text>
<line x1="736.0" y1="139.6" x2="740.0" y2="186.4" stroke="#383835" stroke-width="1"/>
<circle cx="745.0" cy="182.9" r="3.5" fill="#199e70"/>
<text x="753.0" y="186.4" font-family='system-ui, -apple-system, "Segoe UI", sans-serif' font-size="11" fill="#ffffff">autotune</text>
<text x="753.0" y="198.4" font-family='system-ui, -apple-system, "Segoe UI", sans-serif' font-size="10" style="font-variant-numeric: tabular-nums" fill="#c3c2b7">42.8M</text>
<circle cx="745.0" cy="235.6" r="3.5" fill="#9085e9"/>
<text x="753.0" y="239.1" font-family='system-ui, -apple-system, "Segoe UI", sans-serif' font-size="11" fill="#ffffff">sampler-arp</text>
<text x="753.0" y="251.1" font-family='system-ui, -apple-system, "Segoe UI", sans-serif' font-size="10" style="font-variant-numeric: tabular-nums" fill="#c3c2b7">17.2M</text>
</svg>