<svg xmlns="http://www.w3.org/2000/svg" width="880" height="340" viewBox="0 0 880 340" role="img" aria-label="Whole-instrument render cost">
<rect width="880" height="340" rx="6" fill="#1a1a19"/>
<text x="64" y="24" font-family='system-ui, -apple-system, "Segoe UI", sans-serif' font-size="14" font-weight="600" fill="#ffffff">Whole-instrument render cost</text>
<text x="64" y="41" font-family='system-ui, -apple-system, "Segoe UI", sans-serif' font-size="11" fill="#c3c2b7">render_block of 1 s of audio - callgrind instructions (Ir), per main commit, 2026-06-28 to 2026-07-09</text>
<line x1="64" y1="306.0" x2="730" y2="306.0" stroke="#2c2c2a" stroke-width="1"/>
<text x="56" y="309.5" text-anchor="end" font-family='system-ui, -apple-system, "Segoe UI", sans-serif' font-size="11" style="font-variant-numeric: tabular-nums" fill="#898781">0</text>
<line x1="64" y1="228.2" x2="730" y2="228.2" stroke="#2c2c2a" stroke-width="1"/>
<text x="56" y="231.7" text-anchor="end" font-family='system-ui, -apple-system, "Segoe UI", sans-serif' font-size="11" style="font-variant-numeric: tabular-nums" fill="#898781">20</text>
<line x1="64" y1="150.4" x2="730" y2="150.4" stroke="#2c2c2a" stroke-width="1"/>
<text x="56" y="153.9" text-anchor="end" font-family='system-ui, -apple-system, "Segoe UI", sans-serif' font-size="11" style="font-variant-numeric: tabular-nums" fill="#898781">40</text>
<line x1="64" y1="72.6" x2="730" y2="72.6" stroke="#2c2c2a" stroke-width="1"/>
<text x="56" y="76.1" text-anchor="end" font-family='system-ui, -apple-system, "Segoe UI", sans-serif' font-size="11" style="font-variant-numeric: tabular-nums" fill="#898781">60</text>
<text x="56" y="46" text-anchor="end" font-family='system-ui, -apple-system, "Segoe UI", sans-serif' font-size="10" fill="#898781">Ir (M)</text>
<line x1="64" y1="306" x2="730" y2="306" stroke="#383835" stroke-width="1"/>
<text x="64.0" y="322" text-anchor="middle" font-family='system-ui, -apple-system, "Segoe UI", sans-serif' font-size="11" style="font-variant-numeric: tabular-nums" fill="#898781">06-28</text>
<text x="147.2" y="322" text-anchor="middle" font-family='system-ui, -apple-system, "Segoe UI", sans-serif' font-size="11" style="font-variant-numeric: tabular-nums" fill="#898781">06-30</text>
<text x="216.6" y="322" text-anchor="middle" font-family='system-ui, -apple-system, "Segoe UI", sans-serif' font-size="11" style="font-variant-numeric: tabular-nums" fill="#898781">07-02</text>
<text x="369.2" y="322" text-anchor="middle" font-family='system-ui, -apple-system, "Segoe UI", sans-serif' font-size="11" style="font-variant-numeric: tabular-nums" fill="#898781">07-04</text>
<text x="591.2" y="322" text-anchor="middle" font-family='system-ui, -apple-system, "Segoe UI", sans-serif' font-size="11" style="font-variant-numeric: tabular-nums" fill="#898781">07-07</text>
<text x="730.0" y="322" text-anchor="middle" font-family='system-ui, -apple-system, "Segoe UI", sans-serif' font-size="11" style="font-variant-numeric: tabular-nums" fill="#898781">07-09</text>
<path d="M64.0,72.9 L77.9,73.0 L91.8,80.1 L105.6,80.1 L119.5,94.2 L133.4,108.6 L147.2,108.6 L161.1,105.1 L175.0,105.4 L188.9,105.7 L202.8,105.7 L216.6,105.6 L230.5,105.5 L244.4,105.5 L258.2,105.5 L272.1,105.5" fill="none" stroke="#3987e5" stroke-width="2" stroke-linejoin="round" stroke-linecap="round"/>
<path d="M299.9,105.7 L313.8,122.6 L327.6,122.6 L341.5,125.2 L355.4,125.0 L369.2,125.0 L383.1,125.0 L397.0,125.0 L410.9,125.0 L424.8,125.0 L438.6,124.3 L452.5,124.3 L466.4,124.3 L480.2,124.3 L494.1,124.3 L508.0,124.5 L521.9,124.5 L535.8,124.5 L549.6,127.9 L563.5,127.9 L577.4,127.9 L591.2,127.9 L605.1,127.9 L619.0,127.9 L632.9,127.9 L646.8,127.9 L660.6,127.9 L674.5,127.9 L688.4,127.9 L702.2,127.9 L716.1,127.9 L730.0,127.9" fill="none" stroke="#3987e5" stroke-width="2" stroke-linejoin="round" stroke-linecap="round"/>
<circle cx="730.0" cy="127.9" r="6" fill="#1a1a19"/>
<circle cx="730.0" cy="127.9" r="4" fill="#3987e5"/>
<path d="M64.0,98.8 L77.9,98.9 L91.8,98.2 L105.6,98.2 L119.5,107.4 L133.4,120.8 L147.2,120.7 L161.1,117.1 L175.0,117.4 L188.9,117.8 L202.8,117.7 L216.6,117.7 L230.5,117.5 L244.4,117.7 L258.2,117.7 L272.1,117.7" fill="none" stroke="#199e70" stroke-width="2" stroke-linejoin="round" stroke-linecap="round"/>
<path d="M299.9,117.8 L313.8,134.9 L327.6,134.9 L341.5,136.9 L355.4,136.6 L369.2,136.6 L383.1,136.6 L397.0,136.6 L410.9,136.6 L424.8,136.6 L438.6,135.8 L452.5,135.8 L466.4,135.8 L480.2,135.8 L494.1,135.8 L508.0,136.0 L521.9,136.0 L535.8,136.0 L549.6,139.7 L563.5,139.7 L577.4,139.6 L591.2,139.6 L605.1,139.6 L619.0,139.6 L632.9,139.6 L646.8,139.6 L660.6,139.6 L674.5,139.6 L688.4,139.6 L702.2,139.6 L716.1,139.6 L730.0,139.6" fill="none" stroke="#199e70" stroke-width="2" stroke-linejoin="round" stroke-linecap="round"/>
<circle cx="730.0" cy="139.6" r="6" fill="#1a1a19"/>
<circle cx="730.0" cy="139.6" r="4" fill="#199e70"/>
<path d="M64.0,83.1 L77.9,83.1 L91.8,82.4 L105.6,82.4 L119.5,95.7 L133.4,110.0 L147.2,109.9 L161.1,106.6 L175.0,106.9 L188.9,107.2 L202.8,107.2 L216.6,107.0 L230.5,107.1 L244.4,107.1 L258.2,107.1 L272.1,107.1" fill="none" stroke="#c98500" stroke-width="2" stroke-linejoin="round" stroke-linecap="round"/>
<path d="M299.9,107.2 L313.8,125.6 L327.6,125.6 L341.5,127.5 L355.4,127.3 L369.2,127.3 L383.1,127.3 L397.0,127.3 L410.9,127.3 L424.8,127.5 L438.6,126.6 L452.5,126.3 L466.4,126.3 L480.2,126.3 L494.1,126.3 L508.0,126.9 L521.9,126.9 L535.8,126.8 L549.6,130.5 L563.5,130.5 L577.4,130.3 L591.2,130.3 L605.1,130.4 L619.0,130.4 L632.9,130.4 L646.8,130.4 L660.6,130.4 L674.5,130.4 L688.4,130.4 L702.2,130.4 L716.1,130.4 L730.0,130.4" fill="none" stroke="#c98500" stroke-width="2" stroke-linejoin="round" stroke-linecap="round"/>
<circle cx="730.0" cy="130.4" r="6" fill="#1a1a19"/>
<circle cx="730.0" cy="130.4" r="4" fill="#c98500"/>
<path d="M64.0,56.6 L77.9,56.6 L91.8,56.0 L105.6,56.0 L119.5,65.0 L133.4,82.2 L147.2,82.1 L161.1,78.6 L175.0,78.8 L188.9,79.3 L202.8,79.3 L216.6,79.2 L230.5,79.1 L244.4,79.2 L258.2,79.2 L272.1,79.2" fill="none" stroke="#008300" stroke-width="2" stroke-linejoin="round" stroke-linecap="round"/>
<path d="M299.9,79.2 L313.8,97.8 L327.6,97.8 L341.5,99.5 L355.4,99.2 L369.2,99.2 L383.1,99.2 L397.0,99.2 L410.9,99.2 L424.8,99.4 L438.6,98.8 L452.5,98.6 L466.4,98.6 L480.2,98.6 L494.1,98.6 L508.0,98.9 L521.9,98.9 L535.8,98.9 L549.6,102.4 L563.5,102.4 L577.4,102.3 L591.2,102.3 L605.1,102.4 L619.0,102.4 L632.9,102.4 L646.8,102.4 L660.6,102.4 L674.5,102.4 L688.4,102.4 L702.2,102.4 L716.1,102.4 L730.0,102.4" fill="none" stroke="#008300" stroke-width="2" stroke-linejoin="round" stroke-linecap="round"/>
<circle cx="730.0" cy="102.4" r="6" fill="#1a1a19"/>
<circle cx="730.0" cy="102.4" r="4" fill="#008300"/>
<path d="M64.0,222.5 L77.9,222.4 L91.8,222.5 L105.6,222.5 L119.5,229.0 L133.4,236.2 L147.2,236.1 L161.1,234.3 L175.0,234.3 L188.9,234.5 L202.8,234.5 L216.6,234.7 L230.5,234.7 L244.4,234.6 L258.2,234.6 L272.1,234.6" fill="none" stroke="#9085e9" stroke-width="2" stroke-linejoin="round" stroke-linecap="round"/>
<path d="M299.9,234.6 L313.8,240.3 L327.6,240.3 L341.5,240.1 L355.4,239.7 L369.2,239.7 L383.1,239.7 L397.0,239.7 L410.9,239.7 L424.8,239.6 L438.6,239.1 L452.5,239.1 L466.4,239.1 L480.2,239.1 L494.1,239.1 L508.0,239.2 L521.9,239.2 L535.8,239.2 L549.6,239.1 L563.5,239.1 L577.4,239.0 L591.2,239.0 L605.1,239.1 L619.0,239.1 L632.9,239.1 L646.8,239.1 L660.6,239.1 L674.5,239.1 L688.4,239.1 L702.2,239.1 L716.1,239.1 L730.0,239.1" fill="none" stroke="#9085e9" stroke-width="2" stroke-linejoin="round" stroke-linecap="round"/>
<circle cx="730.0" cy="239.1" r="6" fill="#1a1a19"/>
<circle cx="730.0" cy="239.1" r="4" fill="#9085e9"/>
<circle cx="745.0" cy="98.9" r="3.5" fill="#008300"/>
<text x="753.0" y="102.4" font-family='system-ui, -apple-system, "Segoe UI", sans-serif' font-size="11" fill="#ffffff">reverb</text>
<text x="753.0" y="114.4" font-family='system-ui, -apple-system, "Segoe UI", sans-serif' font-size="10" style="font-variant-numeric: tabular-nums" fill="#c3c2b7">52.3M</text>
<circle cx="745.0" cy="126.9" r="3.5" fill="#3987e5"/>
<text x="753.0" y="130.4" font-family='system-ui, -apple-system, "Segoe UI", sans-serif' font-size="11" fill="#ffffff">auto-filter</text>
<text x="753.0" y="142.4" font-family='system-ui, -apple-system, "Segoe UI", sans-serif' font-size="10" style="font-variant-numeric: tabular-nums" fill="#c3c2b7">45.8M</text>
<line x1="736.0" y1="130.4" x2="740.0" y2="158.4" stroke="#383835" stroke-width="1"/>
<circle cx="745.0" cy="154.9" r="3.5" fill="#c98500"/>
<text x="753.0" y="158.4" font-family='system-ui, -apple-system, "Segoe UI", sans-serif' font-size="11" fill="#ffffff">echo</text>
<text x="753.0" y="170.4" font-family='system-ui, -apple-system, "Segoe UI", sans-serif' font-size="10" style="font-variant-numeric: tabular-nums" fill="#c3c2b7">45.2M</text>
<line x1="736.0" y1="139.6" x2="740.0" y2="186.4" stroke="#383835" stroke-width="1"/>
<circle cx="745.0" cy="182.9" r="3.5" fill="#199e70"/>
<text x="753.0" y="186.4" font-family='system-ui, -apple-system, "Segoe UI", sans-serif' font-size="11" fill="#ffffff">autotune</text>
<text x="753.0" y="198.4" font-family='system-ui, -apple-system, "Segoe UI", sans-serif' font-size="10" style="font-variant-numeric: tabular-nums" fill="#c3c2b7">42.8M</text>
<circle cx="745.0" cy="235.6" r="3.5" fill="#9085e9"/>
<text x="753.0" y="239.1" font-family='system-ui, -apple-system, "Segoe UI", sans-serif' font-size="11" fill="#ffffff">sampler-arp</text>
<text x="753.0" y="251.1" font-family='system-ui, -apple-system, "Segoe UI", sans-serif' font-size="10" style="font-variant-numeric: tabular-nums" fill="#c3c2b7">17.2M</text>
</svg>