<svg xmlns="http://www.w3.org/2000/svg" width="880" height="340" viewBox="0 0 880 340" role="img" aria-label="Whole-instrument render cost">
<rect width="880" height="340" rx="6" fill="#fcfcfb"/>
<text x="64" y="24" font-family='system-ui, -apple-system, "Segoe UI", sans-serif' font-size="14" font-weight="600" fill="#0b0b0b">Whole-instrument render cost</text>
<text x="64" y="41" font-family='system-ui, -apple-system, "Segoe UI", sans-serif' font-size="11" fill="#52514e">render_block of 1 s of audio - callgrind instructions (Ir), per dev commit, 2026-07-12 to 2026-07-20</text>
<line x1="64" y1="306.0" x2="730" y2="306.0" stroke="#e1e0d9" stroke-width="1"/>
<text x="56" y="309.5" text-anchor="end" font-family='system-ui, -apple-system, "Segoe UI", sans-serif' font-size="11" style="font-variant-numeric: tabular-nums" fill="#898781">0</text>
<line x1="64" y1="207.1" x2="730" y2="207.1" stroke="#e1e0d9" stroke-width="1"/>
<text x="56" y="210.6" text-anchor="end" font-family='system-ui, -apple-system, "Segoe UI", sans-serif' font-size="11" style="font-variant-numeric: tabular-nums" fill="#898781">20</text>
<line x1="64" y1="108.2" x2="730" y2="108.2" stroke="#e1e0d9" stroke-width="1"/>
<text x="56" y="111.7" text-anchor="end" font-family='system-ui, -apple-system, "Segoe UI", sans-serif' font-size="11" style="font-variant-numeric: tabular-nums" fill="#898781">40</text>
<text x="56" y="46" text-anchor="end" font-family='system-ui, -apple-system, "Segoe UI", sans-serif' font-size="10" fill="#898781">Ir (M)</text>
<line x1="64" y1="306" x2="730" y2="306" stroke="#c3c2b7" stroke-width="1"/>
<text x="64.0" y="322" text-anchor="middle" font-family='system-ui, -apple-system, "Segoe UI", sans-serif' font-size="11" style="font-variant-numeric: tabular-nums" fill="#898781">07-12</text>
<text x="156.9" y="322" text-anchor="middle" font-family='system-ui, -apple-system, "Segoe UI", sans-serif' font-size="11" style="font-variant-numeric: tabular-nums" fill="#898781">07-13</text>
<text x="172.4" y="322" text-anchor="middle" font-family='system-ui, -apple-system, "Segoe UI", sans-serif' font-size="11" style="font-variant-numeric: tabular-nums" fill="#898781">07-14</text>
<text x="187.9" y="322" text-anchor="middle" font-family='system-ui, -apple-system, "Segoe UI", sans-serif' font-size="11" style="font-variant-numeric: tabular-nums" fill="#898781">07-16</text>
<text x="311.8" y="322" text-anchor="middle" font-family='system-ui, -apple-system, "Segoe UI", sans-serif' font-size="11" style="font-variant-numeric: tabular-nums" fill="#898781">07-17</text>
<text x="404.7" y="322" text-anchor="middle" font-family='system-ui, -apple-system, "Segoe UI", sans-serif' font-size="11" style="font-variant-numeric: tabular-nums" fill="#898781">07-18</text>
<text x="497.7" y="322" text-anchor="middle" font-family='system-ui, -apple-system, "Segoe UI", sans-serif' font-size="11" style="font-variant-numeric: tabular-nums" fill="#898781">07-19</text>
<text x="544.1" y="322" text-anchor="middle" font-family='system-ui, -apple-system, "Segoe UI", sans-serif' font-size="11" style="font-variant-numeric: tabular-nums" fill="#898781">07-20</text>
<path d="M64.0,88.9 L79.5,88.9 L95.0,88.9 L110.5,88.9 L126.0,88.9 L141.4,88.9 L156.9,88.9 L172.4,88.9 L187.9,88.9 L203.4,88.9 L218.9,88.9 L234.4,88.9 L249.9,88.9 L265.3,88.9 L280.8,88.9 L296.3,88.9 L311.8,88.9 L327.3,88.9 L342.8,88.9 L358.3,88.9 L373.8,88.9 L389.3,88.9 L404.7,88.9 L420.2,88.9 L435.7,88.9 L451.2,88.9 L466.7,88.9 L482.2,88.9 L497.7,89.0 L513.2,89.0 L528.7,89.0 L544.1,89.0 L559.6,89.0 L575.1,89.3 L590.6,89.3 L606.1,89.3 L621.6,89.3 L637.1,89.3 L652.6,89.3 L668.0,89.2 L683.5,89.2 L699.0,89.3 L714.5,89.3 L730.0,89.3" fill="none" stroke="#2a78d6" stroke-width="2" stroke-linejoin="round" stroke-linecap="round"/>
<circle cx="730.0" cy="89.3" r="6" fill="#fcfcfb"/>
<circle cx="730.0" cy="89.3" r="4" fill="#2a78d6"/>
<path d="M64.0,103.9 L79.5,103.9 L95.0,103.9 L110.5,103.9 L126.0,103.9 L141.4,103.9 L156.9,103.8 L172.4,103.8 L187.9,103.8 L203.4,103.8 L218.9,103.8 L234.4,103.8 L249.9,103.8 L265.3,103.8 L280.8,103.9 L296.3,103.9 L311.8,103.9 L327.3,103.9 L342.8,103.9 L358.3,103.9 L373.8,103.9 L389.3,103.9 L404.7,103.9 L420.2,103.9 L435.7,103.9 L451.2,103.9 L466.7,103.9 L482.2,103.9 L497.7,103.9 L513.2,103.9 L528.7,103.9 L544.1,103.9 L559.6,103.9 L575.1,104.2 L590.6,104.2 L606.1,104.2 L621.6,104.2 L637.1,104.1 L652.6,104.1 L668.0,104.2 L683.5,104.2 L699.0,104.2 L714.5,104.2 L730.0,104.2" fill="none" stroke="#1baf7a" stroke-width="2" stroke-linejoin="round" stroke-linecap="round"/>
<circle cx="730.0" cy="104.2" r="6" fill="#fcfcfb"/>
<circle cx="730.0" cy="104.2" r="4" fill="#1baf7a"/>
<path d="M64.0,92.1 L79.5,92.1 L95.0,92.1 L110.5,92.1 L126.0,92.1 L141.4,92.1 L156.9,92.1 L172.4,92.1 L187.9,92.1 L203.4,92.1 L218.9,92.1 L234.4,92.1 L249.9,92.1 L265.3,92.1 L280.8,92.1 L296.3,92.1 L311.8,92.1 L327.3,92.1 L342.8,92.1 L358.3,92.1 L373.8,92.1 L389.3,92.1 L404.7,92.1 L420.2,92.1 L435.7,92.1 L451.2,92.1 L466.7,92.1 L482.2,92.1 L497.7,92.1 L513.2,92.1 L528.7,92.1 L544.1,92.1 L559.6,92.1 L575.1,92.4 L590.6,92.4 L606.1,92.4 L621.6,92.4 L637.1,92.4 L652.6,92.4 L668.0,92.3 L683.5,92.3 L699.0,92.4 L714.5,92.4 L730.0,92.4" fill="none" stroke="#eda100" stroke-width="2" stroke-linejoin="round" stroke-linecap="round"/>
<circle cx="730.0" cy="92.4" r="6" fill="#fcfcfb"/>
<circle cx="730.0" cy="92.4" r="4" fill="#eda100"/>
<path d="M64.0,56.0 L79.5,56.0 L95.0,56.0 L110.5,56.0 L126.0,56.0 L141.4,56.0 L156.9,56.0 L172.4,56.0 L187.9,56.0 L203.4,56.0 L218.9,56.0 L234.4,56.0 L249.9,56.0 L265.3,56.0 L280.8,56.0 L296.3,56.0 L311.8,56.0 L327.3,56.0 L342.8,56.0 L358.3,56.0 L373.8,56.0 L389.3,56.0 L404.7,56.0 L420.2,56.0 L435.7,56.0 L451.2,56.0 L466.7,56.0 L482.2,56.0 L497.7,56.0 L513.2,56.0 L528.7,56.0 L544.1,56.0 L559.6,56.0 L575.1,56.3 L590.6,56.3 L606.1,56.3 L621.6,56.3 L637.1,56.3 L652.6,56.3 L668.0,56.2 L683.5,56.2 L699.0,56.3 L714.5,56.3 L730.0,56.3" fill="none" stroke="#008300" stroke-width="2" stroke-linejoin="round" stroke-linecap="round"/>
<circle cx="730.0" cy="56.3" r="6" fill="#fcfcfb"/>
<circle cx="730.0" cy="56.3" r="4" fill="#008300"/>
<path d="M64.0,227.6 L79.5,227.6 L95.0,227.6 L110.5,227.6 L126.0,227.6 L141.4,227.6 L156.9,227.6 L172.4,227.6 L187.9,227.6 L203.4,227.6 L218.9,227.6 L234.4,227.6 L249.9,227.6 L265.3,227.6 L280.8,227.6 L296.3,227.6 L311.8,227.6 L327.3,227.6 L342.8,227.6 L358.3,227.6 L373.8,227.6 L389.3,227.6 L404.7,227.6 L420.2,227.6 L435.7,227.6 L451.2,227.6 L466.7,227.6 L482.2,227.6 L497.7,227.6 L513.2,227.6 L528.7,227.6 L544.1,227.6 L559.6,227.6 L575.1,227.8 L590.6,227.8 L606.1,227.8 L621.6,227.8 L637.1,227.7 L652.6,227.7 L668.0,227.8 L683.5,227.8 L699.0,227.7 L714.5,227.7 L730.0,227.7" fill="none" stroke="#4a3aa7" stroke-width="2" stroke-linejoin="round" stroke-linecap="round"/>
<circle cx="730.0" cy="227.7" r="6" fill="#fcfcfb"/>
<circle cx="730.0" cy="227.7" r="4" fill="#4a3aa7"/>
<circle cx="745.0" cy="52.8" r="3.5" fill="#008300"/>
<text x="753.0" y="56.3" font-family='system-ui, -apple-system, "Segoe UI", sans-serif' font-size="11" fill="#0b0b0b">reverb</text>
<text x="753.0" y="68.3" font-family='system-ui, -apple-system, "Segoe UI", sans-serif' font-size="10" style="font-variant-numeric: tabular-nums" fill="#52514e">50.5M</text>
<circle cx="745.0" cy="85.8" r="3.5" fill="#2a78d6"/>
<text x="753.0" y="89.3" font-family='system-ui, -apple-system, "Segoe UI", sans-serif' font-size="11" fill="#0b0b0b">auto-filter</text>
<text x="753.0" y="101.3" font-family='system-ui, -apple-system, "Segoe UI", sans-serif' font-size="10" style="font-variant-numeric: tabular-nums" fill="#52514e">43.8M</text>
<line x1="736.0" y1="92.4" x2="740.0" y2="117.3" stroke="#c3c2b7" stroke-width="1"/>
<circle cx="745.0" cy="113.8" r="3.5" fill="#eda100"/>
<text x="753.0" y="117.3" font-family='system-ui, -apple-system, "Segoe UI", sans-serif' font-size="11" fill="#0b0b0b">echo</text>
<text x="753.0" y="129.3" font-family='system-ui, -apple-system, "Segoe UI", sans-serif' font-size="10" style="font-variant-numeric: tabular-nums" fill="#52514e">43.2M</text>
<line x1="736.0" y1="104.2" x2="740.0" y2="145.3" stroke="#c3c2b7" stroke-width="1"/>
<circle cx="745.0" cy="141.8" r="3.5" fill="#1baf7a"/>
<text x="753.0" y="145.3" font-family='system-ui, -apple-system, "Segoe UI", sans-serif' font-size="11" fill="#0b0b0b">autotune</text>
<text x="753.0" y="157.3" font-family='system-ui, -apple-system, "Segoe UI", sans-serif' font-size="10" style="font-variant-numeric: tabular-nums" fill="#52514e">40.8M</text>
<circle cx="745.0" cy="224.2" r="3.5" fill="#4a3aa7"/>
<text x="753.0" y="227.7" font-family='system-ui, -apple-system, "Segoe UI", sans-serif' font-size="11" fill="#0b0b0b">sampler-arp</text>
<text x="753.0" y="239.7" font-family='system-ui, -apple-system, "Segoe UI", sans-serif' font-size="10" style="font-variant-numeric: tabular-nums" fill="#52514e">15.8M</text>
</svg>