<svg xmlns="http://www.w3.org/2000/svg" width="880" height="340" viewBox="0 0 880 340" role="img" aria-label="Whole-instrument render cost">
<rect width="880" height="340" rx="6" fill="#fcfcfb"/>
<text x="64" y="24" font-family='system-ui, -apple-system, "Segoe UI", sans-serif' font-size="14" font-weight="600" fill="#0b0b0b">Whole-instrument render cost</text>
<text x="64" y="41" font-family='system-ui, -apple-system, "Segoe UI", sans-serif' font-size="11" fill="#52514e">render_block of 1 s of audio - callgrind instructions (Ir), per dev commit, 2026-07-12 to 2026-07-22</text>
<line x1="64" y1="306.0" x2="730" y2="306.0" stroke="#e1e0d9" stroke-width="1"/>
<text x="56" y="309.5" text-anchor="end" font-family='system-ui, -apple-system, "Segoe UI", sans-serif' font-size="11" style="font-variant-numeric: tabular-nums" fill="#898781">0</text>
<line x1="64" y1="207.1" x2="730" y2="207.1" stroke="#e1e0d9" stroke-width="1"/>
<text x="56" y="210.6" text-anchor="end" font-family='system-ui, -apple-system, "Segoe UI", sans-serif' font-size="11" style="font-variant-numeric: tabular-nums" fill="#898781">20</text>
<line x1="64" y1="108.2" x2="730" y2="108.2" stroke="#e1e0d9" stroke-width="1"/>
<text x="56" y="111.7" text-anchor="end" font-family='system-ui, -apple-system, "Segoe UI", sans-serif' font-size="11" style="font-variant-numeric: tabular-nums" fill="#898781">40</text>
<text x="56" y="46" text-anchor="end" font-family='system-ui, -apple-system, "Segoe UI", sans-serif' font-size="10" fill="#898781">Ir (M)</text>
<line x1="64" y1="306" x2="730" y2="306" stroke="#c3c2b7" stroke-width="1"/>
<text x="64.0" y="322" text-anchor="middle" font-family='system-ui, -apple-system, "Segoe UI", sans-serif' font-size="11" style="font-variant-numeric: tabular-nums" fill="#898781">07-12</text>
<text x="136.8" y="322" text-anchor="middle" font-family='system-ui, -apple-system, "Segoe UI", sans-serif' font-size="11" style="font-variant-numeric: tabular-nums" fill="#898781">07-14</text>
<text x="230.5" y="322" text-anchor="middle" font-family='system-ui, -apple-system, "Segoe UI", sans-serif' font-size="11" style="font-variant-numeric: tabular-nums" fill="#898781">07-17</text>
<text x="355.4" y="322" text-anchor="middle" font-family='system-ui, -apple-system, "Segoe UI", sans-serif' font-size="11" style="font-variant-numeric: tabular-nums" fill="#898781">07-19</text>
<text x="542.7" y="322" text-anchor="middle" font-family='system-ui, -apple-system, "Segoe UI", sans-serif' font-size="11" style="font-variant-numeric: tabular-nums" fill="#898781">07-21</text>
<path d="M64.0,88.9 L74.4,88.9 L84.8,88.9 L95.2,88.9 L105.6,88.9 L116.0,88.9 L126.4,88.9 L136.8,88.9 L147.2,88.9 L157.7,88.9 L168.1,88.9 L178.5,88.9 L188.9,88.9 L199.3,88.9 L209.7,88.9 L220.1,88.9 L230.5,88.9 L240.9,88.9 L251.3,88.9 L261.7,88.9 L272.1,88.9 L282.5,88.9 L292.9,88.9 L303.3,88.9 L313.8,88.9 L324.2,88.9 L334.6,88.9 L345.0,88.9 L355.4,89.0 L365.8,89.0 L376.2,89.0 L386.6,89.0 L397.0,89.0 L407.4,89.3 L417.8,89.3 L428.2,89.3 L438.6,89.3 L449.0,89.3 L459.4,89.3 L469.8,89.2 L480.2,89.2 L490.7,89.3 L501.1,89.3 L511.5,89.3 L521.9,89.3 L532.3,89.3 L542.7,89.3 L553.1,89.3 L563.5,89.3 L573.9,89.3 L584.3,120.2 L594.7,120.2 L605.1,120.2 L615.5,120.2 L625.9,120.2 L636.3,120.1 L646.8,120.1 L657.2,120.1 L667.6,120.1 L678.0,120.1 L688.4,120.1 L698.8,120.1 L709.2,120.1 L719.6,120.1 L730.0,120.1" fill="none" stroke="#2a78d6" stroke-width="2" stroke-linejoin="round" stroke-linecap="round"/>
<circle cx="730.0" cy="120.1" r="6" fill="#fcfcfb"/>
<circle cx="730.0" cy="120.1" r="4" fill="#2a78d6"/>
<path d="M64.0,103.9 L74.4,103.9 L84.8,103.9 L95.2,103.9 L105.6,103.9 L116.0,103.9 L126.4,103.8 L136.8,103.8 L147.2,103.8 L157.7,103.8 L168.1,103.8 L178.5,103.8 L188.9,103.8 L199.3,103.8 L209.7,103.9 L220.1,103.9 L230.5,103.9 L240.9,103.9 L251.3,103.9 L261.7,103.9 L272.1,103.9 L282.5,103.9 L292.9,103.9 L303.3,103.9 L313.8,103.9 L324.2,103.9 L334.6,103.9 L345.0,103.9 L355.4,103.9 L365.8,103.9 L376.2,103.9 L386.6,103.9 L397.0,103.9 L407.4,104.2 L417.8,104.2 L428.2,104.2 L438.6,104.2 L449.0,104.1 L459.4,104.1 L469.8,104.2 L480.2,104.2 L490.7,104.2 L501.1,104.2 L511.5,104.2 L521.9,104.2 L532.3,104.2 L542.7,104.2 L553.1,104.2 L563.5,104.2 L573.9,104.2 L584.3,131.8 L594.7,131.8 L605.1,131.8 L615.5,131.8 L625.9,131.8 L636.3,131.8 L646.8,132.0 L657.2,132.0 L667.6,132.0 L678.0,132.0 L688.4,132.0 L698.8,132.0 L709.2,132.0 L719.6,132.0 L730.0,132.0" fill="none" stroke="#1baf7a" stroke-width="2" stroke-linejoin="round" stroke-linecap="round"/>
<circle cx="730.0" cy="132.0" r="6" fill="#fcfcfb"/>
<circle cx="730.0" cy="132.0" r="4" fill="#1baf7a"/>
<path d="M64.0,92.1 L74.4,92.1 L84.8,92.1 L95.2,92.1 L105.6,92.1 L116.0,92.1 L126.4,92.1 L136.8,92.1 L147.2,92.1 L157.7,92.1 L168.1,92.1 L178.5,92.1 L188.9,92.1 L199.3,92.1 L209.7,92.1 L220.1,92.1 L230.5,92.1 L240.9,92.1 L251.3,92.1 L261.7,92.1 L272.1,92.1 L282.5,92.1 L292.9,92.1 L303.3,92.1 L313.8,92.1 L324.2,92.1 L334.6,92.1 L345.0,92.1 L355.4,92.1 L365.8,92.1 L376.2,92.1 L386.6,92.1 L397.0,92.1 L407.4,92.4 L417.8,92.4 L428.2,92.4 L438.6,92.4 L449.0,92.4 L459.4,92.4 L469.8,92.3 L480.2,92.3 L490.7,92.4 L501.1,92.4 L511.5,92.4 L521.9,92.4 L532.3,92.4 L542.7,92.4 L553.1,92.4 L563.5,92.4 L573.9,92.4 L584.3,120.0 L594.7,119.9 L605.1,119.9 L615.5,119.9 L625.9,119.9 L636.3,120.0 L646.8,120.0 L657.2,120.0 L667.6,120.0 L678.0,120.0 L688.4,120.0 L698.8,120.0 L709.2,120.0 L719.6,120.0 L730.0,120.0" fill="none" stroke="#eda100" stroke-width="2" stroke-linejoin="round" stroke-linecap="round"/>
<circle cx="730.0" cy="120.0" r="6" fill="#fcfcfb"/>
<circle cx="730.0" cy="120.0" r="4" fill="#eda100"/>
<path d="M64.0,56.0 L74.4,56.0 L84.8,56.0 L95.2,56.0 L105.6,56.0 L116.0,56.0 L126.4,56.0 L136.8,56.0 L147.2,56.0 L157.7,56.0 L168.1,56.0 L178.5,56.0 L188.9,56.0 L199.3,56.0 L209.7,56.0 L220.1,56.0 L230.5,56.0 L240.9,56.0 L251.3,56.0 L261.7,56.0 L272.1,56.0 L282.5,56.0 L292.9,56.0 L303.3,56.0 L313.8,56.0 L324.2,56.0 L334.6,56.0 L345.0,56.0 L355.4,56.0 L365.8,56.0 L376.2,56.0 L386.6,56.0 L397.0,56.0 L407.4,56.3 L417.8,56.3 L428.2,56.3 L438.6,56.3 L449.0,56.3 L459.4,56.3 L469.8,56.2 L480.2,56.2 L490.7,56.3 L501.1,56.3 L511.5,56.3 L521.9,56.3 L532.3,56.3 L542.7,56.3 L553.1,56.3 L563.5,56.3 L573.9,56.3 L584.3,83.9 L594.7,83.9 L605.1,83.9 L615.5,83.9 L625.9,83.9 L636.3,83.9 L646.8,83.8 L657.2,83.8 L667.6,83.8 L678.0,83.8 L688.4,83.8 L698.8,83.8 L709.2,83.8 L719.6,83.8 L730.0,83.8" fill="none" stroke="#008300" stroke-width="2" stroke-linejoin="round" stroke-linecap="round"/>
<circle cx="730.0" cy="83.8" r="6" fill="#fcfcfb"/>
<circle cx="730.0" cy="83.8" r="4" fill="#008300"/>
<path d="M64.0,227.6 L74.4,227.6 L84.8,227.6 L95.2,227.6 L105.6,227.6 L116.0,227.6 L126.4,227.6 L136.8,227.6 L147.2,227.6 L157.7,227.6 L168.1,227.6 L178.5,227.6 L188.9,227.6 L199.3,227.6 L209.7,227.6 L220.1,227.6 L230.5,227.6 L240.9,227.6 L251.3,227.6 L261.7,227.6 L272.1,227.6 L282.5,227.6 L292.9,227.6 L303.3,227.6 L313.8,227.6 L324.2,227.6 L334.6,227.6 L345.0,227.6 L355.4,227.6 L365.8,227.6 L376.2,227.6 L386.6,227.6 L397.0,227.6 L407.4,227.8 L417.8,227.8 L428.2,227.8 L438.6,227.8 L449.0,227.7 L459.4,227.7 L469.8,227.8 L480.2,227.8 L490.7,227.7 L501.1,227.7 L511.5,227.7 L521.9,227.7 L532.3,227.7 L542.7,227.7 L553.1,227.7 L563.5,227.7 L573.9,227.7 L584.3,227.7 L594.7,227.7 L605.1,227.7 L615.5,227.7 L625.9,227.7 L636.3,227.7 L646.8,227.8 L657.2,227.8 L667.6,227.8 L678.0,227.8 L688.4,227.8 L698.8,227.8 L709.2,227.8 L719.6,227.8 L730.0,227.8" fill="none" stroke="#4a3aa7" stroke-width="2" stroke-linejoin="round" stroke-linecap="round"/>
<circle cx="730.0" cy="227.8" r="6" fill="#fcfcfb"/>
<circle cx="730.0" cy="227.8" r="4" fill="#4a3aa7"/>
<circle cx="745.0" cy="80.3" r="3.5" fill="#008300"/>
<text x="753.0" y="83.8" font-family='system-ui, -apple-system, "Segoe UI", sans-serif' font-size="11" fill="#0b0b0b">reverb</text>
<text x="753.0" y="95.8" font-family='system-ui, -apple-system, "Segoe UI", sans-serif' font-size="10" style="font-variant-numeric: tabular-nums" fill="#52514e">44.9M</text>
<circle cx="745.0" cy="116.5" r="3.5" fill="#eda100"/>
<text x="753.0" y="120.0" font-family='system-ui, -apple-system, "Segoe UI", sans-serif' font-size="11" fill="#0b0b0b">echo</text>
<text x="753.0" y="132.0" font-family='system-ui, -apple-system, "Segoe UI", sans-serif' font-size="10" style="font-variant-numeric: tabular-nums" fill="#52514e">37.6M</text>
<line x1="736.0" y1="120.1" x2="740.0" y2="148.0" stroke="#c3c2b7" stroke-width="1"/>
<circle cx="745.0" cy="144.5" r="3.5" fill="#2a78d6"/>
<text x="753.0" y="148.0" font-family='system-ui, -apple-system, "Segoe UI", sans-serif' font-size="11" fill="#0b0b0b">auto-filter</text>
<text x="753.0" y="160.0" font-family='system-ui, -apple-system, "Segoe UI", sans-serif' font-size="10" style="font-variant-numeric: tabular-nums" fill="#52514e">37.6M</text>
<line x1="736.0" y1="132.0" x2="740.0" y2="176.0" stroke="#c3c2b7" stroke-width="1"/>
<circle cx="745.0" cy="172.5" r="3.5" fill="#1baf7a"/>
<text x="753.0" y="176.0" font-family='system-ui, -apple-system, "Segoe UI", sans-serif' font-size="11" fill="#0b0b0b">autotune</text>
<text x="753.0" y="188.0" font-family='system-ui, -apple-system, "Segoe UI", sans-serif' font-size="10" style="font-variant-numeric: tabular-nums" fill="#52514e">35.2M</text>
<circle cx="745.0" cy="224.3" r="3.5" fill="#4a3aa7"/>
<text x="753.0" y="227.8" font-family='system-ui, -apple-system, "Segoe UI", sans-serif' font-size="11" fill="#0b0b0b">sampler-arp</text>
<text x="753.0" y="239.8" font-family='system-ui, -apple-system, "Segoe UI", sans-serif' font-size="10" style="font-variant-numeric: tabular-nums" fill="#52514e">15.8M</text>
</svg>