<svg xmlns="http://www.w3.org/2000/svg" width="880" height="340" viewBox="0 0 880 340" role="img" aria-label="Whole-instrument render cost">
<rect width="880" height="340" rx="6" fill="#fcfcfb"/>
<text x="64" y="24" font-family='system-ui, -apple-system, "Segoe UI", sans-serif' font-size="14" font-weight="600" fill="#0b0b0b">Whole-instrument render cost</text>
<text x="64" y="41" font-family='system-ui, -apple-system, "Segoe UI", sans-serif' font-size="11" fill="#52514e">render_block of 1 s of audio - callgrind instructions (Ir), per main commit, 2026-06-28 to 2026-07-05</text>
<line x1="64" y1="306.0" x2="730" y2="306.0" stroke="#e1e0d9" stroke-width="1"/>
<text x="56" y="309.5" text-anchor="end" font-family='system-ui, -apple-system, "Segoe UI", sans-serif' font-size="11" style="font-variant-numeric: tabular-nums" fill="#898781">0</text>
<line x1="64" y1="228.2" x2="730" y2="228.2" stroke="#e1e0d9" stroke-width="1"/>
<text x="56" y="231.7" text-anchor="end" font-family='system-ui, -apple-system, "Segoe UI", sans-serif' font-size="11" style="font-variant-numeric: tabular-nums" fill="#898781">20</text>
<line x1="64" y1="150.4" x2="730" y2="150.4" stroke="#e1e0d9" stroke-width="1"/>
<text x="56" y="153.9" text-anchor="end" font-family='system-ui, -apple-system, "Segoe UI", sans-serif' font-size="11" style="font-variant-numeric: tabular-nums" fill="#898781">40</text>
<line x1="64" y1="72.6" x2="730" y2="72.6" stroke="#e1e0d9" stroke-width="1"/>
<text x="56" y="76.1" text-anchor="end" font-family='system-ui, -apple-system, "Segoe UI", sans-serif' font-size="11" style="font-variant-numeric: tabular-nums" fill="#898781">60</text>
<text x="56" y="46" text-anchor="end" font-family='system-ui, -apple-system, "Segoe UI", sans-serif' font-size="10" fill="#898781">Ir (M)</text>
<line x1="64" y1="306" x2="730" y2="306" stroke="#c3c2b7" stroke-width="1"/>
<text x="64.0" y="322" text-anchor="middle" font-family='system-ui, -apple-system, "Segoe UI", sans-serif' font-size="11" style="font-variant-numeric: tabular-nums" fill="#898781">06-28</text>
<text x="105.6" y="322" text-anchor="middle" font-family='system-ui, -apple-system, "Segoe UI", sans-serif' font-size="11" style="font-variant-numeric: tabular-nums" fill="#898781">06-29</text>
<text x="188.9" y="322" text-anchor="middle" font-family='system-ui, -apple-system, "Segoe UI", sans-serif' font-size="11" style="font-variant-numeric: tabular-nums" fill="#898781">06-30</text>
<text x="251.3" y="322" text-anchor="middle" font-family='system-ui, -apple-system, "Segoe UI", sans-serif' font-size="11" style="font-variant-numeric: tabular-nums" fill="#898781">07-01</text>
<text x="292.9" y="322" text-anchor="middle" font-family='system-ui, -apple-system, "Segoe UI", sans-serif' font-size="11" style="font-variant-numeric: tabular-nums" fill="#898781">07-02</text>
<text x="438.6" y="322" text-anchor="middle" font-family='system-ui, -apple-system, "Segoe UI", sans-serif' font-size="11" style="font-variant-numeric: tabular-nums" fill="#898781">07-03</text>
<text x="521.9" y="322" text-anchor="middle" font-family='system-ui, -apple-system, "Segoe UI", sans-serif' font-size="11" style="font-variant-numeric: tabular-nums" fill="#898781">07-04</text>
<text x="688.4" y="322" text-anchor="middle" font-family='system-ui, -apple-system, "Segoe UI", sans-serif' font-size="11" style="font-variant-numeric: tabular-nums" fill="#898781">07-05</text>
<path d="M64.0,72.9 L84.8,73.0 L105.6,80.1 L126.4,80.1 L147.2,94.2 L168.1,108.6 L188.9,108.6 L209.7,105.1 L230.5,105.4 L251.3,105.7 L272.1,105.7 L292.9,105.6 L313.8,105.5 L334.6,105.5 L355.4,105.5 L376.2,105.5" fill="none" stroke="#2a78d6" stroke-width="2" stroke-linejoin="round" stroke-linecap="round"/>
<path d="M417.8,105.7 L438.6,122.6 L459.4,122.6 L480.2,125.2 L501.1,125.0 L521.9,125.0 L542.7,125.0 L563.5,125.0 L584.3,125.0 L605.1,125.0 L625.9,124.3 L646.8,124.3 L667.6,124.3 L688.4,124.3 L709.2,124.3 L730.0,124.5" fill="none" stroke="#2a78d6" stroke-width="2" stroke-linejoin="round" stroke-linecap="round"/>
<circle cx="730.0" cy="124.5" r="6" fill="#fcfcfb"/>
<circle cx="730.0" cy="124.5" r="4" fill="#2a78d6"/>
<path d="M64.0,98.8 L84.8,98.9 L105.6,98.2 L126.4,98.2 L147.2,107.4 L168.1,120.8 L188.9,120.7 L209.7,117.1 L230.5,117.4 L251.3,117.8 L272.1,117.7 L292.9,117.7 L313.8,117.5 L334.6,117.7 L355.4,117.7 L376.2,117.7" fill="none" stroke="#1baf7a" stroke-width="2" stroke-linejoin="round" stroke-linecap="round"/>
<path d="M417.8,117.8 L438.6,134.9 L459.4,134.9 L480.2,136.9 L501.1,136.6 L521.9,136.6 L542.7,136.6 L563.5,136.6 L584.3,136.6 L605.1,136.6 L625.9,135.8 L646.8,135.8 L667.6,135.8 L688.4,135.8 L709.2,135.8 L730.0,136.0" fill="none" stroke="#1baf7a" stroke-width="2" stroke-linejoin="round" stroke-linecap="round"/>
<circle cx="730.0" cy="136.0" r="6" fill="#fcfcfb"/>
<circle cx="730.0" cy="136.0" r="4" fill="#1baf7a"/>
<path d="M64.0,83.1 L84.8,83.1 L105.6,82.4 L126.4,82.4 L147.2,95.7 L168.1,110.0 L188.9,109.9 L209.7,106.6 L230.5,106.9 L251.3,107.2 L272.1,107.2 L292.9,107.0 L313.8,107.1 L334.6,107.1 L355.4,107.1 L376.2,107.1" fill="none" stroke="#eda100" stroke-width="2" stroke-linejoin="round" stroke-linecap="round"/>
<path d="M417.8,107.2 L438.6,125.6 L459.4,125.6 L480.2,127.5 L501.1,127.3 L521.9,127.3 L542.7,127.3 L563.5,127.3 L584.3,127.3 L605.1,127.5 L625.9,126.6 L646.8,126.3 L667.6,126.3 L688.4,126.3 L709.2,126.3 L730.0,126.9" fill="none" stroke="#eda100" stroke-width="2" stroke-linejoin="round" stroke-linecap="round"/>
<circle cx="730.0" cy="126.9" r="6" fill="#fcfcfb"/>
<circle cx="730.0" cy="126.9" r="4" fill="#eda100"/>
<path d="M64.0,56.6 L84.8,56.6 L105.6,56.0 L126.4,56.0 L147.2,65.0 L168.1,82.2 L188.9,82.1 L209.7,78.6 L230.5,78.8 L251.3,79.3 L272.1,79.3 L292.9,79.2 L313.8,79.1 L334.6,79.2 L355.4,79.2 L376.2,79.2" fill="none" stroke="#008300" stroke-width="2" stroke-linejoin="round" stroke-linecap="round"/>
<path d="M417.8,79.2 L438.6,97.8 L459.4,97.8 L480.2,99.5 L501.1,99.2 L521.9,99.2 L542.7,99.2 L563.5,99.2 L584.3,99.2 L605.1,99.4 L625.9,98.8 L646.8,98.6 L667.6,98.6 L688.4,98.6 L709.2,98.6 L730.0,98.9" fill="none" stroke="#008300" stroke-width="2" stroke-linejoin="round" stroke-linecap="round"/>
<circle cx="730.0" cy="98.9" r="6" fill="#fcfcfb"/>
<circle cx="730.0" cy="98.9" r="4" fill="#008300"/>
<path d="M64.0,222.5 L84.8,222.4 L105.6,222.5 L126.4,222.5 L147.2,229.0 L168.1,236.2 L188.9,236.1 L209.7,234.3 L230.5,234.3 L251.3,234.5 L272.1,234.5 L292.9,234.7 L313.8,234.7 L334.6,234.6 L355.4,234.6 L376.2,234.6" fill="none" stroke="#4a3aa7" stroke-width="2" stroke-linejoin="round" stroke-linecap="round"/>
<path d="M417.8,234.6 L438.6,240.3 L459.4,240.3 L480.2,240.1 L501.1,239.7 L521.9,239.7 L542.7,239.7 L563.5,239.7 L584.3,239.7 L605.1,239.6 L625.9,239.1 L646.8,239.1 L667.6,239.1 L688.4,239.1 L709.2,239.1 L730.0,239.2" fill="none" stroke="#4a3aa7" stroke-width="2" stroke-linejoin="round" stroke-linecap="round"/>
<circle cx="730.0" cy="239.2" r="6" fill="#fcfcfb"/>
<circle cx="730.0" cy="239.2" r="4" fill="#4a3aa7"/>
<circle cx="745.0" cy="95.4" r="3.5" fill="#008300"/>
<text x="753.0" y="98.9" font-family='system-ui, -apple-system, "Segoe UI", sans-serif' font-size="11" fill="#0b0b0b">reverb</text>
<text x="753.0" y="110.9" font-family='system-ui, -apple-system, "Segoe UI", sans-serif' font-size="10" style="font-variant-numeric: tabular-nums" fill="#52514e">53.3M</text>
<circle cx="745.0" cy="123.4" r="3.5" fill="#2a78d6"/>
<text x="753.0" y="126.9" font-family='system-ui, -apple-system, "Segoe UI", sans-serif' font-size="11" fill="#0b0b0b">auto-filter</text>
<text x="753.0" y="138.9" font-family='system-ui, -apple-system, "Segoe UI", sans-serif' font-size="10" style="font-variant-numeric: tabular-nums" fill="#52514e">46.7M</text>
<line x1="736.0" y1="126.9" x2="740.0" y2="154.9" stroke="#c3c2b7" stroke-width="1"/>
<circle cx="745.0" cy="151.4" r="3.5" fill="#eda100"/>
<text x="753.0" y="154.9" font-family='system-ui, -apple-system, "Segoe UI", sans-serif' font-size="11" fill="#0b0b0b">echo</text>
<text x="753.0" y="166.9" font-family='system-ui, -apple-system, "Segoe UI", sans-serif' font-size="10" style="font-variant-numeric: tabular-nums" fill="#52514e">46.1M</text>
<line x1="736.0" y1="136.0" x2="740.0" y2="182.9" stroke="#c3c2b7" stroke-width="1"/>
<circle cx="745.0" cy="179.4" r="3.5" fill="#1baf7a"/>
<text x="753.0" y="182.9" font-family='system-ui, -apple-system, "Segoe UI", sans-serif' font-size="11" fill="#0b0b0b">autotune</text>
<text x="753.0" y="194.9" font-family='system-ui, -apple-system, "Segoe UI", sans-serif' font-size="10" style="font-variant-numeric: tabular-nums" fill="#52514e">43.7M</text>
<circle cx="745.0" cy="235.7" r="3.5" fill="#4a3aa7"/>
<text x="753.0" y="239.2" font-family='system-ui, -apple-system, "Segoe UI", sans-serif' font-size="11" fill="#0b0b0b">sampler-arp</text>
<text x="753.0" y="251.2" font-family='system-ui, -apple-system, "Segoe UI", sans-serif' font-size="10" style="font-variant-numeric: tabular-nums" fill="#52514e">17.2M</text>
</svg>