<svg xmlns="http://www.w3.org/2000/svg" width="880" height="340" viewBox="0 0 880 340" role="img" aria-label="Whole-instrument render cost">
<rect width="880" height="340" rx="6" fill="#fcfcfb"/>
<text x="64" y="24" font-family='system-ui, -apple-system, "Segoe UI", sans-serif' font-size="14" font-weight="600" fill="#0b0b0b">Whole-instrument render cost</text>
<text x="64" y="41" font-family='system-ui, -apple-system, "Segoe UI", sans-serif' font-size="11" fill="#52514e">render_block of 1 s of audio - callgrind instructions (Ir), per dev commit, 2026-07-12 to 2026-07-20</text>
<line x1="64" y1="306.0" x2="730" y2="306.0" stroke="#e1e0d9" stroke-width="1"/>
<text x="56" y="309.5" text-anchor="end" font-family='system-ui, -apple-system, "Segoe UI", sans-serif' font-size="11" style="font-variant-numeric: tabular-nums" fill="#898781">0</text>
<line x1="64" y1="207.1" x2="730" y2="207.1" stroke="#e1e0d9" stroke-width="1"/>
<text x="56" y="210.6" text-anchor="end" font-family='system-ui, -apple-system, "Segoe UI", sans-serif' font-size="11" style="font-variant-numeric: tabular-nums" fill="#898781">20</text>
<line x1="64" y1="108.2" x2="730" y2="108.2" stroke="#e1e0d9" stroke-width="1"/>
<text x="56" y="111.7" text-anchor="end" font-family='system-ui, -apple-system, "Segoe UI", sans-serif' font-size="11" style="font-variant-numeric: tabular-nums" fill="#898781">40</text>
<text x="56" y="46" text-anchor="end" font-family='system-ui, -apple-system, "Segoe UI", sans-serif' font-size="10" fill="#898781">Ir (M)</text>
<line x1="64" y1="306" x2="730" y2="306" stroke="#c3c2b7" stroke-width="1"/>
<text x="64.0" y="322" text-anchor="middle" font-family='system-ui, -apple-system, "Segoe UI", sans-serif' font-size="11" style="font-variant-numeric: tabular-nums" fill="#898781">07-12</text>
<text x="169.2" y="322" text-anchor="middle" font-family='system-ui, -apple-system, "Segoe UI", sans-serif' font-size="11" style="font-variant-numeric: tabular-nums" fill="#898781">07-13</text>
<text x="186.7" y="322" text-anchor="middle" font-family='system-ui, -apple-system, "Segoe UI", sans-serif' font-size="11" style="font-variant-numeric: tabular-nums" fill="#898781">07-14</text>
<text x="204.2" y="322" text-anchor="middle" font-family='system-ui, -apple-system, "Segoe UI", sans-serif' font-size="11" style="font-variant-numeric: tabular-nums" fill="#898781">07-16</text>
<text x="344.4" y="322" text-anchor="middle" font-family='system-ui, -apple-system, "Segoe UI", sans-serif' font-size="11" style="font-variant-numeric: tabular-nums" fill="#898781">07-17</text>
<text x="449.6" y="322" text-anchor="middle" font-family='system-ui, -apple-system, "Segoe UI", sans-serif' font-size="11" style="font-variant-numeric: tabular-nums" fill="#898781">07-18</text>
<text x="554.7" y="322" text-anchor="middle" font-family='system-ui, -apple-system, "Segoe UI", sans-serif' font-size="11" style="font-variant-numeric: tabular-nums" fill="#898781">07-19</text>
<text x="607.3" y="322" text-anchor="middle" font-family='system-ui, -apple-system, "Segoe UI", sans-serif' font-size="11" style="font-variant-numeric: tabular-nums" fill="#898781">07-20</text>
<path d="M64.0,88.9 L81.5,88.9 L99.1,88.9 L116.6,88.9 L134.1,88.9 L151.6,88.9 L169.2,88.9 L186.7,88.9 L204.2,88.9 L221.7,88.9 L239.3,88.9 L256.8,88.9 L274.3,88.9 L291.8,88.9 L309.4,88.9 L326.9,88.9 L344.4,88.9 L361.9,88.9 L379.5,88.9 L397.0,88.9 L414.5,88.9 L432.1,88.9 L449.6,88.9 L467.1,88.9 L484.6,88.9 L502.2,88.9 L519.7,88.9 L537.2,88.9 L554.7,89.0 L572.3,89.0 L589.8,89.0 L607.3,89.0 L624.8,89.0 L642.4,89.3 L659.9,89.3 L677.4,89.3 L694.9,89.3 L712.5,89.3 L730.0,89.3" fill="none" stroke="#2a78d6" stroke-width="2" stroke-linejoin="round" stroke-linecap="round"/>
<circle cx="730.0" cy="89.3" r="6" fill="#fcfcfb"/>
<circle cx="730.0" cy="89.3" r="4" fill="#2a78d6"/>
<path d="M64.0,103.9 L81.5,103.9 L99.1,103.9 L116.6,103.9 L134.1,103.9 L151.6,103.9 L169.2,103.8 L186.7,103.8 L204.2,103.8 L221.7,103.8 L239.3,103.8 L256.8,103.8 L274.3,103.8 L291.8,103.8 L309.4,103.9 L326.9,103.9 L344.4,103.9 L361.9,103.9 L379.5,103.9 L397.0,103.9 L414.5,103.9 L432.1,103.9 L449.6,103.9 L467.1,103.9 L484.6,103.9 L502.2,103.9 L519.7,103.9 L537.2,103.9 L554.7,103.9 L572.3,103.9 L589.8,103.9 L607.3,103.9 L624.8,103.9 L642.4,104.2 L659.9,104.2 L677.4,104.2 L694.9,104.2 L712.5,104.1 L730.0,104.1" fill="none" stroke="#1baf7a" stroke-width="2" stroke-linejoin="round" stroke-linecap="round"/>
<circle cx="730.0" cy="104.1" r="6" fill="#fcfcfb"/>
<circle cx="730.0" cy="104.1" r="4" fill="#1baf7a"/>
<path d="M64.0,92.1 L81.5,92.1 L99.1,92.1 L116.6,92.1 L134.1,92.1 L151.6,92.1 L169.2,92.1 L186.7,92.1 L204.2,92.1 L221.7,92.1 L239.3,92.1 L256.8,92.1 L274.3,92.1 L291.8,92.1 L309.4,92.1 L326.9,92.1 L344.4,92.1 L361.9,92.1 L379.5,92.1 L397.0,92.1 L414.5,92.1 L432.1,92.1 L449.6,92.1 L467.1,92.1 L484.6,92.1 L502.2,92.1 L519.7,92.1 L537.2,92.1 L554.7,92.1 L572.3,92.1 L589.8,92.1 L607.3,92.1 L624.8,92.1 L642.4,92.4 L659.9,92.4 L677.4,92.4 L694.9,92.4 L712.5,92.4 L730.0,92.4" fill="none" stroke="#eda100" stroke-width="2" stroke-linejoin="round" stroke-linecap="round"/>
<circle cx="730.0" cy="92.4" r="6" fill="#fcfcfb"/>
<circle cx="730.0" cy="92.4" r="4" fill="#eda100"/>
<path d="M64.0,56.0 L81.5,56.0 L99.1,56.0 L116.6,56.0 L134.1,56.0 L151.6,56.0 L169.2,56.0 L186.7,56.0 L204.2,56.0 L221.7,56.0 L239.3,56.0 L256.8,56.0 L274.3,56.0 L291.8,56.0 L309.4,56.0 L326.9,56.0 L344.4,56.0 L361.9,56.0 L379.5,56.0 L397.0,56.0 L414.5,56.0 L432.1,56.0 L449.6,56.0 L467.1,56.0 L484.6,56.0 L502.2,56.0 L519.7,56.0 L537.2,56.0 L554.7,56.0 L572.3,56.0 L589.8,56.0 L607.3,56.0 L624.8,56.0 L642.4,56.3 L659.9,56.3 L677.4,56.3 L694.9,56.3 L712.5,56.3 L730.0,56.3" fill="none" stroke="#008300" stroke-width="2" stroke-linejoin="round" stroke-linecap="round"/>
<circle cx="730.0" cy="56.3" r="6" fill="#fcfcfb"/>
<circle cx="730.0" cy="56.3" r="4" fill="#008300"/>
<path d="M64.0,227.6 L81.5,227.6 L99.1,227.6 L116.6,227.6 L134.1,227.6 L151.6,227.6 L169.2,227.6 L186.7,227.6 L204.2,227.6 L221.7,227.6 L239.3,227.6 L256.8,227.6 L274.3,227.6 L291.8,227.6 L309.4,227.6 L326.9,227.6 L344.4,227.6 L361.9,227.6 L379.5,227.6 L397.0,227.6 L414.5,227.6 L432.1,227.6 L449.6,227.6 L467.1,227.6 L484.6,227.6 L502.2,227.6 L519.7,227.6 L537.2,227.6 L554.7,227.6 L572.3,227.6 L589.8,227.6 L607.3,227.6 L624.8,227.6 L642.4,227.8 L659.9,227.8 L677.4,227.8 L694.9,227.8 L712.5,227.7 L730.0,227.7" fill="none" stroke="#4a3aa7" stroke-width="2" stroke-linejoin="round" stroke-linecap="round"/>
<circle cx="730.0" cy="227.7" r="6" fill="#fcfcfb"/>
<circle cx="730.0" cy="227.7" r="4" fill="#4a3aa7"/>
<circle cx="745.0" cy="52.8" r="3.5" fill="#008300"/>
<text x="753.0" y="56.3" font-family='system-ui, -apple-system, "Segoe UI", sans-serif' font-size="11" fill="#0b0b0b">reverb</text>
<text x="753.0" y="68.3" font-family='system-ui, -apple-system, "Segoe UI", sans-serif' font-size="10" style="font-variant-numeric: tabular-nums" fill="#52514e">50.5M</text>
<circle cx="745.0" cy="85.8" r="3.5" fill="#2a78d6"/>
<text x="753.0" y="89.3" font-family='system-ui, -apple-system, "Segoe UI", sans-serif' font-size="11" fill="#0b0b0b">auto-filter</text>
<text x="753.0" y="101.3" font-family='system-ui, -apple-system, "Segoe UI", sans-serif' font-size="10" style="font-variant-numeric: tabular-nums" fill="#52514e">43.8M</text>
<line x1="736.0" y1="92.4" x2="740.0" y2="117.3" stroke="#c3c2b7" stroke-width="1"/>
<circle cx="745.0" cy="113.8" r="3.5" fill="#eda100"/>
<text x="753.0" y="117.3" font-family='system-ui, -apple-system, "Segoe UI", sans-serif' font-size="11" fill="#0b0b0b">echo</text>
<text x="753.0" y="129.3" font-family='system-ui, -apple-system, "Segoe UI", sans-serif' font-size="10" style="font-variant-numeric: tabular-nums" fill="#52514e">43.2M</text>
<line x1="736.0" y1="104.1" x2="740.0" y2="145.3" stroke="#c3c2b7" stroke-width="1"/>
<circle cx="745.0" cy="141.8" r="3.5" fill="#1baf7a"/>
<text x="753.0" y="145.3" font-family='system-ui, -apple-system, "Segoe UI", sans-serif' font-size="11" fill="#0b0b0b">autotune</text>
<text x="753.0" y="157.3" font-family='system-ui, -apple-system, "Segoe UI", sans-serif' font-size="10" style="font-variant-numeric: tabular-nums" fill="#52514e">40.8M</text>
<circle cx="745.0" cy="224.2" r="3.5" fill="#4a3aa7"/>
<text x="753.0" y="227.7" font-family='system-ui, -apple-system, "Segoe UI", sans-serif' font-size="11" fill="#0b0b0b">sampler-arp</text>
<text x="753.0" y="239.7" font-family='system-ui, -apple-system, "Segoe UI", sans-serif' font-size="10" style="font-variant-numeric: tabular-nums" fill="#52514e">15.8M</text>
</svg>