<svg xmlns="http://www.w3.org/2000/svg" width="880" height="340" viewBox="0 0 880 340" role="img" aria-label="Whole-instrument render cost">
<rect width="880" height="340" rx="6" fill="#fcfcfb"/>
<text x="64" y="24" font-family='system-ui, -apple-system, "Segoe UI", sans-serif' font-size="14" font-weight="600" fill="#0b0b0b">Whole-instrument render cost</text>
<text x="64" y="41" font-family='system-ui, -apple-system, "Segoe UI", sans-serif' font-size="11" fill="#52514e">render_block of 1 s of audio - callgrind instructions (Ir), per dev commit, 2026-07-12 to 2026-07-20</text>
<line x1="64" y1="306.0" x2="730" y2="306.0" stroke="#e1e0d9" stroke-width="1"/>
<text x="56" y="309.5" text-anchor="end" font-family='system-ui, -apple-system, "Segoe UI", sans-serif' font-size="11" style="font-variant-numeric: tabular-nums" fill="#898781">0</text>
<line x1="64" y1="207.1" x2="730" y2="207.1" stroke="#e1e0d9" stroke-width="1"/>
<text x="56" y="210.6" text-anchor="end" font-family='system-ui, -apple-system, "Segoe UI", sans-serif' font-size="11" style="font-variant-numeric: tabular-nums" fill="#898781">20</text>
<line x1="64" y1="108.2" x2="730" y2="108.2" stroke="#e1e0d9" stroke-width="1"/>
<text x="56" y="111.7" text-anchor="end" font-family='system-ui, -apple-system, "Segoe UI", sans-serif' font-size="11" style="font-variant-numeric: tabular-nums" fill="#898781">40</text>
<text x="56" y="46" text-anchor="end" font-family='system-ui, -apple-system, "Segoe UI", sans-serif' font-size="10" fill="#898781">Ir (M)</text>
<line x1="64" y1="306" x2="730" y2="306" stroke="#c3c2b7" stroke-width="1"/>
<text x="64.0" y="322" text-anchor="middle" font-family='system-ui, -apple-system, "Segoe UI", sans-serif' font-size="11" style="font-variant-numeric: tabular-nums" fill="#898781">07-12</text>
<text x="161.5" y="322" text-anchor="middle" font-family='system-ui, -apple-system, "Segoe UI", sans-serif' font-size="11" style="font-variant-numeric: tabular-nums" fill="#898781">07-13</text>
<text x="177.7" y="322" text-anchor="middle" font-family='system-ui, -apple-system, "Segoe UI", sans-serif' font-size="11" style="font-variant-numeric: tabular-nums" fill="#898781">07-14</text>
<text x="194.0" y="322" text-anchor="middle" font-family='system-ui, -apple-system, "Segoe UI", sans-serif' font-size="11" style="font-variant-numeric: tabular-nums" fill="#898781">07-16</text>
<text x="323.9" y="322" text-anchor="middle" font-family='system-ui, -apple-system, "Segoe UI", sans-serif' font-size="11" style="font-variant-numeric: tabular-nums" fill="#898781">07-17</text>
<text x="421.4" y="322" text-anchor="middle" font-family='system-ui, -apple-system, "Segoe UI", sans-serif' font-size="11" style="font-variant-numeric: tabular-nums" fill="#898781">07-18</text>
<text x="518.8" y="322" text-anchor="middle" font-family='system-ui, -apple-system, "Segoe UI", sans-serif' font-size="11" style="font-variant-numeric: tabular-nums" fill="#898781">07-19</text>
<text x="567.6" y="322" text-anchor="middle" font-family='system-ui, -apple-system, "Segoe UI", sans-serif' font-size="11" style="font-variant-numeric: tabular-nums" fill="#898781">07-20</text>
<path d="M64.0,88.9 L80.2,88.9 L96.5,88.9 L112.7,88.9 L129.0,88.9 L145.2,88.9 L161.5,88.9 L177.7,88.9 L194.0,88.9 L210.2,88.9 L226.4,88.9 L242.7,88.9 L258.9,88.9 L275.2,88.9 L291.4,88.9 L307.7,88.9 L323.9,88.9 L340.1,88.9 L356.4,88.9 L372.6,88.9 L388.9,88.9 L405.1,88.9 L421.4,88.9 L437.6,88.9 L453.9,88.9 L470.1,88.9 L486.3,88.9 L502.6,88.9 L518.8,89.0 L535.1,89.0 L551.3,89.0 L567.6,89.0 L583.8,89.0 L600.0,89.3 L616.3,89.3 L632.5,89.3 L648.8,89.3 L665.0,89.3 L681.3,89.3 L697.5,89.2 L713.8,89.2 L730.0,89.3" fill="none" stroke="#2a78d6" stroke-width="2" stroke-linejoin="round" stroke-linecap="round"/>
<circle cx="730.0" cy="89.3" r="6" fill="#fcfcfb"/>
<circle cx="730.0" cy="89.3" r="4" fill="#2a78d6"/>
<path d="M64.0,103.9 L80.2,103.9 L96.5,103.9 L112.7,103.9 L129.0,103.9 L145.2,103.9 L161.5,103.8 L177.7,103.8 L194.0,103.8 L210.2,103.8 L226.4,103.8 L242.7,103.8 L258.9,103.8 L275.2,103.8 L291.4,103.9 L307.7,103.9 L323.9,103.9 L340.1,103.9 L356.4,103.9 L372.6,103.9 L388.9,103.9 L405.1,103.9 L421.4,103.9 L437.6,103.9 L453.9,103.9 L470.1,103.9 L486.3,103.9 L502.6,103.9 L518.8,103.9 L535.1,103.9 L551.3,103.9 L567.6,103.9 L583.8,103.9 L600.0,104.2 L616.3,104.2 L632.5,104.2 L648.8,104.2 L665.0,104.1 L681.3,104.1 L697.5,104.2 L713.8,104.2 L730.0,104.2" fill="none" stroke="#1baf7a" stroke-width="2" stroke-linejoin="round" stroke-linecap="round"/>
<circle cx="730.0" cy="104.2" r="6" fill="#fcfcfb"/>
<circle cx="730.0" cy="104.2" r="4" fill="#1baf7a"/>
<path d="M64.0,92.1 L80.2,92.1 L96.5,92.1 L112.7,92.1 L129.0,92.1 L145.2,92.1 L161.5,92.1 L177.7,92.1 L194.0,92.1 L210.2,92.1 L226.4,92.1 L242.7,92.1 L258.9,92.1 L275.2,92.1 L291.4,92.1 L307.7,92.1 L323.9,92.1 L340.1,92.1 L356.4,92.1 L372.6,92.1 L388.9,92.1 L405.1,92.1 L421.4,92.1 L437.6,92.1 L453.9,92.1 L470.1,92.1 L486.3,92.1 L502.6,92.1 L518.8,92.1 L535.1,92.1 L551.3,92.1 L567.6,92.1 L583.8,92.1 L600.0,92.4 L616.3,92.4 L632.5,92.4 L648.8,92.4 L665.0,92.4 L681.3,92.4 L697.5,92.3 L713.8,92.3 L730.0,92.4" fill="none" stroke="#eda100" stroke-width="2" stroke-linejoin="round" stroke-linecap="round"/>
<circle cx="730.0" cy="92.4" r="6" fill="#fcfcfb"/>
<circle cx="730.0" cy="92.4" r="4" fill="#eda100"/>
<path d="M64.0,56.0 L80.2,56.0 L96.5,56.0 L112.7,56.0 L129.0,56.0 L145.2,56.0 L161.5,56.0 L177.7,56.0 L194.0,56.0 L210.2,56.0 L226.4,56.0 L242.7,56.0 L258.9,56.0 L275.2,56.0 L291.4,56.0 L307.7,56.0 L323.9,56.0 L340.1,56.0 L356.4,56.0 L372.6,56.0 L388.9,56.0 L405.1,56.0 L421.4,56.0 L437.6,56.0 L453.9,56.0 L470.1,56.0 L486.3,56.0 L502.6,56.0 L518.8,56.0 L535.1,56.0 L551.3,56.0 L567.6,56.0 L583.8,56.0 L600.0,56.3 L616.3,56.3 L632.5,56.3 L648.8,56.3 L665.0,56.3 L681.3,56.3 L697.5,56.2 L713.8,56.2 L730.0,56.3" fill="none" stroke="#008300" stroke-width="2" stroke-linejoin="round" stroke-linecap="round"/>
<circle cx="730.0" cy="56.3" r="6" fill="#fcfcfb"/>
<circle cx="730.0" cy="56.3" r="4" fill="#008300"/>
<path d="M64.0,227.6 L80.2,227.6 L96.5,227.6 L112.7,227.6 L129.0,227.6 L145.2,227.6 L161.5,227.6 L177.7,227.6 L194.0,227.6 L210.2,227.6 L226.4,227.6 L242.7,227.6 L258.9,227.6 L275.2,227.6 L291.4,227.6 L307.7,227.6 L323.9,227.6 L340.1,227.6 L356.4,227.6 L372.6,227.6 L388.9,227.6 L405.1,227.6 L421.4,227.6 L437.6,227.6 L453.9,227.6 L470.1,227.6 L486.3,227.6 L502.6,227.6 L518.8,227.6 L535.1,227.6 L551.3,227.6 L567.6,227.6 L583.8,227.6 L600.0,227.8 L616.3,227.8 L632.5,227.8 L648.8,227.8 L665.0,227.7 L681.3,227.7 L697.5,227.8 L713.8,227.8 L730.0,227.7" fill="none" stroke="#4a3aa7" stroke-width="2" stroke-linejoin="round" stroke-linecap="round"/>
<circle cx="730.0" cy="227.7" r="6" fill="#fcfcfb"/>
<circle cx="730.0" cy="227.7" r="4" fill="#4a3aa7"/>
<circle cx="745.0" cy="52.8" r="3.5" fill="#008300"/>
<text x="753.0" y="56.3" font-family='system-ui, -apple-system, "Segoe UI", sans-serif' font-size="11" fill="#0b0b0b">reverb</text>
<text x="753.0" y="68.3" font-family='system-ui, -apple-system, "Segoe UI", sans-serif' font-size="10" style="font-variant-numeric: tabular-nums" fill="#52514e">50.5M</text>
<circle cx="745.0" cy="85.8" r="3.5" fill="#2a78d6"/>
<text x="753.0" y="89.3" font-family='system-ui, -apple-system, "Segoe UI", sans-serif' font-size="11" fill="#0b0b0b">auto-filter</text>
<text x="753.0" y="101.3" font-family='system-ui, -apple-system, "Segoe UI", sans-serif' font-size="10" style="font-variant-numeric: tabular-nums" fill="#52514e">43.8M</text>
<line x1="736.0" y1="92.4" x2="740.0" y2="117.3" stroke="#c3c2b7" stroke-width="1"/>
<circle cx="745.0" cy="113.8" r="3.5" fill="#eda100"/>
<text x="753.0" y="117.3" font-family='system-ui, -apple-system, "Segoe UI", sans-serif' font-size="11" fill="#0b0b0b">echo</text>
<text x="753.0" y="129.3" font-family='system-ui, -apple-system, "Segoe UI", sans-serif' font-size="10" style="font-variant-numeric: tabular-nums" fill="#52514e">43.2M</text>
<line x1="736.0" y1="104.2" x2="740.0" y2="145.3" stroke="#c3c2b7" stroke-width="1"/>
<circle cx="745.0" cy="141.8" r="3.5" fill="#1baf7a"/>
<text x="753.0" y="145.3" font-family='system-ui, -apple-system, "Segoe UI", sans-serif' font-size="11" fill="#0b0b0b">autotune</text>
<text x="753.0" y="157.3" font-family='system-ui, -apple-system, "Segoe UI", sans-serif' font-size="10" style="font-variant-numeric: tabular-nums" fill="#52514e">40.8M</text>
<circle cx="745.0" cy="224.2" r="3.5" fill="#4a3aa7"/>
<text x="753.0" y="227.7" font-family='system-ui, -apple-system, "Segoe UI", sans-serif' font-size="11" fill="#0b0b0b">sampler-arp</text>
<text x="753.0" y="239.7" font-family='system-ui, -apple-system, "Segoe UI", sans-serif' font-size="10" style="font-variant-numeric: tabular-nums" fill="#52514e">15.8M</text>
</svg>