<svg xmlns="http://www.w3.org/2000/svg" width="880" height="340" viewBox="0 0 880 340" role="img" aria-label="Whole-instrument render cost">
<rect width="880" height="340" rx="6" fill="#1a1a19"/>
<text x="64" y="24" font-family='system-ui, -apple-system, "Segoe UI", sans-serif' font-size="14" font-weight="600" fill="#ffffff">Whole-instrument render cost</text>
<text x="64" y="41" font-family='system-ui, -apple-system, "Segoe UI", sans-serif' font-size="11" fill="#c3c2b7">render_block of 1 s of audio - callgrind instructions (Ir), per main commit, 2026-06-28 to 2026-07-07</text>
<line x1="64" y1="306.0" x2="730" y2="306.0" stroke="#2c2c2a" stroke-width="1"/>
<text x="56" y="309.5" text-anchor="end" font-family='system-ui, -apple-system, "Segoe UI", sans-serif' font-size="11" style="font-variant-numeric: tabular-nums" fill="#898781">0</text>
<line x1="64" y1="228.2" x2="730" y2="228.2" stroke="#2c2c2a" stroke-width="1"/>
<text x="56" y="231.7" text-anchor="end" font-family='system-ui, -apple-system, "Segoe UI", sans-serif' font-size="11" style="font-variant-numeric: tabular-nums" fill="#898781">20</text>
<line x1="64" y1="150.4" x2="730" y2="150.4" stroke="#2c2c2a" stroke-width="1"/>
<text x="56" y="153.9" text-anchor="end" font-family='system-ui, -apple-system, "Segoe UI", sans-serif' font-size="11" style="font-variant-numeric: tabular-nums" fill="#898781">40</text>
<line x1="64" y1="72.6" x2="730" y2="72.6" stroke="#2c2c2a" stroke-width="1"/>
<text x="56" y="76.1" text-anchor="end" font-family='system-ui, -apple-system, "Segoe UI", sans-serif' font-size="11" style="font-variant-numeric: tabular-nums" fill="#898781">60</text>
<text x="56" y="46" text-anchor="end" font-family='system-ui, -apple-system, "Segoe UI", sans-serif' font-size="10" fill="#898781">Ir (M)</text>
<line x1="64" y1="306" x2="730" y2="306" stroke="#383835" stroke-width="1"/>
<text x="64.0" y="322" text-anchor="middle" font-family='system-ui, -apple-system, "Segoe UI", sans-serif' font-size="11" style="font-variant-numeric: tabular-nums" fill="#898781">06-28</text>
<text x="159.1" y="322" text-anchor="middle" font-family='system-ui, -apple-system, "Segoe UI", sans-serif' font-size="11" style="font-variant-numeric: tabular-nums" fill="#898781">06-30</text>
<text x="238.4" y="322" text-anchor="middle" font-family='system-ui, -apple-system, "Segoe UI", sans-serif' font-size="11" style="font-variant-numeric: tabular-nums" fill="#898781">07-02</text>
<text x="412.9" y="322" text-anchor="middle" font-family='system-ui, -apple-system, "Segoe UI", sans-serif' font-size="11" style="font-variant-numeric: tabular-nums" fill="#898781">07-04</text>
<text x="666.6" y="322" text-anchor="middle" font-family='system-ui, -apple-system, "Segoe UI", sans-serif' font-size="11" style="font-variant-numeric: tabular-nums" fill="#898781">07-07</text>
<path d="M64.0,72.9 L79.9,73.0 L95.7,80.1 L111.6,80.1 L127.4,94.2 L143.3,108.6 L159.1,108.6 L175.0,105.1 L190.9,105.4 L206.7,105.7 L222.6,105.7 L238.4,105.6 L254.3,105.5 L270.1,105.5 L286.0,105.5 L301.9,105.5" fill="none" stroke="#3987e5" stroke-width="2" stroke-linejoin="round" stroke-linecap="round"/>
<path d="M333.6,105.7 L349.4,122.6 L365.3,122.6 L381.1,125.2 L397.0,125.0 L412.9,125.0 L428.7,125.0 L444.6,125.0 L460.4,125.0 L476.3,125.0 L492.1,124.3 L508.0,124.3 L523.9,124.3 L539.7,124.3 L555.6,124.3 L571.4,124.5 L587.3,124.5 L603.1,124.5 L619.0,127.9 L634.9,127.9 L650.7,127.9 L666.6,127.9 L682.4,127.9 L698.3,127.9 L714.1,127.9 L730.0,127.9" fill="none" stroke="#3987e5" stroke-width="2" stroke-linejoin="round" stroke-linecap="round"/>
<circle cx="730.0" cy="127.9" r="6" fill="#1a1a19"/>
<circle cx="730.0" cy="127.9" r="4" fill="#3987e5"/>
<path d="M64.0,98.8 L79.9,98.9 L95.7,98.2 L111.6,98.2 L127.4,107.4 L143.3,120.8 L159.1,120.7 L175.0,117.1 L190.9,117.4 L206.7,117.8 L222.6,117.7 L238.4,117.7 L254.3,117.5 L270.1,117.7 L286.0,117.7 L301.9,117.7" fill="none" stroke="#199e70" stroke-width="2" stroke-linejoin="round" stroke-linecap="round"/>
<path d="M333.6,117.8 L349.4,134.9 L365.3,134.9 L381.1,136.9 L397.0,136.6 L412.9,136.6 L428.7,136.6 L444.6,136.6 L460.4,136.6 L476.3,136.6 L492.1,135.8 L508.0,135.8 L523.9,135.8 L539.7,135.8 L555.6,135.8 L571.4,136.0 L587.3,136.0 L603.1,136.0 L619.0,139.7 L634.9,139.7 L650.7,139.6 L666.6,139.6 L682.4,139.6 L698.3,139.6 L714.1,139.6 L730.0,139.6" fill="none" stroke="#199e70" stroke-width="2" stroke-linejoin="round" stroke-linecap="round"/>
<circle cx="730.0" cy="139.6" r="6" fill="#1a1a19"/>
<circle cx="730.0" cy="139.6" r="4" fill="#199e70"/>
<path d="M64.0,83.1 L79.9,83.1 L95.7,82.4 L111.6,82.4 L127.4,95.7 L143.3,110.0 L159.1,109.9 L175.0,106.6 L190.9,106.9 L206.7,107.2 L222.6,107.2 L238.4,107.0 L254.3,107.1 L270.1,107.1 L286.0,107.1 L301.9,107.1" fill="none" stroke="#c98500" stroke-width="2" stroke-linejoin="round" stroke-linecap="round"/>
<path d="M333.6,107.2 L349.4,125.6 L365.3,125.6 L381.1,127.5 L397.0,127.3 L412.9,127.3 L428.7,127.3 L444.6,127.3 L460.4,127.3 L476.3,127.5 L492.1,126.6 L508.0,126.3 L523.9,126.3 L539.7,126.3 L555.6,126.3 L571.4,126.9 L587.3,126.9 L603.1,126.8 L619.0,130.5 L634.9,130.5 L650.7,130.3 L666.6,130.3 L682.4,130.4 L698.3,130.4 L714.1,130.4 L730.0,130.4" fill="none" stroke="#c98500" stroke-width="2" stroke-linejoin="round" stroke-linecap="round"/>
<circle cx="730.0" cy="130.4" r="6" fill="#1a1a19"/>
<circle cx="730.0" cy="130.4" r="4" fill="#c98500"/>
<path d="M64.0,56.6 L79.9,56.6 L95.7,56.0 L111.6,56.0 L127.4,65.0 L143.3,82.2 L159.1,82.1 L175.0,78.6 L190.9,78.8 L206.7,79.3 L222.6,79.3 L238.4,79.2 L254.3,79.1 L270.1,79.2 L286.0,79.2 L301.9,79.2" fill="none" stroke="#008300" stroke-width="2" stroke-linejoin="round" stroke-linecap="round"/>
<path d="M333.6,79.2 L349.4,97.8 L365.3,97.8 L381.1,99.5 L397.0,99.2 L412.9,99.2 L428.7,99.2 L444.6,99.2 L460.4,99.2 L476.3,99.4 L492.1,98.8 L508.0,98.6 L523.9,98.6 L539.7,98.6 L555.6,98.6 L571.4,98.9 L587.3,98.9 L603.1,98.9 L619.0,102.4 L634.9,102.4 L650.7,102.3 L666.6,102.3 L682.4,102.4 L698.3,102.4 L714.1,102.4 L730.0,102.4" fill="none" stroke="#008300" stroke-width="2" stroke-linejoin="round" stroke-linecap="round"/>
<circle cx="730.0" cy="102.4" r="6" fill="#1a1a19"/>
<circle cx="730.0" cy="102.4" r="4" fill="#008300"/>
<path d="M64.0,222.5 L79.9,222.4 L95.7,222.5 L111.6,222.5 L127.4,229.0 L143.3,236.2 L159.1,236.1 L175.0,234.3 L190.9,234.3 L206.7,234.5 L222.6,234.5 L238.4,234.7 L254.3,234.7 L270.1,234.6 L286.0,234.6 L301.9,234.6" fill="none" stroke="#9085e9" stroke-width="2" stroke-linejoin="round" stroke-linecap="round"/>
<path d="M333.6,234.6 L349.4,240.3 L365.3,240.3 L381.1,240.1 L397.0,239.7 L412.9,239.7 L428.7,239.7 L444.6,239.7 L460.4,239.7 L476.3,239.6 L492.1,239.1 L508.0,239.1 L523.9,239.1 L539.7,239.1 L555.6,239.1 L571.4,239.2 L587.3,239.2 L603.1,239.2 L619.0,239.1 L634.9,239.1 L650.7,239.0 L666.6,239.0 L682.4,239.1 L698.3,239.1 L714.1,239.1 L730.0,239.1" fill="none" stroke="#9085e9" stroke-width="2" stroke-linejoin="round" stroke-linecap="round"/>
<circle cx="730.0" cy="239.1" r="6" fill="#1a1a19"/>
<circle cx="730.0" cy="239.1" r="4" fill="#9085e9"/>
<circle cx="745.0" cy="98.9" r="3.5" fill="#008300"/>
<text x="753.0" y="102.4" font-family='system-ui, -apple-system, "Segoe UI", sans-serif' font-size="11" fill="#ffffff">reverb</text>
<text x="753.0" y="114.4" font-family='system-ui, -apple-system, "Segoe UI", sans-serif' font-size="10" style="font-variant-numeric: tabular-nums" fill="#c3c2b7">52.3M</text>
<circle cx="745.0" cy="126.9" r="3.5" fill="#3987e5"/>
<text x="753.0" y="130.4" font-family='system-ui, -apple-system, "Segoe UI", sans-serif' font-size="11" fill="#ffffff">auto-filter</text>
<text x="753.0" y="142.4" font-family='system-ui, -apple-system, "Segoe UI", sans-serif' font-size="10" style="font-variant-numeric: tabular-nums" fill="#c3c2b7">45.8M</text>
<line x1="736.0" y1="130.4" x2="740.0" y2="158.4" stroke="#383835" stroke-width="1"/>
<circle cx="745.0" cy="154.9" r="3.5" fill="#c98500"/>
<text x="753.0" y="158.4" font-family='system-ui, -apple-system, "Segoe UI", sans-serif' font-size="11" fill="#ffffff">echo</text>
<text x="753.0" y="170.4" font-family='system-ui, -apple-system, "Segoe UI", sans-serif' font-size="10" style="font-variant-numeric: tabular-nums" fill="#c3c2b7">45.2M</text>
<line x1="736.0" y1="139.6" x2="740.0" y2="186.4" stroke="#383835" stroke-width="1"/>
<circle cx="745.0" cy="182.9" r="3.5" fill="#199e70"/>
<text x="753.0" y="186.4" font-family='system-ui, -apple-system, "Segoe UI", sans-serif' font-size="11" fill="#ffffff">autotune</text>
<text x="753.0" y="198.4" font-family='system-ui, -apple-system, "Segoe UI", sans-serif' font-size="10" style="font-variant-numeric: tabular-nums" fill="#c3c2b7">42.8M</text>
<circle cx="745.0" cy="235.6" r="3.5" fill="#9085e9"/>
<text x="753.0" y="239.1" font-family='system-ui, -apple-system, "Segoe UI", sans-serif' font-size="11" fill="#ffffff">sampler-arp</text>
<text x="753.0" y="251.1" font-family='system-ui, -apple-system, "Segoe UI", sans-serif' font-size="10" style="font-variant-numeric: tabular-nums" fill="#c3c2b7">17.2M</text>
</svg>