<svg xmlns="http://www.w3.org/2000/svg" width="880" height="340" viewBox="0 0 880 340" role="img" aria-label="Whole-instrument render cost">
<rect width="880" height="340" rx="6" fill="#fcfcfb"/>
<text x="64" y="24" font-family='system-ui, -apple-system, "Segoe UI", sans-serif' font-size="14" font-weight="600" fill="#0b0b0b">Whole-instrument render cost</text>
<text x="64" y="41" font-family='system-ui, -apple-system, "Segoe UI", sans-serif' font-size="11" fill="#52514e">render_block of 1 s of audio - callgrind instructions (Ir), per dev commit, 2026-07-12 to 2026-07-22</text>
<line x1="64" y1="306.0" x2="730" y2="306.0" stroke="#e1e0d9" stroke-width="1"/>
<text x="56" y="309.5" text-anchor="end" font-family='system-ui, -apple-system, "Segoe UI", sans-serif' font-size="11" style="font-variant-numeric: tabular-nums" fill="#898781">0</text>
<line x1="64" y1="207.1" x2="730" y2="207.1" stroke="#e1e0d9" stroke-width="1"/>
<text x="56" y="210.6" text-anchor="end" font-family='system-ui, -apple-system, "Segoe UI", sans-serif' font-size="11" style="font-variant-numeric: tabular-nums" fill="#898781">20</text>
<line x1="64" y1="108.2" x2="730" y2="108.2" stroke="#e1e0d9" stroke-width="1"/>
<text x="56" y="111.7" text-anchor="end" font-family='system-ui, -apple-system, "Segoe UI", sans-serif' font-size="11" style="font-variant-numeric: tabular-nums" fill="#898781">40</text>
<text x="56" y="46" text-anchor="end" font-family='system-ui, -apple-system, "Segoe UI", sans-serif' font-size="10" fill="#898781">Ir (M)</text>
<line x1="64" y1="306" x2="730" y2="306" stroke="#c3c2b7" stroke-width="1"/>
<text x="64.0" y="322" text-anchor="middle" font-family='system-ui, -apple-system, "Segoe UI", sans-serif' font-size="11" style="font-variant-numeric: tabular-nums" fill="#898781">07-12</text>
<text x="140.4" y="322" text-anchor="middle" font-family='system-ui, -apple-system, "Segoe UI", sans-serif' font-size="11" style="font-variant-numeric: tabular-nums" fill="#898781">07-14</text>
<text x="238.7" y="322" text-anchor="middle" font-family='system-ui, -apple-system, "Segoe UI", sans-serif' font-size="11" style="font-variant-numeric: tabular-nums" fill="#898781">07-17</text>
<text x="369.7" y="322" text-anchor="middle" font-family='system-ui, -apple-system, "Segoe UI", sans-serif' font-size="11" style="font-variant-numeric: tabular-nums" fill="#898781">07-19</text>
<text x="566.2" y="322" text-anchor="middle" font-family='system-ui, -apple-system, "Segoe UI", sans-serif' font-size="11" style="font-variant-numeric: tabular-nums" fill="#898781">07-21</text>
<path d="M64.0,88.9 L74.9,88.9 L85.8,88.9 L96.8,88.9 L107.7,88.9 L118.6,88.9 L129.5,88.9 L140.4,88.9 L151.3,88.9 L162.3,88.9 L173.2,88.9 L184.1,88.9 L195.0,88.9 L205.9,88.9 L216.9,88.9 L227.8,88.9 L238.7,88.9 L249.6,88.9 L260.5,88.9 L271.4,88.9 L282.4,88.9 L293.3,88.9 L304.2,88.9 L315.1,88.9 L326.0,88.9 L337.0,88.9 L347.9,88.9 L358.8,88.9 L369.7,89.0 L380.6,89.0 L391.5,89.0 L402.5,89.0 L413.4,89.0 L424.3,89.3 L435.2,89.3 L446.1,89.3 L457.0,89.3 L468.0,89.3 L478.9,89.3 L489.8,89.2 L500.7,89.2 L511.6,89.3 L522.6,89.3 L533.5,89.3 L544.4,89.3 L555.3,89.3 L566.2,89.3 L577.1,89.3 L588.1,89.3 L599.0,89.3 L609.9,120.2 L620.8,120.2 L631.7,120.2 L642.7,120.2 L653.6,120.2 L664.5,120.1 L675.4,120.1 L686.3,120.1 L697.2,120.1 L708.2,120.1 L719.1,120.1 L730.0,120.1" fill="none" stroke="#2a78d6" stroke-width="2" stroke-linejoin="round" stroke-linecap="round"/>
<circle cx="730.0" cy="120.1" r="6" fill="#fcfcfb"/>
<circle cx="730.0" cy="120.1" r="4" fill="#2a78d6"/>
<path d="M64.0,103.9 L74.9,103.9 L85.8,103.9 L96.8,103.9 L107.7,103.9 L118.6,103.9 L129.5,103.8 L140.4,103.8 L151.3,103.8 L162.3,103.8 L173.2,103.8 L184.1,103.8 L195.0,103.8 L205.9,103.8 L216.9,103.9 L227.8,103.9 L238.7,103.9 L249.6,103.9 L260.5,103.9 L271.4,103.9 L282.4,103.9 L293.3,103.9 L304.2,103.9 L315.1,103.9 L326.0,103.9 L337.0,103.9 L347.9,103.9 L358.8,103.9 L369.7,103.9 L380.6,103.9 L391.5,103.9 L402.5,103.9 L413.4,103.9 L424.3,104.2 L435.2,104.2 L446.1,104.2 L457.0,104.2 L468.0,104.1 L478.9,104.1 L489.8,104.2 L500.7,104.2 L511.6,104.2 L522.6,104.2 L533.5,104.2 L544.4,104.2 L555.3,104.2 L566.2,104.2 L577.1,104.2 L588.1,104.2 L599.0,104.2 L609.9,131.8 L620.8,131.8 L631.7,131.8 L642.7,131.8 L653.6,131.8 L664.5,131.8 L675.4,132.0 L686.3,132.0 L697.2,132.0 L708.2,132.0 L719.1,132.0 L730.0,132.0" fill="none" stroke="#1baf7a" stroke-width="2" stroke-linejoin="round" stroke-linecap="round"/>
<circle cx="730.0" cy="132.0" r="6" fill="#fcfcfb"/>
<circle cx="730.0" cy="132.0" r="4" fill="#1baf7a"/>
<path d="M64.0,92.1 L74.9,92.1 L85.8,92.1 L96.8,92.1 L107.7,92.1 L118.6,92.1 L129.5,92.1 L140.4,92.1 L151.3,92.1 L162.3,92.1 L173.2,92.1 L184.1,92.1 L195.0,92.1 L205.9,92.1 L216.9,92.1 L227.8,92.1 L238.7,92.1 L249.6,92.1 L260.5,92.1 L271.4,92.1 L282.4,92.1 L293.3,92.1 L304.2,92.1 L315.1,92.1 L326.0,92.1 L337.0,92.1 L347.9,92.1 L358.8,92.1 L369.7,92.1 L380.6,92.1 L391.5,92.1 L402.5,92.1 L413.4,92.1 L424.3,92.4 L435.2,92.4 L446.1,92.4 L457.0,92.4 L468.0,92.4 L478.9,92.4 L489.8,92.3 L500.7,92.3 L511.6,92.4 L522.6,92.4 L533.5,92.4 L544.4,92.4 L555.3,92.4 L566.2,92.4 L577.1,92.4 L588.1,92.4 L599.0,92.4 L609.9,120.0 L620.8,119.9 L631.7,119.9 L642.7,119.9 L653.6,119.9 L664.5,120.0 L675.4,120.0 L686.3,120.0 L697.2,120.0 L708.2,120.0 L719.1,120.0 L730.0,120.0" fill="none" stroke="#eda100" stroke-width="2" stroke-linejoin="round" stroke-linecap="round"/>
<circle cx="730.0" cy="120.0" r="6" fill="#fcfcfb"/>
<circle cx="730.0" cy="120.0" r="4" fill="#eda100"/>
<path d="M64.0,56.0 L74.9,56.0 L85.8,56.0 L96.8,56.0 L107.7,56.0 L118.6,56.0 L129.5,56.0 L140.4,56.0 L151.3,56.0 L162.3,56.0 L173.2,56.0 L184.1,56.0 L195.0,56.0 L205.9,56.0 L216.9,56.0 L227.8,56.0 L238.7,56.0 L249.6,56.0 L260.5,56.0 L271.4,56.0 L282.4,56.0 L293.3,56.0 L304.2,56.0 L315.1,56.0 L326.0,56.0 L337.0,56.0 L347.9,56.0 L358.8,56.0 L369.7,56.0 L380.6,56.0 L391.5,56.0 L402.5,56.0 L413.4,56.0 L424.3,56.3 L435.2,56.3 L446.1,56.3 L457.0,56.3 L468.0,56.3 L478.9,56.3 L489.8,56.2 L500.7,56.2 L511.6,56.3 L522.6,56.3 L533.5,56.3 L544.4,56.3 L555.3,56.3 L566.2,56.3 L577.1,56.3 L588.1,56.3 L599.0,56.3 L609.9,83.9 L620.8,83.9 L631.7,83.9 L642.7,83.9 L653.6,83.9 L664.5,83.9 L675.4,83.8 L686.3,83.8 L697.2,83.8 L708.2,83.8 L719.1,83.8 L730.0,83.8" fill="none" stroke="#008300" stroke-width="2" stroke-linejoin="round" stroke-linecap="round"/>
<circle cx="730.0" cy="83.8" r="6" fill="#fcfcfb"/>
<circle cx="730.0" cy="83.8" r="4" fill="#008300"/>
<path d="M64.0,227.6 L74.9,227.6 L85.8,227.6 L96.8,227.6 L107.7,227.6 L118.6,227.6 L129.5,227.6 L140.4,227.6 L151.3,227.6 L162.3,227.6 L173.2,227.6 L184.1,227.6 L195.0,227.6 L205.9,227.6 L216.9,227.6 L227.8,227.6 L238.7,227.6 L249.6,227.6 L260.5,227.6 L271.4,227.6 L282.4,227.6 L293.3,227.6 L304.2,227.6 L315.1,227.6 L326.0,227.6 L337.0,227.6 L347.9,227.6 L358.8,227.6 L369.7,227.6 L380.6,227.6 L391.5,227.6 L402.5,227.6 L413.4,227.6 L424.3,227.8 L435.2,227.8 L446.1,227.8 L457.0,227.8 L468.0,227.7 L478.9,227.7 L489.8,227.8 L500.7,227.8 L511.6,227.7 L522.6,227.7 L533.5,227.7 L544.4,227.7 L555.3,227.7 L566.2,227.7 L577.1,227.7 L588.1,227.7 L599.0,227.7 L609.9,227.7 L620.8,227.7 L631.7,227.7 L642.7,227.7 L653.6,227.7 L664.5,227.7 L675.4,227.8 L686.3,227.8 L697.2,227.8 L708.2,227.8 L719.1,227.8 L730.0,227.8" fill="none" stroke="#4a3aa7" stroke-width="2" stroke-linejoin="round" stroke-linecap="round"/>
<circle cx="730.0" cy="227.8" r="6" fill="#fcfcfb"/>
<circle cx="730.0" cy="227.8" r="4" fill="#4a3aa7"/>
<circle cx="745.0" cy="80.3" r="3.5" fill="#008300"/>
<text x="753.0" y="83.8" font-family='system-ui, -apple-system, "Segoe UI", sans-serif' font-size="11" fill="#0b0b0b">reverb</text>
<text x="753.0" y="95.8" font-family='system-ui, -apple-system, "Segoe UI", sans-serif' font-size="10" style="font-variant-numeric: tabular-nums" fill="#52514e">44.9M</text>
<circle cx="745.0" cy="116.5" r="3.5" fill="#eda100"/>
<text x="753.0" y="120.0" font-family='system-ui, -apple-system, "Segoe UI", sans-serif' font-size="11" fill="#0b0b0b">echo</text>
<text x="753.0" y="132.0" font-family='system-ui, -apple-system, "Segoe UI", sans-serif' font-size="10" style="font-variant-numeric: tabular-nums" fill="#52514e">37.6M</text>
<line x1="736.0" y1="120.1" x2="740.0" y2="148.0" stroke="#c3c2b7" stroke-width="1"/>
<circle cx="745.0" cy="144.5" r="3.5" fill="#2a78d6"/>
<text x="753.0" y="148.0" font-family='system-ui, -apple-system, "Segoe UI", sans-serif' font-size="11" fill="#0b0b0b">auto-filter</text>
<text x="753.0" y="160.0" font-family='system-ui, -apple-system, "Segoe UI", sans-serif' font-size="10" style="font-variant-numeric: tabular-nums" fill="#52514e">37.6M</text>
<line x1="736.0" y1="132.0" x2="740.0" y2="176.0" stroke="#c3c2b7" stroke-width="1"/>
<circle cx="745.0" cy="172.5" r="3.5" fill="#1baf7a"/>
<text x="753.0" y="176.0" font-family='system-ui, -apple-system, "Segoe UI", sans-serif' font-size="11" fill="#0b0b0b">autotune</text>
<text x="753.0" y="188.0" font-family='system-ui, -apple-system, "Segoe UI", sans-serif' font-size="10" style="font-variant-numeric: tabular-nums" fill="#52514e">35.2M</text>
<circle cx="745.0" cy="224.3" r="3.5" fill="#4a3aa7"/>
<text x="753.0" y="227.8" font-family='system-ui, -apple-system, "Segoe UI", sans-serif' font-size="11" fill="#0b0b0b">sampler-arp</text>
<text x="753.0" y="239.8" font-family='system-ui, -apple-system, "Segoe UI", sans-serif' font-size="10" style="font-variant-numeric: tabular-nums" fill="#52514e">15.8M</text>
</svg>