<svg xmlns="http://www.w3.org/2000/svg" width="880" height="340" viewBox="0 0 880 340" role="img" aria-label="Whole-instrument render cost">
<rect width="880" height="340" rx="6" fill="#1a1a19"/>
<text x="64" y="24" font-family='system-ui, -apple-system, "Segoe UI", sans-serif' font-size="14" font-weight="600" fill="#ffffff">Whole-instrument render cost</text>
<text x="64" y="41" font-family='system-ui, -apple-system, "Segoe UI", sans-serif' font-size="11" fill="#c3c2b7">render_block of 1 s of audio - callgrind instructions (Ir), per main commit, 2026-06-28 to 2026-07-05</text>
<line x1="64" y1="306.0" x2="730" y2="306.0" stroke="#2c2c2a" stroke-width="1"/>
<text x="56" y="309.5" text-anchor="end" font-family='system-ui, -apple-system, "Segoe UI", sans-serif' font-size="11" style="font-variant-numeric: tabular-nums" fill="#898781">0</text>
<line x1="64" y1="228.2" x2="730" y2="228.2" stroke="#2c2c2a" stroke-width="1"/>
<text x="56" y="231.7" text-anchor="end" font-family='system-ui, -apple-system, "Segoe UI", sans-serif' font-size="11" style="font-variant-numeric: tabular-nums" fill="#898781">20</text>
<line x1="64" y1="150.4" x2="730" y2="150.4" stroke="#2c2c2a" stroke-width="1"/>
<text x="56" y="153.9" text-anchor="end" font-family='system-ui, -apple-system, "Segoe UI", sans-serif' font-size="11" style="font-variant-numeric: tabular-nums" fill="#898781">40</text>
<line x1="64" y1="72.6" x2="730" y2="72.6" stroke="#2c2c2a" stroke-width="1"/>
<text x="56" y="76.1" text-anchor="end" font-family='system-ui, -apple-system, "Segoe UI", sans-serif' font-size="11" style="font-variant-numeric: tabular-nums" fill="#898781">60</text>
<text x="56" y="46" text-anchor="end" font-family='system-ui, -apple-system, "Segoe UI", sans-serif' font-size="10" fill="#898781">Ir (M)</text>
<line x1="64" y1="306" x2="730" y2="306" stroke="#383835" stroke-width="1"/>
<text x="64.0" y="322" text-anchor="middle" font-family='system-ui, -apple-system, "Segoe UI", sans-serif' font-size="11" style="font-variant-numeric: tabular-nums" fill="#898781">06-28</text>
<text x="103.2" y="322" text-anchor="middle" font-family='system-ui, -apple-system, "Segoe UI", sans-serif' font-size="11" style="font-variant-numeric: tabular-nums" fill="#898781">06-29</text>
<text x="181.5" y="322" text-anchor="middle" font-family='system-ui, -apple-system, "Segoe UI", sans-serif' font-size="11" style="font-variant-numeric: tabular-nums" fill="#898781">06-30</text>
<text x="240.3" y="322" text-anchor="middle" font-family='system-ui, -apple-system, "Segoe UI", sans-serif' font-size="11" style="font-variant-numeric: tabular-nums" fill="#898781">07-01</text>
<text x="279.5" y="322" text-anchor="middle" font-family='system-ui, -apple-system, "Segoe UI", sans-serif' font-size="11" style="font-variant-numeric: tabular-nums" fill="#898781">07-02</text>
<text x="416.6" y="322" text-anchor="middle" font-family='system-ui, -apple-system, "Segoe UI", sans-serif' font-size="11" style="font-variant-numeric: tabular-nums" fill="#898781">07-03</text>
<text x="494.9" y="322" text-anchor="middle" font-family='system-ui, -apple-system, "Segoe UI", sans-serif' font-size="11" style="font-variant-numeric: tabular-nums" fill="#898781">07-04</text>
<text x="651.6" y="322" text-anchor="middle" font-family='system-ui, -apple-system, "Segoe UI", sans-serif' font-size="11" style="font-variant-numeric: tabular-nums" fill="#898781">07-05</text>
<path d="M64.0,72.9 L83.6,73.0 L103.2,80.1 L122.8,80.1 L142.4,94.2 L161.9,108.6 L181.5,108.6 L201.1,105.1 L220.7,105.4 L240.3,105.7 L259.9,105.7 L279.5,105.6 L299.1,105.5 L318.6,105.5 L338.2,105.5 L357.8,105.5" fill="none" stroke="#3987e5" stroke-width="2" stroke-linejoin="round" stroke-linecap="round"/>
<path d="M397.0,105.7 L416.6,122.6 L436.2,122.6 L455.8,125.2 L475.4,125.0 L494.9,125.0 L514.5,125.0 L534.1,125.0 L553.7,125.0 L573.3,125.0 L592.9,124.3 L612.5,124.3 L632.1,124.3 L651.6,124.3 L671.2,124.3 L690.8,124.5 L710.4,124.5 L730.0,124.5" fill="none" stroke="#3987e5" stroke-width="2" stroke-linejoin="round" stroke-linecap="round"/>
<circle cx="730.0" cy="124.5" r="6" fill="#1a1a19"/>
<circle cx="730.0" cy="124.5" r="4" fill="#3987e5"/>
<path d="M64.0,98.8 L83.6,98.9 L103.2,98.2 L122.8,98.2 L142.4,107.4 L161.9,120.8 L181.5,120.7 L201.1,117.1 L220.7,117.4 L240.3,117.8 L259.9,117.7 L279.5,117.7 L299.1,117.5 L318.6,117.7 L338.2,117.7 L357.8,117.7" fill="none" stroke="#199e70" stroke-width="2" stroke-linejoin="round" stroke-linecap="round"/>
<path d="M397.0,117.8 L416.6,134.9 L436.2,134.9 L455.8,136.9 L475.4,136.6 L494.9,136.6 L514.5,136.6 L534.1,136.6 L553.7,136.6 L573.3,136.6 L592.9,135.8 L612.5,135.8 L632.1,135.8 L651.6,135.8 L671.2,135.8 L690.8,136.0 L710.4,136.0 L730.0,136.0" fill="none" stroke="#199e70" stroke-width="2" stroke-linejoin="round" stroke-linecap="round"/>
<circle cx="730.0" cy="136.0" r="6" fill="#1a1a19"/>
<circle cx="730.0" cy="136.0" r="4" fill="#199e70"/>
<path d="M64.0,83.1 L83.6,83.1 L103.2,82.4 L122.8,82.4 L142.4,95.7 L161.9,110.0 L181.5,109.9 L201.1,106.6 L220.7,106.9 L240.3,107.2 L259.9,107.2 L279.5,107.0 L299.1,107.1 L318.6,107.1 L338.2,107.1 L357.8,107.1" fill="none" stroke="#c98500" stroke-width="2" stroke-linejoin="round" stroke-linecap="round"/>
<path d="M397.0,107.2 L416.6,125.6 L436.2,125.6 L455.8,127.5 L475.4,127.3 L494.9,127.3 L514.5,127.3 L534.1,127.3 L553.7,127.3 L573.3,127.5 L592.9,126.6 L612.5,126.3 L632.1,126.3 L651.6,126.3 L671.2,126.3 L690.8,126.9 L710.4,126.9 L730.0,126.8" fill="none" stroke="#c98500" stroke-width="2" stroke-linejoin="round" stroke-linecap="round"/>
<circle cx="730.0" cy="126.8" r="6" fill="#1a1a19"/>
<circle cx="730.0" cy="126.8" r="4" fill="#c98500"/>
<path d="M64.0,56.6 L83.6,56.6 L103.2,56.0 L122.8,56.0 L142.4,65.0 L161.9,82.2 L181.5,82.1 L201.1,78.6 L220.7,78.8 L240.3,79.3 L259.9,79.3 L279.5,79.2 L299.1,79.1 L318.6,79.2 L338.2,79.2 L357.8,79.2" fill="none" stroke="#008300" stroke-width="2" stroke-linejoin="round" stroke-linecap="round"/>
<path d="M397.0,79.2 L416.6,97.8 L436.2,97.8 L455.8,99.5 L475.4,99.2 L494.9,99.2 L514.5,99.2 L534.1,99.2 L553.7,99.2 L573.3,99.4 L592.9,98.8 L612.5,98.6 L632.1,98.6 L651.6,98.6 L671.2,98.6 L690.8,98.9 L710.4,98.9 L730.0,98.9" fill="none" stroke="#008300" stroke-width="2" stroke-linejoin="round" stroke-linecap="round"/>
<circle cx="730.0" cy="98.9" r="6" fill="#1a1a19"/>
<circle cx="730.0" cy="98.9" r="4" fill="#008300"/>
<path d="M64.0,222.5 L83.6,222.4 L103.2,222.5 L122.8,222.5 L142.4,229.0 L161.9,236.2 L181.5,236.1 L201.1,234.3 L220.7,234.3 L240.3,234.5 L259.9,234.5 L279.5,234.7 L299.1,234.7 L318.6,234.6 L338.2,234.6 L357.8,234.6" fill="none" stroke="#9085e9" stroke-width="2" stroke-linejoin="round" stroke-linecap="round"/>
<path d="M397.0,234.6 L416.6,240.3 L436.2,240.3 L455.8,240.1 L475.4,239.7 L494.9,239.7 L514.5,239.7 L534.1,239.7 L553.7,239.7 L573.3,239.6 L592.9,239.1 L612.5,239.1 L632.1,239.1 L651.6,239.1 L671.2,239.1 L690.8,239.2 L710.4,239.2 L730.0,239.2" fill="none" stroke="#9085e9" stroke-width="2" stroke-linejoin="round" stroke-linecap="round"/>
<circle cx="730.0" cy="239.2" r="6" fill="#1a1a19"/>
<circle cx="730.0" cy="239.2" r="4" fill="#9085e9"/>
<circle cx="745.0" cy="95.4" r="3.5" fill="#008300"/>
<text x="753.0" y="98.9" font-family='system-ui, -apple-system, "Segoe UI", sans-serif' font-size="11" fill="#ffffff">reverb</text>
<text x="753.0" y="110.9" font-family='system-ui, -apple-system, "Segoe UI", sans-serif' font-size="10" style="font-variant-numeric: tabular-nums" fill="#c3c2b7">53.3M</text>
<circle cx="745.0" cy="123.4" r="3.5" fill="#3987e5"/>
<text x="753.0" y="126.9" font-family='system-ui, -apple-system, "Segoe UI", sans-serif' font-size="11" fill="#ffffff">auto-filter</text>
<text x="753.0" y="138.9" font-family='system-ui, -apple-system, "Segoe UI", sans-serif' font-size="10" style="font-variant-numeric: tabular-nums" fill="#c3c2b7">46.7M</text>
<line x1="736.0" y1="126.8" x2="740.0" y2="154.9" stroke="#383835" stroke-width="1"/>
<circle cx="745.0" cy="151.4" r="3.5" fill="#c98500"/>
<text x="753.0" y="154.9" font-family='system-ui, -apple-system, "Segoe UI", sans-serif' font-size="11" fill="#ffffff">echo</text>
<text x="753.0" y="166.9" font-family='system-ui, -apple-system, "Segoe UI", sans-serif' font-size="10" style="font-variant-numeric: tabular-nums" fill="#c3c2b7">46.1M</text>
<line x1="736.0" y1="136.0" x2="740.0" y2="182.9" stroke="#383835" stroke-width="1"/>
<circle cx="745.0" cy="179.4" r="3.5" fill="#199e70"/>
<text x="753.0" y="182.9" font-family='system-ui, -apple-system, "Segoe UI", sans-serif' font-size="11" fill="#ffffff">autotune</text>
<text x="753.0" y="194.9" font-family='system-ui, -apple-system, "Segoe UI", sans-serif' font-size="10" style="font-variant-numeric: tabular-nums" fill="#c3c2b7">43.7M</text>
<circle cx="745.0" cy="235.7" r="3.5" fill="#9085e9"/>
<text x="753.0" y="239.2" font-family='system-ui, -apple-system, "Segoe UI", sans-serif' font-size="11" fill="#ffffff">sampler-arp</text>
<text x="753.0" y="251.2" font-family='system-ui, -apple-system, "Segoe UI", sans-serif' font-size="10" style="font-variant-numeric: tabular-nums" fill="#c3c2b7">17.2M</text>
</svg>