<svg xmlns="http://www.w3.org/2000/svg" width="880" height="340" viewBox="0 0 880 340" role="img" aria-label="Whole-instrument render cost">
<rect width="880" height="340" rx="6" fill="#fcfcfb"/>
<text x="64" y="24" font-family='system-ui, -apple-system, "Segoe UI", sans-serif' font-size="14" font-weight="600" fill="#0b0b0b">Whole-instrument render cost</text>
<text x="64" y="41" font-family='system-ui, -apple-system, "Segoe UI", sans-serif' font-size="11" fill="#52514e">render_block of 1 s of audio - callgrind instructions (Ir), per main commit, 2026-06-28 to 2026-07-09</text>
<line x1="64" y1="306.0" x2="730" y2="306.0" stroke="#e1e0d9" stroke-width="1"/>
<text x="56" y="309.5" text-anchor="end" font-family='system-ui, -apple-system, "Segoe UI", sans-serif' font-size="11" style="font-variant-numeric: tabular-nums" fill="#898781">0</text>
<line x1="64" y1="228.2" x2="730" y2="228.2" stroke="#e1e0d9" stroke-width="1"/>
<text x="56" y="231.7" text-anchor="end" font-family='system-ui, -apple-system, "Segoe UI", sans-serif' font-size="11" style="font-variant-numeric: tabular-nums" fill="#898781">20</text>
<line x1="64" y1="150.4" x2="730" y2="150.4" stroke="#e1e0d9" stroke-width="1"/>
<text x="56" y="153.9" text-anchor="end" font-family='system-ui, -apple-system, "Segoe UI", sans-serif' font-size="11" style="font-variant-numeric: tabular-nums" fill="#898781">40</text>
<line x1="64" y1="72.6" x2="730" y2="72.6" stroke="#e1e0d9" stroke-width="1"/>
<text x="56" y="76.1" text-anchor="end" font-family='system-ui, -apple-system, "Segoe UI", sans-serif' font-size="11" style="font-variant-numeric: tabular-nums" fill="#898781">60</text>
<text x="56" y="46" text-anchor="end" font-family='system-ui, -apple-system, "Segoe UI", sans-serif' font-size="10" fill="#898781">Ir (M)</text>
<line x1="64" y1="306" x2="730" y2="306" stroke="#c3c2b7" stroke-width="1"/>
<text x="64.0" y="322" text-anchor="middle" font-family='system-ui, -apple-system, "Segoe UI", sans-serif' font-size="11" style="font-variant-numeric: tabular-nums" fill="#898781">06-28</text>
<text x="145.6" y="322" text-anchor="middle" font-family='system-ui, -apple-system, "Segoe UI", sans-serif' font-size="11" style="font-variant-numeric: tabular-nums" fill="#898781">06-30</text>
<text x="213.5" y="322" text-anchor="middle" font-family='system-ui, -apple-system, "Segoe UI", sans-serif' font-size="11" style="font-variant-numeric: tabular-nums" fill="#898781">07-02</text>
<text x="363.0" y="322" text-anchor="middle" font-family='system-ui, -apple-system, "Segoe UI", sans-serif' font-size="11" style="font-variant-numeric: tabular-nums" fill="#898781">07-04</text>
<text x="580.5" y="322" text-anchor="middle" font-family='system-ui, -apple-system, "Segoe UI", sans-serif' font-size="11" style="font-variant-numeric: tabular-nums" fill="#898781">07-07</text>
<text x="716.4" y="322" text-anchor="middle" font-family='system-ui, -apple-system, "Segoe UI", sans-serif' font-size="11" style="font-variant-numeric: tabular-nums" fill="#898781">07-09</text>
<path d="M64.0,72.9 L77.6,73.0 L91.2,80.1 L104.8,80.1 L118.4,94.2 L132.0,108.6 L145.6,108.6 L159.1,105.1 L172.7,105.4 L186.3,105.7 L199.9,105.7 L213.5,105.6 L227.1,105.5 L240.7,105.5 L254.3,105.5 L267.9,105.5" fill="none" stroke="#2a78d6" stroke-width="2" stroke-linejoin="round" stroke-linecap="round"/>
<path d="M295.1,105.7 L308.7,122.6 L322.2,122.6 L335.8,125.2 L349.4,125.0 L363.0,125.0 L376.6,125.0 L390.2,125.0 L403.8,125.0 L417.4,125.0 L431.0,124.3 L444.6,124.3 L458.2,124.3 L471.8,124.3 L485.3,124.3 L498.9,124.5 L512.5,124.5 L526.1,124.5 L539.7,127.9 L553.3,127.9 L566.9,127.9 L580.5,127.9 L594.1,127.9 L607.7,127.9 L621.3,127.9 L634.9,127.9 L648.4,127.9 L662.0,127.9 L675.6,127.9 L689.2,127.9 L702.8,127.9 L716.4,127.9 L730.0,127.9" fill="none" stroke="#2a78d6" stroke-width="2" stroke-linejoin="round" stroke-linecap="round"/>
<circle cx="730.0" cy="127.9" r="6" fill="#fcfcfb"/>
<circle cx="730.0" cy="127.9" r="4" fill="#2a78d6"/>
<path d="M64.0,98.8 L77.6,98.9 L91.2,98.2 L104.8,98.2 L118.4,107.4 L132.0,120.8 L145.6,120.7 L159.1,117.1 L172.7,117.4 L186.3,117.8 L199.9,117.7 L213.5,117.7 L227.1,117.5 L240.7,117.7 L254.3,117.7 L267.9,117.7" fill="none" stroke="#1baf7a" stroke-width="2" stroke-linejoin="round" stroke-linecap="round"/>
<path d="M295.1,117.8 L308.7,134.9 L322.2,134.9 L335.8,136.9 L349.4,136.6 L363.0,136.6 L376.6,136.6 L390.2,136.6 L403.8,136.6 L417.4,136.6 L431.0,135.8 L444.6,135.8 L458.2,135.8 L471.8,135.8 L485.3,135.8 L498.9,136.0 L512.5,136.0 L526.1,136.0 L539.7,139.7 L553.3,139.7 L566.9,139.6 L580.5,139.6 L594.1,139.6 L607.7,139.6 L621.3,139.6 L634.9,139.6 L648.4,139.6 L662.0,139.6 L675.6,139.6 L689.2,139.6 L702.8,139.6 L716.4,139.6 L730.0,139.6" fill="none" stroke="#1baf7a" stroke-width="2" stroke-linejoin="round" stroke-linecap="round"/>
<circle cx="730.0" cy="139.6" r="6" fill="#fcfcfb"/>
<circle cx="730.0" cy="139.6" r="4" fill="#1baf7a"/>
<path d="M64.0,83.1 L77.6,83.1 L91.2,82.4 L104.8,82.4 L118.4,95.7 L132.0,110.0 L145.6,109.9 L159.1,106.6 L172.7,106.9 L186.3,107.2 L199.9,107.2 L213.5,107.0 L227.1,107.1 L240.7,107.1 L254.3,107.1 L267.9,107.1" fill="none" stroke="#eda100" stroke-width="2" stroke-linejoin="round" stroke-linecap="round"/>
<path d="M295.1,107.2 L308.7,125.6 L322.2,125.6 L335.8,127.5 L349.4,127.3 L363.0,127.3 L376.6,127.3 L390.2,127.3 L403.8,127.3 L417.4,127.5 L431.0,126.6 L444.6,126.3 L458.2,126.3 L471.8,126.3 L485.3,126.3 L498.9,126.9 L512.5,126.9 L526.1,126.8 L539.7,130.5 L553.3,130.5 L566.9,130.3 L580.5,130.3 L594.1,130.4 L607.7,130.4 L621.3,130.4 L634.9,130.4 L648.4,130.4 L662.0,130.4 L675.6,130.4 L689.2,130.4 L702.8,130.4 L716.4,130.4 L730.0,130.4" fill="none" stroke="#eda100" stroke-width="2" stroke-linejoin="round" stroke-linecap="round"/>
<circle cx="730.0" cy="130.4" r="6" fill="#fcfcfb"/>
<circle cx="730.0" cy="130.4" r="4" fill="#eda100"/>
<path d="M64.0,56.6 L77.6,56.6 L91.2,56.0 L104.8,56.0 L118.4,65.0 L132.0,82.2 L145.6,82.1 L159.1,78.6 L172.7,78.8 L186.3,79.3 L199.9,79.3 L213.5,79.2 L227.1,79.1 L240.7,79.2 L254.3,79.2 L267.9,79.2" fill="none" stroke="#008300" stroke-width="2" stroke-linejoin="round" stroke-linecap="round"/>
<path d="M295.1,79.2 L308.7,97.8 L322.2,97.8 L335.8,99.5 L349.4,99.2 L363.0,99.2 L376.6,99.2 L390.2,99.2 L403.8,99.2 L417.4,99.4 L431.0,98.8 L444.6,98.6 L458.2,98.6 L471.8,98.6 L485.3,98.6 L498.9,98.9 L512.5,98.9 L526.1,98.9 L539.7,102.4 L553.3,102.4 L566.9,102.3 L580.5,102.3 L594.1,102.4 L607.7,102.4 L621.3,102.4 L634.9,102.4 L648.4,102.4 L662.0,102.4 L675.6,102.4 L689.2,102.4 L702.8,102.4 L716.4,102.4 L730.0,102.4" fill="none" stroke="#008300" stroke-width="2" stroke-linejoin="round" stroke-linecap="round"/>
<circle cx="730.0" cy="102.4" r="6" fill="#fcfcfb"/>
<circle cx="730.0" cy="102.4" r="4" fill="#008300"/>
<path d="M64.0,222.5 L77.6,222.4 L91.2,222.5 L104.8,222.5 L118.4,229.0 L132.0,236.2 L145.6,236.1 L159.1,234.3 L172.7,234.3 L186.3,234.5 L199.9,234.5 L213.5,234.7 L227.1,234.7 L240.7,234.6 L254.3,234.6 L267.9,234.6" fill="none" stroke="#4a3aa7" stroke-width="2" stroke-linejoin="round" stroke-linecap="round"/>
<path d="M295.1,234.6 L308.7,240.3 L322.2,240.3 L335.8,240.1 L349.4,239.7 L363.0,239.7 L376.6,239.7 L390.2,239.7 L403.8,239.7 L417.4,239.6 L431.0,239.1 L444.6,239.1 L458.2,239.1 L471.8,239.1 L485.3,239.1 L498.9,239.2 L512.5,239.2 L526.1,239.2 L539.7,239.1 L553.3,239.1 L566.9,239.0 L580.5,239.0 L594.1,239.1 L607.7,239.1 L621.3,239.1 L634.9,239.1 L648.4,239.1 L662.0,239.1 L675.6,239.1 L689.2,239.1 L702.8,239.1 L716.4,239.1 L730.0,239.0" fill="none" stroke="#4a3aa7" stroke-width="2" stroke-linejoin="round" stroke-linecap="round"/>
<circle cx="730.0" cy="239.0" r="6" fill="#fcfcfb"/>
<circle cx="730.0" cy="239.0" r="4" fill="#4a3aa7"/>
<circle cx="745.0" cy="98.9" r="3.5" fill="#008300"/>
<text x="753.0" y="102.4" font-family='system-ui, -apple-system, "Segoe UI", sans-serif' font-size="11" fill="#0b0b0b">reverb</text>
<text x="753.0" y="114.4" font-family='system-ui, -apple-system, "Segoe UI", sans-serif' font-size="10" style="font-variant-numeric: tabular-nums" fill="#52514e">52.3M</text>
<circle cx="745.0" cy="126.9" r="3.5" fill="#2a78d6"/>
<text x="753.0" y="130.4" font-family='system-ui, -apple-system, "Segoe UI", sans-serif' font-size="11" fill="#0b0b0b">auto-filter</text>
<text x="753.0" y="142.4" font-family='system-ui, -apple-system, "Segoe UI", sans-serif' font-size="10" style="font-variant-numeric: tabular-nums" fill="#52514e">45.8M</text>
<line x1="736.0" y1="130.4" x2="740.0" y2="158.4" stroke="#c3c2b7" stroke-width="1"/>
<circle cx="745.0" cy="154.9" r="3.5" fill="#eda100"/>
<text x="753.0" y="158.4" font-family='system-ui, -apple-system, "Segoe UI", sans-serif' font-size="11" fill="#0b0b0b">echo</text>
<text x="753.0" y="170.4" font-family='system-ui, -apple-system, "Segoe UI", sans-serif' font-size="10" style="font-variant-numeric: tabular-nums" fill="#52514e">45.2M</text>
<line x1="736.0" y1="139.6" x2="740.0" y2="186.4" stroke="#c3c2b7" stroke-width="1"/>
<circle cx="745.0" cy="182.9" r="3.5" fill="#1baf7a"/>
<text x="753.0" y="186.4" font-family='system-ui, -apple-system, "Segoe UI", sans-serif' font-size="11" fill="#0b0b0b">autotune</text>
<text x="753.0" y="198.4" font-family='system-ui, -apple-system, "Segoe UI", sans-serif' font-size="10" style="font-variant-numeric: tabular-nums" fill="#52514e">42.8M</text>
<circle cx="745.0" cy="235.5" r="3.5" fill="#4a3aa7"/>
<text x="753.0" y="239.0" font-family='system-ui, -apple-system, "Segoe UI", sans-serif' font-size="11" fill="#0b0b0b">sampler-arp</text>
<text x="753.0" y="251.0" font-family='system-ui, -apple-system, "Segoe UI", sans-serif' font-size="10" style="font-variant-numeric: tabular-nums" fill="#52514e">17.2M</text>
</svg>