<svg xmlns="http://www.w3.org/2000/svg" width="880" height="340" viewBox="0 0 880 340" role="img" aria-label="Whole-instrument render cost">
<rect width="880" height="340" rx="6" fill="#fcfcfb"/>
<text x="64" y="24" font-family='system-ui, -apple-system, "Segoe UI", sans-serif' font-size="14" font-weight="600" fill="#0b0b0b">Whole-instrument render cost</text>
<text x="64" y="41" font-family='system-ui, -apple-system, "Segoe UI", sans-serif' font-size="11" fill="#52514e">render_block of 1 s of audio - callgrind instructions (Ir), per main commit, 2026-06-28 to 2026-07-08</text>
<line x1="64" y1="306.0" x2="730" y2="306.0" stroke="#e1e0d9" stroke-width="1"/>
<text x="56" y="309.5" text-anchor="end" font-family='system-ui, -apple-system, "Segoe UI", sans-serif' font-size="11" style="font-variant-numeric: tabular-nums" fill="#898781">0</text>
<line x1="64" y1="228.2" x2="730" y2="228.2" stroke="#e1e0d9" stroke-width="1"/>
<text x="56" y="231.7" text-anchor="end" font-family='system-ui, -apple-system, "Segoe UI", sans-serif' font-size="11" style="font-variant-numeric: tabular-nums" fill="#898781">20</text>
<line x1="64" y1="150.4" x2="730" y2="150.4" stroke="#e1e0d9" stroke-width="1"/>
<text x="56" y="153.9" text-anchor="end" font-family='system-ui, -apple-system, "Segoe UI", sans-serif' font-size="11" style="font-variant-numeric: tabular-nums" fill="#898781">40</text>
<line x1="64" y1="72.6" x2="730" y2="72.6" stroke="#e1e0d9" stroke-width="1"/>
<text x="56" y="76.1" text-anchor="end" font-family='system-ui, -apple-system, "Segoe UI", sans-serif' font-size="11" style="font-variant-numeric: tabular-nums" fill="#898781">60</text>
<text x="56" y="46" text-anchor="end" font-family='system-ui, -apple-system, "Segoe UI", sans-serif' font-size="10" fill="#898781">Ir (M)</text>
<line x1="64" y1="306" x2="730" y2="306" stroke="#c3c2b7" stroke-width="1"/>
<text x="64.0" y="322" text-anchor="middle" font-family='system-ui, -apple-system, "Segoe UI", sans-serif' font-size="11" style="font-variant-numeric: tabular-nums" fill="#898781">06-28</text>
<text x="150.9" y="322" text-anchor="middle" font-family='system-ui, -apple-system, "Segoe UI", sans-serif' font-size="11" style="font-variant-numeric: tabular-nums" fill="#898781">06-30</text>
<text x="223.3" y="322" text-anchor="middle" font-family='system-ui, -apple-system, "Segoe UI", sans-serif' font-size="11" style="font-variant-numeric: tabular-nums" fill="#898781">07-02</text>
<text x="382.5" y="322" text-anchor="middle" font-family='system-ui, -apple-system, "Segoe UI", sans-serif' font-size="11" style="font-variant-numeric: tabular-nums" fill="#898781">07-04</text>
<text x="614.2" y="322" text-anchor="middle" font-family='system-ui, -apple-system, "Segoe UI", sans-serif' font-size="11" style="font-variant-numeric: tabular-nums" fill="#898781">07-07</text>
<path d="M64.0,72.9 L78.5,73.0 L93.0,80.1 L107.4,80.1 L121.9,94.2 L136.4,108.6 L150.9,108.6 L165.3,105.1 L179.8,105.4 L194.3,105.7 L208.8,105.7 L223.3,105.6 L237.7,105.5 L252.2,105.5 L266.7,105.5 L281.2,105.5" fill="none" stroke="#2a78d6" stroke-width="2" stroke-linejoin="round" stroke-linecap="round"/>
<path d="M310.1,105.7 L324.6,122.6 L339.1,122.6 L353.6,125.2 L368.0,125.0 L382.5,125.0 L397.0,125.0 L411.5,125.0 L426.0,125.0 L440.4,125.0 L454.9,124.3 L469.4,124.3 L483.9,124.3 L498.3,124.3 L512.8,124.3 L527.3,124.5 L541.8,124.5 L556.3,124.5 L570.7,127.9 L585.2,127.9 L599.7,127.9 L614.2,127.9 L628.7,127.9 L643.1,127.9 L657.6,127.9 L672.1,127.9 L686.6,127.9 L701.0,127.9 L715.5,127.9 L730.0,127.9" fill="none" stroke="#2a78d6" stroke-width="2" stroke-linejoin="round" stroke-linecap="round"/>
<circle cx="730.0" cy="127.9" r="6" fill="#fcfcfb"/>
<circle cx="730.0" cy="127.9" r="4" fill="#2a78d6"/>
<path d="M64.0,98.8 L78.5,98.9 L93.0,98.2 L107.4,98.2 L121.9,107.4 L136.4,120.8 L150.9,120.7 L165.3,117.1 L179.8,117.4 L194.3,117.8 L208.8,117.7 L223.3,117.7 L237.7,117.5 L252.2,117.7 L266.7,117.7 L281.2,117.7" fill="none" stroke="#1baf7a" stroke-width="2" stroke-linejoin="round" stroke-linecap="round"/>
<path d="M310.1,117.8 L324.6,134.9 L339.1,134.9 L353.6,136.9 L368.0,136.6 L382.5,136.6 L397.0,136.6 L411.5,136.6 L426.0,136.6 L440.4,136.6 L454.9,135.8 L469.4,135.8 L483.9,135.8 L498.3,135.8 L512.8,135.8 L527.3,136.0 L541.8,136.0 L556.3,136.0 L570.7,139.7 L585.2,139.7 L599.7,139.6 L614.2,139.6 L628.7,139.6 L643.1,139.6 L657.6,139.6 L672.1,139.6 L686.6,139.6 L701.0,139.6 L715.5,139.6 L730.0,139.6" fill="none" stroke="#1baf7a" stroke-width="2" stroke-linejoin="round" stroke-linecap="round"/>
<circle cx="730.0" cy="139.6" r="6" fill="#fcfcfb"/>
<circle cx="730.0" cy="139.6" r="4" fill="#1baf7a"/>
<path d="M64.0,83.1 L78.5,83.1 L93.0,82.4 L107.4,82.4 L121.9,95.7 L136.4,110.0 L150.9,109.9 L165.3,106.6 L179.8,106.9 L194.3,107.2 L208.8,107.2 L223.3,107.0 L237.7,107.1 L252.2,107.1 L266.7,107.1 L281.2,107.1" fill="none" stroke="#eda100" stroke-width="2" stroke-linejoin="round" stroke-linecap="round"/>
<path d="M310.1,107.2 L324.6,125.6 L339.1,125.6 L353.6,127.5 L368.0,127.3 L382.5,127.3 L397.0,127.3 L411.5,127.3 L426.0,127.3 L440.4,127.5 L454.9,126.6 L469.4,126.3 L483.9,126.3 L498.3,126.3 L512.8,126.3 L527.3,126.9 L541.8,126.9 L556.3,126.8 L570.7,130.5 L585.2,130.5 L599.7,130.3 L614.2,130.3 L628.7,130.4 L643.1,130.4 L657.6,130.4 L672.1,130.4 L686.6,130.4 L701.0,130.4 L715.5,130.4 L730.0,130.4" fill="none" stroke="#eda100" stroke-width="2" stroke-linejoin="round" stroke-linecap="round"/>
<circle cx="730.0" cy="130.4" r="6" fill="#fcfcfb"/>
<circle cx="730.0" cy="130.4" r="4" fill="#eda100"/>
<path d="M64.0,56.6 L78.5,56.6 L93.0,56.0 L107.4,56.0 L121.9,65.0 L136.4,82.2 L150.9,82.1 L165.3,78.6 L179.8,78.8 L194.3,79.3 L208.8,79.3 L223.3,79.2 L237.7,79.1 L252.2,79.2 L266.7,79.2 L281.2,79.2" fill="none" stroke="#008300" stroke-width="2" stroke-linejoin="round" stroke-linecap="round"/>
<path d="M310.1,79.2 L324.6,97.8 L339.1,97.8 L353.6,99.5 L368.0,99.2 L382.5,99.2 L397.0,99.2 L411.5,99.2 L426.0,99.2 L440.4,99.4 L454.9,98.8 L469.4,98.6 L483.9,98.6 L498.3,98.6 L512.8,98.6 L527.3,98.9 L541.8,98.9 L556.3,98.9 L570.7,102.4 L585.2,102.4 L599.7,102.3 L614.2,102.3 L628.7,102.4 L643.1,102.4 L657.6,102.4 L672.1,102.4 L686.6,102.4 L701.0,102.4 L715.5,102.4 L730.0,102.4" fill="none" stroke="#008300" stroke-width="2" stroke-linejoin="round" stroke-linecap="round"/>
<circle cx="730.0" cy="102.4" r="6" fill="#fcfcfb"/>
<circle cx="730.0" cy="102.4" r="4" fill="#008300"/>
<path d="M64.0,222.5 L78.5,222.4 L93.0,222.5 L107.4,222.5 L121.9,229.0 L136.4,236.2 L150.9,236.1 L165.3,234.3 L179.8,234.3 L194.3,234.5 L208.8,234.5 L223.3,234.7 L237.7,234.7 L252.2,234.6 L266.7,234.6 L281.2,234.6" fill="none" stroke="#4a3aa7" stroke-width="2" stroke-linejoin="round" stroke-linecap="round"/>
<path d="M310.1,234.6 L324.6,240.3 L339.1,240.3 L353.6,240.1 L368.0,239.7 L382.5,239.7 L397.0,239.7 L411.5,239.7 L426.0,239.7 L440.4,239.6 L454.9,239.1 L469.4,239.1 L483.9,239.1 L498.3,239.1 L512.8,239.1 L527.3,239.2 L541.8,239.2 L556.3,239.2 L570.7,239.1 L585.2,239.1 L599.7,239.0 L614.2,239.0 L628.7,239.1 L643.1,239.1 L657.6,239.1 L672.1,239.1 L686.6,239.1 L701.0,239.1 L715.5,239.1 L730.0,239.1" fill="none" stroke="#4a3aa7" stroke-width="2" stroke-linejoin="round" stroke-linecap="round"/>
<circle cx="730.0" cy="239.1" r="6" fill="#fcfcfb"/>
<circle cx="730.0" cy="239.1" r="4" fill="#4a3aa7"/>
<circle cx="745.0" cy="98.9" r="3.5" fill="#008300"/>
<text x="753.0" y="102.4" font-family='system-ui, -apple-system, "Segoe UI", sans-serif' font-size="11" fill="#0b0b0b">reverb</text>
<text x="753.0" y="114.4" font-family='system-ui, -apple-system, "Segoe UI", sans-serif' font-size="10" style="font-variant-numeric: tabular-nums" fill="#52514e">52.3M</text>
<circle cx="745.0" cy="126.9" r="3.5" fill="#2a78d6"/>
<text x="753.0" y="130.4" font-family='system-ui, -apple-system, "Segoe UI", sans-serif' font-size="11" fill="#0b0b0b">auto-filter</text>
<text x="753.0" y="142.4" font-family='system-ui, -apple-system, "Segoe UI", sans-serif' font-size="10" style="font-variant-numeric: tabular-nums" fill="#52514e">45.8M</text>
<line x1="736.0" y1="130.4" x2="740.0" y2="158.4" stroke="#c3c2b7" stroke-width="1"/>
<circle cx="745.0" cy="154.9" r="3.5" fill="#eda100"/>
<text x="753.0" y="158.4" font-family='system-ui, -apple-system, "Segoe UI", sans-serif' font-size="11" fill="#0b0b0b">echo</text>
<text x="753.0" y="170.4" font-family='system-ui, -apple-system, "Segoe UI", sans-serif' font-size="10" style="font-variant-numeric: tabular-nums" fill="#52514e">45.2M</text>
<line x1="736.0" y1="139.6" x2="740.0" y2="186.4" stroke="#c3c2b7" stroke-width="1"/>
<circle cx="745.0" cy="182.9" r="3.5" fill="#1baf7a"/>
<text x="753.0" y="186.4" font-family='system-ui, -apple-system, "Segoe UI", sans-serif' font-size="11" fill="#0b0b0b">autotune</text>
<text x="753.0" y="198.4" font-family='system-ui, -apple-system, "Segoe UI", sans-serif' font-size="10" style="font-variant-numeric: tabular-nums" fill="#52514e">42.8M</text>
<circle cx="745.0" cy="235.6" r="3.5" fill="#4a3aa7"/>
<text x="753.0" y="239.1" font-family='system-ui, -apple-system, "Segoe UI", sans-serif' font-size="11" fill="#0b0b0b">sampler-arp</text>
<text x="753.0" y="251.1" font-family='system-ui, -apple-system, "Segoe UI", sans-serif' font-size="10" style="font-variant-numeric: tabular-nums" fill="#52514e">17.2M</text>
</svg>