<svg xmlns="http://www.w3.org/2000/svg" width="880" height="340" viewBox="0 0 880 340" role="img" aria-label="Whole-instrument render cost">
<rect width="880" height="340" rx="6" fill="#fcfcfb"/>
<text x="64" y="24" font-family='system-ui, -apple-system, "Segoe UI", sans-serif' font-size="14" font-weight="600" fill="#0b0b0b">Whole-instrument render cost</text>
<text x="64" y="41" font-family='system-ui, -apple-system, "Segoe UI", sans-serif' font-size="11" fill="#52514e">render_block of 1 s of audio - callgrind instructions (Ir), per dev commit, 2026-07-12 to 2026-07-21</text>
<line x1="64" y1="306.0" x2="730" y2="306.0" stroke="#e1e0d9" stroke-width="1"/>
<text x="56" y="309.5" text-anchor="end" font-family='system-ui, -apple-system, "Segoe UI", sans-serif' font-size="11" style="font-variant-numeric: tabular-nums" fill="#898781">0</text>
<line x1="64" y1="207.1" x2="730" y2="207.1" stroke="#e1e0d9" stroke-width="1"/>
<text x="56" y="210.6" text-anchor="end" font-family='system-ui, -apple-system, "Segoe UI", sans-serif' font-size="11" style="font-variant-numeric: tabular-nums" fill="#898781">20</text>
<line x1="64" y1="108.2" x2="730" y2="108.2" stroke="#e1e0d9" stroke-width="1"/>
<text x="56" y="111.7" text-anchor="end" font-family='system-ui, -apple-system, "Segoe UI", sans-serif' font-size="11" style="font-variant-numeric: tabular-nums" fill="#898781">40</text>
<text x="56" y="46" text-anchor="end" font-family='system-ui, -apple-system, "Segoe UI", sans-serif' font-size="10" fill="#898781">Ir (M)</text>
<line x1="64" y1="306" x2="730" y2="306" stroke="#c3c2b7" stroke-width="1"/>
<text x="64.0" y="322" text-anchor="middle" font-family='system-ui, -apple-system, "Segoe UI", sans-serif' font-size="11" style="font-variant-numeric: tabular-nums" fill="#898781">07-12</text>
<text x="153.7" y="322" text-anchor="middle" font-family='system-ui, -apple-system, "Segoe UI", sans-serif' font-size="11" style="font-variant-numeric: tabular-nums" fill="#898781">07-14</text>
<text x="268.9" y="322" text-anchor="middle" font-family='system-ui, -apple-system, "Segoe UI", sans-serif' font-size="11" style="font-variant-numeric: tabular-nums" fill="#898781">07-17</text>
<text x="422.6" y="322" text-anchor="middle" font-family='system-ui, -apple-system, "Segoe UI", sans-serif' font-size="11" style="font-variant-numeric: tabular-nums" fill="#898781">07-19</text>
<text x="653.2" y="322" text-anchor="middle" font-family='system-ui, -apple-system, "Segoe UI", sans-serif' font-size="11" style="font-variant-numeric: tabular-nums" fill="#898781">07-21</text>
<path d="M64.0,88.9 L76.8,88.9 L89.6,88.9 L102.4,88.9 L115.2,88.9 L128.0,88.9 L140.8,88.9 L153.7,88.9 L166.5,88.9 L179.3,88.9 L192.1,88.9 L204.9,88.9 L217.7,88.9 L230.5,88.9 L243.3,88.9 L256.1,88.9 L268.9,88.9 L281.7,88.9 L294.5,88.9 L307.3,88.9 L320.2,88.9 L333.0,88.9 L345.8,88.9 L358.6,88.9 L371.4,88.9 L384.2,88.9 L397.0,88.9 L409.8,88.9 L422.6,89.0 L435.4,89.0 L448.2,89.0 L461.0,89.0 L473.8,89.0 L486.7,89.3 L499.5,89.3 L512.3,89.3 L525.1,89.3 L537.9,89.3 L550.7,89.3 L563.5,89.2 L576.3,89.2 L589.1,89.3 L601.9,89.3 L614.7,89.3 L627.5,89.3 L640.3,89.3 L653.2,89.3 L666.0,89.3 L678.8,89.3 L691.6,89.3 L704.4,120.2 L717.2,120.2 L730.0,120.2" fill="none" stroke="#2a78d6" stroke-width="2" stroke-linejoin="round" stroke-linecap="round"/>
<circle cx="730.0" cy="120.2" r="6" fill="#fcfcfb"/>
<circle cx="730.0" cy="120.2" r="4" fill="#2a78d6"/>
<path d="M64.0,103.9 L76.8,103.9 L89.6,103.9 L102.4,103.9 L115.2,103.9 L128.0,103.9 L140.8,103.8 L153.7,103.8 L166.5,103.8 L179.3,103.8 L192.1,103.8 L204.9,103.8 L217.7,103.8 L230.5,103.8 L243.3,103.9 L256.1,103.9 L268.9,103.9 L281.7,103.9 L294.5,103.9 L307.3,103.9 L320.2,103.9 L333.0,103.9 L345.8,103.9 L358.6,103.9 L371.4,103.9 L384.2,103.9 L397.0,103.9 L409.8,103.9 L422.6,103.9 L435.4,103.9 L448.2,103.9 L461.0,103.9 L473.8,103.9 L486.7,104.2 L499.5,104.2 L512.3,104.2 L525.1,104.2 L537.9,104.1 L550.7,104.1 L563.5,104.2 L576.3,104.2 L589.1,104.2 L601.9,104.2 L614.7,104.2 L627.5,104.2 L640.3,104.2 L653.2,104.2 L666.0,104.2 L678.8,104.2 L691.6,104.2 L704.4,131.8 L717.2,131.8 L730.0,131.8" fill="none" stroke="#1baf7a" stroke-width="2" stroke-linejoin="round" stroke-linecap="round"/>
<circle cx="730.0" cy="131.8" r="6" fill="#fcfcfb"/>
<circle cx="730.0" cy="131.8" r="4" fill="#1baf7a"/>
<path d="M64.0,92.1 L76.8,92.1 L89.6,92.1 L102.4,92.1 L115.2,92.1 L128.0,92.1 L140.8,92.1 L153.7,92.1 L166.5,92.1 L179.3,92.1 L192.1,92.1 L204.9,92.1 L217.7,92.1 L230.5,92.1 L243.3,92.1 L256.1,92.1 L268.9,92.1 L281.7,92.1 L294.5,92.1 L307.3,92.1 L320.2,92.1 L333.0,92.1 L345.8,92.1 L358.6,92.1 L371.4,92.1 L384.2,92.1 L397.0,92.1 L409.8,92.1 L422.6,92.1 L435.4,92.1 L448.2,92.1 L461.0,92.1 L473.8,92.1 L486.7,92.4 L499.5,92.4 L512.3,92.4 L525.1,92.4 L537.9,92.4 L550.7,92.4 L563.5,92.3 L576.3,92.3 L589.1,92.4 L601.9,92.4 L614.7,92.4 L627.5,92.4 L640.3,92.4 L653.2,92.4 L666.0,92.4 L678.8,92.4 L691.6,92.4 L704.4,120.0 L717.2,119.9 L730.0,119.9" fill="none" stroke="#eda100" stroke-width="2" stroke-linejoin="round" stroke-linecap="round"/>
<circle cx="730.0" cy="119.9" r="6" fill="#fcfcfb"/>
<circle cx="730.0" cy="119.9" r="4" fill="#eda100"/>
<path d="M64.0,56.0 L76.8,56.0 L89.6,56.0 L102.4,56.0 L115.2,56.0 L128.0,56.0 L140.8,56.0 L153.7,56.0 L166.5,56.0 L179.3,56.0 L192.1,56.0 L204.9,56.0 L217.7,56.0 L230.5,56.0 L243.3,56.0 L256.1,56.0 L268.9,56.0 L281.7,56.0 L294.5,56.0 L307.3,56.0 L320.2,56.0 L333.0,56.0 L345.8,56.0 L358.6,56.0 L371.4,56.0 L384.2,56.0 L397.0,56.0 L409.8,56.0 L422.6,56.0 L435.4,56.0 L448.2,56.0 L461.0,56.0 L473.8,56.0 L486.7,56.3 L499.5,56.3 L512.3,56.3 L525.1,56.3 L537.9,56.3 L550.7,56.3 L563.5,56.2 L576.3,56.2 L589.1,56.3 L601.9,56.3 L614.7,56.3 L627.5,56.3 L640.3,56.3 L653.2,56.3 L666.0,56.3 L678.8,56.3 L691.6,56.3 L704.4,83.9 L717.2,83.9 L730.0,83.9" fill="none" stroke="#008300" stroke-width="2" stroke-linejoin="round" stroke-linecap="round"/>
<circle cx="730.0" cy="83.9" r="6" fill="#fcfcfb"/>
<circle cx="730.0" cy="83.9" r="4" fill="#008300"/>
<path d="M64.0,227.6 L76.8,227.6 L89.6,227.6 L102.4,227.6 L115.2,227.6 L128.0,227.6 L140.8,227.6 L153.7,227.6 L166.5,227.6 L179.3,227.6 L192.1,227.6 L204.9,227.6 L217.7,227.6 L230.5,227.6 L243.3,227.6 L256.1,227.6 L268.9,227.6 L281.7,227.6 L294.5,227.6 L307.3,227.6 L320.2,227.6 L333.0,227.6 L345.8,227.6 L358.6,227.6 L371.4,227.6 L384.2,227.6 L397.0,227.6 L409.8,227.6 L422.6,227.6 L435.4,227.6 L448.2,227.6 L461.0,227.6 L473.8,227.6 L486.7,227.8 L499.5,227.8 L512.3,227.8 L525.1,227.8 L537.9,227.7 L550.7,227.7 L563.5,227.8 L576.3,227.8 L589.1,227.7 L601.9,227.7 L614.7,227.7 L627.5,227.7 L640.3,227.7 L653.2,227.7 L666.0,227.7 L678.8,227.7 L691.6,227.7 L704.4,227.7 L717.2,227.7 L730.0,227.7" fill="none" stroke="#4a3aa7" stroke-width="2" stroke-linejoin="round" stroke-linecap="round"/>
<circle cx="730.0" cy="227.7" r="6" fill="#fcfcfb"/>
<circle cx="730.0" cy="227.7" r="4" fill="#4a3aa7"/>
<circle cx="745.0" cy="80.4" r="3.5" fill="#008300"/>
<text x="753.0" y="83.9" font-family='system-ui, -apple-system, "Segoe UI", sans-serif' font-size="11" fill="#0b0b0b">reverb</text>
<text x="753.0" y="95.9" font-family='system-ui, -apple-system, "Segoe UI", sans-serif' font-size="10" style="font-variant-numeric: tabular-nums" fill="#52514e">44.9M</text>
<circle cx="745.0" cy="116.4" r="3.5" fill="#eda100"/>
<text x="753.0" y="119.9" font-family='system-ui, -apple-system, "Segoe UI", sans-serif' font-size="11" fill="#0b0b0b">echo</text>
<text x="753.0" y="131.9" font-family='system-ui, -apple-system, "Segoe UI", sans-serif' font-size="10" style="font-variant-numeric: tabular-nums" fill="#52514e">37.6M</text>
<line x1="736.0" y1="120.2" x2="740.0" y2="147.9" stroke="#c3c2b7" stroke-width="1"/>
<circle cx="745.0" cy="144.4" r="3.5" fill="#2a78d6"/>
<text x="753.0" y="147.9" font-family='system-ui, -apple-system, "Segoe UI", sans-serif' font-size="11" fill="#0b0b0b">auto-filter</text>
<text x="753.0" y="159.9" font-family='system-ui, -apple-system, "Segoe UI", sans-serif' font-size="10" style="font-variant-numeric: tabular-nums" fill="#52514e">37.6M</text>
<line x1="736.0" y1="131.8" x2="740.0" y2="175.9" stroke="#c3c2b7" stroke-width="1"/>
<circle cx="745.0" cy="172.4" r="3.5" fill="#1baf7a"/>
<text x="753.0" y="175.9" font-family='system-ui, -apple-system, "Segoe UI", sans-serif' font-size="11" fill="#0b0b0b">autotune</text>
<text x="753.0" y="187.9" font-family='system-ui, -apple-system, "Segoe UI", sans-serif' font-size="10" style="font-variant-numeric: tabular-nums" fill="#52514e">35.2M</text>
<circle cx="745.0" cy="224.2" r="3.5" fill="#4a3aa7"/>
<text x="753.0" y="227.7" font-family='system-ui, -apple-system, "Segoe UI", sans-serif' font-size="11" fill="#0b0b0b">sampler-arp</text>
<text x="753.0" y="239.7" font-family='system-ui, -apple-system, "Segoe UI", sans-serif' font-size="10" style="font-variant-numeric: tabular-nums" fill="#52514e">15.8M</text>
</svg>