<svg xmlns="http://www.w3.org/2000/svg" width="880" height="340" viewBox="0 0 880 340" role="img" aria-label="Whole-instrument render cost">
<rect width="880" height="340" rx="6" fill="#1a1a19"/>
<text x="64" y="24" font-family='system-ui, -apple-system, "Segoe UI", sans-serif' font-size="14" font-weight="600" fill="#ffffff">Whole-instrument render cost</text>
<text x="64" y="41" font-family='system-ui, -apple-system, "Segoe UI", sans-serif' font-size="11" fill="#c3c2b7">render_block of 1 s of audio - callgrind instructions (Ir), per dev commit, 2026-07-12 to 2026-07-20</text>
<line x1="64" y1="306.0" x2="730" y2="306.0" stroke="#2c2c2a" stroke-width="1"/>
<text x="56" y="309.5" text-anchor="end" font-family='system-ui, -apple-system, "Segoe UI", sans-serif' font-size="11" style="font-variant-numeric: tabular-nums" fill="#898781">0</text>
<line x1="64" y1="207.1" x2="730" y2="207.1" stroke="#2c2c2a" stroke-width="1"/>
<text x="56" y="210.6" text-anchor="end" font-family='system-ui, -apple-system, "Segoe UI", sans-serif' font-size="11" style="font-variant-numeric: tabular-nums" fill="#898781">20</text>
<line x1="64" y1="108.2" x2="730" y2="108.2" stroke="#2c2c2a" stroke-width="1"/>
<text x="56" y="111.7" text-anchor="end" font-family='system-ui, -apple-system, "Segoe UI", sans-serif' font-size="11" style="font-variant-numeric: tabular-nums" fill="#898781">40</text>
<text x="56" y="46" text-anchor="end" font-family='system-ui, -apple-system, "Segoe UI", sans-serif' font-size="10" fill="#898781">Ir (M)</text>
<line x1="64" y1="306" x2="730" y2="306" stroke="#383835" stroke-width="1"/>
<text x="64.0" y="322" text-anchor="middle" font-family='system-ui, -apple-system, "Segoe UI", sans-serif' font-size="11" style="font-variant-numeric: tabular-nums" fill="#898781">07-12</text>
<text x="178.2" y="322" text-anchor="middle" font-family='system-ui, -apple-system, "Segoe UI", sans-serif' font-size="11" style="font-variant-numeric: tabular-nums" fill="#898781">07-13</text>
<text x="197.2" y="322" text-anchor="middle" font-family='system-ui, -apple-system, "Segoe UI", sans-serif' font-size="11" style="font-variant-numeric: tabular-nums" fill="#898781">07-14</text>
<text x="216.2" y="322" text-anchor="middle" font-family='system-ui, -apple-system, "Segoe UI", sans-serif' font-size="11" style="font-variant-numeric: tabular-nums" fill="#898781">07-16</text>
<text x="368.5" y="322" text-anchor="middle" font-family='system-ui, -apple-system, "Segoe UI", sans-serif' font-size="11" style="font-variant-numeric: tabular-nums" fill="#898781">07-17</text>
<text x="482.6" y="322" text-anchor="middle" font-family='system-ui, -apple-system, "Segoe UI", sans-serif' font-size="11" style="font-variant-numeric: tabular-nums" fill="#898781">07-18</text>
<text x="596.8" y="322" text-anchor="middle" font-family='system-ui, -apple-system, "Segoe UI", sans-serif' font-size="11" style="font-variant-numeric: tabular-nums" fill="#898781">07-19</text>
<text x="653.9" y="322" text-anchor="middle" font-family='system-ui, -apple-system, "Segoe UI", sans-serif' font-size="11" style="font-variant-numeric: tabular-nums" fill="#898781">07-20</text>
<path d="M64.0,88.9 L83.0,88.9 L102.1,88.9 L121.1,88.9 L140.1,88.9 L159.1,88.9 L178.2,88.9 L197.2,88.9 L216.2,88.9 L235.3,88.9 L254.3,88.9 L273.3,88.9 L292.3,88.9 L311.4,88.9 L330.4,88.9 L349.4,88.9 L368.5,88.9 L387.5,88.9 L406.5,88.9 L425.5,88.9 L444.6,88.9 L463.6,88.9 L482.6,88.9 L501.7,88.9 L520.7,88.9 L539.7,88.9 L558.7,88.9 L577.8,88.9 L596.8,89.0 L615.8,89.0 L634.9,89.0 L653.9,89.0 L672.9,89.0 L691.9,89.3 L711.0,89.3 L730.0,89.3" fill="none" stroke="#3987e5" stroke-width="2" stroke-linejoin="round" stroke-linecap="round"/>
<circle cx="730.0" cy="89.3" r="6" fill="#1a1a19"/>
<circle cx="730.0" cy="89.3" r="4" fill="#3987e5"/>
<path d="M64.0,103.9 L83.0,103.9 L102.1,103.9 L121.1,103.9 L140.1,103.9 L159.1,103.9 L178.2,103.8 L197.2,103.8 L216.2,103.8 L235.3,103.8 L254.3,103.8 L273.3,103.8 L292.3,103.8 L311.4,103.8 L330.4,103.9 L349.4,103.9 L368.5,103.9 L387.5,103.9 L406.5,103.9 L425.5,103.9 L444.6,103.9 L463.6,103.9 L482.6,103.9 L501.7,103.9 L520.7,103.9 L539.7,103.9 L558.7,103.9 L577.8,103.9 L596.8,103.9 L615.8,103.9 L634.9,103.9 L653.9,103.9 L672.9,103.9 L691.9,104.2 L711.0,104.2 L730.0,104.2" fill="none" stroke="#199e70" stroke-width="2" stroke-linejoin="round" stroke-linecap="round"/>
<circle cx="730.0" cy="104.2" r="6" fill="#1a1a19"/>
<circle cx="730.0" cy="104.2" r="4" fill="#199e70"/>
<path d="M64.0,92.1 L83.0,92.1 L102.1,92.1 L121.1,92.1 L140.1,92.1 L159.1,92.1 L178.2,92.1 L197.2,92.1 L216.2,92.1 L235.3,92.1 L254.3,92.1 L273.3,92.1 L292.3,92.1 L311.4,92.1 L330.4,92.1 L349.4,92.1 L368.5,92.1 L387.5,92.1 L406.5,92.1 L425.5,92.1 L444.6,92.1 L463.6,92.1 L482.6,92.1 L501.7,92.1 L520.7,92.1 L539.7,92.1 L558.7,92.1 L577.8,92.1 L596.8,92.1 L615.8,92.1 L634.9,92.1 L653.9,92.1 L672.9,92.1 L691.9,92.4 L711.0,92.4 L730.0,92.4" fill="none" stroke="#c98500" stroke-width="2" stroke-linejoin="round" stroke-linecap="round"/>
<circle cx="730.0" cy="92.4" r="6" fill="#1a1a19"/>
<circle cx="730.0" cy="92.4" r="4" fill="#c98500"/>
<path d="M64.0,56.0 L83.0,56.0 L102.1,56.0 L121.1,56.0 L140.1,56.0 L159.1,56.0 L178.2,56.0 L197.2,56.0 L216.2,56.0 L235.3,56.0 L254.3,56.0 L273.3,56.0 L292.3,56.0 L311.4,56.0 L330.4,56.0 L349.4,56.0 L368.5,56.0 L387.5,56.0 L406.5,56.0 L425.5,56.0 L444.6,56.0 L463.6,56.0 L482.6,56.0 L501.7,56.0 L520.7,56.0 L539.7,56.0 L558.7,56.0 L577.8,56.0 L596.8,56.0 L615.8,56.0 L634.9,56.0 L653.9,56.0 L672.9,56.0 L691.9,56.3 L711.0,56.3 L730.0,56.3" fill="none" stroke="#008300" stroke-width="2" stroke-linejoin="round" stroke-linecap="round"/>
<circle cx="730.0" cy="56.3" r="6" fill="#1a1a19"/>
<circle cx="730.0" cy="56.3" r="4" fill="#008300"/>
<path d="M64.0,227.6 L83.0,227.6 L102.1,227.6 L121.1,227.6 L140.1,227.6 L159.1,227.6 L178.2,227.6 L197.2,227.6 L216.2,227.6 L235.3,227.6 L254.3,227.6 L273.3,227.6 L292.3,227.6 L311.4,227.6 L330.4,227.6 L349.4,227.6 L368.5,227.6 L387.5,227.6 L406.5,227.6 L425.5,227.6 L444.6,227.6 L463.6,227.6 L482.6,227.6 L501.7,227.6 L520.7,227.6 L539.7,227.6 L558.7,227.6 L577.8,227.6 L596.8,227.6 L615.8,227.6 L634.9,227.6 L653.9,227.6 L672.9,227.6 L691.9,227.8 L711.0,227.8 L730.0,227.8" fill="none" stroke="#9085e9" stroke-width="2" stroke-linejoin="round" stroke-linecap="round"/>
<circle cx="730.0" cy="227.8" r="6" fill="#1a1a19"/>
<circle cx="730.0" cy="227.8" r="4" fill="#9085e9"/>
<circle cx="745.0" cy="52.8" r="3.5" fill="#008300"/>
<text x="753.0" y="56.3" font-family='system-ui, -apple-system, "Segoe UI", sans-serif' font-size="11" fill="#ffffff">reverb</text>
<text x="753.0" y="68.3" font-family='system-ui, -apple-system, "Segoe UI", sans-serif' font-size="10" style="font-variant-numeric: tabular-nums" fill="#c3c2b7">50.5M</text>
<circle cx="745.0" cy="85.8" r="3.5" fill="#3987e5"/>
<text x="753.0" y="89.3" font-family='system-ui, -apple-system, "Segoe UI", sans-serif' font-size="11" fill="#ffffff">auto-filter</text>
<text x="753.0" y="101.3" font-family='system-ui, -apple-system, "Segoe UI", sans-serif' font-size="10" style="font-variant-numeric: tabular-nums" fill="#c3c2b7">43.8M</text>
<line x1="736.0" y1="92.4" x2="740.0" y2="117.3" stroke="#383835" stroke-width="1"/>
<circle cx="745.0" cy="113.8" r="3.5" fill="#c98500"/>
<text x="753.0" y="117.3" font-family='system-ui, -apple-system, "Segoe UI", sans-serif' font-size="11" fill="#ffffff">echo</text>
<text x="753.0" y="129.3" font-family='system-ui, -apple-system, "Segoe UI", sans-serif' font-size="10" style="font-variant-numeric: tabular-nums" fill="#c3c2b7">43.2M</text>
<line x1="736.0" y1="104.2" x2="740.0" y2="145.3" stroke="#383835" stroke-width="1"/>
<circle cx="745.0" cy="141.8" r="3.5" fill="#199e70"/>
<text x="753.0" y="145.3" font-family='system-ui, -apple-system, "Segoe UI", sans-serif' font-size="11" fill="#ffffff">autotune</text>
<text x="753.0" y="157.3" font-family='system-ui, -apple-system, "Segoe UI", sans-serif' font-size="10" style="font-variant-numeric: tabular-nums" fill="#c3c2b7">40.8M</text>
<circle cx="745.0" cy="224.3" r="3.5" fill="#9085e9"/>
<text x="753.0" y="227.8" font-family='system-ui, -apple-system, "Segoe UI", sans-serif' font-size="11" fill="#ffffff">sampler-arp</text>
<text x="753.0" y="239.8" font-family='system-ui, -apple-system, "Segoe UI", sans-serif' font-size="10" style="font-variant-numeric: tabular-nums" fill="#c3c2b7">15.8M</text>
</svg>