<svg xmlns="http://www.w3.org/2000/svg" width="880" height="340" viewBox="0 0 880 340" role="img" aria-label="Whole-instrument render cost">
<rect width="880" height="340" rx="6" fill="#1a1a19"/>
<text x="64" y="24" font-family='system-ui, -apple-system, "Segoe UI", sans-serif' font-size="14" font-weight="600" fill="#ffffff">Whole-instrument render cost</text>
<text x="64" y="41" font-family='system-ui, -apple-system, "Segoe UI", sans-serif' font-size="11" fill="#c3c2b7">render_block of 1 s of audio - callgrind instructions (Ir), per main commit, 2026-06-28 to 2026-07-11</text>
<line x1="64" y1="306.0" x2="730" y2="306.0" stroke="#2c2c2a" stroke-width="1"/>
<text x="56" y="309.5" text-anchor="end" font-family='system-ui, -apple-system, "Segoe UI", sans-serif' font-size="11" style="font-variant-numeric: tabular-nums" fill="#898781">0</text>
<line x1="64" y1="228.2" x2="730" y2="228.2" stroke="#2c2c2a" stroke-width="1"/>
<text x="56" y="231.7" text-anchor="end" font-family='system-ui, -apple-system, "Segoe UI", sans-serif' font-size="11" style="font-variant-numeric: tabular-nums" fill="#898781">20</text>
<line x1="64" y1="150.4" x2="730" y2="150.4" stroke="#2c2c2a" stroke-width="1"/>
<text x="56" y="153.9" text-anchor="end" font-family='system-ui, -apple-system, "Segoe UI", sans-serif' font-size="11" style="font-variant-numeric: tabular-nums" fill="#898781">40</text>
<line x1="64" y1="72.6" x2="730" y2="72.6" stroke="#2c2c2a" stroke-width="1"/>
<text x="56" y="76.1" text-anchor="end" font-family='system-ui, -apple-system, "Segoe UI", sans-serif' font-size="11" style="font-variant-numeric: tabular-nums" fill="#898781">60</text>
<text x="56" y="46" text-anchor="end" font-family='system-ui, -apple-system, "Segoe UI", sans-serif' font-size="10" fill="#898781">Ir (M)</text>
<line x1="64" y1="306" x2="730" y2="306" stroke="#383835" stroke-width="1"/>
<text x="64.0" y="322" text-anchor="middle" font-family='system-ui, -apple-system, "Segoe UI", sans-serif' font-size="11" style="font-variant-numeric: tabular-nums" fill="#898781">06-28</text>
<text x="118.0" y="322" text-anchor="middle" font-family='system-ui, -apple-system, "Segoe UI", sans-serif' font-size="11" style="font-variant-numeric: tabular-nums" fill="#898781">06-30</text>
<text x="163.0" y="322" text-anchor="middle" font-family='system-ui, -apple-system, "Segoe UI", sans-serif' font-size="11" style="font-variant-numeric: tabular-nums" fill="#898781">07-02</text>
<text x="262.0" y="322" text-anchor="middle" font-family='system-ui, -apple-system, "Segoe UI", sans-serif' font-size="11" style="font-variant-numeric: tabular-nums" fill="#898781">07-04</text>
<text x="406.0" y="322" text-anchor="middle" font-family='system-ui, -apple-system, "Segoe UI", sans-serif' font-size="11" style="font-variant-numeric: tabular-nums" fill="#898781">07-07</text>
<text x="496.0" y="322" text-anchor="middle" font-family='system-ui, -apple-system, "Segoe UI", sans-serif' font-size="11" style="font-variant-numeric: tabular-nums" fill="#898781">07-09</text>
<text x="568.0" y="322" text-anchor="middle" font-family='system-ui, -apple-system, "Segoe UI", sans-serif' font-size="11" style="font-variant-numeric: tabular-nums" fill="#898781">07-11</text>
<path d="M64.0,72.9 L73.0,73.0 L82.0,80.1 L91.0,80.1 L100.0,94.2 L109.0,108.6 L118.0,108.6 L127.0,105.1 L136.0,105.4 L145.0,105.7 L154.0,105.7 L163.0,105.6 L172.0,105.5 L181.0,105.5 L190.0,105.5 L199.0,105.5" fill="none" stroke="#3987e5" stroke-width="2" stroke-linejoin="round" stroke-linecap="round"/>
<path d="M217.0,105.7 L226.0,122.6 L235.0,122.6 L244.0,125.2 L253.0,125.0 L262.0,125.0 L271.0,125.0 L280.0,125.0 L289.0,125.0 L298.0,125.0 L307.0,124.3 L316.0,124.3 L325.0,124.3 L334.0,124.3 L343.0,124.3 L352.0,124.5 L361.0,124.5 L370.0,124.5 L379.0,127.9 L388.0,127.9 L397.0,127.9 L406.0,127.9 L415.0,127.9 L424.0,127.9 L433.0,127.9 L442.0,127.9 L451.0,127.9 L460.0,127.9 L469.0,127.9 L478.0,127.9 L487.0,127.9 L496.0,127.9 L505.0,127.9 L514.0,128.8 L523.0,128.8 L532.0,128.8 L541.0,128.2 L550.0,132.1 L559.0,132.1 L568.0,131.7 L577.0,135.3 L586.0,135.3 L595.0,135.3 L604.0,135.3 L613.0,135.3 L622.0,135.3 L631.0,135.3 L640.0,135.3 L649.0,135.3 L658.0,135.3 L667.0,135.3 L676.0,135.3 L685.0,135.3 L694.0,135.3 L703.0,135.3 L712.0,135.3 L721.0,135.3 L730.0,135.3" fill="none" stroke="#3987e5" stroke-width="2" stroke-linejoin="round" stroke-linecap="round"/>
<circle cx="730.0" cy="135.3" r="6" fill="#1a1a19"/>
<circle cx="730.0" cy="135.3" r="4" fill="#3987e5"/>
<path d="M64.0,98.8 L73.0,98.9 L82.0,98.2 L91.0,98.2 L100.0,107.4 L109.0,120.8 L118.0,120.7 L127.0,117.1 L136.0,117.4 L145.0,117.8 L154.0,117.7 L163.0,117.7 L172.0,117.5 L181.0,117.7 L190.0,117.7 L199.0,117.7" fill="none" stroke="#199e70" stroke-width="2" stroke-linejoin="round" stroke-linecap="round"/>
<path d="M217.0,117.8 L226.0,134.9 L235.0,134.9 L244.0,136.9 L253.0,136.6 L262.0,136.6 L271.0,136.6 L280.0,136.6 L289.0,136.6 L298.0,136.6 L307.0,135.8 L316.0,135.8 L325.0,135.8 L334.0,135.8 L343.0,135.8 L352.0,136.0 L361.0,136.0 L370.0,136.0 L379.0,139.7 L388.0,139.7 L397.0,139.6 L406.0,139.6 L415.0,139.6 L424.0,139.6 L433.0,139.6 L442.0,139.6 L451.0,139.6 L460.0,139.6 L469.0,139.6 L478.0,139.6 L487.0,139.6 L496.0,139.6 L505.0,139.6 L514.0,140.5 L523.0,140.5 L532.0,140.5 L541.0,139.8 L550.0,143.5 L559.0,143.5 L568.0,143.5 L577.0,147.1 L586.0,147.1 L595.0,147.1 L604.0,147.1 L613.0,147.1 L622.0,147.1 L631.0,147.1 L640.0,147.1 L649.0,147.1 L658.0,147.1 L667.0,147.1 L676.0,147.1 L685.0,147.1 L694.0,147.1 L703.0,147.1 L712.0,147.1 L721.0,147.1 L730.0,147.1" fill="none" stroke="#199e70" stroke-width="2" stroke-linejoin="round" stroke-linecap="round"/>
<circle cx="730.0" cy="147.1" r="6" fill="#1a1a19"/>
<circle cx="730.0" cy="147.1" r="4" fill="#199e70"/>
<path d="M64.0,83.1 L73.0,83.1 L82.0,82.4 L91.0,82.4 L100.0,95.7 L109.0,110.0 L118.0,109.9 L127.0,106.6 L136.0,106.9 L145.0,107.2 L154.0,107.2 L163.0,107.0 L172.0,107.1 L181.0,107.1 L190.0,107.1 L199.0,107.1" fill="none" stroke="#c98500" stroke-width="2" stroke-linejoin="round" stroke-linecap="round"/>
<path d="M217.0,107.2 L226.0,125.6 L235.0,125.6 L244.0,127.5 L253.0,127.3 L262.0,127.3 L271.0,127.3 L280.0,127.3 L289.0,127.3 L298.0,127.5 L307.0,126.6 L316.0,126.3 L325.0,126.3 L334.0,126.3 L343.0,126.3 L352.0,126.9 L361.0,126.9 L370.0,126.8 L379.0,130.5 L388.0,130.5 L397.0,130.3 L406.0,130.3 L415.0,130.4 L424.0,130.4 L433.0,130.4 L442.0,130.4 L451.0,130.4 L460.0,130.4 L469.0,130.4 L478.0,130.4 L487.0,130.4 L496.0,130.4 L505.0,130.4 L514.0,131.3 L523.0,131.4 L532.0,131.4 L541.0,130.7 L550.0,133.9 L559.0,133.9 L568.0,133.9 L577.0,137.8 L586.0,137.8 L595.0,137.8 L604.0,137.8 L613.0,137.8 L622.0,137.8 L631.0,137.8 L640.0,137.8 L649.0,137.8 L658.0,137.8 L667.0,137.8 L676.0,137.8 L685.0,137.8 L694.0,137.8 L703.0,137.8 L712.0,137.8 L721.0,137.8 L730.0,137.8" fill="none" stroke="#c98500" stroke-width="2" stroke-linejoin="round" stroke-linecap="round"/>
<circle cx="730.0" cy="137.8" r="6" fill="#1a1a19"/>
<circle cx="730.0" cy="137.8" r="4" fill="#c98500"/>
<path d="M64.0,56.6 L73.0,56.6 L82.0,56.0 L91.0,56.0 L100.0,65.0 L109.0,82.2 L118.0,82.1 L127.0,78.6 L136.0,78.8 L145.0,79.3 L154.0,79.3 L163.0,79.2 L172.0,79.1 L181.0,79.2 L190.0,79.2 L199.0,79.2" fill="none" stroke="#008300" stroke-width="2" stroke-linejoin="round" stroke-linecap="round"/>
<path d="M217.0,79.2 L226.0,97.8 L235.0,97.8 L244.0,99.5 L253.0,99.2 L262.0,99.2 L271.0,99.2 L280.0,99.2 L289.0,99.2 L298.0,99.4 L307.0,98.8 L316.0,98.6 L325.0,98.6 L334.0,98.6 L343.0,98.6 L352.0,98.9 L361.0,98.9 L370.0,98.9 L379.0,102.4 L388.0,102.4 L397.0,102.3 L406.0,102.3 L415.0,102.4 L424.0,102.4 L433.0,102.4 L442.0,102.4 L451.0,102.4 L460.0,102.4 L469.0,102.4 L478.0,102.4 L487.0,102.4 L496.0,102.4 L505.0,102.4 L514.0,103.3 L523.0,103.3 L532.0,103.3 L541.0,102.7 L550.0,106.1 L559.0,106.1 L568.0,106.1 L577.0,109.4 L586.0,109.4 L595.0,109.4 L604.0,109.4 L613.0,109.4 L622.0,109.4 L631.0,109.4 L640.0,109.4 L649.0,109.4 L658.0,109.4 L667.0,109.4 L676.0,109.4 L685.0,109.4 L694.0,109.4 L703.0,109.4 L712.0,109.4 L721.0,109.4 L730.0,109.4" fill="none" stroke="#008300" stroke-width="2" stroke-linejoin="round" stroke-linecap="round"/>
<circle cx="730.0" cy="109.4" r="6" fill="#1a1a19"/>
<circle cx="730.0" cy="109.4" r="4" fill="#008300"/>
<path d="M64.0,222.5 L73.0,222.4 L82.0,222.5 L91.0,222.5 L100.0,229.0 L109.0,236.2 L118.0,236.1 L127.0,234.3 L136.0,234.3 L145.0,234.5 L154.0,234.5 L163.0,234.7 L172.0,234.7 L181.0,234.6 L190.0,234.6 L199.0,234.6" fill="none" stroke="#9085e9" stroke-width="2" stroke-linejoin="round" stroke-linecap="round"/>
<path d="M217.0,234.6 L226.0,240.3 L235.0,240.3 L244.0,240.1 L253.0,239.7 L262.0,239.7 L271.0,239.7 L280.0,239.7 L289.0,239.7 L298.0,239.6 L307.0,239.1 L316.0,239.1 L325.0,239.1 L334.0,239.1 L343.0,239.1 L352.0,239.2 L361.0,239.2 L370.0,239.2 L379.0,239.1 L388.0,239.1 L397.0,239.0 L406.0,239.0 L415.0,239.1 L424.0,239.1 L433.0,239.1 L442.0,239.1 L451.0,239.1 L460.0,239.1 L469.0,239.1 L478.0,239.1 L487.0,239.1 L496.0,239.1 L505.0,239.0 L514.0,239.5 L523.0,239.6 L532.0,239.6 L541.0,239.4 L550.0,241.0 L559.0,241.1 L568.0,241.1 L577.0,244.4 L586.0,244.4 L595.0,244.4 L604.0,244.4 L613.0,244.4 L622.0,244.4 L631.0,244.4 L640.0,244.4 L649.0,244.4 L658.0,244.4 L667.0,244.4 L676.0,244.4 L685.0,244.4 L694.0,244.4 L703.0,244.4 L712.0,244.4 L721.0,244.4 L730.0,244.4" fill="none" stroke="#9085e9" stroke-width="2" stroke-linejoin="round" stroke-linecap="round"/>
<circle cx="730.0" cy="244.4" r="6" fill="#1a1a19"/>
<circle cx="730.0" cy="244.4" r="4" fill="#9085e9"/>
<circle cx="745.0" cy="105.9" r="3.5" fill="#008300"/>
<text x="753.0" y="109.4" font-family='system-ui, -apple-system, "Segoe UI", sans-serif' font-size="11" fill="#ffffff">reverb</text>
<text x="753.0" y="121.4" font-family='system-ui, -apple-system, "Segoe UI", sans-serif' font-size="10" style="font-variant-numeric: tabular-nums" fill="#c3c2b7">50.5M</text>
<circle cx="745.0" cy="133.9" r="3.5" fill="#3987e5"/>
<text x="753.0" y="137.4" font-family='system-ui, -apple-system, "Segoe UI", sans-serif' font-size="11" fill="#ffffff">auto-filter</text>
<text x="753.0" y="149.4" font-family='system-ui, -apple-system, "Segoe UI", sans-serif' font-size="10" style="font-variant-numeric: tabular-nums" fill="#c3c2b7">43.9M</text>
<line x1="736.0" y1="137.8" x2="740.0" y2="165.4" stroke="#383835" stroke-width="1"/>
<circle cx="745.0" cy="161.9" r="3.5" fill="#c98500"/>
<text x="753.0" y="165.4" font-family='system-ui, -apple-system, "Segoe UI", sans-serif' font-size="11" fill="#ffffff">echo</text>
<text x="753.0" y="177.4" font-family='system-ui, -apple-system, "Segoe UI", sans-serif' font-size="10" style="font-variant-numeric: tabular-nums" fill="#c3c2b7">43.2M</text>
<line x1="736.0" y1="147.1" x2="740.0" y2="193.4" stroke="#383835" stroke-width="1"/>
<circle cx="745.0" cy="189.9" r="3.5" fill="#199e70"/>
<text x="753.0" y="193.4" font-family='system-ui, -apple-system, "Segoe UI", sans-serif' font-size="11" fill="#ffffff">autotune</text>
<text x="753.0" y="205.4" font-family='system-ui, -apple-system, "Segoe UI", sans-serif' font-size="10" style="font-variant-numeric: tabular-nums" fill="#c3c2b7">40.9M</text>
<circle cx="745.0" cy="240.9" r="3.5" fill="#9085e9"/>
<text x="753.0" y="244.4" font-family='system-ui, -apple-system, "Segoe UI", sans-serif' font-size="11" fill="#ffffff">sampler-arp</text>
<text x="753.0" y="256.4" font-family='system-ui, -apple-system, "Segoe UI", sans-serif' font-size="10" style="font-variant-numeric: tabular-nums" fill="#c3c2b7">15.8M</text>
</svg>