<svg xmlns="http://www.w3.org/2000/svg" width="880" height="340" viewBox="0 0 880 340" role="img" aria-label="Whole-instrument render cost">
<rect width="880" height="340" rx="6" fill="#1a1a19"/>
<text x="64" y="24" font-family='system-ui, -apple-system, "Segoe UI", sans-serif' font-size="14" font-weight="600" fill="#ffffff">Whole-instrument render cost</text>
<text x="64" y="41" font-family='system-ui, -apple-system, "Segoe UI", sans-serif' font-size="11" fill="#c3c2b7">render_block of 1 s of audio - callgrind instructions (Ir), per main commit, 2026-06-28 to 2026-07-11</text>
<line x1="64" y1="306.0" x2="730" y2="306.0" stroke="#2c2c2a" stroke-width="1"/>
<text x="56" y="309.5" text-anchor="end" font-family='system-ui, -apple-system, "Segoe UI", sans-serif' font-size="11" style="font-variant-numeric: tabular-nums" fill="#898781">0</text>
<line x1="64" y1="228.2" x2="730" y2="228.2" stroke="#2c2c2a" stroke-width="1"/>
<text x="56" y="231.7" text-anchor="end" font-family='system-ui, -apple-system, "Segoe UI", sans-serif' font-size="11" style="font-variant-numeric: tabular-nums" fill="#898781">20</text>
<line x1="64" y1="150.4" x2="730" y2="150.4" stroke="#2c2c2a" stroke-width="1"/>
<text x="56" y="153.9" text-anchor="end" font-family='system-ui, -apple-system, "Segoe UI", sans-serif' font-size="11" style="font-variant-numeric: tabular-nums" fill="#898781">40</text>
<line x1="64" y1="72.6" x2="730" y2="72.6" stroke="#2c2c2a" stroke-width="1"/>
<text x="56" y="76.1" text-anchor="end" font-family='system-ui, -apple-system, "Segoe UI", sans-serif' font-size="11" style="font-variant-numeric: tabular-nums" fill="#898781">60</text>
<text x="56" y="46" text-anchor="end" font-family='system-ui, -apple-system, "Segoe UI", sans-serif' font-size="10" fill="#898781">Ir (M)</text>
<line x1="64" y1="306" x2="730" y2="306" stroke="#383835" stroke-width="1"/>
<text x="64.0" y="322" text-anchor="middle" font-family='system-ui, -apple-system, "Segoe UI", sans-serif' font-size="11" style="font-variant-numeric: tabular-nums" fill="#898781">06-28</text>
<text x="126.4" y="322" text-anchor="middle" font-family='system-ui, -apple-system, "Segoe UI", sans-serif' font-size="11" style="font-variant-numeric: tabular-nums" fill="#898781">06-30</text>
<text x="178.5" y="322" text-anchor="middle" font-family='system-ui, -apple-system, "Segoe UI", sans-serif' font-size="11" style="font-variant-numeric: tabular-nums" fill="#898781">07-02</text>
<text x="292.9" y="322" text-anchor="middle" font-family='system-ui, -apple-system, "Segoe UI", sans-serif' font-size="11" style="font-variant-numeric: tabular-nums" fill="#898781">07-04</text>
<text x="459.4" y="322" text-anchor="middle" font-family='system-ui, -apple-system, "Segoe UI", sans-serif' font-size="11" style="font-variant-numeric: tabular-nums" fill="#898781">07-07</text>
<text x="563.5" y="322" text-anchor="middle" font-family='system-ui, -apple-system, "Segoe UI", sans-serif' font-size="11" style="font-variant-numeric: tabular-nums" fill="#898781">07-09</text>
<text x="646.8" y="322" text-anchor="middle" font-family='system-ui, -apple-system, "Segoe UI", sans-serif' font-size="11" style="font-variant-numeric: tabular-nums" fill="#898781">07-11</text>
<path d="M64.0,72.9 L74.4,73.0 L84.8,80.1 L95.2,80.1 L105.6,94.2 L116.0,108.6 L126.4,108.6 L136.8,105.1 L147.2,105.4 L157.7,105.7 L168.1,105.7 L178.5,105.6 L188.9,105.5 L199.3,105.5 L209.7,105.5 L220.1,105.5" fill="none" stroke="#3987e5" stroke-width="2" stroke-linejoin="round" stroke-linecap="round"/>
<path d="M240.9,105.7 L251.3,122.6 L261.7,122.6 L272.1,125.2 L282.5,125.0 L292.9,125.0 L303.3,125.0 L313.8,125.0 L324.2,125.0 L334.6,125.0 L345.0,124.3 L355.4,124.3 L365.8,124.3 L376.2,124.3 L386.6,124.3 L397.0,124.5 L407.4,124.5 L417.8,124.5 L428.2,127.9 L438.6,127.9 L449.0,127.9 L459.4,127.9 L469.8,127.9 L480.2,127.9 L490.7,127.9 L501.1,127.9 L511.5,127.9 L521.9,127.9 L532.3,127.9 L542.7,127.9 L553.1,127.9 L563.5,127.9 L573.9,127.9 L584.3,128.8 L594.7,128.8 L605.1,128.8 L615.5,128.2 L625.9,132.1 L636.3,132.1 L646.8,131.7 L657.2,135.3 L667.6,135.3 L678.0,135.3 L688.4,135.3 L698.8,135.3 L709.2,135.3 L719.6,135.3 L730.0,135.3" fill="none" stroke="#3987e5" stroke-width="2" stroke-linejoin="round" stroke-linecap="round"/>
<circle cx="730.0" cy="135.3" r="6" fill="#1a1a19"/>
<circle cx="730.0" cy="135.3" r="4" fill="#3987e5"/>
<path d="M64.0,98.8 L74.4,98.9 L84.8,98.2 L95.2,98.2 L105.6,107.4 L116.0,120.8 L126.4,120.7 L136.8,117.1 L147.2,117.4 L157.7,117.8 L168.1,117.7 L178.5,117.7 L188.9,117.5 L199.3,117.7 L209.7,117.7 L220.1,117.7" fill="none" stroke="#199e70" stroke-width="2" stroke-linejoin="round" stroke-linecap="round"/>
<path d="M240.9,117.8 L251.3,134.9 L261.7,134.9 L272.1,136.9 L282.5,136.6 L292.9,136.6 L303.3,136.6 L313.8,136.6 L324.2,136.6 L334.6,136.6 L345.0,135.8 L355.4,135.8 L365.8,135.8 L376.2,135.8 L386.6,135.8 L397.0,136.0 L407.4,136.0 L417.8,136.0 L428.2,139.7 L438.6,139.7 L449.0,139.6 L459.4,139.6 L469.8,139.6 L480.2,139.6 L490.7,139.6 L501.1,139.6 L511.5,139.6 L521.9,139.6 L532.3,139.6 L542.7,139.6 L553.1,139.6 L563.5,139.6 L573.9,139.6 L584.3,140.5 L594.7,140.5 L605.1,140.5 L615.5,139.8 L625.9,143.5 L636.3,143.5 L646.8,143.5 L657.2,147.1 L667.6,147.1 L678.0,147.1 L688.4,147.1 L698.8,147.1 L709.2,147.1 L719.6,147.1 L730.0,147.1" fill="none" stroke="#199e70" stroke-width="2" stroke-linejoin="round" stroke-linecap="round"/>
<circle cx="730.0" cy="147.1" r="6" fill="#1a1a19"/>
<circle cx="730.0" cy="147.1" r="4" fill="#199e70"/>
<path d="M64.0,83.1 L74.4,83.1 L84.8,82.4 L95.2,82.4 L105.6,95.7 L116.0,110.0 L126.4,109.9 L136.8,106.6 L147.2,106.9 L157.7,107.2 L168.1,107.2 L178.5,107.0 L188.9,107.1 L199.3,107.1 L209.7,107.1 L220.1,107.1" fill="none" stroke="#c98500" stroke-width="2" stroke-linejoin="round" stroke-linecap="round"/>
<path d="M240.9,107.2 L251.3,125.6 L261.7,125.6 L272.1,127.5 L282.5,127.3 L292.9,127.3 L303.3,127.3 L313.8,127.3 L324.2,127.3 L334.6,127.5 L345.0,126.6 L355.4,126.3 L365.8,126.3 L376.2,126.3 L386.6,126.3 L397.0,126.9 L407.4,126.9 L417.8,126.8 L428.2,130.5 L438.6,130.5 L449.0,130.3 L459.4,130.3 L469.8,130.4 L480.2,130.4 L490.7,130.4 L501.1,130.4 L511.5,130.4 L521.9,130.4 L532.3,130.4 L542.7,130.4 L553.1,130.4 L563.5,130.4 L573.9,130.4 L584.3,131.3 L594.7,131.4 L605.1,131.4 L615.5,130.7 L625.9,133.9 L636.3,133.9 L646.8,133.9 L657.2,137.8 L667.6,137.8 L678.0,137.8 L688.4,137.8 L698.8,137.8 L709.2,137.8 L719.6,137.8 L730.0,137.8" fill="none" stroke="#c98500" stroke-width="2" stroke-linejoin="round" stroke-linecap="round"/>
<circle cx="730.0" cy="137.8" r="6" fill="#1a1a19"/>
<circle cx="730.0" cy="137.8" r="4" fill="#c98500"/>
<path d="M64.0,56.6 L74.4,56.6 L84.8,56.0 L95.2,56.0 L105.6,65.0 L116.0,82.2 L126.4,82.1 L136.8,78.6 L147.2,78.8 L157.7,79.3 L168.1,79.3 L178.5,79.2 L188.9,79.1 L199.3,79.2 L209.7,79.2 L220.1,79.2" fill="none" stroke="#008300" stroke-width="2" stroke-linejoin="round" stroke-linecap="round"/>
<path d="M240.9,79.2 L251.3,97.8 L261.7,97.8 L272.1,99.5 L282.5,99.2 L292.9,99.2 L303.3,99.2 L313.8,99.2 L324.2,99.2 L334.6,99.4 L345.0,98.8 L355.4,98.6 L365.8,98.6 L376.2,98.6 L386.6,98.6 L397.0,98.9 L407.4,98.9 L417.8,98.9 L428.2,102.4 L438.6,102.4 L449.0,102.3 L459.4,102.3 L469.8,102.4 L480.2,102.4 L490.7,102.4 L501.1,102.4 L511.5,102.4 L521.9,102.4 L532.3,102.4 L542.7,102.4 L553.1,102.4 L563.5,102.4 L573.9,102.4 L584.3,103.3 L594.7,103.3 L605.1,103.3 L615.5,102.7 L625.9,106.1 L636.3,106.1 L646.8,106.1 L657.2,109.4 L667.6,109.4 L678.0,109.4 L688.4,109.4 L698.8,109.4 L709.2,109.4 L719.6,109.4 L730.0,109.4" fill="none" stroke="#008300" stroke-width="2" stroke-linejoin="round" stroke-linecap="round"/>
<circle cx="730.0" cy="109.4" r="6" fill="#1a1a19"/>
<circle cx="730.0" cy="109.4" r="4" fill="#008300"/>
<path d="M64.0,222.5 L74.4,222.4 L84.8,222.5 L95.2,222.5 L105.6,229.0 L116.0,236.2 L126.4,236.1 L136.8,234.3 L147.2,234.3 L157.7,234.5 L168.1,234.5 L178.5,234.7 L188.9,234.7 L199.3,234.6 L209.7,234.6 L220.1,234.6" fill="none" stroke="#9085e9" stroke-width="2" stroke-linejoin="round" stroke-linecap="round"/>
<path d="M240.9,234.6 L251.3,240.3 L261.7,240.3 L272.1,240.1 L282.5,239.7 L292.9,239.7 L303.3,239.7 L313.8,239.7 L324.2,239.7 L334.6,239.6 L345.0,239.1 L355.4,239.1 L365.8,239.1 L376.2,239.1 L386.6,239.1 L397.0,239.2 L407.4,239.2 L417.8,239.2 L428.2,239.1 L438.6,239.1 L449.0,239.0 L459.4,239.0 L469.8,239.1 L480.2,239.1 L490.7,239.1 L501.1,239.1 L511.5,239.1 L521.9,239.1 L532.3,239.1 L542.7,239.1 L553.1,239.1 L563.5,239.1 L573.9,239.0 L584.3,239.5 L594.7,239.6 L605.1,239.6 L615.5,239.4 L625.9,241.0 L636.3,241.1 L646.8,241.1 L657.2,244.4 L667.6,244.4 L678.0,244.4 L688.4,244.4 L698.8,244.4 L709.2,244.4 L719.6,244.4 L730.0,244.4" fill="none" stroke="#9085e9" stroke-width="2" stroke-linejoin="round" stroke-linecap="round"/>
<circle cx="730.0" cy="244.4" r="6" fill="#1a1a19"/>
<circle cx="730.0" cy="244.4" r="4" fill="#9085e9"/>
<circle cx="745.0" cy="105.9" r="3.5" fill="#008300"/>
<text x="753.0" y="109.4" font-family='system-ui, -apple-system, "Segoe UI", sans-serif' font-size="11" fill="#ffffff">reverb</text>
<text x="753.0" y="121.4" font-family='system-ui, -apple-system, "Segoe UI", sans-serif' font-size="10" style="font-variant-numeric: tabular-nums" fill="#c3c2b7">50.5M</text>
<circle cx="745.0" cy="133.9" r="3.5" fill="#3987e5"/>
<text x="753.0" y="137.4" font-family='system-ui, -apple-system, "Segoe UI", sans-serif' font-size="11" fill="#ffffff">auto-filter</text>
<text x="753.0" y="149.4" font-family='system-ui, -apple-system, "Segoe UI", sans-serif' font-size="10" style="font-variant-numeric: tabular-nums" fill="#c3c2b7">43.9M</text>
<line x1="736.0" y1="137.8" x2="740.0" y2="165.4" stroke="#383835" stroke-width="1"/>
<circle cx="745.0" cy="161.9" r="3.5" fill="#c98500"/>
<text x="753.0" y="165.4" font-family='system-ui, -apple-system, "Segoe UI", sans-serif' font-size="11" fill="#ffffff">echo</text>
<text x="753.0" y="177.4" font-family='system-ui, -apple-system, "Segoe UI", sans-serif' font-size="10" style="font-variant-numeric: tabular-nums" fill="#c3c2b7">43.2M</text>
<line x1="736.0" y1="147.1" x2="740.0" y2="193.4" stroke="#383835" stroke-width="1"/>
<circle cx="745.0" cy="189.9" r="3.5" fill="#199e70"/>
<text x="753.0" y="193.4" font-family='system-ui, -apple-system, "Segoe UI", sans-serif' font-size="11" fill="#ffffff">autotune</text>
<text x="753.0" y="205.4" font-family='system-ui, -apple-system, "Segoe UI", sans-serif' font-size="10" style="font-variant-numeric: tabular-nums" fill="#c3c2b7">40.9M</text>
<circle cx="745.0" cy="240.9" r="3.5" fill="#9085e9"/>
<text x="753.0" y="244.4" font-family='system-ui, -apple-system, "Segoe UI", sans-serif' font-size="11" fill="#ffffff">sampler-arp</text>
<text x="753.0" y="256.4" font-family='system-ui, -apple-system, "Segoe UI", sans-serif' font-size="10" style="font-variant-numeric: tabular-nums" fill="#c3c2b7">15.8M</text>
</svg>