<svg xmlns="http://www.w3.org/2000/svg" width="880" height="340" viewBox="0 0 880 340" role="img" aria-label="Whole-instrument render cost">
<rect width="880" height="340" rx="6" fill="#1a1a19"/>
<text x="64" y="24" font-family='system-ui, -apple-system, "Segoe UI", sans-serif' font-size="14" font-weight="600" fill="#ffffff">Whole-instrument render cost</text>
<text x="64" y="41" font-family='system-ui, -apple-system, "Segoe UI", sans-serif' font-size="11" fill="#c3c2b7">render_block of 1 s of audio - callgrind instructions (Ir), per main commit, 2026-06-28 to 2026-07-07</text>
<line x1="64" y1="306.0" x2="730" y2="306.0" stroke="#2c2c2a" stroke-width="1"/>
<text x="56" y="309.5" text-anchor="end" font-family='system-ui, -apple-system, "Segoe UI", sans-serif' font-size="11" style="font-variant-numeric: tabular-nums" fill="#898781">0</text>
<line x1="64" y1="228.2" x2="730" y2="228.2" stroke="#2c2c2a" stroke-width="1"/>
<text x="56" y="231.7" text-anchor="end" font-family='system-ui, -apple-system, "Segoe UI", sans-serif' font-size="11" style="font-variant-numeric: tabular-nums" fill="#898781">20</text>
<line x1="64" y1="150.4" x2="730" y2="150.4" stroke="#2c2c2a" stroke-width="1"/>
<text x="56" y="153.9" text-anchor="end" font-family='system-ui, -apple-system, "Segoe UI", sans-serif' font-size="11" style="font-variant-numeric: tabular-nums" fill="#898781">40</text>
<line x1="64" y1="72.6" x2="730" y2="72.6" stroke="#2c2c2a" stroke-width="1"/>
<text x="56" y="76.1" text-anchor="end" font-family='system-ui, -apple-system, "Segoe UI", sans-serif' font-size="11" style="font-variant-numeric: tabular-nums" fill="#898781">60</text>
<text x="56" y="46" text-anchor="end" font-family='system-ui, -apple-system, "Segoe UI", sans-serif' font-size="10" fill="#898781">Ir (M)</text>
<line x1="64" y1="306" x2="730" y2="306" stroke="#383835" stroke-width="1"/>
<text x="64.0" y="322" text-anchor="middle" font-family='system-ui, -apple-system, "Segoe UI", sans-serif' font-size="11" style="font-variant-numeric: tabular-nums" fill="#898781">06-28</text>
<text x="166.5" y="322" text-anchor="middle" font-family='system-ui, -apple-system, "Segoe UI", sans-serif' font-size="11" style="font-variant-numeric: tabular-nums" fill="#898781">06-30</text>
<text x="251.8" y="322" text-anchor="middle" font-family='system-ui, -apple-system, "Segoe UI", sans-serif' font-size="11" style="font-variant-numeric: tabular-nums" fill="#898781">07-02</text>
<text x="439.7" y="322" text-anchor="middle" font-family='system-ui, -apple-system, "Segoe UI", sans-serif' font-size="11" style="font-variant-numeric: tabular-nums" fill="#898781">07-04</text>
<text x="712.9" y="322" text-anchor="middle" font-family='system-ui, -apple-system, "Segoe UI", sans-serif' font-size="11" style="font-variant-numeric: tabular-nums" fill="#898781">07-07</text>
<path d="M64.0,72.9 L81.1,73.0 L98.2,80.1 L115.2,80.1 L132.3,94.2 L149.4,108.6 L166.5,108.6 L183.5,105.1 L200.6,105.4 L217.7,105.7 L234.8,105.7 L251.8,105.6 L268.9,105.5 L286.0,105.5 L303.1,105.5 L320.2,105.5" fill="none" stroke="#3987e5" stroke-width="2" stroke-linejoin="round" stroke-linecap="round"/>
<path d="M354.3,105.7 L371.4,122.6 L388.5,122.6 L405.5,125.2 L422.6,125.0 L439.7,125.0 L456.8,125.0 L473.8,125.0 L490.9,125.0 L508.0,125.0 L525.1,124.3 L542.2,124.3 L559.2,124.3 L576.3,124.3 L593.4,124.3 L610.5,124.5 L627.5,124.5 L644.6,124.5 L661.7,127.9 L678.8,127.9 L695.8,127.9 L712.9,127.9 L730.0,127.9" fill="none" stroke="#3987e5" stroke-width="2" stroke-linejoin="round" stroke-linecap="round"/>
<circle cx="730.0" cy="127.9" r="6" fill="#1a1a19"/>
<circle cx="730.0" cy="127.9" r="4" fill="#3987e5"/>
<path d="M64.0,98.8 L81.1,98.9 L98.2,98.2 L115.2,98.2 L132.3,107.4 L149.4,120.8 L166.5,120.7 L183.5,117.1 L200.6,117.4 L217.7,117.8 L234.8,117.7 L251.8,117.7 L268.9,117.5 L286.0,117.7 L303.1,117.7 L320.2,117.7" fill="none" stroke="#199e70" stroke-width="2" stroke-linejoin="round" stroke-linecap="round"/>
<path d="M354.3,117.8 L371.4,134.9 L388.5,134.9 L405.5,136.9 L422.6,136.6 L439.7,136.6 L456.8,136.6 L473.8,136.6 L490.9,136.6 L508.0,136.6 L525.1,135.8 L542.2,135.8 L559.2,135.8 L576.3,135.8 L593.4,135.8 L610.5,136.0 L627.5,136.0 L644.6,136.0 L661.7,139.7 L678.8,139.7 L695.8,139.6 L712.9,139.6 L730.0,139.6" fill="none" stroke="#199e70" stroke-width="2" stroke-linejoin="round" stroke-linecap="round"/>
<circle cx="730.0" cy="139.6" r="6" fill="#1a1a19"/>
<circle cx="730.0" cy="139.6" r="4" fill="#199e70"/>
<path d="M64.0,83.1 L81.1,83.1 L98.2,82.4 L115.2,82.4 L132.3,95.7 L149.4,110.0 L166.5,109.9 L183.5,106.6 L200.6,106.9 L217.7,107.2 L234.8,107.2 L251.8,107.0 L268.9,107.1 L286.0,107.1 L303.1,107.1 L320.2,107.1" fill="none" stroke="#c98500" stroke-width="2" stroke-linejoin="round" stroke-linecap="round"/>
<path d="M354.3,107.2 L371.4,125.6 L388.5,125.6 L405.5,127.5 L422.6,127.3 L439.7,127.3 L456.8,127.3 L473.8,127.3 L490.9,127.3 L508.0,127.5 L525.1,126.6 L542.2,126.3 L559.2,126.3 L576.3,126.3 L593.4,126.3 L610.5,126.9 L627.5,126.9 L644.6,126.8 L661.7,130.5 L678.8,130.5 L695.8,130.3 L712.9,130.3 L730.0,130.4" fill="none" stroke="#c98500" stroke-width="2" stroke-linejoin="round" stroke-linecap="round"/>
<circle cx="730.0" cy="130.4" r="6" fill="#1a1a19"/>
<circle cx="730.0" cy="130.4" r="4" fill="#c98500"/>
<path d="M64.0,56.6 L81.1,56.6 L98.2,56.0 L115.2,56.0 L132.3,65.0 L149.4,82.2 L166.5,82.1 L183.5,78.6 L200.6,78.8 L217.7,79.3 L234.8,79.3 L251.8,79.2 L268.9,79.1 L286.0,79.2 L303.1,79.2 L320.2,79.2" fill="none" stroke="#008300" stroke-width="2" stroke-linejoin="round" stroke-linecap="round"/>
<path d="M354.3,79.2 L371.4,97.8 L388.5,97.8 L405.5,99.5 L422.6,99.2 L439.7,99.2 L456.8,99.2 L473.8,99.2 L490.9,99.2 L508.0,99.4 L525.1,98.8 L542.2,98.6 L559.2,98.6 L576.3,98.6 L593.4,98.6 L610.5,98.9 L627.5,98.9 L644.6,98.9 L661.7,102.4 L678.8,102.4 L695.8,102.3 L712.9,102.3 L730.0,102.4" fill="none" stroke="#008300" stroke-width="2" stroke-linejoin="round" stroke-linecap="round"/>
<circle cx="730.0" cy="102.4" r="6" fill="#1a1a19"/>
<circle cx="730.0" cy="102.4" r="4" fill="#008300"/>
<path d="M64.0,222.5 L81.1,222.4 L98.2,222.5 L115.2,222.5 L132.3,229.0 L149.4,236.2 L166.5,236.1 L183.5,234.3 L200.6,234.3 L217.7,234.5 L234.8,234.5 L251.8,234.7 L268.9,234.7 L286.0,234.6 L303.1,234.6 L320.2,234.6" fill="none" stroke="#9085e9" stroke-width="2" stroke-linejoin="round" stroke-linecap="round"/>
<path d="M354.3,234.6 L371.4,240.3 L388.5,240.3 L405.5,240.1 L422.6,239.7 L439.7,239.7 L456.8,239.7 L473.8,239.7 L490.9,239.7 L508.0,239.6 L525.1,239.1 L542.2,239.1 L559.2,239.1 L576.3,239.1 L593.4,239.1 L610.5,239.2 L627.5,239.2 L644.6,239.2 L661.7,239.1 L678.8,239.1 L695.8,239.0 L712.9,239.0 L730.0,239.1" fill="none" stroke="#9085e9" stroke-width="2" stroke-linejoin="round" stroke-linecap="round"/>
<circle cx="730.0" cy="239.1" r="6" fill="#1a1a19"/>
<circle cx="730.0" cy="239.1" r="4" fill="#9085e9"/>
<circle cx="745.0" cy="98.9" r="3.5" fill="#008300"/>
<text x="753.0" y="102.4" font-family='system-ui, -apple-system, "Segoe UI", sans-serif' font-size="11" fill="#ffffff">reverb</text>
<text x="753.0" y="114.4" font-family='system-ui, -apple-system, "Segoe UI", sans-serif' font-size="10" style="font-variant-numeric: tabular-nums" fill="#c3c2b7">52.3M</text>
<circle cx="745.0" cy="126.9" r="3.5" fill="#3987e5"/>
<text x="753.0" y="130.4" font-family='system-ui, -apple-system, "Segoe UI", sans-serif' font-size="11" fill="#ffffff">auto-filter</text>
<text x="753.0" y="142.4" font-family='system-ui, -apple-system, "Segoe UI", sans-serif' font-size="10" style="font-variant-numeric: tabular-nums" fill="#c3c2b7">45.8M</text>
<line x1="736.0" y1="130.4" x2="740.0" y2="158.4" stroke="#383835" stroke-width="1"/>
<circle cx="745.0" cy="154.9" r="3.5" fill="#c98500"/>
<text x="753.0" y="158.4" font-family='system-ui, -apple-system, "Segoe UI", sans-serif' font-size="11" fill="#ffffff">echo</text>
<text x="753.0" y="170.4" font-family='system-ui, -apple-system, "Segoe UI", sans-serif' font-size="10" style="font-variant-numeric: tabular-nums" fill="#c3c2b7">45.2M</text>
<line x1="736.0" y1="139.6" x2="740.0" y2="186.4" stroke="#383835" stroke-width="1"/>
<circle cx="745.0" cy="182.9" r="3.5" fill="#199e70"/>
<text x="753.0" y="186.4" font-family='system-ui, -apple-system, "Segoe UI", sans-serif' font-size="11" fill="#ffffff">autotune</text>
<text x="753.0" y="198.4" font-family='system-ui, -apple-system, "Segoe UI", sans-serif' font-size="10" style="font-variant-numeric: tabular-nums" fill="#c3c2b7">42.8M</text>
<circle cx="745.0" cy="235.6" r="3.5" fill="#9085e9"/>
<text x="753.0" y="239.1" font-family='system-ui, -apple-system, "Segoe UI", sans-serif' font-size="11" fill="#ffffff">sampler-arp</text>
<text x="753.0" y="251.1" font-family='system-ui, -apple-system, "Segoe UI", sans-serif' font-size="10" style="font-variant-numeric: tabular-nums" fill="#c3c2b7">17.2M</text>
</svg>