<svg xmlns="http://www.w3.org/2000/svg" width="880" height="340" viewBox="0 0 880 340" role="img" aria-label="Whole-instrument render cost">
<rect width="880" height="340" rx="6" fill="#1a1a19"/>
<text x="64" y="24" font-family='system-ui, -apple-system, "Segoe UI", sans-serif' font-size="14" font-weight="600" fill="#ffffff">Whole-instrument render cost</text>
<text x="64" y="41" font-family='system-ui, -apple-system, "Segoe UI", sans-serif' font-size="11" fill="#c3c2b7">render_block of 1 s of audio - callgrind instructions (Ir), per main commit, 2026-06-28 to 2026-07-10</text>
<line x1="64" y1="306.0" x2="730" y2="306.0" stroke="#2c2c2a" stroke-width="1"/>
<text x="56" y="309.5" text-anchor="end" font-family='system-ui, -apple-system, "Segoe UI", sans-serif' font-size="11" style="font-variant-numeric: tabular-nums" fill="#898781">0</text>
<line x1="64" y1="228.2" x2="730" y2="228.2" stroke="#2c2c2a" stroke-width="1"/>
<text x="56" y="231.7" text-anchor="end" font-family='system-ui, -apple-system, "Segoe UI", sans-serif' font-size="11" style="font-variant-numeric: tabular-nums" fill="#898781">20</text>
<line x1="64" y1="150.4" x2="730" y2="150.4" stroke="#2c2c2a" stroke-width="1"/>
<text x="56" y="153.9" text-anchor="end" font-family='system-ui, -apple-system, "Segoe UI", sans-serif' font-size="11" style="font-variant-numeric: tabular-nums" fill="#898781">40</text>
<line x1="64" y1="72.6" x2="730" y2="72.6" stroke="#2c2c2a" stroke-width="1"/>
<text x="56" y="76.1" text-anchor="end" font-family='system-ui, -apple-system, "Segoe UI", sans-serif' font-size="11" style="font-variant-numeric: tabular-nums" fill="#898781">60</text>
<text x="56" y="46" text-anchor="end" font-family='system-ui, -apple-system, "Segoe UI", sans-serif' font-size="10" fill="#898781">Ir (M)</text>
<line x1="64" y1="306" x2="730" y2="306" stroke="#383835" stroke-width="1"/>
<text x="64.0" y="322" text-anchor="middle" font-family='system-ui, -apple-system, "Segoe UI", sans-serif' font-size="11" style="font-variant-numeric: tabular-nums" fill="#898781">06-28</text>
<text x="138.0" y="322" text-anchor="middle" font-family='system-ui, -apple-system, "Segoe UI", sans-serif' font-size="11" style="font-variant-numeric: tabular-nums" fill="#898781">06-30</text>
<text x="199.7" y="322" text-anchor="middle" font-family='system-ui, -apple-system, "Segoe UI", sans-serif' font-size="11" style="font-variant-numeric: tabular-nums" fill="#898781">07-02</text>
<text x="335.3" y="322" text-anchor="middle" font-family='system-ui, -apple-system, "Segoe UI", sans-serif' font-size="11" style="font-variant-numeric: tabular-nums" fill="#898781">07-04</text>
<text x="532.7" y="322" text-anchor="middle" font-family='system-ui, -apple-system, "Segoe UI", sans-serif' font-size="11" style="font-variant-numeric: tabular-nums" fill="#898781">07-07</text>
<text x="656.0" y="322" text-anchor="middle" font-family='system-ui, -apple-system, "Segoe UI", sans-serif' font-size="11" style="font-variant-numeric: tabular-nums" fill="#898781">07-09</text>
<path d="M64.0,72.9 L76.3,73.0 L88.7,80.1 L101.0,80.1 L113.3,94.2 L125.7,108.6 L138.0,108.6 L150.3,105.1 L162.7,105.4 L175.0,105.7 L187.3,105.7 L199.7,105.6 L212.0,105.5 L224.3,105.5 L236.7,105.5 L249.0,105.5" fill="none" stroke="#3987e5" stroke-width="2" stroke-linejoin="round" stroke-linecap="round"/>
<path d="M273.7,105.7 L286.0,122.6 L298.3,122.6 L310.7,125.2 L323.0,125.0 L335.3,125.0 L347.7,125.0 L360.0,125.0 L372.3,125.0 L384.7,125.0 L397.0,124.3 L409.3,124.3 L421.7,124.3 L434.0,124.3 L446.3,124.3 L458.7,124.5 L471.0,124.5 L483.3,124.5 L495.7,127.9 L508.0,127.9 L520.3,127.9 L532.7,127.9 L545.0,127.9 L557.3,127.9 L569.7,127.9 L582.0,127.9 L594.3,127.9 L606.7,127.9 L619.0,127.9 L631.3,127.9 L643.7,127.9 L656.0,127.9 L668.3,127.9 L680.7,128.8 L693.0,128.8 L705.3,128.8 L717.7,128.2 L730.0,132.1" fill="none" stroke="#3987e5" stroke-width="2" stroke-linejoin="round" stroke-linecap="round"/>
<circle cx="730.0" cy="132.1" r="6" fill="#1a1a19"/>
<circle cx="730.0" cy="132.1" r="4" fill="#3987e5"/>
<path d="M64.0,98.8 L76.3,98.9 L88.7,98.2 L101.0,98.2 L113.3,107.4 L125.7,120.8 L138.0,120.7 L150.3,117.1 L162.7,117.4 L175.0,117.8 L187.3,117.7 L199.7,117.7 L212.0,117.5 L224.3,117.7 L236.7,117.7 L249.0,117.7" fill="none" stroke="#199e70" stroke-width="2" stroke-linejoin="round" stroke-linecap="round"/>
<path d="M273.7,117.8 L286.0,134.9 L298.3,134.9 L310.7,136.9 L323.0,136.6 L335.3,136.6 L347.7,136.6 L360.0,136.6 L372.3,136.6 L384.7,136.6 L397.0,135.8 L409.3,135.8 L421.7,135.8 L434.0,135.8 L446.3,135.8 L458.7,136.0 L471.0,136.0 L483.3,136.0 L495.7,139.7 L508.0,139.7 L520.3,139.6 L532.7,139.6 L545.0,139.6 L557.3,139.6 L569.7,139.6 L582.0,139.6 L594.3,139.6 L606.7,139.6 L619.0,139.6 L631.3,139.6 L643.7,139.6 L656.0,139.6 L668.3,139.6 L680.7,140.5 L693.0,140.5 L705.3,140.5 L717.7,139.8 L730.0,143.5" fill="none" stroke="#199e70" stroke-width="2" stroke-linejoin="round" stroke-linecap="round"/>
<circle cx="730.0" cy="143.5" r="6" fill="#1a1a19"/>
<circle cx="730.0" cy="143.5" r="4" fill="#199e70"/>
<path d="M64.0,83.1 L76.3,83.1 L88.7,82.4 L101.0,82.4 L113.3,95.7 L125.7,110.0 L138.0,109.9 L150.3,106.6 L162.7,106.9 L175.0,107.2 L187.3,107.2 L199.7,107.0 L212.0,107.1 L224.3,107.1 L236.7,107.1 L249.0,107.1" fill="none" stroke="#c98500" stroke-width="2" stroke-linejoin="round" stroke-linecap="round"/>
<path d="M273.7,107.2 L286.0,125.6 L298.3,125.6 L310.7,127.5 L323.0,127.3 L335.3,127.3 L347.7,127.3 L360.0,127.3 L372.3,127.3 L384.7,127.5 L397.0,126.6 L409.3,126.3 L421.7,126.3 L434.0,126.3 L446.3,126.3 L458.7,126.9 L471.0,126.9 L483.3,126.8 L495.7,130.5 L508.0,130.5 L520.3,130.3 L532.7,130.3 L545.0,130.4 L557.3,130.4 L569.7,130.4 L582.0,130.4 L594.3,130.4 L606.7,130.4 L619.0,130.4 L631.3,130.4 L643.7,130.4 L656.0,130.4 L668.3,130.4 L680.7,131.3 L693.0,131.4 L705.3,131.4 L717.7,130.7 L730.0,133.9" fill="none" stroke="#c98500" stroke-width="2" stroke-linejoin="round" stroke-linecap="round"/>
<circle cx="730.0" cy="133.9" r="6" fill="#1a1a19"/>
<circle cx="730.0" cy="133.9" r="4" fill="#c98500"/>
<path d="M64.0,56.6 L76.3,56.6 L88.7,56.0 L101.0,56.0 L113.3,65.0 L125.7,82.2 L138.0,82.1 L150.3,78.6 L162.7,78.8 L175.0,79.3 L187.3,79.3 L199.7,79.2 L212.0,79.1 L224.3,79.2 L236.7,79.2 L249.0,79.2" fill="none" stroke="#008300" stroke-width="2" stroke-linejoin="round" stroke-linecap="round"/>
<path d="M273.7,79.2 L286.0,97.8 L298.3,97.8 L310.7,99.5 L323.0,99.2 L335.3,99.2 L347.7,99.2 L360.0,99.2 L372.3,99.2 L384.7,99.4 L397.0,98.8 L409.3,98.6 L421.7,98.6 L434.0,98.6 L446.3,98.6 L458.7,98.9 L471.0,98.9 L483.3,98.9 L495.7,102.4 L508.0,102.4 L520.3,102.3 L532.7,102.3 L545.0,102.4 L557.3,102.4 L569.7,102.4 L582.0,102.4 L594.3,102.4 L606.7,102.4 L619.0,102.4 L631.3,102.4 L643.7,102.4 L656.0,102.4 L668.3,102.4 L680.7,103.3 L693.0,103.3 L705.3,103.3 L717.7,102.7 L730.0,106.1" fill="none" stroke="#008300" stroke-width="2" stroke-linejoin="round" stroke-linecap="round"/>
<circle cx="730.0" cy="106.1" r="6" fill="#1a1a19"/>
<circle cx="730.0" cy="106.1" r="4" fill="#008300"/>
<path d="M64.0,222.5 L76.3,222.4 L88.7,222.5 L101.0,222.5 L113.3,229.0 L125.7,236.2 L138.0,236.1 L150.3,234.3 L162.7,234.3 L175.0,234.5 L187.3,234.5 L199.7,234.7 L212.0,234.7 L224.3,234.6 L236.7,234.6 L249.0,234.6" fill="none" stroke="#9085e9" stroke-width="2" stroke-linejoin="round" stroke-linecap="round"/>
<path d="M273.7,234.6 L286.0,240.3 L298.3,240.3 L310.7,240.1 L323.0,239.7 L335.3,239.7 L347.7,239.7 L360.0,239.7 L372.3,239.7 L384.7,239.6 L397.0,239.1 L409.3,239.1 L421.7,239.1 L434.0,239.1 L446.3,239.1 L458.7,239.2 L471.0,239.2 L483.3,239.2 L495.7,239.1 L508.0,239.1 L520.3,239.0 L532.7,239.0 L545.0,239.1 L557.3,239.1 L569.7,239.1 L582.0,239.1 L594.3,239.1 L606.7,239.1 L619.0,239.1 L631.3,239.1 L643.7,239.1 L656.0,239.1 L668.3,239.0 L680.7,239.5 L693.0,239.6 L705.3,239.6 L717.7,239.4 L730.0,241.0" fill="none" stroke="#9085e9" stroke-width="2" stroke-linejoin="round" stroke-linecap="round"/>
<circle cx="730.0" cy="241.0" r="6" fill="#1a1a19"/>
<circle cx="730.0" cy="241.0" r="4" fill="#9085e9"/>
<circle cx="745.0" cy="102.6" r="3.5" fill="#008300"/>
<text x="753.0" y="106.1" font-family='system-ui, -apple-system, "Segoe UI", sans-serif' font-size="11" fill="#ffffff">reverb</text>
<text x="753.0" y="118.1" font-family='system-ui, -apple-system, "Segoe UI", sans-serif' font-size="10" style="font-variant-numeric: tabular-nums" fill="#c3c2b7">51.4M</text>
<circle cx="745.0" cy="130.6" r="3.5" fill="#3987e5"/>
<text x="753.0" y="134.1" font-family='system-ui, -apple-system, "Segoe UI", sans-serif' font-size="11" fill="#ffffff">auto-filter</text>
<text x="753.0" y="146.1" font-family='system-ui, -apple-system, "Segoe UI", sans-serif' font-size="10" style="font-variant-numeric: tabular-nums" fill="#c3c2b7">44.7M</text>
<line x1="736.0" y1="133.9" x2="740.0" y2="162.1" stroke="#383835" stroke-width="1"/>
<circle cx="745.0" cy="158.6" r="3.5" fill="#c98500"/>
<text x="753.0" y="162.1" font-family='system-ui, -apple-system, "Segoe UI", sans-serif' font-size="11" fill="#ffffff">echo</text>
<text x="753.0" y="174.1" font-family='system-ui, -apple-system, "Segoe UI", sans-serif' font-size="10" style="font-variant-numeric: tabular-nums" fill="#c3c2b7">44.2M</text>
<line x1="736.0" y1="143.5" x2="740.0" y2="190.1" stroke="#383835" stroke-width="1"/>
<circle cx="745.0" cy="186.6" r="3.5" fill="#199e70"/>
<text x="753.0" y="190.1" font-family='system-ui, -apple-system, "Segoe UI", sans-serif' font-size="11" fill="#ffffff">autotune</text>
<text x="753.0" y="202.1" font-family='system-ui, -apple-system, "Segoe UI", sans-serif' font-size="10" style="font-variant-numeric: tabular-nums" fill="#c3c2b7">41.8M</text>
<circle cx="745.0" cy="237.5" r="3.5" fill="#9085e9"/>
<text x="753.0" y="241.0" font-family='system-ui, -apple-system, "Segoe UI", sans-serif' font-size="11" fill="#ffffff">sampler-arp</text>
<text x="753.0" y="253.0" font-family='system-ui, -apple-system, "Segoe UI", sans-serif' font-size="10" style="font-variant-numeric: tabular-nums" fill="#c3c2b7">16.7M</text>
</svg>