<svg xmlns="http://www.w3.org/2000/svg" width="880" height="340" viewBox="0 0 880 340" role="img" aria-label="Whole-instrument render cost">
<rect width="880" height="340" rx="6" fill="#1a1a19"/>
<text x="64" y="24" font-family='system-ui, -apple-system, "Segoe UI", sans-serif' font-size="14" font-weight="600" fill="#ffffff">Whole-instrument render cost</text>
<text x="64" y="41" font-family='system-ui, -apple-system, "Segoe UI", sans-serif' font-size="11" fill="#c3c2b7">render_block of 1 s of audio - callgrind instructions (Ir), per main commit, 2026-06-28 to 2026-07-08</text>
<line x1="64" y1="306.0" x2="730" y2="306.0" stroke="#2c2c2a" stroke-width="1"/>
<text x="56" y="309.5" text-anchor="end" font-family='system-ui, -apple-system, "Segoe UI", sans-serif' font-size="11" style="font-variant-numeric: tabular-nums" fill="#898781">0</text>
<line x1="64" y1="228.2" x2="730" y2="228.2" stroke="#2c2c2a" stroke-width="1"/>
<text x="56" y="231.7" text-anchor="end" font-family='system-ui, -apple-system, "Segoe UI", sans-serif' font-size="11" style="font-variant-numeric: tabular-nums" fill="#898781">20</text>
<line x1="64" y1="150.4" x2="730" y2="150.4" stroke="#2c2c2a" stroke-width="1"/>
<text x="56" y="153.9" text-anchor="end" font-family='system-ui, -apple-system, "Segoe UI", sans-serif' font-size="11" style="font-variant-numeric: tabular-nums" fill="#898781">40</text>
<line x1="64" y1="72.6" x2="730" y2="72.6" stroke="#2c2c2a" stroke-width="1"/>
<text x="56" y="76.1" text-anchor="end" font-family='system-ui, -apple-system, "Segoe UI", sans-serif' font-size="11" style="font-variant-numeric: tabular-nums" fill="#898781">60</text>
<text x="56" y="46" text-anchor="end" font-family='system-ui, -apple-system, "Segoe UI", sans-serif' font-size="10" fill="#898781">Ir (M)</text>
<line x1="64" y1="306" x2="730" y2="306" stroke="#383835" stroke-width="1"/>
<text x="64.0" y="322" text-anchor="middle" font-family='system-ui, -apple-system, "Segoe UI", sans-serif' font-size="11" style="font-variant-numeric: tabular-nums" fill="#898781">06-28</text>
<text x="154.8" y="322" text-anchor="middle" font-family='system-ui, -apple-system, "Segoe UI", sans-serif' font-size="11" style="font-variant-numeric: tabular-nums" fill="#898781">06-30</text>
<text x="230.5" y="322" text-anchor="middle" font-family='system-ui, -apple-system, "Segoe UI", sans-serif' font-size="11" style="font-variant-numeric: tabular-nums" fill="#898781">07-02</text>
<text x="397.0" y="322" text-anchor="middle" font-family='system-ui, -apple-system, "Segoe UI", sans-serif' font-size="11" style="font-variant-numeric: tabular-nums" fill="#898781">07-04</text>
<text x="639.2" y="322" text-anchor="middle" font-family='system-ui, -apple-system, "Segoe UI", sans-serif' font-size="11" style="font-variant-numeric: tabular-nums" fill="#898781">07-07</text>
<path d="M64.0,72.9 L79.1,73.0 L94.3,80.1 L109.4,80.1 L124.5,94.2 L139.7,108.6 L154.8,108.6 L170.0,105.1 L185.1,105.4 L200.2,105.7 L215.4,105.7 L230.5,105.6 L245.6,105.5 L260.8,105.5 L275.9,105.5 L291.0,105.5" fill="none" stroke="#3987e5" stroke-width="2" stroke-linejoin="round" stroke-linecap="round"/>
<path d="M321.3,105.7 L336.5,122.6 L351.6,122.6 L366.7,125.2 L381.9,125.0 L397.0,125.0 L412.1,125.0 L427.3,125.0 L442.4,125.0 L457.5,125.0 L472.7,124.3 L487.8,124.3 L503.0,124.3 L518.1,124.3 L533.2,124.3 L548.4,124.5 L563.5,124.5 L578.6,124.5 L593.8,127.9 L608.9,127.9 L624.0,127.9 L639.2,127.9 L654.3,127.9 L669.5,127.9 L684.6,127.9 L699.7,127.9 L714.9,127.9 L730.0,127.9" fill="none" stroke="#3987e5" stroke-width="2" stroke-linejoin="round" stroke-linecap="round"/>
<circle cx="730.0" cy="127.9" r="6" fill="#1a1a19"/>
<circle cx="730.0" cy="127.9" r="4" fill="#3987e5"/>
<path d="M64.0,98.8 L79.1,98.9 L94.3,98.2 L109.4,98.2 L124.5,107.4 L139.7,120.8 L154.8,120.7 L170.0,117.1 L185.1,117.4 L200.2,117.8 L215.4,117.7 L230.5,117.7 L245.6,117.5 L260.8,117.7 L275.9,117.7 L291.0,117.7" fill="none" stroke="#199e70" stroke-width="2" stroke-linejoin="round" stroke-linecap="round"/>
<path d="M321.3,117.8 L336.5,134.9 L351.6,134.9 L366.7,136.9 L381.9,136.6 L397.0,136.6 L412.1,136.6 L427.3,136.6 L442.4,136.6 L457.5,136.6 L472.7,135.8 L487.8,135.8 L503.0,135.8 L518.1,135.8 L533.2,135.8 L548.4,136.0 L563.5,136.0 L578.6,136.0 L593.8,139.7 L608.9,139.7 L624.0,139.6 L639.2,139.6 L654.3,139.6 L669.5,139.6 L684.6,139.6 L699.7,139.6 L714.9,139.6 L730.0,139.6" fill="none" stroke="#199e70" stroke-width="2" stroke-linejoin="round" stroke-linecap="round"/>
<circle cx="730.0" cy="139.6" r="6" fill="#1a1a19"/>
<circle cx="730.0" cy="139.6" r="4" fill="#199e70"/>
<path d="M64.0,83.1 L79.1,83.1 L94.3,82.4 L109.4,82.4 L124.5,95.7 L139.7,110.0 L154.8,109.9 L170.0,106.6 L185.1,106.9 L200.2,107.2 L215.4,107.2 L230.5,107.0 L245.6,107.1 L260.8,107.1 L275.9,107.1 L291.0,107.1" fill="none" stroke="#c98500" stroke-width="2" stroke-linejoin="round" stroke-linecap="round"/>
<path d="M321.3,107.2 L336.5,125.6 L351.6,125.6 L366.7,127.5 L381.9,127.3 L397.0,127.3 L412.1,127.3 L427.3,127.3 L442.4,127.3 L457.5,127.5 L472.7,126.6 L487.8,126.3 L503.0,126.3 L518.1,126.3 L533.2,126.3 L548.4,126.9 L563.5,126.9 L578.6,126.8 L593.8,130.5 L608.9,130.5 L624.0,130.3 L639.2,130.3 L654.3,130.4 L669.5,130.4 L684.6,130.4 L699.7,130.4 L714.9,130.4 L730.0,130.4" fill="none" stroke="#c98500" stroke-width="2" stroke-linejoin="round" stroke-linecap="round"/>
<circle cx="730.0" cy="130.4" r="6" fill="#1a1a19"/>
<circle cx="730.0" cy="130.4" r="4" fill="#c98500"/>
<path d="M64.0,56.6 L79.1,56.6 L94.3,56.0 L109.4,56.0 L124.5,65.0 L139.7,82.2 L154.8,82.1 L170.0,78.6 L185.1,78.8 L200.2,79.3 L215.4,79.3 L230.5,79.2 L245.6,79.1 L260.8,79.2 L275.9,79.2 L291.0,79.2" fill="none" stroke="#008300" stroke-width="2" stroke-linejoin="round" stroke-linecap="round"/>
<path d="M321.3,79.2 L336.5,97.8 L351.6,97.8 L366.7,99.5 L381.9,99.2 L397.0,99.2 L412.1,99.2 L427.3,99.2 L442.4,99.2 L457.5,99.4 L472.7,98.8 L487.8,98.6 L503.0,98.6 L518.1,98.6 L533.2,98.6 L548.4,98.9 L563.5,98.9 L578.6,98.9 L593.8,102.4 L608.9,102.4 L624.0,102.3 L639.2,102.3 L654.3,102.4 L669.5,102.4 L684.6,102.4 L699.7,102.4 L714.9,102.4 L730.0,102.4" fill="none" stroke="#008300" stroke-width="2" stroke-linejoin="round" stroke-linecap="round"/>
<circle cx="730.0" cy="102.4" r="6" fill="#1a1a19"/>
<circle cx="730.0" cy="102.4" r="4" fill="#008300"/>
<path d="M64.0,222.5 L79.1,222.4 L94.3,222.5 L109.4,222.5 L124.5,229.0 L139.7,236.2 L154.8,236.1 L170.0,234.3 L185.1,234.3 L200.2,234.5 L215.4,234.5 L230.5,234.7 L245.6,234.7 L260.8,234.6 L275.9,234.6 L291.0,234.6" fill="none" stroke="#9085e9" stroke-width="2" stroke-linejoin="round" stroke-linecap="round"/>
<path d="M321.3,234.6 L336.5,240.3 L351.6,240.3 L366.7,240.1 L381.9,239.7 L397.0,239.7 L412.1,239.7 L427.3,239.7 L442.4,239.7 L457.5,239.6 L472.7,239.1 L487.8,239.1 L503.0,239.1 L518.1,239.1 L533.2,239.1 L548.4,239.2 L563.5,239.2 L578.6,239.2 L593.8,239.1 L608.9,239.1 L624.0,239.0 L639.2,239.0 L654.3,239.1 L669.5,239.1 L684.6,239.1 L699.7,239.1 L714.9,239.1 L730.0,239.1" fill="none" stroke="#9085e9" stroke-width="2" stroke-linejoin="round" stroke-linecap="round"/>
<circle cx="730.0" cy="239.1" r="6" fill="#1a1a19"/>
<circle cx="730.0" cy="239.1" r="4" fill="#9085e9"/>
<circle cx="745.0" cy="98.9" r="3.5" fill="#008300"/>
<text x="753.0" y="102.4" font-family='system-ui, -apple-system, "Segoe UI", sans-serif' font-size="11" fill="#ffffff">reverb</text>
<text x="753.0" y="114.4" font-family='system-ui, -apple-system, "Segoe UI", sans-serif' font-size="10" style="font-variant-numeric: tabular-nums" fill="#c3c2b7">52.3M</text>
<circle cx="745.0" cy="126.9" r="3.5" fill="#3987e5"/>
<text x="753.0" y="130.4" font-family='system-ui, -apple-system, "Segoe UI", sans-serif' font-size="11" fill="#ffffff">auto-filter</text>
<text x="753.0" y="142.4" font-family='system-ui, -apple-system, "Segoe UI", sans-serif' font-size="10" style="font-variant-numeric: tabular-nums" fill="#c3c2b7">45.8M</text>
<line x1="736.0" y1="130.4" x2="740.0" y2="158.4" stroke="#383835" stroke-width="1"/>
<circle cx="745.0" cy="154.9" r="3.5" fill="#c98500"/>
<text x="753.0" y="158.4" font-family='system-ui, -apple-system, "Segoe UI", sans-serif' font-size="11" fill="#ffffff">echo</text>
<text x="753.0" y="170.4" font-family='system-ui, -apple-system, "Segoe UI", sans-serif' font-size="10" style="font-variant-numeric: tabular-nums" fill="#c3c2b7">45.2M</text>
<line x1="736.0" y1="139.6" x2="740.0" y2="186.4" stroke="#383835" stroke-width="1"/>
<circle cx="745.0" cy="182.9" r="3.5" fill="#199e70"/>
<text x="753.0" y="186.4" font-family='system-ui, -apple-system, "Segoe UI", sans-serif' font-size="11" fill="#ffffff">autotune</text>
<text x="753.0" y="198.4" font-family='system-ui, -apple-system, "Segoe UI", sans-serif' font-size="10" style="font-variant-numeric: tabular-nums" fill="#c3c2b7">42.8M</text>
<circle cx="745.0" cy="235.6" r="3.5" fill="#9085e9"/>
<text x="753.0" y="239.1" font-family='system-ui, -apple-system, "Segoe UI", sans-serif' font-size="11" fill="#ffffff">sampler-arp</text>
<text x="753.0" y="251.1" font-family='system-ui, -apple-system, "Segoe UI", sans-serif' font-size="10" style="font-variant-numeric: tabular-nums" fill="#c3c2b7">17.2M</text>
</svg>