<svg xmlns="http://www.w3.org/2000/svg" width="880" height="340" viewBox="0 0 880 340" role="img" aria-label="Whole-instrument render cost">
<rect width="880" height="340" rx="6" fill="#1a1a19"/>
<text x="64" y="24" font-family='system-ui, -apple-system, "Segoe UI", sans-serif' font-size="14" font-weight="600" fill="#ffffff">Whole-instrument render cost</text>
<text x="64" y="41" font-family='system-ui, -apple-system, "Segoe UI", sans-serif' font-size="11" fill="#c3c2b7">render_block of 1 s of audio - callgrind instructions (Ir), per main commit, 2026-06-28 to 2026-07-05</text>
<line x1="64" y1="306.0" x2="730" y2="306.0" stroke="#2c2c2a" stroke-width="1"/>
<text x="56" y="309.5" text-anchor="end" font-family='system-ui, -apple-system, "Segoe UI", sans-serif' font-size="11" style="font-variant-numeric: tabular-nums" fill="#898781">0</text>
<line x1="64" y1="228.2" x2="730" y2="228.2" stroke="#2c2c2a" stroke-width="1"/>
<text x="56" y="231.7" text-anchor="end" font-family='system-ui, -apple-system, "Segoe UI", sans-serif' font-size="11" style="font-variant-numeric: tabular-nums" fill="#898781">20</text>
<line x1="64" y1="150.4" x2="730" y2="150.4" stroke="#2c2c2a" stroke-width="1"/>
<text x="56" y="153.9" text-anchor="end" font-family='system-ui, -apple-system, "Segoe UI", sans-serif' font-size="11" style="font-variant-numeric: tabular-nums" fill="#898781">40</text>
<line x1="64" y1="72.6" x2="730" y2="72.6" stroke="#2c2c2a" stroke-width="1"/>
<text x="56" y="76.1" text-anchor="end" font-family='system-ui, -apple-system, "Segoe UI", sans-serif' font-size="11" style="font-variant-numeric: tabular-nums" fill="#898781">60</text>
<text x="56" y="46" text-anchor="end" font-family='system-ui, -apple-system, "Segoe UI", sans-serif' font-size="10" fill="#898781">Ir (M)</text>
<line x1="64" y1="306" x2="730" y2="306" stroke="#383835" stroke-width="1"/>
<text x="64.0" y="322" text-anchor="middle" font-family='system-ui, -apple-system, "Segoe UI", sans-serif' font-size="11" style="font-variant-numeric: tabular-nums" fill="#898781">06-28</text>
<text x="100.0" y="322" text-anchor="middle" font-family='system-ui, -apple-system, "Segoe UI", sans-serif' font-size="11" style="font-variant-numeric: tabular-nums" fill="#898781">06-29</text>
<text x="172.0" y="322" text-anchor="middle" font-family='system-ui, -apple-system, "Segoe UI", sans-serif' font-size="11" style="font-variant-numeric: tabular-nums" fill="#898781">06-30</text>
<text x="226.0" y="322" text-anchor="middle" font-family='system-ui, -apple-system, "Segoe UI", sans-serif' font-size="11" style="font-variant-numeric: tabular-nums" fill="#898781">07-01</text>
<text x="262.0" y="322" text-anchor="middle" font-family='system-ui, -apple-system, "Segoe UI", sans-serif' font-size="11" style="font-variant-numeric: tabular-nums" fill="#898781">07-02</text>
<text x="388.0" y="322" text-anchor="middle" font-family='system-ui, -apple-system, "Segoe UI", sans-serif' font-size="11" style="font-variant-numeric: tabular-nums" fill="#898781">07-03</text>
<text x="460.0" y="322" text-anchor="middle" font-family='system-ui, -apple-system, "Segoe UI", sans-serif' font-size="11" style="font-variant-numeric: tabular-nums" fill="#898781">07-04</text>
<text x="604.0" y="322" text-anchor="middle" font-family='system-ui, -apple-system, "Segoe UI", sans-serif' font-size="11" style="font-variant-numeric: tabular-nums" fill="#898781">07-05</text>
<path d="M64.0,72.9 L82.0,73.0 L100.0,80.1 L118.0,80.1 L136.0,94.2 L154.0,108.6 L172.0,108.6 L190.0,105.1 L208.0,105.4 L226.0,105.7 L244.0,105.7 L262.0,105.6 L280.0,105.5 L298.0,105.5 L316.0,105.5 L334.0,105.5" fill="none" stroke="#3987e5" stroke-width="2" stroke-linejoin="round" stroke-linecap="round"/>
<path d="M370.0,105.7 L388.0,122.6 L406.0,122.6 L424.0,125.2 L442.0,125.0 L460.0,125.0 L478.0,125.0 L496.0,125.0 L514.0,125.0 L532.0,125.0 L550.0,124.3 L568.0,124.3 L586.0,124.3 L604.0,124.3 L622.0,124.3 L640.0,124.5 L658.0,124.5 L676.0,124.5 L694.0,127.9 L712.0,127.9 L730.0,127.9" fill="none" stroke="#3987e5" stroke-width="2" stroke-linejoin="round" stroke-linecap="round"/>
<circle cx="730.0" cy="127.9" r="6" fill="#1a1a19"/>
<circle cx="730.0" cy="127.9" r="4" fill="#3987e5"/>
<path d="M64.0,98.8 L82.0,98.9 L100.0,98.2 L118.0,98.2 L136.0,107.4 L154.0,120.8 L172.0,120.7 L190.0,117.1 L208.0,117.4 L226.0,117.8 L244.0,117.7 L262.0,117.7 L280.0,117.5 L298.0,117.7 L316.0,117.7 L334.0,117.7" fill="none" stroke="#199e70" stroke-width="2" stroke-linejoin="round" stroke-linecap="round"/>
<path d="M370.0,117.8 L388.0,134.9 L406.0,134.9 L424.0,136.9 L442.0,136.6 L460.0,136.6 L478.0,136.6 L496.0,136.6 L514.0,136.6 L532.0,136.6 L550.0,135.8 L568.0,135.8 L586.0,135.8 L604.0,135.8 L622.0,135.8 L640.0,136.0 L658.0,136.0 L676.0,136.0 L694.0,139.7 L712.0,139.7 L730.0,139.6" fill="none" stroke="#199e70" stroke-width="2" stroke-linejoin="round" stroke-linecap="round"/>
<circle cx="730.0" cy="139.6" r="6" fill="#1a1a19"/>
<circle cx="730.0" cy="139.6" r="4" fill="#199e70"/>
<path d="M64.0,83.1 L82.0,83.1 L100.0,82.4 L118.0,82.4 L136.0,95.7 L154.0,110.0 L172.0,109.9 L190.0,106.6 L208.0,106.9 L226.0,107.2 L244.0,107.2 L262.0,107.0 L280.0,107.1 L298.0,107.1 L316.0,107.1 L334.0,107.1" fill="none" stroke="#c98500" stroke-width="2" stroke-linejoin="round" stroke-linecap="round"/>
<path d="M370.0,107.2 L388.0,125.6 L406.0,125.6 L424.0,127.5 L442.0,127.3 L460.0,127.3 L478.0,127.3 L496.0,127.3 L514.0,127.3 L532.0,127.5 L550.0,126.6 L568.0,126.3 L586.0,126.3 L604.0,126.3 L622.0,126.3 L640.0,126.9 L658.0,126.9 L676.0,126.8 L694.0,130.5 L712.0,130.5 L730.0,130.3" fill="none" stroke="#c98500" stroke-width="2" stroke-linejoin="round" stroke-linecap="round"/>
<circle cx="730.0" cy="130.3" r="6" fill="#1a1a19"/>
<circle cx="730.0" cy="130.3" r="4" fill="#c98500"/>
<path d="M64.0,56.6 L82.0,56.6 L100.0,56.0 L118.0,56.0 L136.0,65.0 L154.0,82.2 L172.0,82.1 L190.0,78.6 L208.0,78.8 L226.0,79.3 L244.0,79.3 L262.0,79.2 L280.0,79.1 L298.0,79.2 L316.0,79.2 L334.0,79.2" fill="none" stroke="#008300" stroke-width="2" stroke-linejoin="round" stroke-linecap="round"/>
<path d="M370.0,79.2 L388.0,97.8 L406.0,97.8 L424.0,99.5 L442.0,99.2 L460.0,99.2 L478.0,99.2 L496.0,99.2 L514.0,99.2 L532.0,99.4 L550.0,98.8 L568.0,98.6 L586.0,98.6 L604.0,98.6 L622.0,98.6 L640.0,98.9 L658.0,98.9 L676.0,98.9 L694.0,102.4 L712.0,102.4 L730.0,102.3" fill="none" stroke="#008300" stroke-width="2" stroke-linejoin="round" stroke-linecap="round"/>
<circle cx="730.0" cy="102.3" r="6" fill="#1a1a19"/>
<circle cx="730.0" cy="102.3" r="4" fill="#008300"/>
<path d="M64.0,222.5 L82.0,222.4 L100.0,222.5 L118.0,222.5 L136.0,229.0 L154.0,236.2 L172.0,236.1 L190.0,234.3 L208.0,234.3 L226.0,234.5 L244.0,234.5 L262.0,234.7 L280.0,234.7 L298.0,234.6 L316.0,234.6 L334.0,234.6" fill="none" stroke="#9085e9" stroke-width="2" stroke-linejoin="round" stroke-linecap="round"/>
<path d="M370.0,234.6 L388.0,240.3 L406.0,240.3 L424.0,240.1 L442.0,239.7 L460.0,239.7 L478.0,239.7 L496.0,239.7 L514.0,239.7 L532.0,239.6 L550.0,239.1 L568.0,239.1 L586.0,239.1 L604.0,239.1 L622.0,239.1 L640.0,239.2 L658.0,239.2 L676.0,239.2 L694.0,239.1 L712.0,239.1 L730.0,239.0" fill="none" stroke="#9085e9" stroke-width="2" stroke-linejoin="round" stroke-linecap="round"/>
<circle cx="730.0" cy="239.0" r="6" fill="#1a1a19"/>
<circle cx="730.0" cy="239.0" r="4" fill="#9085e9"/>
<circle cx="745.0" cy="98.8" r="3.5" fill="#008300"/>
<text x="753.0" y="102.3" font-family='system-ui, -apple-system, "Segoe UI", sans-serif' font-size="11" fill="#ffffff">reverb</text>
<text x="753.0" y="114.3" font-family='system-ui, -apple-system, "Segoe UI", sans-serif' font-size="10" style="font-variant-numeric: tabular-nums" fill="#c3c2b7">52.4M</text>
<circle cx="745.0" cy="126.8" r="3.5" fill="#3987e5"/>
<text x="753.0" y="130.3" font-family='system-ui, -apple-system, "Segoe UI", sans-serif' font-size="11" fill="#ffffff">auto-filter</text>
<text x="753.0" y="142.3" font-family='system-ui, -apple-system, "Segoe UI", sans-serif' font-size="10" style="font-variant-numeric: tabular-nums" fill="#c3c2b7">45.8M</text>
<line x1="736.0" y1="130.3" x2="740.0" y2="158.3" stroke="#383835" stroke-width="1"/>
<circle cx="745.0" cy="154.8" r="3.5" fill="#c98500"/>
<text x="753.0" y="158.3" font-family='system-ui, -apple-system, "Segoe UI", sans-serif' font-size="11" fill="#ffffff">echo</text>
<text x="753.0" y="170.3" font-family='system-ui, -apple-system, "Segoe UI", sans-serif' font-size="10" style="font-variant-numeric: tabular-nums" fill="#c3c2b7">45.2M</text>
<line x1="736.0" y1="139.6" x2="740.0" y2="186.3" stroke="#383835" stroke-width="1"/>
<circle cx="745.0" cy="182.8" r="3.5" fill="#199e70"/>
<text x="753.0" y="186.3" font-family='system-ui, -apple-system, "Segoe UI", sans-serif' font-size="11" fill="#ffffff">autotune</text>
<text x="753.0" y="198.3" font-family='system-ui, -apple-system, "Segoe UI", sans-serif' font-size="10" style="font-variant-numeric: tabular-nums" fill="#c3c2b7">42.8M</text>
<circle cx="745.0" cy="235.5" r="3.5" fill="#9085e9"/>
<text x="753.0" y="239.0" font-family='system-ui, -apple-system, "Segoe UI", sans-serif' font-size="11" fill="#ffffff">sampler-arp</text>
<text x="753.0" y="251.0" font-family='system-ui, -apple-system, "Segoe UI", sans-serif' font-size="10" style="font-variant-numeric: tabular-nums" fill="#c3c2b7">17.2M</text>
</svg>