<svg xmlns="http://www.w3.org/2000/svg" width="880" height="340" viewBox="0 0 880 340" role="img" aria-label="Whole-instrument render cost">
<rect width="880" height="340" rx="6" fill="#fcfcfb"/>
<text x="64" y="24" font-family='system-ui, -apple-system, "Segoe UI", sans-serif' font-size="14" font-weight="600" fill="#0b0b0b">Whole-instrument render cost</text>
<text x="64" y="41" font-family='system-ui, -apple-system, "Segoe UI", sans-serif' font-size="11" fill="#52514e">render_block of 1 s of audio - callgrind instructions (Ir), per dev commit, 2026-07-12 to 2026-07-18</text>
<line x1="64" y1="306.0" x2="730" y2="306.0" stroke="#e1e0d9" stroke-width="1"/>
<text x="56" y="309.5" text-anchor="end" font-family='system-ui, -apple-system, "Segoe UI", sans-serif' font-size="11" style="font-variant-numeric: tabular-nums" fill="#898781">0</text>
<line x1="64" y1="207.1" x2="730" y2="207.1" stroke="#e1e0d9" stroke-width="1"/>
<text x="56" y="210.6" text-anchor="end" font-family='system-ui, -apple-system, "Segoe UI", sans-serif' font-size="11" style="font-variant-numeric: tabular-nums" fill="#898781">20</text>
<line x1="64" y1="108.2" x2="730" y2="108.2" stroke="#e1e0d9" stroke-width="1"/>
<text x="56" y="111.7" text-anchor="end" font-family='system-ui, -apple-system, "Segoe UI", sans-serif' font-size="11" style="font-variant-numeric: tabular-nums" fill="#898781">40</text>
<text x="56" y="46" text-anchor="end" font-family='system-ui, -apple-system, "Segoe UI", sans-serif' font-size="10" fill="#898781">Ir (M)</text>
<line x1="64" y1="306" x2="730" y2="306" stroke="#c3c2b7" stroke-width="1"/>
<text x="64.0" y="322" text-anchor="middle" font-family='system-ui, -apple-system, "Segoe UI", sans-serif' font-size="11" style="font-variant-numeric: tabular-nums" fill="#898781">07-12</text>
<text x="230.5" y="322" text-anchor="middle" font-family='system-ui, -apple-system, "Segoe UI", sans-serif' font-size="11" style="font-variant-numeric: tabular-nums" fill="#898781">07-13</text>
<text x="258.2" y="322" text-anchor="middle" font-family='system-ui, -apple-system, "Segoe UI", sans-serif' font-size="11" style="font-variant-numeric: tabular-nums" fill="#898781">07-14</text>
<text x="286.0" y="322" text-anchor="middle" font-family='system-ui, -apple-system, "Segoe UI", sans-serif' font-size="11" style="font-variant-numeric: tabular-nums" fill="#898781">07-16</text>
<text x="508.0" y="322" text-anchor="middle" font-family='system-ui, -apple-system, "Segoe UI", sans-serif' font-size="11" style="font-variant-numeric: tabular-nums" fill="#898781">07-17</text>
<text x="674.5" y="322" text-anchor="middle" font-family='system-ui, -apple-system, "Segoe UI", sans-serif' font-size="11" style="font-variant-numeric: tabular-nums" fill="#898781">07-18</text>
<path d="M64.0,88.9 L91.8,88.9 L119.5,88.9 L147.2,88.9 L175.0,88.9 L202.8,88.9 L230.5,88.9 L258.2,88.9 L286.0,88.9 L313.8,88.9 L341.5,88.9 L369.2,88.9 L397.0,88.9 L424.8,88.9 L452.5,88.9 L480.2,88.9 L508.0,88.9 L535.8,88.9 L563.5,88.9 L591.2,88.9 L619.0,88.9 L646.8,88.9 L674.5,88.9 L702.2,88.9 L730.0,88.9" fill="none" stroke="#2a78d6" stroke-width="2" stroke-linejoin="round" stroke-linecap="round"/>
<circle cx="730.0" cy="88.9" r="6" fill="#fcfcfb"/>
<circle cx="730.0" cy="88.9" r="4" fill="#2a78d6"/>
<path d="M64.0,103.9 L91.8,103.9 L119.5,103.9 L147.2,103.9 L175.0,103.9 L202.8,103.9 L230.5,103.8 L258.2,103.8 L286.0,103.8 L313.8,103.8 L341.5,103.8 L369.2,103.8 L397.0,103.8 L424.8,103.8 L452.5,103.9 L480.2,103.9 L508.0,103.9 L535.8,103.9 L563.5,103.9 L591.2,103.9 L619.0,103.9 L646.8,103.9 L674.5,103.9 L702.2,103.9 L730.0,103.9" fill="none" stroke="#1baf7a" stroke-width="2" stroke-linejoin="round" stroke-linecap="round"/>
<circle cx="730.0" cy="103.9" r="6" fill="#fcfcfb"/>
<circle cx="730.0" cy="103.9" r="4" fill="#1baf7a"/>
<path d="M64.0,92.1 L91.8,92.1 L119.5,92.1 L147.2,92.1 L175.0,92.1 L202.8,92.1 L230.5,92.1 L258.2,92.1 L286.0,92.1 L313.8,92.1 L341.5,92.1 L369.2,92.1 L397.0,92.1 L424.8,92.1 L452.5,92.1 L480.2,92.1 L508.0,92.1 L535.8,92.1 L563.5,92.1 L591.2,92.1 L619.0,92.1 L646.8,92.1 L674.5,92.1 L702.2,92.1 L730.0,92.1" fill="none" stroke="#eda100" stroke-width="2" stroke-linejoin="round" stroke-linecap="round"/>
<circle cx="730.0" cy="92.1" r="6" fill="#fcfcfb"/>
<circle cx="730.0" cy="92.1" r="4" fill="#eda100"/>
<path d="M64.0,56.0 L91.8,56.0 L119.5,56.0 L147.2,56.0 L175.0,56.0 L202.8,56.0 L230.5,56.0 L258.2,56.0 L286.0,56.0 L313.8,56.0 L341.5,56.0 L369.2,56.0 L397.0,56.0 L424.8,56.0 L452.5,56.0 L480.2,56.0 L508.0,56.0 L535.8,56.0 L563.5,56.0 L591.2,56.0 L619.0,56.0 L646.8,56.0 L674.5,56.0 L702.2,56.0 L730.0,56.0" fill="none" stroke="#008300" stroke-width="2" stroke-linejoin="round" stroke-linecap="round"/>
<circle cx="730.0" cy="56.0" r="6" fill="#fcfcfb"/>
<circle cx="730.0" cy="56.0" r="4" fill="#008300"/>
<path d="M64.0,227.6 L91.8,227.6 L119.5,227.6 L147.2,227.6 L175.0,227.6 L202.8,227.6 L230.5,227.6 L258.2,227.6 L286.0,227.6 L313.8,227.6 L341.5,227.6 L369.2,227.6 L397.0,227.6 L424.8,227.6 L452.5,227.6 L480.2,227.6 L508.0,227.6 L535.8,227.6 L563.5,227.6 L591.2,227.6 L619.0,227.6 L646.8,227.6 L674.5,227.6 L702.2,227.6 L730.0,227.6" fill="none" stroke="#4a3aa7" stroke-width="2" stroke-linejoin="round" stroke-linecap="round"/>
<circle cx="730.0" cy="227.6" r="6" fill="#fcfcfb"/>
<circle cx="730.0" cy="227.6" r="4" fill="#4a3aa7"/>
<circle cx="745.0" cy="52.5" r="3.5" fill="#008300"/>
<text x="753.0" y="56.0" font-family='system-ui, -apple-system, "Segoe UI", sans-serif' font-size="11" fill="#0b0b0b">reverb</text>
<text x="753.0" y="68.0" font-family='system-ui, -apple-system, "Segoe UI", sans-serif' font-size="10" style="font-variant-numeric: tabular-nums" fill="#52514e">50.5M</text>
<circle cx="745.0" cy="85.4" r="3.5" fill="#2a78d6"/>
<text x="753.0" y="88.9" font-family='system-ui, -apple-system, "Segoe UI", sans-serif' font-size="11" fill="#0b0b0b">auto-filter</text>
<text x="753.0" y="100.9" font-family='system-ui, -apple-system, "Segoe UI", sans-serif' font-size="10" style="font-variant-numeric: tabular-nums" fill="#52514e">43.9M</text>
<line x1="736.0" y1="92.1" x2="740.0" y2="116.9" stroke="#c3c2b7" stroke-width="1"/>
<circle cx="745.0" cy="113.4" r="3.5" fill="#eda100"/>
<text x="753.0" y="116.9" font-family='system-ui, -apple-system, "Segoe UI", sans-serif' font-size="11" fill="#0b0b0b">echo</text>
<text x="753.0" y="128.9" font-family='system-ui, -apple-system, "Segoe UI", sans-serif' font-size="10" style="font-variant-numeric: tabular-nums" fill="#52514e">43.2M</text>
<line x1="736.0" y1="103.9" x2="740.0" y2="144.9" stroke="#c3c2b7" stroke-width="1"/>
<circle cx="745.0" cy="141.4" r="3.5" fill="#1baf7a"/>
<text x="753.0" y="144.9" font-family='system-ui, -apple-system, "Segoe UI", sans-serif' font-size="11" fill="#0b0b0b">autotune</text>
<text x="753.0" y="156.9" font-family='system-ui, -apple-system, "Segoe UI", sans-serif' font-size="10" style="font-variant-numeric: tabular-nums" fill="#52514e">40.9M</text>
<circle cx="745.0" cy="224.1" r="3.5" fill="#4a3aa7"/>
<text x="753.0" y="227.6" font-family='system-ui, -apple-system, "Segoe UI", sans-serif' font-size="11" fill="#0b0b0b">sampler-arp</text>
<text x="753.0" y="239.6" font-family='system-ui, -apple-system, "Segoe UI", sans-serif' font-size="10" style="font-variant-numeric: tabular-nums" fill="#52514e">15.9M</text>
</svg>