<svg xmlns="http://www.w3.org/2000/svg" width="880" height="340" viewBox="0 0 880 340" role="img" aria-label="Whole-instrument render cost">
<rect width="880" height="340" rx="6" fill="#1a1a19"/>
<text x="64" y="24" font-family='system-ui, -apple-system, "Segoe UI", sans-serif' font-size="14" font-weight="600" fill="#ffffff">Whole-instrument render cost</text>
<text x="64" y="41" font-family='system-ui, -apple-system, "Segoe UI", sans-serif' font-size="11" fill="#c3c2b7">render_block of 1 s of audio - callgrind instructions (Ir), per main commit, 2026-06-28 to 2026-07-11</text>
<line x1="64" y1="306.0" x2="730" y2="306.0" stroke="#2c2c2a" stroke-width="1"/>
<text x="56" y="309.5" text-anchor="end" font-family='system-ui, -apple-system, "Segoe UI", sans-serif' font-size="11" style="font-variant-numeric: tabular-nums" fill="#898781">0</text>
<line x1="64" y1="228.2" x2="730" y2="228.2" stroke="#2c2c2a" stroke-width="1"/>
<text x="56" y="231.7" text-anchor="end" font-family='system-ui, -apple-system, "Segoe UI", sans-serif' font-size="11" style="font-variant-numeric: tabular-nums" fill="#898781">20</text>
<line x1="64" y1="150.4" x2="730" y2="150.4" stroke="#2c2c2a" stroke-width="1"/>
<text x="56" y="153.9" text-anchor="end" font-family='system-ui, -apple-system, "Segoe UI", sans-serif' font-size="11" style="font-variant-numeric: tabular-nums" fill="#898781">40</text>
<line x1="64" y1="72.6" x2="730" y2="72.6" stroke="#2c2c2a" stroke-width="1"/>
<text x="56" y="76.1" text-anchor="end" font-family='system-ui, -apple-system, "Segoe UI", sans-serif' font-size="11" style="font-variant-numeric: tabular-nums" fill="#898781">60</text>
<text x="56" y="46" text-anchor="end" font-family='system-ui, -apple-system, "Segoe UI", sans-serif' font-size="10" fill="#898781">Ir (M)</text>
<line x1="64" y1="306" x2="730" y2="306" stroke="#383835" stroke-width="1"/>
<text x="64.0" y="322" text-anchor="middle" font-family='system-ui, -apple-system, "Segoe UI", sans-serif' font-size="11" style="font-variant-numeric: tabular-nums" fill="#898781">06-28</text>
<text x="125.5" y="322" text-anchor="middle" font-family='system-ui, -apple-system, "Segoe UI", sans-serif' font-size="11" style="font-variant-numeric: tabular-nums" fill="#898781">06-30</text>
<text x="176.7" y="322" text-anchor="middle" font-family='system-ui, -apple-system, "Segoe UI", sans-serif' font-size="11" style="font-variant-numeric: tabular-nums" fill="#898781">07-02</text>
<text x="289.4" y="322" text-anchor="middle" font-family='system-ui, -apple-system, "Segoe UI", sans-serif' font-size="11" style="font-variant-numeric: tabular-nums" fill="#898781">07-04</text>
<text x="453.4" y="322" text-anchor="middle" font-family='system-ui, -apple-system, "Segoe UI", sans-serif' font-size="11" style="font-variant-numeric: tabular-nums" fill="#898781">07-07</text>
<text x="555.8" y="322" text-anchor="middle" font-family='system-ui, -apple-system, "Segoe UI", sans-serif' font-size="11" style="font-variant-numeric: tabular-nums" fill="#898781">07-09</text>
<text x="637.8" y="322" text-anchor="middle" font-family='system-ui, -apple-system, "Segoe UI", sans-serif' font-size="11" style="font-variant-numeric: tabular-nums" fill="#898781">07-11</text>
<path d="M64.0,72.9 L74.2,73.0 L84.5,80.1 L94.7,80.1 L105.0,94.2 L115.2,108.6 L125.5,108.6 L135.7,105.1 L146.0,105.4 L156.2,105.7 L166.5,105.7 L176.7,105.6 L187.0,105.5 L197.2,105.5 L207.4,105.5 L217.7,105.5" fill="none" stroke="#3987e5" stroke-width="2" stroke-linejoin="round" stroke-linecap="round"/>
<path d="M238.2,105.7 L248.4,122.6 L258.7,122.6 L268.9,125.2 L279.2,125.0 L289.4,125.0 L299.7,125.0 L309.9,125.0 L320.2,125.0 L330.4,125.0 L340.6,124.3 L350.9,124.3 L361.1,124.3 L371.4,124.3 L381.6,124.3 L391.9,124.5 L402.1,124.5 L412.4,124.5 L422.6,127.9 L432.9,127.9 L443.1,127.9 L453.4,127.9 L463.6,127.9 L473.8,127.9 L484.1,127.9 L494.3,127.9 L504.6,127.9 L514.8,127.9 L525.1,127.9 L535.3,127.9 L545.6,127.9 L555.8,127.9 L566.1,127.9 L576.3,128.8 L586.6,128.8 L596.8,128.8 L607.0,128.2 L617.3,132.1 L627.5,132.1 L637.8,131.7 L648.0,135.3 L658.3,135.3 L668.5,135.3 L678.8,135.3 L689.0,135.3 L699.3,135.3 L709.5,135.3 L719.8,135.3 L730.0,135.3" fill="none" stroke="#3987e5" stroke-width="2" stroke-linejoin="round" stroke-linecap="round"/>
<circle cx="730.0" cy="135.3" r="6" fill="#1a1a19"/>
<circle cx="730.0" cy="135.3" r="4" fill="#3987e5"/>
<path d="M64.0,98.8 L74.2,98.9 L84.5,98.2 L94.7,98.2 L105.0,107.4 L115.2,120.8 L125.5,120.7 L135.7,117.1 L146.0,117.4 L156.2,117.8 L166.5,117.7 L176.7,117.7 L187.0,117.5 L197.2,117.7 L207.4,117.7 L217.7,117.7" fill="none" stroke="#199e70" stroke-width="2" stroke-linejoin="round" stroke-linecap="round"/>
<path d="M238.2,117.8 L248.4,134.9 L258.7,134.9 L268.9,136.9 L279.2,136.6 L289.4,136.6 L299.7,136.6 L309.9,136.6 L320.2,136.6 L330.4,136.6 L340.6,135.8 L350.9,135.8 L361.1,135.8 L371.4,135.8 L381.6,135.8 L391.9,136.0 L402.1,136.0 L412.4,136.0 L422.6,139.7 L432.9,139.7 L443.1,139.6 L453.4,139.6 L463.6,139.6 L473.8,139.6 L484.1,139.6 L494.3,139.6 L504.6,139.6 L514.8,139.6 L525.1,139.6 L535.3,139.6 L545.6,139.6 L555.8,139.6 L566.1,139.6 L576.3,140.5 L586.6,140.5 L596.8,140.5 L607.0,139.8 L617.3,143.5 L627.5,143.5 L637.8,143.5 L648.0,147.1 L658.3,147.1 L668.5,147.1 L678.8,147.1 L689.0,147.1 L699.3,147.1 L709.5,147.1 L719.8,147.1 L730.0,147.1" fill="none" stroke="#199e70" stroke-width="2" stroke-linejoin="round" stroke-linecap="round"/>
<circle cx="730.0" cy="147.1" r="6" fill="#1a1a19"/>
<circle cx="730.0" cy="147.1" r="4" fill="#199e70"/>
<path d="M64.0,83.1 L74.2,83.1 L84.5,82.4 L94.7,82.4 L105.0,95.7 L115.2,110.0 L125.5,109.9 L135.7,106.6 L146.0,106.9 L156.2,107.2 L166.5,107.2 L176.7,107.0 L187.0,107.1 L197.2,107.1 L207.4,107.1 L217.7,107.1" fill="none" stroke="#c98500" stroke-width="2" stroke-linejoin="round" stroke-linecap="round"/>
<path d="M238.2,107.2 L248.4,125.6 L258.7,125.6 L268.9,127.5 L279.2,127.3 L289.4,127.3 L299.7,127.3 L309.9,127.3 L320.2,127.3 L330.4,127.5 L340.6,126.6 L350.9,126.3 L361.1,126.3 L371.4,126.3 L381.6,126.3 L391.9,126.9 L402.1,126.9 L412.4,126.8 L422.6,130.5 L432.9,130.5 L443.1,130.3 L453.4,130.3 L463.6,130.4 L473.8,130.4 L484.1,130.4 L494.3,130.4 L504.6,130.4 L514.8,130.4 L525.1,130.4 L535.3,130.4 L545.6,130.4 L555.8,130.4 L566.1,130.4 L576.3,131.3 L586.6,131.4 L596.8,131.4 L607.0,130.7 L617.3,133.9 L627.5,133.9 L637.8,133.9 L648.0,137.8 L658.3,137.8 L668.5,137.8 L678.8,137.8 L689.0,137.8 L699.3,137.8 L709.5,137.8 L719.8,137.8 L730.0,137.8" fill="none" stroke="#c98500" stroke-width="2" stroke-linejoin="round" stroke-linecap="round"/>
<circle cx="730.0" cy="137.8" r="6" fill="#1a1a19"/>
<circle cx="730.0" cy="137.8" r="4" fill="#c98500"/>
<path d="M64.0,56.6 L74.2,56.6 L84.5,56.0 L94.7,56.0 L105.0,65.0 L115.2,82.2 L125.5,82.1 L135.7,78.6 L146.0,78.8 L156.2,79.3 L166.5,79.3 L176.7,79.2 L187.0,79.1 L197.2,79.2 L207.4,79.2 L217.7,79.2" fill="none" stroke="#008300" stroke-width="2" stroke-linejoin="round" stroke-linecap="round"/>
<path d="M238.2,79.2 L248.4,97.8 L258.7,97.8 L268.9,99.5 L279.2,99.2 L289.4,99.2 L299.7,99.2 L309.9,99.2 L320.2,99.2 L330.4,99.4 L340.6,98.8 L350.9,98.6 L361.1,98.6 L371.4,98.6 L381.6,98.6 L391.9,98.9 L402.1,98.9 L412.4,98.9 L422.6,102.4 L432.9,102.4 L443.1,102.3 L453.4,102.3 L463.6,102.4 L473.8,102.4 L484.1,102.4 L494.3,102.4 L504.6,102.4 L514.8,102.4 L525.1,102.4 L535.3,102.4 L545.6,102.4 L555.8,102.4 L566.1,102.4 L576.3,103.3 L586.6,103.3 L596.8,103.3 L607.0,102.7 L617.3,106.1 L627.5,106.1 L637.8,106.1 L648.0,109.4 L658.3,109.4 L668.5,109.4 L678.8,109.4 L689.0,109.4 L699.3,109.4 L709.5,109.4 L719.8,109.4 L730.0,109.4" fill="none" stroke="#008300" stroke-width="2" stroke-linejoin="round" stroke-linecap="round"/>
<circle cx="730.0" cy="109.4" r="6" fill="#1a1a19"/>
<circle cx="730.0" cy="109.4" r="4" fill="#008300"/>
<path d="M64.0,222.5 L74.2,222.4 L84.5,222.5 L94.7,222.5 L105.0,229.0 L115.2,236.2 L125.5,236.1 L135.7,234.3 L146.0,234.3 L156.2,234.5 L166.5,234.5 L176.7,234.7 L187.0,234.7 L197.2,234.6 L207.4,234.6 L217.7,234.6" fill="none" stroke="#9085e9" stroke-width="2" stroke-linejoin="round" stroke-linecap="round"/>
<path d="M238.2,234.6 L248.4,240.3 L258.7,240.3 L268.9,240.1 L279.2,239.7 L289.4,239.7 L299.7,239.7 L309.9,239.7 L320.2,239.7 L330.4,239.6 L340.6,239.1 L350.9,239.1 L361.1,239.1 L371.4,239.1 L381.6,239.1 L391.9,239.2 L402.1,239.2 L412.4,239.2 L422.6,239.1 L432.9,239.1 L443.1,239.0 L453.4,239.0 L463.6,239.1 L473.8,239.1 L484.1,239.1 L494.3,239.1 L504.6,239.1 L514.8,239.1 L525.1,239.1 L535.3,239.1 L545.6,239.1 L555.8,239.1 L566.1,239.0 L576.3,239.5 L586.6,239.6 L596.8,239.6 L607.0,239.4 L617.3,241.0 L627.5,241.1 L637.8,241.1 L648.0,244.4 L658.3,244.4 L668.5,244.4 L678.8,244.4 L689.0,244.4 L699.3,244.4 L709.5,244.4 L719.8,244.4 L730.0,244.4" fill="none" stroke="#9085e9" stroke-width="2" stroke-linejoin="round" stroke-linecap="round"/>
<circle cx="730.0" cy="244.4" r="6" fill="#1a1a19"/>
<circle cx="730.0" cy="244.4" r="4" fill="#9085e9"/>
<circle cx="745.0" cy="105.9" r="3.5" fill="#008300"/>
<text x="753.0" y="109.4" font-family='system-ui, -apple-system, "Segoe UI", sans-serif' font-size="11" fill="#ffffff">reverb</text>
<text x="753.0" y="121.4" font-family='system-ui, -apple-system, "Segoe UI", sans-serif' font-size="10" style="font-variant-numeric: tabular-nums" fill="#c3c2b7">50.5M</text>
<circle cx="745.0" cy="133.9" r="3.5" fill="#3987e5"/>
<text x="753.0" y="137.4" font-family='system-ui, -apple-system, "Segoe UI", sans-serif' font-size="11" fill="#ffffff">auto-filter</text>
<text x="753.0" y="149.4" font-family='system-ui, -apple-system, "Segoe UI", sans-serif' font-size="10" style="font-variant-numeric: tabular-nums" fill="#c3c2b7">43.9M</text>
<line x1="736.0" y1="137.8" x2="740.0" y2="165.4" stroke="#383835" stroke-width="1"/>
<circle cx="745.0" cy="161.9" r="3.5" fill="#c98500"/>
<text x="753.0" y="165.4" font-family='system-ui, -apple-system, "Segoe UI", sans-serif' font-size="11" fill="#ffffff">echo</text>
<text x="753.0" y="177.4" font-family='system-ui, -apple-system, "Segoe UI", sans-serif' font-size="10" style="font-variant-numeric: tabular-nums" fill="#c3c2b7">43.2M</text>
<line x1="736.0" y1="147.1" x2="740.0" y2="193.4" stroke="#383835" stroke-width="1"/>
<circle cx="745.0" cy="189.9" r="3.5" fill="#199e70"/>
<text x="753.0" y="193.4" font-family='system-ui, -apple-system, "Segoe UI", sans-serif' font-size="11" fill="#ffffff">autotune</text>
<text x="753.0" y="205.4" font-family='system-ui, -apple-system, "Segoe UI", sans-serif' font-size="10" style="font-variant-numeric: tabular-nums" fill="#c3c2b7">40.9M</text>
<circle cx="745.0" cy="240.9" r="3.5" fill="#9085e9"/>
<text x="753.0" y="244.4" font-family='system-ui, -apple-system, "Segoe UI", sans-serif' font-size="11" fill="#ffffff">sampler-arp</text>
<text x="753.0" y="256.4" font-family='system-ui, -apple-system, "Segoe UI", sans-serif' font-size="10" style="font-variant-numeric: tabular-nums" fill="#c3c2b7">15.8M</text>
</svg>