<svg xmlns="http://www.w3.org/2000/svg" width="880" height="340" viewBox="0 0 880 340" role="img" aria-label="Whole-instrument render cost">
<rect width="880" height="340" rx="6" fill="#fcfcfb"/>
<text x="64" y="24" font-family='system-ui, -apple-system, "Segoe UI", sans-serif' font-size="14" font-weight="600" fill="#0b0b0b">Whole-instrument render cost</text>
<text x="64" y="41" font-family='system-ui, -apple-system, "Segoe UI", sans-serif' font-size="11" fill="#52514e">render_block of 1 s of audio - callgrind instructions (Ir), per dev commit, 2026-07-12 to 2026-07-21</text>
<line x1="64" y1="306.0" x2="730" y2="306.0" stroke="#e1e0d9" stroke-width="1"/>
<text x="56" y="309.5" text-anchor="end" font-family='system-ui, -apple-system, "Segoe UI", sans-serif' font-size="11" style="font-variant-numeric: tabular-nums" fill="#898781">0</text>
<line x1="64" y1="207.1" x2="730" y2="207.1" stroke="#e1e0d9" stroke-width="1"/>
<text x="56" y="210.6" text-anchor="end" font-family='system-ui, -apple-system, "Segoe UI", sans-serif' font-size="11" style="font-variant-numeric: tabular-nums" fill="#898781">20</text>
<line x1="64" y1="108.2" x2="730" y2="108.2" stroke="#e1e0d9" stroke-width="1"/>
<text x="56" y="111.7" text-anchor="end" font-family='system-ui, -apple-system, "Segoe UI", sans-serif' font-size="11" style="font-variant-numeric: tabular-nums" fill="#898781">40</text>
<text x="56" y="46" text-anchor="end" font-family='system-ui, -apple-system, "Segoe UI", sans-serif' font-size="10" fill="#898781">Ir (M)</text>
<line x1="64" y1="306" x2="730" y2="306" stroke="#c3c2b7" stroke-width="1"/>
<text x="64.0" y="322" text-anchor="middle" font-family='system-ui, -apple-system, "Segoe UI", sans-serif' font-size="11" style="font-variant-numeric: tabular-nums" fill="#898781">07-12</text>
<text x="155.4" y="322" text-anchor="middle" font-family='system-ui, -apple-system, "Segoe UI", sans-serif' font-size="11" style="font-variant-numeric: tabular-nums" fill="#898781">07-14</text>
<text x="272.9" y="322" text-anchor="middle" font-family='system-ui, -apple-system, "Segoe UI", sans-serif' font-size="11" style="font-variant-numeric: tabular-nums" fill="#898781">07-17</text>
<text x="429.6" y="322" text-anchor="middle" font-family='system-ui, -apple-system, "Segoe UI", sans-serif' font-size="11" style="font-variant-numeric: tabular-nums" fill="#898781">07-19</text>
<text x="664.7" y="322" text-anchor="middle" font-family='system-ui, -apple-system, "Segoe UI", sans-serif' font-size="11" style="font-variant-numeric: tabular-nums" fill="#898781">07-21</text>
<path d="M64.0,88.9 L77.1,88.9 L90.1,88.9 L103.2,88.9 L116.2,88.9 L129.3,88.9 L142.4,88.9 L155.4,88.9 L168.5,88.9 L181.5,88.9 L194.6,88.9 L207.6,88.9 L220.7,88.9 L233.8,88.9 L246.8,88.9 L259.9,88.9 L272.9,88.9 L286.0,88.9 L299.1,88.9 L312.1,88.9 L325.2,88.9 L338.2,88.9 L351.3,88.9 L364.4,88.9 L377.4,88.9 L390.5,88.9 L403.5,88.9 L416.6,88.9 L429.6,89.0 L442.7,89.0 L455.8,89.0 L468.8,89.0 L481.9,89.0 L494.9,89.3 L508.0,89.3 L521.1,89.3 L534.1,89.3 L547.2,89.3 L560.2,89.3 L573.3,89.2 L586.4,89.2 L599.4,89.3 L612.5,89.3 L625.5,89.3 L638.6,89.3 L651.6,89.3 L664.7,89.3 L677.8,89.3 L690.8,89.3 L703.9,89.3 L716.9,120.2 L730.0,120.2" fill="none" stroke="#2a78d6" stroke-width="2" stroke-linejoin="round" stroke-linecap="round"/>
<circle cx="730.0" cy="120.2" r="6" fill="#fcfcfb"/>
<circle cx="730.0" cy="120.2" r="4" fill="#2a78d6"/>
<path d="M64.0,103.9 L77.1,103.9 L90.1,103.9 L103.2,103.9 L116.2,103.9 L129.3,103.9 L142.4,103.8 L155.4,103.8 L168.5,103.8 L181.5,103.8 L194.6,103.8 L207.6,103.8 L220.7,103.8 L233.8,103.8 L246.8,103.9 L259.9,103.9 L272.9,103.9 L286.0,103.9 L299.1,103.9 L312.1,103.9 L325.2,103.9 L338.2,103.9 L351.3,103.9 L364.4,103.9 L377.4,103.9 L390.5,103.9 L403.5,103.9 L416.6,103.9 L429.6,103.9 L442.7,103.9 L455.8,103.9 L468.8,103.9 L481.9,103.9 L494.9,104.2 L508.0,104.2 L521.1,104.2 L534.1,104.2 L547.2,104.1 L560.2,104.1 L573.3,104.2 L586.4,104.2 L599.4,104.2 L612.5,104.2 L625.5,104.2 L638.6,104.2 L651.6,104.2 L664.7,104.2 L677.8,104.2 L690.8,104.2 L703.9,104.2 L716.9,131.8 L730.0,131.8" fill="none" stroke="#1baf7a" stroke-width="2" stroke-linejoin="round" stroke-linecap="round"/>
<circle cx="730.0" cy="131.8" r="6" fill="#fcfcfb"/>
<circle cx="730.0" cy="131.8" r="4" fill="#1baf7a"/>
<path d="M64.0,92.1 L77.1,92.1 L90.1,92.1 L103.2,92.1 L116.2,92.1 L129.3,92.1 L142.4,92.1 L155.4,92.1 L168.5,92.1 L181.5,92.1 L194.6,92.1 L207.6,92.1 L220.7,92.1 L233.8,92.1 L246.8,92.1 L259.9,92.1 L272.9,92.1 L286.0,92.1 L299.1,92.1 L312.1,92.1 L325.2,92.1 L338.2,92.1 L351.3,92.1 L364.4,92.1 L377.4,92.1 L390.5,92.1 L403.5,92.1 L416.6,92.1 L429.6,92.1 L442.7,92.1 L455.8,92.1 L468.8,92.1 L481.9,92.1 L494.9,92.4 L508.0,92.4 L521.1,92.4 L534.1,92.4 L547.2,92.4 L560.2,92.4 L573.3,92.3 L586.4,92.3 L599.4,92.4 L612.5,92.4 L625.5,92.4 L638.6,92.4 L651.6,92.4 L664.7,92.4 L677.8,92.4 L690.8,92.4 L703.9,92.4 L716.9,120.0 L730.0,119.9" fill="none" stroke="#eda100" stroke-width="2" stroke-linejoin="round" stroke-linecap="round"/>
<circle cx="730.0" cy="119.9" r="6" fill="#fcfcfb"/>
<circle cx="730.0" cy="119.9" r="4" fill="#eda100"/>
<path d="M64.0,56.0 L77.1,56.0 L90.1,56.0 L103.2,56.0 L116.2,56.0 L129.3,56.0 L142.4,56.0 L155.4,56.0 L168.5,56.0 L181.5,56.0 L194.6,56.0 L207.6,56.0 L220.7,56.0 L233.8,56.0 L246.8,56.0 L259.9,56.0 L272.9,56.0 L286.0,56.0 L299.1,56.0 L312.1,56.0 L325.2,56.0 L338.2,56.0 L351.3,56.0 L364.4,56.0 L377.4,56.0 L390.5,56.0 L403.5,56.0 L416.6,56.0 L429.6,56.0 L442.7,56.0 L455.8,56.0 L468.8,56.0 L481.9,56.0 L494.9,56.3 L508.0,56.3 L521.1,56.3 L534.1,56.3 L547.2,56.3 L560.2,56.3 L573.3,56.2 L586.4,56.2 L599.4,56.3 L612.5,56.3 L625.5,56.3 L638.6,56.3 L651.6,56.3 L664.7,56.3 L677.8,56.3 L690.8,56.3 L703.9,56.3 L716.9,83.9 L730.0,83.9" fill="none" stroke="#008300" stroke-width="2" stroke-linejoin="round" stroke-linecap="round"/>
<circle cx="730.0" cy="83.9" r="6" fill="#fcfcfb"/>
<circle cx="730.0" cy="83.9" r="4" fill="#008300"/>
<path d="M64.0,227.6 L77.1,227.6 L90.1,227.6 L103.2,227.6 L116.2,227.6 L129.3,227.6 L142.4,227.6 L155.4,227.6 L168.5,227.6 L181.5,227.6 L194.6,227.6 L207.6,227.6 L220.7,227.6 L233.8,227.6 L246.8,227.6 L259.9,227.6 L272.9,227.6 L286.0,227.6 L299.1,227.6 L312.1,227.6 L325.2,227.6 L338.2,227.6 L351.3,227.6 L364.4,227.6 L377.4,227.6 L390.5,227.6 L403.5,227.6 L416.6,227.6 L429.6,227.6 L442.7,227.6 L455.8,227.6 L468.8,227.6 L481.9,227.6 L494.9,227.8 L508.0,227.8 L521.1,227.8 L534.1,227.8 L547.2,227.7 L560.2,227.7 L573.3,227.8 L586.4,227.8 L599.4,227.7 L612.5,227.7 L625.5,227.7 L638.6,227.7 L651.6,227.7 L664.7,227.7 L677.8,227.7 L690.8,227.7 L703.9,227.7 L716.9,227.7 L730.0,227.7" fill="none" stroke="#4a3aa7" stroke-width="2" stroke-linejoin="round" stroke-linecap="round"/>
<circle cx="730.0" cy="227.7" r="6" fill="#fcfcfb"/>
<circle cx="730.0" cy="227.7" r="4" fill="#4a3aa7"/>
<circle cx="745.0" cy="80.4" r="3.5" fill="#008300"/>
<text x="753.0" y="83.9" font-family='system-ui, -apple-system, "Segoe UI", sans-serif' font-size="11" fill="#0b0b0b">reverb</text>
<text x="753.0" y="95.9" font-family='system-ui, -apple-system, "Segoe UI", sans-serif' font-size="10" style="font-variant-numeric: tabular-nums" fill="#52514e">44.9M</text>
<circle cx="745.0" cy="116.4" r="3.5" fill="#eda100"/>
<text x="753.0" y="119.9" font-family='system-ui, -apple-system, "Segoe UI", sans-serif' font-size="11" fill="#0b0b0b">echo</text>
<text x="753.0" y="131.9" font-family='system-ui, -apple-system, "Segoe UI", sans-serif' font-size="10" style="font-variant-numeric: tabular-nums" fill="#52514e">37.6M</text>
<line x1="736.0" y1="120.2" x2="740.0" y2="147.9" stroke="#c3c2b7" stroke-width="1"/>
<circle cx="745.0" cy="144.4" r="3.5" fill="#2a78d6"/>
<text x="753.0" y="147.9" font-family='system-ui, -apple-system, "Segoe UI", sans-serif' font-size="11" fill="#0b0b0b">auto-filter</text>
<text x="753.0" y="159.9" font-family='system-ui, -apple-system, "Segoe UI", sans-serif' font-size="10" style="font-variant-numeric: tabular-nums" fill="#52514e">37.6M</text>
<line x1="736.0" y1="131.8" x2="740.0" y2="175.9" stroke="#c3c2b7" stroke-width="1"/>
<circle cx="745.0" cy="172.4" r="3.5" fill="#1baf7a"/>
<text x="753.0" y="175.9" font-family='system-ui, -apple-system, "Segoe UI", sans-serif' font-size="11" fill="#0b0b0b">autotune</text>
<text x="753.0" y="187.9" font-family='system-ui, -apple-system, "Segoe UI", sans-serif' font-size="10" style="font-variant-numeric: tabular-nums" fill="#52514e">35.2M</text>
<circle cx="745.0" cy="224.2" r="3.5" fill="#4a3aa7"/>
<text x="753.0" y="227.7" font-family='system-ui, -apple-system, "Segoe UI", sans-serif' font-size="11" fill="#0b0b0b">sampler-arp</text>
<text x="753.0" y="239.7" font-family='system-ui, -apple-system, "Segoe UI", sans-serif' font-size="10" style="font-variant-numeric: tabular-nums" fill="#52514e">15.8M</text>
</svg>