<svg xmlns="http://www.w3.org/2000/svg" width="880" height="340" viewBox="0 0 880 340" role="img" aria-label="Whole-instrument render cost">
<rect width="880" height="340" rx="6" fill="#1a1a19"/>
<text x="64" y="24" font-family='system-ui, -apple-system, "Segoe UI", sans-serif' font-size="14" font-weight="600" fill="#ffffff">Whole-instrument render cost</text>
<text x="64" y="41" font-family='system-ui, -apple-system, "Segoe UI", sans-serif' font-size="11" fill="#c3c2b7">render_block of 1 s of audio - callgrind instructions (Ir), per dev commit, 2026-07-12 to 2026-07-20</text>
<line x1="64" y1="306.0" x2="730" y2="306.0" stroke="#2c2c2a" stroke-width="1"/>
<text x="56" y="309.5" text-anchor="end" font-family='system-ui, -apple-system, "Segoe UI", sans-serif' font-size="11" style="font-variant-numeric: tabular-nums" fill="#898781">0</text>
<line x1="64" y1="207.1" x2="730" y2="207.1" stroke="#2c2c2a" stroke-width="1"/>
<text x="56" y="210.6" text-anchor="end" font-family='system-ui, -apple-system, "Segoe UI", sans-serif' font-size="11" style="font-variant-numeric: tabular-nums" fill="#898781">20</text>
<line x1="64" y1="108.2" x2="730" y2="108.2" stroke="#2c2c2a" stroke-width="1"/>
<text x="56" y="111.7" text-anchor="end" font-family='system-ui, -apple-system, "Segoe UI", sans-serif' font-size="11" style="font-variant-numeric: tabular-nums" fill="#898781">40</text>
<text x="56" y="46" text-anchor="end" font-family='system-ui, -apple-system, "Segoe UI", sans-serif' font-size="10" fill="#898781">Ir (M)</text>
<line x1="64" y1="306" x2="730" y2="306" stroke="#383835" stroke-width="1"/>
<text x="64.0" y="322" text-anchor="middle" font-family='system-ui, -apple-system, "Segoe UI", sans-serif' font-size="11" style="font-variant-numeric: tabular-nums" fill="#898781">07-12</text>
<text x="192.9" y="322" text-anchor="middle" font-family='system-ui, -apple-system, "Segoe UI", sans-serif' font-size="11" style="font-variant-numeric: tabular-nums" fill="#898781">07-13</text>
<text x="214.4" y="322" text-anchor="middle" font-family='system-ui, -apple-system, "Segoe UI", sans-serif' font-size="11" style="font-variant-numeric: tabular-nums" fill="#898781">07-14</text>
<text x="235.9" y="322" text-anchor="middle" font-family='system-ui, -apple-system, "Segoe UI", sans-serif' font-size="11" style="font-variant-numeric: tabular-nums" fill="#898781">07-16</text>
<text x="407.7" y="322" text-anchor="middle" font-family='system-ui, -apple-system, "Segoe UI", sans-serif' font-size="11" style="font-variant-numeric: tabular-nums" fill="#898781">07-17</text>
<text x="536.6" y="322" text-anchor="middle" font-family='system-ui, -apple-system, "Segoe UI", sans-serif' font-size="11" style="font-variant-numeric: tabular-nums" fill="#898781">07-18</text>
<text x="665.5" y="322" text-anchor="middle" font-family='system-ui, -apple-system, "Segoe UI", sans-serif' font-size="11" style="font-variant-numeric: tabular-nums" fill="#898781">07-19</text>
<text x="730.0" y="322" text-anchor="middle" font-family='system-ui, -apple-system, "Segoe UI", sans-serif' font-size="11" style="font-variant-numeric: tabular-nums" fill="#898781">07-20</text>
<path d="M64.0,88.9 L85.5,88.9 L107.0,88.9 L128.5,88.9 L149.9,88.9 L171.4,88.9 L192.9,88.9 L214.4,88.9 L235.9,88.9 L257.4,88.9 L278.8,88.9 L300.3,88.9 L321.8,88.9 L343.3,88.9 L364.8,88.9 L386.3,88.9 L407.7,88.9 L429.2,88.9 L450.7,88.9 L472.2,88.9 L493.7,88.9 L515.2,88.9 L536.6,88.9 L558.1,88.9 L579.6,88.9 L601.1,88.9 L622.6,88.9 L644.1,88.9 L665.5,89.0 L687.0,89.0 L708.5,89.0 L730.0,89.0" fill="none" stroke="#3987e5" stroke-width="2" stroke-linejoin="round" stroke-linecap="round"/>
<circle cx="730.0" cy="89.0" r="6" fill="#1a1a19"/>
<circle cx="730.0" cy="89.0" r="4" fill="#3987e5"/>
<path d="M64.0,103.9 L85.5,103.9 L107.0,103.9 L128.5,103.9 L149.9,103.9 L171.4,103.9 L192.9,103.8 L214.4,103.8 L235.9,103.8 L257.4,103.8 L278.8,103.8 L300.3,103.8 L321.8,103.8 L343.3,103.8 L364.8,103.9 L386.3,103.9 L407.7,103.9 L429.2,103.9 L450.7,103.9 L472.2,103.9 L493.7,103.9 L515.2,103.9 L536.6,103.9 L558.1,103.9 L579.6,103.9 L601.1,103.9 L622.6,103.9 L644.1,103.9 L665.5,103.9 L687.0,103.9 L708.5,103.9 L730.0,103.9" fill="none" stroke="#199e70" stroke-width="2" stroke-linejoin="round" stroke-linecap="round"/>
<circle cx="730.0" cy="103.9" r="6" fill="#1a1a19"/>
<circle cx="730.0" cy="103.9" r="4" fill="#199e70"/>
<path d="M64.0,92.1 L85.5,92.1 L107.0,92.1 L128.5,92.1 L149.9,92.1 L171.4,92.1 L192.9,92.1 L214.4,92.1 L235.9,92.1 L257.4,92.1 L278.8,92.1 L300.3,92.1 L321.8,92.1 L343.3,92.1 L364.8,92.1 L386.3,92.1 L407.7,92.1 L429.2,92.1 L450.7,92.1 L472.2,92.1 L493.7,92.1 L515.2,92.1 L536.6,92.1 L558.1,92.1 L579.6,92.1 L601.1,92.1 L622.6,92.1 L644.1,92.1 L665.5,92.1 L687.0,92.1 L708.5,92.1 L730.0,92.1" fill="none" stroke="#c98500" stroke-width="2" stroke-linejoin="round" stroke-linecap="round"/>
<circle cx="730.0" cy="92.1" r="6" fill="#1a1a19"/>
<circle cx="730.0" cy="92.1" r="4" fill="#c98500"/>
<path d="M64.0,56.0 L85.5,56.0 L107.0,56.0 L128.5,56.0 L149.9,56.0 L171.4,56.0 L192.9,56.0 L214.4,56.0 L235.9,56.0 L257.4,56.0 L278.8,56.0 L300.3,56.0 L321.8,56.0 L343.3,56.0 L364.8,56.0 L386.3,56.0 L407.7,56.0 L429.2,56.0 L450.7,56.0 L472.2,56.0 L493.7,56.0 L515.2,56.0 L536.6,56.0 L558.1,56.0 L579.6,56.0 L601.1,56.0 L622.6,56.0 L644.1,56.0 L665.5,56.0 L687.0,56.0 L708.5,56.0 L730.0,56.0" fill="none" stroke="#008300" stroke-width="2" stroke-linejoin="round" stroke-linecap="round"/>
<circle cx="730.0" cy="56.0" r="6" fill="#1a1a19"/>
<circle cx="730.0" cy="56.0" r="4" fill="#008300"/>
<path d="M64.0,227.6 L85.5,227.6 L107.0,227.6 L128.5,227.6 L149.9,227.6 L171.4,227.6 L192.9,227.6 L214.4,227.6 L235.9,227.6 L257.4,227.6 L278.8,227.6 L300.3,227.6 L321.8,227.6 L343.3,227.6 L364.8,227.6 L386.3,227.6 L407.7,227.6 L429.2,227.6 L450.7,227.6 L472.2,227.6 L493.7,227.6 L515.2,227.6 L536.6,227.6 L558.1,227.6 L579.6,227.6 L601.1,227.6 L622.6,227.6 L644.1,227.6 L665.5,227.6 L687.0,227.6 L708.5,227.6 L730.0,227.6" fill="none" stroke="#9085e9" stroke-width="2" stroke-linejoin="round" stroke-linecap="round"/>
<circle cx="730.0" cy="227.6" r="6" fill="#1a1a19"/>
<circle cx="730.0" cy="227.6" r="4" fill="#9085e9"/>
<circle cx="745.0" cy="52.5" r="3.5" fill="#008300"/>
<text x="753.0" y="56.0" font-family='system-ui, -apple-system, "Segoe UI", sans-serif' font-size="11" fill="#ffffff">reverb</text>
<text x="753.0" y="68.0" font-family='system-ui, -apple-system, "Segoe UI", sans-serif' font-size="10" style="font-variant-numeric: tabular-nums" fill="#c3c2b7">50.5M</text>
<circle cx="745.0" cy="85.5" r="3.5" fill="#3987e5"/>
<text x="753.0" y="89.0" font-family='system-ui, -apple-system, "Segoe UI", sans-serif' font-size="11" fill="#ffffff">auto-filter</text>
<text x="753.0" y="101.0" font-family='system-ui, -apple-system, "Segoe UI", sans-serif' font-size="10" style="font-variant-numeric: tabular-nums" fill="#c3c2b7">43.9M</text>
<line x1="736.0" y1="92.1" x2="740.0" y2="117.0" stroke="#383835" stroke-width="1"/>
<circle cx="745.0" cy="113.5" r="3.5" fill="#c98500"/>
<text x="753.0" y="117.0" font-family='system-ui, -apple-system, "Segoe UI", sans-serif' font-size="11" fill="#ffffff">echo</text>
<text x="753.0" y="129.0" font-family='system-ui, -apple-system, "Segoe UI", sans-serif' font-size="10" style="font-variant-numeric: tabular-nums" fill="#c3c2b7">43.2M</text>
<line x1="736.0" y1="103.9" x2="740.0" y2="145.0" stroke="#383835" stroke-width="1"/>
<circle cx="745.0" cy="141.5" r="3.5" fill="#199e70"/>
<text x="753.0" y="145.0" font-family='system-ui, -apple-system, "Segoe UI", sans-serif' font-size="11" fill="#ffffff">autotune</text>
<text x="753.0" y="157.0" font-family='system-ui, -apple-system, "Segoe UI", sans-serif' font-size="10" style="font-variant-numeric: tabular-nums" fill="#c3c2b7">40.9M</text>
<circle cx="745.0" cy="224.1" r="3.5" fill="#9085e9"/>
<text x="753.0" y="227.6" font-family='system-ui, -apple-system, "Segoe UI", sans-serif' font-size="11" fill="#ffffff">sampler-arp</text>
<text x="753.0" y="239.6" font-family='system-ui, -apple-system, "Segoe UI", sans-serif' font-size="10" style="font-variant-numeric: tabular-nums" fill="#c3c2b7">15.8M</text>
</svg>