<svg xmlns="http://www.w3.org/2000/svg" width="880" height="340" viewBox="0 0 880 340" role="img" aria-label="Whole-instrument render cost">
<rect width="880" height="340" rx="6" fill="#1a1a19"/>
<text x="64" y="24" font-family='system-ui, -apple-system, "Segoe UI", sans-serif' font-size="14" font-weight="600" fill="#ffffff">Whole-instrument render cost</text>
<text x="64" y="41" font-family='system-ui, -apple-system, "Segoe UI", sans-serif' font-size="11" fill="#c3c2b7">render_block of 1 s of audio - callgrind instructions (Ir), per dev commit, 2026-07-12 to 2026-07-21</text>
<line x1="64" y1="306.0" x2="730" y2="306.0" stroke="#2c2c2a" stroke-width="1"/>
<text x="56" y="309.5" text-anchor="end" font-family='system-ui, -apple-system, "Segoe UI", sans-serif' font-size="11" style="font-variant-numeric: tabular-nums" fill="#898781">0</text>
<line x1="64" y1="207.1" x2="730" y2="207.1" stroke="#2c2c2a" stroke-width="1"/>
<text x="56" y="210.6" text-anchor="end" font-family='system-ui, -apple-system, "Segoe UI", sans-serif' font-size="11" style="font-variant-numeric: tabular-nums" fill="#898781">20</text>
<line x1="64" y1="108.2" x2="730" y2="108.2" stroke="#2c2c2a" stroke-width="1"/>
<text x="56" y="111.7" text-anchor="end" font-family='system-ui, -apple-system, "Segoe UI", sans-serif' font-size="11" style="font-variant-numeric: tabular-nums" fill="#898781">40</text>
<text x="56" y="46" text-anchor="end" font-family='system-ui, -apple-system, "Segoe UI", sans-serif' font-size="10" fill="#898781">Ir (M)</text>
<line x1="64" y1="306" x2="730" y2="306" stroke="#383835" stroke-width="1"/>
<text x="64.0" y="322" text-anchor="middle" font-family='system-ui, -apple-system, "Segoe UI", sans-serif' font-size="11" style="font-variant-numeric: tabular-nums" fill="#898781">07-12</text>
<text x="163.2" y="322" text-anchor="middle" font-family='system-ui, -apple-system, "Segoe UI", sans-serif' font-size="11" style="font-variant-numeric: tabular-nums" fill="#898781">07-14</text>
<text x="290.7" y="322" text-anchor="middle" font-family='system-ui, -apple-system, "Segoe UI", sans-serif' font-size="11" style="font-variant-numeric: tabular-nums" fill="#898781">07-17</text>
<text x="460.8" y="322" text-anchor="middle" font-family='system-ui, -apple-system, "Segoe UI", sans-serif' font-size="11" style="font-variant-numeric: tabular-nums" fill="#898781">07-19</text>
<text x="715.8" y="322" text-anchor="middle" font-family='system-ui, -apple-system, "Segoe UI", sans-serif' font-size="11" style="font-variant-numeric: tabular-nums" fill="#898781">07-21</text>
<path d="M64.0,88.9 L78.2,88.9 L92.3,88.9 L106.5,88.9 L120.7,88.9 L134.9,88.9 L149.0,88.9 L163.2,88.9 L177.4,88.9 L191.5,88.9 L205.7,88.9 L219.9,88.9 L234.0,88.9 L248.2,88.9 L262.4,88.9 L276.6,88.9 L290.7,88.9 L304.9,88.9 L319.1,88.9 L333.2,88.9 L347.4,88.9 L361.6,88.9 L375.7,88.9 L389.9,88.9 L404.1,88.9 L418.3,88.9 L432.4,88.9 L446.6,88.9 L460.8,89.0 L474.9,89.0 L489.1,89.0 L503.3,89.0 L517.4,89.0 L531.6,89.3 L545.8,89.3 L560.0,89.3 L574.1,89.3 L588.3,89.3 L602.5,89.3 L616.6,89.2 L630.8,89.2 L645.0,89.3 L659.1,89.3 L673.3,89.3 L687.5,89.3 L701.7,89.3 L715.8,89.3 L730.0,89.3" fill="none" stroke="#3987e5" stroke-width="2" stroke-linejoin="round" stroke-linecap="round"/>
<circle cx="730.0" cy="89.3" r="6" fill="#1a1a19"/>
<circle cx="730.0" cy="89.3" r="4" fill="#3987e5"/>
<path d="M64.0,103.9 L78.2,103.9 L92.3,103.9 L106.5,103.9 L120.7,103.9 L134.9,103.9 L149.0,103.8 L163.2,103.8 L177.4,103.8 L191.5,103.8 L205.7,103.8 L219.9,103.8 L234.0,103.8 L248.2,103.8 L262.4,103.9 L276.6,103.9 L290.7,103.9 L304.9,103.9 L319.1,103.9 L333.2,103.9 L347.4,103.9 L361.6,103.9 L375.7,103.9 L389.9,103.9 L404.1,103.9 L418.3,103.9 L432.4,103.9 L446.6,103.9 L460.8,103.9 L474.9,103.9 L489.1,103.9 L503.3,103.9 L517.4,103.9 L531.6,104.2 L545.8,104.2 L560.0,104.2 L574.1,104.2 L588.3,104.1 L602.5,104.1 L616.6,104.2 L630.8,104.2 L645.0,104.2 L659.1,104.2 L673.3,104.2 L687.5,104.2 L701.7,104.2 L715.8,104.2 L730.0,104.2" fill="none" stroke="#199e70" stroke-width="2" stroke-linejoin="round" stroke-linecap="round"/>
<circle cx="730.0" cy="104.2" r="6" fill="#1a1a19"/>
<circle cx="730.0" cy="104.2" r="4" fill="#199e70"/>
<path d="M64.0,92.1 L78.2,92.1 L92.3,92.1 L106.5,92.1 L120.7,92.1 L134.9,92.1 L149.0,92.1 L163.2,92.1 L177.4,92.1 L191.5,92.1 L205.7,92.1 L219.9,92.1 L234.0,92.1 L248.2,92.1 L262.4,92.1 L276.6,92.1 L290.7,92.1 L304.9,92.1 L319.1,92.1 L333.2,92.1 L347.4,92.1 L361.6,92.1 L375.7,92.1 L389.9,92.1 L404.1,92.1 L418.3,92.1 L432.4,92.1 L446.6,92.1 L460.8,92.1 L474.9,92.1 L489.1,92.1 L503.3,92.1 L517.4,92.1 L531.6,92.4 L545.8,92.4 L560.0,92.4 L574.1,92.4 L588.3,92.4 L602.5,92.4 L616.6,92.3 L630.8,92.3 L645.0,92.4 L659.1,92.4 L673.3,92.4 L687.5,92.4 L701.7,92.4 L715.8,92.4 L730.0,92.4" fill="none" stroke="#c98500" stroke-width="2" stroke-linejoin="round" stroke-linecap="round"/>
<circle cx="730.0" cy="92.4" r="6" fill="#1a1a19"/>
<circle cx="730.0" cy="92.4" r="4" fill="#c98500"/>
<path d="M64.0,56.0 L78.2,56.0 L92.3,56.0 L106.5,56.0 L120.7,56.0 L134.9,56.0 L149.0,56.0 L163.2,56.0 L177.4,56.0 L191.5,56.0 L205.7,56.0 L219.9,56.0 L234.0,56.0 L248.2,56.0 L262.4,56.0 L276.6,56.0 L290.7,56.0 L304.9,56.0 L319.1,56.0 L333.2,56.0 L347.4,56.0 L361.6,56.0 L375.7,56.0 L389.9,56.0 L404.1,56.0 L418.3,56.0 L432.4,56.0 L446.6,56.0 L460.8,56.0 L474.9,56.0 L489.1,56.0 L503.3,56.0 L517.4,56.0 L531.6,56.3 L545.8,56.3 L560.0,56.3 L574.1,56.3 L588.3,56.3 L602.5,56.3 L616.6,56.2 L630.8,56.2 L645.0,56.3 L659.1,56.3 L673.3,56.3 L687.5,56.3 L701.7,56.3 L715.8,56.3 L730.0,56.3" fill="none" stroke="#008300" stroke-width="2" stroke-linejoin="round" stroke-linecap="round"/>
<circle cx="730.0" cy="56.3" r="6" fill="#1a1a19"/>
<circle cx="730.0" cy="56.3" r="4" fill="#008300"/>
<path d="M64.0,227.6 L78.2,227.6 L92.3,227.6 L106.5,227.6 L120.7,227.6 L134.9,227.6 L149.0,227.6 L163.2,227.6 L177.4,227.6 L191.5,227.6 L205.7,227.6 L219.9,227.6 L234.0,227.6 L248.2,227.6 L262.4,227.6 L276.6,227.6 L290.7,227.6 L304.9,227.6 L319.1,227.6 L333.2,227.6 L347.4,227.6 L361.6,227.6 L375.7,227.6 L389.9,227.6 L404.1,227.6 L418.3,227.6 L432.4,227.6 L446.6,227.6 L460.8,227.6 L474.9,227.6 L489.1,227.6 L503.3,227.6 L517.4,227.6 L531.6,227.8 L545.8,227.8 L560.0,227.8 L574.1,227.8 L588.3,227.7 L602.5,227.7 L616.6,227.8 L630.8,227.8 L645.0,227.7 L659.1,227.7 L673.3,227.7 L687.5,227.7 L701.7,227.7 L715.8,227.7 L730.0,227.7" fill="none" stroke="#9085e9" stroke-width="2" stroke-linejoin="round" stroke-linecap="round"/>
<circle cx="730.0" cy="227.7" r="6" fill="#1a1a19"/>
<circle cx="730.0" cy="227.7" r="4" fill="#9085e9"/>
<circle cx="745.0" cy="52.8" r="3.5" fill="#008300"/>
<text x="753.0" y="56.3" font-family='system-ui, -apple-system, "Segoe UI", sans-serif' font-size="11" fill="#ffffff">reverb</text>
<text x="753.0" y="68.3" font-family='system-ui, -apple-system, "Segoe UI", sans-serif' font-size="10" style="font-variant-numeric: tabular-nums" fill="#c3c2b7">50.5M</text>
<circle cx="745.0" cy="85.8" r="3.5" fill="#3987e5"/>
<text x="753.0" y="89.3" font-family='system-ui, -apple-system, "Segoe UI", sans-serif' font-size="11" fill="#ffffff">auto-filter</text>
<text x="753.0" y="101.3" font-family='system-ui, -apple-system, "Segoe UI", sans-serif' font-size="10" style="font-variant-numeric: tabular-nums" fill="#c3c2b7">43.8M</text>
<line x1="736.0" y1="92.4" x2="740.0" y2="117.3" stroke="#383835" stroke-width="1"/>
<circle cx="745.0" cy="113.8" r="3.5" fill="#c98500"/>
<text x="753.0" y="117.3" font-family='system-ui, -apple-system, "Segoe UI", sans-serif' font-size="11" fill="#ffffff">echo</text>
<text x="753.0" y="129.3" font-family='system-ui, -apple-system, "Segoe UI", sans-serif' font-size="10" style="font-variant-numeric: tabular-nums" fill="#c3c2b7">43.2M</text>
<line x1="736.0" y1="104.2" x2="740.0" y2="145.3" stroke="#383835" stroke-width="1"/>
<circle cx="745.0" cy="141.8" r="3.5" fill="#199e70"/>
<text x="753.0" y="145.3" font-family='system-ui, -apple-system, "Segoe UI", sans-serif' font-size="11" fill="#ffffff">autotune</text>
<text x="753.0" y="157.3" font-family='system-ui, -apple-system, "Segoe UI", sans-serif' font-size="10" style="font-variant-numeric: tabular-nums" fill="#c3c2b7">40.8M</text>
<circle cx="745.0" cy="224.2" r="3.5" fill="#9085e9"/>
<text x="753.0" y="227.7" font-family='system-ui, -apple-system, "Segoe UI", sans-serif' font-size="11" fill="#ffffff">sampler-arp</text>
<text x="753.0" y="239.7" font-family='system-ui, -apple-system, "Segoe UI", sans-serif' font-size="10" style="font-variant-numeric: tabular-nums" fill="#c3c2b7">15.8M</text>
</svg>