<svg xmlns="http://www.w3.org/2000/svg" width="880" height="340" viewBox="0 0 880 340" role="img" aria-label="Whole-instrument render cost">
<rect width="880" height="340" rx="6" fill="#fcfcfb"/>
<text x="64" y="24" font-family='system-ui, -apple-system, "Segoe UI", sans-serif' font-size="14" font-weight="600" fill="#0b0b0b">Whole-instrument render cost</text>
<text x="64" y="41" font-family='system-ui, -apple-system, "Segoe UI", sans-serif' font-size="11" fill="#52514e">render_block of 1 s of audio - callgrind instructions (Ir), per dev commit, 2026-07-12 to 2026-07-19</text>
<line x1="64" y1="306.0" x2="730" y2="306.0" stroke="#e1e0d9" stroke-width="1"/>
<text x="56" y="309.5" text-anchor="end" font-family='system-ui, -apple-system, "Segoe UI", sans-serif' font-size="11" style="font-variant-numeric: tabular-nums" fill="#898781">0</text>
<line x1="64" y1="207.1" x2="730" y2="207.1" stroke="#e1e0d9" stroke-width="1"/>
<text x="56" y="210.6" text-anchor="end" font-family='system-ui, -apple-system, "Segoe UI", sans-serif' font-size="11" style="font-variant-numeric: tabular-nums" fill="#898781">20</text>
<line x1="64" y1="108.2" x2="730" y2="108.2" stroke="#e1e0d9" stroke-width="1"/>
<text x="56" y="111.7" text-anchor="end" font-family='system-ui, -apple-system, "Segoe UI", sans-serif' font-size="11" style="font-variant-numeric: tabular-nums" fill="#898781">40</text>
<text x="56" y="46" text-anchor="end" font-family='system-ui, -apple-system, "Segoe UI", sans-serif' font-size="10" fill="#898781">Ir (M)</text>
<line x1="64" y1="306" x2="730" y2="306" stroke="#c3c2b7" stroke-width="1"/>
<text x="64.0" y="322" text-anchor="middle" font-family='system-ui, -apple-system, "Segoe UI", sans-serif' font-size="11" style="font-variant-numeric: tabular-nums" fill="#898781">07-12</text>
<text x="201.8" y="322" text-anchor="middle" font-family='system-ui, -apple-system, "Segoe UI", sans-serif' font-size="11" style="font-variant-numeric: tabular-nums" fill="#898781">07-13</text>
<text x="224.8" y="322" text-anchor="middle" font-family='system-ui, -apple-system, "Segoe UI", sans-serif' font-size="11" style="font-variant-numeric: tabular-nums" fill="#898781">07-14</text>
<text x="247.7" y="322" text-anchor="middle" font-family='system-ui, -apple-system, "Segoe UI", sans-serif' font-size="11" style="font-variant-numeric: tabular-nums" fill="#898781">07-16</text>
<text x="431.4" y="322" text-anchor="middle" font-family='system-ui, -apple-system, "Segoe UI", sans-serif' font-size="11" style="font-variant-numeric: tabular-nums" fill="#898781">07-17</text>
<text x="569.2" y="322" text-anchor="middle" font-family='system-ui, -apple-system, "Segoe UI", sans-serif' font-size="11" style="font-variant-numeric: tabular-nums" fill="#898781">07-18</text>
<text x="707.0" y="322" text-anchor="middle" font-family='system-ui, -apple-system, "Segoe UI", sans-serif' font-size="11" style="font-variant-numeric: tabular-nums" fill="#898781">07-19</text>
<path d="M64.0,88.9 L87.0,88.9 L109.9,88.9 L132.9,88.9 L155.9,88.9 L178.8,88.9 L201.8,88.9 L224.8,88.9 L247.7,88.9 L270.7,88.9 L293.7,88.9 L316.6,88.9 L339.6,88.9 L362.6,88.9 L385.5,88.9 L408.5,88.9 L431.4,88.9 L454.4,88.9 L477.4,88.9 L500.3,88.9 L523.3,88.9 L546.3,88.9 L569.2,88.9 L592.2,88.9 L615.2,88.9 L638.1,88.9 L661.1,88.9 L684.1,88.9 L707.0,89.0 L730.0,89.0" fill="none" stroke="#2a78d6" stroke-width="2" stroke-linejoin="round" stroke-linecap="round"/>
<circle cx="730.0" cy="89.0" r="6" fill="#fcfcfb"/>
<circle cx="730.0" cy="89.0" r="4" fill="#2a78d6"/>
<path d="M64.0,103.9 L87.0,103.9 L109.9,103.9 L132.9,103.9 L155.9,103.9 L178.8,103.9 L201.8,103.8 L224.8,103.8 L247.7,103.8 L270.7,103.8 L293.7,103.8 L316.6,103.8 L339.6,103.8 L362.6,103.8 L385.5,103.9 L408.5,103.9 L431.4,103.9 L454.4,103.9 L477.4,103.9 L500.3,103.9 L523.3,103.9 L546.3,103.9 L569.2,103.9 L592.2,103.9 L615.2,103.9 L638.1,103.9 L661.1,103.9 L684.1,103.9 L707.0,103.9 L730.0,103.9" fill="none" stroke="#1baf7a" stroke-width="2" stroke-linejoin="round" stroke-linecap="round"/>
<circle cx="730.0" cy="103.9" r="6" fill="#fcfcfb"/>
<circle cx="730.0" cy="103.9" r="4" fill="#1baf7a"/>
<path d="M64.0,92.1 L87.0,92.1 L109.9,92.1 L132.9,92.1 L155.9,92.1 L178.8,92.1 L201.8,92.1 L224.8,92.1 L247.7,92.1 L270.7,92.1 L293.7,92.1 L316.6,92.1 L339.6,92.1 L362.6,92.1 L385.5,92.1 L408.5,92.1 L431.4,92.1 L454.4,92.1 L477.4,92.1 L500.3,92.1 L523.3,92.1 L546.3,92.1 L569.2,92.1 L592.2,92.1 L615.2,92.1 L638.1,92.1 L661.1,92.1 L684.1,92.1 L707.0,92.1 L730.0,92.1" fill="none" stroke="#eda100" stroke-width="2" stroke-linejoin="round" stroke-linecap="round"/>
<circle cx="730.0" cy="92.1" r="6" fill="#fcfcfb"/>
<circle cx="730.0" cy="92.1" r="4" fill="#eda100"/>
<path d="M64.0,56.0 L87.0,56.0 L109.9,56.0 L132.9,56.0 L155.9,56.0 L178.8,56.0 L201.8,56.0 L224.8,56.0 L247.7,56.0 L270.7,56.0 L293.7,56.0 L316.6,56.0 L339.6,56.0 L362.6,56.0 L385.5,56.0 L408.5,56.0 L431.4,56.0 L454.4,56.0 L477.4,56.0 L500.3,56.0 L523.3,56.0 L546.3,56.0 L569.2,56.0 L592.2,56.0 L615.2,56.0 L638.1,56.0 L661.1,56.0 L684.1,56.0 L707.0,56.0 L730.0,56.0" fill="none" stroke="#008300" stroke-width="2" stroke-linejoin="round" stroke-linecap="round"/>
<circle cx="730.0" cy="56.0" r="6" fill="#fcfcfb"/>
<circle cx="730.0" cy="56.0" r="4" fill="#008300"/>
<path d="M64.0,227.6 L87.0,227.6 L109.9,227.6 L132.9,227.6 L155.9,227.6 L178.8,227.6 L201.8,227.6 L224.8,227.6 L247.7,227.6 L270.7,227.6 L293.7,227.6 L316.6,227.6 L339.6,227.6 L362.6,227.6 L385.5,227.6 L408.5,227.6 L431.4,227.6 L454.4,227.6 L477.4,227.6 L500.3,227.6 L523.3,227.6 L546.3,227.6 L569.2,227.6 L592.2,227.6 L615.2,227.6 L638.1,227.6 L661.1,227.6 L684.1,227.6 L707.0,227.6 L730.0,227.6" fill="none" stroke="#4a3aa7" stroke-width="2" stroke-linejoin="round" stroke-linecap="round"/>
<circle cx="730.0" cy="227.6" r="6" fill="#fcfcfb"/>
<circle cx="730.0" cy="227.6" r="4" fill="#4a3aa7"/>
<circle cx="745.0" cy="52.5" r="3.5" fill="#008300"/>
<text x="753.0" y="56.0" font-family='system-ui, -apple-system, "Segoe UI", sans-serif' font-size="11" fill="#0b0b0b">reverb</text>
<text x="753.0" y="68.0" font-family='system-ui, -apple-system, "Segoe UI", sans-serif' font-size="10" style="font-variant-numeric: tabular-nums" fill="#52514e">50.5M</text>
<circle cx="745.0" cy="85.5" r="3.5" fill="#2a78d6"/>
<text x="753.0" y="89.0" font-family='system-ui, -apple-system, "Segoe UI", sans-serif' font-size="11" fill="#0b0b0b">auto-filter</text>
<text x="753.0" y="101.0" font-family='system-ui, -apple-system, "Segoe UI", sans-serif' font-size="10" style="font-variant-numeric: tabular-nums" fill="#52514e">43.9M</text>
<line x1="736.0" y1="92.1" x2="740.0" y2="117.0" stroke="#c3c2b7" stroke-width="1"/>
<circle cx="745.0" cy="113.5" r="3.5" fill="#eda100"/>
<text x="753.0" y="117.0" font-family='system-ui, -apple-system, "Segoe UI", sans-serif' font-size="11" fill="#0b0b0b">echo</text>
<text x="753.0" y="129.0" font-family='system-ui, -apple-system, "Segoe UI", sans-serif' font-size="10" style="font-variant-numeric: tabular-nums" fill="#52514e">43.2M</text>
<line x1="736.0" y1="103.9" x2="740.0" y2="145.0" stroke="#c3c2b7" stroke-width="1"/>
<circle cx="745.0" cy="141.5" r="3.5" fill="#1baf7a"/>
<text x="753.0" y="145.0" font-family='system-ui, -apple-system, "Segoe UI", sans-serif' font-size="11" fill="#0b0b0b">autotune</text>
<text x="753.0" y="157.0" font-family='system-ui, -apple-system, "Segoe UI", sans-serif' font-size="10" style="font-variant-numeric: tabular-nums" fill="#52514e">40.9M</text>
<circle cx="745.0" cy="224.1" r="3.5" fill="#4a3aa7"/>
<text x="753.0" y="227.6" font-family='system-ui, -apple-system, "Segoe UI", sans-serif' font-size="11" fill="#0b0b0b">sampler-arp</text>
<text x="753.0" y="239.6" font-family='system-ui, -apple-system, "Segoe UI", sans-serif' font-size="10" style="font-variant-numeric: tabular-nums" fill="#52514e">15.8M</text>
</svg>