<svg xmlns="http://www.w3.org/2000/svg" width="880" height="340" viewBox="0 0 880 340" role="img" aria-label="Whole-instrument render cost">
<rect width="880" height="340" rx="6" fill="#fcfcfb"/>
<text x="64" y="24" font-family='system-ui, -apple-system, "Segoe UI", sans-serif' font-size="14" font-weight="600" fill="#0b0b0b">Whole-instrument render cost</text>
<text x="64" y="41" font-family='system-ui, -apple-system, "Segoe UI", sans-serif' font-size="11" fill="#52514e">render_block of 1 s of audio - callgrind instructions (Ir), per dev commit, 2026-07-12 to 2026-07-20</text>
<line x1="64" y1="306.0" x2="730" y2="306.0" stroke="#e1e0d9" stroke-width="1"/>
<text x="56" y="309.5" text-anchor="end" font-family='system-ui, -apple-system, "Segoe UI", sans-serif' font-size="11" style="font-variant-numeric: tabular-nums" fill="#898781">0</text>
<line x1="64" y1="207.1" x2="730" y2="207.1" stroke="#e1e0d9" stroke-width="1"/>
<text x="56" y="210.6" text-anchor="end" font-family='system-ui, -apple-system, "Segoe UI", sans-serif' font-size="11" style="font-variant-numeric: tabular-nums" fill="#898781">20</text>
<line x1="64" y1="108.2" x2="730" y2="108.2" stroke="#e1e0d9" stroke-width="1"/>
<text x="56" y="111.7" text-anchor="end" font-family='system-ui, -apple-system, "Segoe UI", sans-serif' font-size="11" style="font-variant-numeric: tabular-nums" fill="#898781">40</text>
<text x="56" y="46" text-anchor="end" font-family='system-ui, -apple-system, "Segoe UI", sans-serif' font-size="10" fill="#898781">Ir (M)</text>
<line x1="64" y1="306" x2="730" y2="306" stroke="#c3c2b7" stroke-width="1"/>
<text x="64.0" y="322" text-anchor="middle" font-family='system-ui, -apple-system, "Segoe UI", sans-serif' font-size="11" style="font-variant-numeric: tabular-nums" fill="#898781">07-12</text>
<text x="181.5" y="322" text-anchor="middle" font-family='system-ui, -apple-system, "Segoe UI", sans-serif' font-size="11" style="font-variant-numeric: tabular-nums" fill="#898781">07-13</text>
<text x="201.1" y="322" text-anchor="middle" font-family='system-ui, -apple-system, "Segoe UI", sans-serif' font-size="11" style="font-variant-numeric: tabular-nums" fill="#898781">07-14</text>
<text x="220.7" y="322" text-anchor="middle" font-family='system-ui, -apple-system, "Segoe UI", sans-serif' font-size="11" style="font-variant-numeric: tabular-nums" fill="#898781">07-16</text>
<text x="377.4" y="322" text-anchor="middle" font-family='system-ui, -apple-system, "Segoe UI", sans-serif' font-size="11" style="font-variant-numeric: tabular-nums" fill="#898781">07-17</text>
<text x="494.9" y="322" text-anchor="middle" font-family='system-ui, -apple-system, "Segoe UI", sans-serif' font-size="11" style="font-variant-numeric: tabular-nums" fill="#898781">07-18</text>
<text x="612.5" y="322" text-anchor="middle" font-family='system-ui, -apple-system, "Segoe UI", sans-serif' font-size="11" style="font-variant-numeric: tabular-nums" fill="#898781">07-19</text>
<text x="671.2" y="322" text-anchor="middle" font-family='system-ui, -apple-system, "Segoe UI", sans-serif' font-size="11" style="font-variant-numeric: tabular-nums" fill="#898781">07-20</text>
<path d="M64.0,88.9 L83.6,88.9 L103.2,88.9 L122.8,88.9 L142.4,88.9 L161.9,88.9 L181.5,88.9 L201.1,88.9 L220.7,88.9 L240.3,88.9 L259.9,88.9 L279.5,88.9 L299.1,88.9 L318.6,88.9 L338.2,88.9 L357.8,88.9 L377.4,88.9 L397.0,88.9 L416.6,88.9 L436.2,88.9 L455.8,88.9 L475.4,88.9 L494.9,88.9 L514.5,88.9 L534.1,88.9 L553.7,88.9 L573.3,88.9 L592.9,88.9 L612.5,89.0 L632.1,89.0 L651.6,89.0 L671.2,89.0 L690.8,89.0 L710.4,89.3 L730.0,89.3" fill="none" stroke="#2a78d6" stroke-width="2" stroke-linejoin="round" stroke-linecap="round"/>
<circle cx="730.0" cy="89.3" r="6" fill="#fcfcfb"/>
<circle cx="730.0" cy="89.3" r="4" fill="#2a78d6"/>
<path d="M64.0,103.9 L83.6,103.9 L103.2,103.9 L122.8,103.9 L142.4,103.9 L161.9,103.9 L181.5,103.8 L201.1,103.8 L220.7,103.8 L240.3,103.8 L259.9,103.8 L279.5,103.8 L299.1,103.8 L318.6,103.8 L338.2,103.9 L357.8,103.9 L377.4,103.9 L397.0,103.9 L416.6,103.9 L436.2,103.9 L455.8,103.9 L475.4,103.9 L494.9,103.9 L514.5,103.9 L534.1,103.9 L553.7,103.9 L573.3,103.9 L592.9,103.9 L612.5,103.9 L632.1,103.9 L651.6,103.9 L671.2,103.9 L690.8,103.9 L710.4,104.2 L730.0,104.2" fill="none" stroke="#1baf7a" stroke-width="2" stroke-linejoin="round" stroke-linecap="round"/>
<circle cx="730.0" cy="104.2" r="6" fill="#fcfcfb"/>
<circle cx="730.0" cy="104.2" r="4" fill="#1baf7a"/>
<path d="M64.0,92.1 L83.6,92.1 L103.2,92.1 L122.8,92.1 L142.4,92.1 L161.9,92.1 L181.5,92.1 L201.1,92.1 L220.7,92.1 L240.3,92.1 L259.9,92.1 L279.5,92.1 L299.1,92.1 L318.6,92.1 L338.2,92.1 L357.8,92.1 L377.4,92.1 L397.0,92.1 L416.6,92.1 L436.2,92.1 L455.8,92.1 L475.4,92.1 L494.9,92.1 L514.5,92.1 L534.1,92.1 L553.7,92.1 L573.3,92.1 L592.9,92.1 L612.5,92.1 L632.1,92.1 L651.6,92.1 L671.2,92.1 L690.8,92.1 L710.4,92.4 L730.0,92.4" fill="none" stroke="#eda100" stroke-width="2" stroke-linejoin="round" stroke-linecap="round"/>
<circle cx="730.0" cy="92.4" r="6" fill="#fcfcfb"/>
<circle cx="730.0" cy="92.4" r="4" fill="#eda100"/>
<path d="M64.0,56.0 L83.6,56.0 L103.2,56.0 L122.8,56.0 L142.4,56.0 L161.9,56.0 L181.5,56.0 L201.1,56.0 L220.7,56.0 L240.3,56.0 L259.9,56.0 L279.5,56.0 L299.1,56.0 L318.6,56.0 L338.2,56.0 L357.8,56.0 L377.4,56.0 L397.0,56.0 L416.6,56.0 L436.2,56.0 L455.8,56.0 L475.4,56.0 L494.9,56.0 L514.5,56.0 L534.1,56.0 L553.7,56.0 L573.3,56.0 L592.9,56.0 L612.5,56.0 L632.1,56.0 L651.6,56.0 L671.2,56.0 L690.8,56.0 L710.4,56.3 L730.0,56.3" fill="none" stroke="#008300" stroke-width="2" stroke-linejoin="round" stroke-linecap="round"/>
<circle cx="730.0" cy="56.3" r="6" fill="#fcfcfb"/>
<circle cx="730.0" cy="56.3" r="4" fill="#008300"/>
<path d="M64.0,227.6 L83.6,227.6 L103.2,227.6 L122.8,227.6 L142.4,227.6 L161.9,227.6 L181.5,227.6 L201.1,227.6 L220.7,227.6 L240.3,227.6 L259.9,227.6 L279.5,227.6 L299.1,227.6 L318.6,227.6 L338.2,227.6 L357.8,227.6 L377.4,227.6 L397.0,227.6 L416.6,227.6 L436.2,227.6 L455.8,227.6 L475.4,227.6 L494.9,227.6 L514.5,227.6 L534.1,227.6 L553.7,227.6 L573.3,227.6 L592.9,227.6 L612.5,227.6 L632.1,227.6 L651.6,227.6 L671.2,227.6 L690.8,227.6 L710.4,227.8 L730.0,227.8" fill="none" stroke="#4a3aa7" stroke-width="2" stroke-linejoin="round" stroke-linecap="round"/>
<circle cx="730.0" cy="227.8" r="6" fill="#fcfcfb"/>
<circle cx="730.0" cy="227.8" r="4" fill="#4a3aa7"/>
<circle cx="745.0" cy="52.8" r="3.5" fill="#008300"/>
<text x="753.0" y="56.3" font-family='system-ui, -apple-system, "Segoe UI", sans-serif' font-size="11" fill="#0b0b0b">reverb</text>
<text x="753.0" y="68.3" font-family='system-ui, -apple-system, "Segoe UI", sans-serif' font-size="10" style="font-variant-numeric: tabular-nums" fill="#52514e">50.5M</text>
<circle cx="745.0" cy="85.8" r="3.5" fill="#2a78d6"/>
<text x="753.0" y="89.3" font-family='system-ui, -apple-system, "Segoe UI", sans-serif' font-size="11" fill="#0b0b0b">auto-filter</text>
<text x="753.0" y="101.3" font-family='system-ui, -apple-system, "Segoe UI", sans-serif' font-size="10" style="font-variant-numeric: tabular-nums" fill="#52514e">43.8M</text>
<line x1="736.0" y1="92.4" x2="740.0" y2="117.3" stroke="#c3c2b7" stroke-width="1"/>
<circle cx="745.0" cy="113.8" r="3.5" fill="#eda100"/>
<text x="753.0" y="117.3" font-family='system-ui, -apple-system, "Segoe UI", sans-serif' font-size="11" fill="#0b0b0b">echo</text>
<text x="753.0" y="129.3" font-family='system-ui, -apple-system, "Segoe UI", sans-serif' font-size="10" style="font-variant-numeric: tabular-nums" fill="#52514e">43.2M</text>
<line x1="736.0" y1="104.2" x2="740.0" y2="145.3" stroke="#c3c2b7" stroke-width="1"/>
<circle cx="745.0" cy="141.8" r="3.5" fill="#1baf7a"/>
<text x="753.0" y="145.3" font-family='system-ui, -apple-system, "Segoe UI", sans-serif' font-size="11" fill="#0b0b0b">autotune</text>
<text x="753.0" y="157.3" font-family='system-ui, -apple-system, "Segoe UI", sans-serif' font-size="10" style="font-variant-numeric: tabular-nums" fill="#52514e">40.8M</text>
<circle cx="745.0" cy="224.3" r="3.5" fill="#4a3aa7"/>
<text x="753.0" y="227.8" font-family='system-ui, -apple-system, "Segoe UI", sans-serif' font-size="11" fill="#0b0b0b">sampler-arp</text>
<text x="753.0" y="239.8" font-family='system-ui, -apple-system, "Segoe UI", sans-serif' font-size="10" style="font-variant-numeric: tabular-nums" fill="#52514e">15.8M</text>
</svg>