<svg xmlns="http://www.w3.org/2000/svg" width="880" height="340" viewBox="0 0 880 340" role="img" aria-label="Whole-instrument render cost">
<rect width="880" height="340" rx="6" fill="#1a1a19"/>
<text x="64" y="24" font-family='system-ui, -apple-system, "Segoe UI", sans-serif' font-size="14" font-weight="600" fill="#ffffff">Whole-instrument render cost</text>
<text x="64" y="41" font-family='system-ui, -apple-system, "Segoe UI", sans-serif' font-size="11" fill="#c3c2b7">render_block of 1 s of audio - callgrind instructions (Ir), per dev commit, 2026-07-12 to 2026-07-21</text>
<line x1="64" y1="306.0" x2="730" y2="306.0" stroke="#2c2c2a" stroke-width="1"/>
<text x="56" y="309.5" text-anchor="end" font-family='system-ui, -apple-system, "Segoe UI", sans-serif' font-size="11" style="font-variant-numeric: tabular-nums" fill="#898781">0</text>
<line x1="64" y1="207.1" x2="730" y2="207.1" stroke="#2c2c2a" stroke-width="1"/>
<text x="56" y="210.6" text-anchor="end" font-family='system-ui, -apple-system, "Segoe UI", sans-serif' font-size="11" style="font-variant-numeric: tabular-nums" fill="#898781">20</text>
<line x1="64" y1="108.2" x2="730" y2="108.2" stroke="#2c2c2a" stroke-width="1"/>
<text x="56" y="111.7" text-anchor="end" font-family='system-ui, -apple-system, "Segoe UI", sans-serif' font-size="11" style="font-variant-numeric: tabular-nums" fill="#898781">40</text>
<text x="56" y="46" text-anchor="end" font-family='system-ui, -apple-system, "Segoe UI", sans-serif' font-size="10" fill="#898781">Ir (M)</text>
<line x1="64" y1="306" x2="730" y2="306" stroke="#383835" stroke-width="1"/>
<text x="64.0" y="322" text-anchor="middle" font-family='system-ui, -apple-system, "Segoe UI", sans-serif' font-size="11" style="font-variant-numeric: tabular-nums" fill="#898781">07-12</text>
<text x="150.3" y="322" text-anchor="middle" font-family='system-ui, -apple-system, "Segoe UI", sans-serif' font-size="11" style="font-variant-numeric: tabular-nums" fill="#898781">07-14</text>
<text x="261.3" y="322" text-anchor="middle" font-family='system-ui, -apple-system, "Segoe UI", sans-serif' font-size="11" style="font-variant-numeric: tabular-nums" fill="#898781">07-17</text>
<text x="409.3" y="322" text-anchor="middle" font-family='system-ui, -apple-system, "Segoe UI", sans-serif' font-size="11" style="font-variant-numeric: tabular-nums" fill="#898781">07-19</text>
<text x="631.3" y="322" text-anchor="middle" font-family='system-ui, -apple-system, "Segoe UI", sans-serif' font-size="11" style="font-variant-numeric: tabular-nums" fill="#898781">07-21</text>
<path d="M64.0,88.9 L76.3,88.9 L88.7,88.9 L101.0,88.9 L113.3,88.9 L125.7,88.9 L138.0,88.9 L150.3,88.9 L162.7,88.9 L175.0,88.9 L187.3,88.9 L199.7,88.9 L212.0,88.9 L224.3,88.9 L236.7,88.9 L249.0,88.9 L261.3,88.9 L273.7,88.9 L286.0,88.9 L298.3,88.9 L310.7,88.9 L323.0,88.9 L335.3,88.9 L347.7,88.9 L360.0,88.9 L372.3,88.9 L384.7,88.9 L397.0,88.9 L409.3,89.0 L421.7,89.0 L434.0,89.0 L446.3,89.0 L458.7,89.0 L471.0,89.3 L483.3,89.3 L495.7,89.3 L508.0,89.3 L520.3,89.3 L532.7,89.3 L545.0,89.2 L557.3,89.2 L569.7,89.3 L582.0,89.3 L594.3,89.3 L606.7,89.3 L619.0,89.3 L631.3,89.3 L643.7,89.3 L656.0,89.3 L668.3,89.3 L680.7,120.2 L693.0,120.2 L705.3,120.2 L717.7,120.2 L730.0,120.2" fill="none" stroke="#3987e5" stroke-width="2" stroke-linejoin="round" stroke-linecap="round"/>
<circle cx="730.0" cy="120.2" r="6" fill="#1a1a19"/>
<circle cx="730.0" cy="120.2" r="4" fill="#3987e5"/>
<path d="M64.0,103.9 L76.3,103.9 L88.7,103.9 L101.0,103.9 L113.3,103.9 L125.7,103.9 L138.0,103.8 L150.3,103.8 L162.7,103.8 L175.0,103.8 L187.3,103.8 L199.7,103.8 L212.0,103.8 L224.3,103.8 L236.7,103.9 L249.0,103.9 L261.3,103.9 L273.7,103.9 L286.0,103.9 L298.3,103.9 L310.7,103.9 L323.0,103.9 L335.3,103.9 L347.7,103.9 L360.0,103.9 L372.3,103.9 L384.7,103.9 L397.0,103.9 L409.3,103.9 L421.7,103.9 L434.0,103.9 L446.3,103.9 L458.7,103.9 L471.0,104.2 L483.3,104.2 L495.7,104.2 L508.0,104.2 L520.3,104.1 L532.7,104.1 L545.0,104.2 L557.3,104.2 L569.7,104.2 L582.0,104.2 L594.3,104.2 L606.7,104.2 L619.0,104.2 L631.3,104.2 L643.7,104.2 L656.0,104.2 L668.3,104.2 L680.7,131.8 L693.0,131.8 L705.3,131.8 L717.7,131.8 L730.0,131.8" fill="none" stroke="#199e70" stroke-width="2" stroke-linejoin="round" stroke-linecap="round"/>
<circle cx="730.0" cy="131.8" r="6" fill="#1a1a19"/>
<circle cx="730.0" cy="131.8" r="4" fill="#199e70"/>
<path d="M64.0,92.1 L76.3,92.1 L88.7,92.1 L101.0,92.1 L113.3,92.1 L125.7,92.1 L138.0,92.1 L150.3,92.1 L162.7,92.1 L175.0,92.1 L187.3,92.1 L199.7,92.1 L212.0,92.1 L224.3,92.1 L236.7,92.1 L249.0,92.1 L261.3,92.1 L273.7,92.1 L286.0,92.1 L298.3,92.1 L310.7,92.1 L323.0,92.1 L335.3,92.1 L347.7,92.1 L360.0,92.1 L372.3,92.1 L384.7,92.1 L397.0,92.1 L409.3,92.1 L421.7,92.1 L434.0,92.1 L446.3,92.1 L458.7,92.1 L471.0,92.4 L483.3,92.4 L495.7,92.4 L508.0,92.4 L520.3,92.4 L532.7,92.4 L545.0,92.3 L557.3,92.3 L569.7,92.4 L582.0,92.4 L594.3,92.4 L606.7,92.4 L619.0,92.4 L631.3,92.4 L643.7,92.4 L656.0,92.4 L668.3,92.4 L680.7,120.0 L693.0,119.9 L705.3,119.9 L717.7,119.9 L730.0,119.9" fill="none" stroke="#c98500" stroke-width="2" stroke-linejoin="round" stroke-linecap="round"/>
<circle cx="730.0" cy="119.9" r="6" fill="#1a1a19"/>
<circle cx="730.0" cy="119.9" r="4" fill="#c98500"/>
<path d="M64.0,56.0 L76.3,56.0 L88.7,56.0 L101.0,56.0 L113.3,56.0 L125.7,56.0 L138.0,56.0 L150.3,56.0 L162.7,56.0 L175.0,56.0 L187.3,56.0 L199.7,56.0 L212.0,56.0 L224.3,56.0 L236.7,56.0 L249.0,56.0 L261.3,56.0 L273.7,56.0 L286.0,56.0 L298.3,56.0 L310.7,56.0 L323.0,56.0 L335.3,56.0 L347.7,56.0 L360.0,56.0 L372.3,56.0 L384.7,56.0 L397.0,56.0 L409.3,56.0 L421.7,56.0 L434.0,56.0 L446.3,56.0 L458.7,56.0 L471.0,56.3 L483.3,56.3 L495.7,56.3 L508.0,56.3 L520.3,56.3 L532.7,56.3 L545.0,56.2 L557.3,56.2 L569.7,56.3 L582.0,56.3 L594.3,56.3 L606.7,56.3 L619.0,56.3 L631.3,56.3 L643.7,56.3 L656.0,56.3 L668.3,56.3 L680.7,83.9 L693.0,83.9 L705.3,83.9 L717.7,83.9 L730.0,83.9" fill="none" stroke="#008300" stroke-width="2" stroke-linejoin="round" stroke-linecap="round"/>
<circle cx="730.0" cy="83.9" r="6" fill="#1a1a19"/>
<circle cx="730.0" cy="83.9" r="4" fill="#008300"/>
<path d="M64.0,227.6 L76.3,227.6 L88.7,227.6 L101.0,227.6 L113.3,227.6 L125.7,227.6 L138.0,227.6 L150.3,227.6 L162.7,227.6 L175.0,227.6 L187.3,227.6 L199.7,227.6 L212.0,227.6 L224.3,227.6 L236.7,227.6 L249.0,227.6 L261.3,227.6 L273.7,227.6 L286.0,227.6 L298.3,227.6 L310.7,227.6 L323.0,227.6 L335.3,227.6 L347.7,227.6 L360.0,227.6 L372.3,227.6 L384.7,227.6 L397.0,227.6 L409.3,227.6 L421.7,227.6 L434.0,227.6 L446.3,227.6 L458.7,227.6 L471.0,227.8 L483.3,227.8 L495.7,227.8 L508.0,227.8 L520.3,227.7 L532.7,227.7 L545.0,227.8 L557.3,227.8 L569.7,227.7 L582.0,227.7 L594.3,227.7 L606.7,227.7 L619.0,227.7 L631.3,227.7 L643.7,227.7 L656.0,227.7 L668.3,227.7 L680.7,227.7 L693.0,227.7 L705.3,227.7 L717.7,227.7 L730.0,227.7" fill="none" stroke="#9085e9" stroke-width="2" stroke-linejoin="round" stroke-linecap="round"/>
<circle cx="730.0" cy="227.7" r="6" fill="#1a1a19"/>
<circle cx="730.0" cy="227.7" r="4" fill="#9085e9"/>
<circle cx="745.0" cy="80.4" r="3.5" fill="#008300"/>
<text x="753.0" y="83.9" font-family='system-ui, -apple-system, "Segoe UI", sans-serif' font-size="11" fill="#ffffff">reverb</text>
<text x="753.0" y="95.9" font-family='system-ui, -apple-system, "Segoe UI", sans-serif' font-size="10" style="font-variant-numeric: tabular-nums" fill="#c3c2b7">44.9M</text>
<circle cx="745.0" cy="116.4" r="3.5" fill="#c98500"/>
<text x="753.0" y="119.9" font-family='system-ui, -apple-system, "Segoe UI", sans-serif' font-size="11" fill="#ffffff">echo</text>
<text x="753.0" y="131.9" font-family='system-ui, -apple-system, "Segoe UI", sans-serif' font-size="10" style="font-variant-numeric: tabular-nums" fill="#c3c2b7">37.6M</text>
<line x1="736.0" y1="120.2" x2="740.0" y2="147.9" stroke="#383835" stroke-width="1"/>
<circle cx="745.0" cy="144.4" r="3.5" fill="#3987e5"/>
<text x="753.0" y="147.9" font-family='system-ui, -apple-system, "Segoe UI", sans-serif' font-size="11" fill="#ffffff">auto-filter</text>
<text x="753.0" y="159.9" font-family='system-ui, -apple-system, "Segoe UI", sans-serif' font-size="10" style="font-variant-numeric: tabular-nums" fill="#c3c2b7">37.6M</text>
<line x1="736.0" y1="131.8" x2="740.0" y2="175.9" stroke="#383835" stroke-width="1"/>
<circle cx="745.0" cy="172.4" r="3.5" fill="#199e70"/>
<text x="753.0" y="175.9" font-family='system-ui, -apple-system, "Segoe UI", sans-serif' font-size="11" fill="#ffffff">autotune</text>
<text x="753.0" y="187.9" font-family='system-ui, -apple-system, "Segoe UI", sans-serif' font-size="10" style="font-variant-numeric: tabular-nums" fill="#c3c2b7">35.2M</text>
<circle cx="745.0" cy="224.2" r="3.5" fill="#9085e9"/>
<text x="753.0" y="227.7" font-family='system-ui, -apple-system, "Segoe UI", sans-serif' font-size="11" fill="#ffffff">sampler-arp</text>
<text x="753.0" y="239.7" font-family='system-ui, -apple-system, "Segoe UI", sans-serif' font-size="10" style="font-variant-numeric: tabular-nums" fill="#c3c2b7">15.8M</text>
</svg>