<svg xmlns="http://www.w3.org/2000/svg" width="880" height="340" viewBox="0 0 880 340" role="img" aria-label="Whole-instrument render cost">
<rect width="880" height="340" rx="6" fill="#1a1a19"/>
<text x="64" y="24" font-family='system-ui, -apple-system, "Segoe UI", sans-serif' font-size="14" font-weight="600" fill="#ffffff">Whole-instrument render cost</text>
<text x="64" y="41" font-family='system-ui, -apple-system, "Segoe UI", sans-serif' font-size="11" fill="#c3c2b7">render_block of 1 s of audio - callgrind instructions (Ir), per main commit, 2026-06-28 to 2026-07-05</text>
<line x1="64" y1="306.0" x2="730" y2="306.0" stroke="#2c2c2a" stroke-width="1"/>
<text x="56" y="309.5" text-anchor="end" font-family='system-ui, -apple-system, "Segoe UI", sans-serif' font-size="11" style="font-variant-numeric: tabular-nums" fill="#898781">0</text>
<line x1="64" y1="228.2" x2="730" y2="228.2" stroke="#2c2c2a" stroke-width="1"/>
<text x="56" y="231.7" text-anchor="end" font-family='system-ui, -apple-system, "Segoe UI", sans-serif' font-size="11" style="font-variant-numeric: tabular-nums" fill="#898781">20</text>
<line x1="64" y1="150.4" x2="730" y2="150.4" stroke="#2c2c2a" stroke-width="1"/>
<text x="56" y="153.9" text-anchor="end" font-family='system-ui, -apple-system, "Segoe UI", sans-serif' font-size="11" style="font-variant-numeric: tabular-nums" fill="#898781">40</text>
<line x1="64" y1="72.6" x2="730" y2="72.6" stroke="#2c2c2a" stroke-width="1"/>
<text x="56" y="76.1" text-anchor="end" font-family='system-ui, -apple-system, "Segoe UI", sans-serif' font-size="11" style="font-variant-numeric: tabular-nums" fill="#898781">60</text>
<text x="56" y="46" text-anchor="end" font-family='system-ui, -apple-system, "Segoe UI", sans-serif' font-size="10" fill="#898781">Ir (M)</text>
<line x1="64" y1="306" x2="730" y2="306" stroke="#383835" stroke-width="1"/>
<text x="64.0" y="322" text-anchor="middle" font-family='system-ui, -apple-system, "Segoe UI", sans-serif' font-size="11" style="font-variant-numeric: tabular-nums" fill="#898781">06-28</text>
<text x="104.4" y="322" text-anchor="middle" font-family='system-ui, -apple-system, "Segoe UI", sans-serif' font-size="11" style="font-variant-numeric: tabular-nums" fill="#898781">06-29</text>
<text x="185.1" y="322" text-anchor="middle" font-family='system-ui, -apple-system, "Segoe UI", sans-serif' font-size="11" style="font-variant-numeric: tabular-nums" fill="#898781">06-30</text>
<text x="245.6" y="322" text-anchor="middle" font-family='system-ui, -apple-system, "Segoe UI", sans-serif' font-size="11" style="font-variant-numeric: tabular-nums" fill="#898781">07-01</text>
<text x="286.0" y="322" text-anchor="middle" font-family='system-ui, -apple-system, "Segoe UI", sans-serif' font-size="11" style="font-variant-numeric: tabular-nums" fill="#898781">07-02</text>
<text x="427.3" y="322" text-anchor="middle" font-family='system-ui, -apple-system, "Segoe UI", sans-serif' font-size="11" style="font-variant-numeric: tabular-nums" fill="#898781">07-03</text>
<text x="508.0" y="322" text-anchor="middle" font-family='system-ui, -apple-system, "Segoe UI", sans-serif' font-size="11" style="font-variant-numeric: tabular-nums" fill="#898781">07-04</text>
<text x="669.5" y="322" text-anchor="middle" font-family='system-ui, -apple-system, "Segoe UI", sans-serif' font-size="11" style="font-variant-numeric: tabular-nums" fill="#898781">07-05</text>
<path d="M64.0,72.9 L84.2,73.0 L104.4,80.1 L124.5,80.1 L144.7,94.2 L164.9,108.6 L185.1,108.6 L205.3,105.1 L225.5,105.4 L245.6,105.7 L265.8,105.7 L286.0,105.6 L306.2,105.5 L326.4,105.5 L346.5,105.5 L366.7,105.5" fill="none" stroke="#3987e5" stroke-width="2" stroke-linejoin="round" stroke-linecap="round"/>
<path d="M407.1,105.7 L427.3,122.6 L447.5,122.6 L467.6,125.2 L487.8,125.0 L508.0,125.0 L528.2,125.0 L548.4,125.0 L568.5,125.0 L588.7,125.0 L608.9,124.3 L629.1,124.3 L649.3,124.3 L669.5,124.3 L689.6,124.3 L709.8,124.5 L730.0,124.5" fill="none" stroke="#3987e5" stroke-width="2" stroke-linejoin="round" stroke-linecap="round"/>
<circle cx="730.0" cy="124.5" r="6" fill="#1a1a19"/>
<circle cx="730.0" cy="124.5" r="4" fill="#3987e5"/>
<path d="M64.0,98.8 L84.2,98.9 L104.4,98.2 L124.5,98.2 L144.7,107.4 L164.9,120.8 L185.1,120.7 L205.3,117.1 L225.5,117.4 L245.6,117.8 L265.8,117.7 L286.0,117.7 L306.2,117.5 L326.4,117.7 L346.5,117.7 L366.7,117.7" fill="none" stroke="#199e70" stroke-width="2" stroke-linejoin="round" stroke-linecap="round"/>
<path d="M407.1,117.8 L427.3,134.9 L447.5,134.9 L467.6,136.9 L487.8,136.6 L508.0,136.6 L528.2,136.6 L548.4,136.6 L568.5,136.6 L588.7,136.6 L608.9,135.8 L629.1,135.8 L649.3,135.8 L669.5,135.8 L689.6,135.8 L709.8,136.0 L730.0,136.0" fill="none" stroke="#199e70" stroke-width="2" stroke-linejoin="round" stroke-linecap="round"/>
<circle cx="730.0" cy="136.0" r="6" fill="#1a1a19"/>
<circle cx="730.0" cy="136.0" r="4" fill="#199e70"/>
<path d="M64.0,83.1 L84.2,83.1 L104.4,82.4 L124.5,82.4 L144.7,95.7 L164.9,110.0 L185.1,109.9 L205.3,106.6 L225.5,106.9 L245.6,107.2 L265.8,107.2 L286.0,107.0 L306.2,107.1 L326.4,107.1 L346.5,107.1 L366.7,107.1" fill="none" stroke="#c98500" stroke-width="2" stroke-linejoin="round" stroke-linecap="round"/>
<path d="M407.1,107.2 L427.3,125.6 L447.5,125.6 L467.6,127.5 L487.8,127.3 L508.0,127.3 L528.2,127.3 L548.4,127.3 L568.5,127.3 L588.7,127.5 L608.9,126.6 L629.1,126.3 L649.3,126.3 L669.5,126.3 L689.6,126.3 L709.8,126.9 L730.0,126.9" fill="none" stroke="#c98500" stroke-width="2" stroke-linejoin="round" stroke-linecap="round"/>
<circle cx="730.0" cy="126.9" r="6" fill="#1a1a19"/>
<circle cx="730.0" cy="126.9" r="4" fill="#c98500"/>
<path d="M64.0,56.6 L84.2,56.6 L104.4,56.0 L124.5,56.0 L144.7,65.0 L164.9,82.2 L185.1,82.1 L205.3,78.6 L225.5,78.8 L245.6,79.3 L265.8,79.3 L286.0,79.2 L306.2,79.1 L326.4,79.2 L346.5,79.2 L366.7,79.2" fill="none" stroke="#008300" stroke-width="2" stroke-linejoin="round" stroke-linecap="round"/>
<path d="M407.1,79.2 L427.3,97.8 L447.5,97.8 L467.6,99.5 L487.8,99.2 L508.0,99.2 L528.2,99.2 L548.4,99.2 L568.5,99.2 L588.7,99.4 L608.9,98.8 L629.1,98.6 L649.3,98.6 L669.5,98.6 L689.6,98.6 L709.8,98.9 L730.0,98.9" fill="none" stroke="#008300" stroke-width="2" stroke-linejoin="round" stroke-linecap="round"/>
<circle cx="730.0" cy="98.9" r="6" fill="#1a1a19"/>
<circle cx="730.0" cy="98.9" r="4" fill="#008300"/>
<path d="M64.0,222.5 L84.2,222.4 L104.4,222.5 L124.5,222.5 L144.7,229.0 L164.9,236.2 L185.1,236.1 L205.3,234.3 L225.5,234.3 L245.6,234.5 L265.8,234.5 L286.0,234.7 L306.2,234.7 L326.4,234.6 L346.5,234.6 L366.7,234.6" fill="none" stroke="#9085e9" stroke-width="2" stroke-linejoin="round" stroke-linecap="round"/>
<path d="M407.1,234.6 L427.3,240.3 L447.5,240.3 L467.6,240.1 L487.8,239.7 L508.0,239.7 L528.2,239.7 L548.4,239.7 L568.5,239.7 L588.7,239.6 L608.9,239.1 L629.1,239.1 L649.3,239.1 L669.5,239.1 L689.6,239.1 L709.8,239.2 L730.0,239.2" fill="none" stroke="#9085e9" stroke-width="2" stroke-linejoin="round" stroke-linecap="round"/>
<circle cx="730.0" cy="239.2" r="6" fill="#1a1a19"/>
<circle cx="730.0" cy="239.2" r="4" fill="#9085e9"/>
<circle cx="745.0" cy="95.4" r="3.5" fill="#008300"/>
<text x="753.0" y="98.9" font-family='system-ui, -apple-system, "Segoe UI", sans-serif' font-size="11" fill="#ffffff">reverb</text>
<text x="753.0" y="110.9" font-family='system-ui, -apple-system, "Segoe UI", sans-serif' font-size="10" style="font-variant-numeric: tabular-nums" fill="#c3c2b7">53.3M</text>
<circle cx="745.0" cy="123.4" r="3.5" fill="#3987e5"/>
<text x="753.0" y="126.9" font-family='system-ui, -apple-system, "Segoe UI", sans-serif' font-size="11" fill="#ffffff">auto-filter</text>
<text x="753.0" y="138.9" font-family='system-ui, -apple-system, "Segoe UI", sans-serif' font-size="10" style="font-variant-numeric: tabular-nums" fill="#c3c2b7">46.7M</text>
<line x1="736.0" y1="126.9" x2="740.0" y2="154.9" stroke="#383835" stroke-width="1"/>
<circle cx="745.0" cy="151.4" r="3.5" fill="#c98500"/>
<text x="753.0" y="154.9" font-family='system-ui, -apple-system, "Segoe UI", sans-serif' font-size="11" fill="#ffffff">echo</text>
<text x="753.0" y="166.9" font-family='system-ui, -apple-system, "Segoe UI", sans-serif' font-size="10" style="font-variant-numeric: tabular-nums" fill="#c3c2b7">46.1M</text>
<line x1="736.0" y1="136.0" x2="740.0" y2="182.9" stroke="#383835" stroke-width="1"/>
<circle cx="745.0" cy="179.4" r="3.5" fill="#199e70"/>
<text x="753.0" y="182.9" font-family='system-ui, -apple-system, "Segoe UI", sans-serif' font-size="11" fill="#ffffff">autotune</text>
<text x="753.0" y="194.9" font-family='system-ui, -apple-system, "Segoe UI", sans-serif' font-size="10" style="font-variant-numeric: tabular-nums" fill="#c3c2b7">43.7M</text>
<circle cx="745.0" cy="235.7" r="3.5" fill="#9085e9"/>
<text x="753.0" y="239.2" font-family='system-ui, -apple-system, "Segoe UI", sans-serif' font-size="11" fill="#ffffff">sampler-arp</text>
<text x="753.0" y="251.2" font-family='system-ui, -apple-system, "Segoe UI", sans-serif' font-size="10" style="font-variant-numeric: tabular-nums" fill="#c3c2b7">17.2M</text>
</svg>