<svg xmlns="http://www.w3.org/2000/svg" width="880" height="340" viewBox="0 0 880 340" role="img" aria-label="Whole-instrument render cost">
<rect width="880" height="340" rx="6" fill="#1a1a19"/>
<text x="64" y="24" font-family='system-ui, -apple-system, "Segoe UI", sans-serif' font-size="14" font-weight="600" fill="#ffffff">Whole-instrument render cost</text>
<text x="64" y="41" font-family='system-ui, -apple-system, "Segoe UI", sans-serif' font-size="11" fill="#c3c2b7">render_block of 1 s of audio - callgrind instructions (Ir), per main commit, 2026-06-28 to 2026-07-11</text>
<line x1="64" y1="306.0" x2="730" y2="306.0" stroke="#2c2c2a" stroke-width="1"/>
<text x="56" y="309.5" text-anchor="end" font-family='system-ui, -apple-system, "Segoe UI", sans-serif' font-size="11" style="font-variant-numeric: tabular-nums" fill="#898781">0</text>
<line x1="64" y1="228.2" x2="730" y2="228.2" stroke="#2c2c2a" stroke-width="1"/>
<text x="56" y="231.7" text-anchor="end" font-family='system-ui, -apple-system, "Segoe UI", sans-serif' font-size="11" style="font-variant-numeric: tabular-nums" fill="#898781">20</text>
<line x1="64" y1="150.4" x2="730" y2="150.4" stroke="#2c2c2a" stroke-width="1"/>
<text x="56" y="153.9" text-anchor="end" font-family='system-ui, -apple-system, "Segoe UI", sans-serif' font-size="11" style="font-variant-numeric: tabular-nums" fill="#898781">40</text>
<line x1="64" y1="72.6" x2="730" y2="72.6" stroke="#2c2c2a" stroke-width="1"/>
<text x="56" y="76.1" text-anchor="end" font-family='system-ui, -apple-system, "Segoe UI", sans-serif' font-size="11" style="font-variant-numeric: tabular-nums" fill="#898781">60</text>
<text x="56" y="46" text-anchor="end" font-family='system-ui, -apple-system, "Segoe UI", sans-serif' font-size="10" fill="#898781">Ir (M)</text>
<line x1="64" y1="306" x2="730" y2="306" stroke="#383835" stroke-width="1"/>
<text x="64.0" y="322" text-anchor="middle" font-family='system-ui, -apple-system, "Segoe UI", sans-serif' font-size="11" style="font-variant-numeric: tabular-nums" fill="#898781">06-28</text>
<text x="132.9" y="322" text-anchor="middle" font-family='system-ui, -apple-system, "Segoe UI", sans-serif' font-size="11" style="font-variant-numeric: tabular-nums" fill="#898781">06-30</text>
<text x="190.3" y="322" text-anchor="middle" font-family='system-ui, -apple-system, "Segoe UI", sans-serif' font-size="11" style="font-variant-numeric: tabular-nums" fill="#898781">07-02</text>
<text x="316.6" y="322" text-anchor="middle" font-family='system-ui, -apple-system, "Segoe UI", sans-serif' font-size="11" style="font-variant-numeric: tabular-nums" fill="#898781">07-04</text>
<text x="500.3" y="322" text-anchor="middle" font-family='system-ui, -apple-system, "Segoe UI", sans-serif' font-size="11" style="font-variant-numeric: tabular-nums" fill="#898781">07-07</text>
<text x="615.2" y="322" text-anchor="middle" font-family='system-ui, -apple-system, "Segoe UI", sans-serif' font-size="11" style="font-variant-numeric: tabular-nums" fill="#898781">07-09</text>
<text x="707.0" y="322" text-anchor="middle" font-family='system-ui, -apple-system, "Segoe UI", sans-serif' font-size="11" style="font-variant-numeric: tabular-nums" fill="#898781">07-11</text>
<path d="M64.0,72.9 L75.5,73.0 L87.0,80.1 L98.4,80.1 L109.9,94.2 L121.4,108.6 L132.9,108.6 L144.4,105.1 L155.9,105.4 L167.3,105.7 L178.8,105.7 L190.3,105.6 L201.8,105.5 L213.3,105.5 L224.8,105.5 L236.2,105.5" fill="none" stroke="#3987e5" stroke-width="2" stroke-linejoin="round" stroke-linecap="round"/>
<path d="M259.2,105.7 L270.7,122.6 L282.2,122.6 L293.7,125.2 L305.1,125.0 L316.6,125.0 L328.1,125.0 L339.6,125.0 L351.1,125.0 L362.6,125.0 L374.0,124.3 L385.5,124.3 L397.0,124.3 L408.5,124.3 L420.0,124.3 L431.4,124.5 L442.9,124.5 L454.4,124.5 L465.9,127.9 L477.4,127.9 L488.9,127.9 L500.3,127.9 L511.8,127.9 L523.3,127.9 L534.8,127.9 L546.3,127.9 L557.8,127.9 L569.2,127.9 L580.7,127.9 L592.2,127.9 L603.7,127.9 L615.2,127.9 L626.7,127.9 L638.1,128.8 L649.6,128.8 L661.1,128.8 L672.6,128.2 L684.1,132.1 L695.6,132.1 L707.0,131.7 L718.5,135.3 L730.0,135.3" fill="none" stroke="#3987e5" stroke-width="2" stroke-linejoin="round" stroke-linecap="round"/>
<circle cx="730.0" cy="135.3" r="6" fill="#1a1a19"/>
<circle cx="730.0" cy="135.3" r="4" fill="#3987e5"/>
<path d="M64.0,98.8 L75.5,98.9 L87.0,98.2 L98.4,98.2 L109.9,107.4 L121.4,120.8 L132.9,120.7 L144.4,117.1 L155.9,117.4 L167.3,117.8 L178.8,117.7 L190.3,117.7 L201.8,117.5 L213.3,117.7 L224.8,117.7 L236.2,117.7" fill="none" stroke="#199e70" stroke-width="2" stroke-linejoin="round" stroke-linecap="round"/>
<path d="M259.2,117.8 L270.7,134.9 L282.2,134.9 L293.7,136.9 L305.1,136.6 L316.6,136.6 L328.1,136.6 L339.6,136.6 L351.1,136.6 L362.6,136.6 L374.0,135.8 L385.5,135.8 L397.0,135.8 L408.5,135.8 L420.0,135.8 L431.4,136.0 L442.9,136.0 L454.4,136.0 L465.9,139.7 L477.4,139.7 L488.9,139.6 L500.3,139.6 L511.8,139.6 L523.3,139.6 L534.8,139.6 L546.3,139.6 L557.8,139.6 L569.2,139.6 L580.7,139.6 L592.2,139.6 L603.7,139.6 L615.2,139.6 L626.7,139.6 L638.1,140.5 L649.6,140.5 L661.1,140.5 L672.6,139.8 L684.1,143.5 L695.6,143.5 L707.0,143.5 L718.5,147.1 L730.0,147.1" fill="none" stroke="#199e70" stroke-width="2" stroke-linejoin="round" stroke-linecap="round"/>
<circle cx="730.0" cy="147.1" r="6" fill="#1a1a19"/>
<circle cx="730.0" cy="147.1" r="4" fill="#199e70"/>
<path d="M64.0,83.1 L75.5,83.1 L87.0,82.4 L98.4,82.4 L109.9,95.7 L121.4,110.0 L132.9,109.9 L144.4,106.6 L155.9,106.9 L167.3,107.2 L178.8,107.2 L190.3,107.0 L201.8,107.1 L213.3,107.1 L224.8,107.1 L236.2,107.1" fill="none" stroke="#c98500" stroke-width="2" stroke-linejoin="round" stroke-linecap="round"/>
<path d="M259.2,107.2 L270.7,125.6 L282.2,125.6 L293.7,127.5 L305.1,127.3 L316.6,127.3 L328.1,127.3 L339.6,127.3 L351.1,127.3 L362.6,127.5 L374.0,126.6 L385.5,126.3 L397.0,126.3 L408.5,126.3 L420.0,126.3 L431.4,126.9 L442.9,126.9 L454.4,126.8 L465.9,130.5 L477.4,130.5 L488.9,130.3 L500.3,130.3 L511.8,130.4 L523.3,130.4 L534.8,130.4 L546.3,130.4 L557.8,130.4 L569.2,130.4 L580.7,130.4 L592.2,130.4 L603.7,130.4 L615.2,130.4 L626.7,130.4 L638.1,131.3 L649.6,131.4 L661.1,131.4 L672.6,130.7 L684.1,133.9 L695.6,133.9 L707.0,133.9 L718.5,137.8 L730.0,137.8" fill="none" stroke="#c98500" stroke-width="2" stroke-linejoin="round" stroke-linecap="round"/>
<circle cx="730.0" cy="137.8" r="6" fill="#1a1a19"/>
<circle cx="730.0" cy="137.8" r="4" fill="#c98500"/>
<path d="M64.0,56.6 L75.5,56.6 L87.0,56.0 L98.4,56.0 L109.9,65.0 L121.4,82.2 L132.9,82.1 L144.4,78.6 L155.9,78.8 L167.3,79.3 L178.8,79.3 L190.3,79.2 L201.8,79.1 L213.3,79.2 L224.8,79.2 L236.2,79.2" fill="none" stroke="#008300" stroke-width="2" stroke-linejoin="round" stroke-linecap="round"/>
<path d="M259.2,79.2 L270.7,97.8 L282.2,97.8 L293.7,99.5 L305.1,99.2 L316.6,99.2 L328.1,99.2 L339.6,99.2 L351.1,99.2 L362.6,99.4 L374.0,98.8 L385.5,98.6 L397.0,98.6 L408.5,98.6 L420.0,98.6 L431.4,98.9 L442.9,98.9 L454.4,98.9 L465.9,102.4 L477.4,102.4 L488.9,102.3 L500.3,102.3 L511.8,102.4 L523.3,102.4 L534.8,102.4 L546.3,102.4 L557.8,102.4 L569.2,102.4 L580.7,102.4 L592.2,102.4 L603.7,102.4 L615.2,102.4 L626.7,102.4 L638.1,103.3 L649.6,103.3 L661.1,103.3 L672.6,102.7 L684.1,106.1 L695.6,106.1 L707.0,106.1 L718.5,109.4 L730.0,109.4" fill="none" stroke="#008300" stroke-width="2" stroke-linejoin="round" stroke-linecap="round"/>
<circle cx="730.0" cy="109.4" r="6" fill="#1a1a19"/>
<circle cx="730.0" cy="109.4" r="4" fill="#008300"/>
<path d="M64.0,222.5 L75.5,222.4 L87.0,222.5 L98.4,222.5 L109.9,229.0 L121.4,236.2 L132.9,236.1 L144.4,234.3 L155.9,234.3 L167.3,234.5 L178.8,234.5 L190.3,234.7 L201.8,234.7 L213.3,234.6 L224.8,234.6 L236.2,234.6" fill="none" stroke="#9085e9" stroke-width="2" stroke-linejoin="round" stroke-linecap="round"/>
<path d="M259.2,234.6 L270.7,240.3 L282.2,240.3 L293.7,240.1 L305.1,239.7 L316.6,239.7 L328.1,239.7 L339.6,239.7 L351.1,239.7 L362.6,239.6 L374.0,239.1 L385.5,239.1 L397.0,239.1 L408.5,239.1 L420.0,239.1 L431.4,239.2 L442.9,239.2 L454.4,239.2 L465.9,239.1 L477.4,239.1 L488.9,239.0 L500.3,239.0 L511.8,239.1 L523.3,239.1 L534.8,239.1 L546.3,239.1 L557.8,239.1 L569.2,239.1 L580.7,239.1 L592.2,239.1 L603.7,239.1 L615.2,239.1 L626.7,239.0 L638.1,239.5 L649.6,239.6 L661.1,239.6 L672.6,239.4 L684.1,241.0 L695.6,241.1 L707.0,241.1 L718.5,244.4 L730.0,244.4" fill="none" stroke="#9085e9" stroke-width="2" stroke-linejoin="round" stroke-linecap="round"/>
<circle cx="730.0" cy="244.4" r="6" fill="#1a1a19"/>
<circle cx="730.0" cy="244.4" r="4" fill="#9085e9"/>
<circle cx="745.0" cy="105.9" r="3.5" fill="#008300"/>
<text x="753.0" y="109.4" font-family='system-ui, -apple-system, "Segoe UI", sans-serif' font-size="11" fill="#ffffff">reverb</text>
<text x="753.0" y="121.4" font-family='system-ui, -apple-system, "Segoe UI", sans-serif' font-size="10" style="font-variant-numeric: tabular-nums" fill="#c3c2b7">50.5M</text>
<circle cx="745.0" cy="133.9" r="3.5" fill="#3987e5"/>
<text x="753.0" y="137.4" font-family='system-ui, -apple-system, "Segoe UI", sans-serif' font-size="11" fill="#ffffff">auto-filter</text>
<text x="753.0" y="149.4" font-family='system-ui, -apple-system, "Segoe UI", sans-serif' font-size="10" style="font-variant-numeric: tabular-nums" fill="#c3c2b7">43.9M</text>
<line x1="736.0" y1="137.8" x2="740.0" y2="165.4" stroke="#383835" stroke-width="1"/>
<circle cx="745.0" cy="161.9" r="3.5" fill="#c98500"/>
<text x="753.0" y="165.4" font-family='system-ui, -apple-system, "Segoe UI", sans-serif' font-size="11" fill="#ffffff">echo</text>
<text x="753.0" y="177.4" font-family='system-ui, -apple-system, "Segoe UI", sans-serif' font-size="10" style="font-variant-numeric: tabular-nums" fill="#c3c2b7">43.2M</text>
<line x1="736.0" y1="147.1" x2="740.0" y2="193.4" stroke="#383835" stroke-width="1"/>
<circle cx="745.0" cy="189.9" r="3.5" fill="#199e70"/>
<text x="753.0" y="193.4" font-family='system-ui, -apple-system, "Segoe UI", sans-serif' font-size="11" fill="#ffffff">autotune</text>
<text x="753.0" y="205.4" font-family='system-ui, -apple-system, "Segoe UI", sans-serif' font-size="10" style="font-variant-numeric: tabular-nums" fill="#c3c2b7">40.9M</text>
<circle cx="745.0" cy="240.9" r="3.5" fill="#9085e9"/>
<text x="753.0" y="244.4" font-family='system-ui, -apple-system, "Segoe UI", sans-serif' font-size="11" fill="#ffffff">sampler-arp</text>
<text x="753.0" y="256.4" font-family='system-ui, -apple-system, "Segoe UI", sans-serif' font-size="10" style="font-variant-numeric: tabular-nums" fill="#c3c2b7">15.8M</text>
</svg>