<svg xmlns="http://www.w3.org/2000/svg" width="880" height="340" viewBox="0 0 880 340" role="img" aria-label="Whole-instrument render cost">
<rect width="880" height="340" rx="6" fill="#1a1a19"/>
<text x="64" y="24" font-family='system-ui, -apple-system, "Segoe UI", sans-serif' font-size="14" font-weight="600" fill="#ffffff">Whole-instrument render cost</text>
<text x="64" y="41" font-family='system-ui, -apple-system, "Segoe UI", sans-serif' font-size="11" fill="#c3c2b7">render_block of 1 s of audio - callgrind instructions (Ir), per main commit, 2026-06-28 to 2026-07-22</text>
<line x1="64" y1="306.0" x2="730" y2="306.0" stroke="#2c2c2a" stroke-width="1"/>
<text x="56" y="309.5" text-anchor="end" font-family='system-ui, -apple-system, "Segoe UI", sans-serif' font-size="11" style="font-variant-numeric: tabular-nums" fill="#898781">0</text>
<line x1="64" y1="228.2" x2="730" y2="228.2" stroke="#2c2c2a" stroke-width="1"/>
<text x="56" y="231.7" text-anchor="end" font-family='system-ui, -apple-system, "Segoe UI", sans-serif' font-size="11" style="font-variant-numeric: tabular-nums" fill="#898781">20</text>
<line x1="64" y1="150.4" x2="730" y2="150.4" stroke="#2c2c2a" stroke-width="1"/>
<text x="56" y="153.9" text-anchor="end" font-family='system-ui, -apple-system, "Segoe UI", sans-serif' font-size="11" style="font-variant-numeric: tabular-nums" fill="#898781">40</text>
<line x1="64" y1="72.6" x2="730" y2="72.6" stroke="#2c2c2a" stroke-width="1"/>
<text x="56" y="76.1" text-anchor="end" font-family='system-ui, -apple-system, "Segoe UI", sans-serif' font-size="11" style="font-variant-numeric: tabular-nums" fill="#898781">60</text>
<text x="56" y="46" text-anchor="end" font-family='system-ui, -apple-system, "Segoe UI", sans-serif' font-size="10" fill="#898781">Ir (M)</text>
<line x1="64" y1="306" x2="730" y2="306" stroke="#383835" stroke-width="1"/>
<text x="64.0" y="322" text-anchor="middle" font-family='system-ui, -apple-system, "Segoe UI", sans-serif' font-size="11" style="font-variant-numeric: tabular-nums" fill="#898781">06-28</text>
<text x="117.3" y="322" text-anchor="middle" font-family='system-ui, -apple-system, "Segoe UI", sans-serif' font-size="11" style="font-variant-numeric: tabular-nums" fill="#898781">06-30</text>
<text x="161.7" y="322" text-anchor="middle" font-family='system-ui, -apple-system, "Segoe UI", sans-serif' font-size="11" style="font-variant-numeric: tabular-nums" fill="#898781">07-02</text>
<text x="259.4" y="322" text-anchor="middle" font-family='system-ui, -apple-system, "Segoe UI", sans-serif' font-size="11" style="font-variant-numeric: tabular-nums" fill="#898781">07-04</text>
<text x="401.4" y="322" text-anchor="middle" font-family='system-ui, -apple-system, "Segoe UI", sans-serif' font-size="11" style="font-variant-numeric: tabular-nums" fill="#898781">07-07</text>
<text x="490.2" y="322" text-anchor="middle" font-family='system-ui, -apple-system, "Segoe UI", sans-serif' font-size="11" style="font-variant-numeric: tabular-nums" fill="#898781">07-09</text>
<text x="561.3" y="322" text-anchor="middle" font-family='system-ui, -apple-system, "Segoe UI", sans-serif' font-size="11" style="font-variant-numeric: tabular-nums" fill="#898781">07-11</text>
<path d="M64.0,72.9 L72.9,73.0 L81.8,80.1 L90.6,80.1 L99.5,94.2 L108.4,108.6 L117.3,108.6 L126.2,105.1 L135.0,105.4 L143.9,105.7 L152.8,105.7 L161.7,105.6 L170.6,105.5 L179.4,105.5 L188.3,105.5 L197.2,105.5" fill="none" stroke="#3987e5" stroke-width="2" stroke-linejoin="round" stroke-linecap="round"/>
<path d="M215.0,105.7 L223.8,122.6 L232.7,122.6 L241.6,125.2 L250.5,125.0 L259.4,125.0 L268.2,125.0 L277.1,125.0 L286.0,125.0 L294.9,125.0 L303.8,124.3 L312.6,124.3 L321.5,124.3 L330.4,124.3 L339.3,124.3 L348.2,124.5 L357.0,124.5 L365.9,124.5 L374.8,127.9 L383.7,127.9 L392.6,127.9 L401.4,127.9 L410.3,127.9 L419.2,127.9 L428.1,127.9 L437.0,127.9 L445.8,127.9 L454.7,127.9 L463.6,127.9 L472.5,127.9 L481.4,127.9 L490.2,127.9 L499.1,127.9 L508.0,128.8 L516.9,128.8 L525.8,128.8 L534.6,128.2 L543.5,132.1 L552.4,132.1 L561.3,131.7 L570.2,135.3 L579.0,135.3 L587.9,135.3 L596.8,135.3 L605.7,135.3 L614.6,135.3 L623.4,135.3 L632.3,135.3 L641.2,135.3 L650.1,135.3 L659.0,135.3 L667.8,135.3 L676.7,135.3 L685.6,135.3 L694.5,135.3 L703.4,135.3 L712.2,135.3 L721.1,135.3 L730.0,159.8" fill="none" stroke="#3987e5" stroke-width="2" stroke-linejoin="round" stroke-linecap="round"/>
<circle cx="730.0" cy="159.8" r="6" fill="#1a1a19"/>
<circle cx="730.0" cy="159.8" r="4" fill="#3987e5"/>
<path d="M64.0,98.8 L72.9,98.9 L81.8,98.2 L90.6,98.2 L99.5,107.4 L108.4,120.8 L117.3,120.7 L126.2,117.1 L135.0,117.4 L143.9,117.8 L152.8,117.7 L161.7,117.7 L170.6,117.5 L179.4,117.7 L188.3,117.7 L197.2,117.7" fill="none" stroke="#199e70" stroke-width="2" stroke-linejoin="round" stroke-linecap="round"/>
<path d="M215.0,117.8 L223.8,134.9 L232.7,134.9 L241.6,136.9 L250.5,136.6 L259.4,136.6 L268.2,136.6 L277.1,136.6 L286.0,136.6 L294.9,136.6 L303.8,135.8 L312.6,135.8 L321.5,135.8 L330.4,135.8 L339.3,135.8 L348.2,136.0 L357.0,136.0 L365.9,136.0 L374.8,139.7 L383.7,139.7 L392.6,139.6 L401.4,139.6 L410.3,139.6 L419.2,139.6 L428.1,139.6 L437.0,139.6 L445.8,139.6 L454.7,139.6 L463.6,139.6 L472.5,139.6 L481.4,139.6 L490.2,139.6 L499.1,139.6 L508.0,140.5 L516.9,140.5 L525.8,140.5 L534.6,139.8 L543.5,143.5 L552.4,143.5 L561.3,143.5 L570.2,147.1 L579.0,147.1 L587.9,147.1 L596.8,147.1 L605.7,147.1 L614.6,147.1 L623.4,147.1 L632.3,147.1 L641.2,147.1 L650.1,147.1 L659.0,147.1 L667.8,147.1 L676.7,147.1 L685.6,147.1 L694.5,147.1 L703.4,147.1 L712.2,147.1 L721.1,147.1 L730.0,169.1" fill="none" stroke="#199e70" stroke-width="2" stroke-linejoin="round" stroke-linecap="round"/>
<circle cx="730.0" cy="169.1" r="6" fill="#1a1a19"/>
<circle cx="730.0" cy="169.1" r="4" fill="#199e70"/>
<path d="M64.0,83.1 L72.9,83.1 L81.8,82.4 L90.6,82.4 L99.5,95.7 L108.4,110.0 L117.3,109.9 L126.2,106.6 L135.0,106.9 L143.9,107.2 L152.8,107.2 L161.7,107.0 L170.6,107.1 L179.4,107.1 L188.3,107.1 L197.2,107.1" fill="none" stroke="#c98500" stroke-width="2" stroke-linejoin="round" stroke-linecap="round"/>
<path d="M215.0,107.2 L223.8,125.6 L232.7,125.6 L241.6,127.5 L250.5,127.3 L259.4,127.3 L268.2,127.3 L277.1,127.3 L286.0,127.3 L294.9,127.5 L303.8,126.6 L312.6,126.3 L321.5,126.3 L330.4,126.3 L339.3,126.3 L348.2,126.9 L357.0,126.9 L365.9,126.8 L374.8,130.5 L383.7,130.5 L392.6,130.3 L401.4,130.3 L410.3,130.4 L419.2,130.4 L428.1,130.4 L437.0,130.4 L445.8,130.4 L454.7,130.4 L463.6,130.4 L472.5,130.4 L481.4,130.4 L490.2,130.4 L499.1,130.4 L508.0,131.3 L516.9,131.4 L525.8,131.4 L534.6,130.7 L543.5,133.9 L552.4,133.9 L561.3,133.9 L570.2,137.8 L579.0,137.8 L587.9,137.8 L596.8,137.8 L605.7,137.8 L614.6,137.8 L623.4,137.8 L632.3,137.8 L641.2,137.8 L650.1,137.8 L659.0,137.8 L667.8,137.8 L676.7,137.8 L685.6,137.8 L694.5,137.8 L703.4,137.8 L712.2,137.8 L721.1,137.8 L730.0,159.7" fill="none" stroke="#c98500" stroke-width="2" stroke-linejoin="round" stroke-linecap="round"/>
<circle cx="730.0" cy="159.7" r="6" fill="#1a1a19"/>
<circle cx="730.0" cy="159.7" r="4" fill="#c98500"/>
<path d="M64.0,56.6 L72.9,56.6 L81.8,56.0 L90.6,56.0 L99.5,65.0 L108.4,82.2 L117.3,82.1 L126.2,78.6 L135.0,78.8 L143.9,79.3 L152.8,79.3 L161.7,79.2 L170.6,79.1 L179.4,79.2 L188.3,79.2 L197.2,79.2" fill="none" stroke="#008300" stroke-width="2" stroke-linejoin="round" stroke-linecap="round"/>
<path d="M215.0,79.2 L223.8,97.8 L232.7,97.8 L241.6,99.5 L250.5,99.2 L259.4,99.2 L268.2,99.2 L277.1,99.2 L286.0,99.2 L294.9,99.4 L303.8,98.8 L312.6,98.6 L321.5,98.6 L330.4,98.6 L339.3,98.6 L348.2,98.9 L357.0,98.9 L365.9,98.9 L374.8,102.4 L383.7,102.4 L392.6,102.3 L401.4,102.3 L410.3,102.4 L419.2,102.4 L428.1,102.4 L437.0,102.4 L445.8,102.4 L454.7,102.4 L463.6,102.4 L472.5,102.4 L481.4,102.4 L490.2,102.4 L499.1,102.4 L508.0,103.3 L516.9,103.3 L525.8,103.3 L534.6,102.7 L543.5,106.1 L552.4,106.1 L561.3,106.1 L570.2,109.4 L579.0,109.4 L587.9,109.4 L596.8,109.4 L605.7,109.4 L614.6,109.4 L623.4,109.4 L632.3,109.4 L641.2,109.4 L650.1,109.4 L659.0,109.4 L667.8,109.4 L676.7,109.4 L685.6,109.4 L694.5,109.4 L703.4,109.4 L712.2,109.4 L721.1,109.4 L730.0,131.3" fill="none" stroke="#008300" stroke-width="2" stroke-linejoin="round" stroke-linecap="round"/>
<circle cx="730.0" cy="131.3" r="6" fill="#1a1a19"/>
<circle cx="730.0" cy="131.3" r="4" fill="#008300"/>
<path d="M64.0,222.5 L72.9,222.4 L81.8,222.5 L90.6,222.5 L99.5,229.0 L108.4,236.2 L117.3,236.1 L126.2,234.3 L135.0,234.3 L143.9,234.5 L152.8,234.5 L161.7,234.7 L170.6,234.7 L179.4,234.6 L188.3,234.6 L197.2,234.6" fill="none" stroke="#9085e9" stroke-width="2" stroke-linejoin="round" stroke-linecap="round"/>
<path d="M215.0,234.6 L223.8,240.3 L232.7,240.3 L241.6,240.1 L250.5,239.7 L259.4,239.7 L268.2,239.7 L277.1,239.7 L286.0,239.7 L294.9,239.6 L303.8,239.1 L312.6,239.1 L321.5,239.1 L330.4,239.1 L339.3,239.1 L348.2,239.2 L357.0,239.2 L365.9,239.2 L374.8,239.1 L383.7,239.1 L392.6,239.0 L401.4,239.0 L410.3,239.1 L419.2,239.1 L428.1,239.1 L437.0,239.1 L445.8,239.1 L454.7,239.1 L463.6,239.1 L472.5,239.1 L481.4,239.1 L490.2,239.1 L499.1,239.0 L508.0,239.5 L516.9,239.6 L525.8,239.6 L534.6,239.4 L543.5,241.0 L552.4,241.1 L561.3,241.1 L570.2,244.4 L579.0,244.4 L587.9,244.4 L596.8,244.4 L605.7,244.4 L614.6,244.4 L623.4,244.4 L632.3,244.4 L641.2,244.4 L650.1,244.4 L659.0,244.4 L667.8,244.4 L676.7,244.4 L685.6,244.4 L694.5,244.4 L703.4,244.4 L712.2,244.4 L721.1,244.4 L730.0,244.5" fill="none" stroke="#9085e9" stroke-width="2" stroke-linejoin="round" stroke-linecap="round"/>
<circle cx="730.0" cy="244.5" r="6" fill="#1a1a19"/>
<circle cx="730.0" cy="244.5" r="4" fill="#9085e9"/>
<circle cx="745.0" cy="127.8" r="3.5" fill="#008300"/>
<text x="753.0" y="131.3" font-family='system-ui, -apple-system, "Segoe UI", sans-serif' font-size="11" fill="#ffffff">reverb</text>
<text x="753.0" y="143.3" font-family='system-ui, -apple-system, "Segoe UI", sans-serif' font-size="10" style="font-variant-numeric: tabular-nums" fill="#c3c2b7">44.9M</text>
<circle cx="745.0" cy="156.2" r="3.5" fill="#c98500"/>
<text x="753.0" y="159.7" font-family='system-ui, -apple-system, "Segoe UI", sans-serif' font-size="11" fill="#ffffff">echo</text>
<text x="753.0" y="171.7" font-family='system-ui, -apple-system, "Segoe UI", sans-serif' font-size="10" style="font-variant-numeric: tabular-nums" fill="#c3c2b7">37.6M</text>
<line x1="736.0" y1="159.8" x2="740.0" y2="187.7" stroke="#383835" stroke-width="1"/>
<circle cx="745.0" cy="184.2" r="3.5" fill="#3987e5"/>
<text x="753.0" y="187.7" font-family='system-ui, -apple-system, "Segoe UI", sans-serif' font-size="11" fill="#ffffff">auto-filter</text>
<text x="753.0" y="199.7" font-family='system-ui, -apple-system, "Segoe UI", sans-serif' font-size="10" style="font-variant-numeric: tabular-nums" fill="#c3c2b7">37.6M</text>
<line x1="736.0" y1="169.1" x2="740.0" y2="215.7" stroke="#383835" stroke-width="1"/>
<circle cx="745.0" cy="212.2" r="3.5" fill="#199e70"/>
<text x="753.0" y="215.7" font-family='system-ui, -apple-system, "Segoe UI", sans-serif' font-size="11" fill="#ffffff">autotune</text>
<text x="753.0" y="227.7" font-family='system-ui, -apple-system, "Segoe UI", sans-serif' font-size="10" style="font-variant-numeric: tabular-nums" fill="#c3c2b7">35.2M</text>
<circle cx="745.0" cy="241.0" r="3.5" fill="#9085e9"/>
<text x="753.0" y="244.5" font-family='system-ui, -apple-system, "Segoe UI", sans-serif' font-size="11" fill="#ffffff">sampler-arp</text>
<text x="753.0" y="256.5" font-family='system-ui, -apple-system, "Segoe UI", sans-serif' font-size="10" style="font-variant-numeric: tabular-nums" fill="#c3c2b7">15.8M</text>
</svg>