<svg xmlns="http://www.w3.org/2000/svg" width="880" height="340" viewBox="0 0 880 340" role="img" aria-label="Whole-instrument render cost">
<rect width="880" height="340" rx="6" fill="#1a1a19"/>
<text x="64" y="24" font-family='system-ui, -apple-system, "Segoe UI", sans-serif' font-size="14" font-weight="600" fill="#ffffff">Whole-instrument render cost</text>
<text x="64" y="41" font-family='system-ui, -apple-system, "Segoe UI", sans-serif' font-size="11" fill="#c3c2b7">render_block of 1 s of audio - callgrind instructions (Ir), per main commit, 2026-06-28 to 2026-07-05</text>
<line x1="64" y1="306.0" x2="730" y2="306.0" stroke="#2c2c2a" stroke-width="1"/>
<text x="56" y="309.5" text-anchor="end" font-family='system-ui, -apple-system, "Segoe UI", sans-serif' font-size="11" style="font-variant-numeric: tabular-nums" fill="#898781">0</text>
<line x1="64" y1="228.2" x2="730" y2="228.2" stroke="#2c2c2a" stroke-width="1"/>
<text x="56" y="231.7" text-anchor="end" font-family='system-ui, -apple-system, "Segoe UI", sans-serif' font-size="11" style="font-variant-numeric: tabular-nums" fill="#898781">20</text>
<line x1="64" y1="150.4" x2="730" y2="150.4" stroke="#2c2c2a" stroke-width="1"/>
<text x="56" y="153.9" text-anchor="end" font-family='system-ui, -apple-system, "Segoe UI", sans-serif' font-size="11" style="font-variant-numeric: tabular-nums" fill="#898781">40</text>
<line x1="64" y1="72.6" x2="730" y2="72.6" stroke="#2c2c2a" stroke-width="1"/>
<text x="56" y="76.1" text-anchor="end" font-family='system-ui, -apple-system, "Segoe UI", sans-serif' font-size="11" style="font-variant-numeric: tabular-nums" fill="#898781">60</text>
<text x="56" y="46" text-anchor="end" font-family='system-ui, -apple-system, "Segoe UI", sans-serif' font-size="10" fill="#898781">Ir (M)</text>
<line x1="64" y1="306" x2="730" y2="306" stroke="#383835" stroke-width="1"/>
<text x="64.0" y="322" text-anchor="middle" font-family='system-ui, -apple-system, "Segoe UI", sans-serif' font-size="11" style="font-variant-numeric: tabular-nums" fill="#898781">06-28</text>
<text x="101.0" y="322" text-anchor="middle" font-family='system-ui, -apple-system, "Segoe UI", sans-serif' font-size="11" style="font-variant-numeric: tabular-nums" fill="#898781">06-29</text>
<text x="175.0" y="322" text-anchor="middle" font-family='system-ui, -apple-system, "Segoe UI", sans-serif' font-size="11" style="font-variant-numeric: tabular-nums" fill="#898781">06-30</text>
<text x="230.5" y="322" text-anchor="middle" font-family='system-ui, -apple-system, "Segoe UI", sans-serif' font-size="11" style="font-variant-numeric: tabular-nums" fill="#898781">07-01</text>
<text x="267.5" y="322" text-anchor="middle" font-family='system-ui, -apple-system, "Segoe UI", sans-serif' font-size="11" style="font-variant-numeric: tabular-nums" fill="#898781">07-02</text>
<text x="397.0" y="322" text-anchor="middle" font-family='system-ui, -apple-system, "Segoe UI", sans-serif' font-size="11" style="font-variant-numeric: tabular-nums" fill="#898781">07-03</text>
<text x="471.0" y="322" text-anchor="middle" font-family='system-ui, -apple-system, "Segoe UI", sans-serif' font-size="11" style="font-variant-numeric: tabular-nums" fill="#898781">07-04</text>
<text x="619.0" y="322" text-anchor="middle" font-family='system-ui, -apple-system, "Segoe UI", sans-serif' font-size="11" style="font-variant-numeric: tabular-nums" fill="#898781">07-05</text>
<path d="M64.0,72.9 L82.5,73.0 L101.0,80.1 L119.5,80.1 L138.0,94.2 L156.5,108.6 L175.0,108.6 L193.5,105.1 L212.0,105.4 L230.5,105.7 L249.0,105.7 L267.5,105.6 L286.0,105.5 L304.5,105.5 L323.0,105.5 L341.5,105.5" fill="none" stroke="#3987e5" stroke-width="2" stroke-linejoin="round" stroke-linecap="round"/>
<path d="M378.5,105.7 L397.0,122.6 L415.5,122.6 L434.0,125.2 L452.5,125.0 L471.0,125.0 L489.5,125.0 L508.0,125.0 L526.5,125.0 L545.0,125.0 L563.5,124.3 L582.0,124.3 L600.5,124.3 L619.0,124.3 L637.5,124.3 L656.0,124.5 L674.5,124.5 L693.0,124.5 L711.5,127.9 L730.0,127.9" fill="none" stroke="#3987e5" stroke-width="2" stroke-linejoin="round" stroke-linecap="round"/>
<circle cx="730.0" cy="127.9" r="6" fill="#1a1a19"/>
<circle cx="730.0" cy="127.9" r="4" fill="#3987e5"/>
<path d="M64.0,98.8 L82.5,98.9 L101.0,98.2 L119.5,98.2 L138.0,107.4 L156.5,120.8 L175.0,120.7 L193.5,117.1 L212.0,117.4 L230.5,117.8 L249.0,117.7 L267.5,117.7 L286.0,117.5 L304.5,117.7 L323.0,117.7 L341.5,117.7" fill="none" stroke="#199e70" stroke-width="2" stroke-linejoin="round" stroke-linecap="round"/>
<path d="M378.5,117.8 L397.0,134.9 L415.5,134.9 L434.0,136.9 L452.5,136.6 L471.0,136.6 L489.5,136.6 L508.0,136.6 L526.5,136.6 L545.0,136.6 L563.5,135.8 L582.0,135.8 L600.5,135.8 L619.0,135.8 L637.5,135.8 L656.0,136.0 L674.5,136.0 L693.0,136.0 L711.5,139.7 L730.0,139.7" fill="none" stroke="#199e70" stroke-width="2" stroke-linejoin="round" stroke-linecap="round"/>
<circle cx="730.0" cy="139.7" r="6" fill="#1a1a19"/>
<circle cx="730.0" cy="139.7" r="4" fill="#199e70"/>
<path d="M64.0,83.1 L82.5,83.1 L101.0,82.4 L119.5,82.4 L138.0,95.7 L156.5,110.0 L175.0,109.9 L193.5,106.6 L212.0,106.9 L230.5,107.2 L249.0,107.2 L267.5,107.0 L286.0,107.1 L304.5,107.1 L323.0,107.1 L341.5,107.1" fill="none" stroke="#c98500" stroke-width="2" stroke-linejoin="round" stroke-linecap="round"/>
<path d="M378.5,107.2 L397.0,125.6 L415.5,125.6 L434.0,127.5 L452.5,127.3 L471.0,127.3 L489.5,127.3 L508.0,127.3 L526.5,127.3 L545.0,127.5 L563.5,126.6 L582.0,126.3 L600.5,126.3 L619.0,126.3 L637.5,126.3 L656.0,126.9 L674.5,126.9 L693.0,126.8 L711.5,130.5 L730.0,130.5" fill="none" stroke="#c98500" stroke-width="2" stroke-linejoin="round" stroke-linecap="round"/>
<circle cx="730.0" cy="130.5" r="6" fill="#1a1a19"/>
<circle cx="730.0" cy="130.5" r="4" fill="#c98500"/>
<path d="M64.0,56.6 L82.5,56.6 L101.0,56.0 L119.5,56.0 L138.0,65.0 L156.5,82.2 L175.0,82.1 L193.5,78.6 L212.0,78.8 L230.5,79.3 L249.0,79.3 L267.5,79.2 L286.0,79.1 L304.5,79.2 L323.0,79.2 L341.5,79.2" fill="none" stroke="#008300" stroke-width="2" stroke-linejoin="round" stroke-linecap="round"/>
<path d="M378.5,79.2 L397.0,97.8 L415.5,97.8 L434.0,99.5 L452.5,99.2 L471.0,99.2 L489.5,99.2 L508.0,99.2 L526.5,99.2 L545.0,99.4 L563.5,98.8 L582.0,98.6 L600.5,98.6 L619.0,98.6 L637.5,98.6 L656.0,98.9 L674.5,98.9 L693.0,98.9 L711.5,102.4 L730.0,102.4" fill="none" stroke="#008300" stroke-width="2" stroke-linejoin="round" stroke-linecap="round"/>
<circle cx="730.0" cy="102.4" r="6" fill="#1a1a19"/>
<circle cx="730.0" cy="102.4" r="4" fill="#008300"/>
<path d="M64.0,222.5 L82.5,222.4 L101.0,222.5 L119.5,222.5 L138.0,229.0 L156.5,236.2 L175.0,236.1 L193.5,234.3 L212.0,234.3 L230.5,234.5 L249.0,234.5 L267.5,234.7 L286.0,234.7 L304.5,234.6 L323.0,234.6 L341.5,234.6" fill="none" stroke="#9085e9" stroke-width="2" stroke-linejoin="round" stroke-linecap="round"/>
<path d="M378.5,234.6 L397.0,240.3 L415.5,240.3 L434.0,240.1 L452.5,239.7 L471.0,239.7 L489.5,239.7 L508.0,239.7 L526.5,239.7 L545.0,239.6 L563.5,239.1 L582.0,239.1 L600.5,239.1 L619.0,239.1 L637.5,239.1 L656.0,239.2 L674.5,239.2 L693.0,239.2 L711.5,239.1 L730.0,239.1" fill="none" stroke="#9085e9" stroke-width="2" stroke-linejoin="round" stroke-linecap="round"/>
<circle cx="730.0" cy="239.1" r="6" fill="#1a1a19"/>
<circle cx="730.0" cy="239.1" r="4" fill="#9085e9"/>
<circle cx="745.0" cy="98.9" r="3.5" fill="#008300"/>
<text x="753.0" y="102.4" font-family='system-ui, -apple-system, "Segoe UI", sans-serif' font-size="11" fill="#ffffff">reverb</text>
<text x="753.0" y="114.4" font-family='system-ui, -apple-system, "Segoe UI", sans-serif' font-size="10" style="font-variant-numeric: tabular-nums" fill="#c3c2b7">52.3M</text>
<circle cx="745.0" cy="126.9" r="3.5" fill="#3987e5"/>
<text x="753.0" y="130.4" font-family='system-ui, -apple-system, "Segoe UI", sans-serif' font-size="11" fill="#ffffff">auto-filter</text>
<text x="753.0" y="142.4" font-family='system-ui, -apple-system, "Segoe UI", sans-serif' font-size="10" style="font-variant-numeric: tabular-nums" fill="#c3c2b7">45.8M</text>
<line x1="736.0" y1="130.5" x2="740.0" y2="158.4" stroke="#383835" stroke-width="1"/>
<circle cx="745.0" cy="154.9" r="3.5" fill="#c98500"/>
<text x="753.0" y="158.4" font-family='system-ui, -apple-system, "Segoe UI", sans-serif' font-size="11" fill="#ffffff">echo</text>
<text x="753.0" y="170.4" font-family='system-ui, -apple-system, "Segoe UI", sans-serif' font-size="10" style="font-variant-numeric: tabular-nums" fill="#c3c2b7">45.1M</text>
<line x1="736.0" y1="139.7" x2="740.0" y2="186.4" stroke="#383835" stroke-width="1"/>
<circle cx="745.0" cy="182.9" r="3.5" fill="#199e70"/>
<text x="753.0" y="186.4" font-family='system-ui, -apple-system, "Segoe UI", sans-serif' font-size="11" fill="#ffffff">autotune</text>
<text x="753.0" y="198.4" font-family='system-ui, -apple-system, "Segoe UI", sans-serif' font-size="10" style="font-variant-numeric: tabular-nums" fill="#c3c2b7">42.8M</text>
<circle cx="745.0" cy="235.6" r="3.5" fill="#9085e9"/>
<text x="753.0" y="239.1" font-family='system-ui, -apple-system, "Segoe UI", sans-serif' font-size="11" fill="#ffffff">sampler-arp</text>
<text x="753.0" y="251.1" font-family='system-ui, -apple-system, "Segoe UI", sans-serif' font-size="10" style="font-variant-numeric: tabular-nums" fill="#c3c2b7">17.2M</text>
</svg>