<svg xmlns="http://www.w3.org/2000/svg" width="880" height="340" viewBox="0 0 880 340" role="img" aria-label="Whole-instrument render cost">
<rect width="880" height="340" rx="6" fill="#fcfcfb"/>
<text x="64" y="24" font-family='system-ui, -apple-system, "Segoe UI", sans-serif' font-size="14" font-weight="600" fill="#0b0b0b">Whole-instrument render cost</text>
<text x="64" y="41" font-family='system-ui, -apple-system, "Segoe UI", sans-serif' font-size="11" fill="#52514e">render_block of 1 s of audio - callgrind instructions (Ir), per main commit, 2026-06-28 to 2026-07-11</text>
<line x1="64" y1="306.0" x2="730" y2="306.0" stroke="#e1e0d9" stroke-width="1"/>
<text x="56" y="309.5" text-anchor="end" font-family='system-ui, -apple-system, "Segoe UI", sans-serif' font-size="11" style="font-variant-numeric: tabular-nums" fill="#898781">0</text>
<line x1="64" y1="228.2" x2="730" y2="228.2" stroke="#e1e0d9" stroke-width="1"/>
<text x="56" y="231.7" text-anchor="end" font-family='system-ui, -apple-system, "Segoe UI", sans-serif' font-size="11" style="font-variant-numeric: tabular-nums" fill="#898781">20</text>
<line x1="64" y1="150.4" x2="730" y2="150.4" stroke="#e1e0d9" stroke-width="1"/>
<text x="56" y="153.9" text-anchor="end" font-family='system-ui, -apple-system, "Segoe UI", sans-serif' font-size="11" style="font-variant-numeric: tabular-nums" fill="#898781">40</text>
<line x1="64" y1="72.6" x2="730" y2="72.6" stroke="#e1e0d9" stroke-width="1"/>
<text x="56" y="76.1" text-anchor="end" font-family='system-ui, -apple-system, "Segoe UI", sans-serif' font-size="11" style="font-variant-numeric: tabular-nums" fill="#898781">60</text>
<text x="56" y="46" text-anchor="end" font-family='system-ui, -apple-system, "Segoe UI", sans-serif' font-size="10" fill="#898781">Ir (M)</text>
<line x1="64" y1="306" x2="730" y2="306" stroke="#c3c2b7" stroke-width="1"/>
<text x="64.0" y="322" text-anchor="middle" font-family='system-ui, -apple-system, "Segoe UI", sans-serif' font-size="11" style="font-variant-numeric: tabular-nums" fill="#898781">06-28</text>
<text x="130.6" y="322" text-anchor="middle" font-family='system-ui, -apple-system, "Segoe UI", sans-serif' font-size="11" style="font-variant-numeric: tabular-nums" fill="#898781">06-30</text>
<text x="186.1" y="322" text-anchor="middle" font-family='system-ui, -apple-system, "Segoe UI", sans-serif' font-size="11" style="font-variant-numeric: tabular-nums" fill="#898781">07-02</text>
<text x="308.2" y="322" text-anchor="middle" font-family='system-ui, -apple-system, "Segoe UI", sans-serif' font-size="11" style="font-variant-numeric: tabular-nums" fill="#898781">07-04</text>
<text x="485.8" y="322" text-anchor="middle" font-family='system-ui, -apple-system, "Segoe UI", sans-serif' font-size="11" style="font-variant-numeric: tabular-nums" fill="#898781">07-07</text>
<text x="596.8" y="322" text-anchor="middle" font-family='system-ui, -apple-system, "Segoe UI", sans-serif' font-size="11" style="font-variant-numeric: tabular-nums" fill="#898781">07-09</text>
<text x="685.6" y="322" text-anchor="middle" font-family='system-ui, -apple-system, "Segoe UI", sans-serif' font-size="11" style="font-variant-numeric: tabular-nums" fill="#898781">07-11</text>
<path d="M64.0,72.9 L75.1,73.0 L86.2,80.1 L97.3,80.1 L108.4,94.2 L119.5,108.6 L130.6,108.6 L141.7,105.1 L152.8,105.4 L163.9,105.7 L175.0,105.7 L186.1,105.6 L197.2,105.5 L208.3,105.5 L219.4,105.5 L230.5,105.5" fill="none" stroke="#2a78d6" stroke-width="2" stroke-linejoin="round" stroke-linecap="round"/>
<path d="M252.7,105.7 L263.8,122.6 L274.9,122.6 L286.0,125.2 L297.1,125.0 L308.2,125.0 L319.3,125.0 L330.4,125.0 L341.5,125.0 L352.6,125.0 L363.7,124.3 L374.8,124.3 L385.9,124.3 L397.0,124.3 L408.1,124.3 L419.2,124.5 L430.3,124.5 L441.4,124.5 L452.5,127.9 L463.6,127.9 L474.7,127.9 L485.8,127.9 L496.9,127.9 L508.0,127.9 L519.1,127.9 L530.2,127.9 L541.3,127.9 L552.4,127.9 L563.5,127.9 L574.6,127.9 L585.7,127.9 L596.8,127.9 L607.9,127.9 L619.0,128.8 L630.1,128.8 L641.2,128.8 L652.3,128.2 L663.4,132.1 L674.5,132.1 L685.6,131.7 L696.7,135.3 L707.8,135.3 L718.9,135.3 L730.0,135.3" fill="none" stroke="#2a78d6" stroke-width="2" stroke-linejoin="round" stroke-linecap="round"/>
<circle cx="730.0" cy="135.3" r="6" fill="#fcfcfb"/>
<circle cx="730.0" cy="135.3" r="4" fill="#2a78d6"/>
<path d="M64.0,98.8 L75.1,98.9 L86.2,98.2 L97.3,98.2 L108.4,107.4 L119.5,120.8 L130.6,120.7 L141.7,117.1 L152.8,117.4 L163.9,117.8 L175.0,117.7 L186.1,117.7 L197.2,117.5 L208.3,117.7 L219.4,117.7 L230.5,117.7" fill="none" stroke="#1baf7a" stroke-width="2" stroke-linejoin="round" stroke-linecap="round"/>
<path d="M252.7,117.8 L263.8,134.9 L274.9,134.9 L286.0,136.9 L297.1,136.6 L308.2,136.6 L319.3,136.6 L330.4,136.6 L341.5,136.6 L352.6,136.6 L363.7,135.8 L374.8,135.8 L385.9,135.8 L397.0,135.8 L408.1,135.8 L419.2,136.0 L430.3,136.0 L441.4,136.0 L452.5,139.7 L463.6,139.7 L474.7,139.6 L485.8,139.6 L496.9,139.6 L508.0,139.6 L519.1,139.6 L530.2,139.6 L541.3,139.6 L552.4,139.6 L563.5,139.6 L574.6,139.6 L585.7,139.6 L596.8,139.6 L607.9,139.6 L619.0,140.5 L630.1,140.5 L641.2,140.5 L652.3,139.8 L663.4,143.5 L674.5,143.5 L685.6,143.5 L696.7,147.1 L707.8,147.1 L718.9,147.1 L730.0,147.1" fill="none" stroke="#1baf7a" stroke-width="2" stroke-linejoin="round" stroke-linecap="round"/>
<circle cx="730.0" cy="147.1" r="6" fill="#fcfcfb"/>
<circle cx="730.0" cy="147.1" r="4" fill="#1baf7a"/>
<path d="M64.0,83.1 L75.1,83.1 L86.2,82.4 L97.3,82.4 L108.4,95.7 L119.5,110.0 L130.6,109.9 L141.7,106.6 L152.8,106.9 L163.9,107.2 L175.0,107.2 L186.1,107.0 L197.2,107.1 L208.3,107.1 L219.4,107.1 L230.5,107.1" fill="none" stroke="#eda100" stroke-width="2" stroke-linejoin="round" stroke-linecap="round"/>
<path d="M252.7,107.2 L263.8,125.6 L274.9,125.6 L286.0,127.5 L297.1,127.3 L308.2,127.3 L319.3,127.3 L330.4,127.3 L341.5,127.3 L352.6,127.5 L363.7,126.6 L374.8,126.3 L385.9,126.3 L397.0,126.3 L408.1,126.3 L419.2,126.9 L430.3,126.9 L441.4,126.8 L452.5,130.5 L463.6,130.5 L474.7,130.3 L485.8,130.3 L496.9,130.4 L508.0,130.4 L519.1,130.4 L530.2,130.4 L541.3,130.4 L552.4,130.4 L563.5,130.4 L574.6,130.4 L585.7,130.4 L596.8,130.4 L607.9,130.4 L619.0,131.3 L630.1,131.4 L641.2,131.4 L652.3,130.7 L663.4,133.9 L674.5,133.9 L685.6,133.9 L696.7,137.8 L707.8,137.8 L718.9,137.8 L730.0,137.8" fill="none" stroke="#eda100" stroke-width="2" stroke-linejoin="round" stroke-linecap="round"/>
<circle cx="730.0" cy="137.8" r="6" fill="#fcfcfb"/>
<circle cx="730.0" cy="137.8" r="4" fill="#eda100"/>
<path d="M64.0,56.6 L75.1,56.6 L86.2,56.0 L97.3,56.0 L108.4,65.0 L119.5,82.2 L130.6,82.1 L141.7,78.6 L152.8,78.8 L163.9,79.3 L175.0,79.3 L186.1,79.2 L197.2,79.1 L208.3,79.2 L219.4,79.2 L230.5,79.2" fill="none" stroke="#008300" stroke-width="2" stroke-linejoin="round" stroke-linecap="round"/>
<path d="M252.7,79.2 L263.8,97.8 L274.9,97.8 L286.0,99.5 L297.1,99.2 L308.2,99.2 L319.3,99.2 L330.4,99.2 L341.5,99.2 L352.6,99.4 L363.7,98.8 L374.8,98.6 L385.9,98.6 L397.0,98.6 L408.1,98.6 L419.2,98.9 L430.3,98.9 L441.4,98.9 L452.5,102.4 L463.6,102.4 L474.7,102.3 L485.8,102.3 L496.9,102.4 L508.0,102.4 L519.1,102.4 L530.2,102.4 L541.3,102.4 L552.4,102.4 L563.5,102.4 L574.6,102.4 L585.7,102.4 L596.8,102.4 L607.9,102.4 L619.0,103.3 L630.1,103.3 L641.2,103.3 L652.3,102.7 L663.4,106.1 L674.5,106.1 L685.6,106.1 L696.7,109.4 L707.8,109.4 L718.9,109.4 L730.0,109.4" fill="none" stroke="#008300" stroke-width="2" stroke-linejoin="round" stroke-linecap="round"/>
<circle cx="730.0" cy="109.4" r="6" fill="#fcfcfb"/>
<circle cx="730.0" cy="109.4" r="4" fill="#008300"/>
<path d="M64.0,222.5 L75.1,222.4 L86.2,222.5 L97.3,222.5 L108.4,229.0 L119.5,236.2 L130.6,236.1 L141.7,234.3 L152.8,234.3 L163.9,234.5 L175.0,234.5 L186.1,234.7 L197.2,234.7 L208.3,234.6 L219.4,234.6 L230.5,234.6" fill="none" stroke="#4a3aa7" stroke-width="2" stroke-linejoin="round" stroke-linecap="round"/>
<path d="M252.7,234.6 L263.8,240.3 L274.9,240.3 L286.0,240.1 L297.1,239.7 L308.2,239.7 L319.3,239.7 L330.4,239.7 L341.5,239.7 L352.6,239.6 L363.7,239.1 L374.8,239.1 L385.9,239.1 L397.0,239.1 L408.1,239.1 L419.2,239.2 L430.3,239.2 L441.4,239.2 L452.5,239.1 L463.6,239.1 L474.7,239.0 L485.8,239.0 L496.9,239.1 L508.0,239.1 L519.1,239.1 L530.2,239.1 L541.3,239.1 L552.4,239.1 L563.5,239.1 L574.6,239.1 L585.7,239.1 L596.8,239.1 L607.9,239.0 L619.0,239.5 L630.1,239.6 L641.2,239.6 L652.3,239.4 L663.4,241.0 L674.5,241.1 L685.6,241.1 L696.7,244.4 L707.8,244.4 L718.9,244.4 L730.0,244.4" fill="none" stroke="#4a3aa7" stroke-width="2" stroke-linejoin="round" stroke-linecap="round"/>
<circle cx="730.0" cy="244.4" r="6" fill="#fcfcfb"/>
<circle cx="730.0" cy="244.4" r="4" fill="#4a3aa7"/>
<circle cx="745.0" cy="105.9" r="3.5" fill="#008300"/>
<text x="753.0" y="109.4" font-family='system-ui, -apple-system, "Segoe UI", sans-serif' font-size="11" fill="#0b0b0b">reverb</text>
<text x="753.0" y="121.4" font-family='system-ui, -apple-system, "Segoe UI", sans-serif' font-size="10" style="font-variant-numeric: tabular-nums" fill="#52514e">50.5M</text>
<circle cx="745.0" cy="133.9" r="3.5" fill="#2a78d6"/>
<text x="753.0" y="137.4" font-family='system-ui, -apple-system, "Segoe UI", sans-serif' font-size="11" fill="#0b0b0b">auto-filter</text>
<text x="753.0" y="149.4" font-family='system-ui, -apple-system, "Segoe UI", sans-serif' font-size="10" style="font-variant-numeric: tabular-nums" fill="#52514e">43.9M</text>
<line x1="736.0" y1="137.8" x2="740.0" y2="165.4" stroke="#c3c2b7" stroke-width="1"/>
<circle cx="745.0" cy="161.9" r="3.5" fill="#eda100"/>
<text x="753.0" y="165.4" font-family='system-ui, -apple-system, "Segoe UI", sans-serif' font-size="11" fill="#0b0b0b">echo</text>
<text x="753.0" y="177.4" font-family='system-ui, -apple-system, "Segoe UI", sans-serif' font-size="10" style="font-variant-numeric: tabular-nums" fill="#52514e">43.2M</text>
<line x1="736.0" y1="147.1" x2="740.0" y2="193.4" stroke="#c3c2b7" stroke-width="1"/>
<circle cx="745.0" cy="189.9" r="3.5" fill="#1baf7a"/>
<text x="753.0" y="193.4" font-family='system-ui, -apple-system, "Segoe UI", sans-serif' font-size="11" fill="#0b0b0b">autotune</text>
<text x="753.0" y="205.4" font-family='system-ui, -apple-system, "Segoe UI", sans-serif' font-size="10" style="font-variant-numeric: tabular-nums" fill="#52514e">40.9M</text>
<circle cx="745.0" cy="240.9" r="3.5" fill="#4a3aa7"/>
<text x="753.0" y="244.4" font-family='system-ui, -apple-system, "Segoe UI", sans-serif' font-size="11" fill="#0b0b0b">sampler-arp</text>
<text x="753.0" y="256.4" font-family='system-ui, -apple-system, "Segoe UI", sans-serif' font-size="10" style="font-variant-numeric: tabular-nums" fill="#52514e">15.8M</text>
</svg>