<svg xmlns="http://www.w3.org/2000/svg" width="880" height="340" viewBox="0 0 880 340" role="img" aria-label="Whole-instrument render cost">
<rect width="880" height="340" rx="6" fill="#fcfcfb"/>
<text x="64" y="24" font-family='system-ui, -apple-system, "Segoe UI", sans-serif' font-size="14" font-weight="600" fill="#0b0b0b">Whole-instrument render cost</text>
<text x="64" y="41" font-family='system-ui, -apple-system, "Segoe UI", sans-serif' font-size="11" fill="#52514e">render_block of 1 s of audio - callgrind instructions (Ir), per main commit, 2026-06-28 to 2026-07-10</text>
<line x1="64" y1="306.0" x2="730" y2="306.0" stroke="#e1e0d9" stroke-width="1"/>
<text x="56" y="309.5" text-anchor="end" font-family='system-ui, -apple-system, "Segoe UI", sans-serif' font-size="11" style="font-variant-numeric: tabular-nums" fill="#898781">0</text>
<line x1="64" y1="228.2" x2="730" y2="228.2" stroke="#e1e0d9" stroke-width="1"/>
<text x="56" y="231.7" text-anchor="end" font-family='system-ui, -apple-system, "Segoe UI", sans-serif' font-size="11" style="font-variant-numeric: tabular-nums" fill="#898781">20</text>
<line x1="64" y1="150.4" x2="730" y2="150.4" stroke="#e1e0d9" stroke-width="1"/>
<text x="56" y="153.9" text-anchor="end" font-family='system-ui, -apple-system, "Segoe UI", sans-serif' font-size="11" style="font-variant-numeric: tabular-nums" fill="#898781">40</text>
<line x1="64" y1="72.6" x2="730" y2="72.6" stroke="#e1e0d9" stroke-width="1"/>
<text x="56" y="76.1" text-anchor="end" font-family='system-ui, -apple-system, "Segoe UI", sans-serif' font-size="11" style="font-variant-numeric: tabular-nums" fill="#898781">60</text>
<text x="56" y="46" text-anchor="end" font-family='system-ui, -apple-system, "Segoe UI", sans-serif' font-size="10" fill="#898781">Ir (M)</text>
<line x1="64" y1="306" x2="730" y2="306" stroke="#c3c2b7" stroke-width="1"/>
<text x="64.0" y="322" text-anchor="middle" font-family='system-ui, -apple-system, "Segoe UI", sans-serif' font-size="11" style="font-variant-numeric: tabular-nums" fill="#898781">06-28</text>
<text x="136.7" y="322" text-anchor="middle" font-family='system-ui, -apple-system, "Segoe UI", sans-serif' font-size="11" style="font-variant-numeric: tabular-nums" fill="#898781">06-30</text>
<text x="197.2" y="322" text-anchor="middle" font-family='system-ui, -apple-system, "Segoe UI", sans-serif' font-size="11" style="font-variant-numeric: tabular-nums" fill="#898781">07-02</text>
<text x="330.4" y="322" text-anchor="middle" font-family='system-ui, -apple-system, "Segoe UI", sans-serif' font-size="11" style="font-variant-numeric: tabular-nums" fill="#898781">07-04</text>
<text x="524.1" y="322" text-anchor="middle" font-family='system-ui, -apple-system, "Segoe UI", sans-serif' font-size="11" style="font-variant-numeric: tabular-nums" fill="#898781">07-07</text>
<text x="645.2" y="322" text-anchor="middle" font-family='system-ui, -apple-system, "Segoe UI", sans-serif' font-size="11" style="font-variant-numeric: tabular-nums" fill="#898781">07-09</text>
<path d="M64.0,72.9 L76.1,73.0 L88.2,80.1 L100.3,80.1 L112.4,94.2 L124.5,108.6 L136.7,108.6 L148.8,105.1 L160.9,105.4 L173.0,105.7 L185.1,105.7 L197.2,105.6 L209.3,105.5 L221.4,105.5 L233.5,105.5 L245.6,105.5" fill="none" stroke="#2a78d6" stroke-width="2" stroke-linejoin="round" stroke-linecap="round"/>
<path d="M269.9,105.7 L282.0,122.6 L294.1,122.6 L306.2,125.2 L318.3,125.0 L330.4,125.0 L342.5,125.0 L354.6,125.0 L366.7,125.0 L378.8,125.0 L390.9,124.3 L403.1,124.3 L415.2,124.3 L427.3,124.3 L439.4,124.3 L451.5,124.5 L463.6,124.5 L475.7,124.5 L487.8,127.9 L499.9,127.9 L512.0,127.9 L524.1,127.9 L536.3,127.9 L548.4,127.9 L560.5,127.9 L572.6,127.9 L584.7,127.9 L596.8,127.9 L608.9,127.9 L621.0,127.9 L633.1,127.9 L645.2,127.9 L657.3,127.9 L669.5,128.8 L681.6,128.8 L693.7,128.8 L705.8,128.2 L717.9,132.1 L730.0,132.1" fill="none" stroke="#2a78d6" stroke-width="2" stroke-linejoin="round" stroke-linecap="round"/>
<circle cx="730.0" cy="132.1" r="6" fill="#fcfcfb"/>
<circle cx="730.0" cy="132.1" r="4" fill="#2a78d6"/>
<path d="M64.0,98.8 L76.1,98.9 L88.2,98.2 L100.3,98.2 L112.4,107.4 L124.5,120.8 L136.7,120.7 L148.8,117.1 L160.9,117.4 L173.0,117.8 L185.1,117.7 L197.2,117.7 L209.3,117.5 L221.4,117.7 L233.5,117.7 L245.6,117.7" fill="none" stroke="#1baf7a" stroke-width="2" stroke-linejoin="round" stroke-linecap="round"/>
<path d="M269.9,117.8 L282.0,134.9 L294.1,134.9 L306.2,136.9 L318.3,136.6 L330.4,136.6 L342.5,136.6 L354.6,136.6 L366.7,136.6 L378.8,136.6 L390.9,135.8 L403.1,135.8 L415.2,135.8 L427.3,135.8 L439.4,135.8 L451.5,136.0 L463.6,136.0 L475.7,136.0 L487.8,139.7 L499.9,139.7 L512.0,139.6 L524.1,139.6 L536.3,139.6 L548.4,139.6 L560.5,139.6 L572.6,139.6 L584.7,139.6 L596.8,139.6 L608.9,139.6 L621.0,139.6 L633.1,139.6 L645.2,139.6 L657.3,139.6 L669.5,140.5 L681.6,140.5 L693.7,140.5 L705.8,139.8 L717.9,143.5 L730.0,143.5" fill="none" stroke="#1baf7a" stroke-width="2" stroke-linejoin="round" stroke-linecap="round"/>
<circle cx="730.0" cy="143.5" r="6" fill="#fcfcfb"/>
<circle cx="730.0" cy="143.5" r="4" fill="#1baf7a"/>
<path d="M64.0,83.1 L76.1,83.1 L88.2,82.4 L100.3,82.4 L112.4,95.7 L124.5,110.0 L136.7,109.9 L148.8,106.6 L160.9,106.9 L173.0,107.2 L185.1,107.2 L197.2,107.0 L209.3,107.1 L221.4,107.1 L233.5,107.1 L245.6,107.1" fill="none" stroke="#eda100" stroke-width="2" stroke-linejoin="round" stroke-linecap="round"/>
<path d="M269.9,107.2 L282.0,125.6 L294.1,125.6 L306.2,127.5 L318.3,127.3 L330.4,127.3 L342.5,127.3 L354.6,127.3 L366.7,127.3 L378.8,127.5 L390.9,126.6 L403.1,126.3 L415.2,126.3 L427.3,126.3 L439.4,126.3 L451.5,126.9 L463.6,126.9 L475.7,126.8 L487.8,130.5 L499.9,130.5 L512.0,130.3 L524.1,130.3 L536.3,130.4 L548.4,130.4 L560.5,130.4 L572.6,130.4 L584.7,130.4 L596.8,130.4 L608.9,130.4 L621.0,130.4 L633.1,130.4 L645.2,130.4 L657.3,130.4 L669.5,131.3 L681.6,131.4 L693.7,131.4 L705.8,130.7 L717.9,133.9 L730.0,133.9" fill="none" stroke="#eda100" stroke-width="2" stroke-linejoin="round" stroke-linecap="round"/>
<circle cx="730.0" cy="133.9" r="6" fill="#fcfcfb"/>
<circle cx="730.0" cy="133.9" r="4" fill="#eda100"/>
<path d="M64.0,56.6 L76.1,56.6 L88.2,56.0 L100.3,56.0 L112.4,65.0 L124.5,82.2 L136.7,82.1 L148.8,78.6 L160.9,78.8 L173.0,79.3 L185.1,79.3 L197.2,79.2 L209.3,79.1 L221.4,79.2 L233.5,79.2 L245.6,79.2" fill="none" stroke="#008300" stroke-width="2" stroke-linejoin="round" stroke-linecap="round"/>
<path d="M269.9,79.2 L282.0,97.8 L294.1,97.8 L306.2,99.5 L318.3,99.2 L330.4,99.2 L342.5,99.2 L354.6,99.2 L366.7,99.2 L378.8,99.4 L390.9,98.8 L403.1,98.6 L415.2,98.6 L427.3,98.6 L439.4,98.6 L451.5,98.9 L463.6,98.9 L475.7,98.9 L487.8,102.4 L499.9,102.4 L512.0,102.3 L524.1,102.3 L536.3,102.4 L548.4,102.4 L560.5,102.4 L572.6,102.4 L584.7,102.4 L596.8,102.4 L608.9,102.4 L621.0,102.4 L633.1,102.4 L645.2,102.4 L657.3,102.4 L669.5,103.3 L681.6,103.3 L693.7,103.3 L705.8,102.7 L717.9,106.1 L730.0,106.1" fill="none" stroke="#008300" stroke-width="2" stroke-linejoin="round" stroke-linecap="round"/>
<circle cx="730.0" cy="106.1" r="6" fill="#fcfcfb"/>
<circle cx="730.0" cy="106.1" r="4" fill="#008300"/>
<path d="M64.0,222.5 L76.1,222.4 L88.2,222.5 L100.3,222.5 L112.4,229.0 L124.5,236.2 L136.7,236.1 L148.8,234.3 L160.9,234.3 L173.0,234.5 L185.1,234.5 L197.2,234.7 L209.3,234.7 L221.4,234.6 L233.5,234.6 L245.6,234.6" fill="none" stroke="#4a3aa7" stroke-width="2" stroke-linejoin="round" stroke-linecap="round"/>
<path d="M269.9,234.6 L282.0,240.3 L294.1,240.3 L306.2,240.1 L318.3,239.7 L330.4,239.7 L342.5,239.7 L354.6,239.7 L366.7,239.7 L378.8,239.6 L390.9,239.1 L403.1,239.1 L415.2,239.1 L427.3,239.1 L439.4,239.1 L451.5,239.2 L463.6,239.2 L475.7,239.2 L487.8,239.1 L499.9,239.1 L512.0,239.0 L524.1,239.0 L536.3,239.1 L548.4,239.1 L560.5,239.1 L572.6,239.1 L584.7,239.1 L596.8,239.1 L608.9,239.1 L621.0,239.1 L633.1,239.1 L645.2,239.1 L657.3,239.0 L669.5,239.5 L681.6,239.6 L693.7,239.6 L705.8,239.4 L717.9,241.0 L730.0,241.1" fill="none" stroke="#4a3aa7" stroke-width="2" stroke-linejoin="round" stroke-linecap="round"/>
<circle cx="730.0" cy="241.1" r="6" fill="#fcfcfb"/>
<circle cx="730.0" cy="241.1" r="4" fill="#4a3aa7"/>
<circle cx="745.0" cy="102.6" r="3.5" fill="#008300"/>
<text x="753.0" y="106.1" font-family='system-ui, -apple-system, "Segoe UI", sans-serif' font-size="11" fill="#0b0b0b">reverb</text>
<text x="753.0" y="118.1" font-family='system-ui, -apple-system, "Segoe UI", sans-serif' font-size="10" style="font-variant-numeric: tabular-nums" fill="#52514e">51.4M</text>
<circle cx="745.0" cy="130.6" r="3.5" fill="#2a78d6"/>
<text x="753.0" y="134.1" font-family='system-ui, -apple-system, "Segoe UI", sans-serif' font-size="11" fill="#0b0b0b">auto-filter</text>
<text x="753.0" y="146.1" font-family='system-ui, -apple-system, "Segoe UI", sans-serif' font-size="10" style="font-variant-numeric: tabular-nums" fill="#52514e">44.7M</text>
<line x1="736.0" y1="133.9" x2="740.0" y2="162.1" stroke="#c3c2b7" stroke-width="1"/>
<circle cx="745.0" cy="158.6" r="3.5" fill="#eda100"/>
<text x="753.0" y="162.1" font-family='system-ui, -apple-system, "Segoe UI", sans-serif' font-size="11" fill="#0b0b0b">echo</text>
<text x="753.0" y="174.1" font-family='system-ui, -apple-system, "Segoe UI", sans-serif' font-size="10" style="font-variant-numeric: tabular-nums" fill="#52514e">44.2M</text>
<line x1="736.0" y1="143.5" x2="740.0" y2="190.1" stroke="#c3c2b7" stroke-width="1"/>
<circle cx="745.0" cy="186.6" r="3.5" fill="#1baf7a"/>
<text x="753.0" y="190.1" font-family='system-ui, -apple-system, "Segoe UI", sans-serif' font-size="11" fill="#0b0b0b">autotune</text>
<text x="753.0" y="202.1" font-family='system-ui, -apple-system, "Segoe UI", sans-serif' font-size="10" style="font-variant-numeric: tabular-nums" fill="#52514e">41.8M</text>
<circle cx="745.0" cy="237.6" r="3.5" fill="#4a3aa7"/>
<text x="753.0" y="241.1" font-family='system-ui, -apple-system, "Segoe UI", sans-serif' font-size="11" fill="#0b0b0b">sampler-arp</text>
<text x="753.0" y="253.1" font-family='system-ui, -apple-system, "Segoe UI", sans-serif' font-size="10" style="font-variant-numeric: tabular-nums" fill="#52514e">16.7M</text>
</svg>