<svg xmlns="http://www.w3.org/2000/svg" width="880" height="340" viewBox="0 0 880 340" role="img" aria-label="Whole-instrument render cost">
<rect width="880" height="340" rx="6" fill="#1a1a19"/>
<text x="64" y="24" font-family='system-ui, -apple-system, "Segoe UI", sans-serif' font-size="14" font-weight="600" fill="#ffffff">Whole-instrument render cost</text>
<text x="64" y="41" font-family='system-ui, -apple-system, "Segoe UI", sans-serif' font-size="11" fill="#c3c2b7">render_block of 1 s of audio - callgrind instructions (Ir), per dev commit, 2026-07-12 to 2026-07-22</text>
<line x1="64" y1="306.0" x2="730" y2="306.0" stroke="#2c2c2a" stroke-width="1"/>
<text x="56" y="309.5" text-anchor="end" font-family='system-ui, -apple-system, "Segoe UI", sans-serif' font-size="11" style="font-variant-numeric: tabular-nums" fill="#898781">0</text>
<line x1="64" y1="207.1" x2="730" y2="207.1" stroke="#2c2c2a" stroke-width="1"/>
<text x="56" y="210.6" text-anchor="end" font-family='system-ui, -apple-system, "Segoe UI", sans-serif' font-size="11" style="font-variant-numeric: tabular-nums" fill="#898781">20</text>
<line x1="64" y1="108.2" x2="730" y2="108.2" stroke="#2c2c2a" stroke-width="1"/>
<text x="56" y="111.7" text-anchor="end" font-family='system-ui, -apple-system, "Segoe UI", sans-serif' font-size="11" style="font-variant-numeric: tabular-nums" fill="#898781">40</text>
<text x="56" y="46" text-anchor="end" font-family='system-ui, -apple-system, "Segoe UI", sans-serif' font-size="10" fill="#898781">Ir (M)</text>
<line x1="64" y1="306" x2="730" y2="306" stroke="#383835" stroke-width="1"/>
<text x="64.0" y="322" text-anchor="middle" font-family='system-ui, -apple-system, "Segoe UI", sans-serif' font-size="11" style="font-variant-numeric: tabular-nums" fill="#898781">07-12</text>
<text x="143.0" y="322" text-anchor="middle" font-family='system-ui, -apple-system, "Segoe UI", sans-serif' font-size="11" style="font-variant-numeric: tabular-nums" fill="#898781">07-14</text>
<text x="244.6" y="322" text-anchor="middle" font-family='system-ui, -apple-system, "Segoe UI", sans-serif' font-size="11" style="font-variant-numeric: tabular-nums" fill="#898781">07-17</text>
<text x="380.1" y="322" text-anchor="middle" font-family='system-ui, -apple-system, "Segoe UI", sans-serif' font-size="11" style="font-variant-numeric: tabular-nums" fill="#898781">07-19</text>
<text x="583.3" y="322" text-anchor="middle" font-family='system-ui, -apple-system, "Segoe UI", sans-serif' font-size="11" style="font-variant-numeric: tabular-nums" fill="#898781">07-21</text>
<path d="M64.0,88.9 L75.3,88.9 L86.6,88.9 L97.9,88.9 L109.2,88.9 L120.4,88.9 L131.7,88.9 L143.0,88.9 L154.3,88.9 L165.6,88.9 L176.9,88.9 L188.2,88.9 L199.5,88.9 L210.7,88.9 L222.0,88.9 L233.3,88.9 L244.6,88.9 L255.9,88.9 L267.2,88.9 L278.5,88.9 L289.8,88.9 L301.1,88.9 L312.3,88.9 L323.6,88.9 L334.9,88.9 L346.2,88.9 L357.5,88.9 L368.8,88.9 L380.1,89.0 L391.4,89.0 L402.6,89.0 L413.9,89.0 L425.2,89.0 L436.5,89.3 L447.8,89.3 L459.1,89.3 L470.4,89.3 L481.7,89.3 L492.9,89.3 L504.2,89.2 L515.5,89.2 L526.8,89.3 L538.1,89.3 L549.4,89.3 L560.7,89.3 L572.0,89.3 L583.3,89.3 L594.5,89.3 L605.8,89.3 L617.1,89.3 L628.4,120.2 L639.7,120.2 L651.0,120.2 L662.3,120.2 L673.6,120.2 L684.8,120.1 L696.1,120.1 L707.4,120.1 L718.7,120.1 L730.0,120.1" fill="none" stroke="#3987e5" stroke-width="2" stroke-linejoin="round" stroke-linecap="round"/>
<circle cx="730.0" cy="120.1" r="6" fill="#1a1a19"/>
<circle cx="730.0" cy="120.1" r="4" fill="#3987e5"/>
<path d="M64.0,103.9 L75.3,103.9 L86.6,103.9 L97.9,103.9 L109.2,103.9 L120.4,103.9 L131.7,103.8 L143.0,103.8 L154.3,103.8 L165.6,103.8 L176.9,103.8 L188.2,103.8 L199.5,103.8 L210.7,103.8 L222.0,103.9 L233.3,103.9 L244.6,103.9 L255.9,103.9 L267.2,103.9 L278.5,103.9 L289.8,103.9 L301.1,103.9 L312.3,103.9 L323.6,103.9 L334.9,103.9 L346.2,103.9 L357.5,103.9 L368.8,103.9 L380.1,103.9 L391.4,103.9 L402.6,103.9 L413.9,103.9 L425.2,103.9 L436.5,104.2 L447.8,104.2 L459.1,104.2 L470.4,104.2 L481.7,104.1 L492.9,104.1 L504.2,104.2 L515.5,104.2 L526.8,104.2 L538.1,104.2 L549.4,104.2 L560.7,104.2 L572.0,104.2 L583.3,104.2 L594.5,104.2 L605.8,104.2 L617.1,104.2 L628.4,131.8 L639.7,131.8 L651.0,131.8 L662.3,131.8 L673.6,131.8 L684.8,131.8 L696.1,132.0 L707.4,132.0 L718.7,132.0 L730.0,132.0" fill="none" stroke="#199e70" stroke-width="2" stroke-linejoin="round" stroke-linecap="round"/>
<circle cx="730.0" cy="132.0" r="6" fill="#1a1a19"/>
<circle cx="730.0" cy="132.0" r="4" fill="#199e70"/>
<path d="M64.0,92.1 L75.3,92.1 L86.6,92.1 L97.9,92.1 L109.2,92.1 L120.4,92.1 L131.7,92.1 L143.0,92.1 L154.3,92.1 L165.6,92.1 L176.9,92.1 L188.2,92.1 L199.5,92.1 L210.7,92.1 L222.0,92.1 L233.3,92.1 L244.6,92.1 L255.9,92.1 L267.2,92.1 L278.5,92.1 L289.8,92.1 L301.1,92.1 L312.3,92.1 L323.6,92.1 L334.9,92.1 L346.2,92.1 L357.5,92.1 L368.8,92.1 L380.1,92.1 L391.4,92.1 L402.6,92.1 L413.9,92.1 L425.2,92.1 L436.5,92.4 L447.8,92.4 L459.1,92.4 L470.4,92.4 L481.7,92.4 L492.9,92.4 L504.2,92.3 L515.5,92.3 L526.8,92.4 L538.1,92.4 L549.4,92.4 L560.7,92.4 L572.0,92.4 L583.3,92.4 L594.5,92.4 L605.8,92.4 L617.1,92.4 L628.4,120.0 L639.7,119.9 L651.0,119.9 L662.3,119.9 L673.6,119.9 L684.8,120.0 L696.1,120.0 L707.4,120.0 L718.7,120.0 L730.0,120.0" fill="none" stroke="#c98500" stroke-width="2" stroke-linejoin="round" stroke-linecap="round"/>
<circle cx="730.0" cy="120.0" r="6" fill="#1a1a19"/>
<circle cx="730.0" cy="120.0" r="4" fill="#c98500"/>
<path d="M64.0,56.0 L75.3,56.0 L86.6,56.0 L97.9,56.0 L109.2,56.0 L120.4,56.0 L131.7,56.0 L143.0,56.0 L154.3,56.0 L165.6,56.0 L176.9,56.0 L188.2,56.0 L199.5,56.0 L210.7,56.0 L222.0,56.0 L233.3,56.0 L244.6,56.0 L255.9,56.0 L267.2,56.0 L278.5,56.0 L289.8,56.0 L301.1,56.0 L312.3,56.0 L323.6,56.0 L334.9,56.0 L346.2,56.0 L357.5,56.0 L368.8,56.0 L380.1,56.0 L391.4,56.0 L402.6,56.0 L413.9,56.0 L425.2,56.0 L436.5,56.3 L447.8,56.3 L459.1,56.3 L470.4,56.3 L481.7,56.3 L492.9,56.3 L504.2,56.2 L515.5,56.2 L526.8,56.3 L538.1,56.3 L549.4,56.3 L560.7,56.3 L572.0,56.3 L583.3,56.3 L594.5,56.3 L605.8,56.3 L617.1,56.3 L628.4,83.9 L639.7,83.9 L651.0,83.9 L662.3,83.9 L673.6,83.9 L684.8,83.9 L696.1,83.8 L707.4,83.8 L718.7,83.8 L730.0,83.8" fill="none" stroke="#008300" stroke-width="2" stroke-linejoin="round" stroke-linecap="round"/>
<circle cx="730.0" cy="83.8" r="6" fill="#1a1a19"/>
<circle cx="730.0" cy="83.8" r="4" fill="#008300"/>
<path d="M64.0,227.6 L75.3,227.6 L86.6,227.6 L97.9,227.6 L109.2,227.6 L120.4,227.6 L131.7,227.6 L143.0,227.6 L154.3,227.6 L165.6,227.6 L176.9,227.6 L188.2,227.6 L199.5,227.6 L210.7,227.6 L222.0,227.6 L233.3,227.6 L244.6,227.6 L255.9,227.6 L267.2,227.6 L278.5,227.6 L289.8,227.6 L301.1,227.6 L312.3,227.6 L323.6,227.6 L334.9,227.6 L346.2,227.6 L357.5,227.6 L368.8,227.6 L380.1,227.6 L391.4,227.6 L402.6,227.6 L413.9,227.6 L425.2,227.6 L436.5,227.8 L447.8,227.8 L459.1,227.8 L470.4,227.8 L481.7,227.7 L492.9,227.7 L504.2,227.8 L515.5,227.8 L526.8,227.7 L538.1,227.7 L549.4,227.7 L560.7,227.7 L572.0,227.7 L583.3,227.7 L594.5,227.7 L605.8,227.7 L617.1,227.7 L628.4,227.7 L639.7,227.7 L651.0,227.7 L662.3,227.7 L673.6,227.7 L684.8,227.7 L696.1,227.8 L707.4,227.8 L718.7,227.8 L730.0,227.8" fill="none" stroke="#9085e9" stroke-width="2" stroke-linejoin="round" stroke-linecap="round"/>
<circle cx="730.0" cy="227.8" r="6" fill="#1a1a19"/>
<circle cx="730.0" cy="227.8" r="4" fill="#9085e9"/>
<circle cx="745.0" cy="80.3" r="3.5" fill="#008300"/>
<text x="753.0" y="83.8" font-family='system-ui, -apple-system, "Segoe UI", sans-serif' font-size="11" fill="#ffffff">reverb</text>
<text x="753.0" y="95.8" font-family='system-ui, -apple-system, "Segoe UI", sans-serif' font-size="10" style="font-variant-numeric: tabular-nums" fill="#c3c2b7">44.9M</text>
<circle cx="745.0" cy="116.5" r="3.5" fill="#c98500"/>
<text x="753.0" y="120.0" font-family='system-ui, -apple-system, "Segoe UI", sans-serif' font-size="11" fill="#ffffff">echo</text>
<text x="753.0" y="132.0" font-family='system-ui, -apple-system, "Segoe UI", sans-serif' font-size="10" style="font-variant-numeric: tabular-nums" fill="#c3c2b7">37.6M</text>
<line x1="736.0" y1="120.1" x2="740.0" y2="148.0" stroke="#383835" stroke-width="1"/>
<circle cx="745.0" cy="144.5" r="3.5" fill="#3987e5"/>
<text x="753.0" y="148.0" font-family='system-ui, -apple-system, "Segoe UI", sans-serif' font-size="11" fill="#ffffff">auto-filter</text>
<text x="753.0" y="160.0" font-family='system-ui, -apple-system, "Segoe UI", sans-serif' font-size="10" style="font-variant-numeric: tabular-nums" fill="#c3c2b7">37.6M</text>
<line x1="736.0" y1="132.0" x2="740.0" y2="176.0" stroke="#383835" stroke-width="1"/>
<circle cx="745.0" cy="172.5" r="3.5" fill="#199e70"/>
<text x="753.0" y="176.0" font-family='system-ui, -apple-system, "Segoe UI", sans-serif' font-size="11" fill="#ffffff">autotune</text>
<text x="753.0" y="188.0" font-family='system-ui, -apple-system, "Segoe UI", sans-serif' font-size="10" style="font-variant-numeric: tabular-nums" fill="#c3c2b7">35.2M</text>
<circle cx="745.0" cy="224.3" r="3.5" fill="#9085e9"/>
<text x="753.0" y="227.8" font-family='system-ui, -apple-system, "Segoe UI", sans-serif' font-size="11" fill="#ffffff">sampler-arp</text>
<text x="753.0" y="239.8" font-family='system-ui, -apple-system, "Segoe UI", sans-serif' font-size="10" style="font-variant-numeric: tabular-nums" fill="#c3c2b7">15.8M</text>
</svg>