<svg xmlns="http://www.w3.org/2000/svg" width="880" height="340" viewBox="0 0 880 340" role="img" aria-label="Whole-instrument render cost">
<rect width="880" height="340" rx="6" fill="#1a1a19"/>
<text x="64" y="24" font-family='system-ui, -apple-system, "Segoe UI", sans-serif' font-size="14" font-weight="600" fill="#ffffff">Whole-instrument render cost</text>
<text x="64" y="41" font-family='system-ui, -apple-system, "Segoe UI", sans-serif' font-size="11" fill="#c3c2b7">render_block of 1 s of audio - callgrind instructions (Ir), per dev commit, 2026-07-12 to 2026-07-20</text>
<line x1="64" y1="306.0" x2="730" y2="306.0" stroke="#2c2c2a" stroke-width="1"/>
<text x="56" y="309.5" text-anchor="end" font-family='system-ui, -apple-system, "Segoe UI", sans-serif' font-size="11" style="font-variant-numeric: tabular-nums" fill="#898781">0</text>
<line x1="64" y1="207.1" x2="730" y2="207.1" stroke="#2c2c2a" stroke-width="1"/>
<text x="56" y="210.6" text-anchor="end" font-family='system-ui, -apple-system, "Segoe UI", sans-serif' font-size="11" style="font-variant-numeric: tabular-nums" fill="#898781">20</text>
<line x1="64" y1="108.2" x2="730" y2="108.2" stroke="#2c2c2a" stroke-width="1"/>
<text x="56" y="111.7" text-anchor="end" font-family='system-ui, -apple-system, "Segoe UI", sans-serif' font-size="11" style="font-variant-numeric: tabular-nums" fill="#898781">40</text>
<text x="56" y="46" text-anchor="end" font-family='system-ui, -apple-system, "Segoe UI", sans-serif' font-size="10" fill="#898781">Ir (M)</text>
<line x1="64" y1="306" x2="730" y2="306" stroke="#383835" stroke-width="1"/>
<text x="64.0" y="322" text-anchor="middle" font-family='system-ui, -apple-system, "Segoe UI", sans-serif' font-size="11" style="font-variant-numeric: tabular-nums" fill="#898781">07-12</text>
<text x="159.1" y="322" text-anchor="middle" font-family='system-ui, -apple-system, "Segoe UI", sans-serif' font-size="11" style="font-variant-numeric: tabular-nums" fill="#898781">07-13</text>
<text x="175.0" y="322" text-anchor="middle" font-family='system-ui, -apple-system, "Segoe UI", sans-serif' font-size="11" style="font-variant-numeric: tabular-nums" fill="#898781">07-14</text>
<text x="190.9" y="322" text-anchor="middle" font-family='system-ui, -apple-system, "Segoe UI", sans-serif' font-size="11" style="font-variant-numeric: tabular-nums" fill="#898781">07-16</text>
<text x="317.7" y="322" text-anchor="middle" font-family='system-ui, -apple-system, "Segoe UI", sans-serif' font-size="11" style="font-variant-numeric: tabular-nums" fill="#898781">07-17</text>
<text x="412.9" y="322" text-anchor="middle" font-family='system-ui, -apple-system, "Segoe UI", sans-serif' font-size="11" style="font-variant-numeric: tabular-nums" fill="#898781">07-18</text>
<text x="508.0" y="322" text-anchor="middle" font-family='system-ui, -apple-system, "Segoe UI", sans-serif' font-size="11" style="font-variant-numeric: tabular-nums" fill="#898781">07-19</text>
<text x="555.6" y="322" text-anchor="middle" font-family='system-ui, -apple-system, "Segoe UI", sans-serif' font-size="11" style="font-variant-numeric: tabular-nums" fill="#898781">07-20</text>
<path d="M64.0,88.9 L79.9,88.9 L95.7,88.9 L111.6,88.9 L127.4,88.9 L143.3,88.9 L159.1,88.9 L175.0,88.9 L190.9,88.9 L206.7,88.9 L222.6,88.9 L238.4,88.9 L254.3,88.9 L270.1,88.9 L286.0,88.9 L301.9,88.9 L317.7,88.9 L333.6,88.9 L349.4,88.9 L365.3,88.9 L381.1,88.9 L397.0,88.9 L412.9,88.9 L428.7,88.9 L444.6,88.9 L460.4,88.9 L476.3,88.9 L492.1,88.9 L508.0,89.0 L523.9,89.0 L539.7,89.0 L555.6,89.0 L571.4,89.0 L587.3,89.3 L603.1,89.3 L619.0,89.3 L634.9,89.3 L650.7,89.3 L666.6,89.3 L682.4,89.2 L698.3,89.2 L714.1,89.3 L730.0,89.3" fill="none" stroke="#3987e5" stroke-width="2" stroke-linejoin="round" stroke-linecap="round"/>
<circle cx="730.0" cy="89.3" r="6" fill="#1a1a19"/>
<circle cx="730.0" cy="89.3" r="4" fill="#3987e5"/>
<path d="M64.0,103.9 L79.9,103.9 L95.7,103.9 L111.6,103.9 L127.4,103.9 L143.3,103.9 L159.1,103.8 L175.0,103.8 L190.9,103.8 L206.7,103.8 L222.6,103.8 L238.4,103.8 L254.3,103.8 L270.1,103.8 L286.0,103.9 L301.9,103.9 L317.7,103.9 L333.6,103.9 L349.4,103.9 L365.3,103.9 L381.1,103.9 L397.0,103.9 L412.9,103.9 L428.7,103.9 L444.6,103.9 L460.4,103.9 L476.3,103.9 L492.1,103.9 L508.0,103.9 L523.9,103.9 L539.7,103.9 L555.6,103.9 L571.4,103.9 L587.3,104.2 L603.1,104.2 L619.0,104.2 L634.9,104.2 L650.7,104.1 L666.6,104.1 L682.4,104.2 L698.3,104.2 L714.1,104.2 L730.0,104.2" fill="none" stroke="#199e70" stroke-width="2" stroke-linejoin="round" stroke-linecap="round"/>
<circle cx="730.0" cy="104.2" r="6" fill="#1a1a19"/>
<circle cx="730.0" cy="104.2" r="4" fill="#199e70"/>
<path d="M64.0,92.1 L79.9,92.1 L95.7,92.1 L111.6,92.1 L127.4,92.1 L143.3,92.1 L159.1,92.1 L175.0,92.1 L190.9,92.1 L206.7,92.1 L222.6,92.1 L238.4,92.1 L254.3,92.1 L270.1,92.1 L286.0,92.1 L301.9,92.1 L317.7,92.1 L333.6,92.1 L349.4,92.1 L365.3,92.1 L381.1,92.1 L397.0,92.1 L412.9,92.1 L428.7,92.1 L444.6,92.1 L460.4,92.1 L476.3,92.1 L492.1,92.1 L508.0,92.1 L523.9,92.1 L539.7,92.1 L555.6,92.1 L571.4,92.1 L587.3,92.4 L603.1,92.4 L619.0,92.4 L634.9,92.4 L650.7,92.4 L666.6,92.4 L682.4,92.3 L698.3,92.3 L714.1,92.4 L730.0,92.4" fill="none" stroke="#c98500" stroke-width="2" stroke-linejoin="round" stroke-linecap="round"/>
<circle cx="730.0" cy="92.4" r="6" fill="#1a1a19"/>
<circle cx="730.0" cy="92.4" r="4" fill="#c98500"/>
<path d="M64.0,56.0 L79.9,56.0 L95.7,56.0 L111.6,56.0 L127.4,56.0 L143.3,56.0 L159.1,56.0 L175.0,56.0 L190.9,56.0 L206.7,56.0 L222.6,56.0 L238.4,56.0 L254.3,56.0 L270.1,56.0 L286.0,56.0 L301.9,56.0 L317.7,56.0 L333.6,56.0 L349.4,56.0 L365.3,56.0 L381.1,56.0 L397.0,56.0 L412.9,56.0 L428.7,56.0 L444.6,56.0 L460.4,56.0 L476.3,56.0 L492.1,56.0 L508.0,56.0 L523.9,56.0 L539.7,56.0 L555.6,56.0 L571.4,56.0 L587.3,56.3 L603.1,56.3 L619.0,56.3 L634.9,56.3 L650.7,56.3 L666.6,56.3 L682.4,56.2 L698.3,56.2 L714.1,56.3 L730.0,56.3" fill="none" stroke="#008300" stroke-width="2" stroke-linejoin="round" stroke-linecap="round"/>
<circle cx="730.0" cy="56.3" r="6" fill="#1a1a19"/>
<circle cx="730.0" cy="56.3" r="4" fill="#008300"/>
<path d="M64.0,227.6 L79.9,227.6 L95.7,227.6 L111.6,227.6 L127.4,227.6 L143.3,227.6 L159.1,227.6 L175.0,227.6 L190.9,227.6 L206.7,227.6 L222.6,227.6 L238.4,227.6 L254.3,227.6 L270.1,227.6 L286.0,227.6 L301.9,227.6 L317.7,227.6 L333.6,227.6 L349.4,227.6 L365.3,227.6 L381.1,227.6 L397.0,227.6 L412.9,227.6 L428.7,227.6 L444.6,227.6 L460.4,227.6 L476.3,227.6 L492.1,227.6 L508.0,227.6 L523.9,227.6 L539.7,227.6 L555.6,227.6 L571.4,227.6 L587.3,227.8 L603.1,227.8 L619.0,227.8 L634.9,227.8 L650.7,227.7 L666.6,227.7 L682.4,227.8 L698.3,227.8 L714.1,227.7 L730.0,227.7" fill="none" stroke="#9085e9" stroke-width="2" stroke-linejoin="round" stroke-linecap="round"/>
<circle cx="730.0" cy="227.7" r="6" fill="#1a1a19"/>
<circle cx="730.0" cy="227.7" r="4" fill="#9085e9"/>
<circle cx="745.0" cy="52.8" r="3.5" fill="#008300"/>
<text x="753.0" y="56.3" font-family='system-ui, -apple-system, "Segoe UI", sans-serif' font-size="11" fill="#ffffff">reverb</text>
<text x="753.0" y="68.3" font-family='system-ui, -apple-system, "Segoe UI", sans-serif' font-size="10" style="font-variant-numeric: tabular-nums" fill="#c3c2b7">50.5M</text>
<circle cx="745.0" cy="85.8" r="3.5" fill="#3987e5"/>
<text x="753.0" y="89.3" font-family='system-ui, -apple-system, "Segoe UI", sans-serif' font-size="11" fill="#ffffff">auto-filter</text>
<text x="753.0" y="101.3" font-family='system-ui, -apple-system, "Segoe UI", sans-serif' font-size="10" style="font-variant-numeric: tabular-nums" fill="#c3c2b7">43.8M</text>
<line x1="736.0" y1="92.4" x2="740.0" y2="117.3" stroke="#383835" stroke-width="1"/>
<circle cx="745.0" cy="113.8" r="3.5" fill="#c98500"/>
<text x="753.0" y="117.3" font-family='system-ui, -apple-system, "Segoe UI", sans-serif' font-size="11" fill="#ffffff">echo</text>
<text x="753.0" y="129.3" font-family='system-ui, -apple-system, "Segoe UI", sans-serif' font-size="10" style="font-variant-numeric: tabular-nums" fill="#c3c2b7">43.2M</text>
<line x1="736.0" y1="104.2" x2="740.0" y2="145.3" stroke="#383835" stroke-width="1"/>
<circle cx="745.0" cy="141.8" r="3.5" fill="#199e70"/>
<text x="753.0" y="145.3" font-family='system-ui, -apple-system, "Segoe UI", sans-serif' font-size="11" fill="#ffffff">autotune</text>
<text x="753.0" y="157.3" font-family='system-ui, -apple-system, "Segoe UI", sans-serif' font-size="10" style="font-variant-numeric: tabular-nums" fill="#c3c2b7">40.8M</text>
<circle cx="745.0" cy="224.2" r="3.5" fill="#9085e9"/>
<text x="753.0" y="227.7" font-family='system-ui, -apple-system, "Segoe UI", sans-serif' font-size="11" fill="#ffffff">sampler-arp</text>
<text x="753.0" y="239.7" font-family='system-ui, -apple-system, "Segoe UI", sans-serif' font-size="10" style="font-variant-numeric: tabular-nums" fill="#c3c2b7">15.8M</text>
</svg>