<svg xmlns="http://www.w3.org/2000/svg" width="880" height="340" viewBox="0 0 880 340" role="img" aria-label="Whole-instrument render cost">
<rect width="880" height="340" rx="6" fill="#1a1a19"/>
<text x="64" y="24" font-family='system-ui, -apple-system, "Segoe UI", sans-serif' font-size="14" font-weight="600" fill="#ffffff">Whole-instrument render cost</text>
<text x="64" y="41" font-family='system-ui, -apple-system, "Segoe UI", sans-serif' font-size="11" fill="#c3c2b7">render_block of 1 s of audio - callgrind instructions (Ir), per main commit, 2026-06-28 to 2026-07-11</text>
<line x1="64" y1="306.0" x2="730" y2="306.0" stroke="#2c2c2a" stroke-width="1"/>
<text x="56" y="309.5" text-anchor="end" font-family='system-ui, -apple-system, "Segoe UI", sans-serif' font-size="11" style="font-variant-numeric: tabular-nums" fill="#898781">0</text>
<line x1="64" y1="228.2" x2="730" y2="228.2" stroke="#2c2c2a" stroke-width="1"/>
<text x="56" y="231.7" text-anchor="end" font-family='system-ui, -apple-system, "Segoe UI", sans-serif' font-size="11" style="font-variant-numeric: tabular-nums" fill="#898781">20</text>
<line x1="64" y1="150.4" x2="730" y2="150.4" stroke="#2c2c2a" stroke-width="1"/>
<text x="56" y="153.9" text-anchor="end" font-family='system-ui, -apple-system, "Segoe UI", sans-serif' font-size="11" style="font-variant-numeric: tabular-nums" fill="#898781">40</text>
<line x1="64" y1="72.6" x2="730" y2="72.6" stroke="#2c2c2a" stroke-width="1"/>
<text x="56" y="76.1" text-anchor="end" font-family='system-ui, -apple-system, "Segoe UI", sans-serif' font-size="11" style="font-variant-numeric: tabular-nums" fill="#898781">60</text>
<text x="56" y="46" text-anchor="end" font-family='system-ui, -apple-system, "Segoe UI", sans-serif' font-size="10" fill="#898781">Ir (M)</text>
<line x1="64" y1="306" x2="730" y2="306" stroke="#383835" stroke-width="1"/>
<text x="64.0" y="322" text-anchor="middle" font-family='system-ui, -apple-system, "Segoe UI", sans-serif' font-size="11" style="font-variant-numeric: tabular-nums" fill="#898781">06-28</text>
<text x="134.1" y="322" text-anchor="middle" font-family='system-ui, -apple-system, "Segoe UI", sans-serif' font-size="11" style="font-variant-numeric: tabular-nums" fill="#898781">06-30</text>
<text x="192.5" y="322" text-anchor="middle" font-family='system-ui, -apple-system, "Segoe UI", sans-serif' font-size="11" style="font-variant-numeric: tabular-nums" fill="#898781">07-02</text>
<text x="321.1" y="322" text-anchor="middle" font-family='system-ui, -apple-system, "Segoe UI", sans-serif' font-size="11" style="font-variant-numeric: tabular-nums" fill="#898781">07-04</text>
<text x="508.0" y="322" text-anchor="middle" font-family='system-ui, -apple-system, "Segoe UI", sans-serif' font-size="11" style="font-variant-numeric: tabular-nums" fill="#898781">07-07</text>
<text x="624.8" y="322" text-anchor="middle" font-family='system-ui, -apple-system, "Segoe UI", sans-serif' font-size="11" style="font-variant-numeric: tabular-nums" fill="#898781">07-09</text>
<text x="718.3" y="322" text-anchor="middle" font-family='system-ui, -apple-system, "Segoe UI", sans-serif' font-size="11" style="font-variant-numeric: tabular-nums" fill="#898781">07-11</text>
<path d="M64.0,72.9 L75.7,73.0 L87.4,80.1 L99.1,80.1 L110.7,94.2 L122.4,108.6 L134.1,108.6 L145.8,105.1 L157.5,105.4 L169.2,105.7 L180.8,105.7 L192.5,105.6 L204.2,105.5 L215.9,105.5 L227.6,105.5 L239.3,105.5" fill="none" stroke="#3987e5" stroke-width="2" stroke-linejoin="round" stroke-linecap="round"/>
<path d="M262.6,105.7 L274.3,122.6 L286.0,122.6 L297.7,125.2 L309.4,125.0 L321.1,125.0 L332.7,125.0 L344.4,125.0 L356.1,125.0 L367.8,125.0 L379.5,124.3 L391.2,124.3 L402.8,124.3 L414.5,124.3 L426.2,124.3 L437.9,124.5 L449.6,124.5 L461.3,124.5 L472.9,127.9 L484.6,127.9 L496.3,127.9 L508.0,127.9 L519.7,127.9 L531.4,127.9 L543.1,127.9 L554.7,127.9 L566.4,127.9 L578.1,127.9 L589.8,127.9 L601.5,127.9 L613.2,127.9 L624.8,127.9 L636.5,127.9 L648.2,128.8 L659.9,128.8 L671.6,128.8 L683.3,128.2 L694.9,132.1 L706.6,132.1 L718.3,131.7 L730.0,135.3" fill="none" stroke="#3987e5" stroke-width="2" stroke-linejoin="round" stroke-linecap="round"/>
<circle cx="730.0" cy="135.3" r="6" fill="#1a1a19"/>
<circle cx="730.0" cy="135.3" r="4" fill="#3987e5"/>
<path d="M64.0,98.8 L75.7,98.9 L87.4,98.2 L99.1,98.2 L110.7,107.4 L122.4,120.8 L134.1,120.7 L145.8,117.1 L157.5,117.4 L169.2,117.8 L180.8,117.7 L192.5,117.7 L204.2,117.5 L215.9,117.7 L227.6,117.7 L239.3,117.7" fill="none" stroke="#199e70" stroke-width="2" stroke-linejoin="round" stroke-linecap="round"/>
<path d="M262.6,117.8 L274.3,134.9 L286.0,134.9 L297.7,136.9 L309.4,136.6 L321.1,136.6 L332.7,136.6 L344.4,136.6 L356.1,136.6 L367.8,136.6 L379.5,135.8 L391.2,135.8 L402.8,135.8 L414.5,135.8 L426.2,135.8 L437.9,136.0 L449.6,136.0 L461.3,136.0 L472.9,139.7 L484.6,139.7 L496.3,139.6 L508.0,139.6 L519.7,139.6 L531.4,139.6 L543.1,139.6 L554.7,139.6 L566.4,139.6 L578.1,139.6 L589.8,139.6 L601.5,139.6 L613.2,139.6 L624.8,139.6 L636.5,139.6 L648.2,140.5 L659.9,140.5 L671.6,140.5 L683.3,139.8 L694.9,143.5 L706.6,143.5 L718.3,143.5 L730.0,147.1" fill="none" stroke="#199e70" stroke-width="2" stroke-linejoin="round" stroke-linecap="round"/>
<circle cx="730.0" cy="147.1" r="6" fill="#1a1a19"/>
<circle cx="730.0" cy="147.1" r="4" fill="#199e70"/>
<path d="M64.0,83.1 L75.7,83.1 L87.4,82.4 L99.1,82.4 L110.7,95.7 L122.4,110.0 L134.1,109.9 L145.8,106.6 L157.5,106.9 L169.2,107.2 L180.8,107.2 L192.5,107.0 L204.2,107.1 L215.9,107.1 L227.6,107.1 L239.3,107.1" fill="none" stroke="#c98500" stroke-width="2" stroke-linejoin="round" stroke-linecap="round"/>
<path d="M262.6,107.2 L274.3,125.6 L286.0,125.6 L297.7,127.5 L309.4,127.3 L321.1,127.3 L332.7,127.3 L344.4,127.3 L356.1,127.3 L367.8,127.5 L379.5,126.6 L391.2,126.3 L402.8,126.3 L414.5,126.3 L426.2,126.3 L437.9,126.9 L449.6,126.9 L461.3,126.8 L472.9,130.5 L484.6,130.5 L496.3,130.3 L508.0,130.3 L519.7,130.4 L531.4,130.4 L543.1,130.4 L554.7,130.4 L566.4,130.4 L578.1,130.4 L589.8,130.4 L601.5,130.4 L613.2,130.4 L624.8,130.4 L636.5,130.4 L648.2,131.3 L659.9,131.4 L671.6,131.4 L683.3,130.7 L694.9,133.9 L706.6,133.9 L718.3,133.9 L730.0,137.8" fill="none" stroke="#c98500" stroke-width="2" stroke-linejoin="round" stroke-linecap="round"/>
<circle cx="730.0" cy="137.8" r="6" fill="#1a1a19"/>
<circle cx="730.0" cy="137.8" r="4" fill="#c98500"/>
<path d="M64.0,56.6 L75.7,56.6 L87.4,56.0 L99.1,56.0 L110.7,65.0 L122.4,82.2 L134.1,82.1 L145.8,78.6 L157.5,78.8 L169.2,79.3 L180.8,79.3 L192.5,79.2 L204.2,79.1 L215.9,79.2 L227.6,79.2 L239.3,79.2" fill="none" stroke="#008300" stroke-width="2" stroke-linejoin="round" stroke-linecap="round"/>
<path d="M262.6,79.2 L274.3,97.8 L286.0,97.8 L297.7,99.5 L309.4,99.2 L321.1,99.2 L332.7,99.2 L344.4,99.2 L356.1,99.2 L367.8,99.4 L379.5,98.8 L391.2,98.6 L402.8,98.6 L414.5,98.6 L426.2,98.6 L437.9,98.9 L449.6,98.9 L461.3,98.9 L472.9,102.4 L484.6,102.4 L496.3,102.3 L508.0,102.3 L519.7,102.4 L531.4,102.4 L543.1,102.4 L554.7,102.4 L566.4,102.4 L578.1,102.4 L589.8,102.4 L601.5,102.4 L613.2,102.4 L624.8,102.4 L636.5,102.4 L648.2,103.3 L659.9,103.3 L671.6,103.3 L683.3,102.7 L694.9,106.1 L706.6,106.1 L718.3,106.1 L730.0,109.4" fill="none" stroke="#008300" stroke-width="2" stroke-linejoin="round" stroke-linecap="round"/>
<circle cx="730.0" cy="109.4" r="6" fill="#1a1a19"/>
<circle cx="730.0" cy="109.4" r="4" fill="#008300"/>
<path d="M64.0,222.5 L75.7,222.4 L87.4,222.5 L99.1,222.5 L110.7,229.0 L122.4,236.2 L134.1,236.1 L145.8,234.3 L157.5,234.3 L169.2,234.5 L180.8,234.5 L192.5,234.7 L204.2,234.7 L215.9,234.6 L227.6,234.6 L239.3,234.6" fill="none" stroke="#9085e9" stroke-width="2" stroke-linejoin="round" stroke-linecap="round"/>
<path d="M262.6,234.6 L274.3,240.3 L286.0,240.3 L297.7,240.1 L309.4,239.7 L321.1,239.7 L332.7,239.7 L344.4,239.7 L356.1,239.7 L367.8,239.6 L379.5,239.1 L391.2,239.1 L402.8,239.1 L414.5,239.1 L426.2,239.1 L437.9,239.2 L449.6,239.2 L461.3,239.2 L472.9,239.1 L484.6,239.1 L496.3,239.0 L508.0,239.0 L519.7,239.1 L531.4,239.1 L543.1,239.1 L554.7,239.1 L566.4,239.1 L578.1,239.1 L589.8,239.1 L601.5,239.1 L613.2,239.1 L624.8,239.1 L636.5,239.0 L648.2,239.5 L659.9,239.6 L671.6,239.6 L683.3,239.4 L694.9,241.0 L706.6,241.1 L718.3,241.1 L730.0,244.4" fill="none" stroke="#9085e9" stroke-width="2" stroke-linejoin="round" stroke-linecap="round"/>
<circle cx="730.0" cy="244.4" r="6" fill="#1a1a19"/>
<circle cx="730.0" cy="244.4" r="4" fill="#9085e9"/>
<circle cx="745.0" cy="105.9" r="3.5" fill="#008300"/>
<text x="753.0" y="109.4" font-family='system-ui, -apple-system, "Segoe UI", sans-serif' font-size="11" fill="#ffffff">reverb</text>
<text x="753.0" y="121.4" font-family='system-ui, -apple-system, "Segoe UI", sans-serif' font-size="10" style="font-variant-numeric: tabular-nums" fill="#c3c2b7">50.5M</text>
<circle cx="745.0" cy="133.9" r="3.5" fill="#3987e5"/>
<text x="753.0" y="137.4" font-family='system-ui, -apple-system, "Segoe UI", sans-serif' font-size="11" fill="#ffffff">auto-filter</text>
<text x="753.0" y="149.4" font-family='system-ui, -apple-system, "Segoe UI", sans-serif' font-size="10" style="font-variant-numeric: tabular-nums" fill="#c3c2b7">43.9M</text>
<line x1="736.0" y1="137.8" x2="740.0" y2="165.4" stroke="#383835" stroke-width="1"/>
<circle cx="745.0" cy="161.9" r="3.5" fill="#c98500"/>
<text x="753.0" y="165.4" font-family='system-ui, -apple-system, "Segoe UI", sans-serif' font-size="11" fill="#ffffff">echo</text>
<text x="753.0" y="177.4" font-family='system-ui, -apple-system, "Segoe UI", sans-serif' font-size="10" style="font-variant-numeric: tabular-nums" fill="#c3c2b7">43.2M</text>
<line x1="736.0" y1="147.1" x2="740.0" y2="193.4" stroke="#383835" stroke-width="1"/>
<circle cx="745.0" cy="189.9" r="3.5" fill="#199e70"/>
<text x="753.0" y="193.4" font-family='system-ui, -apple-system, "Segoe UI", sans-serif' font-size="11" fill="#ffffff">autotune</text>
<text x="753.0" y="205.4" font-family='system-ui, -apple-system, "Segoe UI", sans-serif' font-size="10" style="font-variant-numeric: tabular-nums" fill="#c3c2b7">40.9M</text>
<circle cx="745.0" cy="240.9" r="3.5" fill="#9085e9"/>
<text x="753.0" y="244.4" font-family='system-ui, -apple-system, "Segoe UI", sans-serif' font-size="11" fill="#ffffff">sampler-arp</text>
<text x="753.0" y="256.4" font-family='system-ui, -apple-system, "Segoe UI", sans-serif' font-size="10" style="font-variant-numeric: tabular-nums" fill="#c3c2b7">15.8M</text>
</svg>