<svg xmlns="http://www.w3.org/2000/svg" width="880" height="340" viewBox="0 0 880 340" role="img" aria-label="Whole-instrument render cost">
<rect width="880" height="340" rx="6" fill="#1a1a19"/>
<text x="64" y="24" font-family='system-ui, -apple-system, "Segoe UI", sans-serif' font-size="14" font-weight="600" fill="#ffffff">Whole-instrument render cost</text>
<text x="64" y="41" font-family='system-ui, -apple-system, "Segoe UI", sans-serif' font-size="11" fill="#c3c2b7">render_block of 1 s of audio - callgrind instructions (Ir), per dev commit, 2026-07-12 to 2026-07-23</text>
<line x1="64" y1="306.0" x2="730" y2="306.0" stroke="#2c2c2a" stroke-width="1"/>
<text x="56" y="309.5" text-anchor="end" font-family='system-ui, -apple-system, "Segoe UI", sans-serif' font-size="11" style="font-variant-numeric: tabular-nums" fill="#898781">0</text>
<line x1="64" y1="207.1" x2="730" y2="207.1" stroke="#2c2c2a" stroke-width="1"/>
<text x="56" y="210.6" text-anchor="end" font-family='system-ui, -apple-system, "Segoe UI", sans-serif' font-size="11" style="font-variant-numeric: tabular-nums" fill="#898781">20</text>
<line x1="64" y1="108.2" x2="730" y2="108.2" stroke="#2c2c2a" stroke-width="1"/>
<text x="56" y="111.7" text-anchor="end" font-family='system-ui, -apple-system, "Segoe UI", sans-serif' font-size="11" style="font-variant-numeric: tabular-nums" fill="#898781">40</text>
<text x="56" y="46" text-anchor="end" font-family='system-ui, -apple-system, "Segoe UI", sans-serif' font-size="10" fill="#898781">Ir (M)</text>
<line x1="64" y1="306" x2="730" y2="306" stroke="#383835" stroke-width="1"/>
<text x="64.0" y="322" text-anchor="middle" font-family='system-ui, -apple-system, "Segoe UI", sans-serif' font-size="11" style="font-variant-numeric: tabular-nums" fill="#898781">07-12</text>
<text x="134.6" y="322" text-anchor="middle" font-family='system-ui, -apple-system, "Segoe UI", sans-serif' font-size="11" style="font-variant-numeric: tabular-nums" fill="#898781">07-14</text>
<text x="225.5" y="322" text-anchor="middle" font-family='system-ui, -apple-system, "Segoe UI", sans-serif' font-size="11" style="font-variant-numeric: tabular-nums" fill="#898781">07-17</text>
<text x="346.5" y="322" text-anchor="middle" font-family='system-ui, -apple-system, "Segoe UI", sans-serif' font-size="11" style="font-variant-numeric: tabular-nums" fill="#898781">07-19</text>
<text x="528.2" y="322" text-anchor="middle" font-family='system-ui, -apple-system, "Segoe UI", sans-serif' font-size="11" style="font-variant-numeric: tabular-nums" fill="#898781">07-21</text>
<text x="719.9" y="322" text-anchor="middle" font-family='system-ui, -apple-system, "Segoe UI", sans-serif' font-size="11" style="font-variant-numeric: tabular-nums" fill="#898781">07-23</text>
<path d="M64.0,88.9 L74.1,88.9 L84.2,88.9 L94.3,88.9 L104.4,88.9 L114.5,88.9 L124.5,88.9 L134.6,88.9 L144.7,88.9 L154.8,88.9 L164.9,88.9 L175.0,88.9 L185.1,88.9 L195.2,88.9 L205.3,88.9 L215.4,88.9 L225.5,88.9 L235.5,88.9 L245.6,88.9 L255.7,88.9 L265.8,88.9 L275.9,88.9 L286.0,88.9 L296.1,88.9 L306.2,88.9 L316.3,88.9 L326.4,88.9 L336.5,88.9 L346.5,89.0 L356.6,89.0 L366.7,89.0 L376.8,89.0 L386.9,89.0 L397.0,89.3 L407.1,89.3 L417.2,89.3 L427.3,89.3 L437.4,89.3 L447.5,89.3 L457.5,89.2 L467.6,89.2 L477.7,89.3 L487.8,89.3 L497.9,89.3 L508.0,89.3 L518.1,89.3 L528.2,89.3 L538.3,89.3 L548.4,89.3 L558.5,89.3 L568.5,120.2 L578.6,120.2 L588.7,120.2 L598.8,120.2 L608.9,120.2 L619.0,120.1 L629.1,120.1 L639.2,120.1 L649.3,120.1 L659.4,120.1 L669.5,120.1 L679.5,120.1 L689.6,120.1 L699.7,120.1 L709.8,120.1 L719.9,120.1 L730.0,120.1" fill="none" stroke="#3987e5" stroke-width="2" stroke-linejoin="round" stroke-linecap="round"/>
<circle cx="730.0" cy="120.1" r="6" fill="#1a1a19"/>
<circle cx="730.0" cy="120.1" r="4" fill="#3987e5"/>
<path d="M64.0,103.9 L74.1,103.9 L84.2,103.9 L94.3,103.9 L104.4,103.9 L114.5,103.9 L124.5,103.8 L134.6,103.8 L144.7,103.8 L154.8,103.8 L164.9,103.8 L175.0,103.8 L185.1,103.8 L195.2,103.8 L205.3,103.9 L215.4,103.9 L225.5,103.9 L235.5,103.9 L245.6,103.9 L255.7,103.9 L265.8,103.9 L275.9,103.9 L286.0,103.9 L296.1,103.9 L306.2,103.9 L316.3,103.9 L326.4,103.9 L336.5,103.9 L346.5,103.9 L356.6,103.9 L366.7,103.9 L376.8,103.9 L386.9,103.9 L397.0,104.2 L407.1,104.2 L417.2,104.2 L427.3,104.2 L437.4,104.1 L447.5,104.1 L457.5,104.2 L467.6,104.2 L477.7,104.2 L487.8,104.2 L497.9,104.2 L508.0,104.2 L518.1,104.2 L528.2,104.2 L538.3,104.2 L548.4,104.2 L558.5,104.2 L568.5,131.8 L578.6,131.8 L588.7,131.8 L598.8,131.8 L608.9,131.8 L619.0,131.8 L629.1,132.0 L639.2,132.0 L649.3,132.0 L659.4,132.0 L669.5,132.0 L679.5,132.0 L689.6,132.0 L699.7,132.0 L709.8,132.0 L719.9,132.0 L730.0,132.0" fill="none" stroke="#199e70" stroke-width="2" stroke-linejoin="round" stroke-linecap="round"/>
<circle cx="730.0" cy="132.0" r="6" fill="#1a1a19"/>
<circle cx="730.0" cy="132.0" r="4" fill="#199e70"/>
<path d="M64.0,92.1 L74.1,92.1 L84.2,92.1 L94.3,92.1 L104.4,92.1 L114.5,92.1 L124.5,92.1 L134.6,92.1 L144.7,92.1 L154.8,92.1 L164.9,92.1 L175.0,92.1 L185.1,92.1 L195.2,92.1 L205.3,92.1 L215.4,92.1 L225.5,92.1 L235.5,92.1 L245.6,92.1 L255.7,92.1 L265.8,92.1 L275.9,92.1 L286.0,92.1 L296.1,92.1 L306.2,92.1 L316.3,92.1 L326.4,92.1 L336.5,92.1 L346.5,92.1 L356.6,92.1 L366.7,92.1 L376.8,92.1 L386.9,92.1 L397.0,92.4 L407.1,92.4 L417.2,92.4 L427.3,92.4 L437.4,92.4 L447.5,92.4 L457.5,92.3 L467.6,92.3 L477.7,92.4 L487.8,92.4 L497.9,92.4 L508.0,92.4 L518.1,92.4 L528.2,92.4 L538.3,92.4 L548.4,92.4 L558.5,92.4 L568.5,120.0 L578.6,119.9 L588.7,119.9 L598.8,119.9 L608.9,119.9 L619.0,120.0 L629.1,120.0 L639.2,120.0 L649.3,120.0 L659.4,120.0 L669.5,120.0 L679.5,120.0 L689.6,120.0 L699.7,120.0 L709.8,120.0 L719.9,120.0 L730.0,120.0" fill="none" stroke="#c98500" stroke-width="2" stroke-linejoin="round" stroke-linecap="round"/>
<circle cx="730.0" cy="120.0" r="6" fill="#1a1a19"/>
<circle cx="730.0" cy="120.0" r="4" fill="#c98500"/>
<path d="M64.0,56.0 L74.1,56.0 L84.2,56.0 L94.3,56.0 L104.4,56.0 L114.5,56.0 L124.5,56.0 L134.6,56.0 L144.7,56.0 L154.8,56.0 L164.9,56.0 L175.0,56.0 L185.1,56.0 L195.2,56.0 L205.3,56.0 L215.4,56.0 L225.5,56.0 L235.5,56.0 L245.6,56.0 L255.7,56.0 L265.8,56.0 L275.9,56.0 L286.0,56.0 L296.1,56.0 L306.2,56.0 L316.3,56.0 L326.4,56.0 L336.5,56.0 L346.5,56.0 L356.6,56.0 L366.7,56.0 L376.8,56.0 L386.9,56.0 L397.0,56.3 L407.1,56.3 L417.2,56.3 L427.3,56.3 L437.4,56.3 L447.5,56.3 L457.5,56.2 L467.6,56.2 L477.7,56.3 L487.8,56.3 L497.9,56.3 L508.0,56.3 L518.1,56.3 L528.2,56.3 L538.3,56.3 L548.4,56.3 L558.5,56.3 L568.5,83.9 L578.6,83.9 L588.7,83.9 L598.8,83.9 L608.9,83.9 L619.0,83.9 L629.1,83.8 L639.2,83.8 L649.3,83.8 L659.4,83.8 L669.5,83.8 L679.5,83.8 L689.6,83.8 L699.7,83.8 L709.8,83.8 L719.9,83.8 L730.0,83.8" fill="none" stroke="#008300" stroke-width="2" stroke-linejoin="round" stroke-linecap="round"/>
<circle cx="730.0" cy="83.8" r="6" fill="#1a1a19"/>
<circle cx="730.0" cy="83.8" r="4" fill="#008300"/>
<path d="M64.0,227.6 L74.1,227.6 L84.2,227.6 L94.3,227.6 L104.4,227.6 L114.5,227.6 L124.5,227.6 L134.6,227.6 L144.7,227.6 L154.8,227.6 L164.9,227.6 L175.0,227.6 L185.1,227.6 L195.2,227.6 L205.3,227.6 L215.4,227.6 L225.5,227.6 L235.5,227.6 L245.6,227.6 L255.7,227.6 L265.8,227.6 L275.9,227.6 L286.0,227.6 L296.1,227.6 L306.2,227.6 L316.3,227.6 L326.4,227.6 L336.5,227.6 L346.5,227.6 L356.6,227.6 L366.7,227.6 L376.8,227.6 L386.9,227.6 L397.0,227.8 L407.1,227.8 L417.2,227.8 L427.3,227.8 L437.4,227.7 L447.5,227.7 L457.5,227.8 L467.6,227.8 L477.7,227.7 L487.8,227.7 L497.9,227.7 L508.0,227.7 L518.1,227.7 L528.2,227.7 L538.3,227.7 L548.4,227.7 L558.5,227.7 L568.5,227.7 L578.6,227.7 L588.7,227.7 L598.8,227.7 L608.9,227.7 L619.0,227.7 L629.1,227.8 L639.2,227.8 L649.3,227.8 L659.4,227.8 L669.5,227.8 L679.5,227.8 L689.6,227.8 L699.7,227.8 L709.8,227.8 L719.9,227.8 L730.0,227.8" fill="none" stroke="#9085e9" stroke-width="2" stroke-linejoin="round" stroke-linecap="round"/>
<circle cx="730.0" cy="227.8" r="6" fill="#1a1a19"/>
<circle cx="730.0" cy="227.8" r="4" fill="#9085e9"/>
<circle cx="745.0" cy="80.3" r="3.5" fill="#008300"/>
<text x="753.0" y="83.8" font-family='system-ui, -apple-system, "Segoe UI", sans-serif' font-size="11" fill="#ffffff">reverb</text>
<text x="753.0" y="95.8" font-family='system-ui, -apple-system, "Segoe UI", sans-serif' font-size="10" style="font-variant-numeric: tabular-nums" fill="#c3c2b7">44.9M</text>
<circle cx="745.0" cy="116.5" r="3.5" fill="#c98500"/>
<text x="753.0" y="120.0" font-family='system-ui, -apple-system, "Segoe UI", sans-serif' font-size="11" fill="#ffffff">echo</text>
<text x="753.0" y="132.0" font-family='system-ui, -apple-system, "Segoe UI", sans-serif' font-size="10" style="font-variant-numeric: tabular-nums" fill="#c3c2b7">37.6M</text>
<line x1="736.0" y1="120.1" x2="740.0" y2="148.0" stroke="#383835" stroke-width="1"/>
<circle cx="745.0" cy="144.5" r="3.5" fill="#3987e5"/>
<text x="753.0" y="148.0" font-family='system-ui, -apple-system, "Segoe UI", sans-serif' font-size="11" fill="#ffffff">auto-filter</text>
<text x="753.0" y="160.0" font-family='system-ui, -apple-system, "Segoe UI", sans-serif' font-size="10" style="font-variant-numeric: tabular-nums" fill="#c3c2b7">37.6M</text>
<line x1="736.0" y1="132.0" x2="740.0" y2="176.0" stroke="#383835" stroke-width="1"/>
<circle cx="745.0" cy="172.5" r="3.5" fill="#199e70"/>
<text x="753.0" y="176.0" font-family='system-ui, -apple-system, "Segoe UI", sans-serif' font-size="11" fill="#ffffff">autotune</text>
<text x="753.0" y="188.0" font-family='system-ui, -apple-system, "Segoe UI", sans-serif' font-size="10" style="font-variant-numeric: tabular-nums" fill="#c3c2b7">35.2M</text>
<circle cx="745.0" cy="224.3" r="3.5" fill="#9085e9"/>
<text x="753.0" y="227.8" font-family='system-ui, -apple-system, "Segoe UI", sans-serif' font-size="11" fill="#ffffff">sampler-arp</text>
<text x="753.0" y="239.8" font-family='system-ui, -apple-system, "Segoe UI", sans-serif' font-size="10" style="font-variant-numeric: tabular-nums" fill="#c3c2b7">15.8M</text>
</svg>