<svg xmlns="http://www.w3.org/2000/svg" width="880" height="340" viewBox="0 0 880 340" role="img" aria-label="Whole-instrument render cost">
<rect width="880" height="340" rx="6" fill="#fcfcfb"/>
<text x="64" y="24" font-family='system-ui, -apple-system, "Segoe UI", sans-serif' font-size="14" font-weight="600" fill="#0b0b0b">Whole-instrument render cost</text>
<text x="64" y="41" font-family='system-ui, -apple-system, "Segoe UI", sans-serif' font-size="11" fill="#52514e">render_block of 1 s of audio - callgrind instructions (Ir), per main commit, 2026-06-28 to 2026-07-05</text>
<line x1="64" y1="306.0" x2="730" y2="306.0" stroke="#e1e0d9" stroke-width="1"/>
<text x="56" y="309.5" text-anchor="end" font-family='system-ui, -apple-system, "Segoe UI", sans-serif' font-size="11" style="font-variant-numeric: tabular-nums" fill="#898781">0</text>
<line x1="64" y1="228.2" x2="730" y2="228.2" stroke="#e1e0d9" stroke-width="1"/>
<text x="56" y="231.7" text-anchor="end" font-family='system-ui, -apple-system, "Segoe UI", sans-serif' font-size="11" style="font-variant-numeric: tabular-nums" fill="#898781">20</text>
<line x1="64" y1="150.4" x2="730" y2="150.4" stroke="#e1e0d9" stroke-width="1"/>
<text x="56" y="153.9" text-anchor="end" font-family='system-ui, -apple-system, "Segoe UI", sans-serif' font-size="11" style="font-variant-numeric: tabular-nums" fill="#898781">40</text>
<line x1="64" y1="72.6" x2="730" y2="72.6" stroke="#e1e0d9" stroke-width="1"/>
<text x="56" y="76.1" text-anchor="end" font-family='system-ui, -apple-system, "Segoe UI", sans-serif' font-size="11" style="font-variant-numeric: tabular-nums" fill="#898781">60</text>
<text x="56" y="46" text-anchor="end" font-family='system-ui, -apple-system, "Segoe UI", sans-serif' font-size="10" fill="#898781">Ir (M)</text>
<line x1="64" y1="306" x2="730" y2="306" stroke="#c3c2b7" stroke-width="1"/>
<text x="64.0" y="322" text-anchor="middle" font-family='system-ui, -apple-system, "Segoe UI", sans-serif' font-size="11" style="font-variant-numeric: tabular-nums" fill="#898781">06-28</text>
<text x="102.1" y="322" text-anchor="middle" font-family='system-ui, -apple-system, "Segoe UI", sans-serif' font-size="11" style="font-variant-numeric: tabular-nums" fill="#898781">06-29</text>
<text x="178.2" y="322" text-anchor="middle" font-family='system-ui, -apple-system, "Segoe UI", sans-serif' font-size="11" style="font-variant-numeric: tabular-nums" fill="#898781">06-30</text>
<text x="235.3" y="322" text-anchor="middle" font-family='system-ui, -apple-system, "Segoe UI", sans-serif' font-size="11" style="font-variant-numeric: tabular-nums" fill="#898781">07-01</text>
<text x="273.3" y="322" text-anchor="middle" font-family='system-ui, -apple-system, "Segoe UI", sans-serif' font-size="11" style="font-variant-numeric: tabular-nums" fill="#898781">07-02</text>
<text x="406.5" y="322" text-anchor="middle" font-family='system-ui, -apple-system, "Segoe UI", sans-serif' font-size="11" style="font-variant-numeric: tabular-nums" fill="#898781">07-03</text>
<text x="482.6" y="322" text-anchor="middle" font-family='system-ui, -apple-system, "Segoe UI", sans-serif' font-size="11" style="font-variant-numeric: tabular-nums" fill="#898781">07-04</text>
<text x="634.9" y="322" text-anchor="middle" font-family='system-ui, -apple-system, "Segoe UI", sans-serif' font-size="11" style="font-variant-numeric: tabular-nums" fill="#898781">07-05</text>
<path d="M64.0,72.9 L83.0,73.0 L102.1,80.1 L121.1,80.1 L140.1,94.2 L159.1,108.6 L178.2,108.6 L197.2,105.1 L216.2,105.4 L235.3,105.7 L254.3,105.7 L273.3,105.6 L292.3,105.5 L311.4,105.5 L330.4,105.5 L349.4,105.5" fill="none" stroke="#2a78d6" stroke-width="2" stroke-linejoin="round" stroke-linecap="round"/>
<path d="M387.5,105.7 L406.5,122.6 L425.5,122.6 L444.6,125.2 L463.6,125.0 L482.6,125.0 L501.7,125.0 L520.7,125.0 L539.7,125.0 L558.7,125.0 L577.8,124.3 L596.8,124.3 L615.8,124.3 L634.9,124.3 L653.9,124.3 L672.9,124.5 L691.9,124.5 L711.0,124.5 L730.0,127.9" fill="none" stroke="#2a78d6" stroke-width="2" stroke-linejoin="round" stroke-linecap="round"/>
<circle cx="730.0" cy="127.9" r="6" fill="#fcfcfb"/>
<circle cx="730.0" cy="127.9" r="4" fill="#2a78d6"/>
<path d="M64.0,98.8 L83.0,98.9 L102.1,98.2 L121.1,98.2 L140.1,107.4 L159.1,120.8 L178.2,120.7 L197.2,117.1 L216.2,117.4 L235.3,117.8 L254.3,117.7 L273.3,117.7 L292.3,117.5 L311.4,117.7 L330.4,117.7 L349.4,117.7" fill="none" stroke="#1baf7a" stroke-width="2" stroke-linejoin="round" stroke-linecap="round"/>
<path d="M387.5,117.8 L406.5,134.9 L425.5,134.9 L444.6,136.9 L463.6,136.6 L482.6,136.6 L501.7,136.6 L520.7,136.6 L539.7,136.6 L558.7,136.6 L577.8,135.8 L596.8,135.8 L615.8,135.8 L634.9,135.8 L653.9,135.8 L672.9,136.0 L691.9,136.0 L711.0,136.0 L730.0,139.7" fill="none" stroke="#1baf7a" stroke-width="2" stroke-linejoin="round" stroke-linecap="round"/>
<circle cx="730.0" cy="139.7" r="6" fill="#fcfcfb"/>
<circle cx="730.0" cy="139.7" r="4" fill="#1baf7a"/>
<path d="M64.0,83.1 L83.0,83.1 L102.1,82.4 L121.1,82.4 L140.1,95.7 L159.1,110.0 L178.2,109.9 L197.2,106.6 L216.2,106.9 L235.3,107.2 L254.3,107.2 L273.3,107.0 L292.3,107.1 L311.4,107.1 L330.4,107.1 L349.4,107.1" fill="none" stroke="#eda100" stroke-width="2" stroke-linejoin="round" stroke-linecap="round"/>
<path d="M387.5,107.2 L406.5,125.6 L425.5,125.6 L444.6,127.5 L463.6,127.3 L482.6,127.3 L501.7,127.3 L520.7,127.3 L539.7,127.3 L558.7,127.5 L577.8,126.6 L596.8,126.3 L615.8,126.3 L634.9,126.3 L653.9,126.3 L672.9,126.9 L691.9,126.9 L711.0,126.8 L730.0,130.5" fill="none" stroke="#eda100" stroke-width="2" stroke-linejoin="round" stroke-linecap="round"/>
<circle cx="730.0" cy="130.5" r="6" fill="#fcfcfb"/>
<circle cx="730.0" cy="130.5" r="4" fill="#eda100"/>
<path d="M64.0,56.6 L83.0,56.6 L102.1,56.0 L121.1,56.0 L140.1,65.0 L159.1,82.2 L178.2,82.1 L197.2,78.6 L216.2,78.8 L235.3,79.3 L254.3,79.3 L273.3,79.2 L292.3,79.1 L311.4,79.2 L330.4,79.2 L349.4,79.2" fill="none" stroke="#008300" stroke-width="2" stroke-linejoin="round" stroke-linecap="round"/>
<path d="M387.5,79.2 L406.5,97.8 L425.5,97.8 L444.6,99.5 L463.6,99.2 L482.6,99.2 L501.7,99.2 L520.7,99.2 L539.7,99.2 L558.7,99.4 L577.8,98.8 L596.8,98.6 L615.8,98.6 L634.9,98.6 L653.9,98.6 L672.9,98.9 L691.9,98.9 L711.0,98.9 L730.0,102.4" fill="none" stroke="#008300" stroke-width="2" stroke-linejoin="round" stroke-linecap="round"/>
<circle cx="730.0" cy="102.4" r="6" fill="#fcfcfb"/>
<circle cx="730.0" cy="102.4" r="4" fill="#008300"/>
<path d="M64.0,222.5 L83.0,222.4 L102.1,222.5 L121.1,222.5 L140.1,229.0 L159.1,236.2 L178.2,236.1 L197.2,234.3 L216.2,234.3 L235.3,234.5 L254.3,234.5 L273.3,234.7 L292.3,234.7 L311.4,234.6 L330.4,234.6 L349.4,234.6" fill="none" stroke="#4a3aa7" stroke-width="2" stroke-linejoin="round" stroke-linecap="round"/>
<path d="M387.5,234.6 L406.5,240.3 L425.5,240.3 L444.6,240.1 L463.6,239.7 L482.6,239.7 L501.7,239.7 L520.7,239.7 L539.7,239.7 L558.7,239.6 L577.8,239.1 L596.8,239.1 L615.8,239.1 L634.9,239.1 L653.9,239.1 L672.9,239.2 L691.9,239.2 L711.0,239.2 L730.0,239.1" fill="none" stroke="#4a3aa7" stroke-width="2" stroke-linejoin="round" stroke-linecap="round"/>
<circle cx="730.0" cy="239.1" r="6" fill="#fcfcfb"/>
<circle cx="730.0" cy="239.1" r="4" fill="#4a3aa7"/>
<circle cx="745.0" cy="98.9" r="3.5" fill="#008300"/>
<text x="753.0" y="102.4" font-family='system-ui, -apple-system, "Segoe UI", sans-serif' font-size="11" fill="#0b0b0b">reverb</text>
<text x="753.0" y="114.4" font-family='system-ui, -apple-system, "Segoe UI", sans-serif' font-size="10" style="font-variant-numeric: tabular-nums" fill="#52514e">52.3M</text>
<circle cx="745.0" cy="126.9" r="3.5" fill="#2a78d6"/>
<text x="753.0" y="130.4" font-family='system-ui, -apple-system, "Segoe UI", sans-serif' font-size="11" fill="#0b0b0b">auto-filter</text>
<text x="753.0" y="142.4" font-family='system-ui, -apple-system, "Segoe UI", sans-serif' font-size="10" style="font-variant-numeric: tabular-nums" fill="#52514e">45.8M</text>
<line x1="736.0" y1="130.5" x2="740.0" y2="158.4" stroke="#c3c2b7" stroke-width="1"/>
<circle cx="745.0" cy="154.9" r="3.5" fill="#eda100"/>
<text x="753.0" y="158.4" font-family='system-ui, -apple-system, "Segoe UI", sans-serif' font-size="11" fill="#0b0b0b">echo</text>
<text x="753.0" y="170.4" font-family='system-ui, -apple-system, "Segoe UI", sans-serif' font-size="10" style="font-variant-numeric: tabular-nums" fill="#52514e">45.1M</text>
<line x1="736.0" y1="139.7" x2="740.0" y2="186.4" stroke="#c3c2b7" stroke-width="1"/>
<circle cx="745.0" cy="182.9" r="3.5" fill="#1baf7a"/>
<text x="753.0" y="186.4" font-family='system-ui, -apple-system, "Segoe UI", sans-serif' font-size="11" fill="#0b0b0b">autotune</text>
<text x="753.0" y="198.4" font-family='system-ui, -apple-system, "Segoe UI", sans-serif' font-size="10" style="font-variant-numeric: tabular-nums" fill="#52514e">42.8M</text>
<circle cx="745.0" cy="235.6" r="3.5" fill="#4a3aa7"/>
<text x="753.0" y="239.1" font-family='system-ui, -apple-system, "Segoe UI", sans-serif' font-size="11" fill="#0b0b0b">sampler-arp</text>
<text x="753.0" y="251.1" font-family='system-ui, -apple-system, "Segoe UI", sans-serif' font-size="10" style="font-variant-numeric: tabular-nums" fill="#52514e">17.2M</text>
</svg>