<svg xmlns="http://www.w3.org/2000/svg" width="880" height="340" viewBox="0 0 880 340" role="img" aria-label="Whole-instrument render cost">
<rect width="880" height="340" rx="6" fill="#1a1a19"/>
<text x="64" y="24" font-family='system-ui, -apple-system, "Segoe UI", sans-serif' font-size="14" font-weight="600" fill="#ffffff">Whole-instrument render cost</text>
<text x="64" y="41" font-family='system-ui, -apple-system, "Segoe UI", sans-serif' font-size="11" fill="#c3c2b7">render_block of 1 s of audio - callgrind instructions (Ir), per dev commit, 2026-07-12 to 2026-07-20</text>
<line x1="64" y1="306.0" x2="730" y2="306.0" stroke="#2c2c2a" stroke-width="1"/>
<text x="56" y="309.5" text-anchor="end" font-family='system-ui, -apple-system, "Segoe UI", sans-serif' font-size="11" style="font-variant-numeric: tabular-nums" fill="#898781">0</text>
<line x1="64" y1="207.1" x2="730" y2="207.1" stroke="#2c2c2a" stroke-width="1"/>
<text x="56" y="210.6" text-anchor="end" font-family='system-ui, -apple-system, "Segoe UI", sans-serif' font-size="11" style="font-variant-numeric: tabular-nums" fill="#898781">20</text>
<line x1="64" y1="108.2" x2="730" y2="108.2" stroke="#2c2c2a" stroke-width="1"/>
<text x="56" y="111.7" text-anchor="end" font-family='system-ui, -apple-system, "Segoe UI", sans-serif' font-size="11" style="font-variant-numeric: tabular-nums" fill="#898781">40</text>
<text x="56" y="46" text-anchor="end" font-family='system-ui, -apple-system, "Segoe UI", sans-serif' font-size="10" fill="#898781">Ir (M)</text>
<line x1="64" y1="306" x2="730" y2="306" stroke="#383835" stroke-width="1"/>
<text x="64.0" y="322" text-anchor="middle" font-family='system-ui, -apple-system, "Segoe UI", sans-serif' font-size="11" style="font-variant-numeric: tabular-nums" fill="#898781">07-12</text>
<text x="152.8" y="322" text-anchor="middle" font-family='system-ui, -apple-system, "Segoe UI", sans-serif' font-size="11" style="font-variant-numeric: tabular-nums" fill="#898781">07-13</text>
<text x="167.6" y="322" text-anchor="middle" font-family='system-ui, -apple-system, "Segoe UI", sans-serif' font-size="11" style="font-variant-numeric: tabular-nums" fill="#898781">07-14</text>
<text x="182.4" y="322" text-anchor="middle" font-family='system-ui, -apple-system, "Segoe UI", sans-serif' font-size="11" style="font-variant-numeric: tabular-nums" fill="#898781">07-16</text>
<text x="300.8" y="322" text-anchor="middle" font-family='system-ui, -apple-system, "Segoe UI", sans-serif' font-size="11" style="font-variant-numeric: tabular-nums" fill="#898781">07-17</text>
<text x="389.6" y="322" text-anchor="middle" font-family='system-ui, -apple-system, "Segoe UI", sans-serif' font-size="11" style="font-variant-numeric: tabular-nums" fill="#898781">07-18</text>
<text x="478.4" y="322" text-anchor="middle" font-family='system-ui, -apple-system, "Segoe UI", sans-serif' font-size="11" style="font-variant-numeric: tabular-nums" fill="#898781">07-19</text>
<text x="522.8" y="322" text-anchor="middle" font-family='system-ui, -apple-system, "Segoe UI", sans-serif' font-size="11" style="font-variant-numeric: tabular-nums" fill="#898781">07-20</text>
<path d="M64.0,88.9 L78.8,88.9 L93.6,88.9 L108.4,88.9 L123.2,88.9 L138.0,88.9 L152.8,88.9 L167.6,88.9 L182.4,88.9 L197.2,88.9 L212.0,88.9 L226.8,88.9 L241.6,88.9 L256.4,88.9 L271.2,88.9 L286.0,88.9 L300.8,88.9 L315.6,88.9 L330.4,88.9 L345.2,88.9 L360.0,88.9 L374.8,88.9 L389.6,88.9 L404.4,88.9 L419.2,88.9 L434.0,88.9 L448.8,88.9 L463.6,88.9 L478.4,89.0 L493.2,89.0 L508.0,89.0 L522.8,89.0 L537.6,89.0 L552.4,89.3 L567.2,89.3 L582.0,89.3 L596.8,89.3 L611.6,89.3 L626.4,89.3 L641.2,89.2 L656.0,89.2 L670.8,89.3 L685.6,89.3 L700.4,89.3 L715.2,89.3 L730.0,89.3" fill="none" stroke="#3987e5" stroke-width="2" stroke-linejoin="round" stroke-linecap="round"/>
<circle cx="730.0" cy="89.3" r="6" fill="#1a1a19"/>
<circle cx="730.0" cy="89.3" r="4" fill="#3987e5"/>
<path d="M64.0,103.9 L78.8,103.9 L93.6,103.9 L108.4,103.9 L123.2,103.9 L138.0,103.9 L152.8,103.8 L167.6,103.8 L182.4,103.8 L197.2,103.8 L212.0,103.8 L226.8,103.8 L241.6,103.8 L256.4,103.8 L271.2,103.9 L286.0,103.9 L300.8,103.9 L315.6,103.9 L330.4,103.9 L345.2,103.9 L360.0,103.9 L374.8,103.9 L389.6,103.9 L404.4,103.9 L419.2,103.9 L434.0,103.9 L448.8,103.9 L463.6,103.9 L478.4,103.9 L493.2,103.9 L508.0,103.9 L522.8,103.9 L537.6,103.9 L552.4,104.2 L567.2,104.2 L582.0,104.2 L596.8,104.2 L611.6,104.1 L626.4,104.1 L641.2,104.2 L656.0,104.2 L670.8,104.2 L685.6,104.2 L700.4,104.2 L715.2,104.2 L730.0,104.2" fill="none" stroke="#199e70" stroke-width="2" stroke-linejoin="round" stroke-linecap="round"/>
<circle cx="730.0" cy="104.2" r="6" fill="#1a1a19"/>
<circle cx="730.0" cy="104.2" r="4" fill="#199e70"/>
<path d="M64.0,92.1 L78.8,92.1 L93.6,92.1 L108.4,92.1 L123.2,92.1 L138.0,92.1 L152.8,92.1 L167.6,92.1 L182.4,92.1 L197.2,92.1 L212.0,92.1 L226.8,92.1 L241.6,92.1 L256.4,92.1 L271.2,92.1 L286.0,92.1 L300.8,92.1 L315.6,92.1 L330.4,92.1 L345.2,92.1 L360.0,92.1 L374.8,92.1 L389.6,92.1 L404.4,92.1 L419.2,92.1 L434.0,92.1 L448.8,92.1 L463.6,92.1 L478.4,92.1 L493.2,92.1 L508.0,92.1 L522.8,92.1 L537.6,92.1 L552.4,92.4 L567.2,92.4 L582.0,92.4 L596.8,92.4 L611.6,92.4 L626.4,92.4 L641.2,92.3 L656.0,92.3 L670.8,92.4 L685.6,92.4 L700.4,92.4 L715.2,92.4 L730.0,92.4" fill="none" stroke="#c98500" stroke-width="2" stroke-linejoin="round" stroke-linecap="round"/>
<circle cx="730.0" cy="92.4" r="6" fill="#1a1a19"/>
<circle cx="730.0" cy="92.4" r="4" fill="#c98500"/>
<path d="M64.0,56.0 L78.8,56.0 L93.6,56.0 L108.4,56.0 L123.2,56.0 L138.0,56.0 L152.8,56.0 L167.6,56.0 L182.4,56.0 L197.2,56.0 L212.0,56.0 L226.8,56.0 L241.6,56.0 L256.4,56.0 L271.2,56.0 L286.0,56.0 L300.8,56.0 L315.6,56.0 L330.4,56.0 L345.2,56.0 L360.0,56.0 L374.8,56.0 L389.6,56.0 L404.4,56.0 L419.2,56.0 L434.0,56.0 L448.8,56.0 L463.6,56.0 L478.4,56.0 L493.2,56.0 L508.0,56.0 L522.8,56.0 L537.6,56.0 L552.4,56.3 L567.2,56.3 L582.0,56.3 L596.8,56.3 L611.6,56.3 L626.4,56.3 L641.2,56.2 L656.0,56.2 L670.8,56.3 L685.6,56.3 L700.4,56.3 L715.2,56.3 L730.0,56.3" fill="none" stroke="#008300" stroke-width="2" stroke-linejoin="round" stroke-linecap="round"/>
<circle cx="730.0" cy="56.3" r="6" fill="#1a1a19"/>
<circle cx="730.0" cy="56.3" r="4" fill="#008300"/>
<path d="M64.0,227.6 L78.8,227.6 L93.6,227.6 L108.4,227.6 L123.2,227.6 L138.0,227.6 L152.8,227.6 L167.6,227.6 L182.4,227.6 L197.2,227.6 L212.0,227.6 L226.8,227.6 L241.6,227.6 L256.4,227.6 L271.2,227.6 L286.0,227.6 L300.8,227.6 L315.6,227.6 L330.4,227.6 L345.2,227.6 L360.0,227.6 L374.8,227.6 L389.6,227.6 L404.4,227.6 L419.2,227.6 L434.0,227.6 L448.8,227.6 L463.6,227.6 L478.4,227.6 L493.2,227.6 L508.0,227.6 L522.8,227.6 L537.6,227.6 L552.4,227.8 L567.2,227.8 L582.0,227.8 L596.8,227.8 L611.6,227.7 L626.4,227.7 L641.2,227.8 L656.0,227.8 L670.8,227.7 L685.6,227.7 L700.4,227.7 L715.2,227.7 L730.0,227.7" fill="none" stroke="#9085e9" stroke-width="2" stroke-linejoin="round" stroke-linecap="round"/>
<circle cx="730.0" cy="227.7" r="6" fill="#1a1a19"/>
<circle cx="730.0" cy="227.7" r="4" fill="#9085e9"/>
<circle cx="745.0" cy="52.8" r="3.5" fill="#008300"/>
<text x="753.0" y="56.3" font-family='system-ui, -apple-system, "Segoe UI", sans-serif' font-size="11" fill="#ffffff">reverb</text>
<text x="753.0" y="68.3" font-family='system-ui, -apple-system, "Segoe UI", sans-serif' font-size="10" style="font-variant-numeric: tabular-nums" fill="#c3c2b7">50.5M</text>
<circle cx="745.0" cy="85.8" r="3.5" fill="#3987e5"/>
<text x="753.0" y="89.3" font-family='system-ui, -apple-system, "Segoe UI", sans-serif' font-size="11" fill="#ffffff">auto-filter</text>
<text x="753.0" y="101.3" font-family='system-ui, -apple-system, "Segoe UI", sans-serif' font-size="10" style="font-variant-numeric: tabular-nums" fill="#c3c2b7">43.8M</text>
<line x1="736.0" y1="92.4" x2="740.0" y2="117.3" stroke="#383835" stroke-width="1"/>
<circle cx="745.0" cy="113.8" r="3.5" fill="#c98500"/>
<text x="753.0" y="117.3" font-family='system-ui, -apple-system, "Segoe UI", sans-serif' font-size="11" fill="#ffffff">echo</text>
<text x="753.0" y="129.3" font-family='system-ui, -apple-system, "Segoe UI", sans-serif' font-size="10" style="font-variant-numeric: tabular-nums" fill="#c3c2b7">43.2M</text>
<line x1="736.0" y1="104.2" x2="740.0" y2="145.3" stroke="#383835" stroke-width="1"/>
<circle cx="745.0" cy="141.8" r="3.5" fill="#199e70"/>
<text x="753.0" y="145.3" font-family='system-ui, -apple-system, "Segoe UI", sans-serif' font-size="11" fill="#ffffff">autotune</text>
<text x="753.0" y="157.3" font-family='system-ui, -apple-system, "Segoe UI", sans-serif' font-size="10" style="font-variant-numeric: tabular-nums" fill="#c3c2b7">40.8M</text>
<circle cx="745.0" cy="224.2" r="3.5" fill="#9085e9"/>
<text x="753.0" y="227.7" font-family='system-ui, -apple-system, "Segoe UI", sans-serif' font-size="11" fill="#ffffff">sampler-arp</text>
<text x="753.0" y="239.7" font-family='system-ui, -apple-system, "Segoe UI", sans-serif' font-size="10" style="font-variant-numeric: tabular-nums" fill="#c3c2b7">15.8M</text>
</svg>