<svg xmlns="http://www.w3.org/2000/svg" width="880" height="340" viewBox="0 0 880 340" role="img" aria-label="Whole-instrument render cost">
<rect width="880" height="340" rx="6" fill="#1a1a19"/>
<text x="64" y="24" font-family='system-ui, -apple-system, "Segoe UI", sans-serif' font-size="14" font-weight="600" fill="#ffffff">Whole-instrument render cost</text>
<text x="64" y="41" font-family='system-ui, -apple-system, "Segoe UI", sans-serif' font-size="11" fill="#c3c2b7">render_block of 1 s of audio - callgrind instructions (Ir), per dev commit, 2026-07-12 to 2026-07-19</text>
<line x1="64" y1="306.0" x2="730" y2="306.0" stroke="#2c2c2a" stroke-width="1"/>
<text x="56" y="309.5" text-anchor="end" font-family='system-ui, -apple-system, "Segoe UI", sans-serif' font-size="11" style="font-variant-numeric: tabular-nums" fill="#898781">0</text>
<line x1="64" y1="207.1" x2="730" y2="207.1" stroke="#2c2c2a" stroke-width="1"/>
<text x="56" y="210.6" text-anchor="end" font-family='system-ui, -apple-system, "Segoe UI", sans-serif' font-size="11" style="font-variant-numeric: tabular-nums" fill="#898781">20</text>
<line x1="64" y1="108.2" x2="730" y2="108.2" stroke="#2c2c2a" stroke-width="1"/>
<text x="56" y="111.7" text-anchor="end" font-family='system-ui, -apple-system, "Segoe UI", sans-serif' font-size="11" style="font-variant-numeric: tabular-nums" fill="#898781">40</text>
<text x="56" y="46" text-anchor="end" font-family='system-ui, -apple-system, "Segoe UI", sans-serif' font-size="10" fill="#898781">Ir (M)</text>
<line x1="64" y1="306" x2="730" y2="306" stroke="#383835" stroke-width="1"/>
<text x="64.0" y="322" text-anchor="middle" font-family='system-ui, -apple-system, "Segoe UI", sans-serif' font-size="11" style="font-variant-numeric: tabular-nums" fill="#898781">07-12</text>
<text x="197.2" y="322" text-anchor="middle" font-family='system-ui, -apple-system, "Segoe UI", sans-serif' font-size="11" style="font-variant-numeric: tabular-nums" fill="#898781">07-13</text>
<text x="219.4" y="322" text-anchor="middle" font-family='system-ui, -apple-system, "Segoe UI", sans-serif' font-size="11" style="font-variant-numeric: tabular-nums" fill="#898781">07-14</text>
<text x="241.6" y="322" text-anchor="middle" font-family='system-ui, -apple-system, "Segoe UI", sans-serif' font-size="11" style="font-variant-numeric: tabular-nums" fill="#898781">07-16</text>
<text x="419.2" y="322" text-anchor="middle" font-family='system-ui, -apple-system, "Segoe UI", sans-serif' font-size="11" style="font-variant-numeric: tabular-nums" fill="#898781">07-17</text>
<text x="552.4" y="322" text-anchor="middle" font-family='system-ui, -apple-system, "Segoe UI", sans-serif' font-size="11" style="font-variant-numeric: tabular-nums" fill="#898781">07-18</text>
<text x="685.6" y="322" text-anchor="middle" font-family='system-ui, -apple-system, "Segoe UI", sans-serif' font-size="11" style="font-variant-numeric: tabular-nums" fill="#898781">07-19</text>
<path d="M64.0,88.9 L86.2,88.9 L108.4,88.9 L130.6,88.9 L152.8,88.9 L175.0,88.9 L197.2,88.9 L219.4,88.9 L241.6,88.9 L263.8,88.9 L286.0,88.9 L308.2,88.9 L330.4,88.9 L352.6,88.9 L374.8,88.9 L397.0,88.9 L419.2,88.9 L441.4,88.9 L463.6,88.9 L485.8,88.9 L508.0,88.9 L530.2,88.9 L552.4,88.9 L574.6,88.9 L596.8,88.9 L619.0,88.9 L641.2,88.9 L663.4,88.9 L685.6,89.0 L707.8,89.0 L730.0,89.0" fill="none" stroke="#3987e5" stroke-width="2" stroke-linejoin="round" stroke-linecap="round"/>
<circle cx="730.0" cy="89.0" r="6" fill="#1a1a19"/>
<circle cx="730.0" cy="89.0" r="4" fill="#3987e5"/>
<path d="M64.0,103.9 L86.2,103.9 L108.4,103.9 L130.6,103.9 L152.8,103.9 L175.0,103.9 L197.2,103.8 L219.4,103.8 L241.6,103.8 L263.8,103.8 L286.0,103.8 L308.2,103.8 L330.4,103.8 L352.6,103.8 L374.8,103.9 L397.0,103.9 L419.2,103.9 L441.4,103.9 L463.6,103.9 L485.8,103.9 L508.0,103.9 L530.2,103.9 L552.4,103.9 L574.6,103.9 L596.8,103.9 L619.0,103.9 L641.2,103.9 L663.4,103.9 L685.6,103.9 L707.8,103.9 L730.0,103.9" fill="none" stroke="#199e70" stroke-width="2" stroke-linejoin="round" stroke-linecap="round"/>
<circle cx="730.0" cy="103.9" r="6" fill="#1a1a19"/>
<circle cx="730.0" cy="103.9" r="4" fill="#199e70"/>
<path d="M64.0,92.1 L86.2,92.1 L108.4,92.1 L130.6,92.1 L152.8,92.1 L175.0,92.1 L197.2,92.1 L219.4,92.1 L241.6,92.1 L263.8,92.1 L286.0,92.1 L308.2,92.1 L330.4,92.1 L352.6,92.1 L374.8,92.1 L397.0,92.1 L419.2,92.1 L441.4,92.1 L463.6,92.1 L485.8,92.1 L508.0,92.1 L530.2,92.1 L552.4,92.1 L574.6,92.1 L596.8,92.1 L619.0,92.1 L641.2,92.1 L663.4,92.1 L685.6,92.1 L707.8,92.1 L730.0,92.1" fill="none" stroke="#c98500" stroke-width="2" stroke-linejoin="round" stroke-linecap="round"/>
<circle cx="730.0" cy="92.1" r="6" fill="#1a1a19"/>
<circle cx="730.0" cy="92.1" r="4" fill="#c98500"/>
<path d="M64.0,56.0 L86.2,56.0 L108.4,56.0 L130.6,56.0 L152.8,56.0 L175.0,56.0 L197.2,56.0 L219.4,56.0 L241.6,56.0 L263.8,56.0 L286.0,56.0 L308.2,56.0 L330.4,56.0 L352.6,56.0 L374.8,56.0 L397.0,56.0 L419.2,56.0 L441.4,56.0 L463.6,56.0 L485.8,56.0 L508.0,56.0 L530.2,56.0 L552.4,56.0 L574.6,56.0 L596.8,56.0 L619.0,56.0 L641.2,56.0 L663.4,56.0 L685.6,56.0 L707.8,56.0 L730.0,56.0" fill="none" stroke="#008300" stroke-width="2" stroke-linejoin="round" stroke-linecap="round"/>
<circle cx="730.0" cy="56.0" r="6" fill="#1a1a19"/>
<circle cx="730.0" cy="56.0" r="4" fill="#008300"/>
<path d="M64.0,227.6 L86.2,227.6 L108.4,227.6 L130.6,227.6 L152.8,227.6 L175.0,227.6 L197.2,227.6 L219.4,227.6 L241.6,227.6 L263.8,227.6 L286.0,227.6 L308.2,227.6 L330.4,227.6 L352.6,227.6 L374.8,227.6 L397.0,227.6 L419.2,227.6 L441.4,227.6 L463.6,227.6 L485.8,227.6 L508.0,227.6 L530.2,227.6 L552.4,227.6 L574.6,227.6 L596.8,227.6 L619.0,227.6 L641.2,227.6 L663.4,227.6 L685.6,227.6 L707.8,227.6 L730.0,227.6" fill="none" stroke="#9085e9" stroke-width="2" stroke-linejoin="round" stroke-linecap="round"/>
<circle cx="730.0" cy="227.6" r="6" fill="#1a1a19"/>
<circle cx="730.0" cy="227.6" r="4" fill="#9085e9"/>
<circle cx="745.0" cy="52.5" r="3.5" fill="#008300"/>
<text x="753.0" y="56.0" font-family='system-ui, -apple-system, "Segoe UI", sans-serif' font-size="11" fill="#ffffff">reverb</text>
<text x="753.0" y="68.0" font-family='system-ui, -apple-system, "Segoe UI", sans-serif' font-size="10" style="font-variant-numeric: tabular-nums" fill="#c3c2b7">50.5M</text>
<circle cx="745.0" cy="85.5" r="3.5" fill="#3987e5"/>
<text x="753.0" y="89.0" font-family='system-ui, -apple-system, "Segoe UI", sans-serif' font-size="11" fill="#ffffff">auto-filter</text>
<text x="753.0" y="101.0" font-family='system-ui, -apple-system, "Segoe UI", sans-serif' font-size="10" style="font-variant-numeric: tabular-nums" fill="#c3c2b7">43.9M</text>
<line x1="736.0" y1="92.1" x2="740.0" y2="117.0" stroke="#383835" stroke-width="1"/>
<circle cx="745.0" cy="113.5" r="3.5" fill="#c98500"/>
<text x="753.0" y="117.0" font-family='system-ui, -apple-system, "Segoe UI", sans-serif' font-size="11" fill="#ffffff">echo</text>
<text x="753.0" y="129.0" font-family='system-ui, -apple-system, "Segoe UI", sans-serif' font-size="10" style="font-variant-numeric: tabular-nums" fill="#c3c2b7">43.2M</text>
<line x1="736.0" y1="103.9" x2="740.0" y2="145.0" stroke="#383835" stroke-width="1"/>
<circle cx="745.0" cy="141.5" r="3.5" fill="#199e70"/>
<text x="753.0" y="145.0" font-family='system-ui, -apple-system, "Segoe UI", sans-serif' font-size="11" fill="#ffffff">autotune</text>
<text x="753.0" y="157.0" font-family='system-ui, -apple-system, "Segoe UI", sans-serif' font-size="10" style="font-variant-numeric: tabular-nums" fill="#c3c2b7">40.9M</text>
<circle cx="745.0" cy="224.1" r="3.5" fill="#9085e9"/>
<text x="753.0" y="227.6" font-family='system-ui, -apple-system, "Segoe UI", sans-serif' font-size="11" fill="#ffffff">sampler-arp</text>
<text x="753.0" y="239.6" font-family='system-ui, -apple-system, "Segoe UI", sans-serif' font-size="10" style="font-variant-numeric: tabular-nums" fill="#c3c2b7">15.8M</text>
</svg>