<svg xmlns="http://www.w3.org/2000/svg" width="880" height="340" viewBox="0 0 880 340" role="img" aria-label="Whole-instrument render cost">
<rect width="880" height="340" rx="6" fill="#fcfcfb"/>
<text x="64" y="24" font-family='system-ui, -apple-system, "Segoe UI", sans-serif' font-size="14" font-weight="600" fill="#0b0b0b">Whole-instrument render cost</text>
<text x="64" y="41" font-family='system-ui, -apple-system, "Segoe UI", sans-serif' font-size="11" fill="#52514e">render_block of 1 s of audio - callgrind instructions (Ir), per dev commit, 2026-07-12 to 2026-07-23</text>
<line x1="64" y1="306.0" x2="730" y2="306.0" stroke="#e1e0d9" stroke-width="1"/>
<text x="56" y="309.5" text-anchor="end" font-family='system-ui, -apple-system, "Segoe UI", sans-serif' font-size="11" style="font-variant-numeric: tabular-nums" fill="#898781">0</text>
<line x1="64" y1="207.1" x2="730" y2="207.1" stroke="#e1e0d9" stroke-width="1"/>
<text x="56" y="210.6" text-anchor="end" font-family='system-ui, -apple-system, "Segoe UI", sans-serif' font-size="11" style="font-variant-numeric: tabular-nums" fill="#898781">20</text>
<line x1="64" y1="108.2" x2="730" y2="108.2" stroke="#e1e0d9" stroke-width="1"/>
<text x="56" y="111.7" text-anchor="end" font-family='system-ui, -apple-system, "Segoe UI", sans-serif' font-size="11" style="font-variant-numeric: tabular-nums" fill="#898781">40</text>
<text x="56" y="46" text-anchor="end" font-family='system-ui, -apple-system, "Segoe UI", sans-serif' font-size="10" fill="#898781">Ir (M)</text>
<line x1="64" y1="306" x2="730" y2="306" stroke="#c3c2b7" stroke-width="1"/>
<text x="64.0" y="322" text-anchor="middle" font-family='system-ui, -apple-system, "Segoe UI", sans-serif' font-size="11" style="font-variant-numeric: tabular-nums" fill="#898781">07-12</text>
<text x="135.7" y="322" text-anchor="middle" font-family='system-ui, -apple-system, "Segoe UI", sans-serif' font-size="11" style="font-variant-numeric: tabular-nums" fill="#898781">07-14</text>
<text x="227.9" y="322" text-anchor="middle" font-family='system-ui, -apple-system, "Segoe UI", sans-serif' font-size="11" style="font-variant-numeric: tabular-nums" fill="#898781">07-17</text>
<text x="350.9" y="322" text-anchor="middle" font-family='system-ui, -apple-system, "Segoe UI", sans-serif' font-size="11" style="font-variant-numeric: tabular-nums" fill="#898781">07-19</text>
<text x="535.3" y="322" text-anchor="middle" font-family='system-ui, -apple-system, "Segoe UI", sans-serif' font-size="11" style="font-variant-numeric: tabular-nums" fill="#898781">07-21</text>
<text x="730.0" y="322" text-anchor="middle" font-family='system-ui, -apple-system, "Segoe UI", sans-serif' font-size="11" style="font-variant-numeric: tabular-nums" fill="#898781">07-23</text>
<path d="M64.0,88.9 L74.2,88.9 L84.5,88.9 L94.7,88.9 L105.0,88.9 L115.2,88.9 L125.5,88.9 L135.7,88.9 L146.0,88.9 L156.2,88.9 L166.5,88.9 L176.7,88.9 L187.0,88.9 L197.2,88.9 L207.4,88.9 L217.7,88.9 L227.9,88.9 L238.2,88.9 L248.4,88.9 L258.7,88.9 L268.9,88.9 L279.2,88.9 L289.4,88.9 L299.7,88.9 L309.9,88.9 L320.2,88.9 L330.4,88.9 L340.6,88.9 L350.9,89.0 L361.1,89.0 L371.4,89.0 L381.6,89.0 L391.9,89.0 L402.1,89.3 L412.4,89.3 L422.6,89.3 L432.9,89.3 L443.1,89.3 L453.4,89.3 L463.6,89.2 L473.8,89.2 L484.1,89.3 L494.3,89.3 L504.6,89.3 L514.8,89.3 L525.1,89.3 L535.3,89.3 L545.6,89.3 L555.8,89.3 L566.1,89.3 L576.3,120.2 L586.6,120.2 L596.8,120.2 L607.0,120.2 L617.3,120.2 L627.5,120.1 L637.8,120.1 L648.0,120.1 L658.3,120.1 L668.5,120.1 L678.8,120.1 L689.0,120.1 L699.3,120.1 L709.5,120.1 L719.8,120.1 L730.0,120.1" fill="none" stroke="#2a78d6" stroke-width="2" stroke-linejoin="round" stroke-linecap="round"/>
<circle cx="730.0" cy="120.1" r="6" fill="#fcfcfb"/>
<circle cx="730.0" cy="120.1" r="4" fill="#2a78d6"/>
<path d="M64.0,103.9 L74.2,103.9 L84.5,103.9 L94.7,103.9 L105.0,103.9 L115.2,103.9 L125.5,103.8 L135.7,103.8 L146.0,103.8 L156.2,103.8 L166.5,103.8 L176.7,103.8 L187.0,103.8 L197.2,103.8 L207.4,103.9 L217.7,103.9 L227.9,103.9 L238.2,103.9 L248.4,103.9 L258.7,103.9 L268.9,103.9 L279.2,103.9 L289.4,103.9 L299.7,103.9 L309.9,103.9 L320.2,103.9 L330.4,103.9 L340.6,103.9 L350.9,103.9 L361.1,103.9 L371.4,103.9 L381.6,103.9 L391.9,103.9 L402.1,104.2 L412.4,104.2 L422.6,104.2 L432.9,104.2 L443.1,104.1 L453.4,104.1 L463.6,104.2 L473.8,104.2 L484.1,104.2 L494.3,104.2 L504.6,104.2 L514.8,104.2 L525.1,104.2 L535.3,104.2 L545.6,104.2 L555.8,104.2 L566.1,104.2 L576.3,131.8 L586.6,131.8 L596.8,131.8 L607.0,131.8 L617.3,131.8 L627.5,131.8 L637.8,132.0 L648.0,132.0 L658.3,132.0 L668.5,132.0 L678.8,132.0 L689.0,132.0 L699.3,132.0 L709.5,132.0 L719.8,132.0 L730.0,132.0" fill="none" stroke="#1baf7a" stroke-width="2" stroke-linejoin="round" stroke-linecap="round"/>
<circle cx="730.0" cy="132.0" r="6" fill="#fcfcfb"/>
<circle cx="730.0" cy="132.0" r="4" fill="#1baf7a"/>
<path d="M64.0,92.1 L74.2,92.1 L84.5,92.1 L94.7,92.1 L105.0,92.1 L115.2,92.1 L125.5,92.1 L135.7,92.1 L146.0,92.1 L156.2,92.1 L166.5,92.1 L176.7,92.1 L187.0,92.1 L197.2,92.1 L207.4,92.1 L217.7,92.1 L227.9,92.1 L238.2,92.1 L248.4,92.1 L258.7,92.1 L268.9,92.1 L279.2,92.1 L289.4,92.1 L299.7,92.1 L309.9,92.1 L320.2,92.1 L330.4,92.1 L340.6,92.1 L350.9,92.1 L361.1,92.1 L371.4,92.1 L381.6,92.1 L391.9,92.1 L402.1,92.4 L412.4,92.4 L422.6,92.4 L432.9,92.4 L443.1,92.4 L453.4,92.4 L463.6,92.3 L473.8,92.3 L484.1,92.4 L494.3,92.4 L504.6,92.4 L514.8,92.4 L525.1,92.4 L535.3,92.4 L545.6,92.4 L555.8,92.4 L566.1,92.4 L576.3,120.0 L586.6,119.9 L596.8,119.9 L607.0,119.9 L617.3,119.9 L627.5,120.0 L637.8,120.0 L648.0,120.0 L658.3,120.0 L668.5,120.0 L678.8,120.0 L689.0,120.0 L699.3,120.0 L709.5,120.0 L719.8,120.0 L730.0,120.0" fill="none" stroke="#eda100" stroke-width="2" stroke-linejoin="round" stroke-linecap="round"/>
<circle cx="730.0" cy="120.0" r="6" fill="#fcfcfb"/>
<circle cx="730.0" cy="120.0" r="4" fill="#eda100"/>
<path d="M64.0,56.0 L74.2,56.0 L84.5,56.0 L94.7,56.0 L105.0,56.0 L115.2,56.0 L125.5,56.0 L135.7,56.0 L146.0,56.0 L156.2,56.0 L166.5,56.0 L176.7,56.0 L187.0,56.0 L197.2,56.0 L207.4,56.0 L217.7,56.0 L227.9,56.0 L238.2,56.0 L248.4,56.0 L258.7,56.0 L268.9,56.0 L279.2,56.0 L289.4,56.0 L299.7,56.0 L309.9,56.0 L320.2,56.0 L330.4,56.0 L340.6,56.0 L350.9,56.0 L361.1,56.0 L371.4,56.0 L381.6,56.0 L391.9,56.0 L402.1,56.3 L412.4,56.3 L422.6,56.3 L432.9,56.3 L443.1,56.3 L453.4,56.3 L463.6,56.2 L473.8,56.2 L484.1,56.3 L494.3,56.3 L504.6,56.3 L514.8,56.3 L525.1,56.3 L535.3,56.3 L545.6,56.3 L555.8,56.3 L566.1,56.3 L576.3,83.9 L586.6,83.9 L596.8,83.9 L607.0,83.9 L617.3,83.9 L627.5,83.9 L637.8,83.8 L648.0,83.8 L658.3,83.8 L668.5,83.8 L678.8,83.8 L689.0,83.8 L699.3,83.8 L709.5,83.8 L719.8,83.8 L730.0,83.8" fill="none" stroke="#008300" stroke-width="2" stroke-linejoin="round" stroke-linecap="round"/>
<circle cx="730.0" cy="83.8" r="6" fill="#fcfcfb"/>
<circle cx="730.0" cy="83.8" r="4" fill="#008300"/>
<path d="M64.0,227.6 L74.2,227.6 L84.5,227.6 L94.7,227.6 L105.0,227.6 L115.2,227.6 L125.5,227.6 L135.7,227.6 L146.0,227.6 L156.2,227.6 L166.5,227.6 L176.7,227.6 L187.0,227.6 L197.2,227.6 L207.4,227.6 L217.7,227.6 L227.9,227.6 L238.2,227.6 L248.4,227.6 L258.7,227.6 L268.9,227.6 L279.2,227.6 L289.4,227.6 L299.7,227.6 L309.9,227.6 L320.2,227.6 L330.4,227.6 L340.6,227.6 L350.9,227.6 L361.1,227.6 L371.4,227.6 L381.6,227.6 L391.9,227.6 L402.1,227.8 L412.4,227.8 L422.6,227.8 L432.9,227.8 L443.1,227.7 L453.4,227.7 L463.6,227.8 L473.8,227.8 L484.1,227.7 L494.3,227.7 L504.6,227.7 L514.8,227.7 L525.1,227.7 L535.3,227.7 L545.6,227.7 L555.8,227.7 L566.1,227.7 L576.3,227.7 L586.6,227.7 L596.8,227.7 L607.0,227.7 L617.3,227.7 L627.5,227.7 L637.8,227.8 L648.0,227.8 L658.3,227.8 L668.5,227.8 L678.8,227.8 L689.0,227.8 L699.3,227.8 L709.5,227.8 L719.8,227.8 L730.0,227.8" fill="none" stroke="#4a3aa7" stroke-width="2" stroke-linejoin="round" stroke-linecap="round"/>
<circle cx="730.0" cy="227.8" r="6" fill="#fcfcfb"/>
<circle cx="730.0" cy="227.8" r="4" fill="#4a3aa7"/>
<circle cx="745.0" cy="80.3" r="3.5" fill="#008300"/>
<text x="753.0" y="83.8" font-family='system-ui, -apple-system, "Segoe UI", sans-serif' font-size="11" fill="#0b0b0b">reverb</text>
<text x="753.0" y="95.8" font-family='system-ui, -apple-system, "Segoe UI", sans-serif' font-size="10" style="font-variant-numeric: tabular-nums" fill="#52514e">44.9M</text>
<circle cx="745.0" cy="116.5" r="3.5" fill="#eda100"/>
<text x="753.0" y="120.0" font-family='system-ui, -apple-system, "Segoe UI", sans-serif' font-size="11" fill="#0b0b0b">echo</text>
<text x="753.0" y="132.0" font-family='system-ui, -apple-system, "Segoe UI", sans-serif' font-size="10" style="font-variant-numeric: tabular-nums" fill="#52514e">37.6M</text>
<line x1="736.0" y1="120.1" x2="740.0" y2="148.0" stroke="#c3c2b7" stroke-width="1"/>
<circle cx="745.0" cy="144.5" r="3.5" fill="#2a78d6"/>
<text x="753.0" y="148.0" font-family='system-ui, -apple-system, "Segoe UI", sans-serif' font-size="11" fill="#0b0b0b">auto-filter</text>
<text x="753.0" y="160.0" font-family='system-ui, -apple-system, "Segoe UI", sans-serif' font-size="10" style="font-variant-numeric: tabular-nums" fill="#52514e">37.6M</text>
<line x1="736.0" y1="132.0" x2="740.0" y2="176.0" stroke="#c3c2b7" stroke-width="1"/>
<circle cx="745.0" cy="172.5" r="3.5" fill="#1baf7a"/>
<text x="753.0" y="176.0" font-family='system-ui, -apple-system, "Segoe UI", sans-serif' font-size="11" fill="#0b0b0b">autotune</text>
<text x="753.0" y="188.0" font-family='system-ui, -apple-system, "Segoe UI", sans-serif' font-size="10" style="font-variant-numeric: tabular-nums" fill="#52514e">35.2M</text>
<circle cx="745.0" cy="224.3" r="3.5" fill="#4a3aa7"/>
<text x="753.0" y="227.8" font-family='system-ui, -apple-system, "Segoe UI", sans-serif' font-size="11" fill="#0b0b0b">sampler-arp</text>
<text x="753.0" y="239.8" font-family='system-ui, -apple-system, "Segoe UI", sans-serif' font-size="10" style="font-variant-numeric: tabular-nums" fill="#52514e">15.8M</text>
</svg>