<svg xmlns="http://www.w3.org/2000/svg" width="880" height="340" viewBox="0 0 880 340" role="img" aria-label="Whole-instrument render cost">
<rect width="880" height="340" rx="6" fill="#1a1a19"/>
<text x="64" y="24" font-family='system-ui, -apple-system, "Segoe UI", sans-serif' font-size="14" font-weight="600" fill="#ffffff">Whole-instrument render cost</text>
<text x="64" y="41" font-family='system-ui, -apple-system, "Segoe UI", sans-serif' font-size="11" fill="#c3c2b7">render_block of 1 s of audio - callgrind instructions (Ir), per dev commit, 2026-07-12 to 2026-07-29</text>
<line x1="64" y1="306.0" x2="730" y2="306.0" stroke="#2c2c2a" stroke-width="1"/>
<text x="56" y="309.5" text-anchor="end" font-family='system-ui, -apple-system, "Segoe UI", sans-serif' font-size="11" style="font-variant-numeric: tabular-nums" fill="#898781">0</text>
<line x1="64" y1="207.1" x2="730" y2="207.1" stroke="#2c2c2a" stroke-width="1"/>
<text x="56" y="210.6" text-anchor="end" font-family='system-ui, -apple-system, "Segoe UI", sans-serif' font-size="11" style="font-variant-numeric: tabular-nums" fill="#898781">20</text>
<line x1="64" y1="108.2" x2="730" y2="108.2" stroke="#2c2c2a" stroke-width="1"/>
<text x="56" y="111.7" text-anchor="end" font-family='system-ui, -apple-system, "Segoe UI", sans-serif' font-size="11" style="font-variant-numeric: tabular-nums" fill="#898781">40</text>
<text x="56" y="46" text-anchor="end" font-family='system-ui, -apple-system, "Segoe UI", sans-serif' font-size="10" fill="#898781">Ir (M)</text>
<line x1="64" y1="306" x2="730" y2="306" stroke="#383835" stroke-width="1"/>
<text x="64.0" y="322" text-anchor="middle" font-family='system-ui, -apple-system, "Segoe UI", sans-serif' font-size="11" style="font-variant-numeric: tabular-nums" fill="#898781">07-12</text>
<text x="114.7" y="322" text-anchor="middle" font-family='system-ui, -apple-system, "Segoe UI", sans-serif' font-size="11" style="font-variant-numeric: tabular-nums" fill="#898781">07-16</text>
<text x="241.6" y="322" text-anchor="middle" font-family='system-ui, -apple-system, "Segoe UI", sans-serif' font-size="11" style="font-variant-numeric: tabular-nums" fill="#898781">07-19</text>
<text x="419.2" y="322" text-anchor="middle" font-family='system-ui, -apple-system, "Segoe UI", sans-serif' font-size="11" style="font-variant-numeric: tabular-nums" fill="#898781">07-22</text>
<text x="527.0" y="322" text-anchor="middle" font-family='system-ui, -apple-system, "Segoe UI", sans-serif' font-size="11" style="font-variant-numeric: tabular-nums" fill="#898781">07-25</text>
<text x="660.2" y="322" text-anchor="middle" font-family='system-ui, -apple-system, "Segoe UI", sans-serif' font-size="11" style="font-variant-numeric: tabular-nums" fill="#898781">07-28</text>
<path d="M64.0,88.9 L70.3,88.9 L76.7,88.9 L83.0,88.9 L89.4,88.9 L95.7,88.9 L102.1,88.9 L108.4,88.9 L114.7,88.9 L121.1,88.9 L127.4,88.9 L133.8,88.9 L140.1,88.9 L146.5,88.9 L152.8,88.9 L159.1,88.9 L165.5,88.9 L171.8,88.9 L178.2,88.9 L184.5,88.9 L190.9,88.9 L197.2,88.9 L203.5,88.9 L209.9,88.9 L216.2,88.9 L222.6,88.9 L228.9,88.9 L235.3,88.9 L241.6,89.0 L247.9,89.0 L254.3,89.0 L260.6,89.0 L267.0,89.0 L273.3,89.3 L279.7,89.3 L286.0,89.3 L292.3,89.3 L298.7,89.3 L305.0,89.3 L311.4,89.2 L317.7,89.2 L324.1,89.3 L330.4,89.3 L336.7,89.3 L343.1,89.3 L349.4,89.3 L355.8,89.3 L362.1,89.3 L368.5,89.3 L374.8,89.3 L381.1,120.2 L387.5,120.2 L393.8,120.2 L400.2,120.2 L406.5,120.2 L412.9,120.1 L419.2,120.1 L425.5,120.1 L431.9,120.1 L438.2,120.1 L444.6,120.1 L450.9,120.1 L457.3,120.1 L463.6,120.1 L469.9,120.1 L476.3,120.1 L482.6,120.1 L489.0,120.1 L495.3,120.1 L501.7,120.1 L508.0,120.1 L514.3,120.1 L520.7,120.1 L527.0,120.1 L533.4,120.1 L539.7,120.1 L546.1,120.1 L552.4,120.1 L558.7,120.1 L565.1,120.1 L571.4,120.1 L577.8,120.1 L584.1,120.1 L590.5,120.1 L596.8,120.1 L603.1,120.1 L609.5,120.1 L615.8,120.1 L622.2,120.1 L628.5,120.1 L634.9,120.1 L641.2,120.1 L647.5,120.1 L653.9,120.1 L660.2,120.1 L666.6,120.1 L672.9,120.1 L679.3,120.1 L685.6,120.1 L691.9,120.1 L698.3,120.1 L704.6,120.1 L711.0,120.1 L717.3,120.1 L723.7,120.1 L730.0,120.1" fill="none" stroke="#3987e5" stroke-width="2" stroke-linejoin="round" stroke-linecap="round"/>
<circle cx="730.0" cy="120.1" r="6" fill="#1a1a19"/>
<circle cx="730.0" cy="120.1" r="4" fill="#3987e5"/>
<path d="M64.0,103.9 L70.3,103.9 L76.7,103.9 L83.0,103.9 L89.4,103.9 L95.7,103.9 L102.1,103.8 L108.4,103.8 L114.7,103.8 L121.1,103.8 L127.4,103.8 L133.8,103.8 L140.1,103.8 L146.5,103.8 L152.8,103.9 L159.1,103.9 L165.5,103.9 L171.8,103.9 L178.2,103.9 L184.5,103.9 L190.9,103.9 L197.2,103.9 L203.5,103.9 L209.9,103.9 L216.2,103.9 L222.6,103.9 L228.9,103.9 L235.3,103.9 L241.6,103.9 L247.9,103.9 L254.3,103.9 L260.6,103.9 L267.0,103.9 L273.3,104.2 L279.7,104.2 L286.0,104.2 L292.3,104.2 L298.7,104.1 L305.0,104.1 L311.4,104.2 L317.7,104.2 L324.1,104.2 L330.4,104.2 L336.7,104.2 L343.1,104.2 L349.4,104.2 L355.8,104.2 L362.1,104.2 L368.5,104.2 L374.8,104.2 L381.1,131.8 L387.5,131.8 L393.8,131.8 L400.2,131.8 L406.5,131.8 L412.9,131.8 L419.2,132.0 L425.5,132.0 L431.9,132.0 L438.2,132.0 L444.6,132.0 L450.9,132.0 L457.3,132.0 L463.6,132.0 L469.9,132.0 L476.3,132.0 L482.6,132.0 L489.0,132.0 L495.3,132.0 L501.7,132.0 L508.0,132.0 L514.3,132.0 L520.7,132.0 L527.0,132.0 L533.4,132.0 L539.7,132.0 L546.1,132.0 L552.4,132.0 L558.7,132.0 L565.1,132.0 L571.4,132.0 L577.8,132.0 L584.1,132.0 L590.5,132.0 L596.8,132.0 L603.1,132.0 L609.5,132.0 L615.8,132.0 L622.2,132.0 L628.5,132.0 L634.9,132.0 L641.2,132.0 L647.5,132.0 L653.9,132.0 L660.2,132.0 L666.6,132.0 L672.9,132.0 L679.3,132.0 L685.6,132.0 L691.9,132.0 L698.3,132.0 L704.6,132.0 L711.0,132.0 L717.3,132.0 L723.7,132.0 L730.0,132.0" fill="none" stroke="#199e70" stroke-width="2" stroke-linejoin="round" stroke-linecap="round"/>
<circle cx="730.0" cy="132.0" r="6" fill="#1a1a19"/>
<circle cx="730.0" cy="132.0" r="4" fill="#199e70"/>
<path d="M64.0,92.1 L70.3,92.1 L76.7,92.1 L83.0,92.1 L89.4,92.1 L95.7,92.1 L102.1,92.1 L108.4,92.1 L114.7,92.1 L121.1,92.1 L127.4,92.1 L133.8,92.1 L140.1,92.1 L146.5,92.1 L152.8,92.1 L159.1,92.1 L165.5,92.1 L171.8,92.1 L178.2,92.1 L184.5,92.1 L190.9,92.1 L197.2,92.1 L203.5,92.1 L209.9,92.1 L216.2,92.1 L222.6,92.1 L228.9,92.1 L235.3,92.1 L241.6,92.1 L247.9,92.1 L254.3,92.1 L260.6,92.1 L267.0,92.1 L273.3,92.4 L279.7,92.4 L286.0,92.4 L292.3,92.4 L298.7,92.4 L305.0,92.4 L311.4,92.3 L317.7,92.3 L324.1,92.4 L330.4,92.4 L336.7,92.4 L343.1,92.4 L349.4,92.4 L355.8,92.4 L362.1,92.4 L368.5,92.4 L374.8,92.4 L381.1,120.0 L387.5,119.9 L393.8,119.9 L400.2,119.9 L406.5,119.9 L412.9,120.0 L419.2,120.0 L425.5,120.0 L431.9,120.0 L438.2,120.0 L444.6,120.0 L450.9,120.0 L457.3,120.0 L463.6,120.0 L469.9,120.0 L476.3,120.0 L482.6,120.0 L489.0,120.0 L495.3,120.0 L501.7,120.0 L508.0,120.0 L514.3,120.0 L520.7,120.0 L527.0,120.0 L533.4,120.0 L539.7,120.0 L546.1,120.0 L552.4,120.0 L558.7,120.0 L565.1,120.0 L571.4,120.0 L577.8,120.0 L584.1,120.0 L590.5,120.0 L596.8,120.0 L603.1,120.0 L609.5,120.0 L615.8,120.0 L622.2,120.0 L628.5,120.0 L634.9,120.0 L641.2,120.0 L647.5,120.0 L653.9,120.0 L660.2,120.0 L666.6,120.0 L672.9,120.0 L679.3,120.0 L685.6,120.0 L691.9,120.0 L698.3,120.0 L704.6,120.0 L711.0,120.0 L717.3,120.0 L723.7,119.9 L730.0,119.9" fill="none" stroke="#c98500" stroke-width="2" stroke-linejoin="round" stroke-linecap="round"/>
<circle cx="730.0" cy="119.9" r="6" fill="#1a1a19"/>
<circle cx="730.0" cy="119.9" r="4" fill="#c98500"/>
<path d="M64.0,56.0 L70.3,56.0 L76.7,56.0 L83.0,56.0 L89.4,56.0 L95.7,56.0 L102.1,56.0 L108.4,56.0 L114.7,56.0 L121.1,56.0 L127.4,56.0 L133.8,56.0 L140.1,56.0 L146.5,56.0 L152.8,56.0 L159.1,56.0 L165.5,56.0 L171.8,56.0 L178.2,56.0 L184.5,56.0 L190.9,56.0 L197.2,56.0 L203.5,56.0 L209.9,56.0 L216.2,56.0 L222.6,56.0 L228.9,56.0 L235.3,56.0 L241.6,56.0 L247.9,56.0 L254.3,56.0 L260.6,56.0 L267.0,56.0 L273.3,56.3 L279.7,56.3 L286.0,56.3 L292.3,56.3 L298.7,56.3 L305.0,56.3 L311.4,56.2 L317.7,56.2 L324.1,56.3 L330.4,56.3 L336.7,56.3 L343.1,56.3 L349.4,56.3 L355.8,56.3 L362.1,56.3 L368.5,56.3 L374.8,56.3 L381.1,83.9 L387.5,83.9 L393.8,83.9 L400.2,83.9 L406.5,83.9 L412.9,83.9 L419.2,83.8 L425.5,83.8 L431.9,83.8 L438.2,83.8 L444.6,83.8 L450.9,83.8 L457.3,83.8 L463.6,83.8 L469.9,83.8 L476.3,83.8 L482.6,83.8 L489.0,83.8 L495.3,83.8 L501.7,83.8 L508.0,83.8 L514.3,83.8 L520.7,83.8 L527.0,83.8 L533.4,83.8 L539.7,83.8 L546.1,83.8 L552.4,83.8 L558.7,83.8 L565.1,83.8 L571.4,83.8 L577.8,83.8 L584.1,83.8 L590.5,83.8 L596.8,83.8 L603.1,83.8 L609.5,83.8 L615.8,83.8 L622.2,83.8 L628.5,83.8 L634.9,83.8 L641.2,83.8 L647.5,83.8 L653.9,83.8 L660.2,83.8 L666.6,83.8 L672.9,83.8 L679.3,83.8 L685.6,83.8 L691.9,83.8 L698.3,83.8 L704.6,83.8 L711.0,83.8 L717.3,83.8 L723.7,83.8 L730.0,83.8" fill="none" stroke="#008300" stroke-width="2" stroke-linejoin="round" stroke-linecap="round"/>
<circle cx="730.0" cy="83.8" r="6" fill="#1a1a19"/>
<circle cx="730.0" cy="83.8" r="4" fill="#008300"/>
<path d="M64.0,227.6 L70.3,227.6 L76.7,227.6 L83.0,227.6 L89.4,227.6 L95.7,227.6 L102.1,227.6 L108.4,227.6 L114.7,227.6 L121.1,227.6 L127.4,227.6 L133.8,227.6 L140.1,227.6 L146.5,227.6 L152.8,227.6 L159.1,227.6 L165.5,227.6 L171.8,227.6 L178.2,227.6 L184.5,227.6 L190.9,227.6 L197.2,227.6 L203.5,227.6 L209.9,227.6 L216.2,227.6 L222.6,227.6 L228.9,227.6 L235.3,227.6 L241.6,227.6 L247.9,227.6 L254.3,227.6 L260.6,227.6 L267.0,227.6 L273.3,227.8 L279.7,227.8 L286.0,227.8 L292.3,227.8 L298.7,227.7 L305.0,227.7 L311.4,227.8 L317.7,227.8 L324.1,227.7 L330.4,227.7 L336.7,227.7 L343.1,227.7 L349.4,227.7 L355.8,227.7 L362.1,227.7 L368.5,227.7 L374.8,227.7 L381.1,227.7 L387.5,227.7 L393.8,227.7 L400.2,227.7 L406.5,227.7 L412.9,227.7 L419.2,227.8 L425.5,227.8 L431.9,227.8 L438.2,227.8 L444.6,227.8 L450.9,227.8 L457.3,227.8 L463.6,227.8 L469.9,227.8 L476.3,227.8 L482.6,227.8 L489.0,227.8 L495.3,227.8 L501.7,227.8 L508.0,227.8 L514.3,227.8 L520.7,227.8 L527.0,227.8 L533.4,227.8 L539.7,227.8 L546.1,227.8 L552.4,227.8 L558.7,227.8 L565.1,227.8 L571.4,227.8 L577.8,227.8 L584.1,227.8 L590.5,227.8 L596.8,227.8 L603.1,227.8 L609.5,227.8 L615.8,227.8 L622.2,227.8 L628.5,227.8 L634.9,227.8 L641.2,227.8 L647.5,227.8 L653.9,227.8 L660.2,227.8 L666.6,227.8 L672.9,227.8 L679.3,227.8 L685.6,227.8 L691.9,227.8 L698.3,227.8 L704.6,227.8 L711.0,227.8 L717.3,227.8 L723.7,227.8 L730.0,227.8" fill="none" stroke="#9085e9" stroke-width="2" stroke-linejoin="round" stroke-linecap="round"/>
<circle cx="730.0" cy="227.8" r="6" fill="#1a1a19"/>
<circle cx="730.0" cy="227.8" r="4" fill="#9085e9"/>
<circle cx="745.0" cy="80.3" r="3.5" fill="#008300"/>
<text x="753.0" y="83.8" font-family='system-ui, -apple-system, "Segoe UI", sans-serif' font-size="11" fill="#ffffff">reverb</text>
<text x="753.0" y="95.8" font-family='system-ui, -apple-system, "Segoe UI", sans-serif' font-size="10" style="font-variant-numeric: tabular-nums" fill="#c3c2b7">44.9M</text>
<circle cx="745.0" cy="116.4" r="3.5" fill="#c98500"/>
<text x="753.0" y="119.9" font-family='system-ui, -apple-system, "Segoe UI", sans-serif' font-size="11" fill="#ffffff">echo</text>
<text x="753.0" y="131.9" font-family='system-ui, -apple-system, "Segoe UI", sans-serif' font-size="10" style="font-variant-numeric: tabular-nums" fill="#c3c2b7">37.6M</text>
<line x1="736.0" y1="120.1" x2="740.0" y2="147.9" stroke="#383835" stroke-width="1"/>
<circle cx="745.0" cy="144.4" r="3.5" fill="#3987e5"/>
<text x="753.0" y="147.9" font-family='system-ui, -apple-system, "Segoe UI", sans-serif' font-size="11" fill="#ffffff">auto-filter</text>
<text x="753.0" y="159.9" font-family='system-ui, -apple-system, "Segoe UI", sans-serif' font-size="10" style="font-variant-numeric: tabular-nums" fill="#c3c2b7">37.6M</text>
<line x1="736.0" y1="132.0" x2="740.0" y2="175.9" stroke="#383835" stroke-width="1"/>
<circle cx="745.0" cy="172.4" r="3.5" fill="#199e70"/>
<text x="753.0" y="175.9" font-family='system-ui, -apple-system, "Segoe UI", sans-serif' font-size="11" fill="#ffffff">autotune</text>
<text x="753.0" y="187.9" font-family='system-ui, -apple-system, "Segoe UI", sans-serif' font-size="10" style="font-variant-numeric: tabular-nums" fill="#c3c2b7">35.2M</text>
<circle cx="745.0" cy="224.3" r="3.5" fill="#9085e9"/>
<text x="753.0" y="227.8" font-family='system-ui, -apple-system, "Segoe UI", sans-serif' font-size="11" fill="#ffffff">sampler-arp</text>
<text x="753.0" y="239.8" font-family='system-ui, -apple-system, "Segoe UI", sans-serif' font-size="10" style="font-variant-numeric: tabular-nums" fill="#c3c2b7">15.8M</text>
</svg>