<svg xmlns="http://www.w3.org/2000/svg" width="880" height="340" viewBox="0 0 880 340" role="img" aria-label="Whole-instrument render cost">
<rect width="880" height="340" rx="6" fill="#1a1a19"/>
<text x="64" y="24" font-family='system-ui, -apple-system, "Segoe UI", sans-serif' font-size="14" font-weight="600" fill="#ffffff">Whole-instrument render cost</text>
<text x="64" y="41" font-family='system-ui, -apple-system, "Segoe UI", sans-serif' font-size="11" fill="#c3c2b7">render_block of 1 s of audio - callgrind instructions (Ir), per main commit, 2026-06-28 to 2026-07-11</text>
<line x1="64" y1="306.0" x2="730" y2="306.0" stroke="#2c2c2a" stroke-width="1"/>
<text x="56" y="309.5" text-anchor="end" font-family='system-ui, -apple-system, "Segoe UI", sans-serif' font-size="11" style="font-variant-numeric: tabular-nums" fill="#898781">0</text>
<line x1="64" y1="228.2" x2="730" y2="228.2" stroke="#2c2c2a" stroke-width="1"/>
<text x="56" y="231.7" text-anchor="end" font-family='system-ui, -apple-system, "Segoe UI", sans-serif' font-size="11" style="font-variant-numeric: tabular-nums" fill="#898781">20</text>
<line x1="64" y1="150.4" x2="730" y2="150.4" stroke="#2c2c2a" stroke-width="1"/>
<text x="56" y="153.9" text-anchor="end" font-family='system-ui, -apple-system, "Segoe UI", sans-serif' font-size="11" style="font-variant-numeric: tabular-nums" fill="#898781">40</text>
<line x1="64" y1="72.6" x2="730" y2="72.6" stroke="#2c2c2a" stroke-width="1"/>
<text x="56" y="76.1" text-anchor="end" font-family='system-ui, -apple-system, "Segoe UI", sans-serif' font-size="11" style="font-variant-numeric: tabular-nums" fill="#898781">60</text>
<text x="56" y="46" text-anchor="end" font-family='system-ui, -apple-system, "Segoe UI", sans-serif' font-size="10" fill="#898781">Ir (M)</text>
<line x1="64" y1="306" x2="730" y2="306" stroke="#383835" stroke-width="1"/>
<text x="64.0" y="322" text-anchor="middle" font-family='system-ui, -apple-system, "Segoe UI", sans-serif' font-size="11" style="font-variant-numeric: tabular-nums" fill="#898781">06-28</text>
<text x="120.3" y="322" text-anchor="middle" font-family='system-ui, -apple-system, "Segoe UI", sans-serif' font-size="11" style="font-variant-numeric: tabular-nums" fill="#898781">06-30</text>
<text x="167.2" y="322" text-anchor="middle" font-family='system-ui, -apple-system, "Segoe UI", sans-serif' font-size="11" style="font-variant-numeric: tabular-nums" fill="#898781">07-02</text>
<text x="270.4" y="322" text-anchor="middle" font-family='system-ui, -apple-system, "Segoe UI", sans-serif' font-size="11" style="font-variant-numeric: tabular-nums" fill="#898781">07-04</text>
<text x="420.5" y="322" text-anchor="middle" font-family='system-ui, -apple-system, "Segoe UI", sans-serif' font-size="11" style="font-variant-numeric: tabular-nums" fill="#898781">07-07</text>
<text x="514.3" y="322" text-anchor="middle" font-family='system-ui, -apple-system, "Segoe UI", sans-serif' font-size="11" style="font-variant-numeric: tabular-nums" fill="#898781">07-09</text>
<text x="589.3" y="322" text-anchor="middle" font-family='system-ui, -apple-system, "Segoe UI", sans-serif' font-size="11" style="font-variant-numeric: tabular-nums" fill="#898781">07-11</text>
<path d="M64.0,72.9 L73.4,73.0 L82.8,80.1 L92.1,80.1 L101.5,94.2 L110.9,108.6 L120.3,108.6 L129.7,105.1 L139.0,105.4 L148.4,105.7 L157.8,105.7 L167.2,105.6 L176.6,105.5 L185.9,105.5 L195.3,105.5 L204.7,105.5" fill="none" stroke="#3987e5" stroke-width="2" stroke-linejoin="round" stroke-linecap="round"/>
<path d="M223.5,105.7 L232.8,122.6 L242.2,122.6 L251.6,125.2 L261.0,125.0 L270.4,125.0 L279.7,125.0 L289.1,125.0 L298.5,125.0 L307.9,125.0 L317.3,124.3 L326.6,124.3 L336.0,124.3 L345.4,124.3 L354.8,124.3 L364.2,124.5 L373.5,124.5 L382.9,124.5 L392.3,127.9 L401.7,127.9 L411.1,127.9 L420.5,127.9 L429.8,127.9 L439.2,127.9 L448.6,127.9 L458.0,127.9 L467.4,127.9 L476.7,127.9 L486.1,127.9 L495.5,127.9 L504.9,127.9 L514.3,127.9 L523.6,127.9 L533.0,128.8 L542.4,128.8 L551.8,128.8 L561.2,128.2 L570.5,132.1 L579.9,132.1 L589.3,131.7 L598.7,135.3 L608.1,135.3 L617.4,135.3 L626.8,135.3 L636.2,135.3 L645.6,135.3 L655.0,135.3 L664.3,135.3 L673.7,135.3 L683.1,135.3 L692.5,135.3 L701.9,135.3 L711.2,135.3 L720.6,135.3 L730.0,135.3" fill="none" stroke="#3987e5" stroke-width="2" stroke-linejoin="round" stroke-linecap="round"/>
<circle cx="730.0" cy="135.3" r="6" fill="#1a1a19"/>
<circle cx="730.0" cy="135.3" r="4" fill="#3987e5"/>
<path d="M64.0,98.8 L73.4,98.9 L82.8,98.2 L92.1,98.2 L101.5,107.4 L110.9,120.8 L120.3,120.7 L129.7,117.1 L139.0,117.4 L148.4,117.8 L157.8,117.7 L167.2,117.7 L176.6,117.5 L185.9,117.7 L195.3,117.7 L204.7,117.7" fill="none" stroke="#199e70" stroke-width="2" stroke-linejoin="round" stroke-linecap="round"/>
<path d="M223.5,117.8 L232.8,134.9 L242.2,134.9 L251.6,136.9 L261.0,136.6 L270.4,136.6 L279.7,136.6 L289.1,136.6 L298.5,136.6 L307.9,136.6 L317.3,135.8 L326.6,135.8 L336.0,135.8 L345.4,135.8 L354.8,135.8 L364.2,136.0 L373.5,136.0 L382.9,136.0 L392.3,139.7 L401.7,139.7 L411.1,139.6 L420.5,139.6 L429.8,139.6 L439.2,139.6 L448.6,139.6 L458.0,139.6 L467.4,139.6 L476.7,139.6 L486.1,139.6 L495.5,139.6 L504.9,139.6 L514.3,139.6 L523.6,139.6 L533.0,140.5 L542.4,140.5 L551.8,140.5 L561.2,139.8 L570.5,143.5 L579.9,143.5 L589.3,143.5 L598.7,147.1 L608.1,147.1 L617.4,147.1 L626.8,147.1 L636.2,147.1 L645.6,147.1 L655.0,147.1 L664.3,147.1 L673.7,147.1 L683.1,147.1 L692.5,147.1 L701.9,147.1 L711.2,147.1 L720.6,147.1 L730.0,147.1" fill="none" stroke="#199e70" stroke-width="2" stroke-linejoin="round" stroke-linecap="round"/>
<circle cx="730.0" cy="147.1" r="6" fill="#1a1a19"/>
<circle cx="730.0" cy="147.1" r="4" fill="#199e70"/>
<path d="M64.0,83.1 L73.4,83.1 L82.8,82.4 L92.1,82.4 L101.5,95.7 L110.9,110.0 L120.3,109.9 L129.7,106.6 L139.0,106.9 L148.4,107.2 L157.8,107.2 L167.2,107.0 L176.6,107.1 L185.9,107.1 L195.3,107.1 L204.7,107.1" fill="none" stroke="#c98500" stroke-width="2" stroke-linejoin="round" stroke-linecap="round"/>
<path d="M223.5,107.2 L232.8,125.6 L242.2,125.6 L251.6,127.5 L261.0,127.3 L270.4,127.3 L279.7,127.3 L289.1,127.3 L298.5,127.3 L307.9,127.5 L317.3,126.6 L326.6,126.3 L336.0,126.3 L345.4,126.3 L354.8,126.3 L364.2,126.9 L373.5,126.9 L382.9,126.8 L392.3,130.5 L401.7,130.5 L411.1,130.3 L420.5,130.3 L429.8,130.4 L439.2,130.4 L448.6,130.4 L458.0,130.4 L467.4,130.4 L476.7,130.4 L486.1,130.4 L495.5,130.4 L504.9,130.4 L514.3,130.4 L523.6,130.4 L533.0,131.3 L542.4,131.4 L551.8,131.4 L561.2,130.7 L570.5,133.9 L579.9,133.9 L589.3,133.9 L598.7,137.8 L608.1,137.8 L617.4,137.8 L626.8,137.8 L636.2,137.8 L645.6,137.8 L655.0,137.8 L664.3,137.8 L673.7,137.8 L683.1,137.8 L692.5,137.8 L701.9,137.8 L711.2,137.8 L720.6,137.8 L730.0,137.8" fill="none" stroke="#c98500" stroke-width="2" stroke-linejoin="round" stroke-linecap="round"/>
<circle cx="730.0" cy="137.8" r="6" fill="#1a1a19"/>
<circle cx="730.0" cy="137.8" r="4" fill="#c98500"/>
<path d="M64.0,56.6 L73.4,56.6 L82.8,56.0 L92.1,56.0 L101.5,65.0 L110.9,82.2 L120.3,82.1 L129.7,78.6 L139.0,78.8 L148.4,79.3 L157.8,79.3 L167.2,79.2 L176.6,79.1 L185.9,79.2 L195.3,79.2 L204.7,79.2" fill="none" stroke="#008300" stroke-width="2" stroke-linejoin="round" stroke-linecap="round"/>
<path d="M223.5,79.2 L232.8,97.8 L242.2,97.8 L251.6,99.5 L261.0,99.2 L270.4,99.2 L279.7,99.2 L289.1,99.2 L298.5,99.2 L307.9,99.4 L317.3,98.8 L326.6,98.6 L336.0,98.6 L345.4,98.6 L354.8,98.6 L364.2,98.9 L373.5,98.9 L382.9,98.9 L392.3,102.4 L401.7,102.4 L411.1,102.3 L420.5,102.3 L429.8,102.4 L439.2,102.4 L448.6,102.4 L458.0,102.4 L467.4,102.4 L476.7,102.4 L486.1,102.4 L495.5,102.4 L504.9,102.4 L514.3,102.4 L523.6,102.4 L533.0,103.3 L542.4,103.3 L551.8,103.3 L561.2,102.7 L570.5,106.1 L579.9,106.1 L589.3,106.1 L598.7,109.4 L608.1,109.4 L617.4,109.4 L626.8,109.4 L636.2,109.4 L645.6,109.4 L655.0,109.4 L664.3,109.4 L673.7,109.4 L683.1,109.4 L692.5,109.4 L701.9,109.4 L711.2,109.4 L720.6,109.4 L730.0,109.4" fill="none" stroke="#008300" stroke-width="2" stroke-linejoin="round" stroke-linecap="round"/>
<circle cx="730.0" cy="109.4" r="6" fill="#1a1a19"/>
<circle cx="730.0" cy="109.4" r="4" fill="#008300"/>
<path d="M64.0,222.5 L73.4,222.4 L82.8,222.5 L92.1,222.5 L101.5,229.0 L110.9,236.2 L120.3,236.1 L129.7,234.3 L139.0,234.3 L148.4,234.5 L157.8,234.5 L167.2,234.7 L176.6,234.7 L185.9,234.6 L195.3,234.6 L204.7,234.6" fill="none" stroke="#9085e9" stroke-width="2" stroke-linejoin="round" stroke-linecap="round"/>
<path d="M223.5,234.6 L232.8,240.3 L242.2,240.3 L251.6,240.1 L261.0,239.7 L270.4,239.7 L279.7,239.7 L289.1,239.7 L298.5,239.7 L307.9,239.6 L317.3,239.1 L326.6,239.1 L336.0,239.1 L345.4,239.1 L354.8,239.1 L364.2,239.2 L373.5,239.2 L382.9,239.2 L392.3,239.1 L401.7,239.1 L411.1,239.0 L420.5,239.0 L429.8,239.1 L439.2,239.1 L448.6,239.1 L458.0,239.1 L467.4,239.1 L476.7,239.1 L486.1,239.1 L495.5,239.1 L504.9,239.1 L514.3,239.1 L523.6,239.0 L533.0,239.5 L542.4,239.6 L551.8,239.6 L561.2,239.4 L570.5,241.0 L579.9,241.1 L589.3,241.1 L598.7,244.4 L608.1,244.4 L617.4,244.4 L626.8,244.4 L636.2,244.4 L645.6,244.4 L655.0,244.4 L664.3,244.4 L673.7,244.4 L683.1,244.4 L692.5,244.4 L701.9,244.4 L711.2,244.4 L720.6,244.4 L730.0,244.4" fill="none" stroke="#9085e9" stroke-width="2" stroke-linejoin="round" stroke-linecap="round"/>
<circle cx="730.0" cy="244.4" r="6" fill="#1a1a19"/>
<circle cx="730.0" cy="244.4" r="4" fill="#9085e9"/>
<circle cx="745.0" cy="105.9" r="3.5" fill="#008300"/>
<text x="753.0" y="109.4" font-family='system-ui, -apple-system, "Segoe UI", sans-serif' font-size="11" fill="#ffffff">reverb</text>
<text x="753.0" y="121.4" font-family='system-ui, -apple-system, "Segoe UI", sans-serif' font-size="10" style="font-variant-numeric: tabular-nums" fill="#c3c2b7">50.5M</text>
<circle cx="745.0" cy="133.9" r="3.5" fill="#3987e5"/>
<text x="753.0" y="137.4" font-family='system-ui, -apple-system, "Segoe UI", sans-serif' font-size="11" fill="#ffffff">auto-filter</text>
<text x="753.0" y="149.4" font-family='system-ui, -apple-system, "Segoe UI", sans-serif' font-size="10" style="font-variant-numeric: tabular-nums" fill="#c3c2b7">43.9M</text>
<line x1="736.0" y1="137.8" x2="740.0" y2="165.4" stroke="#383835" stroke-width="1"/>
<circle cx="745.0" cy="161.9" r="3.5" fill="#c98500"/>
<text x="753.0" y="165.4" font-family='system-ui, -apple-system, "Segoe UI", sans-serif' font-size="11" fill="#ffffff">echo</text>
<text x="753.0" y="177.4" font-family='system-ui, -apple-system, "Segoe UI", sans-serif' font-size="10" style="font-variant-numeric: tabular-nums" fill="#c3c2b7">43.2M</text>
<line x1="736.0" y1="147.1" x2="740.0" y2="193.4" stroke="#383835" stroke-width="1"/>
<circle cx="745.0" cy="189.9" r="3.5" fill="#199e70"/>
<text x="753.0" y="193.4" font-family='system-ui, -apple-system, "Segoe UI", sans-serif' font-size="11" fill="#ffffff">autotune</text>
<text x="753.0" y="205.4" font-family='system-ui, -apple-system, "Segoe UI", sans-serif' font-size="10" style="font-variant-numeric: tabular-nums" fill="#c3c2b7">40.9M</text>
<circle cx="745.0" cy="240.9" r="3.5" fill="#9085e9"/>
<text x="753.0" y="244.4" font-family='system-ui, -apple-system, "Segoe UI", sans-serif' font-size="11" fill="#ffffff">sampler-arp</text>
<text x="753.0" y="256.4" font-family='system-ui, -apple-system, "Segoe UI", sans-serif' font-size="10" style="font-variant-numeric: tabular-nums" fill="#c3c2b7">15.8M</text>
</svg>