<svg xmlns="http://www.w3.org/2000/svg" width="880" height="340" viewBox="0 0 880 340" role="img" aria-label="Whole-instrument render cost">
<rect width="880" height="340" rx="6" fill="#fcfcfb"/>
<text x="64" y="24" font-family='system-ui, -apple-system, "Segoe UI", sans-serif' font-size="14" font-weight="600" fill="#0b0b0b">Whole-instrument render cost</text>
<text x="64" y="41" font-family='system-ui, -apple-system, "Segoe UI", sans-serif' font-size="11" fill="#52514e">render_block of 1 s of audio - callgrind instructions (Ir), per main commit, 2026-06-28 to 2026-07-11</text>
<line x1="64" y1="306.0" x2="730" y2="306.0" stroke="#e1e0d9" stroke-width="1"/>
<text x="56" y="309.5" text-anchor="end" font-family='system-ui, -apple-system, "Segoe UI", sans-serif' font-size="11" style="font-variant-numeric: tabular-nums" fill="#898781">0</text>
<line x1="64" y1="228.2" x2="730" y2="228.2" stroke="#e1e0d9" stroke-width="1"/>
<text x="56" y="231.7" text-anchor="end" font-family='system-ui, -apple-system, "Segoe UI", sans-serif' font-size="11" style="font-variant-numeric: tabular-nums" fill="#898781">20</text>
<line x1="64" y1="150.4" x2="730" y2="150.4" stroke="#e1e0d9" stroke-width="1"/>
<text x="56" y="153.9" text-anchor="end" font-family='system-ui, -apple-system, "Segoe UI", sans-serif' font-size="11" style="font-variant-numeric: tabular-nums" fill="#898781">40</text>
<line x1="64" y1="72.6" x2="730" y2="72.6" stroke="#e1e0d9" stroke-width="1"/>
<text x="56" y="76.1" text-anchor="end" font-family='system-ui, -apple-system, "Segoe UI", sans-serif' font-size="11" style="font-variant-numeric: tabular-nums" fill="#898781">60</text>
<text x="56" y="46" text-anchor="end" font-family='system-ui, -apple-system, "Segoe UI", sans-serif' font-size="10" fill="#898781">Ir (M)</text>
<line x1="64" y1="306" x2="730" y2="306" stroke="#c3c2b7" stroke-width="1"/>
<text x="64.0" y="322" text-anchor="middle" font-family='system-ui, -apple-system, "Segoe UI", sans-serif' font-size="11" style="font-variant-numeric: tabular-nums" fill="#898781">06-28</text>
<text x="121.1" y="322" text-anchor="middle" font-family='system-ui, -apple-system, "Segoe UI", sans-serif' font-size="11" style="font-variant-numeric: tabular-nums" fill="#898781">06-30</text>
<text x="168.7" y="322" text-anchor="middle" font-family='system-ui, -apple-system, "Segoe UI", sans-serif' font-size="11" style="font-variant-numeric: tabular-nums" fill="#898781">07-02</text>
<text x="273.3" y="322" text-anchor="middle" font-family='system-ui, -apple-system, "Segoe UI", sans-serif' font-size="11" style="font-variant-numeric: tabular-nums" fill="#898781">07-04</text>
<text x="425.5" y="322" text-anchor="middle" font-family='system-ui, -apple-system, "Segoe UI", sans-serif' font-size="11" style="font-variant-numeric: tabular-nums" fill="#898781">07-07</text>
<text x="520.7" y="322" text-anchor="middle" font-family='system-ui, -apple-system, "Segoe UI", sans-serif' font-size="11" style="font-variant-numeric: tabular-nums" fill="#898781">07-09</text>
<text x="596.8" y="322" text-anchor="middle" font-family='system-ui, -apple-system, "Segoe UI", sans-serif' font-size="11" style="font-variant-numeric: tabular-nums" fill="#898781">07-11</text>
<path d="M64.0,72.9 L73.5,73.0 L83.0,80.1 L92.5,80.1 L102.1,94.2 L111.6,108.6 L121.1,108.6 L130.6,105.1 L140.1,105.4 L149.6,105.7 L159.1,105.7 L168.7,105.6 L178.2,105.5 L187.7,105.5 L197.2,105.5 L206.7,105.5" fill="none" stroke="#2a78d6" stroke-width="2" stroke-linejoin="round" stroke-linecap="round"/>
<path d="M225.7,105.7 L235.3,122.6 L244.8,122.6 L254.3,125.2 L263.8,125.0 L273.3,125.0 L282.8,125.0 L292.3,125.0 L301.9,125.0 L311.4,125.0 L320.9,124.3 L330.4,124.3 L339.9,124.3 L349.4,124.3 L358.9,124.3 L368.5,124.5 L378.0,124.5 L387.5,124.5 L397.0,127.9 L406.5,127.9 L416.0,127.9 L425.5,127.9 L435.1,127.9 L444.6,127.9 L454.1,127.9 L463.6,127.9 L473.1,127.9 L482.6,127.9 L492.1,127.9 L501.7,127.9 L511.2,127.9 L520.7,127.9 L530.2,127.9 L539.7,128.8 L549.2,128.8 L558.7,128.8 L568.3,128.2 L577.8,132.1 L587.3,132.1 L596.8,131.7 L606.3,135.3 L615.8,135.3 L625.3,135.3 L634.9,135.3 L644.4,135.3 L653.9,135.3 L663.4,135.3 L672.9,135.3 L682.4,135.3 L691.9,135.3 L701.5,135.3 L711.0,135.3 L720.5,135.3 L730.0,135.3" fill="none" stroke="#2a78d6" stroke-width="2" stroke-linejoin="round" stroke-linecap="round"/>
<circle cx="730.0" cy="135.3" r="6" fill="#fcfcfb"/>
<circle cx="730.0" cy="135.3" r="4" fill="#2a78d6"/>
<path d="M64.0,98.8 L73.5,98.9 L83.0,98.2 L92.5,98.2 L102.1,107.4 L111.6,120.8 L121.1,120.7 L130.6,117.1 L140.1,117.4 L149.6,117.8 L159.1,117.7 L168.7,117.7 L178.2,117.5 L187.7,117.7 L197.2,117.7 L206.7,117.7" fill="none" stroke="#1baf7a" stroke-width="2" stroke-linejoin="round" stroke-linecap="round"/>
<path d="M225.7,117.8 L235.3,134.9 L244.8,134.9 L254.3,136.9 L263.8,136.6 L273.3,136.6 L282.8,136.6 L292.3,136.6 L301.9,136.6 L311.4,136.6 L320.9,135.8 L330.4,135.8 L339.9,135.8 L349.4,135.8 L358.9,135.8 L368.5,136.0 L378.0,136.0 L387.5,136.0 L397.0,139.7 L406.5,139.7 L416.0,139.6 L425.5,139.6 L435.1,139.6 L444.6,139.6 L454.1,139.6 L463.6,139.6 L473.1,139.6 L482.6,139.6 L492.1,139.6 L501.7,139.6 L511.2,139.6 L520.7,139.6 L530.2,139.6 L539.7,140.5 L549.2,140.5 L558.7,140.5 L568.3,139.8 L577.8,143.5 L587.3,143.5 L596.8,143.5 L606.3,147.1 L615.8,147.1 L625.3,147.1 L634.9,147.1 L644.4,147.1 L653.9,147.1 L663.4,147.1 L672.9,147.1 L682.4,147.1 L691.9,147.1 L701.5,147.1 L711.0,147.1 L720.5,147.1 L730.0,147.1" fill="none" stroke="#1baf7a" stroke-width="2" stroke-linejoin="round" stroke-linecap="round"/>
<circle cx="730.0" cy="147.1" r="6" fill="#fcfcfb"/>
<circle cx="730.0" cy="147.1" r="4" fill="#1baf7a"/>
<path d="M64.0,83.1 L73.5,83.1 L83.0,82.4 L92.5,82.4 L102.1,95.7 L111.6,110.0 L121.1,109.9 L130.6,106.6 L140.1,106.9 L149.6,107.2 L159.1,107.2 L168.7,107.0 L178.2,107.1 L187.7,107.1 L197.2,107.1 L206.7,107.1" fill="none" stroke="#eda100" stroke-width="2" stroke-linejoin="round" stroke-linecap="round"/>
<path d="M225.7,107.2 L235.3,125.6 L244.8,125.6 L254.3,127.5 L263.8,127.3 L273.3,127.3 L282.8,127.3 L292.3,127.3 L301.9,127.3 L311.4,127.5 L320.9,126.6 L330.4,126.3 L339.9,126.3 L349.4,126.3 L358.9,126.3 L368.5,126.9 L378.0,126.9 L387.5,126.8 L397.0,130.5 L406.5,130.5 L416.0,130.3 L425.5,130.3 L435.1,130.4 L444.6,130.4 L454.1,130.4 L463.6,130.4 L473.1,130.4 L482.6,130.4 L492.1,130.4 L501.7,130.4 L511.2,130.4 L520.7,130.4 L530.2,130.4 L539.7,131.3 L549.2,131.4 L558.7,131.4 L568.3,130.7 L577.8,133.9 L587.3,133.9 L596.8,133.9 L606.3,137.8 L615.8,137.8 L625.3,137.8 L634.9,137.8 L644.4,137.8 L653.9,137.8 L663.4,137.8 L672.9,137.8 L682.4,137.8 L691.9,137.8 L701.5,137.8 L711.0,137.8 L720.5,137.8 L730.0,137.8" fill="none" stroke="#eda100" stroke-width="2" stroke-linejoin="round" stroke-linecap="round"/>
<circle cx="730.0" cy="137.8" r="6" fill="#fcfcfb"/>
<circle cx="730.0" cy="137.8" r="4" fill="#eda100"/>
<path d="M64.0,56.6 L73.5,56.6 L83.0,56.0 L92.5,56.0 L102.1,65.0 L111.6,82.2 L121.1,82.1 L130.6,78.6 L140.1,78.8 L149.6,79.3 L159.1,79.3 L168.7,79.2 L178.2,79.1 L187.7,79.2 L197.2,79.2 L206.7,79.2" fill="none" stroke="#008300" stroke-width="2" stroke-linejoin="round" stroke-linecap="round"/>
<path d="M225.7,79.2 L235.3,97.8 L244.8,97.8 L254.3,99.5 L263.8,99.2 L273.3,99.2 L282.8,99.2 L292.3,99.2 L301.9,99.2 L311.4,99.4 L320.9,98.8 L330.4,98.6 L339.9,98.6 L349.4,98.6 L358.9,98.6 L368.5,98.9 L378.0,98.9 L387.5,98.9 L397.0,102.4 L406.5,102.4 L416.0,102.3 L425.5,102.3 L435.1,102.4 L444.6,102.4 L454.1,102.4 L463.6,102.4 L473.1,102.4 L482.6,102.4 L492.1,102.4 L501.7,102.4 L511.2,102.4 L520.7,102.4 L530.2,102.4 L539.7,103.3 L549.2,103.3 L558.7,103.3 L568.3,102.7 L577.8,106.1 L587.3,106.1 L596.8,106.1 L606.3,109.4 L615.8,109.4 L625.3,109.4 L634.9,109.4 L644.4,109.4 L653.9,109.4 L663.4,109.4 L672.9,109.4 L682.4,109.4 L691.9,109.4 L701.5,109.4 L711.0,109.4 L720.5,109.4 L730.0,109.4" fill="none" stroke="#008300" stroke-width="2" stroke-linejoin="round" stroke-linecap="round"/>
<circle cx="730.0" cy="109.4" r="6" fill="#fcfcfb"/>
<circle cx="730.0" cy="109.4" r="4" fill="#008300"/>
<path d="M64.0,222.5 L73.5,222.4 L83.0,222.5 L92.5,222.5 L102.1,229.0 L111.6,236.2 L121.1,236.1 L130.6,234.3 L140.1,234.3 L149.6,234.5 L159.1,234.5 L168.7,234.7 L178.2,234.7 L187.7,234.6 L197.2,234.6 L206.7,234.6" fill="none" stroke="#4a3aa7" stroke-width="2" stroke-linejoin="round" stroke-linecap="round"/>
<path d="M225.7,234.6 L235.3,240.3 L244.8,240.3 L254.3,240.1 L263.8,239.7 L273.3,239.7 L282.8,239.7 L292.3,239.7 L301.9,239.7 L311.4,239.6 L320.9,239.1 L330.4,239.1 L339.9,239.1 L349.4,239.1 L358.9,239.1 L368.5,239.2 L378.0,239.2 L387.5,239.2 L397.0,239.1 L406.5,239.1 L416.0,239.0 L425.5,239.0 L435.1,239.1 L444.6,239.1 L454.1,239.1 L463.6,239.1 L473.1,239.1 L482.6,239.1 L492.1,239.1 L501.7,239.1 L511.2,239.1 L520.7,239.1 L530.2,239.0 L539.7,239.5 L549.2,239.6 L558.7,239.6 L568.3,239.4 L577.8,241.0 L587.3,241.1 L596.8,241.1 L606.3,244.4 L615.8,244.4 L625.3,244.4 L634.9,244.4 L644.4,244.4 L653.9,244.4 L663.4,244.4 L672.9,244.4 L682.4,244.4 L691.9,244.4 L701.5,244.4 L711.0,244.4 L720.5,244.4 L730.0,244.4" fill="none" stroke="#4a3aa7" stroke-width="2" stroke-linejoin="round" stroke-linecap="round"/>
<circle cx="730.0" cy="244.4" r="6" fill="#fcfcfb"/>
<circle cx="730.0" cy="244.4" r="4" fill="#4a3aa7"/>
<circle cx="745.0" cy="105.9" r="3.5" fill="#008300"/>
<text x="753.0" y="109.4" font-family='system-ui, -apple-system, "Segoe UI", sans-serif' font-size="11" fill="#0b0b0b">reverb</text>
<text x="753.0" y="121.4" font-family='system-ui, -apple-system, "Segoe UI", sans-serif' font-size="10" style="font-variant-numeric: tabular-nums" fill="#52514e">50.5M</text>
<circle cx="745.0" cy="133.9" r="3.5" fill="#2a78d6"/>
<text x="753.0" y="137.4" font-family='system-ui, -apple-system, "Segoe UI", sans-serif' font-size="11" fill="#0b0b0b">auto-filter</text>
<text x="753.0" y="149.4" font-family='system-ui, -apple-system, "Segoe UI", sans-serif' font-size="10" style="font-variant-numeric: tabular-nums" fill="#52514e">43.9M</text>
<line x1="736.0" y1="137.8" x2="740.0" y2="165.4" stroke="#c3c2b7" stroke-width="1"/>
<circle cx="745.0" cy="161.9" r="3.5" fill="#eda100"/>
<text x="753.0" y="165.4" font-family='system-ui, -apple-system, "Segoe UI", sans-serif' font-size="11" fill="#0b0b0b">echo</text>
<text x="753.0" y="177.4" font-family='system-ui, -apple-system, "Segoe UI", sans-serif' font-size="10" style="font-variant-numeric: tabular-nums" fill="#52514e">43.2M</text>
<line x1="736.0" y1="147.1" x2="740.0" y2="193.4" stroke="#c3c2b7" stroke-width="1"/>
<circle cx="745.0" cy="189.9" r="3.5" fill="#1baf7a"/>
<text x="753.0" y="193.4" font-family='system-ui, -apple-system, "Segoe UI", sans-serif' font-size="11" fill="#0b0b0b">autotune</text>
<text x="753.0" y="205.4" font-family='system-ui, -apple-system, "Segoe UI", sans-serif' font-size="10" style="font-variant-numeric: tabular-nums" fill="#52514e">40.9M</text>
<circle cx="745.0" cy="240.9" r="3.5" fill="#4a3aa7"/>
<text x="753.0" y="244.4" font-family='system-ui, -apple-system, "Segoe UI", sans-serif' font-size="11" fill="#0b0b0b">sampler-arp</text>
<text x="753.0" y="256.4" font-family='system-ui, -apple-system, "Segoe UI", sans-serif' font-size="10" style="font-variant-numeric: tabular-nums" fill="#52514e">15.8M</text>
</svg>