<svg xmlns="http://www.w3.org/2000/svg" width="880" height="340" viewBox="0 0 880 340" role="img" aria-label="Whole-instrument render cost">
<rect width="880" height="340" rx="6" fill="#1a1a19"/>
<text x="64" y="24" font-family='system-ui, -apple-system, "Segoe UI", sans-serif' font-size="14" font-weight="600" fill="#ffffff">Whole-instrument render cost</text>
<text x="64" y="41" font-family='system-ui, -apple-system, "Segoe UI", sans-serif' font-size="11" fill="#c3c2b7">render_block of 1 s of audio - callgrind instructions (Ir), per main commit, 2026-06-28 to 2026-07-11</text>
<line x1="64" y1="306.0" x2="730" y2="306.0" stroke="#2c2c2a" stroke-width="1"/>
<text x="56" y="309.5" text-anchor="end" font-family='system-ui, -apple-system, "Segoe UI", sans-serif' font-size="11" style="font-variant-numeric: tabular-nums" fill="#898781">0</text>
<line x1="64" y1="228.2" x2="730" y2="228.2" stroke="#2c2c2a" stroke-width="1"/>
<text x="56" y="231.7" text-anchor="end" font-family='system-ui, -apple-system, "Segoe UI", sans-serif' font-size="11" style="font-variant-numeric: tabular-nums" fill="#898781">20</text>
<line x1="64" y1="150.4" x2="730" y2="150.4" stroke="#2c2c2a" stroke-width="1"/>
<text x="56" y="153.9" text-anchor="end" font-family='system-ui, -apple-system, "Segoe UI", sans-serif' font-size="11" style="font-variant-numeric: tabular-nums" fill="#898781">40</text>
<line x1="64" y1="72.6" x2="730" y2="72.6" stroke="#2c2c2a" stroke-width="1"/>
<text x="56" y="76.1" text-anchor="end" font-family='system-ui, -apple-system, "Segoe UI", sans-serif' font-size="11" style="font-variant-numeric: tabular-nums" fill="#898781">60</text>
<text x="56" y="46" text-anchor="end" font-family='system-ui, -apple-system, "Segoe UI", sans-serif' font-size="10" fill="#898781">Ir (M)</text>
<line x1="64" y1="306" x2="730" y2="306" stroke="#383835" stroke-width="1"/>
<text x="64.0" y="322" text-anchor="middle" font-family='system-ui, -apple-system, "Segoe UI", sans-serif' font-size="11" style="font-variant-numeric: tabular-nums" fill="#898781">06-28</text>
<text x="127.4" y="322" text-anchor="middle" font-family='system-ui, -apple-system, "Segoe UI", sans-serif' font-size="11" style="font-variant-numeric: tabular-nums" fill="#898781">06-30</text>
<text x="180.3" y="322" text-anchor="middle" font-family='system-ui, -apple-system, "Segoe UI", sans-serif' font-size="11" style="font-variant-numeric: tabular-nums" fill="#898781">07-02</text>
<text x="296.6" y="322" text-anchor="middle" font-family='system-ui, -apple-system, "Segoe UI", sans-serif' font-size="11" style="font-variant-numeric: tabular-nums" fill="#898781">07-04</text>
<text x="465.7" y="322" text-anchor="middle" font-family='system-ui, -apple-system, "Segoe UI", sans-serif' font-size="11" style="font-variant-numeric: tabular-nums" fill="#898781">07-07</text>
<text x="571.4" y="322" text-anchor="middle" font-family='system-ui, -apple-system, "Segoe UI", sans-serif' font-size="11" style="font-variant-numeric: tabular-nums" fill="#898781">07-09</text>
<text x="656.0" y="322" text-anchor="middle" font-family='system-ui, -apple-system, "Segoe UI", sans-serif' font-size="11" style="font-variant-numeric: tabular-nums" fill="#898781">07-11</text>
<path d="M64.0,72.9 L74.6,73.0 L85.1,80.1 L95.7,80.1 L106.3,94.2 L116.9,108.6 L127.4,108.6 L138.0,105.1 L148.6,105.4 L159.1,105.7 L169.7,105.7 L180.3,105.6 L190.9,105.5 L201.4,105.5 L212.0,105.5 L222.6,105.5" fill="none" stroke="#3987e5" stroke-width="2" stroke-linejoin="round" stroke-linecap="round"/>
<path d="M243.7,105.7 L254.3,122.6 L264.9,122.6 L275.4,125.2 L286.0,125.0 L296.6,125.0 L307.1,125.0 L317.7,125.0 L328.3,125.0 L338.9,125.0 L349.4,124.3 L360.0,124.3 L370.6,124.3 L381.1,124.3 L391.7,124.3 L402.3,124.5 L412.9,124.5 L423.4,124.5 L434.0,127.9 L444.6,127.9 L455.1,127.9 L465.7,127.9 L476.3,127.9 L486.9,127.9 L497.4,127.9 L508.0,127.9 L518.6,127.9 L529.1,127.9 L539.7,127.9 L550.3,127.9 L560.9,127.9 L571.4,127.9 L582.0,127.9 L592.6,128.8 L603.1,128.8 L613.7,128.8 L624.3,128.2 L634.9,132.1 L645.4,132.1 L656.0,131.7 L666.6,135.3 L677.1,135.3 L687.7,135.3 L698.3,135.3 L708.9,135.3 L719.4,135.3 L730.0,135.3" fill="none" stroke="#3987e5" stroke-width="2" stroke-linejoin="round" stroke-linecap="round"/>
<circle cx="730.0" cy="135.3" r="6" fill="#1a1a19"/>
<circle cx="730.0" cy="135.3" r="4" fill="#3987e5"/>
<path d="M64.0,98.8 L74.6,98.9 L85.1,98.2 L95.7,98.2 L106.3,107.4 L116.9,120.8 L127.4,120.7 L138.0,117.1 L148.6,117.4 L159.1,117.8 L169.7,117.7 L180.3,117.7 L190.9,117.5 L201.4,117.7 L212.0,117.7 L222.6,117.7" fill="none" stroke="#199e70" stroke-width="2" stroke-linejoin="round" stroke-linecap="round"/>
<path d="M243.7,117.8 L254.3,134.9 L264.9,134.9 L275.4,136.9 L286.0,136.6 L296.6,136.6 L307.1,136.6 L317.7,136.6 L328.3,136.6 L338.9,136.6 L349.4,135.8 L360.0,135.8 L370.6,135.8 L381.1,135.8 L391.7,135.8 L402.3,136.0 L412.9,136.0 L423.4,136.0 L434.0,139.7 L444.6,139.7 L455.1,139.6 L465.7,139.6 L476.3,139.6 L486.9,139.6 L497.4,139.6 L508.0,139.6 L518.6,139.6 L529.1,139.6 L539.7,139.6 L550.3,139.6 L560.9,139.6 L571.4,139.6 L582.0,139.6 L592.6,140.5 L603.1,140.5 L613.7,140.5 L624.3,139.8 L634.9,143.5 L645.4,143.5 L656.0,143.5 L666.6,147.1 L677.1,147.1 L687.7,147.1 L698.3,147.1 L708.9,147.1 L719.4,147.1 L730.0,147.1" fill="none" stroke="#199e70" stroke-width="2" stroke-linejoin="round" stroke-linecap="round"/>
<circle cx="730.0" cy="147.1" r="6" fill="#1a1a19"/>
<circle cx="730.0" cy="147.1" r="4" fill="#199e70"/>
<path d="M64.0,83.1 L74.6,83.1 L85.1,82.4 L95.7,82.4 L106.3,95.7 L116.9,110.0 L127.4,109.9 L138.0,106.6 L148.6,106.9 L159.1,107.2 L169.7,107.2 L180.3,107.0 L190.9,107.1 L201.4,107.1 L212.0,107.1 L222.6,107.1" fill="none" stroke="#c98500" stroke-width="2" stroke-linejoin="round" stroke-linecap="round"/>
<path d="M243.7,107.2 L254.3,125.6 L264.9,125.6 L275.4,127.5 L286.0,127.3 L296.6,127.3 L307.1,127.3 L317.7,127.3 L328.3,127.3 L338.9,127.5 L349.4,126.6 L360.0,126.3 L370.6,126.3 L381.1,126.3 L391.7,126.3 L402.3,126.9 L412.9,126.9 L423.4,126.8 L434.0,130.5 L444.6,130.5 L455.1,130.3 L465.7,130.3 L476.3,130.4 L486.9,130.4 L497.4,130.4 L508.0,130.4 L518.6,130.4 L529.1,130.4 L539.7,130.4 L550.3,130.4 L560.9,130.4 L571.4,130.4 L582.0,130.4 L592.6,131.3 L603.1,131.4 L613.7,131.4 L624.3,130.7 L634.9,133.9 L645.4,133.9 L656.0,133.9 L666.6,137.8 L677.1,137.8 L687.7,137.8 L698.3,137.8 L708.9,137.8 L719.4,137.8 L730.0,137.8" fill="none" stroke="#c98500" stroke-width="2" stroke-linejoin="round" stroke-linecap="round"/>
<circle cx="730.0" cy="137.8" r="6" fill="#1a1a19"/>
<circle cx="730.0" cy="137.8" r="4" fill="#c98500"/>
<path d="M64.0,56.6 L74.6,56.6 L85.1,56.0 L95.7,56.0 L106.3,65.0 L116.9,82.2 L127.4,82.1 L138.0,78.6 L148.6,78.8 L159.1,79.3 L169.7,79.3 L180.3,79.2 L190.9,79.1 L201.4,79.2 L212.0,79.2 L222.6,79.2" fill="none" stroke="#008300" stroke-width="2" stroke-linejoin="round" stroke-linecap="round"/>
<path d="M243.7,79.2 L254.3,97.8 L264.9,97.8 L275.4,99.5 L286.0,99.2 L296.6,99.2 L307.1,99.2 L317.7,99.2 L328.3,99.2 L338.9,99.4 L349.4,98.8 L360.0,98.6 L370.6,98.6 L381.1,98.6 L391.7,98.6 L402.3,98.9 L412.9,98.9 L423.4,98.9 L434.0,102.4 L444.6,102.4 L455.1,102.3 L465.7,102.3 L476.3,102.4 L486.9,102.4 L497.4,102.4 L508.0,102.4 L518.6,102.4 L529.1,102.4 L539.7,102.4 L550.3,102.4 L560.9,102.4 L571.4,102.4 L582.0,102.4 L592.6,103.3 L603.1,103.3 L613.7,103.3 L624.3,102.7 L634.9,106.1 L645.4,106.1 L656.0,106.1 L666.6,109.4 L677.1,109.4 L687.7,109.4 L698.3,109.4 L708.9,109.4 L719.4,109.4 L730.0,109.4" fill="none" stroke="#008300" stroke-width="2" stroke-linejoin="round" stroke-linecap="round"/>
<circle cx="730.0" cy="109.4" r="6" fill="#1a1a19"/>
<circle cx="730.0" cy="109.4" r="4" fill="#008300"/>
<path d="M64.0,222.5 L74.6,222.4 L85.1,222.5 L95.7,222.5 L106.3,229.0 L116.9,236.2 L127.4,236.1 L138.0,234.3 L148.6,234.3 L159.1,234.5 L169.7,234.5 L180.3,234.7 L190.9,234.7 L201.4,234.6 L212.0,234.6 L222.6,234.6" fill="none" stroke="#9085e9" stroke-width="2" stroke-linejoin="round" stroke-linecap="round"/>
<path d="M243.7,234.6 L254.3,240.3 L264.9,240.3 L275.4,240.1 L286.0,239.7 L296.6,239.7 L307.1,239.7 L317.7,239.7 L328.3,239.7 L338.9,239.6 L349.4,239.1 L360.0,239.1 L370.6,239.1 L381.1,239.1 L391.7,239.1 L402.3,239.2 L412.9,239.2 L423.4,239.2 L434.0,239.1 L444.6,239.1 L455.1,239.0 L465.7,239.0 L476.3,239.1 L486.9,239.1 L497.4,239.1 L508.0,239.1 L518.6,239.1 L529.1,239.1 L539.7,239.1 L550.3,239.1 L560.9,239.1 L571.4,239.1 L582.0,239.0 L592.6,239.5 L603.1,239.6 L613.7,239.6 L624.3,239.4 L634.9,241.0 L645.4,241.1 L656.0,241.1 L666.6,244.4 L677.1,244.4 L687.7,244.4 L698.3,244.4 L708.9,244.4 L719.4,244.4 L730.0,244.4" fill="none" stroke="#9085e9" stroke-width="2" stroke-linejoin="round" stroke-linecap="round"/>
<circle cx="730.0" cy="244.4" r="6" fill="#1a1a19"/>
<circle cx="730.0" cy="244.4" r="4" fill="#9085e9"/>
<circle cx="745.0" cy="105.9" r="3.5" fill="#008300"/>
<text x="753.0" y="109.4" font-family='system-ui, -apple-system, "Segoe UI", sans-serif' font-size="11" fill="#ffffff">reverb</text>
<text x="753.0" y="121.4" font-family='system-ui, -apple-system, "Segoe UI", sans-serif' font-size="10" style="font-variant-numeric: tabular-nums" fill="#c3c2b7">50.5M</text>
<circle cx="745.0" cy="133.9" r="3.5" fill="#3987e5"/>
<text x="753.0" y="137.4" font-family='system-ui, -apple-system, "Segoe UI", sans-serif' font-size="11" fill="#ffffff">auto-filter</text>
<text x="753.0" y="149.4" font-family='system-ui, -apple-system, "Segoe UI", sans-serif' font-size="10" style="font-variant-numeric: tabular-nums" fill="#c3c2b7">43.9M</text>
<line x1="736.0" y1="137.8" x2="740.0" y2="165.4" stroke="#383835" stroke-width="1"/>
<circle cx="745.0" cy="161.9" r="3.5" fill="#c98500"/>
<text x="753.0" y="165.4" font-family='system-ui, -apple-system, "Segoe UI", sans-serif' font-size="11" fill="#ffffff">echo</text>
<text x="753.0" y="177.4" font-family='system-ui, -apple-system, "Segoe UI", sans-serif' font-size="10" style="font-variant-numeric: tabular-nums" fill="#c3c2b7">43.2M</text>
<line x1="736.0" y1="147.1" x2="740.0" y2="193.4" stroke="#383835" stroke-width="1"/>
<circle cx="745.0" cy="189.9" r="3.5" fill="#199e70"/>
<text x="753.0" y="193.4" font-family='system-ui, -apple-system, "Segoe UI", sans-serif' font-size="11" fill="#ffffff">autotune</text>
<text x="753.0" y="205.4" font-family='system-ui, -apple-system, "Segoe UI", sans-serif' font-size="10" style="font-variant-numeric: tabular-nums" fill="#c3c2b7">40.9M</text>
<circle cx="745.0" cy="240.9" r="3.5" fill="#9085e9"/>
<text x="753.0" y="244.4" font-family='system-ui, -apple-system, "Segoe UI", sans-serif' font-size="11" fill="#ffffff">sampler-arp</text>
<text x="753.0" y="256.4" font-family='system-ui, -apple-system, "Segoe UI", sans-serif' font-size="10" style="font-variant-numeric: tabular-nums" fill="#c3c2b7">15.8M</text>
</svg>