<svg xmlns="http://www.w3.org/2000/svg" width="880" height="340" viewBox="0 0 880 340" role="img" aria-label="Whole-instrument render cost">
<rect width="880" height="340" rx="6" fill="#1a1a19"/>
<text x="64" y="24" font-family='system-ui, -apple-system, "Segoe UI", sans-serif' font-size="14" font-weight="600" fill="#ffffff">Whole-instrument render cost</text>
<text x="64" y="41" font-family='system-ui, -apple-system, "Segoe UI", sans-serif' font-size="11" fill="#c3c2b7">render_block of 1 s of audio - callgrind instructions (Ir), per dev commit, 2026-07-12 to 2026-07-22</text>
<line x1="64" y1="306.0" x2="730" y2="306.0" stroke="#2c2c2a" stroke-width="1"/>
<text x="56" y="309.5" text-anchor="end" font-family='system-ui, -apple-system, "Segoe UI", sans-serif' font-size="11" style="font-variant-numeric: tabular-nums" fill="#898781">0</text>
<line x1="64" y1="207.1" x2="730" y2="207.1" stroke="#2c2c2a" stroke-width="1"/>
<text x="56" y="210.6" text-anchor="end" font-family='system-ui, -apple-system, "Segoe UI", sans-serif' font-size="11" style="font-variant-numeric: tabular-nums" fill="#898781">20</text>
<line x1="64" y1="108.2" x2="730" y2="108.2" stroke="#2c2c2a" stroke-width="1"/>
<text x="56" y="111.7" text-anchor="end" font-family='system-ui, -apple-system, "Segoe UI", sans-serif' font-size="11" style="font-variant-numeric: tabular-nums" fill="#898781">40</text>
<text x="56" y="46" text-anchor="end" font-family='system-ui, -apple-system, "Segoe UI", sans-serif' font-size="10" fill="#898781">Ir (M)</text>
<line x1="64" y1="306" x2="730" y2="306" stroke="#383835" stroke-width="1"/>
<text x="64.0" y="322" text-anchor="middle" font-family='system-ui, -apple-system, "Segoe UI", sans-serif' font-size="11" style="font-variant-numeric: tabular-nums" fill="#898781">07-12</text>
<text x="141.7" y="322" text-anchor="middle" font-family='system-ui, -apple-system, "Segoe UI", sans-serif' font-size="11" style="font-variant-numeric: tabular-nums" fill="#898781">07-14</text>
<text x="241.6" y="322" text-anchor="middle" font-family='system-ui, -apple-system, "Segoe UI", sans-serif' font-size="11" style="font-variant-numeric: tabular-nums" fill="#898781">07-17</text>
<text x="374.8" y="322" text-anchor="middle" font-family='system-ui, -apple-system, "Segoe UI", sans-serif' font-size="11" style="font-variant-numeric: tabular-nums" fill="#898781">07-19</text>
<text x="574.6" y="322" text-anchor="middle" font-family='system-ui, -apple-system, "Segoe UI", sans-serif' font-size="11" style="font-variant-numeric: tabular-nums" fill="#898781">07-21</text>
<path d="M64.0,88.9 L75.1,88.9 L86.2,88.9 L97.3,88.9 L108.4,88.9 L119.5,88.9 L130.6,88.9 L141.7,88.9 L152.8,88.9 L163.9,88.9 L175.0,88.9 L186.1,88.9 L197.2,88.9 L208.3,88.9 L219.4,88.9 L230.5,88.9 L241.6,88.9 L252.7,88.9 L263.8,88.9 L274.9,88.9 L286.0,88.9 L297.1,88.9 L308.2,88.9 L319.3,88.9 L330.4,88.9 L341.5,88.9 L352.6,88.9 L363.7,88.9 L374.8,89.0 L385.9,89.0 L397.0,89.0 L408.1,89.0 L419.2,89.0 L430.3,89.3 L441.4,89.3 L452.5,89.3 L463.6,89.3 L474.7,89.3 L485.8,89.3 L496.9,89.2 L508.0,89.2 L519.1,89.3 L530.2,89.3 L541.3,89.3 L552.4,89.3 L563.5,89.3 L574.6,89.3 L585.7,89.3 L596.8,89.3 L607.9,89.3 L619.0,120.2 L630.1,120.2 L641.2,120.2 L652.3,120.2 L663.4,120.2 L674.5,120.1 L685.6,120.1 L696.7,120.1 L707.8,120.1 L718.9,120.1 L730.0,120.1" fill="none" stroke="#3987e5" stroke-width="2" stroke-linejoin="round" stroke-linecap="round"/>
<circle cx="730.0" cy="120.1" r="6" fill="#1a1a19"/>
<circle cx="730.0" cy="120.1" r="4" fill="#3987e5"/>
<path d="M64.0,103.9 L75.1,103.9 L86.2,103.9 L97.3,103.9 L108.4,103.9 L119.5,103.9 L130.6,103.8 L141.7,103.8 L152.8,103.8 L163.9,103.8 L175.0,103.8 L186.1,103.8 L197.2,103.8 L208.3,103.8 L219.4,103.9 L230.5,103.9 L241.6,103.9 L252.7,103.9 L263.8,103.9 L274.9,103.9 L286.0,103.9 L297.1,103.9 L308.2,103.9 L319.3,103.9 L330.4,103.9 L341.5,103.9 L352.6,103.9 L363.7,103.9 L374.8,103.9 L385.9,103.9 L397.0,103.9 L408.1,103.9 L419.2,103.9 L430.3,104.2 L441.4,104.2 L452.5,104.2 L463.6,104.2 L474.7,104.1 L485.8,104.1 L496.9,104.2 L508.0,104.2 L519.1,104.2 L530.2,104.2 L541.3,104.2 L552.4,104.2 L563.5,104.2 L574.6,104.2 L585.7,104.2 L596.8,104.2 L607.9,104.2 L619.0,131.8 L630.1,131.8 L641.2,131.8 L652.3,131.8 L663.4,131.8 L674.5,131.8 L685.6,132.0 L696.7,132.0 L707.8,132.0 L718.9,132.0 L730.0,132.0" fill="none" stroke="#199e70" stroke-width="2" stroke-linejoin="round" stroke-linecap="round"/>
<circle cx="730.0" cy="132.0" r="6" fill="#1a1a19"/>
<circle cx="730.0" cy="132.0" r="4" fill="#199e70"/>
<path d="M64.0,92.1 L75.1,92.1 L86.2,92.1 L97.3,92.1 L108.4,92.1 L119.5,92.1 L130.6,92.1 L141.7,92.1 L152.8,92.1 L163.9,92.1 L175.0,92.1 L186.1,92.1 L197.2,92.1 L208.3,92.1 L219.4,92.1 L230.5,92.1 L241.6,92.1 L252.7,92.1 L263.8,92.1 L274.9,92.1 L286.0,92.1 L297.1,92.1 L308.2,92.1 L319.3,92.1 L330.4,92.1 L341.5,92.1 L352.6,92.1 L363.7,92.1 L374.8,92.1 L385.9,92.1 L397.0,92.1 L408.1,92.1 L419.2,92.1 L430.3,92.4 L441.4,92.4 L452.5,92.4 L463.6,92.4 L474.7,92.4 L485.8,92.4 L496.9,92.3 L508.0,92.3 L519.1,92.4 L530.2,92.4 L541.3,92.4 L552.4,92.4 L563.5,92.4 L574.6,92.4 L585.7,92.4 L596.8,92.4 L607.9,92.4 L619.0,120.0 L630.1,119.9 L641.2,119.9 L652.3,119.9 L663.4,119.9 L674.5,120.0 L685.6,120.0 L696.7,120.0 L707.8,120.0 L718.9,120.0 L730.0,120.0" fill="none" stroke="#c98500" stroke-width="2" stroke-linejoin="round" stroke-linecap="round"/>
<circle cx="730.0" cy="120.0" r="6" fill="#1a1a19"/>
<circle cx="730.0" cy="120.0" r="4" fill="#c98500"/>
<path d="M64.0,56.0 L75.1,56.0 L86.2,56.0 L97.3,56.0 L108.4,56.0 L119.5,56.0 L130.6,56.0 L141.7,56.0 L152.8,56.0 L163.9,56.0 L175.0,56.0 L186.1,56.0 L197.2,56.0 L208.3,56.0 L219.4,56.0 L230.5,56.0 L241.6,56.0 L252.7,56.0 L263.8,56.0 L274.9,56.0 L286.0,56.0 L297.1,56.0 L308.2,56.0 L319.3,56.0 L330.4,56.0 L341.5,56.0 L352.6,56.0 L363.7,56.0 L374.8,56.0 L385.9,56.0 L397.0,56.0 L408.1,56.0 L419.2,56.0 L430.3,56.3 L441.4,56.3 L452.5,56.3 L463.6,56.3 L474.7,56.3 L485.8,56.3 L496.9,56.2 L508.0,56.2 L519.1,56.3 L530.2,56.3 L541.3,56.3 L552.4,56.3 L563.5,56.3 L574.6,56.3 L585.7,56.3 L596.8,56.3 L607.9,56.3 L619.0,83.9 L630.1,83.9 L641.2,83.9 L652.3,83.9 L663.4,83.9 L674.5,83.9 L685.6,83.8 L696.7,83.8 L707.8,83.8 L718.9,83.8 L730.0,83.8" fill="none" stroke="#008300" stroke-width="2" stroke-linejoin="round" stroke-linecap="round"/>
<circle cx="730.0" cy="83.8" r="6" fill="#1a1a19"/>
<circle cx="730.0" cy="83.8" r="4" fill="#008300"/>
<path d="M64.0,227.6 L75.1,227.6 L86.2,227.6 L97.3,227.6 L108.4,227.6 L119.5,227.6 L130.6,227.6 L141.7,227.6 L152.8,227.6 L163.9,227.6 L175.0,227.6 L186.1,227.6 L197.2,227.6 L208.3,227.6 L219.4,227.6 L230.5,227.6 L241.6,227.6 L252.7,227.6 L263.8,227.6 L274.9,227.6 L286.0,227.6 L297.1,227.6 L308.2,227.6 L319.3,227.6 L330.4,227.6 L341.5,227.6 L352.6,227.6 L363.7,227.6 L374.8,227.6 L385.9,227.6 L397.0,227.6 L408.1,227.6 L419.2,227.6 L430.3,227.8 L441.4,227.8 L452.5,227.8 L463.6,227.8 L474.7,227.7 L485.8,227.7 L496.9,227.8 L508.0,227.8 L519.1,227.7 L530.2,227.7 L541.3,227.7 L552.4,227.7 L563.5,227.7 L574.6,227.7 L585.7,227.7 L596.8,227.7 L607.9,227.7 L619.0,227.7 L630.1,227.7 L641.2,227.7 L652.3,227.7 L663.4,227.7 L674.5,227.7 L685.6,227.8 L696.7,227.8 L707.8,227.8 L718.9,227.8 L730.0,227.8" fill="none" stroke="#9085e9" stroke-width="2" stroke-linejoin="round" stroke-linecap="round"/>
<circle cx="730.0" cy="227.8" r="6" fill="#1a1a19"/>
<circle cx="730.0" cy="227.8" r="4" fill="#9085e9"/>
<circle cx="745.0" cy="80.3" r="3.5" fill="#008300"/>
<text x="753.0" y="83.8" font-family='system-ui, -apple-system, "Segoe UI", sans-serif' font-size="11" fill="#ffffff">reverb</text>
<text x="753.0" y="95.8" font-family='system-ui, -apple-system, "Segoe UI", sans-serif' font-size="10" style="font-variant-numeric: tabular-nums" fill="#c3c2b7">44.9M</text>
<circle cx="745.0" cy="116.5" r="3.5" fill="#c98500"/>
<text x="753.0" y="120.0" font-family='system-ui, -apple-system, "Segoe UI", sans-serif' font-size="11" fill="#ffffff">echo</text>
<text x="753.0" y="132.0" font-family='system-ui, -apple-system, "Segoe UI", sans-serif' font-size="10" style="font-variant-numeric: tabular-nums" fill="#c3c2b7">37.6M</text>
<line x1="736.0" y1="120.1" x2="740.0" y2="148.0" stroke="#383835" stroke-width="1"/>
<circle cx="745.0" cy="144.5" r="3.5" fill="#3987e5"/>
<text x="753.0" y="148.0" font-family='system-ui, -apple-system, "Segoe UI", sans-serif' font-size="11" fill="#ffffff">auto-filter</text>
<text x="753.0" y="160.0" font-family='system-ui, -apple-system, "Segoe UI", sans-serif' font-size="10" style="font-variant-numeric: tabular-nums" fill="#c3c2b7">37.6M</text>
<line x1="736.0" y1="132.0" x2="740.0" y2="176.0" stroke="#383835" stroke-width="1"/>
<circle cx="745.0" cy="172.5" r="3.5" fill="#199e70"/>
<text x="753.0" y="176.0" font-family='system-ui, -apple-system, "Segoe UI", sans-serif' font-size="11" fill="#ffffff">autotune</text>
<text x="753.0" y="188.0" font-family='system-ui, -apple-system, "Segoe UI", sans-serif' font-size="10" style="font-variant-numeric: tabular-nums" fill="#c3c2b7">35.2M</text>
<circle cx="745.0" cy="224.3" r="3.5" fill="#9085e9"/>
<text x="753.0" y="227.8" font-family='system-ui, -apple-system, "Segoe UI", sans-serif' font-size="11" fill="#ffffff">sampler-arp</text>
<text x="753.0" y="239.8" font-family='system-ui, -apple-system, "Segoe UI", sans-serif' font-size="10" style="font-variant-numeric: tabular-nums" fill="#c3c2b7">15.8M</text>
</svg>