<svg xmlns="http://www.w3.org/2000/svg" width="880" height="340" viewBox="0 0 880 340" role="img" aria-label="Whole-instrument render cost">
<rect width="880" height="340" rx="6" fill="#1a1a19"/>
<text x="64" y="24" font-family='system-ui, -apple-system, "Segoe UI", sans-serif' font-size="14" font-weight="600" fill="#ffffff">Whole-instrument render cost</text>
<text x="64" y="41" font-family='system-ui, -apple-system, "Segoe UI", sans-serif' font-size="11" fill="#c3c2b7">render_block of 1 s of audio - callgrind instructions (Ir), per dev commit, 2026-07-12 to 2026-07-22</text>
<line x1="64" y1="306.0" x2="730" y2="306.0" stroke="#2c2c2a" stroke-width="1"/>
<text x="56" y="309.5" text-anchor="end" font-family='system-ui, -apple-system, "Segoe UI", sans-serif' font-size="11" style="font-variant-numeric: tabular-nums" fill="#898781">0</text>
<line x1="64" y1="207.1" x2="730" y2="207.1" stroke="#2c2c2a" stroke-width="1"/>
<text x="56" y="210.6" text-anchor="end" font-family='system-ui, -apple-system, "Segoe UI", sans-serif' font-size="11" style="font-variant-numeric: tabular-nums" fill="#898781">20</text>
<line x1="64" y1="108.2" x2="730" y2="108.2" stroke="#2c2c2a" stroke-width="1"/>
<text x="56" y="111.7" text-anchor="end" font-family='system-ui, -apple-system, "Segoe UI", sans-serif' font-size="11" style="font-variant-numeric: tabular-nums" fill="#898781">40</text>
<text x="56" y="46" text-anchor="end" font-family='system-ui, -apple-system, "Segoe UI", sans-serif' font-size="10" fill="#898781">Ir (M)</text>
<line x1="64" y1="306" x2="730" y2="306" stroke="#383835" stroke-width="1"/>
<text x="64.0" y="322" text-anchor="middle" font-family='system-ui, -apple-system, "Segoe UI", sans-serif' font-size="11" style="font-variant-numeric: tabular-nums" fill="#898781">07-12</text>
<text x="138.0" y="322" text-anchor="middle" font-family='system-ui, -apple-system, "Segoe UI", sans-serif' font-size="11" style="font-variant-numeric: tabular-nums" fill="#898781">07-14</text>
<text x="233.1" y="322" text-anchor="middle" font-family='system-ui, -apple-system, "Segoe UI", sans-serif' font-size="11" style="font-variant-numeric: tabular-nums" fill="#898781">07-17</text>
<text x="360.0" y="322" text-anchor="middle" font-family='system-ui, -apple-system, "Segoe UI", sans-serif' font-size="11" style="font-variant-numeric: tabular-nums" fill="#898781">07-19</text>
<text x="550.3" y="322" text-anchor="middle" font-family='system-ui, -apple-system, "Segoe UI", sans-serif' font-size="11" style="font-variant-numeric: tabular-nums" fill="#898781">07-21</text>
<path d="M64.0,88.9 L74.6,88.9 L85.1,88.9 L95.7,88.9 L106.3,88.9 L116.9,88.9 L127.4,88.9 L138.0,88.9 L148.6,88.9 L159.1,88.9 L169.7,88.9 L180.3,88.9 L190.9,88.9 L201.4,88.9 L212.0,88.9 L222.6,88.9 L233.1,88.9 L243.7,88.9 L254.3,88.9 L264.9,88.9 L275.4,88.9 L286.0,88.9 L296.6,88.9 L307.1,88.9 L317.7,88.9 L328.3,88.9 L338.9,88.9 L349.4,88.9 L360.0,89.0 L370.6,89.0 L381.1,89.0 L391.7,89.0 L402.3,89.0 L412.9,89.3 L423.4,89.3 L434.0,89.3 L444.6,89.3 L455.1,89.3 L465.7,89.3 L476.3,89.2 L486.9,89.2 L497.4,89.3 L508.0,89.3 L518.6,89.3 L529.1,89.3 L539.7,89.3 L550.3,89.3 L560.9,89.3 L571.4,89.3 L582.0,89.3 L592.6,120.2 L603.1,120.2 L613.7,120.2 L624.3,120.2 L634.9,120.2 L645.4,120.1 L656.0,120.1 L666.6,120.1 L677.1,120.1 L687.7,120.1 L698.3,120.1 L708.9,120.1 L719.4,120.1 L730.0,120.1" fill="none" stroke="#3987e5" stroke-width="2" stroke-linejoin="round" stroke-linecap="round"/>
<circle cx="730.0" cy="120.1" r="6" fill="#1a1a19"/>
<circle cx="730.0" cy="120.1" r="4" fill="#3987e5"/>
<path d="M64.0,103.9 L74.6,103.9 L85.1,103.9 L95.7,103.9 L106.3,103.9 L116.9,103.9 L127.4,103.8 L138.0,103.8 L148.6,103.8 L159.1,103.8 L169.7,103.8 L180.3,103.8 L190.9,103.8 L201.4,103.8 L212.0,103.9 L222.6,103.9 L233.1,103.9 L243.7,103.9 L254.3,103.9 L264.9,103.9 L275.4,103.9 L286.0,103.9 L296.6,103.9 L307.1,103.9 L317.7,103.9 L328.3,103.9 L338.9,103.9 L349.4,103.9 L360.0,103.9 L370.6,103.9 L381.1,103.9 L391.7,103.9 L402.3,103.9 L412.9,104.2 L423.4,104.2 L434.0,104.2 L444.6,104.2 L455.1,104.1 L465.7,104.1 L476.3,104.2 L486.9,104.2 L497.4,104.2 L508.0,104.2 L518.6,104.2 L529.1,104.2 L539.7,104.2 L550.3,104.2 L560.9,104.2 L571.4,104.2 L582.0,104.2 L592.6,131.8 L603.1,131.8 L613.7,131.8 L624.3,131.8 L634.9,131.8 L645.4,131.8 L656.0,132.0 L666.6,132.0 L677.1,132.0 L687.7,132.0 L698.3,132.0 L708.9,132.0 L719.4,132.0 L730.0,132.0" fill="none" stroke="#199e70" stroke-width="2" stroke-linejoin="round" stroke-linecap="round"/>
<circle cx="730.0" cy="132.0" r="6" fill="#1a1a19"/>
<circle cx="730.0" cy="132.0" r="4" fill="#199e70"/>
<path d="M64.0,92.1 L74.6,92.1 L85.1,92.1 L95.7,92.1 L106.3,92.1 L116.9,92.1 L127.4,92.1 L138.0,92.1 L148.6,92.1 L159.1,92.1 L169.7,92.1 L180.3,92.1 L190.9,92.1 L201.4,92.1 L212.0,92.1 L222.6,92.1 L233.1,92.1 L243.7,92.1 L254.3,92.1 L264.9,92.1 L275.4,92.1 L286.0,92.1 L296.6,92.1 L307.1,92.1 L317.7,92.1 L328.3,92.1 L338.9,92.1 L349.4,92.1 L360.0,92.1 L370.6,92.1 L381.1,92.1 L391.7,92.1 L402.3,92.1 L412.9,92.4 L423.4,92.4 L434.0,92.4 L444.6,92.4 L455.1,92.4 L465.7,92.4 L476.3,92.3 L486.9,92.3 L497.4,92.4 L508.0,92.4 L518.6,92.4 L529.1,92.4 L539.7,92.4 L550.3,92.4 L560.9,92.4 L571.4,92.4 L582.0,92.4 L592.6,120.0 L603.1,119.9 L613.7,119.9 L624.3,119.9 L634.9,119.9 L645.4,120.0 L656.0,120.0 L666.6,120.0 L677.1,120.0 L687.7,120.0 L698.3,120.0 L708.9,120.0 L719.4,120.0 L730.0,120.0" fill="none" stroke="#c98500" stroke-width="2" stroke-linejoin="round" stroke-linecap="round"/>
<circle cx="730.0" cy="120.0" r="6" fill="#1a1a19"/>
<circle cx="730.0" cy="120.0" r="4" fill="#c98500"/>
<path d="M64.0,56.0 L74.6,56.0 L85.1,56.0 L95.7,56.0 L106.3,56.0 L116.9,56.0 L127.4,56.0 L138.0,56.0 L148.6,56.0 L159.1,56.0 L169.7,56.0 L180.3,56.0 L190.9,56.0 L201.4,56.0 L212.0,56.0 L222.6,56.0 L233.1,56.0 L243.7,56.0 L254.3,56.0 L264.9,56.0 L275.4,56.0 L286.0,56.0 L296.6,56.0 L307.1,56.0 L317.7,56.0 L328.3,56.0 L338.9,56.0 L349.4,56.0 L360.0,56.0 L370.6,56.0 L381.1,56.0 L391.7,56.0 L402.3,56.0 L412.9,56.3 L423.4,56.3 L434.0,56.3 L444.6,56.3 L455.1,56.3 L465.7,56.3 L476.3,56.2 L486.9,56.2 L497.4,56.3 L508.0,56.3 L518.6,56.3 L529.1,56.3 L539.7,56.3 L550.3,56.3 L560.9,56.3 L571.4,56.3 L582.0,56.3 L592.6,83.9 L603.1,83.9 L613.7,83.9 L624.3,83.9 L634.9,83.9 L645.4,83.9 L656.0,83.8 L666.6,83.8 L677.1,83.8 L687.7,83.8 L698.3,83.8 L708.9,83.8 L719.4,83.8 L730.0,83.8" fill="none" stroke="#008300" stroke-width="2" stroke-linejoin="round" stroke-linecap="round"/>
<circle cx="730.0" cy="83.8" r="6" fill="#1a1a19"/>
<circle cx="730.0" cy="83.8" r="4" fill="#008300"/>
<path d="M64.0,227.6 L74.6,227.6 L85.1,227.6 L95.7,227.6 L106.3,227.6 L116.9,227.6 L127.4,227.6 L138.0,227.6 L148.6,227.6 L159.1,227.6 L169.7,227.6 L180.3,227.6 L190.9,227.6 L201.4,227.6 L212.0,227.6 L222.6,227.6 L233.1,227.6 L243.7,227.6 L254.3,227.6 L264.9,227.6 L275.4,227.6 L286.0,227.6 L296.6,227.6 L307.1,227.6 L317.7,227.6 L328.3,227.6 L338.9,227.6 L349.4,227.6 L360.0,227.6 L370.6,227.6 L381.1,227.6 L391.7,227.6 L402.3,227.6 L412.9,227.8 L423.4,227.8 L434.0,227.8 L444.6,227.8 L455.1,227.7 L465.7,227.7 L476.3,227.8 L486.9,227.8 L497.4,227.7 L508.0,227.7 L518.6,227.7 L529.1,227.7 L539.7,227.7 L550.3,227.7 L560.9,227.7 L571.4,227.7 L582.0,227.7 L592.6,227.7 L603.1,227.7 L613.7,227.7 L624.3,227.7 L634.9,227.7 L645.4,227.7 L656.0,227.8 L666.6,227.8 L677.1,227.8 L687.7,227.8 L698.3,227.8 L708.9,227.8 L719.4,227.8 L730.0,227.8" fill="none" stroke="#9085e9" stroke-width="2" stroke-linejoin="round" stroke-linecap="round"/>
<circle cx="730.0" cy="227.8" r="6" fill="#1a1a19"/>
<circle cx="730.0" cy="227.8" r="4" fill="#9085e9"/>
<circle cx="745.0" cy="80.3" r="3.5" fill="#008300"/>
<text x="753.0" y="83.8" font-family='system-ui, -apple-system, "Segoe UI", sans-serif' font-size="11" fill="#ffffff">reverb</text>
<text x="753.0" y="95.8" font-family='system-ui, -apple-system, "Segoe UI", sans-serif' font-size="10" style="font-variant-numeric: tabular-nums" fill="#c3c2b7">44.9M</text>
<circle cx="745.0" cy="116.5" r="3.5" fill="#c98500"/>
<text x="753.0" y="120.0" font-family='system-ui, -apple-system, "Segoe UI", sans-serif' font-size="11" fill="#ffffff">echo</text>
<text x="753.0" y="132.0" font-family='system-ui, -apple-system, "Segoe UI", sans-serif' font-size="10" style="font-variant-numeric: tabular-nums" fill="#c3c2b7">37.6M</text>
<line x1="736.0" y1="120.1" x2="740.0" y2="148.0" stroke="#383835" stroke-width="1"/>
<circle cx="745.0" cy="144.5" r="3.5" fill="#3987e5"/>
<text x="753.0" y="148.0" font-family='system-ui, -apple-system, "Segoe UI", sans-serif' font-size="11" fill="#ffffff">auto-filter</text>
<text x="753.0" y="160.0" font-family='system-ui, -apple-system, "Segoe UI", sans-serif' font-size="10" style="font-variant-numeric: tabular-nums" fill="#c3c2b7">37.6M</text>
<line x1="736.0" y1="132.0" x2="740.0" y2="176.0" stroke="#383835" stroke-width="1"/>
<circle cx="745.0" cy="172.5" r="3.5" fill="#199e70"/>
<text x="753.0" y="176.0" font-family='system-ui, -apple-system, "Segoe UI", sans-serif' font-size="11" fill="#ffffff">autotune</text>
<text x="753.0" y="188.0" font-family='system-ui, -apple-system, "Segoe UI", sans-serif' font-size="10" style="font-variant-numeric: tabular-nums" fill="#c3c2b7">35.2M</text>
<circle cx="745.0" cy="224.3" r="3.5" fill="#9085e9"/>
<text x="753.0" y="227.8" font-family='system-ui, -apple-system, "Segoe UI", sans-serif' font-size="11" fill="#ffffff">sampler-arp</text>
<text x="753.0" y="239.8" font-family='system-ui, -apple-system, "Segoe UI", sans-serif' font-size="10" style="font-variant-numeric: tabular-nums" fill="#c3c2b7">15.8M</text>
</svg>