<svg xmlns="http://www.w3.org/2000/svg" width="880" height="340" viewBox="0 0 880 340" role="img" aria-label="Whole-instrument render cost">
<rect width="880" height="340" rx="6" fill="#fcfcfb"/>
<text x="64" y="24" font-family='system-ui, -apple-system, "Segoe UI", sans-serif' font-size="14" font-weight="600" fill="#0b0b0b">Whole-instrument render cost</text>
<text x="64" y="41" font-family='system-ui, -apple-system, "Segoe UI", sans-serif' font-size="11" fill="#52514e">render_block of 1 s of audio - callgrind instructions (Ir), per main commit, 2026-06-28 to 2026-07-11</text>
<line x1="64" y1="306.0" x2="730" y2="306.0" stroke="#e1e0d9" stroke-width="1"/>
<text x="56" y="309.5" text-anchor="end" font-family='system-ui, -apple-system, "Segoe UI", sans-serif' font-size="11" style="font-variant-numeric: tabular-nums" fill="#898781">0</text>
<line x1="64" y1="228.2" x2="730" y2="228.2" stroke="#e1e0d9" stroke-width="1"/>
<text x="56" y="231.7" text-anchor="end" font-family='system-ui, -apple-system, "Segoe UI", sans-serif' font-size="11" style="font-variant-numeric: tabular-nums" fill="#898781">20</text>
<line x1="64" y1="150.4" x2="730" y2="150.4" stroke="#e1e0d9" stroke-width="1"/>
<text x="56" y="153.9" text-anchor="end" font-family='system-ui, -apple-system, "Segoe UI", sans-serif' font-size="11" style="font-variant-numeric: tabular-nums" fill="#898781">40</text>
<line x1="64" y1="72.6" x2="730" y2="72.6" stroke="#e1e0d9" stroke-width="1"/>
<text x="56" y="76.1" text-anchor="end" font-family='system-ui, -apple-system, "Segoe UI", sans-serif' font-size="11" style="font-variant-numeric: tabular-nums" fill="#898781">60</text>
<text x="56" y="46" text-anchor="end" font-family='system-ui, -apple-system, "Segoe UI", sans-serif' font-size="10" fill="#898781">Ir (M)</text>
<line x1="64" y1="306" x2="730" y2="306" stroke="#c3c2b7" stroke-width="1"/>
<text x="64.0" y="322" text-anchor="middle" font-family='system-ui, -apple-system, "Segoe UI", sans-serif' font-size="11" style="font-variant-numeric: tabular-nums" fill="#898781">06-28</text>
<text x="119.5" y="322" text-anchor="middle" font-family='system-ui, -apple-system, "Segoe UI", sans-serif' font-size="11" style="font-variant-numeric: tabular-nums" fill="#898781">06-30</text>
<text x="165.8" y="322" text-anchor="middle" font-family='system-ui, -apple-system, "Segoe UI", sans-serif' font-size="11" style="font-variant-numeric: tabular-nums" fill="#898781">07-02</text>
<text x="267.5" y="322" text-anchor="middle" font-family='system-ui, -apple-system, "Segoe UI", sans-serif' font-size="11" style="font-variant-numeric: tabular-nums" fill="#898781">07-04</text>
<text x="415.5" y="322" text-anchor="middle" font-family='system-ui, -apple-system, "Segoe UI", sans-serif' font-size="11" style="font-variant-numeric: tabular-nums" fill="#898781">07-07</text>
<text x="508.0" y="322" text-anchor="middle" font-family='system-ui, -apple-system, "Segoe UI", sans-serif' font-size="11" style="font-variant-numeric: tabular-nums" fill="#898781">07-09</text>
<text x="582.0" y="322" text-anchor="middle" font-family='system-ui, -apple-system, "Segoe UI", sans-serif' font-size="11" style="font-variant-numeric: tabular-nums" fill="#898781">07-11</text>
<path d="M64.0,72.9 L73.2,73.0 L82.5,80.1 L91.8,80.1 L101.0,94.2 L110.2,108.6 L119.5,108.6 L128.8,105.1 L138.0,105.4 L147.2,105.7 L156.5,105.7 L165.8,105.6 L175.0,105.5 L184.2,105.5 L193.5,105.5 L202.8,105.5" fill="none" stroke="#2a78d6" stroke-width="2" stroke-linejoin="round" stroke-linecap="round"/>
<path d="M221.2,105.7 L230.5,122.6 L239.8,122.6 L249.0,125.2 L258.2,125.0 L267.5,125.0 L276.8,125.0 L286.0,125.0 L295.2,125.0 L304.5,125.0 L313.8,124.3 L323.0,124.3 L332.2,124.3 L341.5,124.3 L350.8,124.3 L360.0,124.5 L369.2,124.5 L378.5,124.5 L387.8,127.9 L397.0,127.9 L406.2,127.9 L415.5,127.9 L424.8,127.9 L434.0,127.9 L443.2,127.9 L452.5,127.9 L461.8,127.9 L471.0,127.9 L480.2,127.9 L489.5,127.9 L498.8,127.9 L508.0,127.9 L517.2,127.9 L526.5,128.8 L535.8,128.8 L545.0,128.8 L554.2,128.2 L563.5,132.1 L572.8,132.1 L582.0,131.7 L591.2,135.3 L600.5,135.3 L609.8,135.3 L619.0,135.3 L628.2,135.3 L637.5,135.3 L646.8,135.3 L656.0,135.3 L665.2,135.3 L674.5,135.3 L683.8,135.3 L693.0,135.3 L702.2,135.3 L711.5,135.3 L720.8,135.3 L730.0,135.3" fill="none" stroke="#2a78d6" stroke-width="2" stroke-linejoin="round" stroke-linecap="round"/>
<circle cx="730.0" cy="135.3" r="6" fill="#fcfcfb"/>
<circle cx="730.0" cy="135.3" r="4" fill="#2a78d6"/>
<path d="M64.0,98.8 L73.2,98.9 L82.5,98.2 L91.8,98.2 L101.0,107.4 L110.2,120.8 L119.5,120.7 L128.8,117.1 L138.0,117.4 L147.2,117.8 L156.5,117.7 L165.8,117.7 L175.0,117.5 L184.2,117.7 L193.5,117.7 L202.8,117.7" fill="none" stroke="#1baf7a" stroke-width="2" stroke-linejoin="round" stroke-linecap="round"/>
<path d="M221.2,117.8 L230.5,134.9 L239.8,134.9 L249.0,136.9 L258.2,136.6 L267.5,136.6 L276.8,136.6 L286.0,136.6 L295.2,136.6 L304.5,136.6 L313.8,135.8 L323.0,135.8 L332.2,135.8 L341.5,135.8 L350.8,135.8 L360.0,136.0 L369.2,136.0 L378.5,136.0 L387.8,139.7 L397.0,139.7 L406.2,139.6 L415.5,139.6 L424.8,139.6 L434.0,139.6 L443.2,139.6 L452.5,139.6 L461.8,139.6 L471.0,139.6 L480.2,139.6 L489.5,139.6 L498.8,139.6 L508.0,139.6 L517.2,139.6 L526.5,140.5 L535.8,140.5 L545.0,140.5 L554.2,139.8 L563.5,143.5 L572.8,143.5 L582.0,143.5 L591.2,147.1 L600.5,147.1 L609.8,147.1 L619.0,147.1 L628.2,147.1 L637.5,147.1 L646.8,147.1 L656.0,147.1 L665.2,147.1 L674.5,147.1 L683.8,147.1 L693.0,147.1 L702.2,147.1 L711.5,147.1 L720.8,147.1 L730.0,147.1" fill="none" stroke="#1baf7a" stroke-width="2" stroke-linejoin="round" stroke-linecap="round"/>
<circle cx="730.0" cy="147.1" r="6" fill="#fcfcfb"/>
<circle cx="730.0" cy="147.1" r="4" fill="#1baf7a"/>
<path d="M64.0,83.1 L73.2,83.1 L82.5,82.4 L91.8,82.4 L101.0,95.7 L110.2,110.0 L119.5,109.9 L128.8,106.6 L138.0,106.9 L147.2,107.2 L156.5,107.2 L165.8,107.0 L175.0,107.1 L184.2,107.1 L193.5,107.1 L202.8,107.1" fill="none" stroke="#eda100" stroke-width="2" stroke-linejoin="round" stroke-linecap="round"/>
<path d="M221.2,107.2 L230.5,125.6 L239.8,125.6 L249.0,127.5 L258.2,127.3 L267.5,127.3 L276.8,127.3 L286.0,127.3 L295.2,127.3 L304.5,127.5 L313.8,126.6 L323.0,126.3 L332.2,126.3 L341.5,126.3 L350.8,126.3 L360.0,126.9 L369.2,126.9 L378.5,126.8 L387.8,130.5 L397.0,130.5 L406.2,130.3 L415.5,130.3 L424.8,130.4 L434.0,130.4 L443.2,130.4 L452.5,130.4 L461.8,130.4 L471.0,130.4 L480.2,130.4 L489.5,130.4 L498.8,130.4 L508.0,130.4 L517.2,130.4 L526.5,131.3 L535.8,131.4 L545.0,131.4 L554.2,130.7 L563.5,133.9 L572.8,133.9 L582.0,133.9 L591.2,137.8 L600.5,137.8 L609.8,137.8 L619.0,137.8 L628.2,137.8 L637.5,137.8 L646.8,137.8 L656.0,137.8 L665.2,137.8 L674.5,137.8 L683.8,137.8 L693.0,137.8 L702.2,137.8 L711.5,137.8 L720.8,137.8 L730.0,137.8" fill="none" stroke="#eda100" stroke-width="2" stroke-linejoin="round" stroke-linecap="round"/>
<circle cx="730.0" cy="137.8" r="6" fill="#fcfcfb"/>
<circle cx="730.0" cy="137.8" r="4" fill="#eda100"/>
<path d="M64.0,56.6 L73.2,56.6 L82.5,56.0 L91.8,56.0 L101.0,65.0 L110.2,82.2 L119.5,82.1 L128.8,78.6 L138.0,78.8 L147.2,79.3 L156.5,79.3 L165.8,79.2 L175.0,79.1 L184.2,79.2 L193.5,79.2 L202.8,79.2" fill="none" stroke="#008300" stroke-width="2" stroke-linejoin="round" stroke-linecap="round"/>
<path d="M221.2,79.2 L230.5,97.8 L239.8,97.8 L249.0,99.5 L258.2,99.2 L267.5,99.2 L276.8,99.2 L286.0,99.2 L295.2,99.2 L304.5,99.4 L313.8,98.8 L323.0,98.6 L332.2,98.6 L341.5,98.6 L350.8,98.6 L360.0,98.9 L369.2,98.9 L378.5,98.9 L387.8,102.4 L397.0,102.4 L406.2,102.3 L415.5,102.3 L424.8,102.4 L434.0,102.4 L443.2,102.4 L452.5,102.4 L461.8,102.4 L471.0,102.4 L480.2,102.4 L489.5,102.4 L498.8,102.4 L508.0,102.4 L517.2,102.4 L526.5,103.3 L535.8,103.3 L545.0,103.3 L554.2,102.7 L563.5,106.1 L572.8,106.1 L582.0,106.1 L591.2,109.4 L600.5,109.4 L609.8,109.4 L619.0,109.4 L628.2,109.4 L637.5,109.4 L646.8,109.4 L656.0,109.4 L665.2,109.4 L674.5,109.4 L683.8,109.4 L693.0,109.4 L702.2,109.4 L711.5,109.4 L720.8,109.4 L730.0,109.4" fill="none" stroke="#008300" stroke-width="2" stroke-linejoin="round" stroke-linecap="round"/>
<circle cx="730.0" cy="109.4" r="6" fill="#fcfcfb"/>
<circle cx="730.0" cy="109.4" r="4" fill="#008300"/>
<path d="M64.0,222.5 L73.2,222.4 L82.5,222.5 L91.8,222.5 L101.0,229.0 L110.2,236.2 L119.5,236.1 L128.8,234.3 L138.0,234.3 L147.2,234.5 L156.5,234.5 L165.8,234.7 L175.0,234.7 L184.2,234.6 L193.5,234.6 L202.8,234.6" fill="none" stroke="#4a3aa7" stroke-width="2" stroke-linejoin="round" stroke-linecap="round"/>
<path d="M221.2,234.6 L230.5,240.3 L239.8,240.3 L249.0,240.1 L258.2,239.7 L267.5,239.7 L276.8,239.7 L286.0,239.7 L295.2,239.7 L304.5,239.6 L313.8,239.1 L323.0,239.1 L332.2,239.1 L341.5,239.1 L350.8,239.1 L360.0,239.2 L369.2,239.2 L378.5,239.2 L387.8,239.1 L397.0,239.1 L406.2,239.0 L415.5,239.0 L424.8,239.1 L434.0,239.1 L443.2,239.1 L452.5,239.1 L461.8,239.1 L471.0,239.1 L480.2,239.1 L489.5,239.1 L498.8,239.1 L508.0,239.1 L517.2,239.0 L526.5,239.5 L535.8,239.6 L545.0,239.6 L554.2,239.4 L563.5,241.0 L572.8,241.1 L582.0,241.1 L591.2,244.4 L600.5,244.4 L609.8,244.4 L619.0,244.4 L628.2,244.4 L637.5,244.4 L646.8,244.4 L656.0,244.4 L665.2,244.4 L674.5,244.4 L683.8,244.4 L693.0,244.4 L702.2,244.4 L711.5,244.4 L720.8,244.4 L730.0,244.4" fill="none" stroke="#4a3aa7" stroke-width="2" stroke-linejoin="round" stroke-linecap="round"/>
<circle cx="730.0" cy="244.4" r="6" fill="#fcfcfb"/>
<circle cx="730.0" cy="244.4" r="4" fill="#4a3aa7"/>
<circle cx="745.0" cy="105.9" r="3.5" fill="#008300"/>
<text x="753.0" y="109.4" font-family='system-ui, -apple-system, "Segoe UI", sans-serif' font-size="11" fill="#0b0b0b">reverb</text>
<text x="753.0" y="121.4" font-family='system-ui, -apple-system, "Segoe UI", sans-serif' font-size="10" style="font-variant-numeric: tabular-nums" fill="#52514e">50.5M</text>
<circle cx="745.0" cy="133.9" r="3.5" fill="#2a78d6"/>
<text x="753.0" y="137.4" font-family='system-ui, -apple-system, "Segoe UI", sans-serif' font-size="11" fill="#0b0b0b">auto-filter</text>
<text x="753.0" y="149.4" font-family='system-ui, -apple-system, "Segoe UI", sans-serif' font-size="10" style="font-variant-numeric: tabular-nums" fill="#52514e">43.9M</text>
<line x1="736.0" y1="137.8" x2="740.0" y2="165.4" stroke="#c3c2b7" stroke-width="1"/>
<circle cx="745.0" cy="161.9" r="3.5" fill="#eda100"/>
<text x="753.0" y="165.4" font-family='system-ui, -apple-system, "Segoe UI", sans-serif' font-size="11" fill="#0b0b0b">echo</text>
<text x="753.0" y="177.4" font-family='system-ui, -apple-system, "Segoe UI", sans-serif' font-size="10" style="font-variant-numeric: tabular-nums" fill="#52514e">43.2M</text>
<line x1="736.0" y1="147.1" x2="740.0" y2="193.4" stroke="#c3c2b7" stroke-width="1"/>
<circle cx="745.0" cy="189.9" r="3.5" fill="#1baf7a"/>
<text x="753.0" y="193.4" font-family='system-ui, -apple-system, "Segoe UI", sans-serif' font-size="11" fill="#0b0b0b">autotune</text>
<text x="753.0" y="205.4" font-family='system-ui, -apple-system, "Segoe UI", sans-serif' font-size="10" style="font-variant-numeric: tabular-nums" fill="#52514e">40.9M</text>
<circle cx="745.0" cy="240.9" r="3.5" fill="#4a3aa7"/>
<text x="753.0" y="244.4" font-family='system-ui, -apple-system, "Segoe UI", sans-serif' font-size="11" fill="#0b0b0b">sampler-arp</text>
<text x="753.0" y="256.4" font-family='system-ui, -apple-system, "Segoe UI", sans-serif' font-size="10" style="font-variant-numeric: tabular-nums" fill="#52514e">15.8M</text>
</svg>