<svg xmlns="http://www.w3.org/2000/svg" width="880" height="340" viewBox="0 0 880 340" role="img" aria-label="Whole-instrument render cost">
<rect width="880" height="340" rx="6" fill="#fcfcfb"/>
<text x="64" y="24" font-family='system-ui, -apple-system, "Segoe UI", sans-serif' font-size="14" font-weight="600" fill="#0b0b0b">Whole-instrument render cost</text>
<text x="64" y="41" font-family='system-ui, -apple-system, "Segoe UI", sans-serif' font-size="11" fill="#52514e">render_block of 1 s of audio - callgrind instructions (Ir), per dev commit, 2026-07-12 to 2026-07-12</text>
<line x1="64" y1="306.0" x2="730" y2="306.0" stroke="#e1e0d9" stroke-width="1"/>
<text x="56" y="309.5" text-anchor="end" font-family='system-ui, -apple-system, "Segoe UI", sans-serif' font-size="11" style="font-variant-numeric: tabular-nums" fill="#898781">0</text>
<line x1="64" y1="207.1" x2="730" y2="207.1" stroke="#e1e0d9" stroke-width="1"/>
<text x="56" y="210.6" text-anchor="end" font-family='system-ui, -apple-system, "Segoe UI", sans-serif' font-size="11" style="font-variant-numeric: tabular-nums" fill="#898781">20</text>
<line x1="64" y1="108.2" x2="730" y2="108.2" stroke="#e1e0d9" stroke-width="1"/>
<text x="56" y="111.7" text-anchor="end" font-family='system-ui, -apple-system, "Segoe UI", sans-serif' font-size="11" style="font-variant-numeric: tabular-nums" fill="#898781">40</text>
<text x="56" y="46" text-anchor="end" font-family='system-ui, -apple-system, "Segoe UI", sans-serif' font-size="10" fill="#898781">Ir (M)</text>
<line x1="64" y1="306" x2="730" y2="306" stroke="#c3c2b7" stroke-width="1"/>
<text x="64.0" y="322" text-anchor="middle" font-family='system-ui, -apple-system, "Segoe UI", sans-serif' font-size="11" style="font-variant-numeric: tabular-nums" fill="#898781">07-12</text>
<circle cx="64.0" cy="88.9" r="2.5" fill="#2a78d6"/>
<circle cx="64.0" cy="88.9" r="6" fill="#fcfcfb"/>
<circle cx="64.0" cy="88.9" r="4" fill="#2a78d6"/>
<circle cx="64.0" cy="103.9" r="2.5" fill="#1baf7a"/>
<circle cx="64.0" cy="103.9" r="6" fill="#fcfcfb"/>
<circle cx="64.0" cy="103.9" r="4" fill="#1baf7a"/>
<circle cx="64.0" cy="92.1" r="2.5" fill="#eda100"/>
<circle cx="64.0" cy="92.1" r="6" fill="#fcfcfb"/>
<circle cx="64.0" cy="92.1" r="4" fill="#eda100"/>
<circle cx="64.0" cy="56.0" r="2.5" fill="#008300"/>
<circle cx="64.0" cy="56.0" r="6" fill="#fcfcfb"/>
<circle cx="64.0" cy="56.0" r="4" fill="#008300"/>
<circle cx="64.0" cy="227.6" r="2.5" fill="#4a3aa7"/>
<circle cx="64.0" cy="227.6" r="6" fill="#fcfcfb"/>
<circle cx="64.0" cy="227.6" r="4" fill="#4a3aa7"/>
<circle cx="79.0" cy="52.5" r="3.5" fill="#008300"/>
<text x="87.0" y="56.0" font-family='system-ui, -apple-system, "Segoe UI", sans-serif' font-size="11" fill="#0b0b0b">reverb</text>
<text x="87.0" y="68.0" font-family='system-ui, -apple-system, "Segoe UI", sans-serif' font-size="10" style="font-variant-numeric: tabular-nums" fill="#52514e">50.5M</text>
<circle cx="79.0" cy="85.4" r="3.5" fill="#2a78d6"/>
<text x="87.0" y="88.9" font-family='system-ui, -apple-system, "Segoe UI", sans-serif' font-size="11" fill="#0b0b0b">auto-filter</text>
<text x="87.0" y="100.9" font-family='system-ui, -apple-system, "Segoe UI", sans-serif' font-size="10" style="font-variant-numeric: tabular-nums" fill="#52514e">43.9M</text>
<line x1="70.0" y1="92.1" x2="74.0" y2="116.9" stroke="#c3c2b7" stroke-width="1"/>
<circle cx="79.0" cy="113.4" r="3.5" fill="#eda100"/>
<text x="87.0" y="116.9" font-family='system-ui, -apple-system, "Segoe UI", sans-serif' font-size="11" fill="#0b0b0b">echo</text>
<text x="87.0" y="128.9" font-family='system-ui, -apple-system, "Segoe UI", sans-serif' font-size="10" style="font-variant-numeric: tabular-nums" fill="#52514e">43.2M</text>
<line x1="70.0" y1="103.9" x2="74.0" y2="144.9" stroke="#c3c2b7" stroke-width="1"/>
<circle cx="79.0" cy="141.4" r="3.5" fill="#1baf7a"/>
<text x="87.0" y="144.9" font-family='system-ui, -apple-system, "Segoe UI", sans-serif' font-size="11" fill="#0b0b0b">autotune</text>
<text x="87.0" y="156.9" font-family='system-ui, -apple-system, "Segoe UI", sans-serif' font-size="10" style="font-variant-numeric: tabular-nums" fill="#52514e">40.9M</text>
<circle cx="79.0" cy="224.1" r="3.5" fill="#4a3aa7"/>
<text x="87.0" y="227.6" font-family='system-ui, -apple-system, "Segoe UI", sans-serif' font-size="11" fill="#0b0b0b">sampler-arp</text>
<text x="87.0" y="239.6" font-family='system-ui, -apple-system, "Segoe UI", sans-serif' font-size="10" style="font-variant-numeric: tabular-nums" fill="#52514e">15.8M</text>
</svg>