<svg xmlns="http://www.w3.org/2000/svg" width="880" height="340" viewBox="0 0 880 340" role="img" aria-label="Whole-instrument render cost">
<rect width="880" height="340" rx="6" fill="#1a1a19"/>
<text x="64" y="24" font-family='system-ui, -apple-system, "Segoe UI", sans-serif' font-size="14" font-weight="600" fill="#ffffff">Whole-instrument render cost</text>
<text x="64" y="41" font-family='system-ui, -apple-system, "Segoe UI", sans-serif' font-size="11" fill="#c3c2b7">render_block of 1 s of audio - callgrind instructions (Ir), per main commit, 2026-06-28 to 2026-07-07</text>
<line x1="64" y1="306.0" x2="730" y2="306.0" stroke="#2c2c2a" stroke-width="1"/>
<text x="56" y="309.5" text-anchor="end" font-family='system-ui, -apple-system, "Segoe UI", sans-serif' font-size="11" style="font-variant-numeric: tabular-nums" fill="#898781">0</text>
<line x1="64" y1="228.2" x2="730" y2="228.2" stroke="#2c2c2a" stroke-width="1"/>
<text x="56" y="231.7" text-anchor="end" font-family='system-ui, -apple-system, "Segoe UI", sans-serif' font-size="11" style="font-variant-numeric: tabular-nums" fill="#898781">20</text>
<line x1="64" y1="150.4" x2="730" y2="150.4" stroke="#2c2c2a" stroke-width="1"/>
<text x="56" y="153.9" text-anchor="end" font-family='system-ui, -apple-system, "Segoe UI", sans-serif' font-size="11" style="font-variant-numeric: tabular-nums" fill="#898781">40</text>
<line x1="64" y1="72.6" x2="730" y2="72.6" stroke="#2c2c2a" stroke-width="1"/>
<text x="56" y="76.1" text-anchor="end" font-family='system-ui, -apple-system, "Segoe UI", sans-serif' font-size="11" style="font-variant-numeric: tabular-nums" fill="#898781">60</text>
<text x="56" y="46" text-anchor="end" font-family='system-ui, -apple-system, "Segoe UI", sans-serif' font-size="10" fill="#898781">Ir (M)</text>
<line x1="64" y1="306" x2="730" y2="306" stroke="#383835" stroke-width="1"/>
<text x="64.0" y="322" text-anchor="middle" font-family='system-ui, -apple-system, "Segoe UI", sans-serif' font-size="11" style="font-variant-numeric: tabular-nums" fill="#898781">06-28</text>
<text x="163.9" y="322" text-anchor="middle" font-family='system-ui, -apple-system, "Segoe UI", sans-serif' font-size="11" style="font-variant-numeric: tabular-nums" fill="#898781">06-30</text>
<text x="247.2" y="322" text-anchor="middle" font-family='system-ui, -apple-system, "Segoe UI", sans-serif' font-size="11" style="font-variant-numeric: tabular-nums" fill="#898781">07-02</text>
<text x="430.3" y="322" text-anchor="middle" font-family='system-ui, -apple-system, "Segoe UI", sans-serif' font-size="11" style="font-variant-numeric: tabular-nums" fill="#898781">07-04</text>
<text x="696.7" y="322" text-anchor="middle" font-family='system-ui, -apple-system, "Segoe UI", sans-serif' font-size="11" style="font-variant-numeric: tabular-nums" fill="#898781">07-07</text>
<path d="M64.0,72.9 L80.7,73.0 L97.3,80.1 L114.0,80.1 L130.6,94.2 L147.2,108.6 L163.9,108.6 L180.6,105.1 L197.2,105.4 L213.8,105.7 L230.5,105.7 L247.2,105.6 L263.8,105.5 L280.4,105.5 L297.1,105.5 L313.8,105.5" fill="none" stroke="#3987e5" stroke-width="2" stroke-linejoin="round" stroke-linecap="round"/>
<path d="M347.1,105.7 L363.7,122.6 L380.4,122.6 L397.0,125.2 L413.6,125.0 L430.3,125.0 L446.9,125.0 L463.6,125.0 L480.2,125.0 L496.9,125.0 L513.5,124.3 L530.2,124.3 L546.9,124.3 L563.5,124.3 L580.1,124.3 L596.8,124.5 L613.5,124.5 L630.1,124.5 L646.8,127.9 L663.4,127.9 L680.0,127.9 L696.7,127.9 L713.4,127.9 L730.0,127.9" fill="none" stroke="#3987e5" stroke-width="2" stroke-linejoin="round" stroke-linecap="round"/>
<circle cx="730.0" cy="127.9" r="6" fill="#1a1a19"/>
<circle cx="730.0" cy="127.9" r="4" fill="#3987e5"/>
<path d="M64.0,98.8 L80.7,98.9 L97.3,98.2 L114.0,98.2 L130.6,107.4 L147.2,120.8 L163.9,120.7 L180.6,117.1 L197.2,117.4 L213.8,117.8 L230.5,117.7 L247.2,117.7 L263.8,117.5 L280.4,117.7 L297.1,117.7 L313.8,117.7" fill="none" stroke="#199e70" stroke-width="2" stroke-linejoin="round" stroke-linecap="round"/>
<path d="M347.1,117.8 L363.7,134.9 L380.4,134.9 L397.0,136.9 L413.6,136.6 L430.3,136.6 L446.9,136.6 L463.6,136.6 L480.2,136.6 L496.9,136.6 L513.5,135.8 L530.2,135.8 L546.9,135.8 L563.5,135.8 L580.1,135.8 L596.8,136.0 L613.5,136.0 L630.1,136.0 L646.8,139.7 L663.4,139.7 L680.0,139.6 L696.7,139.6 L713.4,139.6 L730.0,139.6" fill="none" stroke="#199e70" stroke-width="2" stroke-linejoin="round" stroke-linecap="round"/>
<circle cx="730.0" cy="139.6" r="6" fill="#1a1a19"/>
<circle cx="730.0" cy="139.6" r="4" fill="#199e70"/>
<path d="M64.0,83.1 L80.7,83.1 L97.3,82.4 L114.0,82.4 L130.6,95.7 L147.2,110.0 L163.9,109.9 L180.6,106.6 L197.2,106.9 L213.8,107.2 L230.5,107.2 L247.2,107.0 L263.8,107.1 L280.4,107.1 L297.1,107.1 L313.8,107.1" fill="none" stroke="#c98500" stroke-width="2" stroke-linejoin="round" stroke-linecap="round"/>
<path d="M347.1,107.2 L363.7,125.6 L380.4,125.6 L397.0,127.5 L413.6,127.3 L430.3,127.3 L446.9,127.3 L463.6,127.3 L480.2,127.3 L496.9,127.5 L513.5,126.6 L530.2,126.3 L546.9,126.3 L563.5,126.3 L580.1,126.3 L596.8,126.9 L613.5,126.9 L630.1,126.8 L646.8,130.5 L663.4,130.5 L680.0,130.3 L696.7,130.3 L713.4,130.4 L730.0,130.4" fill="none" stroke="#c98500" stroke-width="2" stroke-linejoin="round" stroke-linecap="round"/>
<circle cx="730.0" cy="130.4" r="6" fill="#1a1a19"/>
<circle cx="730.0" cy="130.4" r="4" fill="#c98500"/>
<path d="M64.0,56.6 L80.7,56.6 L97.3,56.0 L114.0,56.0 L130.6,65.0 L147.2,82.2 L163.9,82.1 L180.6,78.6 L197.2,78.8 L213.8,79.3 L230.5,79.3 L247.2,79.2 L263.8,79.1 L280.4,79.2 L297.1,79.2 L313.8,79.2" fill="none" stroke="#008300" stroke-width="2" stroke-linejoin="round" stroke-linecap="round"/>
<path d="M347.1,79.2 L363.7,97.8 L380.4,97.8 L397.0,99.5 L413.6,99.2 L430.3,99.2 L446.9,99.2 L463.6,99.2 L480.2,99.2 L496.9,99.4 L513.5,98.8 L530.2,98.6 L546.9,98.6 L563.5,98.6 L580.1,98.6 L596.8,98.9 L613.5,98.9 L630.1,98.9 L646.8,102.4 L663.4,102.4 L680.0,102.3 L696.7,102.3 L713.4,102.4 L730.0,102.4" fill="none" stroke="#008300" stroke-width="2" stroke-linejoin="round" stroke-linecap="round"/>
<circle cx="730.0" cy="102.4" r="6" fill="#1a1a19"/>
<circle cx="730.0" cy="102.4" r="4" fill="#008300"/>
<path d="M64.0,222.5 L80.7,222.4 L97.3,222.5 L114.0,222.5 L130.6,229.0 L147.2,236.2 L163.9,236.1 L180.6,234.3 L197.2,234.3 L213.8,234.5 L230.5,234.5 L247.2,234.7 L263.8,234.7 L280.4,234.6 L297.1,234.6 L313.8,234.6" fill="none" stroke="#9085e9" stroke-width="2" stroke-linejoin="round" stroke-linecap="round"/>
<path d="M347.1,234.6 L363.7,240.3 L380.4,240.3 L397.0,240.1 L413.6,239.7 L430.3,239.7 L446.9,239.7 L463.6,239.7 L480.2,239.7 L496.9,239.6 L513.5,239.1 L530.2,239.1 L546.9,239.1 L563.5,239.1 L580.1,239.1 L596.8,239.2 L613.5,239.2 L630.1,239.2 L646.8,239.1 L663.4,239.1 L680.0,239.0 L696.7,239.0 L713.4,239.1 L730.0,239.1" fill="none" stroke="#9085e9" stroke-width="2" stroke-linejoin="round" stroke-linecap="round"/>
<circle cx="730.0" cy="239.1" r="6" fill="#1a1a19"/>
<circle cx="730.0" cy="239.1" r="4" fill="#9085e9"/>
<circle cx="745.0" cy="98.9" r="3.5" fill="#008300"/>
<text x="753.0" y="102.4" font-family='system-ui, -apple-system, "Segoe UI", sans-serif' font-size="11" fill="#ffffff">reverb</text>
<text x="753.0" y="114.4" font-family='system-ui, -apple-system, "Segoe UI", sans-serif' font-size="10" style="font-variant-numeric: tabular-nums" fill="#c3c2b7">52.3M</text>
<circle cx="745.0" cy="126.9" r="3.5" fill="#3987e5"/>
<text x="753.0" y="130.4" font-family='system-ui, -apple-system, "Segoe UI", sans-serif' font-size="11" fill="#ffffff">auto-filter</text>
<text x="753.0" y="142.4" font-family='system-ui, -apple-system, "Segoe UI", sans-serif' font-size="10" style="font-variant-numeric: tabular-nums" fill="#c3c2b7">45.8M</text>
<line x1="736.0" y1="130.4" x2="740.0" y2="158.4" stroke="#383835" stroke-width="1"/>
<circle cx="745.0" cy="154.9" r="3.5" fill="#c98500"/>
<text x="753.0" y="158.4" font-family='system-ui, -apple-system, "Segoe UI", sans-serif' font-size="11" fill="#ffffff">echo</text>
<text x="753.0" y="170.4" font-family='system-ui, -apple-system, "Segoe UI", sans-serif' font-size="10" style="font-variant-numeric: tabular-nums" fill="#c3c2b7">45.2M</text>
<line x1="736.0" y1="139.6" x2="740.0" y2="186.4" stroke="#383835" stroke-width="1"/>
<circle cx="745.0" cy="182.9" r="3.5" fill="#199e70"/>
<text x="753.0" y="186.4" font-family='system-ui, -apple-system, "Segoe UI", sans-serif' font-size="11" fill="#ffffff">autotune</text>
<text x="753.0" y="198.4" font-family='system-ui, -apple-system, "Segoe UI", sans-serif' font-size="10" style="font-variant-numeric: tabular-nums" fill="#c3c2b7">42.8M</text>
<circle cx="745.0" cy="235.6" r="3.5" fill="#9085e9"/>
<text x="753.0" y="239.1" font-family='system-ui, -apple-system, "Segoe UI", sans-serif' font-size="11" fill="#ffffff">sampler-arp</text>
<text x="753.0" y="251.1" font-family='system-ui, -apple-system, "Segoe UI", sans-serif' font-size="10" style="font-variant-numeric: tabular-nums" fill="#c3c2b7">17.2M</text>
</svg>