<svg xmlns="http://www.w3.org/2000/svg" width="880" height="340" viewBox="0 0 880 340" role="img" aria-label="Whole-instrument render cost">
<rect width="880" height="340" rx="6" fill="#1a1a19"/>
<text x="64" y="24" font-family='system-ui, -apple-system, "Segoe UI", sans-serif' font-size="14" font-weight="600" fill="#ffffff">Whole-instrument render cost</text>
<text x="64" y="41" font-family='system-ui, -apple-system, "Segoe UI", sans-serif' font-size="11" fill="#c3c2b7">render_block of 1 s of audio - callgrind instructions (Ir), per dev commit, 2026-07-12 to 2026-07-18</text>
<line x1="64" y1="306.0" x2="730" y2="306.0" stroke="#2c2c2a" stroke-width="1"/>
<text x="56" y="309.5" text-anchor="end" font-family='system-ui, -apple-system, "Segoe UI", sans-serif' font-size="11" style="font-variant-numeric: tabular-nums" fill="#898781">0</text>
<line x1="64" y1="207.1" x2="730" y2="207.1" stroke="#2c2c2a" stroke-width="1"/>
<text x="56" y="210.6" text-anchor="end" font-family='system-ui, -apple-system, "Segoe UI", sans-serif' font-size="11" style="font-variant-numeric: tabular-nums" fill="#898781">20</text>
<line x1="64" y1="108.2" x2="730" y2="108.2" stroke="#2c2c2a" stroke-width="1"/>
<text x="56" y="111.7" text-anchor="end" font-family='system-ui, -apple-system, "Segoe UI", sans-serif' font-size="11" style="font-variant-numeric: tabular-nums" fill="#898781">40</text>
<text x="56" y="46" text-anchor="end" font-family='system-ui, -apple-system, "Segoe UI", sans-serif' font-size="10" fill="#898781">Ir (M)</text>
<line x1="64" y1="306" x2="730" y2="306" stroke="#383835" stroke-width="1"/>
<text x="64.0" y="322" text-anchor="middle" font-family='system-ui, -apple-system, "Segoe UI", sans-serif' font-size="11" style="font-variant-numeric: tabular-nums" fill="#898781">07-12</text>
<text x="245.6" y="322" text-anchor="middle" font-family='system-ui, -apple-system, "Segoe UI", sans-serif' font-size="11" style="font-variant-numeric: tabular-nums" fill="#898781">07-13</text>
<text x="275.9" y="322" text-anchor="middle" font-family='system-ui, -apple-system, "Segoe UI", sans-serif' font-size="11" style="font-variant-numeric: tabular-nums" fill="#898781">07-14</text>
<text x="306.2" y="322" text-anchor="middle" font-family='system-ui, -apple-system, "Segoe UI", sans-serif' font-size="11" style="font-variant-numeric: tabular-nums" fill="#898781">07-16</text>
<text x="548.4" y="322" text-anchor="middle" font-family='system-ui, -apple-system, "Segoe UI", sans-serif' font-size="11" style="font-variant-numeric: tabular-nums" fill="#898781">07-17</text>
<text x="730.0" y="322" text-anchor="middle" font-family='system-ui, -apple-system, "Segoe UI", sans-serif' font-size="11" style="font-variant-numeric: tabular-nums" fill="#898781">07-18</text>
<path d="M64.0,88.9 L94.3,88.9 L124.5,88.9 L154.8,88.9 L185.1,88.9 L215.4,88.9 L245.6,88.9 L275.9,88.9 L306.2,88.9 L336.5,88.9 L366.7,88.9 L397.0,88.9 L427.3,88.9 L457.5,88.9 L487.8,88.9 L518.1,88.9 L548.4,88.9 L578.6,88.9 L608.9,88.9 L639.2,88.9 L669.5,88.9 L699.7,88.9 L730.0,88.9" fill="none" stroke="#3987e5" stroke-width="2" stroke-linejoin="round" stroke-linecap="round"/>
<circle cx="730.0" cy="88.9" r="6" fill="#1a1a19"/>
<circle cx="730.0" cy="88.9" r="4" fill="#3987e5"/>
<path d="M64.0,103.9 L94.3,103.9 L124.5,103.9 L154.8,103.9 L185.1,103.9 L215.4,103.9 L245.6,103.8 L275.9,103.8 L306.2,103.8 L336.5,103.8 L366.7,103.8 L397.0,103.8 L427.3,103.8 L457.5,103.8 L487.8,103.9 L518.1,103.9 L548.4,103.9 L578.6,103.9 L608.9,103.9 L639.2,103.9 L669.5,103.9 L699.7,103.9 L730.0,103.9" fill="none" stroke="#199e70" stroke-width="2" stroke-linejoin="round" stroke-linecap="round"/>
<circle cx="730.0" cy="103.9" r="6" fill="#1a1a19"/>
<circle cx="730.0" cy="103.9" r="4" fill="#199e70"/>
<path d="M64.0,92.1 L94.3,92.1 L124.5,92.1 L154.8,92.1 L185.1,92.1 L215.4,92.1 L245.6,92.1 L275.9,92.1 L306.2,92.1 L336.5,92.1 L366.7,92.1 L397.0,92.1 L427.3,92.1 L457.5,92.1 L487.8,92.1 L518.1,92.1 L548.4,92.1 L578.6,92.1 L608.9,92.1 L639.2,92.1 L669.5,92.1 L699.7,92.1 L730.0,92.1" fill="none" stroke="#c98500" stroke-width="2" stroke-linejoin="round" stroke-linecap="round"/>
<circle cx="730.0" cy="92.1" r="6" fill="#1a1a19"/>
<circle cx="730.0" cy="92.1" r="4" fill="#c98500"/>
<path d="M64.0,56.0 L94.3,56.0 L124.5,56.0 L154.8,56.0 L185.1,56.0 L215.4,56.0 L245.6,56.0 L275.9,56.0 L306.2,56.0 L336.5,56.0 L366.7,56.0 L397.0,56.0 L427.3,56.0 L457.5,56.0 L487.8,56.0 L518.1,56.0 L548.4,56.0 L578.6,56.0 L608.9,56.0 L639.2,56.0 L669.5,56.0 L699.7,56.0 L730.0,56.0" fill="none" stroke="#008300" stroke-width="2" stroke-linejoin="round" stroke-linecap="round"/>
<circle cx="730.0" cy="56.0" r="6" fill="#1a1a19"/>
<circle cx="730.0" cy="56.0" r="4" fill="#008300"/>
<path d="M64.0,227.6 L94.3,227.6 L124.5,227.6 L154.8,227.6 L185.1,227.6 L215.4,227.6 L245.6,227.6 L275.9,227.6 L306.2,227.6 L336.5,227.6 L366.7,227.6 L397.0,227.6 L427.3,227.6 L457.5,227.6 L487.8,227.6 L518.1,227.6 L548.4,227.6 L578.6,227.6 L608.9,227.6 L639.2,227.6 L669.5,227.6 L699.7,227.6 L730.0,227.6" fill="none" stroke="#9085e9" stroke-width="2" stroke-linejoin="round" stroke-linecap="round"/>
<circle cx="730.0" cy="227.6" r="6" fill="#1a1a19"/>
<circle cx="730.0" cy="227.6" r="4" fill="#9085e9"/>
<circle cx="745.0" cy="52.5" r="3.5" fill="#008300"/>
<text x="753.0" y="56.0" font-family='system-ui, -apple-system, "Segoe UI", sans-serif' font-size="11" fill="#ffffff">reverb</text>
<text x="753.0" y="68.0" font-family='system-ui, -apple-system, "Segoe UI", sans-serif' font-size="10" style="font-variant-numeric: tabular-nums" fill="#c3c2b7">50.5M</text>
<circle cx="745.0" cy="85.4" r="3.5" fill="#3987e5"/>
<text x="753.0" y="88.9" font-family='system-ui, -apple-system, "Segoe UI", sans-serif' font-size="11" fill="#ffffff">auto-filter</text>
<text x="753.0" y="100.9" font-family='system-ui, -apple-system, "Segoe UI", sans-serif' font-size="10" style="font-variant-numeric: tabular-nums" fill="#c3c2b7">43.9M</text>
<line x1="736.0" y1="92.1" x2="740.0" y2="116.9" stroke="#383835" stroke-width="1"/>
<circle cx="745.0" cy="113.4" r="3.5" fill="#c98500"/>
<text x="753.0" y="116.9" font-family='system-ui, -apple-system, "Segoe UI", sans-serif' font-size="11" fill="#ffffff">echo</text>
<text x="753.0" y="128.9" font-family='system-ui, -apple-system, "Segoe UI", sans-serif' font-size="10" style="font-variant-numeric: tabular-nums" fill="#c3c2b7">43.2M</text>
<line x1="736.0" y1="103.9" x2="740.0" y2="144.9" stroke="#383835" stroke-width="1"/>
<circle cx="745.0" cy="141.4" r="3.5" fill="#199e70"/>
<text x="753.0" y="144.9" font-family='system-ui, -apple-system, "Segoe UI", sans-serif' font-size="11" fill="#ffffff">autotune</text>
<text x="753.0" y="156.9" font-family='system-ui, -apple-system, "Segoe UI", sans-serif' font-size="10" style="font-variant-numeric: tabular-nums" fill="#c3c2b7">40.9M</text>
<circle cx="745.0" cy="224.1" r="3.5" fill="#9085e9"/>
<text x="753.0" y="227.6" font-family='system-ui, -apple-system, "Segoe UI", sans-serif' font-size="11" fill="#ffffff">sampler-arp</text>
<text x="753.0" y="239.6" font-family='system-ui, -apple-system, "Segoe UI", sans-serif' font-size="10" style="font-variant-numeric: tabular-nums" fill="#c3c2b7">15.9M</text>
</svg>