<svg xmlns="http://www.w3.org/2000/svg" width="880" height="340" viewBox="0 0 880 340" role="img" aria-label="Whole-instrument render cost">
<rect width="880" height="340" rx="6" fill="#fcfcfb"/>
<text x="64" y="24" font-family='system-ui, -apple-system, "Segoe UI", sans-serif' font-size="14" font-weight="600" fill="#0b0b0b">Whole-instrument render cost</text>
<text x="64" y="41" font-family='system-ui, -apple-system, "Segoe UI", sans-serif' font-size="11" fill="#52514e">render_block of 1 s of audio - callgrind instructions (Ir), per main commit, 2026-06-28 to 2026-07-10</text>
<line x1="64" y1="306.0" x2="730" y2="306.0" stroke="#e1e0d9" stroke-width="1"/>
<text x="56" y="309.5" text-anchor="end" font-family='system-ui, -apple-system, "Segoe UI", sans-serif' font-size="11" style="font-variant-numeric: tabular-nums" fill="#898781">0</text>
<line x1="64" y1="228.2" x2="730" y2="228.2" stroke="#e1e0d9" stroke-width="1"/>
<text x="56" y="231.7" text-anchor="end" font-family='system-ui, -apple-system, "Segoe UI", sans-serif' font-size="11" style="font-variant-numeric: tabular-nums" fill="#898781">20</text>
<line x1="64" y1="150.4" x2="730" y2="150.4" stroke="#e1e0d9" stroke-width="1"/>
<text x="56" y="153.9" text-anchor="end" font-family='system-ui, -apple-system, "Segoe UI", sans-serif' font-size="11" style="font-variant-numeric: tabular-nums" fill="#898781">40</text>
<line x1="64" y1="72.6" x2="730" y2="72.6" stroke="#e1e0d9" stroke-width="1"/>
<text x="56" y="76.1" text-anchor="end" font-family='system-ui, -apple-system, "Segoe UI", sans-serif' font-size="11" style="font-variant-numeric: tabular-nums" fill="#898781">60</text>
<text x="56" y="46" text-anchor="end" font-family='system-ui, -apple-system, "Segoe UI", sans-serif' font-size="10" fill="#898781">Ir (M)</text>
<line x1="64" y1="306" x2="730" y2="306" stroke="#c3c2b7" stroke-width="1"/>
<text x="64.0" y="322" text-anchor="middle" font-family='system-ui, -apple-system, "Segoe UI", sans-serif' font-size="11" style="font-variant-numeric: tabular-nums" fill="#898781">06-28</text>
<text x="142.4" y="322" text-anchor="middle" font-family='system-ui, -apple-system, "Segoe UI", sans-serif' font-size="11" style="font-variant-numeric: tabular-nums" fill="#898781">06-30</text>
<text x="207.6" y="322" text-anchor="middle" font-family='system-ui, -apple-system, "Segoe UI", sans-serif' font-size="11" style="font-variant-numeric: tabular-nums" fill="#898781">07-02</text>
<text x="351.3" y="322" text-anchor="middle" font-family='system-ui, -apple-system, "Segoe UI", sans-serif' font-size="11" style="font-variant-numeric: tabular-nums" fill="#898781">07-04</text>
<text x="560.2" y="322" text-anchor="middle" font-family='system-ui, -apple-system, "Segoe UI", sans-serif' font-size="11" style="font-variant-numeric: tabular-nums" fill="#898781">07-07</text>
<text x="690.8" y="322" text-anchor="middle" font-family='system-ui, -apple-system, "Segoe UI", sans-serif' font-size="11" style="font-variant-numeric: tabular-nums" fill="#898781">07-09</text>
<path d="M64.0,72.9 L77.1,73.0 L90.1,80.1 L103.2,80.1 L116.2,94.2 L129.3,108.6 L142.4,108.6 L155.4,105.1 L168.5,105.4 L181.5,105.7 L194.6,105.7 L207.6,105.6 L220.7,105.5 L233.8,105.5 L246.8,105.5 L259.9,105.5" fill="none" stroke="#2a78d6" stroke-width="2" stroke-linejoin="round" stroke-linecap="round"/>
<path d="M286.0,105.7 L299.1,122.6 L312.1,122.6 L325.2,125.2 L338.2,125.0 L351.3,125.0 L364.4,125.0 L377.4,125.0 L390.5,125.0 L403.5,125.0 L416.6,124.3 L429.6,124.3 L442.7,124.3 L455.8,124.3 L468.8,124.3 L481.9,124.5 L494.9,124.5 L508.0,124.5 L521.1,127.9 L534.1,127.9 L547.2,127.9 L560.2,127.9 L573.3,127.9 L586.4,127.9 L599.4,127.9 L612.5,127.9 L625.5,127.9 L638.6,127.9 L651.6,127.9 L664.7,127.9 L677.8,127.9 L690.8,127.9 L703.9,127.9 L716.9,128.8 L730.0,128.8" fill="none" stroke="#2a78d6" stroke-width="2" stroke-linejoin="round" stroke-linecap="round"/>
<circle cx="730.0" cy="128.8" r="6" fill="#fcfcfb"/>
<circle cx="730.0" cy="128.8" r="4" fill="#2a78d6"/>
<path d="M64.0,98.8 L77.1,98.9 L90.1,98.2 L103.2,98.2 L116.2,107.4 L129.3,120.8 L142.4,120.7 L155.4,117.1 L168.5,117.4 L181.5,117.8 L194.6,117.7 L207.6,117.7 L220.7,117.5 L233.8,117.7 L246.8,117.7 L259.9,117.7" fill="none" stroke="#1baf7a" stroke-width="2" stroke-linejoin="round" stroke-linecap="round"/>
<path d="M286.0,117.8 L299.1,134.9 L312.1,134.9 L325.2,136.9 L338.2,136.6 L351.3,136.6 L364.4,136.6 L377.4,136.6 L390.5,136.6 L403.5,136.6 L416.6,135.8 L429.6,135.8 L442.7,135.8 L455.8,135.8 L468.8,135.8 L481.9,136.0 L494.9,136.0 L508.0,136.0 L521.1,139.7 L534.1,139.7 L547.2,139.6 L560.2,139.6 L573.3,139.6 L586.4,139.6 L599.4,139.6 L612.5,139.6 L625.5,139.6 L638.6,139.6 L651.6,139.6 L664.7,139.6 L677.8,139.6 L690.8,139.6 L703.9,139.6 L716.9,140.5 L730.0,140.5" fill="none" stroke="#1baf7a" stroke-width="2" stroke-linejoin="round" stroke-linecap="round"/>
<circle cx="730.0" cy="140.5" r="6" fill="#fcfcfb"/>
<circle cx="730.0" cy="140.5" r="4" fill="#1baf7a"/>
<path d="M64.0,83.1 L77.1,83.1 L90.1,82.4 L103.2,82.4 L116.2,95.7 L129.3,110.0 L142.4,109.9 L155.4,106.6 L168.5,106.9 L181.5,107.2 L194.6,107.2 L207.6,107.0 L220.7,107.1 L233.8,107.1 L246.8,107.1 L259.9,107.1" fill="none" stroke="#eda100" stroke-width="2" stroke-linejoin="round" stroke-linecap="round"/>
<path d="M286.0,107.2 L299.1,125.6 L312.1,125.6 L325.2,127.5 L338.2,127.3 L351.3,127.3 L364.4,127.3 L377.4,127.3 L390.5,127.3 L403.5,127.5 L416.6,126.6 L429.6,126.3 L442.7,126.3 L455.8,126.3 L468.8,126.3 L481.9,126.9 L494.9,126.9 L508.0,126.8 L521.1,130.5 L534.1,130.5 L547.2,130.3 L560.2,130.3 L573.3,130.4 L586.4,130.4 L599.4,130.4 L612.5,130.4 L625.5,130.4 L638.6,130.4 L651.6,130.4 L664.7,130.4 L677.8,130.4 L690.8,130.4 L703.9,130.4 L716.9,131.3 L730.0,131.4" fill="none" stroke="#eda100" stroke-width="2" stroke-linejoin="round" stroke-linecap="round"/>
<circle cx="730.0" cy="131.4" r="6" fill="#fcfcfb"/>
<circle cx="730.0" cy="131.4" r="4" fill="#eda100"/>
<path d="M64.0,56.6 L77.1,56.6 L90.1,56.0 L103.2,56.0 L116.2,65.0 L129.3,82.2 L142.4,82.1 L155.4,78.6 L168.5,78.8 L181.5,79.3 L194.6,79.3 L207.6,79.2 L220.7,79.1 L233.8,79.2 L246.8,79.2 L259.9,79.2" fill="none" stroke="#008300" stroke-width="2" stroke-linejoin="round" stroke-linecap="round"/>
<path d="M286.0,79.2 L299.1,97.8 L312.1,97.8 L325.2,99.5 L338.2,99.2 L351.3,99.2 L364.4,99.2 L377.4,99.2 L390.5,99.2 L403.5,99.4 L416.6,98.8 L429.6,98.6 L442.7,98.6 L455.8,98.6 L468.8,98.6 L481.9,98.9 L494.9,98.9 L508.0,98.9 L521.1,102.4 L534.1,102.4 L547.2,102.3 L560.2,102.3 L573.3,102.4 L586.4,102.4 L599.4,102.4 L612.5,102.4 L625.5,102.4 L638.6,102.4 L651.6,102.4 L664.7,102.4 L677.8,102.4 L690.8,102.4 L703.9,102.4 L716.9,103.3 L730.0,103.3" fill="none" stroke="#008300" stroke-width="2" stroke-linejoin="round" stroke-linecap="round"/>
<circle cx="730.0" cy="103.3" r="6" fill="#fcfcfb"/>
<circle cx="730.0" cy="103.3" r="4" fill="#008300"/>
<path d="M64.0,222.5 L77.1,222.4 L90.1,222.5 L103.2,222.5 L116.2,229.0 L129.3,236.2 L142.4,236.1 L155.4,234.3 L168.5,234.3 L181.5,234.5 L194.6,234.5 L207.6,234.7 L220.7,234.7 L233.8,234.6 L246.8,234.6 L259.9,234.6" fill="none" stroke="#4a3aa7" stroke-width="2" stroke-linejoin="round" stroke-linecap="round"/>
<path d="M286.0,234.6 L299.1,240.3 L312.1,240.3 L325.2,240.1 L338.2,239.7 L351.3,239.7 L364.4,239.7 L377.4,239.7 L390.5,239.7 L403.5,239.6 L416.6,239.1 L429.6,239.1 L442.7,239.1 L455.8,239.1 L468.8,239.1 L481.9,239.2 L494.9,239.2 L508.0,239.2 L521.1,239.1 L534.1,239.1 L547.2,239.0 L560.2,239.0 L573.3,239.1 L586.4,239.1 L599.4,239.1 L612.5,239.1 L625.5,239.1 L638.6,239.1 L651.6,239.1 L664.7,239.1 L677.8,239.1 L690.8,239.1 L703.9,239.0 L716.9,239.5 L730.0,239.6" fill="none" stroke="#4a3aa7" stroke-width="2" stroke-linejoin="round" stroke-linecap="round"/>
<circle cx="730.0" cy="239.6" r="6" fill="#fcfcfb"/>
<circle cx="730.0" cy="239.6" r="4" fill="#4a3aa7"/>
<circle cx="745.0" cy="99.8" r="3.5" fill="#008300"/>
<text x="753.0" y="103.3" font-family='system-ui, -apple-system, "Segoe UI", sans-serif' font-size="11" fill="#0b0b0b">reverb</text>
<text x="753.0" y="115.3" font-family='system-ui, -apple-system, "Segoe UI", sans-serif' font-size="10" style="font-variant-numeric: tabular-nums" fill="#52514e">52.1M</text>
<circle cx="745.0" cy="127.8" r="3.5" fill="#2a78d6"/>
<text x="753.0" y="131.3" font-family='system-ui, -apple-system, "Segoe UI", sans-serif' font-size="11" fill="#0b0b0b">auto-filter</text>
<text x="753.0" y="143.3" font-family='system-ui, -apple-system, "Segoe UI", sans-serif' font-size="10" style="font-variant-numeric: tabular-nums" fill="#52514e">45.5M</text>
<line x1="736.0" y1="131.4" x2="740.0" y2="159.3" stroke="#c3c2b7" stroke-width="1"/>
<circle cx="745.0" cy="155.8" r="3.5" fill="#eda100"/>
<text x="753.0" y="159.3" font-family='system-ui, -apple-system, "Segoe UI", sans-serif' font-size="11" fill="#0b0b0b">echo</text>
<text x="753.0" y="171.3" font-family='system-ui, -apple-system, "Segoe UI", sans-serif' font-size="10" style="font-variant-numeric: tabular-nums" fill="#52514e">44.9M</text>
<line x1="736.0" y1="140.5" x2="740.0" y2="187.3" stroke="#c3c2b7" stroke-width="1"/>
<circle cx="745.0" cy="183.8" r="3.5" fill="#1baf7a"/>
<text x="753.0" y="187.3" font-family='system-ui, -apple-system, "Segoe UI", sans-serif' font-size="11" fill="#0b0b0b">autotune</text>
<text x="753.0" y="199.3" font-family='system-ui, -apple-system, "Segoe UI", sans-serif' font-size="10" style="font-variant-numeric: tabular-nums" fill="#52514e">42.5M</text>
<circle cx="745.0" cy="236.1" r="3.5" fill="#4a3aa7"/>
<text x="753.0" y="239.6" font-family='system-ui, -apple-system, "Segoe UI", sans-serif' font-size="11" fill="#0b0b0b">sampler-arp</text>
<text x="753.0" y="251.6" font-family='system-ui, -apple-system, "Segoe UI", sans-serif' font-size="10" style="font-variant-numeric: tabular-nums" fill="#52514e">17.1M</text>
</svg>