<svg xmlns="http://www.w3.org/2000/svg" width="880" height="340" viewBox="0 0 880 340" role="img" aria-label="Whole-instrument render cost">
<rect width="880" height="340" rx="6" fill="#fcfcfb"/>
<text x="64" y="24" font-family='system-ui, -apple-system, "Segoe UI", sans-serif' font-size="14" font-weight="600" fill="#0b0b0b">Whole-instrument render cost</text>
<text x="64" y="41" font-family='system-ui, -apple-system, "Segoe UI", sans-serif' font-size="11" fill="#52514e">render_block of 1 s of audio - callgrind instructions (Ir), per dev commit, 2026-07-12 to 2026-07-22</text>
<line x1="64" y1="306.0" x2="730" y2="306.0" stroke="#e1e0d9" stroke-width="1"/>
<text x="56" y="309.5" text-anchor="end" font-family='system-ui, -apple-system, "Segoe UI", sans-serif' font-size="11" style="font-variant-numeric: tabular-nums" fill="#898781">0</text>
<line x1="64" y1="207.1" x2="730" y2="207.1" stroke="#e1e0d9" stroke-width="1"/>
<text x="56" y="210.6" text-anchor="end" font-family='system-ui, -apple-system, "Segoe UI", sans-serif' font-size="11" style="font-variant-numeric: tabular-nums" fill="#898781">20</text>
<line x1="64" y1="108.2" x2="730" y2="108.2" stroke="#e1e0d9" stroke-width="1"/>
<text x="56" y="111.7" text-anchor="end" font-family='system-ui, -apple-system, "Segoe UI", sans-serif' font-size="11" style="font-variant-numeric: tabular-nums" fill="#898781">40</text>
<text x="56" y="46" text-anchor="end" font-family='system-ui, -apple-system, "Segoe UI", sans-serif' font-size="10" fill="#898781">Ir (M)</text>
<line x1="64" y1="306" x2="730" y2="306" stroke="#c3c2b7" stroke-width="1"/>
<text x="64.0" y="322" text-anchor="middle" font-family='system-ui, -apple-system, "Segoe UI", sans-serif' font-size="11" style="font-variant-numeric: tabular-nums" fill="#898781">07-12</text>
<text x="139.2" y="322" text-anchor="middle" font-family='system-ui, -apple-system, "Segoe UI", sans-serif' font-size="11" style="font-variant-numeric: tabular-nums" fill="#898781">07-14</text>
<text x="235.9" y="322" text-anchor="middle" font-family='system-ui, -apple-system, "Segoe UI", sans-serif' font-size="11" style="font-variant-numeric: tabular-nums" fill="#898781">07-17</text>
<text x="364.8" y="322" text-anchor="middle" font-family='system-ui, -apple-system, "Segoe UI", sans-serif' font-size="11" style="font-variant-numeric: tabular-nums" fill="#898781">07-19</text>
<text x="558.1" y="322" text-anchor="middle" font-family='system-ui, -apple-system, "Segoe UI", sans-serif' font-size="11" style="font-variant-numeric: tabular-nums" fill="#898781">07-21</text>
<path d="M64.0,88.9 L74.7,88.9 L85.5,88.9 L96.2,88.9 L107.0,88.9 L117.7,88.9 L128.5,88.9 L139.2,88.9 L149.9,88.9 L160.7,88.9 L171.4,88.9 L182.2,88.9 L192.9,88.9 L203.6,88.9 L214.4,88.9 L225.1,88.9 L235.9,88.9 L246.6,88.9 L257.4,88.9 L268.1,88.9 L278.8,88.9 L289.6,88.9 L300.3,88.9 L311.1,88.9 L321.8,88.9 L332.5,88.9 L343.3,88.9 L354.0,88.9 L364.8,89.0 L375.5,89.0 L386.3,89.0 L397.0,89.0 L407.7,89.0 L418.5,89.3 L429.2,89.3 L440.0,89.3 L450.7,89.3 L461.5,89.3 L472.2,89.3 L482.9,89.2 L493.7,89.2 L504.4,89.3 L515.2,89.3 L525.9,89.3 L536.6,89.3 L547.4,89.3 L558.1,89.3 L568.9,89.3 L579.6,89.3 L590.4,89.3 L601.1,120.2 L611.8,120.2 L622.6,120.2 L633.3,120.2 L644.1,120.2 L654.8,120.1 L665.5,120.1 L676.3,120.1 L687.0,120.1 L697.8,120.1 L708.5,120.1 L719.3,120.1 L730.0,120.1" fill="none" stroke="#2a78d6" stroke-width="2" stroke-linejoin="round" stroke-linecap="round"/>
<circle cx="730.0" cy="120.1" r="6" fill="#fcfcfb"/>
<circle cx="730.0" cy="120.1" r="4" fill="#2a78d6"/>
<path d="M64.0,103.9 L74.7,103.9 L85.5,103.9 L96.2,103.9 L107.0,103.9 L117.7,103.9 L128.5,103.8 L139.2,103.8 L149.9,103.8 L160.7,103.8 L171.4,103.8 L182.2,103.8 L192.9,103.8 L203.6,103.8 L214.4,103.9 L225.1,103.9 L235.9,103.9 L246.6,103.9 L257.4,103.9 L268.1,103.9 L278.8,103.9 L289.6,103.9 L300.3,103.9 L311.1,103.9 L321.8,103.9 L332.5,103.9 L343.3,103.9 L354.0,103.9 L364.8,103.9 L375.5,103.9 L386.3,103.9 L397.0,103.9 L407.7,103.9 L418.5,104.2 L429.2,104.2 L440.0,104.2 L450.7,104.2 L461.5,104.1 L472.2,104.1 L482.9,104.2 L493.7,104.2 L504.4,104.2 L515.2,104.2 L525.9,104.2 L536.6,104.2 L547.4,104.2 L558.1,104.2 L568.9,104.2 L579.6,104.2 L590.4,104.2 L601.1,131.8 L611.8,131.8 L622.6,131.8 L633.3,131.8 L644.1,131.8 L654.8,131.8 L665.5,132.0 L676.3,132.0 L687.0,132.0 L697.8,132.0 L708.5,132.0 L719.3,132.0 L730.0,132.0" fill="none" stroke="#1baf7a" stroke-width="2" stroke-linejoin="round" stroke-linecap="round"/>
<circle cx="730.0" cy="132.0" r="6" fill="#fcfcfb"/>
<circle cx="730.0" cy="132.0" r="4" fill="#1baf7a"/>
<path d="M64.0,92.1 L74.7,92.1 L85.5,92.1 L96.2,92.1 L107.0,92.1 L117.7,92.1 L128.5,92.1 L139.2,92.1 L149.9,92.1 L160.7,92.1 L171.4,92.1 L182.2,92.1 L192.9,92.1 L203.6,92.1 L214.4,92.1 L225.1,92.1 L235.9,92.1 L246.6,92.1 L257.4,92.1 L268.1,92.1 L278.8,92.1 L289.6,92.1 L300.3,92.1 L311.1,92.1 L321.8,92.1 L332.5,92.1 L343.3,92.1 L354.0,92.1 L364.8,92.1 L375.5,92.1 L386.3,92.1 L397.0,92.1 L407.7,92.1 L418.5,92.4 L429.2,92.4 L440.0,92.4 L450.7,92.4 L461.5,92.4 L472.2,92.4 L482.9,92.3 L493.7,92.3 L504.4,92.4 L515.2,92.4 L525.9,92.4 L536.6,92.4 L547.4,92.4 L558.1,92.4 L568.9,92.4 L579.6,92.4 L590.4,92.4 L601.1,120.0 L611.8,119.9 L622.6,119.9 L633.3,119.9 L644.1,119.9 L654.8,120.0 L665.5,120.0 L676.3,120.0 L687.0,120.0 L697.8,120.0 L708.5,120.0 L719.3,120.0 L730.0,120.0" fill="none" stroke="#eda100" stroke-width="2" stroke-linejoin="round" stroke-linecap="round"/>
<circle cx="730.0" cy="120.0" r="6" fill="#fcfcfb"/>
<circle cx="730.0" cy="120.0" r="4" fill="#eda100"/>
<path d="M64.0,56.0 L74.7,56.0 L85.5,56.0 L96.2,56.0 L107.0,56.0 L117.7,56.0 L128.5,56.0 L139.2,56.0 L149.9,56.0 L160.7,56.0 L171.4,56.0 L182.2,56.0 L192.9,56.0 L203.6,56.0 L214.4,56.0 L225.1,56.0 L235.9,56.0 L246.6,56.0 L257.4,56.0 L268.1,56.0 L278.8,56.0 L289.6,56.0 L300.3,56.0 L311.1,56.0 L321.8,56.0 L332.5,56.0 L343.3,56.0 L354.0,56.0 L364.8,56.0 L375.5,56.0 L386.3,56.0 L397.0,56.0 L407.7,56.0 L418.5,56.3 L429.2,56.3 L440.0,56.3 L450.7,56.3 L461.5,56.3 L472.2,56.3 L482.9,56.2 L493.7,56.2 L504.4,56.3 L515.2,56.3 L525.9,56.3 L536.6,56.3 L547.4,56.3 L558.1,56.3 L568.9,56.3 L579.6,56.3 L590.4,56.3 L601.1,83.9 L611.8,83.9 L622.6,83.9 L633.3,83.9 L644.1,83.9 L654.8,83.9 L665.5,83.8 L676.3,83.8 L687.0,83.8 L697.8,83.8 L708.5,83.8 L719.3,83.8 L730.0,83.8" fill="none" stroke="#008300" stroke-width="2" stroke-linejoin="round" stroke-linecap="round"/>
<circle cx="730.0" cy="83.8" r="6" fill="#fcfcfb"/>
<circle cx="730.0" cy="83.8" r="4" fill="#008300"/>
<path d="M64.0,227.6 L74.7,227.6 L85.5,227.6 L96.2,227.6 L107.0,227.6 L117.7,227.6 L128.5,227.6 L139.2,227.6 L149.9,227.6 L160.7,227.6 L171.4,227.6 L182.2,227.6 L192.9,227.6 L203.6,227.6 L214.4,227.6 L225.1,227.6 L235.9,227.6 L246.6,227.6 L257.4,227.6 L268.1,227.6 L278.8,227.6 L289.6,227.6 L300.3,227.6 L311.1,227.6 L321.8,227.6 L332.5,227.6 L343.3,227.6 L354.0,227.6 L364.8,227.6 L375.5,227.6 L386.3,227.6 L397.0,227.6 L407.7,227.6 L418.5,227.8 L429.2,227.8 L440.0,227.8 L450.7,227.8 L461.5,227.7 L472.2,227.7 L482.9,227.8 L493.7,227.8 L504.4,227.7 L515.2,227.7 L525.9,227.7 L536.6,227.7 L547.4,227.7 L558.1,227.7 L568.9,227.7 L579.6,227.7 L590.4,227.7 L601.1,227.7 L611.8,227.7 L622.6,227.7 L633.3,227.7 L644.1,227.7 L654.8,227.7 L665.5,227.8 L676.3,227.8 L687.0,227.8 L697.8,227.8 L708.5,227.8 L719.3,227.8 L730.0,227.8" fill="none" stroke="#4a3aa7" stroke-width="2" stroke-linejoin="round" stroke-linecap="round"/>
<circle cx="730.0" cy="227.8" r="6" fill="#fcfcfb"/>
<circle cx="730.0" cy="227.8" r="4" fill="#4a3aa7"/>
<circle cx="745.0" cy="80.3" r="3.5" fill="#008300"/>
<text x="753.0" y="83.8" font-family='system-ui, -apple-system, "Segoe UI", sans-serif' font-size="11" fill="#0b0b0b">reverb</text>
<text x="753.0" y="95.8" font-family='system-ui, -apple-system, "Segoe UI", sans-serif' font-size="10" style="font-variant-numeric: tabular-nums" fill="#52514e">44.9M</text>
<circle cx="745.0" cy="116.5" r="3.5" fill="#eda100"/>
<text x="753.0" y="120.0" font-family='system-ui, -apple-system, "Segoe UI", sans-serif' font-size="11" fill="#0b0b0b">echo</text>
<text x="753.0" y="132.0" font-family='system-ui, -apple-system, "Segoe UI", sans-serif' font-size="10" style="font-variant-numeric: tabular-nums" fill="#52514e">37.6M</text>
<line x1="736.0" y1="120.1" x2="740.0" y2="148.0" stroke="#c3c2b7" stroke-width="1"/>
<circle cx="745.0" cy="144.5" r="3.5" fill="#2a78d6"/>
<text x="753.0" y="148.0" font-family='system-ui, -apple-system, "Segoe UI", sans-serif' font-size="11" fill="#0b0b0b">auto-filter</text>
<text x="753.0" y="160.0" font-family='system-ui, -apple-system, "Segoe UI", sans-serif' font-size="10" style="font-variant-numeric: tabular-nums" fill="#52514e">37.6M</text>
<line x1="736.0" y1="132.0" x2="740.0" y2="176.0" stroke="#c3c2b7" stroke-width="1"/>
<circle cx="745.0" cy="172.5" r="3.5" fill="#1baf7a"/>
<text x="753.0" y="176.0" font-family='system-ui, -apple-system, "Segoe UI", sans-serif' font-size="11" fill="#0b0b0b">autotune</text>
<text x="753.0" y="188.0" font-family='system-ui, -apple-system, "Segoe UI", sans-serif' font-size="10" style="font-variant-numeric: tabular-nums" fill="#52514e">35.2M</text>
<circle cx="745.0" cy="224.3" r="3.5" fill="#4a3aa7"/>
<text x="753.0" y="227.8" font-family='system-ui, -apple-system, "Segoe UI", sans-serif' font-size="11" fill="#0b0b0b">sampler-arp</text>
<text x="753.0" y="239.8" font-family='system-ui, -apple-system, "Segoe UI", sans-serif' font-size="10" style="font-variant-numeric: tabular-nums" fill="#52514e">15.8M</text>
</svg>