<svg xmlns="http://www.w3.org/2000/svg" width="880" height="340" viewBox="0 0 880 340" role="img" aria-label="Whole-instrument render cost">
<rect width="880" height="340" rx="6" fill="#fcfcfb"/>
<text x="64" y="24" font-family='system-ui, -apple-system, "Segoe UI", sans-serif' font-size="14" font-weight="600" fill="#0b0b0b">Whole-instrument render cost</text>
<text x="64" y="41" font-family='system-ui, -apple-system, "Segoe UI", sans-serif' font-size="11" fill="#52514e">render_block of 1 s of audio - callgrind instructions (Ir), per main commit, 2026-06-28 to 2026-07-11</text>
<line x1="64" y1="306.0" x2="730" y2="306.0" stroke="#e1e0d9" stroke-width="1"/>
<text x="56" y="309.5" text-anchor="end" font-family='system-ui, -apple-system, "Segoe UI", sans-serif' font-size="11" style="font-variant-numeric: tabular-nums" fill="#898781">0</text>
<line x1="64" y1="228.2" x2="730" y2="228.2" stroke="#e1e0d9" stroke-width="1"/>
<text x="56" y="231.7" text-anchor="end" font-family='system-ui, -apple-system, "Segoe UI", sans-serif' font-size="11" style="font-variant-numeric: tabular-nums" fill="#898781">20</text>
<line x1="64" y1="150.4" x2="730" y2="150.4" stroke="#e1e0d9" stroke-width="1"/>
<text x="56" y="153.9" text-anchor="end" font-family='system-ui, -apple-system, "Segoe UI", sans-serif' font-size="11" style="font-variant-numeric: tabular-nums" fill="#898781">40</text>
<line x1="64" y1="72.6" x2="730" y2="72.6" stroke="#e1e0d9" stroke-width="1"/>
<text x="56" y="76.1" text-anchor="end" font-family='system-ui, -apple-system, "Segoe UI", sans-serif' font-size="11" style="font-variant-numeric: tabular-nums" fill="#898781">60</text>
<text x="56" y="46" text-anchor="end" font-family='system-ui, -apple-system, "Segoe UI", sans-serif' font-size="10" fill="#898781">Ir (M)</text>
<line x1="64" y1="306" x2="730" y2="306" stroke="#c3c2b7" stroke-width="1"/>
<text x="64.0" y="322" text-anchor="middle" font-family='system-ui, -apple-system, "Segoe UI", sans-serif' font-size="11" style="font-variant-numeric: tabular-nums" fill="#898781">06-28</text>
<text x="118.7" y="322" text-anchor="middle" font-family='system-ui, -apple-system, "Segoe UI", sans-serif' font-size="11" style="font-variant-numeric: tabular-nums" fill="#898781">06-30</text>
<text x="164.4" y="322" text-anchor="middle" font-family='system-ui, -apple-system, "Segoe UI", sans-serif' font-size="11" style="font-variant-numeric: tabular-nums" fill="#898781">07-02</text>
<text x="264.7" y="322" text-anchor="middle" font-family='system-ui, -apple-system, "Segoe UI", sans-serif' font-size="11" style="font-variant-numeric: tabular-nums" fill="#898781">07-04</text>
<text x="410.7" y="322" text-anchor="middle" font-family='system-ui, -apple-system, "Segoe UI", sans-serif' font-size="11" style="font-variant-numeric: tabular-nums" fill="#898781">07-07</text>
<text x="501.9" y="322" text-anchor="middle" font-family='system-ui, -apple-system, "Segoe UI", sans-serif' font-size="11" style="font-variant-numeric: tabular-nums" fill="#898781">07-09</text>
<text x="574.9" y="322" text-anchor="middle" font-family='system-ui, -apple-system, "Segoe UI", sans-serif' font-size="11" style="font-variant-numeric: tabular-nums" fill="#898781">07-11</text>
<path d="M64.0,72.9 L73.1,73.0 L82.2,80.1 L91.4,80.1 L100.5,94.2 L109.6,108.6 L118.7,108.6 L127.9,105.1 L137.0,105.4 L146.1,105.7 L155.2,105.7 L164.4,105.6 L173.5,105.5 L182.6,105.5 L191.7,105.5 L200.8,105.5" fill="none" stroke="#2a78d6" stroke-width="2" stroke-linejoin="round" stroke-linecap="round"/>
<path d="M219.1,105.7 L228.2,122.6 L237.3,122.6 L246.5,125.2 L255.6,125.0 L264.7,125.0 L273.8,125.0 L283.0,125.0 L292.1,125.0 L301.2,125.0 L310.3,124.3 L319.5,124.3 L328.6,124.3 L337.7,124.3 L346.8,124.3 L355.9,124.5 L365.1,124.5 L374.2,124.5 L383.3,127.9 L392.4,127.9 L401.6,127.9 L410.7,127.9 L419.8,127.9 L428.9,127.9 L438.1,127.9 L447.2,127.9 L456.3,127.9 L465.4,127.9 L474.5,127.9 L483.7,127.9 L492.8,127.9 L501.9,127.9 L511.0,127.9 L520.2,128.8 L529.3,128.8 L538.4,128.8 L547.5,128.2 L556.7,132.1 L565.8,132.1 L574.9,131.7 L584.0,135.3 L593.2,135.3 L602.3,135.3 L611.4,135.3 L620.5,135.3 L629.6,135.3 L638.8,135.3 L647.9,135.3 L657.0,135.3 L666.1,135.3 L675.3,135.3 L684.4,135.3 L693.5,135.3 L702.6,135.3 L711.8,135.3 L720.9,135.3 L730.0,135.3" fill="none" stroke="#2a78d6" stroke-width="2" stroke-linejoin="round" stroke-linecap="round"/>
<circle cx="730.0" cy="135.3" r="6" fill="#fcfcfb"/>
<circle cx="730.0" cy="135.3" r="4" fill="#2a78d6"/>
<path d="M64.0,98.8 L73.1,98.9 L82.2,98.2 L91.4,98.2 L100.5,107.4 L109.6,120.8 L118.7,120.7 L127.9,117.1 L137.0,117.4 L146.1,117.8 L155.2,117.7 L164.4,117.7 L173.5,117.5 L182.6,117.7 L191.7,117.7 L200.8,117.7" fill="none" stroke="#1baf7a" stroke-width="2" stroke-linejoin="round" stroke-linecap="round"/>
<path d="M219.1,117.8 L228.2,134.9 L237.3,134.9 L246.5,136.9 L255.6,136.6 L264.7,136.6 L273.8,136.6 L283.0,136.6 L292.1,136.6 L301.2,136.6 L310.3,135.8 L319.5,135.8 L328.6,135.8 L337.7,135.8 L346.8,135.8 L355.9,136.0 L365.1,136.0 L374.2,136.0 L383.3,139.7 L392.4,139.7 L401.6,139.6 L410.7,139.6 L419.8,139.6 L428.9,139.6 L438.1,139.6 L447.2,139.6 L456.3,139.6 L465.4,139.6 L474.5,139.6 L483.7,139.6 L492.8,139.6 L501.9,139.6 L511.0,139.6 L520.2,140.5 L529.3,140.5 L538.4,140.5 L547.5,139.8 L556.7,143.5 L565.8,143.5 L574.9,143.5 L584.0,147.1 L593.2,147.1 L602.3,147.1 L611.4,147.1 L620.5,147.1 L629.6,147.1 L638.8,147.1 L647.9,147.1 L657.0,147.1 L666.1,147.1 L675.3,147.1 L684.4,147.1 L693.5,147.1 L702.6,147.1 L711.8,147.1 L720.9,147.1 L730.0,147.1" fill="none" stroke="#1baf7a" stroke-width="2" stroke-linejoin="round" stroke-linecap="round"/>
<circle cx="730.0" cy="147.1" r="6" fill="#fcfcfb"/>
<circle cx="730.0" cy="147.1" r="4" fill="#1baf7a"/>
<path d="M64.0,83.1 L73.1,83.1 L82.2,82.4 L91.4,82.4 L100.5,95.7 L109.6,110.0 L118.7,109.9 L127.9,106.6 L137.0,106.9 L146.1,107.2 L155.2,107.2 L164.4,107.0 L173.5,107.1 L182.6,107.1 L191.7,107.1 L200.8,107.1" fill="none" stroke="#eda100" stroke-width="2" stroke-linejoin="round" stroke-linecap="round"/>
<path d="M219.1,107.2 L228.2,125.6 L237.3,125.6 L246.5,127.5 L255.6,127.3 L264.7,127.3 L273.8,127.3 L283.0,127.3 L292.1,127.3 L301.2,127.5 L310.3,126.6 L319.5,126.3 L328.6,126.3 L337.7,126.3 L346.8,126.3 L355.9,126.9 L365.1,126.9 L374.2,126.8 L383.3,130.5 L392.4,130.5 L401.6,130.3 L410.7,130.3 L419.8,130.4 L428.9,130.4 L438.1,130.4 L447.2,130.4 L456.3,130.4 L465.4,130.4 L474.5,130.4 L483.7,130.4 L492.8,130.4 L501.9,130.4 L511.0,130.4 L520.2,131.3 L529.3,131.4 L538.4,131.4 L547.5,130.7 L556.7,133.9 L565.8,133.9 L574.9,133.9 L584.0,137.8 L593.2,137.8 L602.3,137.8 L611.4,137.8 L620.5,137.8 L629.6,137.8 L638.8,137.8 L647.9,137.8 L657.0,137.8 L666.1,137.8 L675.3,137.8 L684.4,137.8 L693.5,137.8 L702.6,137.8 L711.8,137.8 L720.9,137.8 L730.0,137.8" fill="none" stroke="#eda100" stroke-width="2" stroke-linejoin="round" stroke-linecap="round"/>
<circle cx="730.0" cy="137.8" r="6" fill="#fcfcfb"/>
<circle cx="730.0" cy="137.8" r="4" fill="#eda100"/>
<path d="M64.0,56.6 L73.1,56.6 L82.2,56.0 L91.4,56.0 L100.5,65.0 L109.6,82.2 L118.7,82.1 L127.9,78.6 L137.0,78.8 L146.1,79.3 L155.2,79.3 L164.4,79.2 L173.5,79.1 L182.6,79.2 L191.7,79.2 L200.8,79.2" fill="none" stroke="#008300" stroke-width="2" stroke-linejoin="round" stroke-linecap="round"/>
<path d="M219.1,79.2 L228.2,97.8 L237.3,97.8 L246.5,99.5 L255.6,99.2 L264.7,99.2 L273.8,99.2 L283.0,99.2 L292.1,99.2 L301.2,99.4 L310.3,98.8 L319.5,98.6 L328.6,98.6 L337.7,98.6 L346.8,98.6 L355.9,98.9 L365.1,98.9 L374.2,98.9 L383.3,102.4 L392.4,102.4 L401.6,102.3 L410.7,102.3 L419.8,102.4 L428.9,102.4 L438.1,102.4 L447.2,102.4 L456.3,102.4 L465.4,102.4 L474.5,102.4 L483.7,102.4 L492.8,102.4 L501.9,102.4 L511.0,102.4 L520.2,103.3 L529.3,103.3 L538.4,103.3 L547.5,102.7 L556.7,106.1 L565.8,106.1 L574.9,106.1 L584.0,109.4 L593.2,109.4 L602.3,109.4 L611.4,109.4 L620.5,109.4 L629.6,109.4 L638.8,109.4 L647.9,109.4 L657.0,109.4 L666.1,109.4 L675.3,109.4 L684.4,109.4 L693.5,109.4 L702.6,109.4 L711.8,109.4 L720.9,109.4 L730.0,109.4" fill="none" stroke="#008300" stroke-width="2" stroke-linejoin="round" stroke-linecap="round"/>
<circle cx="730.0" cy="109.4" r="6" fill="#fcfcfb"/>
<circle cx="730.0" cy="109.4" r="4" fill="#008300"/>
<path d="M64.0,222.5 L73.1,222.4 L82.2,222.5 L91.4,222.5 L100.5,229.0 L109.6,236.2 L118.7,236.1 L127.9,234.3 L137.0,234.3 L146.1,234.5 L155.2,234.5 L164.4,234.7 L173.5,234.7 L182.6,234.6 L191.7,234.6 L200.8,234.6" fill="none" stroke="#4a3aa7" stroke-width="2" stroke-linejoin="round" stroke-linecap="round"/>
<path d="M219.1,234.6 L228.2,240.3 L237.3,240.3 L246.5,240.1 L255.6,239.7 L264.7,239.7 L273.8,239.7 L283.0,239.7 L292.1,239.7 L301.2,239.6 L310.3,239.1 L319.5,239.1 L328.6,239.1 L337.7,239.1 L346.8,239.1 L355.9,239.2 L365.1,239.2 L374.2,239.2 L383.3,239.1 L392.4,239.1 L401.6,239.0 L410.7,239.0 L419.8,239.1 L428.9,239.1 L438.1,239.1 L447.2,239.1 L456.3,239.1 L465.4,239.1 L474.5,239.1 L483.7,239.1 L492.8,239.1 L501.9,239.1 L511.0,239.0 L520.2,239.5 L529.3,239.6 L538.4,239.6 L547.5,239.4 L556.7,241.0 L565.8,241.1 L574.9,241.1 L584.0,244.4 L593.2,244.4 L602.3,244.4 L611.4,244.4 L620.5,244.4 L629.6,244.4 L638.8,244.4 L647.9,244.4 L657.0,244.4 L666.1,244.4 L675.3,244.4 L684.4,244.4 L693.5,244.4 L702.6,244.4 L711.8,244.4 L720.9,244.4 L730.0,244.4" fill="none" stroke="#4a3aa7" stroke-width="2" stroke-linejoin="round" stroke-linecap="round"/>
<circle cx="730.0" cy="244.4" r="6" fill="#fcfcfb"/>
<circle cx="730.0" cy="244.4" r="4" fill="#4a3aa7"/>
<circle cx="745.0" cy="105.9" r="3.5" fill="#008300"/>
<text x="753.0" y="109.4" font-family='system-ui, -apple-system, "Segoe UI", sans-serif' font-size="11" fill="#0b0b0b">reverb</text>
<text x="753.0" y="121.4" font-family='system-ui, -apple-system, "Segoe UI", sans-serif' font-size="10" style="font-variant-numeric: tabular-nums" fill="#52514e">50.5M</text>
<circle cx="745.0" cy="133.9" r="3.5" fill="#2a78d6"/>
<text x="753.0" y="137.4" font-family='system-ui, -apple-system, "Segoe UI", sans-serif' font-size="11" fill="#0b0b0b">auto-filter</text>
<text x="753.0" y="149.4" font-family='system-ui, -apple-system, "Segoe UI", sans-serif' font-size="10" style="font-variant-numeric: tabular-nums" fill="#52514e">43.9M</text>
<line x1="736.0" y1="137.8" x2="740.0" y2="165.4" stroke="#c3c2b7" stroke-width="1"/>
<circle cx="745.0" cy="161.9" r="3.5" fill="#eda100"/>
<text x="753.0" y="165.4" font-family='system-ui, -apple-system, "Segoe UI", sans-serif' font-size="11" fill="#0b0b0b">echo</text>
<text x="753.0" y="177.4" font-family='system-ui, -apple-system, "Segoe UI", sans-serif' font-size="10" style="font-variant-numeric: tabular-nums" fill="#52514e">43.2M</text>
<line x1="736.0" y1="147.1" x2="740.0" y2="193.4" stroke="#c3c2b7" stroke-width="1"/>
<circle cx="745.0" cy="189.9" r="3.5" fill="#1baf7a"/>
<text x="753.0" y="193.4" font-family='system-ui, -apple-system, "Segoe UI", sans-serif' font-size="11" fill="#0b0b0b">autotune</text>
<text x="753.0" y="205.4" font-family='system-ui, -apple-system, "Segoe UI", sans-serif' font-size="10" style="font-variant-numeric: tabular-nums" fill="#52514e">40.9M</text>
<circle cx="745.0" cy="240.9" r="3.5" fill="#4a3aa7"/>
<text x="753.0" y="244.4" font-family='system-ui, -apple-system, "Segoe UI", sans-serif' font-size="11" fill="#0b0b0b">sampler-arp</text>
<text x="753.0" y="256.4" font-family='system-ui, -apple-system, "Segoe UI", sans-serif' font-size="10" style="font-variant-numeric: tabular-nums" fill="#52514e">15.8M</text>
</svg>