<svg xmlns="http://www.w3.org/2000/svg" width="880" height="340" viewBox="0 0 880 340" role="img" aria-label="Whole-instrument render cost">
<rect width="880" height="340" rx="6" fill="#1a1a19"/>
<text x="64" y="24" font-family='system-ui, -apple-system, "Segoe UI", sans-serif' font-size="14" font-weight="600" fill="#ffffff">Whole-instrument render cost</text>
<text x="64" y="41" font-family='system-ui, -apple-system, "Segoe UI", sans-serif' font-size="11" fill="#c3c2b7">render_block of 1 s of audio - callgrind instructions (Ir), per dev commit, 2026-07-12 to 2026-07-22</text>
<line x1="64" y1="306.0" x2="730" y2="306.0" stroke="#2c2c2a" stroke-width="1"/>
<text x="56" y="309.5" text-anchor="end" font-family='system-ui, -apple-system, "Segoe UI", sans-serif' font-size="11" style="font-variant-numeric: tabular-nums" fill="#898781">0</text>
<line x1="64" y1="207.1" x2="730" y2="207.1" stroke="#2c2c2a" stroke-width="1"/>
<text x="56" y="210.6" text-anchor="end" font-family='system-ui, -apple-system, "Segoe UI", sans-serif' font-size="11" style="font-variant-numeric: tabular-nums" fill="#898781">20</text>
<line x1="64" y1="108.2" x2="730" y2="108.2" stroke="#2c2c2a" stroke-width="1"/>
<text x="56" y="111.7" text-anchor="end" font-family='system-ui, -apple-system, "Segoe UI", sans-serif' font-size="11" style="font-variant-numeric: tabular-nums" fill="#898781">40</text>
<text x="56" y="46" text-anchor="end" font-family='system-ui, -apple-system, "Segoe UI", sans-serif' font-size="10" fill="#898781">Ir (M)</text>
<line x1="64" y1="306" x2="730" y2="306" stroke="#383835" stroke-width="1"/>
<text x="64.0" y="322" text-anchor="middle" font-family='system-ui, -apple-system, "Segoe UI", sans-serif' font-size="11" style="font-variant-numeric: tabular-nums" fill="#898781">07-12</text>
<text x="147.2" y="322" text-anchor="middle" font-family='system-ui, -apple-system, "Segoe UI", sans-serif' font-size="11" style="font-variant-numeric: tabular-nums" fill="#898781">07-14</text>
<text x="254.3" y="322" text-anchor="middle" font-family='system-ui, -apple-system, "Segoe UI", sans-serif' font-size="11" style="font-variant-numeric: tabular-nums" fill="#898781">07-17</text>
<text x="397.0" y="322" text-anchor="middle" font-family='system-ui, -apple-system, "Segoe UI", sans-serif' font-size="11" style="font-variant-numeric: tabular-nums" fill="#898781">07-19</text>
<text x="611.1" y="322" text-anchor="middle" font-family='system-ui, -apple-system, "Segoe UI", sans-serif' font-size="11" style="font-variant-numeric: tabular-nums" fill="#898781">07-21</text>
<path d="M64.0,88.9 L75.9,88.9 L87.8,88.9 L99.7,88.9 L111.6,88.9 L123.5,88.9 L135.4,88.9 L147.2,88.9 L159.1,88.9 L171.0,88.9 L182.9,88.9 L194.8,88.9 L206.7,88.9 L218.6,88.9 L230.5,88.9 L242.4,88.9 L254.3,88.9 L266.2,88.9 L278.1,88.9 L290.0,88.9 L301.9,88.9 L313.8,88.9 L325.6,88.9 L337.5,88.9 L349.4,88.9 L361.3,88.9 L373.2,88.9 L385.1,88.9 L397.0,89.0 L408.9,89.0 L420.8,89.0 L432.7,89.0 L444.6,89.0 L456.5,89.3 L468.4,89.3 L480.2,89.3 L492.1,89.3 L504.0,89.3 L515.9,89.3 L527.8,89.2 L539.7,89.2 L551.6,89.3 L563.5,89.3 L575.4,89.3 L587.3,89.3 L599.2,89.3 L611.1,89.3 L623.0,89.3 L634.9,89.3 L646.8,89.3 L658.6,120.2 L670.5,120.2 L682.4,120.2 L694.3,120.2 L706.2,120.2 L718.1,120.1 L730.0,120.1" fill="none" stroke="#3987e5" stroke-width="2" stroke-linejoin="round" stroke-linecap="round"/>
<circle cx="730.0" cy="120.1" r="6" fill="#1a1a19"/>
<circle cx="730.0" cy="120.1" r="4" fill="#3987e5"/>
<path d="M64.0,103.9 L75.9,103.9 L87.8,103.9 L99.7,103.9 L111.6,103.9 L123.5,103.9 L135.4,103.8 L147.2,103.8 L159.1,103.8 L171.0,103.8 L182.9,103.8 L194.8,103.8 L206.7,103.8 L218.6,103.8 L230.5,103.9 L242.4,103.9 L254.3,103.9 L266.2,103.9 L278.1,103.9 L290.0,103.9 L301.9,103.9 L313.8,103.9 L325.6,103.9 L337.5,103.9 L349.4,103.9 L361.3,103.9 L373.2,103.9 L385.1,103.9 L397.0,103.9 L408.9,103.9 L420.8,103.9 L432.7,103.9 L444.6,103.9 L456.5,104.2 L468.4,104.2 L480.2,104.2 L492.1,104.2 L504.0,104.1 L515.9,104.1 L527.8,104.2 L539.7,104.2 L551.6,104.2 L563.5,104.2 L575.4,104.2 L587.3,104.2 L599.2,104.2 L611.1,104.2 L623.0,104.2 L634.9,104.2 L646.8,104.2 L658.6,131.8 L670.5,131.8 L682.4,131.8 L694.3,131.8 L706.2,131.8 L718.1,131.8 L730.0,132.0" fill="none" stroke="#199e70" stroke-width="2" stroke-linejoin="round" stroke-linecap="round"/>
<circle cx="730.0" cy="132.0" r="6" fill="#1a1a19"/>
<circle cx="730.0" cy="132.0" r="4" fill="#199e70"/>
<path d="M64.0,92.1 L75.9,92.1 L87.8,92.1 L99.7,92.1 L111.6,92.1 L123.5,92.1 L135.4,92.1 L147.2,92.1 L159.1,92.1 L171.0,92.1 L182.9,92.1 L194.8,92.1 L206.7,92.1 L218.6,92.1 L230.5,92.1 L242.4,92.1 L254.3,92.1 L266.2,92.1 L278.1,92.1 L290.0,92.1 L301.9,92.1 L313.8,92.1 L325.6,92.1 L337.5,92.1 L349.4,92.1 L361.3,92.1 L373.2,92.1 L385.1,92.1 L397.0,92.1 L408.9,92.1 L420.8,92.1 L432.7,92.1 L444.6,92.1 L456.5,92.4 L468.4,92.4 L480.2,92.4 L492.1,92.4 L504.0,92.4 L515.9,92.4 L527.8,92.3 L539.7,92.3 L551.6,92.4 L563.5,92.4 L575.4,92.4 L587.3,92.4 L599.2,92.4 L611.1,92.4 L623.0,92.4 L634.9,92.4 L646.8,92.4 L658.6,120.0 L670.5,119.9 L682.4,119.9 L694.3,119.9 L706.2,119.9 L718.1,120.0 L730.0,120.0" fill="none" stroke="#c98500" stroke-width="2" stroke-linejoin="round" stroke-linecap="round"/>
<circle cx="730.0" cy="120.0" r="6" fill="#1a1a19"/>
<circle cx="730.0" cy="120.0" r="4" fill="#c98500"/>
<path d="M64.0,56.0 L75.9,56.0 L87.8,56.0 L99.7,56.0 L111.6,56.0 L123.5,56.0 L135.4,56.0 L147.2,56.0 L159.1,56.0 L171.0,56.0 L182.9,56.0 L194.8,56.0 L206.7,56.0 L218.6,56.0 L230.5,56.0 L242.4,56.0 L254.3,56.0 L266.2,56.0 L278.1,56.0 L290.0,56.0 L301.9,56.0 L313.8,56.0 L325.6,56.0 L337.5,56.0 L349.4,56.0 L361.3,56.0 L373.2,56.0 L385.1,56.0 L397.0,56.0 L408.9,56.0 L420.8,56.0 L432.7,56.0 L444.6,56.0 L456.5,56.3 L468.4,56.3 L480.2,56.3 L492.1,56.3 L504.0,56.3 L515.9,56.3 L527.8,56.2 L539.7,56.2 L551.6,56.3 L563.5,56.3 L575.4,56.3 L587.3,56.3 L599.2,56.3 L611.1,56.3 L623.0,56.3 L634.9,56.3 L646.8,56.3 L658.6,83.9 L670.5,83.9 L682.4,83.9 L694.3,83.9 L706.2,83.9 L718.1,83.9 L730.0,83.8" fill="none" stroke="#008300" stroke-width="2" stroke-linejoin="round" stroke-linecap="round"/>
<circle cx="730.0" cy="83.8" r="6" fill="#1a1a19"/>
<circle cx="730.0" cy="83.8" r="4" fill="#008300"/>
<path d="M64.0,227.6 L75.9,227.6 L87.8,227.6 L99.7,227.6 L111.6,227.6 L123.5,227.6 L135.4,227.6 L147.2,227.6 L159.1,227.6 L171.0,227.6 L182.9,227.6 L194.8,227.6 L206.7,227.6 L218.6,227.6 L230.5,227.6 L242.4,227.6 L254.3,227.6 L266.2,227.6 L278.1,227.6 L290.0,227.6 L301.9,227.6 L313.8,227.6 L325.6,227.6 L337.5,227.6 L349.4,227.6 L361.3,227.6 L373.2,227.6 L385.1,227.6 L397.0,227.6 L408.9,227.6 L420.8,227.6 L432.7,227.6 L444.6,227.6 L456.5,227.8 L468.4,227.8 L480.2,227.8 L492.1,227.8 L504.0,227.7 L515.9,227.7 L527.8,227.8 L539.7,227.8 L551.6,227.7 L563.5,227.7 L575.4,227.7 L587.3,227.7 L599.2,227.7 L611.1,227.7 L623.0,227.7 L634.9,227.7 L646.8,227.7 L658.6,227.7 L670.5,227.7 L682.4,227.7 L694.3,227.7 L706.2,227.7 L718.1,227.7 L730.0,227.8" fill="none" stroke="#9085e9" stroke-width="2" stroke-linejoin="round" stroke-linecap="round"/>
<circle cx="730.0" cy="227.8" r="6" fill="#1a1a19"/>
<circle cx="730.0" cy="227.8" r="4" fill="#9085e9"/>
<circle cx="745.0" cy="80.3" r="3.5" fill="#008300"/>
<text x="753.0" y="83.8" font-family='system-ui, -apple-system, "Segoe UI", sans-serif' font-size="11" fill="#ffffff">reverb</text>
<text x="753.0" y="95.8" font-family='system-ui, -apple-system, "Segoe UI", sans-serif' font-size="10" style="font-variant-numeric: tabular-nums" fill="#c3c2b7">44.9M</text>
<circle cx="745.0" cy="116.5" r="3.5" fill="#c98500"/>
<text x="753.0" y="120.0" font-family='system-ui, -apple-system, "Segoe UI", sans-serif' font-size="11" fill="#ffffff">echo</text>
<text x="753.0" y="132.0" font-family='system-ui, -apple-system, "Segoe UI", sans-serif' font-size="10" style="font-variant-numeric: tabular-nums" fill="#c3c2b7">37.6M</text>
<line x1="736.0" y1="120.1" x2="740.0" y2="148.0" stroke="#383835" stroke-width="1"/>
<circle cx="745.0" cy="144.5" r="3.5" fill="#3987e5"/>
<text x="753.0" y="148.0" font-family='system-ui, -apple-system, "Segoe UI", sans-serif' font-size="11" fill="#ffffff">auto-filter</text>
<text x="753.0" y="160.0" font-family='system-ui, -apple-system, "Segoe UI", sans-serif' font-size="10" style="font-variant-numeric: tabular-nums" fill="#c3c2b7">37.6M</text>
<line x1="736.0" y1="132.0" x2="740.0" y2="176.0" stroke="#383835" stroke-width="1"/>
<circle cx="745.0" cy="172.5" r="3.5" fill="#199e70"/>
<text x="753.0" y="176.0" font-family='system-ui, -apple-system, "Segoe UI", sans-serif' font-size="11" fill="#ffffff">autotune</text>
<text x="753.0" y="188.0" font-family='system-ui, -apple-system, "Segoe UI", sans-serif' font-size="10" style="font-variant-numeric: tabular-nums" fill="#c3c2b7">35.2M</text>
<circle cx="745.0" cy="224.3" r="3.5" fill="#9085e9"/>
<text x="753.0" y="227.8" font-family='system-ui, -apple-system, "Segoe UI", sans-serif' font-size="11" fill="#ffffff">sampler-arp</text>
<text x="753.0" y="239.8" font-family='system-ui, -apple-system, "Segoe UI", sans-serif' font-size="10" style="font-variant-numeric: tabular-nums" fill="#c3c2b7">15.8M</text>
</svg>