<svg xmlns="http://www.w3.org/2000/svg" width="880" height="340" viewBox="0 0 880 340" role="img" aria-label="Whole-instrument render cost">
<rect width="880" height="340" rx="6" fill="#1a1a19"/>
<text x="64" y="24" font-family='system-ui, -apple-system, "Segoe UI", sans-serif' font-size="14" font-weight="600" fill="#ffffff">Whole-instrument render cost</text>
<text x="64" y="41" font-family='system-ui, -apple-system, "Segoe UI", sans-serif' font-size="11" fill="#c3c2b7">render_block of 1 s of audio - callgrind instructions (Ir), per main commit, 2026-06-28 to 2026-07-11</text>
<line x1="64" y1="306.0" x2="730" y2="306.0" stroke="#2c2c2a" stroke-width="1"/>
<text x="56" y="309.5" text-anchor="end" font-family='system-ui, -apple-system, "Segoe UI", sans-serif' font-size="11" style="font-variant-numeric: tabular-nums" fill="#898781">0</text>
<line x1="64" y1="228.2" x2="730" y2="228.2" stroke="#2c2c2a" stroke-width="1"/>
<text x="56" y="231.7" text-anchor="end" font-family='system-ui, -apple-system, "Segoe UI", sans-serif' font-size="11" style="font-variant-numeric: tabular-nums" fill="#898781">20</text>
<line x1="64" y1="150.4" x2="730" y2="150.4" stroke="#2c2c2a" stroke-width="1"/>
<text x="56" y="153.9" text-anchor="end" font-family='system-ui, -apple-system, "Segoe UI", sans-serif' font-size="11" style="font-variant-numeric: tabular-nums" fill="#898781">40</text>
<line x1="64" y1="72.6" x2="730" y2="72.6" stroke="#2c2c2a" stroke-width="1"/>
<text x="56" y="76.1" text-anchor="end" font-family='system-ui, -apple-system, "Segoe UI", sans-serif' font-size="11" style="font-variant-numeric: tabular-nums" fill="#898781">60</text>
<text x="56" y="46" text-anchor="end" font-family='system-ui, -apple-system, "Segoe UI", sans-serif' font-size="10" fill="#898781">Ir (M)</text>
<line x1="64" y1="306" x2="730" y2="306" stroke="#383835" stroke-width="1"/>
<text x="64.0" y="322" text-anchor="middle" font-family='system-ui, -apple-system, "Segoe UI", sans-serif' font-size="11" style="font-variant-numeric: tabular-nums" fill="#898781">06-28</text>
<text x="131.7" y="322" text-anchor="middle" font-family='system-ui, -apple-system, "Segoe UI", sans-serif' font-size="11" style="font-variant-numeric: tabular-nums" fill="#898781">06-30</text>
<text x="188.2" y="322" text-anchor="middle" font-family='system-ui, -apple-system, "Segoe UI", sans-serif' font-size="11" style="font-variant-numeric: tabular-nums" fill="#898781">07-02</text>
<text x="312.3" y="322" text-anchor="middle" font-family='system-ui, -apple-system, "Segoe UI", sans-serif' font-size="11" style="font-variant-numeric: tabular-nums" fill="#898781">07-04</text>
<text x="492.9" y="322" text-anchor="middle" font-family='system-ui, -apple-system, "Segoe UI", sans-serif' font-size="11" style="font-variant-numeric: tabular-nums" fill="#898781">07-07</text>
<text x="605.8" y="322" text-anchor="middle" font-family='system-ui, -apple-system, "Segoe UI", sans-serif' font-size="11" style="font-variant-numeric: tabular-nums" fill="#898781">07-09</text>
<text x="696.1" y="322" text-anchor="middle" font-family='system-ui, -apple-system, "Segoe UI", sans-serif' font-size="11" style="font-variant-numeric: tabular-nums" fill="#898781">07-11</text>
<path d="M64.0,72.9 L75.3,73.0 L86.6,80.1 L97.9,80.1 L109.2,94.2 L120.4,108.6 L131.7,108.6 L143.0,105.1 L154.3,105.4 L165.6,105.7 L176.9,105.7 L188.2,105.6 L199.5,105.5 L210.7,105.5 L222.0,105.5 L233.3,105.5" fill="none" stroke="#3987e5" stroke-width="2" stroke-linejoin="round" stroke-linecap="round"/>
<path d="M255.9,105.7 L267.2,122.6 L278.5,122.6 L289.8,125.2 L301.1,125.0 L312.3,125.0 L323.6,125.0 L334.9,125.0 L346.2,125.0 L357.5,125.0 L368.8,124.3 L380.1,124.3 L391.4,124.3 L402.6,124.3 L413.9,124.3 L425.2,124.5 L436.5,124.5 L447.8,124.5 L459.1,127.9 L470.4,127.9 L481.7,127.9 L492.9,127.9 L504.2,127.9 L515.5,127.9 L526.8,127.9 L538.1,127.9 L549.4,127.9 L560.7,127.9 L572.0,127.9 L583.3,127.9 L594.5,127.9 L605.8,127.9 L617.1,127.9 L628.4,128.8 L639.7,128.8 L651.0,128.8 L662.3,128.2 L673.6,132.1 L684.8,132.1 L696.1,131.7 L707.4,135.3 L718.7,135.3 L730.0,135.3" fill="none" stroke="#3987e5" stroke-width="2" stroke-linejoin="round" stroke-linecap="round"/>
<circle cx="730.0" cy="135.3" r="6" fill="#1a1a19"/>
<circle cx="730.0" cy="135.3" r="4" fill="#3987e5"/>
<path d="M64.0,98.8 L75.3,98.9 L86.6,98.2 L97.9,98.2 L109.2,107.4 L120.4,120.8 L131.7,120.7 L143.0,117.1 L154.3,117.4 L165.6,117.8 L176.9,117.7 L188.2,117.7 L199.5,117.5 L210.7,117.7 L222.0,117.7 L233.3,117.7" fill="none" stroke="#199e70" stroke-width="2" stroke-linejoin="round" stroke-linecap="round"/>
<path d="M255.9,117.8 L267.2,134.9 L278.5,134.9 L289.8,136.9 L301.1,136.6 L312.3,136.6 L323.6,136.6 L334.9,136.6 L346.2,136.6 L357.5,136.6 L368.8,135.8 L380.1,135.8 L391.4,135.8 L402.6,135.8 L413.9,135.8 L425.2,136.0 L436.5,136.0 L447.8,136.0 L459.1,139.7 L470.4,139.7 L481.7,139.6 L492.9,139.6 L504.2,139.6 L515.5,139.6 L526.8,139.6 L538.1,139.6 L549.4,139.6 L560.7,139.6 L572.0,139.6 L583.3,139.6 L594.5,139.6 L605.8,139.6 L617.1,139.6 L628.4,140.5 L639.7,140.5 L651.0,140.5 L662.3,139.8 L673.6,143.5 L684.8,143.5 L696.1,143.5 L707.4,147.1 L718.7,147.1 L730.0,147.1" fill="none" stroke="#199e70" stroke-width="2" stroke-linejoin="round" stroke-linecap="round"/>
<circle cx="730.0" cy="147.1" r="6" fill="#1a1a19"/>
<circle cx="730.0" cy="147.1" r="4" fill="#199e70"/>
<path d="M64.0,83.1 L75.3,83.1 L86.6,82.4 L97.9,82.4 L109.2,95.7 L120.4,110.0 L131.7,109.9 L143.0,106.6 L154.3,106.9 L165.6,107.2 L176.9,107.2 L188.2,107.0 L199.5,107.1 L210.7,107.1 L222.0,107.1 L233.3,107.1" fill="none" stroke="#c98500" stroke-width="2" stroke-linejoin="round" stroke-linecap="round"/>
<path d="M255.9,107.2 L267.2,125.6 L278.5,125.6 L289.8,127.5 L301.1,127.3 L312.3,127.3 L323.6,127.3 L334.9,127.3 L346.2,127.3 L357.5,127.5 L368.8,126.6 L380.1,126.3 L391.4,126.3 L402.6,126.3 L413.9,126.3 L425.2,126.9 L436.5,126.9 L447.8,126.8 L459.1,130.5 L470.4,130.5 L481.7,130.3 L492.9,130.3 L504.2,130.4 L515.5,130.4 L526.8,130.4 L538.1,130.4 L549.4,130.4 L560.7,130.4 L572.0,130.4 L583.3,130.4 L594.5,130.4 L605.8,130.4 L617.1,130.4 L628.4,131.3 L639.7,131.4 L651.0,131.4 L662.3,130.7 L673.6,133.9 L684.8,133.9 L696.1,133.9 L707.4,137.8 L718.7,137.8 L730.0,137.8" fill="none" stroke="#c98500" stroke-width="2" stroke-linejoin="round" stroke-linecap="round"/>
<circle cx="730.0" cy="137.8" r="6" fill="#1a1a19"/>
<circle cx="730.0" cy="137.8" r="4" fill="#c98500"/>
<path d="M64.0,56.6 L75.3,56.6 L86.6,56.0 L97.9,56.0 L109.2,65.0 L120.4,82.2 L131.7,82.1 L143.0,78.6 L154.3,78.8 L165.6,79.3 L176.9,79.3 L188.2,79.2 L199.5,79.1 L210.7,79.2 L222.0,79.2 L233.3,79.2" fill="none" stroke="#008300" stroke-width="2" stroke-linejoin="round" stroke-linecap="round"/>
<path d="M255.9,79.2 L267.2,97.8 L278.5,97.8 L289.8,99.5 L301.1,99.2 L312.3,99.2 L323.6,99.2 L334.9,99.2 L346.2,99.2 L357.5,99.4 L368.8,98.8 L380.1,98.6 L391.4,98.6 L402.6,98.6 L413.9,98.6 L425.2,98.9 L436.5,98.9 L447.8,98.9 L459.1,102.4 L470.4,102.4 L481.7,102.3 L492.9,102.3 L504.2,102.4 L515.5,102.4 L526.8,102.4 L538.1,102.4 L549.4,102.4 L560.7,102.4 L572.0,102.4 L583.3,102.4 L594.5,102.4 L605.8,102.4 L617.1,102.4 L628.4,103.3 L639.7,103.3 L651.0,103.3 L662.3,102.7 L673.6,106.1 L684.8,106.1 L696.1,106.1 L707.4,109.4 L718.7,109.4 L730.0,109.4" fill="none" stroke="#008300" stroke-width="2" stroke-linejoin="round" stroke-linecap="round"/>
<circle cx="730.0" cy="109.4" r="6" fill="#1a1a19"/>
<circle cx="730.0" cy="109.4" r="4" fill="#008300"/>
<path d="M64.0,222.5 L75.3,222.4 L86.6,222.5 L97.9,222.5 L109.2,229.0 L120.4,236.2 L131.7,236.1 L143.0,234.3 L154.3,234.3 L165.6,234.5 L176.9,234.5 L188.2,234.7 L199.5,234.7 L210.7,234.6 L222.0,234.6 L233.3,234.6" fill="none" stroke="#9085e9" stroke-width="2" stroke-linejoin="round" stroke-linecap="round"/>
<path d="M255.9,234.6 L267.2,240.3 L278.5,240.3 L289.8,240.1 L301.1,239.7 L312.3,239.7 L323.6,239.7 L334.9,239.7 L346.2,239.7 L357.5,239.6 L368.8,239.1 L380.1,239.1 L391.4,239.1 L402.6,239.1 L413.9,239.1 L425.2,239.2 L436.5,239.2 L447.8,239.2 L459.1,239.1 L470.4,239.1 L481.7,239.0 L492.9,239.0 L504.2,239.1 L515.5,239.1 L526.8,239.1 L538.1,239.1 L549.4,239.1 L560.7,239.1 L572.0,239.1 L583.3,239.1 L594.5,239.1 L605.8,239.1 L617.1,239.0 L628.4,239.5 L639.7,239.6 L651.0,239.6 L662.3,239.4 L673.6,241.0 L684.8,241.1 L696.1,241.1 L707.4,244.4 L718.7,244.4 L730.0,244.4" fill="none" stroke="#9085e9" stroke-width="2" stroke-linejoin="round" stroke-linecap="round"/>
<circle cx="730.0" cy="244.4" r="6" fill="#1a1a19"/>
<circle cx="730.0" cy="244.4" r="4" fill="#9085e9"/>
<circle cx="745.0" cy="105.9" r="3.5" fill="#008300"/>
<text x="753.0" y="109.4" font-family='system-ui, -apple-system, "Segoe UI", sans-serif' font-size="11" fill="#ffffff">reverb</text>
<text x="753.0" y="121.4" font-family='system-ui, -apple-system, "Segoe UI", sans-serif' font-size="10" style="font-variant-numeric: tabular-nums" fill="#c3c2b7">50.5M</text>
<circle cx="745.0" cy="133.9" r="3.5" fill="#3987e5"/>
<text x="753.0" y="137.4" font-family='system-ui, -apple-system, "Segoe UI", sans-serif' font-size="11" fill="#ffffff">auto-filter</text>
<text x="753.0" y="149.4" font-family='system-ui, -apple-system, "Segoe UI", sans-serif' font-size="10" style="font-variant-numeric: tabular-nums" fill="#c3c2b7">43.9M</text>
<line x1="736.0" y1="137.8" x2="740.0" y2="165.4" stroke="#383835" stroke-width="1"/>
<circle cx="745.0" cy="161.9" r="3.5" fill="#c98500"/>
<text x="753.0" y="165.4" font-family='system-ui, -apple-system, "Segoe UI", sans-serif' font-size="11" fill="#ffffff">echo</text>
<text x="753.0" y="177.4" font-family='system-ui, -apple-system, "Segoe UI", sans-serif' font-size="10" style="font-variant-numeric: tabular-nums" fill="#c3c2b7">43.2M</text>
<line x1="736.0" y1="147.1" x2="740.0" y2="193.4" stroke="#383835" stroke-width="1"/>
<circle cx="745.0" cy="189.9" r="3.5" fill="#199e70"/>
<text x="753.0" y="193.4" font-family='system-ui, -apple-system, "Segoe UI", sans-serif' font-size="11" fill="#ffffff">autotune</text>
<text x="753.0" y="205.4" font-family='system-ui, -apple-system, "Segoe UI", sans-serif' font-size="10" style="font-variant-numeric: tabular-nums" fill="#c3c2b7">40.9M</text>
<circle cx="745.0" cy="240.9" r="3.5" fill="#9085e9"/>
<text x="753.0" y="244.4" font-family='system-ui, -apple-system, "Segoe UI", sans-serif' font-size="11" fill="#ffffff">sampler-arp</text>
<text x="753.0" y="256.4" font-family='system-ui, -apple-system, "Segoe UI", sans-serif' font-size="10" style="font-variant-numeric: tabular-nums" fill="#c3c2b7">15.8M</text>
</svg>