<svg xmlns="http://www.w3.org/2000/svg" width="880" height="340" viewBox="0 0 880 340" role="img" aria-label="Whole-instrument render cost">
<rect width="880" height="340" rx="6" fill="#1a1a19"/>
<text x="64" y="24" font-family='system-ui, -apple-system, "Segoe UI", sans-serif' font-size="14" font-weight="600" fill="#ffffff">Whole-instrument render cost</text>
<text x="64" y="41" font-family='system-ui, -apple-system, "Segoe UI", sans-serif' font-size="11" fill="#c3c2b7">render_block of 1 s of audio - callgrind instructions (Ir), per main commit, 2026-06-28 to 2026-07-08</text>
<line x1="64" y1="306.0" x2="730" y2="306.0" stroke="#2c2c2a" stroke-width="1"/>
<text x="56" y="309.5" text-anchor="end" font-family='system-ui, -apple-system, "Segoe UI", sans-serif' font-size="11" style="font-variant-numeric: tabular-nums" fill="#898781">0</text>
<line x1="64" y1="228.2" x2="730" y2="228.2" stroke="#2c2c2a" stroke-width="1"/>
<text x="56" y="231.7" text-anchor="end" font-family='system-ui, -apple-system, "Segoe UI", sans-serif' font-size="11" style="font-variant-numeric: tabular-nums" fill="#898781">20</text>
<line x1="64" y1="150.4" x2="730" y2="150.4" stroke="#2c2c2a" stroke-width="1"/>
<text x="56" y="153.9" text-anchor="end" font-family='system-ui, -apple-system, "Segoe UI", sans-serif' font-size="11" style="font-variant-numeric: tabular-nums" fill="#898781">40</text>
<line x1="64" y1="72.6" x2="730" y2="72.6" stroke="#2c2c2a" stroke-width="1"/>
<text x="56" y="76.1" text-anchor="end" font-family='system-ui, -apple-system, "Segoe UI", sans-serif' font-size="11" style="font-variant-numeric: tabular-nums" fill="#898781">60</text>
<text x="56" y="46" text-anchor="end" font-family='system-ui, -apple-system, "Segoe UI", sans-serif' font-size="10" fill="#898781">Ir (M)</text>
<line x1="64" y1="306" x2="730" y2="306" stroke="#383835" stroke-width="1"/>
<text x="64.0" y="322" text-anchor="middle" font-family='system-ui, -apple-system, "Segoe UI", sans-serif' font-size="11" style="font-variant-numeric: tabular-nums" fill="#898781">06-28</text>
<text x="149.0" y="322" text-anchor="middle" font-family='system-ui, -apple-system, "Segoe UI", sans-serif' font-size="11" style="font-variant-numeric: tabular-nums" fill="#898781">06-30</text>
<text x="219.9" y="322" text-anchor="middle" font-family='system-ui, -apple-system, "Segoe UI", sans-serif' font-size="11" style="font-variant-numeric: tabular-nums" fill="#898781">07-02</text>
<text x="375.7" y="322" text-anchor="middle" font-family='system-ui, -apple-system, "Segoe UI", sans-serif' font-size="11" style="font-variant-numeric: tabular-nums" fill="#898781">07-04</text>
<text x="602.5" y="322" text-anchor="middle" font-family='system-ui, -apple-system, "Segoe UI", sans-serif' font-size="11" style="font-variant-numeric: tabular-nums" fill="#898781">07-07</text>
<path d="M64.0,72.9 L78.2,73.0 L92.3,80.1 L106.5,80.1 L120.7,94.2 L134.9,108.6 L149.0,108.6 L163.2,105.1 L177.4,105.4 L191.5,105.7 L205.7,105.7 L219.9,105.6 L234.0,105.5 L248.2,105.5 L262.4,105.5 L276.6,105.5" fill="none" stroke="#3987e5" stroke-width="2" stroke-linejoin="round" stroke-linecap="round"/>
<path d="M304.9,105.7 L319.1,122.6 L333.2,122.6 L347.4,125.2 L361.6,125.0 L375.7,125.0 L389.9,125.0 L404.1,125.0 L418.3,125.0 L432.4,125.0 L446.6,124.3 L460.8,124.3 L474.9,124.3 L489.1,124.3 L503.3,124.3 L517.4,124.5 L531.6,124.5 L545.8,124.5 L560.0,127.9 L574.1,127.9 L588.3,127.9 L602.5,127.9 L616.6,127.9 L630.8,127.9 L645.0,127.9 L659.1,127.9 L673.3,127.9 L687.5,127.9 L701.7,127.9 L715.8,127.9 L730.0,127.9" fill="none" stroke="#3987e5" stroke-width="2" stroke-linejoin="round" stroke-linecap="round"/>
<circle cx="730.0" cy="127.9" r="6" fill="#1a1a19"/>
<circle cx="730.0" cy="127.9" r="4" fill="#3987e5"/>
<path d="M64.0,98.8 L78.2,98.9 L92.3,98.2 L106.5,98.2 L120.7,107.4 L134.9,120.8 L149.0,120.7 L163.2,117.1 L177.4,117.4 L191.5,117.8 L205.7,117.7 L219.9,117.7 L234.0,117.5 L248.2,117.7 L262.4,117.7 L276.6,117.7" fill="none" stroke="#199e70" stroke-width="2" stroke-linejoin="round" stroke-linecap="round"/>
<path d="M304.9,117.8 L319.1,134.9 L333.2,134.9 L347.4,136.9 L361.6,136.6 L375.7,136.6 L389.9,136.6 L404.1,136.6 L418.3,136.6 L432.4,136.6 L446.6,135.8 L460.8,135.8 L474.9,135.8 L489.1,135.8 L503.3,135.8 L517.4,136.0 L531.6,136.0 L545.8,136.0 L560.0,139.7 L574.1,139.7 L588.3,139.6 L602.5,139.6 L616.6,139.6 L630.8,139.6 L645.0,139.6 L659.1,139.6 L673.3,139.6 L687.5,139.6 L701.7,139.6 L715.8,139.6 L730.0,139.6" fill="none" stroke="#199e70" stroke-width="2" stroke-linejoin="round" stroke-linecap="round"/>
<circle cx="730.0" cy="139.6" r="6" fill="#1a1a19"/>
<circle cx="730.0" cy="139.6" r="4" fill="#199e70"/>
<path d="M64.0,83.1 L78.2,83.1 L92.3,82.4 L106.5,82.4 L120.7,95.7 L134.9,110.0 L149.0,109.9 L163.2,106.6 L177.4,106.9 L191.5,107.2 L205.7,107.2 L219.9,107.0 L234.0,107.1 L248.2,107.1 L262.4,107.1 L276.6,107.1" fill="none" stroke="#c98500" stroke-width="2" stroke-linejoin="round" stroke-linecap="round"/>
<path d="M304.9,107.2 L319.1,125.6 L333.2,125.6 L347.4,127.5 L361.6,127.3 L375.7,127.3 L389.9,127.3 L404.1,127.3 L418.3,127.3 L432.4,127.5 L446.6,126.6 L460.8,126.3 L474.9,126.3 L489.1,126.3 L503.3,126.3 L517.4,126.9 L531.6,126.9 L545.8,126.8 L560.0,130.5 L574.1,130.5 L588.3,130.3 L602.5,130.3 L616.6,130.4 L630.8,130.4 L645.0,130.4 L659.1,130.4 L673.3,130.4 L687.5,130.4 L701.7,130.4 L715.8,130.4 L730.0,130.4" fill="none" stroke="#c98500" stroke-width="2" stroke-linejoin="round" stroke-linecap="round"/>
<circle cx="730.0" cy="130.4" r="6" fill="#1a1a19"/>
<circle cx="730.0" cy="130.4" r="4" fill="#c98500"/>
<path d="M64.0,56.6 L78.2,56.6 L92.3,56.0 L106.5,56.0 L120.7,65.0 L134.9,82.2 L149.0,82.1 L163.2,78.6 L177.4,78.8 L191.5,79.3 L205.7,79.3 L219.9,79.2 L234.0,79.1 L248.2,79.2 L262.4,79.2 L276.6,79.2" fill="none" stroke="#008300" stroke-width="2" stroke-linejoin="round" stroke-linecap="round"/>
<path d="M304.9,79.2 L319.1,97.8 L333.2,97.8 L347.4,99.5 L361.6,99.2 L375.7,99.2 L389.9,99.2 L404.1,99.2 L418.3,99.2 L432.4,99.4 L446.6,98.8 L460.8,98.6 L474.9,98.6 L489.1,98.6 L503.3,98.6 L517.4,98.9 L531.6,98.9 L545.8,98.9 L560.0,102.4 L574.1,102.4 L588.3,102.3 L602.5,102.3 L616.6,102.4 L630.8,102.4 L645.0,102.4 L659.1,102.4 L673.3,102.4 L687.5,102.4 L701.7,102.4 L715.8,102.4 L730.0,102.4" fill="none" stroke="#008300" stroke-width="2" stroke-linejoin="round" stroke-linecap="round"/>
<circle cx="730.0" cy="102.4" r="6" fill="#1a1a19"/>
<circle cx="730.0" cy="102.4" r="4" fill="#008300"/>
<path d="M64.0,222.5 L78.2,222.4 L92.3,222.5 L106.5,222.5 L120.7,229.0 L134.9,236.2 L149.0,236.1 L163.2,234.3 L177.4,234.3 L191.5,234.5 L205.7,234.5 L219.9,234.7 L234.0,234.7 L248.2,234.6 L262.4,234.6 L276.6,234.6" fill="none" stroke="#9085e9" stroke-width="2" stroke-linejoin="round" stroke-linecap="round"/>
<path d="M304.9,234.6 L319.1,240.3 L333.2,240.3 L347.4,240.1 L361.6,239.7 L375.7,239.7 L389.9,239.7 L404.1,239.7 L418.3,239.7 L432.4,239.6 L446.6,239.1 L460.8,239.1 L474.9,239.1 L489.1,239.1 L503.3,239.1 L517.4,239.2 L531.6,239.2 L545.8,239.2 L560.0,239.1 L574.1,239.1 L588.3,239.0 L602.5,239.0 L616.6,239.1 L630.8,239.1 L645.0,239.1 L659.1,239.1 L673.3,239.1 L687.5,239.1 L701.7,239.1 L715.8,239.1 L730.0,239.1" fill="none" stroke="#9085e9" stroke-width="2" stroke-linejoin="round" stroke-linecap="round"/>
<circle cx="730.0" cy="239.1" r="6" fill="#1a1a19"/>
<circle cx="730.0" cy="239.1" r="4" fill="#9085e9"/>
<circle cx="745.0" cy="98.9" r="3.5" fill="#008300"/>
<text x="753.0" y="102.4" font-family='system-ui, -apple-system, "Segoe UI", sans-serif' font-size="11" fill="#ffffff">reverb</text>
<text x="753.0" y="114.4" font-family='system-ui, -apple-system, "Segoe UI", sans-serif' font-size="10" style="font-variant-numeric: tabular-nums" fill="#c3c2b7">52.3M</text>
<circle cx="745.0" cy="126.9" r="3.5" fill="#3987e5"/>
<text x="753.0" y="130.4" font-family='system-ui, -apple-system, "Segoe UI", sans-serif' font-size="11" fill="#ffffff">auto-filter</text>
<text x="753.0" y="142.4" font-family='system-ui, -apple-system, "Segoe UI", sans-serif' font-size="10" style="font-variant-numeric: tabular-nums" fill="#c3c2b7">45.8M</text>
<line x1="736.0" y1="130.4" x2="740.0" y2="158.4" stroke="#383835" stroke-width="1"/>
<circle cx="745.0" cy="154.9" r="3.5" fill="#c98500"/>
<text x="753.0" y="158.4" font-family='system-ui, -apple-system, "Segoe UI", sans-serif' font-size="11" fill="#ffffff">echo</text>
<text x="753.0" y="170.4" font-family='system-ui, -apple-system, "Segoe UI", sans-serif' font-size="10" style="font-variant-numeric: tabular-nums" fill="#c3c2b7">45.2M</text>
<line x1="736.0" y1="139.6" x2="740.0" y2="186.4" stroke="#383835" stroke-width="1"/>
<circle cx="745.0" cy="182.9" r="3.5" fill="#199e70"/>
<text x="753.0" y="186.4" font-family='system-ui, -apple-system, "Segoe UI", sans-serif' font-size="11" fill="#ffffff">autotune</text>
<text x="753.0" y="198.4" font-family='system-ui, -apple-system, "Segoe UI", sans-serif' font-size="10" style="font-variant-numeric: tabular-nums" fill="#c3c2b7">42.8M</text>
<circle cx="745.0" cy="235.6" r="3.5" fill="#9085e9"/>
<text x="753.0" y="239.1" font-family='system-ui, -apple-system, "Segoe UI", sans-serif' font-size="11" fill="#ffffff">sampler-arp</text>
<text x="753.0" y="251.1" font-family='system-ui, -apple-system, "Segoe UI", sans-serif' font-size="10" style="font-variant-numeric: tabular-nums" fill="#c3c2b7">17.2M</text>
</svg>