<svg xmlns="http://www.w3.org/2000/svg" width="880" height="340" viewBox="0 0 880 340" role="img" aria-label="Heaviest operators (micro)">
<rect width="880" height="340" rx="6" fill="#1a1a19"/>
<text x="64" y="24" font-family='system-ui, -apple-system, "Segoe UI", sans-serif' font-size="14" font-weight="600" fill="#ffffff">Heaviest operators (micro)</text>
<text x="64" y="41" font-family='system-ui, -apple-system, "Segoe UI", sans-serif' font-size="11" fill="#c3c2b7">per-operator step_node cost over the same 1 s schedule - top 6 by latest Ir</text>
<line x1="64" y1="306.0" x2="730" y2="306.0" stroke="#2c2c2a" stroke-width="1"/>
<text x="56" y="309.5" text-anchor="end" font-family='system-ui, -apple-system, "Segoe UI", sans-serif' font-size="11" style="font-variant-numeric: tabular-nums" fill="#898781">0</text>
<line x1="64" y1="218.1" x2="730" y2="218.1" stroke="#2c2c2a" stroke-width="1"/>
<text x="56" y="221.6" text-anchor="end" font-family='system-ui, -apple-system, "Segoe UI", sans-serif' font-size="11" style="font-variant-numeric: tabular-nums" fill="#898781">10</text>
<line x1="64" y1="130.2" x2="730" y2="130.2" stroke="#2c2c2a" stroke-width="1"/>
<text x="56" y="133.7" text-anchor="end" font-family='system-ui, -apple-system, "Segoe UI", sans-serif' font-size="11" style="font-variant-numeric: tabular-nums" fill="#898781">20</text>
<text x="56" y="46" text-anchor="end" font-family='system-ui, -apple-system, "Segoe UI", sans-serif' font-size="10" fill="#898781">Ir (M)</text>
<line x1="64" y1="306" x2="730" y2="306" stroke="#383835" stroke-width="1"/>
<text x="64.0" y="322" text-anchor="middle" font-family='system-ui, -apple-system, "Segoe UI", sans-serif' font-size="11" style="font-variant-numeric: tabular-nums" fill="#898781">06-28</text>
<text x="103.2" y="322" text-anchor="middle" font-family='system-ui, -apple-system, "Segoe UI", sans-serif' font-size="11" style="font-variant-numeric: tabular-nums" fill="#898781">06-29</text>
<text x="181.5" y="322" text-anchor="middle" font-family='system-ui, -apple-system, "Segoe UI", sans-serif' font-size="11" style="font-variant-numeric: tabular-nums" fill="#898781">06-30</text>
<text x="240.3" y="322" text-anchor="middle" font-family='system-ui, -apple-system, "Segoe UI", sans-serif' font-size="11" style="font-variant-numeric: tabular-nums" fill="#898781">07-01</text>
<text x="279.5" y="322" text-anchor="middle" font-family='system-ui, -apple-system, "Segoe UI", sans-serif' font-size="11" style="font-variant-numeric: tabular-nums" fill="#898781">07-02</text>
<text x="416.6" y="322" text-anchor="middle" font-family='system-ui, -apple-system, "Segoe UI", sans-serif' font-size="11" style="font-variant-numeric: tabular-nums" fill="#898781">07-03</text>
<text x="494.9" y="322" text-anchor="middle" font-family='system-ui, -apple-system, "Segoe UI", sans-serif' font-size="11" style="font-variant-numeric: tabular-nums" fill="#898781">07-04</text>
<text x="651.6" y="322" text-anchor="middle" font-family='system-ui, -apple-system, "Segoe UI", sans-serif' font-size="11" style="font-variant-numeric: tabular-nums" fill="#898781">07-05</text>
<path d="M201.1,56.1 L220.7,56.1 L240.3,56.0 L259.9,61.1 L279.5,56.1 L299.1,56.1 L318.6,56.1 L338.2,56.1 L357.8,56.1 L377.4,56.1 L397.0,56.1 L416.6,56.1 L436.2,56.1 L455.8,56.1 L475.4,56.1 L494.9,56.1 L514.5,56.1 L534.1,56.1 L553.7,56.1 L573.3,60.7 L592.9,56.0 L612.5,56.0 L632.1,56.0 L651.6,56.0 L671.2,56.0 L690.8,60.5 L710.4,60.5 L730.0,56.0" fill="none" stroke="#3987e5" stroke-width="2" stroke-linejoin="round" stroke-linecap="round"/>
<circle cx="730.0" cy="56.0" r="6" fill="#1a1a19"/>
<circle cx="730.0" cy="56.0" r="4" fill="#3987e5"/>
<path d="M64.0,264.6 L83.6,264.6 L103.2,264.6 L122.8,264.6 L142.4,264.6 L161.9,266.2 L181.5,265.7 L201.1,265.4 L220.7,265.5 L240.3,265.4 L259.9,265.4 L279.5,265.4 L299.1,265.4 L318.6,265.4 L338.2,265.4 L357.8,265.4 L377.4,265.4 L397.0,265.4 L416.6,265.0 L436.2,265.0 L455.8,265.0 L475.4,265.0 L494.9,265.0 L514.5,265.0 L534.1,265.0 L553.7,265.0 L573.3,265.0 L592.9,264.9 L612.5,264.9 L632.1,264.9 L651.6,264.9 L671.2,264.9 L690.8,264.9 L710.4,264.9 L730.0,264.9" fill="none" stroke="#199e70" stroke-width="2" stroke-linejoin="round" stroke-linecap="round"/>
<circle cx="730.0" cy="264.9" r="6" fill="#1a1a19"/>
<circle cx="730.0" cy="264.9" r="4" fill="#199e70"/>
<path d="M64.0,246.6 L83.6,246.6 L103.2,246.6 L122.8,246.6 L142.4,246.6 L161.9,246.6 L181.5,246.6 L201.1,246.2 L220.7,246.3 L240.3,246.2 L259.9,246.3 L279.5,246.3 L299.1,246.3 L318.6,246.3 L338.2,246.3 L357.8,246.3 L377.4,246.3 L397.0,246.3 L416.6,251.7 L436.2,251.7 L455.8,251.7 L475.4,251.7 L494.9,251.7 L514.5,251.7 L534.1,251.7 L553.7,251.7 L573.3,251.7 L592.9,251.6 L612.5,251.6 L632.1,251.6 L651.6,251.6 L671.2,251.6 L690.8,251.6 L710.4,251.6 L730.0,251.6" fill="none" stroke="#c98500" stroke-width="2" stroke-linejoin="round" stroke-linecap="round"/>
<circle cx="730.0" cy="251.6" r="6" fill="#1a1a19"/>
<circle cx="730.0" cy="251.6" r="4" fill="#c98500"/>
<path d="M103.2,97.1 L122.8,97.1 L142.4,97.2 L161.9,138.1 L181.5,138.1 L201.1,137.7 L220.7,137.8 L240.3,137.7 L259.9,137.8 L279.5,137.8 L299.1,137.8 L318.6,137.8 L338.2,137.8 L357.8,137.8 L377.4,137.8 L397.0,137.8 L416.6,142.4 L436.2,142.4 L455.8,142.4 L475.4,142.4 L494.9,142.4 L514.5,142.4 L534.1,142.4 L553.7,142.4 L573.3,142.4 L592.9,142.3 L612.5,142.3 L632.1,142.3 L651.6,142.3 L671.2,142.3 L690.8,142.3 L710.4,142.3 L730.0,142.3" fill="none" stroke="#008300" stroke-width="2" stroke-linejoin="round" stroke-linecap="round"/>
<circle cx="730.0" cy="142.3" r="6" fill="#1a1a19"/>
<circle cx="730.0" cy="142.3" r="4" fill="#008300"/>
<path d="M64.0,195.3 L83.6,195.3 L103.2,195.3 L122.8,195.3 L142.4,195.3 L161.9,204.2 L181.5,204.1 L201.1,203.7 L220.7,203.8 L240.3,203.8 L259.9,203.8 L279.5,203.8 L299.1,203.8 L318.6,203.8 L338.2,203.8 L357.8,203.8 L377.4,203.8 L397.0,203.8 L416.6,208.4 L436.2,208.4 L455.8,208.4 L475.4,208.4 L494.9,208.4 L514.5,208.4 L534.1,208.4 L553.7,208.4 L573.3,208.4 L592.9,208.3 L612.5,208.3 L632.1,208.3 L651.6,208.3 L671.2,208.3 L690.8,208.3 L710.4,208.3 L730.0,208.3" fill="none" stroke="#9085e9" stroke-width="2" stroke-linejoin="round" stroke-linecap="round"/>
<circle cx="730.0" cy="208.3" r="6" fill="#1a1a19"/>
<circle cx="730.0" cy="208.3" r="4" fill="#9085e9"/>
<path d="M64.0,262.8 L83.6,262.8 L103.2,262.8 L122.8,262.8 L142.4,263.0 L161.9,263.1 L181.5,263.0 L201.1,262.4 L220.7,262.5 L240.3,262.4 L259.9,262.4 L279.5,262.5 L299.1,262.5 L318.6,262.5 L338.2,262.5 L357.8,262.5 L377.4,262.5 L397.0,262.5 L416.6,261.7 L436.2,261.7 L455.8,261.6 L475.4,261.4 L494.9,261.4 L514.5,261.4 L534.1,261.4 L553.7,261.4 L573.3,261.4 L592.9,261.3 L612.5,261.3 L632.1,261.3 L651.6,261.3 L671.2,261.3 L690.8,261.2 L710.4,261.2 L730.0,261.3" fill="none" stroke="#e66767" stroke-width="2" stroke-linejoin="round" stroke-linecap="round"/>
<circle cx="730.0" cy="261.3" r="6" fill="#1a1a19"/>
<circle cx="730.0" cy="261.3" r="4" fill="#e66767"/>
<circle cx="745.0" cy="52.5" r="3.5" fill="#3987e5"/>
<text x="753.0" y="56.0" font-family='system-ui, -apple-system, "Segoe UI", sans-serif' font-size="11" fill="#ffffff">granulator</text>
<text x="753.0" y="68.0" font-family='system-ui, -apple-system, "Segoe UI", sans-serif' font-size="10" style="font-variant-numeric: tabular-nums" fill="#c3c2b7">28.4M</text>
<circle cx="745.0" cy="138.8" r="3.5" fill="#008300"/>
<text x="753.0" y="142.3" font-family='system-ui, -apple-system, "Segoe UI", sans-serif' font-size="11" fill="#ffffff">resonator</text>
<text x="753.0" y="154.3" font-family='system-ui, -apple-system, "Segoe UI", sans-serif' font-size="10" style="font-variant-numeric: tabular-nums" fill="#c3c2b7">18.6M</text>
<circle cx="745.0" cy="204.8" r="3.5" fill="#9085e9"/>
<text x="753.0" y="208.3" font-family='system-ui, -apple-system, "Segoe UI", sans-serif' font-size="11" fill="#ffffff">reverb</text>
<text x="753.0" y="220.3" font-family='system-ui, -apple-system, "Segoe UI", sans-serif' font-size="10" style="font-variant-numeric: tabular-nums" fill="#c3c2b7">11.1M</text>
<circle cx="745.0" cy="248.1" r="3.5" fill="#c98500"/>
<text x="753.0" y="251.6" font-family='system-ui, -apple-system, "Segoe UI", sans-serif' font-size="11" fill="#ffffff">pan</text>
<text x="753.0" y="263.6" font-family='system-ui, -apple-system, "Segoe UI", sans-serif' font-size="10" style="font-variant-numeric: tabular-nums" fill="#c3c2b7">6.19M</text>
<line x1="736.0" y1="261.3" x2="740.0" y2="279.6" stroke="#383835" stroke-width="1"/>
<circle cx="745.0" cy="276.1" r="3.5" fill="#e66767"/>
<text x="753.0" y="279.6" font-family='system-ui, -apple-system, "Segoe UI", sans-serif' font-size="11" fill="#ffffff">sequencer</text>
<text x="753.0" y="291.6" font-family='system-ui, -apple-system, "Segoe UI", sans-serif' font-size="10" style="font-variant-numeric: tabular-nums" fill="#c3c2b7">5.09M</text>
<line x1="736.0" y1="264.9" x2="740.0" y2="307.6" stroke="#383835" stroke-width="1"/>
<circle cx="745.0" cy="304.1" r="3.5" fill="#199e70"/>
<text x="753.0" y="307.6" font-family='system-ui, -apple-system, "Segoe UI", sans-serif' font-size="11" fill="#ffffff">map_f32_signal</text>
<text x="753.0" y="319.6" font-family='system-ui, -apple-system, "Segoe UI", sans-serif' font-size="10" style="font-variant-numeric: tabular-nums" fill="#c3c2b7">4.67M</text>
</svg>