<svg xmlns="http://www.w3.org/2000/svg" width="880" height="340" viewBox="0 0 880 340" role="img" aria-label="Heaviest operators (micro)">
<rect width="880" height="340" rx="6" fill="#1a1a19"/>
<text x="64" y="24" font-family='system-ui, -apple-system, "Segoe UI", sans-serif' font-size="14" font-weight="600" fill="#ffffff">Heaviest operators (micro)</text>
<text x="64" y="41" font-family='system-ui, -apple-system, "Segoe UI", sans-serif' font-size="11" fill="#c3c2b7">per-operator step_node cost over the same 1 s schedule - top 6 by latest Ir</text>
<line x1="64" y1="306.0" x2="730" y2="306.0" stroke="#2c2c2a" stroke-width="1"/>
<text x="56" y="309.5" text-anchor="end" font-family='system-ui, -apple-system, "Segoe UI", sans-serif' font-size="11" style="font-variant-numeric: tabular-nums" fill="#898781">0</text>
<line x1="64" y1="218.1" x2="730" y2="218.1" stroke="#2c2c2a" stroke-width="1"/>
<text x="56" y="221.6" text-anchor="end" font-family='system-ui, -apple-system, "Segoe UI", sans-serif' font-size="11" style="font-variant-numeric: tabular-nums" fill="#898781">10</text>
<line x1="64" y1="130.3" x2="730" y2="130.3" stroke="#2c2c2a" stroke-width="1"/>
<text x="56" y="133.8" text-anchor="end" font-family='system-ui, -apple-system, "Segoe UI", sans-serif' font-size="11" style="font-variant-numeric: tabular-nums" fill="#898781">20</text>
<text x="56" y="46" text-anchor="end" font-family='system-ui, -apple-system, "Segoe UI", sans-serif' font-size="10" fill="#898781">Ir (M)</text>
<line x1="64" y1="306" x2="730" y2="306" stroke="#383835" stroke-width="1"/>
<text x="64.0" y="322" text-anchor="middle" font-family='system-ui, -apple-system, "Segoe UI", sans-serif' font-size="11" style="font-variant-numeric: tabular-nums" fill="#898781">06-28</text>
<text x="138.0" y="322" text-anchor="middle" font-family='system-ui, -apple-system, "Segoe UI", sans-serif' font-size="11" style="font-variant-numeric: tabular-nums" fill="#898781">06-30</text>
<text x="199.7" y="322" text-anchor="middle" font-family='system-ui, -apple-system, "Segoe UI", sans-serif' font-size="11" style="font-variant-numeric: tabular-nums" fill="#898781">07-02</text>
<text x="335.3" y="322" text-anchor="middle" font-family='system-ui, -apple-system, "Segoe UI", sans-serif' font-size="11" style="font-variant-numeric: tabular-nums" fill="#898781">07-04</text>
<text x="532.7" y="322" text-anchor="middle" font-family='system-ui, -apple-system, "Segoe UI", sans-serif' font-size="11" style="font-variant-numeric: tabular-nums" fill="#898781">07-07</text>
<text x="656.0" y="322" text-anchor="middle" font-family='system-ui, -apple-system, "Segoe UI", sans-serif' font-size="11" style="font-variant-numeric: tabular-nums" fill="#898781">07-09</text>
<path d="M150.3,56.2 L162.7,56.2 L175.0,56.1 L187.3,61.2 L199.7,56.2 L212.0,56.2 L224.3,56.2 L236.7,56.2 L249.0,56.2 L261.3,56.2 L273.7,56.2 L286.0,56.2 L298.3,56.2 L310.7,56.2 L323.0,56.2 L335.3,56.2 L347.7,56.2 L360.0,56.2 L372.3,56.2 L384.7,60.8 L397.0,56.1 L409.3,56.1 L421.7,56.1 L434.0,56.1 L446.3,56.1 L458.7,60.6 L471.0,60.6 L483.3,56.1 L495.7,56.0 L508.0,56.0 L520.3,56.0 L532.7,56.0 L545.0,56.0 L557.3,56.0 L569.7,56.0 L582.0,56.0 L594.3,56.0 L606.7,56.0 L619.0,56.0 L631.3,56.0 L643.7,56.0 L656.0,56.0 L668.3,56.0 L680.7,61.0 L693.0,61.0 L705.3,61.0 L717.7,56.1 L730.0,61.3" fill="none" stroke="#3987e5" stroke-width="2" stroke-linejoin="round" stroke-linecap="round"/>
<circle cx="730.0" cy="61.3" r="6" fill="#1a1a19"/>
<circle cx="730.0" cy="61.3" r="4" fill="#3987e5"/>
<path d="M64.0,246.7 L76.3,246.7 L88.7,246.7 L101.0,246.7 L113.3,246.7 L125.7,246.6 L138.0,246.6 L150.3,246.2 L162.7,246.3 L175.0,246.3 L187.3,246.3 L199.7,246.3 L212.0,246.3 L224.3,246.3 L236.7,246.3 L249.0,246.3 L261.3,246.3 L273.7,246.3 L286.0,251.7 L298.3,251.7 L310.7,251.7 L323.0,251.7 L335.3,251.7 L347.7,251.7 L360.0,251.7 L372.3,251.7 L384.7,251.7 L397.0,251.6 L409.3,251.6 L421.7,251.6 L434.0,251.6 L446.3,251.6 L458.7,251.6 L471.0,251.6 L483.3,251.6 L495.7,251.5 L508.0,251.5 L520.3,251.5 L532.7,251.5 L545.0,251.5 L557.3,251.5 L569.7,251.5 L582.0,251.5 L594.3,251.5 L606.7,251.5 L619.0,251.5 L631.3,251.5 L643.7,251.5 L656.0,251.5 L668.3,251.5 L680.7,251.6 L693.0,251.6 L705.3,251.6 L717.7,251.6 L730.0,251.9" fill="none" stroke="#199e70" stroke-width="2" stroke-linejoin="round" stroke-linecap="round"/>
<circle cx="730.0" cy="251.9" r="6" fill="#1a1a19"/>
<circle cx="730.0" cy="251.9" r="4" fill="#199e70"/>
<path d="M88.7,97.2 L101.0,97.2 L113.3,97.2 L125.7,138.2 L138.0,138.2 L150.3,137.8 L162.7,137.8 L175.0,137.8 L187.3,137.9 L199.7,137.8 L212.0,137.9 L224.3,137.8 L236.7,137.8 L249.0,137.8 L261.3,137.8 L273.7,137.8 L286.0,142.4 L298.3,142.4 L310.7,142.4 L323.0,142.4 L335.3,142.4 L347.7,142.4 L360.0,142.4 L372.3,142.4 L384.7,142.4 L397.0,142.4 L409.3,142.4 L421.7,142.4 L434.0,142.4 L446.3,142.4 L458.7,142.3 L471.0,142.4 L483.3,142.3 L495.7,142.3 L508.0,142.3 L520.3,142.3 L532.7,142.3 L545.0,142.3 L557.3,142.3 L569.7,142.3 L582.0,142.3 L594.3,142.3 L606.7,142.3 L619.0,142.3 L631.3,142.3 L643.7,142.3 L656.0,142.3 L668.3,142.3 L680.7,142.3 L693.0,142.3 L705.3,142.3 L717.7,142.3 L730.0,142.6" fill="none" stroke="#c98500" stroke-width="2" stroke-linejoin="round" stroke-linecap="round"/>
<circle cx="730.0" cy="142.6" r="6" fill="#1a1a19"/>
<circle cx="730.0" cy="142.6" r="4" fill="#c98500"/>
<path d="M64.0,195.3 L76.3,195.3 L88.7,195.4 L101.0,195.4 L113.3,195.4 L125.7,204.2 L138.0,204.1 L150.3,203.8 L162.7,203.8 L175.0,203.8 L187.3,203.9 L199.7,203.8 L212.0,203.8 L224.3,203.8 L236.7,203.8 L249.0,203.8 L261.3,203.8 L273.7,203.8 L286.0,208.4 L298.3,208.4 L310.7,208.4 L323.0,208.4 L335.3,208.4 L347.7,208.4 L360.0,208.4 L372.3,208.4 L384.7,208.5 L397.0,208.3 L409.3,208.3 L421.7,208.3 L434.0,208.3 L446.3,208.3 L458.7,208.3 L471.0,208.4 L483.3,208.4 L495.7,208.2 L508.0,208.2 L520.3,208.2 L532.7,208.2 L545.0,208.2 L557.3,208.2 L569.7,208.2 L582.0,208.2 L594.3,208.2 L606.7,208.2 L619.0,208.2 L631.3,208.2 L643.7,208.2 L656.0,208.2 L668.3,208.2 L680.7,208.4 L693.0,208.3 L705.3,208.3 L717.7,208.3 L730.0,208.6" fill="none" stroke="#008300" stroke-width="2" stroke-linejoin="round" stroke-linecap="round"/>
<circle cx="730.0" cy="208.6" r="6" fill="#1a1a19"/>
<circle cx="730.0" cy="208.6" r="4" fill="#008300"/>
<path d="M693.0,229.0 L705.3,229.0 L717.7,229.1 L730.0,229.3" fill="none" stroke="#9085e9" stroke-width="2" stroke-linejoin="round" stroke-linecap="round"/>
<circle cx="730.0" cy="229.3" r="6" fill="#1a1a19"/>
<circle cx="730.0" cy="229.3" r="4" fill="#9085e9"/>
<path d="M64.0,262.8 L76.3,262.8 L88.7,262.8 L101.0,262.8 L113.3,263.0 L125.7,263.2 L138.0,263.0 L150.3,262.4 L162.7,262.5 L175.0,262.4 L187.3,262.5 L199.7,262.5 L212.0,262.5 L224.3,262.5 L236.7,262.5 L249.0,262.5 L261.3,262.5 L273.7,262.5 L286.0,261.7 L298.3,261.7 L310.7,261.6 L323.0,261.4 L335.3,261.4 L347.7,261.4 L360.0,261.4 L372.3,261.4 L384.7,261.4 L397.0,261.3 L409.3,261.3 L421.7,261.3 L434.0,261.3 L446.3,261.3 L458.7,261.2 L471.0,261.3 L483.3,261.3 L495.7,261.0 L508.0,261.0 L520.3,261.1 L532.7,261.1 L545.0,261.1 L557.3,261.1 L569.7,261.1 L582.0,261.1 L594.3,261.1 L606.7,261.1 L619.0,261.1 L631.3,261.1 L643.7,261.1 L656.0,261.1 L668.3,261.1 L680.7,261.3 L693.0,261.2 L705.3,261.2 L717.7,261.3 L730.0,261.7" fill="none" stroke="#e66767" stroke-width="2" stroke-linejoin="round" stroke-linecap="round"/>
<circle cx="730.0" cy="261.7" r="6" fill="#1a1a19"/>
<circle cx="730.0" cy="261.7" r="4" fill="#e66767"/>
<circle cx="745.0" cy="57.8" r="3.5" fill="#3987e5"/>
<text x="753.0" y="61.3" font-family='system-ui, -apple-system, "Segoe UI", sans-serif' font-size="11" fill="#ffffff">granulator</text>
<text x="753.0" y="73.3" font-family='system-ui, -apple-system, "Segoe UI", sans-serif' font-size="10" style="font-variant-numeric: tabular-nums" fill="#c3c2b7">27.8M</text>
<circle cx="745.0" cy="139.1" r="3.5" fill="#c98500"/>
<text x="753.0" y="142.6" font-family='system-ui, -apple-system, "Segoe UI", sans-serif' font-size="11" fill="#ffffff">resonator</text>
<text x="753.0" y="154.6" font-family='system-ui, -apple-system, "Segoe UI", sans-serif' font-size="10" style="font-variant-numeric: tabular-nums" fill="#c3c2b7">18.6M</text>
<circle cx="745.0" cy="205.1" r="3.5" fill="#008300"/>
<text x="753.0" y="208.6" font-family='system-ui, -apple-system, "Segoe UI", sans-serif' font-size="11" fill="#ffffff">reverb</text>
<text x="753.0" y="220.6" font-family='system-ui, -apple-system, "Segoe UI", sans-serif' font-size="10" style="font-variant-numeric: tabular-nums" fill="#c3c2b7">11.1M</text>
<line x1="736.0" y1="229.3" x2="740.0" y2="236.6" stroke="#383835" stroke-width="1"/>
<circle cx="745.0" cy="233.1" r="3.5" fill="#9085e9"/>
<text x="753.0" y="236.6" font-family='system-ui, -apple-system, "Segoe UI", sans-serif' font-size="11" fill="#ffffff">saturator</text>
<text x="753.0" y="248.6" font-family='system-ui, -apple-system, "Segoe UI", sans-serif' font-size="10" style="font-variant-numeric: tabular-nums" fill="#c3c2b7">8.73M</text>
<line x1="736.0" y1="251.9" x2="740.0" y2="264.6" stroke="#383835" stroke-width="1"/>
<circle cx="745.0" cy="261.1" r="3.5" fill="#199e70"/>
<text x="753.0" y="264.6" font-family='system-ui, -apple-system, "Segoe UI", sans-serif' font-size="11" fill="#ffffff">pan</text>
<text x="753.0" y="276.6" font-family='system-ui, -apple-system, "Segoe UI", sans-serif' font-size="10" style="font-variant-numeric: tabular-nums" fill="#c3c2b7">6.16M</text>
<line x1="736.0" y1="261.7" x2="740.0" y2="292.6" stroke="#383835" stroke-width="1"/>
<circle cx="745.0" cy="289.1" r="3.5" fill="#e66767"/>
<text x="753.0" y="292.6" font-family='system-ui, -apple-system, "Segoe UI", sans-serif' font-size="11" fill="#ffffff">sequencer</text>
<text x="753.0" y="304.6" font-family='system-ui, -apple-system, "Segoe UI", sans-serif' font-size="10" style="font-variant-numeric: tabular-nums" fill="#c3c2b7">5.04M</text>
</svg>