<svg xmlns="http://www.w3.org/2000/svg" width="880" height="340" viewBox="0 0 880 340" role="img" aria-label="Heaviest operators (micro)">
<rect width="880" height="340" rx="6" fill="#fcfcfb"/>
<text x="64" y="24" font-family='system-ui, -apple-system, "Segoe UI", sans-serif' font-size="14" font-weight="600" fill="#0b0b0b">Heaviest operators (micro)</text>
<text x="64" y="41" font-family='system-ui, -apple-system, "Segoe UI", sans-serif' font-size="11" fill="#52514e">per-operator step_node cost over the same 1 s schedule - top 6 by latest Ir</text>
<line x1="64" y1="306.0" x2="730" y2="306.0" stroke="#e1e0d9" stroke-width="1"/>
<text x="56" y="309.5" text-anchor="end" font-family='system-ui, -apple-system, "Segoe UI", sans-serif' font-size="11" style="font-variant-numeric: tabular-nums" fill="#898781">0</text>
<line x1="64" y1="215.1" x2="730" y2="215.1" stroke="#e1e0d9" stroke-width="1"/>
<text x="56" y="218.6" text-anchor="end" font-family='system-ui, -apple-system, "Segoe UI", sans-serif' font-size="11" style="font-variant-numeric: tabular-nums" fill="#898781">10</text>
<line x1="64" y1="124.2" x2="730" y2="124.2" stroke="#e1e0d9" stroke-width="1"/>
<text x="56" y="127.7" text-anchor="end" font-family='system-ui, -apple-system, "Segoe UI", sans-serif' font-size="11" style="font-variant-numeric: tabular-nums" fill="#898781">20</text>
<text x="56" y="46" text-anchor="end" font-family='system-ui, -apple-system, "Segoe UI", sans-serif' font-size="10" fill="#898781">Ir (M)</text>
<line x1="64" y1="306" x2="730" y2="306" stroke="#c3c2b7" stroke-width="1"/>
<text x="64.0" y="322" text-anchor="middle" font-family='system-ui, -apple-system, "Segoe UI", sans-serif' font-size="11" style="font-variant-numeric: tabular-nums" fill="#898781">07-12</text>
<text x="154.8" y="322" text-anchor="middle" font-family='system-ui, -apple-system, "Segoe UI", sans-serif' font-size="11" style="font-variant-numeric: tabular-nums" fill="#898781">07-13</text>
<text x="170.0" y="322" text-anchor="middle" font-family='system-ui, -apple-system, "Segoe UI", sans-serif' font-size="11" style="font-variant-numeric: tabular-nums" fill="#898781">07-14</text>
<text x="185.1" y="322" text-anchor="middle" font-family='system-ui, -apple-system, "Segoe UI", sans-serif' font-size="11" style="font-variant-numeric: tabular-nums" fill="#898781">07-16</text>
<text x="306.2" y="322" text-anchor="middle" font-family='system-ui, -apple-system, "Segoe UI", sans-serif' font-size="11" style="font-variant-numeric: tabular-nums" fill="#898781">07-17</text>
<text x="397.0" y="322" text-anchor="middle" font-family='system-ui, -apple-system, "Segoe UI", sans-serif' font-size="11" style="font-variant-numeric: tabular-nums" fill="#898781">07-18</text>
<text x="487.8" y="322" text-anchor="middle" font-family='system-ui, -apple-system, "Segoe UI", sans-serif' font-size="11" style="font-variant-numeric: tabular-nums" fill="#898781">07-19</text>
<text x="533.2" y="322" text-anchor="middle" font-family='system-ui, -apple-system, "Segoe UI", sans-serif' font-size="11" style="font-variant-numeric: tabular-nums" fill="#898781">07-20</text>
<path d="M533.2,217.9 L548.4,217.9 L563.5,217.9 L578.6,217.9 L593.8,217.9 L608.9,217.9 L624.0,217.9 L639.2,217.9 L654.3,217.9 L669.5,217.9 L684.6,218.0 L699.7,218.0 L714.9,218.0 L730.0,218.0" fill="none" stroke="#2a78d6" stroke-width="2" stroke-linejoin="round" stroke-linecap="round"/>
<circle cx="730.0" cy="218.0" r="6" fill="#fcfcfb"/>
<circle cx="730.0" cy="218.0" r="4" fill="#2a78d6"/>
<path d="M64.0,56.0 L79.1,56.0 L94.3,56.0 L109.4,56.0 L124.5,56.0 L139.7,56.0 L154.8,56.0 L170.0,56.0 L185.1,56.0 L200.2,56.0 L215.4,56.0 L230.5,56.0 L245.6,56.0 L260.8,56.0 L275.9,56.0 L291.0,56.0 L306.2,56.0 L321.3,56.0 L336.5,56.0 L351.6,56.0 L366.7,56.0 L381.9,56.0 L397.0,56.0 L412.1,56.0 L427.3,56.0 L442.4,56.0 L457.5,56.0 L472.7,56.0 L487.8,56.0 L503.0,56.0 L518.1,56.0 L533.2,56.0 L548.4,56.0 L563.5,56.0 L578.6,56.0 L593.8,56.0 L608.9,56.0 L624.0,56.0 L639.2,56.0 L654.3,56.0 L669.5,56.0 L684.6,56.1 L699.7,56.1 L714.9,56.1 L730.0,56.1" fill="none" stroke="#1baf7a" stroke-width="2" stroke-linejoin="round" stroke-linecap="round"/>
<circle cx="730.0" cy="56.1" r="6" fill="#fcfcfb"/>
<circle cx="730.0" cy="56.1" r="4" fill="#1baf7a"/>
<path d="M64.0,250.6 L79.1,250.6 L94.3,250.6 L109.4,250.6 L124.5,250.6 L139.7,250.6 L154.8,250.6 L170.0,250.6 L185.1,250.6 L200.2,250.6 L215.4,250.6 L230.5,250.6 L245.6,250.6 L260.8,250.6 L275.9,250.6 L291.0,250.6 L306.2,250.6 L321.3,250.6 L336.5,250.6 L351.6,250.6 L366.7,250.6 L381.9,250.6 L397.0,250.6 L412.1,250.6 L427.3,250.6 L442.4,250.6 L457.5,250.6 L472.7,250.6 L487.8,250.6 L503.0,250.6 L518.1,250.6 L533.2,250.6 L548.4,250.6 L563.5,250.7 L578.6,250.7 L593.8,250.7 L608.9,250.7 L624.0,250.7 L639.2,250.7 L654.3,250.7 L669.5,250.7 L684.6,250.7 L699.7,250.7 L714.9,250.7 L730.0,250.7" fill="none" stroke="#eda100" stroke-width="2" stroke-linejoin="round" stroke-linecap="round"/>
<circle cx="730.0" cy="250.7" r="6" fill="#fcfcfb"/>
<circle cx="730.0" cy="250.7" r="4" fill="#eda100"/>
<path d="M64.0,137.6 L79.1,137.6 L94.3,137.6 L109.4,137.6 L124.5,137.6 L139.7,137.6 L154.8,138.4 L170.0,138.4 L185.1,138.4 L200.2,138.4 L215.4,138.4 L230.5,138.4 L245.6,138.4 L260.8,138.4 L275.9,138.4 L291.0,138.4 L306.2,138.4 L321.3,138.4 L336.5,138.4 L351.6,138.4 L366.7,138.4 L381.9,138.4 L397.0,138.4 L412.1,138.4 L427.3,138.4 L442.4,138.4 L457.5,138.4 L472.7,138.4 L487.8,138.4 L503.0,138.4 L518.1,138.4 L533.2,138.4 L548.4,138.4 L563.5,138.4 L578.6,138.4 L593.8,138.4 L608.9,138.4 L624.0,138.4 L639.2,138.4 L654.3,138.4 L669.5,138.4 L684.6,138.5 L699.7,138.5 L714.9,138.5 L730.0,138.5" fill="none" stroke="#008300" stroke-width="2" stroke-linejoin="round" stroke-linecap="round"/>
<circle cx="730.0" cy="138.5" r="6" fill="#fcfcfb"/>
<circle cx="730.0" cy="138.5" r="4" fill="#008300"/>
<path d="M64.0,205.9 L79.1,205.9 L94.3,205.9 L109.4,205.9 L124.5,205.9 L139.7,205.9 L154.8,205.9 L170.0,205.9 L185.1,205.9 L200.2,205.9 L215.4,205.9 L230.5,205.9 L245.6,205.9 L260.8,205.9 L275.9,205.9 L291.0,205.9 L306.2,205.9 L321.3,205.9 L336.5,205.9 L351.6,205.9 L366.7,205.9 L381.9,205.9 L397.0,205.9 L412.1,205.9 L427.3,205.9 L442.4,205.9 L457.5,205.9 L472.7,205.9 L487.8,205.9 L503.0,205.9 L518.1,205.9 L533.2,205.9 L548.4,205.9 L563.5,205.9 L578.6,205.9 L593.8,205.9 L608.9,205.9 L624.0,205.9 L639.2,205.9 L654.3,205.9 L669.5,205.9 L684.6,205.9 L699.7,205.9 L714.9,205.9 L730.0,205.9" fill="none" stroke="#4a3aa7" stroke-width="2" stroke-linejoin="round" stroke-linecap="round"/>
<circle cx="730.0" cy="205.9" r="6" fill="#fcfcfb"/>
<circle cx="730.0" cy="205.9" r="4" fill="#4a3aa7"/>
<path d="M64.0,227.3 L79.1,227.3 L94.3,227.3 L109.4,227.3 L124.5,227.3 L139.7,227.3 L154.8,227.3 L170.0,227.3 L185.1,227.3 L200.2,227.3 L215.4,227.3 L230.5,227.3 L245.6,227.3 L260.8,227.3 L275.9,227.3 L291.0,227.3 L306.2,227.3 L321.3,227.3 L336.5,227.3 L351.6,227.3 L366.7,227.3 L381.9,227.3 L397.0,227.3 L412.1,227.3 L427.3,227.3 L442.4,227.3 L457.5,227.3 L472.7,227.3 L487.8,227.3 L503.0,227.3 L518.1,227.3 L533.2,227.3 L548.4,227.3 L563.5,227.3 L578.6,227.3 L593.8,227.3 L608.9,227.3 L624.0,227.3 L639.2,227.3 L654.3,227.3 L669.5,227.3 L684.6,227.3 L699.7,227.3 L714.9,227.3 L730.0,227.3" fill="none" stroke="#e34948" stroke-width="2" stroke-linejoin="round" stroke-linecap="round"/>
<circle cx="730.0" cy="227.3" r="6" fill="#fcfcfb"/>
<circle cx="730.0" cy="227.3" r="4" fill="#e34948"/>
<circle cx="745.0" cy="52.6" r="3.5" fill="#1baf7a"/>
<text x="753.0" y="56.1" font-family='system-ui, -apple-system, "Segoe UI", sans-serif' font-size="11" fill="#0b0b0b">granulator</text>
<text x="753.0" y="68.1" font-family='system-ui, -apple-system, "Segoe UI", sans-serif' font-size="10" style="font-variant-numeric: tabular-nums" fill="#52514e">27.5M</text>
<circle cx="745.0" cy="135.0" r="3.5" fill="#008300"/>
<text x="753.0" y="138.5" font-family='system-ui, -apple-system, "Segoe UI", sans-serif' font-size="11" fill="#0b0b0b">resonator</text>
<text x="753.0" y="150.5" font-family='system-ui, -apple-system, "Segoe UI", sans-serif' font-size="10" style="font-variant-numeric: tabular-nums" fill="#52514e">18.4M</text>
<circle cx="745.0" cy="202.4" r="3.5" fill="#4a3aa7"/>
<text x="753.0" y="205.9" font-family='system-ui, -apple-system, "Segoe UI", sans-serif' font-size="11" fill="#0b0b0b">reverb</text>
<text x="753.0" y="217.9" font-family='system-ui, -apple-system, "Segoe UI", sans-serif' font-size="10" style="font-variant-numeric: tabular-nums" fill="#52514e">11.0M</text>
<line x1="736.0" y1="218.0" x2="740.0" y2="233.9" stroke="#c3c2b7" stroke-width="1"/>
<circle cx="745.0" cy="230.4" r="3.5" fill="#2a78d6"/>
<text x="753.0" y="233.9" font-family='system-ui, -apple-system, "Segoe UI", sans-serif' font-size="11" fill="#0b0b0b">compressor</text>
<text x="753.0" y="245.9" font-family='system-ui, -apple-system, "Segoe UI", sans-serif' font-size="10" style="font-variant-numeric: tabular-nums" fill="#52514e">9.68M</text>
<line x1="736.0" y1="227.3" x2="740.0" y2="261.9" stroke="#c3c2b7" stroke-width="1"/>
<circle cx="745.0" cy="258.4" r="3.5" fill="#e34948"/>
<text x="753.0" y="261.9" font-family='system-ui, -apple-system, "Segoe UI", sans-serif' font-size="11" fill="#0b0b0b">saturator</text>
<text x="753.0" y="273.9" font-family='system-ui, -apple-system, "Segoe UI", sans-serif' font-size="10" style="font-variant-numeric: tabular-nums" fill="#52514e">8.65M</text>
<line x1="736.0" y1="250.7" x2="740.0" y2="289.9" stroke="#c3c2b7" stroke-width="1"/>
<circle cx="745.0" cy="286.4" r="3.5" fill="#eda100"/>
<text x="753.0" y="289.9" font-family='system-ui, -apple-system, "Segoe UI", sans-serif' font-size="11" fill="#0b0b0b">pan</text>
<text x="753.0" y="301.9" font-family='system-ui, -apple-system, "Segoe UI", sans-serif' font-size="10" style="font-variant-numeric: tabular-nums" fill="#52514e">6.08M</text>
</svg>