<svg xmlns="http://www.w3.org/2000/svg" width="880" height="340" viewBox="0 0 880 340" role="img" aria-label="Heaviest operators (micro)">
<rect width="880" height="340" rx="6" fill="#fcfcfb"/>
<text x="64" y="24" font-family='system-ui, -apple-system, "Segoe UI", sans-serif' font-size="14" font-weight="600" fill="#0b0b0b">Heaviest operators (micro)</text>
<text x="64" y="41" font-family='system-ui, -apple-system, "Segoe UI", sans-serif' font-size="11" fill="#52514e">per-operator step_node cost over the same 1 s schedule - top 6 by latest Ir</text>
<line x1="64" y1="306.0" x2="730" y2="306.0" stroke="#e1e0d9" stroke-width="1"/>
<text x="56" y="309.5" text-anchor="end" font-family='system-ui, -apple-system, "Segoe UI", sans-serif' font-size="11" style="font-variant-numeric: tabular-nums" fill="#898781">0</text>
<line x1="64" y1="215.1" x2="730" y2="215.1" stroke="#e1e0d9" stroke-width="1"/>
<text x="56" y="218.6" text-anchor="end" font-family='system-ui, -apple-system, "Segoe UI", sans-serif' font-size="11" style="font-variant-numeric: tabular-nums" fill="#898781">10</text>
<line x1="64" y1="124.1" x2="730" y2="124.1" stroke="#e1e0d9" stroke-width="1"/>
<text x="56" y="127.6" text-anchor="end" font-family='system-ui, -apple-system, "Segoe UI", sans-serif' font-size="11" style="font-variant-numeric: tabular-nums" fill="#898781">20</text>
<text x="56" y="46" text-anchor="end" font-family='system-ui, -apple-system, "Segoe UI", sans-serif' font-size="10" fill="#898781">Ir (M)</text>
<line x1="64" y1="306" x2="730" y2="306" stroke="#c3c2b7" stroke-width="1"/>
<text x="64.0" y="322" text-anchor="middle" font-family='system-ui, -apple-system, "Segoe UI", sans-serif' font-size="11" style="font-variant-numeric: tabular-nums" fill="#898781">07-12</text>
<text x="313.8" y="322" text-anchor="middle" font-family='system-ui, -apple-system, "Segoe UI", sans-serif' font-size="11" style="font-variant-numeric: tabular-nums" fill="#898781">07-13</text>
<text x="355.4" y="322" text-anchor="middle" font-family='system-ui, -apple-system, "Segoe UI", sans-serif' font-size="11" style="font-variant-numeric: tabular-nums" fill="#898781">07-14</text>
<text x="397.0" y="322" text-anchor="middle" font-family='system-ui, -apple-system, "Segoe UI", sans-serif' font-size="11" style="font-variant-numeric: tabular-nums" fill="#898781">07-16</text>
<text x="730.0" y="322" text-anchor="middle" font-family='system-ui, -apple-system, "Segoe UI", sans-serif' font-size="11" style="font-variant-numeric: tabular-nums" fill="#898781">07-17</text>
<path d="M64.0,56.0 L105.6,56.0 L147.2,56.0 L188.9,56.0 L230.5,56.0 L272.1,56.0 L313.8,56.0 L355.4,56.0 L397.0,56.0 L438.6,56.0 L480.2,56.0 L521.9,56.0 L563.5,56.0 L605.1,56.0 L646.8,56.0 L688.4,56.0 L730.0,56.0" fill="none" stroke="#2a78d6" stroke-width="2" stroke-linejoin="round" stroke-linecap="round"/>
<circle cx="730.0" cy="56.0" r="6" fill="#fcfcfb"/>
<circle cx="730.0" cy="56.0" r="4" fill="#2a78d6"/>
<path d="M64.0,250.6 L105.6,250.6 L147.2,250.6 L188.9,250.6 L230.5,250.6 L272.1,250.6 L313.8,250.6 L355.4,250.6 L397.0,250.6 L438.6,250.6 L480.2,250.6 L521.9,250.6 L563.5,250.6 L605.1,250.6 L646.8,250.6 L688.4,250.6 L730.0,250.6" fill="none" stroke="#1baf7a" stroke-width="2" stroke-linejoin="round" stroke-linecap="round"/>
<circle cx="730.0" cy="250.6" r="6" fill="#fcfcfb"/>
<circle cx="730.0" cy="250.6" r="4" fill="#1baf7a"/>
<path d="M64.0,137.6 L105.6,137.6 L147.2,137.6 L188.9,137.6 L230.5,137.6 L272.1,137.6 L313.8,138.4 L355.4,138.4 L397.0,138.4 L438.6,138.4 L480.2,138.4 L521.9,138.4 L563.5,138.4 L605.1,138.4 L646.8,138.4 L688.4,138.4 L730.0,138.4" fill="none" stroke="#eda100" stroke-width="2" stroke-linejoin="round" stroke-linecap="round"/>
<circle cx="730.0" cy="138.4" r="6" fill="#fcfcfb"/>
<circle cx="730.0" cy="138.4" r="4" fill="#eda100"/>
<path d="M64.0,205.8 L105.6,205.8 L147.2,205.8 L188.9,205.8 L230.5,205.8 L272.1,205.8 L313.8,205.8 L355.4,205.8 L397.0,205.8 L438.6,205.8 L480.2,205.8 L521.9,205.8 L563.5,205.8 L605.1,205.8 L646.8,205.8 L688.4,205.8 L730.0,205.8" fill="none" stroke="#008300" stroke-width="2" stroke-linejoin="round" stroke-linecap="round"/>
<circle cx="730.0" cy="205.8" r="6" fill="#fcfcfb"/>
<circle cx="730.0" cy="205.8" r="4" fill="#008300"/>
<path d="M64.0,227.3 L105.6,227.3 L147.2,227.3 L188.9,227.3 L230.5,227.3 L272.1,227.3 L313.8,227.3 L355.4,227.3 L397.0,227.3 L438.6,227.3 L480.2,227.3 L521.9,227.3 L563.5,227.3 L605.1,227.3 L646.8,227.3 L688.4,227.3 L730.0,227.3" fill="none" stroke="#4a3aa7" stroke-width="2" stroke-linejoin="round" stroke-linecap="round"/>
<circle cx="730.0" cy="227.3" r="6" fill="#fcfcfb"/>
<circle cx="730.0" cy="227.3" r="4" fill="#4a3aa7"/>
<path d="M64.0,261.6 L105.6,261.6 L147.2,261.6 L188.9,261.6 L230.5,261.6 L272.1,261.6 L313.8,261.6 L355.4,261.6 L397.0,261.6 L438.6,261.6 L480.2,261.6 L521.9,261.6 L563.5,261.6 L605.1,261.6 L646.8,261.6 L688.4,261.6 L730.0,261.6" fill="none" stroke="#e34948" stroke-width="2" stroke-linejoin="round" stroke-linecap="round"/>
<circle cx="730.0" cy="261.6" r="6" fill="#fcfcfb"/>
<circle cx="730.0" cy="261.6" r="4" fill="#e34948"/>
<circle cx="745.0" cy="52.5" r="3.5" fill="#2a78d6"/>
<text x="753.0" y="56.0" font-family='system-ui, -apple-system, "Segoe UI", sans-serif' font-size="11" fill="#0b0b0b">granulator</text>
<text x="753.0" y="68.0" font-family='system-ui, -apple-system, "Segoe UI", sans-serif' font-size="10" style="font-variant-numeric: tabular-nums" fill="#52514e">27.5M</text>
<circle cx="745.0" cy="134.9" r="3.5" fill="#eda100"/>
<text x="753.0" y="138.4" font-family='system-ui, -apple-system, "Segoe UI", sans-serif' font-size="11" fill="#0b0b0b">resonator</text>
<text x="753.0" y="150.4" font-family='system-ui, -apple-system, "Segoe UI", sans-serif' font-size="10" style="font-variant-numeric: tabular-nums" fill="#52514e">18.4M</text>
<circle cx="745.0" cy="202.3" r="3.5" fill="#008300"/>
<text x="753.0" y="205.8" font-family='system-ui, -apple-system, "Segoe UI", sans-serif' font-size="11" fill="#0b0b0b">reverb</text>
<text x="753.0" y="217.8" font-family='system-ui, -apple-system, "Segoe UI", sans-serif' font-size="10" style="font-variant-numeric: tabular-nums" fill="#52514e">11.0M</text>
<line x1="736.0" y1="227.3" x2="740.0" y2="233.8" stroke="#c3c2b7" stroke-width="1"/>
<circle cx="745.0" cy="230.3" r="3.5" fill="#4a3aa7"/>
<text x="753.0" y="233.8" font-family='system-ui, -apple-system, "Segoe UI", sans-serif' font-size="11" fill="#0b0b0b">saturator</text>
<text x="753.0" y="245.8" font-family='system-ui, -apple-system, "Segoe UI", sans-serif' font-size="10" style="font-variant-numeric: tabular-nums" fill="#52514e">8.66M</text>
<line x1="736.0" y1="250.6" x2="740.0" y2="261.8" stroke="#c3c2b7" stroke-width="1"/>
<circle cx="745.0" cy="258.3" r="3.5" fill="#1baf7a"/>
<text x="753.0" y="261.8" font-family='system-ui, -apple-system, "Segoe UI", sans-serif' font-size="11" fill="#0b0b0b">pan</text>
<text x="753.0" y="273.8" font-family='system-ui, -apple-system, "Segoe UI", sans-serif' font-size="10" style="font-variant-numeric: tabular-nums" fill="#52514e">6.09M</text>
<line x1="736.0" y1="261.6" x2="740.0" y2="289.8" stroke="#c3c2b7" stroke-width="1"/>
<circle cx="745.0" cy="286.3" r="3.5" fill="#e34948"/>
<text x="753.0" y="289.8" font-family='system-ui, -apple-system, "Segoe UI", sans-serif' font-size="11" fill="#0b0b0b">sequencer</text>
<text x="753.0" y="301.8" font-family='system-ui, -apple-system, "Segoe UI", sans-serif' font-size="10" style="font-variant-numeric: tabular-nums" fill="#52514e">4.89M</text>
</svg>