<svg xmlns="http://www.w3.org/2000/svg" width="880" height="340" viewBox="0 0 880 340" role="img" aria-label="Heaviest operators (micro)">
<rect width="880" height="340" rx="6" fill="#1a1a19"/>
<text x="64" y="24" font-family='system-ui, -apple-system, "Segoe UI", sans-serif' font-size="14" font-weight="600" fill="#ffffff">Heaviest operators (micro)</text>
<text x="64" y="41" font-family='system-ui, -apple-system, "Segoe UI", sans-serif' font-size="11" fill="#c3c2b7">per-operator step_node cost over the same 1 s schedule - top 6 by latest Ir</text>
<line x1="64" y1="306.0" x2="730" y2="306.0" stroke="#2c2c2a" stroke-width="1"/>
<text x="56" y="309.5" text-anchor="end" font-family='system-ui, -apple-system, "Segoe UI", sans-serif' font-size="11" style="font-variant-numeric: tabular-nums" fill="#898781">0</text>
<line x1="64" y1="215.1" x2="730" y2="215.1" stroke="#2c2c2a" stroke-width="1"/>
<text x="56" y="218.6" text-anchor="end" font-family='system-ui, -apple-system, "Segoe UI", sans-serif' font-size="11" style="font-variant-numeric: tabular-nums" fill="#898781">10</text>
<line x1="64" y1="124.2" x2="730" y2="124.2" stroke="#2c2c2a" stroke-width="1"/>
<text x="56" y="127.7" text-anchor="end" font-family='system-ui, -apple-system, "Segoe UI", sans-serif' font-size="11" style="font-variant-numeric: tabular-nums" fill="#898781">20</text>
<text x="56" y="46" text-anchor="end" font-family='system-ui, -apple-system, "Segoe UI", sans-serif' font-size="10" fill="#898781">Ir (M)</text>
<line x1="64" y1="306" x2="730" y2="306" stroke="#383835" stroke-width="1"/>
<text x="64.0" y="322" text-anchor="middle" font-family='system-ui, -apple-system, "Segoe UI", sans-serif' font-size="11" style="font-variant-numeric: tabular-nums" fill="#898781">07-12</text>
<text x="192.9" y="322" text-anchor="middle" font-family='system-ui, -apple-system, "Segoe UI", sans-serif' font-size="11" style="font-variant-numeric: tabular-nums" fill="#898781">07-13</text>
<text x="214.4" y="322" text-anchor="middle" font-family='system-ui, -apple-system, "Segoe UI", sans-serif' font-size="11" style="font-variant-numeric: tabular-nums" fill="#898781">07-14</text>
<text x="235.9" y="322" text-anchor="middle" font-family='system-ui, -apple-system, "Segoe UI", sans-serif' font-size="11" style="font-variant-numeric: tabular-nums" fill="#898781">07-16</text>
<text x="407.7" y="322" text-anchor="middle" font-family='system-ui, -apple-system, "Segoe UI", sans-serif' font-size="11" style="font-variant-numeric: tabular-nums" fill="#898781">07-17</text>
<text x="536.6" y="322" text-anchor="middle" font-family='system-ui, -apple-system, "Segoe UI", sans-serif' font-size="11" style="font-variant-numeric: tabular-nums" fill="#898781">07-18</text>
<text x="665.5" y="322" text-anchor="middle" font-family='system-ui, -apple-system, "Segoe UI", sans-serif' font-size="11" style="font-variant-numeric: tabular-nums" fill="#898781">07-19</text>
<text x="730.0" y="322" text-anchor="middle" font-family='system-ui, -apple-system, "Segoe UI", sans-serif' font-size="11" style="font-variant-numeric: tabular-nums" fill="#898781">07-20</text>
<circle cx="730.0" cy="217.9" r="2.5" fill="#3987e5"/>
<circle cx="730.0" cy="217.9" r="6" fill="#1a1a19"/>
<circle cx="730.0" cy="217.9" r="4" fill="#3987e5"/>
<path d="M64.0,56.0 L85.5,56.0 L107.0,56.0 L128.5,56.0 L149.9,56.0 L171.4,56.0 L192.9,56.0 L214.4,56.0 L235.9,56.0 L257.4,56.0 L278.8,56.0 L300.3,56.0 L321.8,56.0 L343.3,56.0 L364.8,56.0 L386.3,56.0 L407.7,56.0 L429.2,56.0 L450.7,56.0 L472.2,56.0 L493.7,56.0 L515.2,56.0 L536.6,56.0 L558.1,56.0 L579.6,56.0 L601.1,56.0 L622.6,56.0 L644.1,56.0 L665.5,56.0 L687.0,56.0 L708.5,56.0 L730.0,56.0" fill="none" stroke="#199e70" stroke-width="2" stroke-linejoin="round" stroke-linecap="round"/>
<circle cx="730.0" cy="56.0" r="6" fill="#1a1a19"/>
<circle cx="730.0" cy="56.0" r="4" fill="#199e70"/>
<path d="M64.0,250.6 L85.5,250.6 L107.0,250.6 L128.5,250.6 L149.9,250.6 L171.4,250.6 L192.9,250.6 L214.4,250.6 L235.9,250.6 L257.4,250.6 L278.8,250.6 L300.3,250.6 L321.8,250.6 L343.3,250.6 L364.8,250.6 L386.3,250.6 L407.7,250.6 L429.2,250.6 L450.7,250.6 L472.2,250.6 L493.7,250.6 L515.2,250.6 L536.6,250.6 L558.1,250.6 L579.6,250.6 L601.1,250.6 L622.6,250.6 L644.1,250.6 L665.5,250.6 L687.0,250.6 L708.5,250.6 L730.0,250.6" fill="none" stroke="#c98500" stroke-width="2" stroke-linejoin="round" stroke-linecap="round"/>
<circle cx="730.0" cy="250.6" r="6" fill="#1a1a19"/>
<circle cx="730.0" cy="250.6" r="4" fill="#c98500"/>
<path d="M64.0,137.6 L85.5,137.6 L107.0,137.6 L128.5,137.6 L149.9,137.6 L171.4,137.6 L192.9,138.4 L214.4,138.4 L235.9,138.4 L257.4,138.4 L278.8,138.4 L300.3,138.4 L321.8,138.4 L343.3,138.4 L364.8,138.4 L386.3,138.4 L407.7,138.4 L429.2,138.4 L450.7,138.4 L472.2,138.4 L493.7,138.4 L515.2,138.4 L536.6,138.4 L558.1,138.4 L579.6,138.4 L601.1,138.4 L622.6,138.4 L644.1,138.4 L665.5,138.4 L687.0,138.4 L708.5,138.4 L730.0,138.4" fill="none" stroke="#008300" stroke-width="2" stroke-linejoin="round" stroke-linecap="round"/>
<circle cx="730.0" cy="138.4" r="6" fill="#1a1a19"/>
<circle cx="730.0" cy="138.4" r="4" fill="#008300"/>
<path d="M64.0,205.9 L85.5,205.9 L107.0,205.9 L128.5,205.9 L149.9,205.9 L171.4,205.9 L192.9,205.9 L214.4,205.9 L235.9,205.9 L257.4,205.9 L278.8,205.9 L300.3,205.9 L321.8,205.9 L343.3,205.9 L364.8,205.9 L386.3,205.9 L407.7,205.9 L429.2,205.9 L450.7,205.9 L472.2,205.9 L493.7,205.9 L515.2,205.9 L536.6,205.9 L558.1,205.9 L579.6,205.9 L601.1,205.9 L622.6,205.9 L644.1,205.9 L665.5,205.9 L687.0,205.9 L708.5,205.9 L730.0,205.9" fill="none" stroke="#9085e9" stroke-width="2" stroke-linejoin="round" stroke-linecap="round"/>
<circle cx="730.0" cy="205.9" r="6" fill="#1a1a19"/>
<circle cx="730.0" cy="205.9" r="4" fill="#9085e9"/>
<path d="M64.0,227.3 L85.5,227.3 L107.0,227.3 L128.5,227.3 L149.9,227.3 L171.4,227.3 L192.9,227.3 L214.4,227.3 L235.9,227.3 L257.4,227.3 L278.8,227.3 L300.3,227.3 L321.8,227.3 L343.3,227.3 L364.8,227.3 L386.3,227.3 L407.7,227.3 L429.2,227.3 L450.7,227.3 L472.2,227.3 L493.7,227.3 L515.2,227.3 L536.6,227.3 L558.1,227.3 L579.6,227.3 L601.1,227.3 L622.6,227.3 L644.1,227.3 L665.5,227.3 L687.0,227.3 L708.5,227.3 L730.0,227.3" fill="none" stroke="#e66767" stroke-width="2" stroke-linejoin="round" stroke-linecap="round"/>
<circle cx="730.0" cy="227.3" r="6" fill="#1a1a19"/>
<circle cx="730.0" cy="227.3" r="4" fill="#e66767"/>
<circle cx="745.0" cy="52.5" r="3.5" fill="#199e70"/>
<text x="753.0" y="56.0" font-family='system-ui, -apple-system, "Segoe UI", sans-serif' font-size="11" fill="#ffffff">granulator</text>
<text x="753.0" y="68.0" font-family='system-ui, -apple-system, "Segoe UI", sans-serif' font-size="10" style="font-variant-numeric: tabular-nums" fill="#c3c2b7">27.5M</text>
<circle cx="745.0" cy="134.9" r="3.5" fill="#008300"/>
<text x="753.0" y="138.4" font-family='system-ui, -apple-system, "Segoe UI", sans-serif' font-size="11" fill="#ffffff">resonator</text>
<text x="753.0" y="150.4" font-family='system-ui, -apple-system, "Segoe UI", sans-serif' font-size="10" style="font-variant-numeric: tabular-nums" fill="#c3c2b7">18.4M</text>
<circle cx="745.0" cy="202.4" r="3.5" fill="#9085e9"/>
<text x="753.0" y="205.9" font-family='system-ui, -apple-system, "Segoe UI", sans-serif' font-size="11" fill="#ffffff">reverb</text>
<text x="753.0" y="217.9" font-family='system-ui, -apple-system, "Segoe UI", sans-serif' font-size="10" style="font-variant-numeric: tabular-nums" fill="#c3c2b7">11.0M</text>
<line x1="736.0" y1="217.9" x2="740.0" y2="233.9" stroke="#383835" stroke-width="1"/>
<circle cx="745.0" cy="230.4" r="3.5" fill="#3987e5"/>
<text x="753.0" y="233.9" font-family='system-ui, -apple-system, "Segoe UI", sans-serif' font-size="11" fill="#ffffff">compressor</text>
<text x="753.0" y="245.9" font-family='system-ui, -apple-system, "Segoe UI", sans-serif' font-size="10" style="font-variant-numeric: tabular-nums" fill="#c3c2b7">9.69M</text>
<line x1="736.0" y1="227.3" x2="740.0" y2="261.9" stroke="#383835" stroke-width="1"/>
<circle cx="745.0" cy="258.4" r="3.5" fill="#e66767"/>
<text x="753.0" y="261.9" font-family='system-ui, -apple-system, "Segoe UI", sans-serif' font-size="11" fill="#ffffff">saturator</text>
<text x="753.0" y="273.9" font-family='system-ui, -apple-system, "Segoe UI", sans-serif' font-size="10" style="font-variant-numeric: tabular-nums" fill="#c3c2b7">8.65M</text>
<line x1="736.0" y1="250.6" x2="740.0" y2="289.9" stroke="#383835" stroke-width="1"/>
<circle cx="745.0" cy="286.4" r="3.5" fill="#c98500"/>
<text x="753.0" y="289.9" font-family='system-ui, -apple-system, "Segoe UI", sans-serif' font-size="11" fill="#ffffff">pan</text>
<text x="753.0" y="301.9" font-family='system-ui, -apple-system, "Segoe UI", sans-serif' font-size="10" style="font-variant-numeric: tabular-nums" fill="#c3c2b7">6.09M</text>
</svg>