<svg xmlns="http://www.w3.org/2000/svg" width="880" height="340" viewBox="0 0 880 340" role="img" aria-label="Heaviest operators (micro)">
<rect width="880" height="340" rx="6" fill="#fcfcfb"/>
<text x="64" y="24" font-family='system-ui, -apple-system, "Segoe UI", sans-serif' font-size="14" font-weight="600" fill="#0b0b0b">Heaviest operators (micro)</text>
<text x="64" y="41" font-family='system-ui, -apple-system, "Segoe UI", sans-serif' font-size="11" fill="#52514e">per-operator step_node cost over the same 1 s schedule - top 6 by latest Ir</text>
<line x1="64" y1="306.0" x2="730" y2="306.0" stroke="#e1e0d9" stroke-width="1"/>
<text x="56" y="309.5" text-anchor="end" font-family='system-ui, -apple-system, "Segoe UI", sans-serif' font-size="11" style="font-variant-numeric: tabular-nums" fill="#898781">0</text>
<line x1="64" y1="218.1" x2="730" y2="218.1" stroke="#e1e0d9" stroke-width="1"/>
<text x="56" y="221.6" text-anchor="end" font-family='system-ui, -apple-system, "Segoe UI", sans-serif' font-size="11" style="font-variant-numeric: tabular-nums" fill="#898781">10</text>
<line x1="64" y1="130.3" x2="730" y2="130.3" stroke="#e1e0d9" stroke-width="1"/>
<text x="56" y="133.8" text-anchor="end" font-family='system-ui, -apple-system, "Segoe UI", sans-serif' font-size="11" style="font-variant-numeric: tabular-nums" fill="#898781">20</text>
<text x="56" y="46" text-anchor="end" font-family='system-ui, -apple-system, "Segoe UI", sans-serif' font-size="10" fill="#898781">Ir (M)</text>
<line x1="64" y1="306" x2="730" y2="306" stroke="#c3c2b7" stroke-width="1"/>
<text x="64.0" y="322" text-anchor="middle" font-family='system-ui, -apple-system, "Segoe UI", sans-serif' font-size="11" style="font-variant-numeric: tabular-nums" fill="#898781">06-28</text>
<text x="156.9" y="322" text-anchor="middle" font-family='system-ui, -apple-system, "Segoe UI", sans-serif' font-size="11" style="font-variant-numeric: tabular-nums" fill="#898781">06-30</text>
<text x="234.4" y="322" text-anchor="middle" font-family='system-ui, -apple-system, "Segoe UI", sans-serif' font-size="11" style="font-variant-numeric: tabular-nums" fill="#898781">07-02</text>
<text x="404.7" y="322" text-anchor="middle" font-family='system-ui, -apple-system, "Segoe UI", sans-serif' font-size="11" style="font-variant-numeric: tabular-nums" fill="#898781">07-04</text>
<text x="652.6" y="322" text-anchor="middle" font-family='system-ui, -apple-system, "Segoe UI", sans-serif' font-size="11" style="font-variant-numeric: tabular-nums" fill="#898781">07-07</text>
<path d="M172.4,56.2 L187.9,56.2 L203.4,56.1 L218.9,61.2 L234.4,56.2 L249.9,56.2 L265.3,56.2 L280.8,56.2 L296.3,56.2 L311.8,56.2 L327.3,56.2 L342.8,56.2 L358.3,56.2 L373.8,56.2 L389.3,56.2 L404.7,56.2 L420.2,56.2 L435.7,56.2 L451.2,56.2 L466.7,60.8 L482.2,56.1 L497.7,56.1 L513.2,56.1 L528.7,56.1 L544.1,56.1 L559.6,60.6 L575.1,60.6 L590.6,56.1 L606.1,56.0 L621.6,56.0 L637.1,56.0 L652.6,56.0 L668.0,56.0 L683.5,56.0 L699.0,56.0 L714.5,56.0 L730.0,56.0" fill="none" stroke="#2a78d6" stroke-width="2" stroke-linejoin="round" stroke-linecap="round"/>
<circle cx="730.0" cy="56.0" r="6" fill="#fcfcfb"/>
<circle cx="730.0" cy="56.0" r="4" fill="#2a78d6"/>
<path d="M64.0,264.6 L79.5,264.6 L95.0,264.6 L110.5,264.6 L126.0,264.6 L141.4,266.2 L156.9,265.8 L172.4,265.4 L187.9,265.5 L203.4,265.4 L218.9,265.4 L234.4,265.5 L249.9,265.4 L265.3,265.5 L280.8,265.5 L296.3,265.5 L311.8,265.5 L327.3,265.5 L342.8,265.0 L358.3,265.0 L373.8,265.0 L389.3,265.0 L404.7,265.0 L420.2,265.0 L435.7,265.0 L451.2,265.0 L466.7,265.0 L482.2,264.9 L497.7,264.9 L513.2,264.9 L528.7,264.9 L544.1,264.9 L559.6,264.9 L575.1,264.9 L590.6,264.9 L606.1,264.8 L621.6,264.8 L637.1,264.8 L652.6,264.8 L668.0,264.8 L683.5,264.8 L699.0,264.8 L714.5,264.8 L730.0,264.8" fill="none" stroke="#1baf7a" stroke-width="2" stroke-linejoin="round" stroke-linecap="round"/>
<circle cx="730.0" cy="264.8" r="6" fill="#fcfcfb"/>
<circle cx="730.0" cy="264.8" r="4" fill="#1baf7a"/>
<path d="M64.0,246.7 L79.5,246.7 L95.0,246.7 L110.5,246.7 L126.0,246.7 L141.4,246.6 L156.9,246.6 L172.4,246.2 L187.9,246.3 L203.4,246.3 L218.9,246.3 L234.4,246.3 L249.9,246.3 L265.3,246.3 L280.8,246.3 L296.3,246.3 L311.8,246.3 L327.3,246.3 L342.8,251.7 L358.3,251.7 L373.8,251.7 L389.3,251.7 L404.7,251.7 L420.2,251.7 L435.7,251.7 L451.2,251.7 L466.7,251.7 L482.2,251.6 L497.7,251.6 L513.2,251.6 L528.7,251.6 L544.1,251.6 L559.6,251.6 L575.1,251.6 L590.6,251.6 L606.1,251.5 L621.6,251.5 L637.1,251.5 L652.6,251.5 L668.0,251.5 L683.5,251.5 L699.0,251.5 L714.5,251.5 L730.0,251.5" fill="none" stroke="#eda100" stroke-width="2" stroke-linejoin="round" stroke-linecap="round"/>
<circle cx="730.0" cy="251.5" r="6" fill="#fcfcfb"/>
<circle cx="730.0" cy="251.5" r="4" fill="#eda100"/>
<path d="M95.0,97.2 L110.5,97.2 L126.0,97.2 L141.4,138.2 L156.9,138.2 L172.4,137.8 L187.9,137.8 L203.4,137.8 L218.9,137.9 L234.4,137.8 L249.9,137.9 L265.3,137.8 L280.8,137.8 L296.3,137.8 L311.8,137.8 L327.3,137.8 L342.8,142.4 L358.3,142.4 L373.8,142.4 L389.3,142.4 L404.7,142.4 L420.2,142.4 L435.7,142.4 L451.2,142.4 L466.7,142.4 L482.2,142.4 L497.7,142.4 L513.2,142.4 L528.7,142.4 L544.1,142.4 L559.6,142.3 L575.1,142.4 L590.6,142.3 L606.1,142.3 L621.6,142.3 L637.1,142.3 L652.6,142.3 L668.0,142.3 L683.5,142.3 L699.0,142.3 L714.5,142.3 L730.0,142.3" fill="none" stroke="#008300" stroke-width="2" stroke-linejoin="round" stroke-linecap="round"/>
<circle cx="730.0" cy="142.3" r="6" fill="#fcfcfb"/>
<circle cx="730.0" cy="142.3" r="4" fill="#008300"/>
<path d="M64.0,195.3 L79.5,195.3 L95.0,195.4 L110.5,195.4 L126.0,195.4 L141.4,204.2 L156.9,204.1 L172.4,203.8 L187.9,203.8 L203.4,203.8 L218.9,203.9 L234.4,203.8 L249.9,203.8 L265.3,203.8 L280.8,203.8 L296.3,203.8 L311.8,203.8 L327.3,203.8 L342.8,208.4 L358.3,208.4 L373.8,208.4 L389.3,208.4 L404.7,208.4 L420.2,208.4 L435.7,208.4 L451.2,208.4 L466.7,208.5 L482.2,208.3 L497.7,208.3 L513.2,208.3 L528.7,208.3 L544.1,208.3 L559.6,208.3 L575.1,208.4 L590.6,208.4 L606.1,208.2 L621.6,208.2 L637.1,208.2 L652.6,208.2 L668.0,208.2 L683.5,208.2 L699.0,208.2 L714.5,208.2 L730.0,208.2" fill="none" stroke="#4a3aa7" stroke-width="2" stroke-linejoin="round" stroke-linecap="round"/>
<circle cx="730.0" cy="208.2" r="6" fill="#fcfcfb"/>
<circle cx="730.0" cy="208.2" r="4" fill="#4a3aa7"/>
<path d="M64.0,262.8 L79.5,262.8 L95.0,262.8 L110.5,262.8 L126.0,263.0 L141.4,263.2 L156.9,263.0 L172.4,262.4 L187.9,262.5 L203.4,262.4 L218.9,262.5 L234.4,262.5 L249.9,262.5 L265.3,262.5 L280.8,262.5 L296.3,262.5 L311.8,262.5 L327.3,262.5 L342.8,261.7 L358.3,261.7 L373.8,261.6 L389.3,261.4 L404.7,261.4 L420.2,261.4 L435.7,261.4 L451.2,261.4 L466.7,261.4 L482.2,261.3 L497.7,261.3 L513.2,261.3 L528.7,261.3 L544.1,261.3 L559.6,261.2 L575.1,261.3 L590.6,261.3 L606.1,261.0 L621.6,261.0 L637.1,261.1 L652.6,261.1 L668.0,261.1 L683.5,261.1 L699.0,261.1 L714.5,261.1 L730.0,261.1" fill="none" stroke="#e34948" stroke-width="2" stroke-linejoin="round" stroke-linecap="round"/>
<circle cx="730.0" cy="261.1" r="6" fill="#fcfcfb"/>
<circle cx="730.0" cy="261.1" r="4" fill="#e34948"/>
<circle cx="745.0" cy="52.5" r="3.5" fill="#2a78d6"/>
<text x="753.0" y="56.0" font-family='system-ui, -apple-system, "Segoe UI", sans-serif' font-size="11" fill="#0b0b0b">granulator</text>
<text x="753.0" y="68.0" font-family='system-ui, -apple-system, "Segoe UI", sans-serif' font-size="10" style="font-variant-numeric: tabular-nums" fill="#52514e">28.5M</text>
<circle cx="745.0" cy="138.8" r="3.5" fill="#008300"/>
<text x="753.0" y="142.3" font-family='system-ui, -apple-system, "Segoe UI", sans-serif' font-size="11" fill="#0b0b0b">resonator</text>
<text x="753.0" y="154.3" font-family='system-ui, -apple-system, "Segoe UI", sans-serif' font-size="10" style="font-variant-numeric: tabular-nums" fill="#52514e">18.6M</text>
<circle cx="745.0" cy="204.7" r="3.5" fill="#4a3aa7"/>
<text x="753.0" y="208.2" font-family='system-ui, -apple-system, "Segoe UI", sans-serif' font-size="11" fill="#0b0b0b">reverb</text>
<text x="753.0" y="220.2" font-family='system-ui, -apple-system, "Segoe UI", sans-serif' font-size="10" style="font-variant-numeric: tabular-nums" fill="#52514e">11.1M</text>
<circle cx="745.0" cy="248.0" r="3.5" fill="#eda100"/>
<text x="753.0" y="251.5" font-family='system-ui, -apple-system, "Segoe UI", sans-serif' font-size="11" fill="#0b0b0b">pan</text>
<text x="753.0" y="263.5" font-family='system-ui, -apple-system, "Segoe UI", sans-serif' font-size="10" style="font-variant-numeric: tabular-nums" fill="#52514e">6.20M</text>
<line x1="736.0" y1="261.1" x2="740.0" y2="279.5" stroke="#c3c2b7" stroke-width="1"/>
<circle cx="745.0" cy="276.0" r="3.5" fill="#e34948"/>
<text x="753.0" y="279.5" font-family='system-ui, -apple-system, "Segoe UI", sans-serif' font-size="11" fill="#0b0b0b">sequencer</text>
<text x="753.0" y="291.5" font-family='system-ui, -apple-system, "Segoe UI", sans-serif' font-size="10" style="font-variant-numeric: tabular-nums" fill="#52514e">5.11M</text>
<line x1="736.0" y1="264.8" x2="740.0" y2="307.5" stroke="#c3c2b7" stroke-width="1"/>
<circle cx="745.0" cy="304.0" r="3.5" fill="#1baf7a"/>
<text x="753.0" y="307.5" font-family='system-ui, -apple-system, "Segoe UI", sans-serif' font-size="11" fill="#0b0b0b">map_f32_signal</text>
<text x="753.0" y="319.5" font-family='system-ui, -apple-system, "Segoe UI", sans-serif' font-size="10" style="font-variant-numeric: tabular-nums" fill="#52514e">4.69M</text>
</svg>