<svg xmlns="http://www.w3.org/2000/svg" width="880" height="340" viewBox="0 0 880 340" role="img" aria-label="Heaviest operators (micro)">
<rect width="880" height="340" rx="6" fill="#fcfcfb"/>
<text x="64" y="24" font-family='system-ui, -apple-system, "Segoe UI", sans-serif' font-size="14" font-weight="600" fill="#0b0b0b">Heaviest operators (micro)</text>
<text x="64" y="41" font-family='system-ui, -apple-system, "Segoe UI", sans-serif' font-size="11" fill="#52514e">per-operator step_node cost over the same 1 s schedule - top 6 by latest Ir</text>
<line x1="64" y1="306.0" x2="730" y2="306.0" stroke="#e1e0d9" stroke-width="1"/>
<text x="56" y="309.5" text-anchor="end" font-family='system-ui, -apple-system, "Segoe UI", sans-serif' font-size="11" style="font-variant-numeric: tabular-nums" fill="#898781">0</text>
<line x1="64" y1="215.1" x2="730" y2="215.1" stroke="#e1e0d9" stroke-width="1"/>
<text x="56" y="218.6" text-anchor="end" font-family='system-ui, -apple-system, "Segoe UI", sans-serif' font-size="11" style="font-variant-numeric: tabular-nums" fill="#898781">10</text>
<line x1="64" y1="124.2" x2="730" y2="124.2" stroke="#e1e0d9" stroke-width="1"/>
<text x="56" y="127.7" text-anchor="end" font-family='system-ui, -apple-system, "Segoe UI", sans-serif' font-size="11" style="font-variant-numeric: tabular-nums" fill="#898781">20</text>
<text x="56" y="46" text-anchor="end" font-family='system-ui, -apple-system, "Segoe UI", sans-serif' font-size="10" fill="#898781">Ir (M)</text>
<line x1="64" y1="306" x2="730" y2="306" stroke="#c3c2b7" stroke-width="1"/>
<text x="64.0" y="322" text-anchor="middle" font-family='system-ui, -apple-system, "Segoe UI", sans-serif' font-size="11" style="font-variant-numeric: tabular-nums" fill="#898781">07-12</text>
<text x="157.2" y="322" text-anchor="middle" font-family='system-ui, -apple-system, "Segoe UI", sans-serif' font-size="11" style="font-variant-numeric: tabular-nums" fill="#898781">07-14</text>
<text x="277.1" y="322" text-anchor="middle" font-family='system-ui, -apple-system, "Segoe UI", sans-serif' font-size="11" style="font-variant-numeric: tabular-nums" fill="#898781">07-17</text>
<text x="437.0" y="322" text-anchor="middle" font-family='system-ui, -apple-system, "Segoe UI", sans-serif' font-size="11" style="font-variant-numeric: tabular-nums" fill="#898781">07-19</text>
<text x="676.7" y="322" text-anchor="middle" font-family='system-ui, -apple-system, "Segoe UI", sans-serif' font-size="11" style="font-variant-numeric: tabular-nums" fill="#898781">07-21</text>
<path d="M476.9,217.9 L490.2,217.9 L503.6,217.9 L516.9,217.9 L530.2,217.9 L543.5,217.9 L556.8,217.9 L570.2,217.9 L583.5,217.9 L596.8,217.9 L610.1,218.0 L623.4,218.0 L636.8,218.0 L650.1,218.0 L663.4,218.0 L676.7,218.0 L690.0,218.0 L703.4,218.0 L716.7,218.0 L730.0,218.0" fill="none" stroke="#2a78d6" stroke-width="2" stroke-linejoin="round" stroke-linecap="round"/>
<circle cx="730.0" cy="218.0" r="6" fill="#fcfcfb"/>
<circle cx="730.0" cy="218.0" r="4" fill="#2a78d6"/>
<path d="M64.0,56.0 L77.3,56.0 L90.6,56.0 L104.0,56.0 L117.3,56.0 L130.6,56.0 L143.9,56.0 L157.2,56.0 L170.6,56.0 L183.9,56.0 L197.2,56.0 L210.5,56.0 L223.8,56.0 L237.2,56.0 L250.5,56.0 L263.8,56.0 L277.1,56.0 L290.4,56.0 L303.8,56.0 L317.1,56.0 L330.4,56.0 L343.7,56.0 L357.0,56.0 L370.4,56.0 L383.7,56.0 L397.0,56.0 L410.3,56.0 L423.6,56.0 L437.0,56.0 L450.3,56.0 L463.6,56.0 L476.9,56.0 L490.2,56.0 L503.6,56.0 L516.9,56.0 L530.2,56.0 L543.5,56.0 L556.8,56.0 L570.2,56.0 L583.5,56.0 L596.8,56.0 L610.1,56.1 L623.4,56.1 L636.8,56.1 L650.1,56.1 L663.4,56.1 L676.7,56.1 L690.0,56.1 L703.4,56.1 L716.7,56.1 L730.0,56.1" fill="none" stroke="#1baf7a" stroke-width="2" stroke-linejoin="round" stroke-linecap="round"/>
<circle cx="730.0" cy="56.1" r="6" fill="#fcfcfb"/>
<circle cx="730.0" cy="56.1" r="4" fill="#1baf7a"/>
<path d="M64.0,250.6 L77.3,250.6 L90.6,250.6 L104.0,250.6 L117.3,250.6 L130.6,250.6 L143.9,250.6 L157.2,250.6 L170.6,250.6 L183.9,250.6 L197.2,250.6 L210.5,250.6 L223.8,250.6 L237.2,250.6 L250.5,250.6 L263.8,250.6 L277.1,250.6 L290.4,250.6 L303.8,250.6 L317.1,250.6 L330.4,250.6 L343.7,250.6 L357.0,250.6 L370.4,250.6 L383.7,250.6 L397.0,250.6 L410.3,250.6 L423.6,250.6 L437.0,250.6 L450.3,250.6 L463.6,250.6 L476.9,250.6 L490.2,250.6 L503.6,250.7 L516.9,250.7 L530.2,250.7 L543.5,250.7 L556.8,250.7 L570.2,250.7 L583.5,250.7 L596.8,250.7 L610.1,250.7 L623.4,250.7 L636.8,250.7 L650.1,250.7 L663.4,250.7 L676.7,250.7 L690.0,250.7 L703.4,250.7 L716.7,250.7 L730.0,250.7" fill="none" stroke="#eda100" stroke-width="2" stroke-linejoin="round" stroke-linecap="round"/>
<circle cx="730.0" cy="250.7" r="6" fill="#fcfcfb"/>
<circle cx="730.0" cy="250.7" r="4" fill="#eda100"/>
<path d="M64.0,137.6 L77.3,137.6 L90.6,137.6 L104.0,137.6 L117.3,137.6 L130.6,137.6 L143.9,138.4 L157.2,138.4 L170.6,138.4 L183.9,138.4 L197.2,138.4 L210.5,138.4 L223.8,138.4 L237.2,138.4 L250.5,138.4 L263.8,138.4 L277.1,138.4 L290.4,138.4 L303.8,138.4 L317.1,138.4 L330.4,138.4 L343.7,138.4 L357.0,138.4 L370.4,138.4 L383.7,138.4 L397.0,138.4 L410.3,138.4 L423.6,138.4 L437.0,138.4 L450.3,138.4 L463.6,138.4 L476.9,138.4 L490.2,138.4 L503.6,138.4 L516.9,138.4 L530.2,138.4 L543.5,138.4 L556.8,138.4 L570.2,138.4 L583.5,138.4 L596.8,138.4 L610.1,138.5 L623.4,138.5 L636.8,138.5 L650.1,138.5 L663.4,138.5 L676.7,138.5 L690.0,138.5 L703.4,138.5 L716.7,138.5 L730.0,138.5" fill="none" stroke="#008300" stroke-width="2" stroke-linejoin="round" stroke-linecap="round"/>
<circle cx="730.0" cy="138.5" r="6" fill="#fcfcfb"/>
<circle cx="730.0" cy="138.5" r="4" fill="#008300"/>
<path d="M64.0,205.9 L77.3,205.9 L90.6,205.9 L104.0,205.9 L117.3,205.9 L130.6,205.9 L143.9,205.9 L157.2,205.9 L170.6,205.9 L183.9,205.9 L197.2,205.9 L210.5,205.9 L223.8,205.9 L237.2,205.9 L250.5,205.9 L263.8,205.9 L277.1,205.9 L290.4,205.9 L303.8,205.9 L317.1,205.9 L330.4,205.9 L343.7,205.9 L357.0,205.9 L370.4,205.9 L383.7,205.9 L397.0,205.9 L410.3,205.9 L423.6,205.9 L437.0,205.9 L450.3,205.9 L463.6,205.9 L476.9,205.9 L490.2,205.9 L503.6,205.9 L516.9,205.9 L530.2,205.9 L543.5,205.9 L556.8,205.9 L570.2,205.9 L583.5,205.9 L596.8,205.9 L610.1,205.9 L623.4,205.9 L636.8,205.9 L650.1,205.9 L663.4,205.9 L676.7,205.9 L690.0,205.9 L703.4,205.9 L716.7,205.9 L730.0,205.9" fill="none" stroke="#4a3aa7" stroke-width="2" stroke-linejoin="round" stroke-linecap="round"/>
<circle cx="730.0" cy="205.9" r="6" fill="#fcfcfb"/>
<circle cx="730.0" cy="205.9" r="4" fill="#4a3aa7"/>
<path d="M64.0,227.3 L77.3,227.3 L90.6,227.3 L104.0,227.3 L117.3,227.3 L130.6,227.3 L143.9,227.3 L157.2,227.3 L170.6,227.3 L183.9,227.3 L197.2,227.3 L210.5,227.3 L223.8,227.3 L237.2,227.3 L250.5,227.3 L263.8,227.3 L277.1,227.3 L290.4,227.3 L303.8,227.3 L317.1,227.3 L330.4,227.3 L343.7,227.3 L357.0,227.3 L370.4,227.3 L383.7,227.3 L397.0,227.3 L410.3,227.3 L423.6,227.3 L437.0,227.3 L450.3,227.3 L463.6,227.3 L476.9,227.3 L490.2,227.3 L503.6,227.3 L516.9,227.3 L530.2,227.3 L543.5,227.3 L556.8,227.3 L570.2,227.3 L583.5,227.3 L596.8,227.3 L610.1,227.3 L623.4,227.3 L636.8,227.3 L650.1,227.3 L663.4,227.3 L676.7,227.3 L690.0,227.3 L703.4,227.3 L716.7,227.3 L730.0,227.3" fill="none" stroke="#e34948" stroke-width="2" stroke-linejoin="round" stroke-linecap="round"/>
<circle cx="730.0" cy="227.3" r="6" fill="#fcfcfb"/>
<circle cx="730.0" cy="227.3" r="4" fill="#e34948"/>
<circle cx="745.0" cy="52.6" r="3.5" fill="#1baf7a"/>
<text x="753.0" y="56.1" font-family='system-ui, -apple-system, "Segoe UI", sans-serif' font-size="11" fill="#0b0b0b">granulator</text>
<text x="753.0" y="68.1" font-family='system-ui, -apple-system, "Segoe UI", sans-serif' font-size="10" style="font-variant-numeric: tabular-nums" fill="#52514e">27.5M</text>
<circle cx="745.0" cy="135.0" r="3.5" fill="#008300"/>
<text x="753.0" y="138.5" font-family='system-ui, -apple-system, "Segoe UI", sans-serif' font-size="11" fill="#0b0b0b">resonator</text>
<text x="753.0" y="150.5" font-family='system-ui, -apple-system, "Segoe UI", sans-serif' font-size="10" style="font-variant-numeric: tabular-nums" fill="#52514e">18.4M</text>
<circle cx="745.0" cy="202.4" r="3.5" fill="#4a3aa7"/>
<text x="753.0" y="205.9" font-family='system-ui, -apple-system, "Segoe UI", sans-serif' font-size="11" fill="#0b0b0b">reverb</text>
<text x="753.0" y="217.9" font-family='system-ui, -apple-system, "Segoe UI", sans-serif' font-size="10" style="font-variant-numeric: tabular-nums" fill="#52514e">11.0M</text>
<line x1="736.0" y1="218.0" x2="740.0" y2="233.9" stroke="#c3c2b7" stroke-width="1"/>
<circle cx="745.0" cy="230.4" r="3.5" fill="#2a78d6"/>
<text x="753.0" y="233.9" font-family='system-ui, -apple-system, "Segoe UI", sans-serif' font-size="11" fill="#0b0b0b">compressor</text>
<text x="753.0" y="245.9" font-family='system-ui, -apple-system, "Segoe UI", sans-serif' font-size="10" style="font-variant-numeric: tabular-nums" fill="#52514e">9.68M</text>
<line x1="736.0" y1="227.3" x2="740.0" y2="261.9" stroke="#c3c2b7" stroke-width="1"/>
<circle cx="745.0" cy="258.4" r="3.5" fill="#e34948"/>
<text x="753.0" y="261.9" font-family='system-ui, -apple-system, "Segoe UI", sans-serif' font-size="11" fill="#0b0b0b">saturator</text>
<text x="753.0" y="273.9" font-family='system-ui, -apple-system, "Segoe UI", sans-serif' font-size="10" style="font-variant-numeric: tabular-nums" fill="#52514e">8.65M</text>
<line x1="736.0" y1="250.7" x2="740.0" y2="289.9" stroke="#c3c2b7" stroke-width="1"/>
<circle cx="745.0" cy="286.4" r="3.5" fill="#eda100"/>
<text x="753.0" y="289.9" font-family='system-ui, -apple-system, "Segoe UI", sans-serif' font-size="11" fill="#0b0b0b">pan</text>
<text x="753.0" y="301.9" font-family='system-ui, -apple-system, "Segoe UI", sans-serif' font-size="10" style="font-variant-numeric: tabular-nums" fill="#52514e">6.08M</text>
</svg>