<svg xmlns="http://www.w3.org/2000/svg" width="880" height="340" viewBox="0 0 880 340" role="img" aria-label="Heaviest operators (micro)">
<rect width="880" height="340" rx="6" fill="#1a1a19"/>
<text x="64" y="24" font-family='system-ui, -apple-system, "Segoe UI", sans-serif' font-size="14" font-weight="600" fill="#ffffff">Heaviest operators (micro)</text>
<text x="64" y="41" font-family='system-ui, -apple-system, "Segoe UI", sans-serif' font-size="11" fill="#c3c2b7">per-operator step_node cost over the same 1 s schedule - top 6 by latest Ir</text>
<line x1="64" y1="306.0" x2="730" y2="306.0" stroke="#2c2c2a" stroke-width="1"/>
<text x="56" y="309.5" text-anchor="end" font-family='system-ui, -apple-system, "Segoe UI", sans-serif' font-size="11" style="font-variant-numeric: tabular-nums" fill="#898781">0</text>
<line x1="64" y1="215.5" x2="730" y2="215.5" stroke="#2c2c2a" stroke-width="1"/>
<text x="56" y="219.0" text-anchor="end" font-family='system-ui, -apple-system, "Segoe UI", sans-serif' font-size="11" style="font-variant-numeric: tabular-nums" fill="#898781">10</text>
<line x1="64" y1="125.0" x2="730" y2="125.0" stroke="#2c2c2a" stroke-width="1"/>
<text x="56" y="128.5" text-anchor="end" font-family='system-ui, -apple-system, "Segoe UI", sans-serif' font-size="11" style="font-variant-numeric: tabular-nums" fill="#898781">20</text>
<text x="56" y="46" text-anchor="end" font-family='system-ui, -apple-system, "Segoe UI", sans-serif' font-size="10" fill="#898781">Ir (M)</text>
<line x1="64" y1="306" x2="730" y2="306" stroke="#383835" stroke-width="1"/>
<text x="64.0" y="322" text-anchor="middle" font-family='system-ui, -apple-system, "Segoe UI", sans-serif' font-size="11" style="font-variant-numeric: tabular-nums" fill="#898781">07-12</text>
<text x="141.7" y="322" text-anchor="middle" font-family='system-ui, -apple-system, "Segoe UI", sans-serif' font-size="11" style="font-variant-numeric: tabular-nums" fill="#898781">07-14</text>
<text x="241.6" y="322" text-anchor="middle" font-family='system-ui, -apple-system, "Segoe UI", sans-serif' font-size="11" style="font-variant-numeric: tabular-nums" fill="#898781">07-17</text>
<text x="374.8" y="322" text-anchor="middle" font-family='system-ui, -apple-system, "Segoe UI", sans-serif' font-size="11" style="font-variant-numeric: tabular-nums" fill="#898781">07-19</text>
<text x="574.6" y="322" text-anchor="middle" font-family='system-ui, -apple-system, "Segoe UI", sans-serif' font-size="11" style="font-variant-numeric: tabular-nums" fill="#898781">07-21</text>
<path d="M408.1,218.3 L419.2,218.3 L430.3,218.3 L441.4,218.3 L452.5,218.3 L463.6,218.3 L474.7,218.3 L485.8,218.3 L496.9,218.3 L508.0,218.3 L519.1,218.4 L530.2,218.4 L541.3,218.4 L552.4,218.4 L563.5,218.4 L574.6,218.4 L585.7,218.4 L596.8,218.4 L607.9,218.4 L619.0,218.4 L630.1,218.4 L641.2,218.4 L652.3,218.4 L663.4,218.4 L674.5,218.5 L685.6,218.5 L696.7,218.5 L707.8,218.5 L718.9,218.5 L730.0,218.5" fill="none" stroke="#3987e5" stroke-width="2" stroke-linejoin="round" stroke-linecap="round"/>
<circle cx="730.0" cy="218.5" r="6" fill="#1a1a19"/>
<circle cx="730.0" cy="218.5" r="4" fill="#3987e5"/>
<path d="M64.0,57.2 L75.1,57.2 L86.2,57.2 L97.3,57.2 L108.4,57.2 L119.5,57.2 L130.6,57.2 L141.7,57.2 L152.8,57.2 L163.9,57.2 L175.0,57.2 L186.1,57.2 L197.2,57.2 L208.3,57.2 L219.4,57.2 L230.5,57.2 L241.6,57.2 L252.7,57.2 L263.8,57.2 L274.9,57.2 L286.0,57.2 L297.1,57.2 L308.2,57.2 L319.3,57.2 L330.4,57.2 L341.5,57.2 L352.6,57.2 L363.7,57.2 L374.8,57.2 L385.9,57.2 L397.0,57.2 L408.1,57.2 L419.2,57.2 L430.3,57.2 L441.4,57.2 L452.5,57.2 L463.6,57.2 L474.7,57.2 L485.8,57.2 L496.9,57.2 L508.0,57.2 L519.1,57.2 L530.2,57.2 L541.3,57.2 L552.4,57.2 L563.5,57.2 L574.6,57.2 L585.7,57.2 L596.8,57.2 L607.9,57.2 L619.0,57.2 L630.1,57.2 L641.2,57.2 L652.3,57.2 L663.4,57.2 L674.5,57.2 L685.6,56.0 L696.7,56.0 L707.8,56.0 L718.9,56.0 L730.0,56.0" fill="none" stroke="#199e70" stroke-width="2" stroke-linejoin="round" stroke-linecap="round"/>
<circle cx="730.0" cy="56.0" r="6" fill="#1a1a19"/>
<circle cx="730.0" cy="56.0" r="4" fill="#199e70"/>
<path d="M64.0,250.9 L75.1,250.9 L86.2,250.9 L97.3,250.9 L108.4,250.9 L119.5,250.9 L130.6,250.9 L141.7,250.9 L152.8,250.9 L163.9,250.9 L175.0,250.9 L186.1,250.9 L197.2,250.9 L208.3,250.9 L219.4,250.9 L230.5,250.9 L241.6,250.9 L252.7,250.9 L263.8,250.9 L274.9,250.9 L286.0,250.9 L297.1,250.9 L308.2,250.9 L319.3,250.9 L330.4,250.9 L341.5,250.9 L352.6,250.9 L363.7,250.9 L374.8,250.9 L385.9,250.9 L397.0,250.9 L408.1,250.9 L419.2,250.9 L430.3,250.9 L441.4,250.9 L452.5,250.9 L463.6,250.9 L474.7,250.9 L485.8,250.9 L496.9,250.9 L508.0,250.9 L519.1,250.9 L530.2,250.9 L541.3,250.9 L552.4,250.9 L563.5,250.9 L574.6,250.9 L585.7,250.9 L596.8,250.9 L607.9,250.9 L619.0,250.9 L630.1,250.9 L641.2,250.9 L652.3,250.9 L663.4,250.9 L674.5,250.9 L685.6,251.0 L696.7,251.0 L707.8,251.0 L718.9,251.0 L730.0,251.0" fill="none" stroke="#c98500" stroke-width="2" stroke-linejoin="round" stroke-linecap="round"/>
<circle cx="730.0" cy="251.0" r="6" fill="#1a1a19"/>
<circle cx="730.0" cy="251.0" r="4" fill="#c98500"/>
<path d="M64.0,138.4 L75.1,138.4 L86.2,138.4 L97.3,138.4 L108.4,138.4 L119.5,138.4 L130.6,139.2 L141.7,139.2 L152.8,139.2 L163.9,139.2 L175.0,139.2 L186.1,139.2 L197.2,139.2 L208.3,139.2 L219.4,139.2 L230.5,139.2 L241.6,139.2 L252.7,139.2 L263.8,139.2 L274.9,139.2 L286.0,139.2 L297.1,139.2 L308.2,139.2 L319.3,139.2 L330.4,139.2 L341.5,139.2 L352.6,139.2 L363.7,139.2 L374.8,139.2 L385.9,139.2 L397.0,139.2 L408.1,139.2 L419.2,139.2 L430.3,139.2 L441.4,139.2 L452.5,139.2 L463.6,139.2 L474.7,139.2 L485.8,139.2 L496.9,139.2 L508.0,139.2 L519.1,139.3 L530.2,139.3 L541.3,139.3 L552.4,139.3 L563.5,139.3 L574.6,139.3 L585.7,139.3 L596.8,139.3 L607.9,139.3 L619.0,139.3 L630.1,139.2 L641.2,139.2 L652.3,139.2 L663.4,139.2 L674.5,139.2 L685.6,139.2 L696.7,139.2 L707.8,139.2 L718.9,139.2 L730.0,139.2" fill="none" stroke="#008300" stroke-width="2" stroke-linejoin="round" stroke-linecap="round"/>
<circle cx="730.0" cy="139.2" r="6" fill="#1a1a19"/>
<circle cx="730.0" cy="139.2" r="4" fill="#008300"/>
<path d="M64.0,206.3 L75.1,206.3 L86.2,206.3 L97.3,206.3 L108.4,206.3 L119.5,206.3 L130.6,206.3 L141.7,206.3 L152.8,206.3 L163.9,206.3 L175.0,206.3 L186.1,206.3 L197.2,206.3 L208.3,206.3 L219.4,206.3 L230.5,206.3 L241.6,206.3 L252.7,206.3 L263.8,206.3 L274.9,206.3 L286.0,206.3 L297.1,206.3 L308.2,206.3 L319.3,206.3 L330.4,206.3 L341.5,206.3 L352.6,206.3 L363.7,206.3 L374.8,206.3 L385.9,206.3 L397.0,206.4 L408.1,206.4 L419.2,206.4 L430.3,206.4 L441.4,206.4 L452.5,206.4 L463.6,206.4 L474.7,206.4 L485.8,206.4 L496.9,206.4 L508.0,206.4 L519.1,206.3 L530.2,206.3 L541.3,206.3 L552.4,206.3 L563.5,206.3 L574.6,206.3 L585.7,206.3 L596.8,206.3 L607.9,206.3 L619.0,206.3 L630.1,206.4 L641.2,206.4 L652.3,206.4 L663.4,206.4 L674.5,206.4 L685.6,206.4 L696.7,206.4 L707.8,206.4 L718.9,206.4 L730.0,206.4" fill="none" stroke="#9085e9" stroke-width="2" stroke-linejoin="round" stroke-linecap="round"/>
<circle cx="730.0" cy="206.4" r="6" fill="#1a1a19"/>
<circle cx="730.0" cy="206.4" r="4" fill="#9085e9"/>
<path d="M64.0,227.7 L75.1,227.7 L86.2,227.7 L97.3,227.7 L108.4,227.7 L119.5,227.7 L130.6,227.7 L141.7,227.7 L152.8,227.7 L163.9,227.7 L175.0,227.7 L186.1,227.7 L197.2,227.7 L208.3,227.7 L219.4,227.7 L230.5,227.7 L241.6,227.7 L252.7,227.7 L263.8,227.7 L274.9,227.7 L286.0,227.7 L297.1,227.7 L308.2,227.7 L319.3,227.7 L330.4,227.7 L341.5,227.7 L352.6,227.7 L363.7,227.7 L374.8,227.7 L385.9,227.7 L397.0,227.7 L408.1,227.7 L419.2,227.7 L430.3,227.7 L441.4,227.7 L452.5,227.7 L463.6,227.7 L474.7,227.7 L485.8,227.7 L496.9,227.7 L508.0,227.7 L519.1,227.7 L530.2,227.7 L541.3,227.7 L552.4,227.7 L563.5,227.7 L574.6,227.7 L585.7,227.7 L596.8,227.7 L607.9,227.7 L619.0,227.7 L630.1,227.7 L641.2,227.7 L652.3,227.7 L663.4,227.7 L674.5,227.7 L685.6,227.7 L696.7,227.7 L707.8,227.7 L718.9,227.7 L730.0,227.7" fill="none" stroke="#e66767" stroke-width="2" stroke-linejoin="round" stroke-linecap="round"/>
<circle cx="730.0" cy="227.7" r="6" fill="#1a1a19"/>
<circle cx="730.0" cy="227.7" r="4" fill="#e66767"/>
<circle cx="745.0" cy="52.5" r="3.5" fill="#199e70"/>
<text x="753.0" y="56.0" font-family='system-ui, -apple-system, "Segoe UI", sans-serif' font-size="11" fill="#ffffff">granulator</text>
<text x="753.0" y="68.0" font-family='system-ui, -apple-system, "Segoe UI", sans-serif' font-size="10" style="font-variant-numeric: tabular-nums" fill="#c3c2b7">27.6M</text>
<circle cx="745.0" cy="135.7" r="3.5" fill="#008300"/>
<text x="753.0" y="139.2" font-family='system-ui, -apple-system, "Segoe UI", sans-serif' font-size="11" fill="#ffffff">resonator</text>
<text x="753.0" y="151.2" font-family='system-ui, -apple-system, "Segoe UI", sans-serif' font-size="10" style="font-variant-numeric: tabular-nums" fill="#c3c2b7">18.4M</text>
<circle cx="745.0" cy="202.9" r="3.5" fill="#9085e9"/>
<text x="753.0" y="206.4" font-family='system-ui, -apple-system, "Segoe UI", sans-serif' font-size="11" fill="#ffffff">reverb</text>
<text x="753.0" y="218.4" font-family='system-ui, -apple-system, "Segoe UI", sans-serif' font-size="10" style="font-variant-numeric: tabular-nums" fill="#c3c2b7">11.0M</text>
<line x1="736.0" y1="218.5" x2="740.0" y2="234.4" stroke="#383835" stroke-width="1"/>
<circle cx="745.0" cy="230.9" r="3.5" fill="#3987e5"/>
<text x="753.0" y="234.4" font-family='system-ui, -apple-system, "Segoe UI", sans-serif' font-size="11" fill="#ffffff">compressor</text>
<text x="753.0" y="246.4" font-family='system-ui, -apple-system, "Segoe UI", sans-serif' font-size="10" style="font-variant-numeric: tabular-nums" fill="#c3c2b7">9.67M</text>
<line x1="736.0" y1="227.7" x2="740.0" y2="262.4" stroke="#383835" stroke-width="1"/>
<circle cx="745.0" cy="258.9" r="3.5" fill="#e66767"/>
<text x="753.0" y="262.4" font-family='system-ui, -apple-system, "Segoe UI", sans-serif' font-size="11" fill="#ffffff">saturator</text>
<text x="753.0" y="274.4" font-family='system-ui, -apple-system, "Segoe UI", sans-serif' font-size="10" style="font-variant-numeric: tabular-nums" fill="#c3c2b7">8.65M</text>
<line x1="736.0" y1="251.0" x2="740.0" y2="290.4" stroke="#383835" stroke-width="1"/>
<circle cx="745.0" cy="286.9" r="3.5" fill="#c98500"/>
<text x="753.0" y="290.4" font-family='system-ui, -apple-system, "Segoe UI", sans-serif' font-size="11" fill="#ffffff">pan</text>
<text x="753.0" y="302.4" font-family='system-ui, -apple-system, "Segoe UI", sans-serif' font-size="10" style="font-variant-numeric: tabular-nums" fill="#c3c2b7">6.08M</text>
</svg>