<svg xmlns="http://www.w3.org/2000/svg" width="880" height="340" viewBox="0 0 880 340" role="img" aria-label="Heaviest operators (micro)">
<rect width="880" height="340" rx="6" fill="#1a1a19"/>
<text x="64" y="24" font-family='system-ui, -apple-system, "Segoe UI", sans-serif' font-size="14" font-weight="600" fill="#ffffff">Heaviest operators (micro)</text>
<text x="64" y="41" font-family='system-ui, -apple-system, "Segoe UI", sans-serif' font-size="11" fill="#c3c2b7">per-operator step_node cost over the same 1 s schedule - top 6 by latest Ir</text>
<line x1="64" y1="306.0" x2="730" y2="306.0" stroke="#2c2c2a" stroke-width="1"/>
<text x="56" y="309.5" text-anchor="end" font-family='system-ui, -apple-system, "Segoe UI", sans-serif' font-size="11" style="font-variant-numeric: tabular-nums" fill="#898781">0</text>
<line x1="64" y1="215.1" x2="730" y2="215.1" stroke="#2c2c2a" stroke-width="1"/>
<text x="56" y="218.6" text-anchor="end" font-family='system-ui, -apple-system, "Segoe UI", sans-serif' font-size="11" style="font-variant-numeric: tabular-nums" fill="#898781">10</text>
<line x1="64" y1="124.2" x2="730" y2="124.2" stroke="#2c2c2a" stroke-width="1"/>
<text x="56" y="127.7" text-anchor="end" font-family='system-ui, -apple-system, "Segoe UI", sans-serif' font-size="11" style="font-variant-numeric: tabular-nums" fill="#898781">20</text>
<text x="56" y="46" text-anchor="end" font-family='system-ui, -apple-system, "Segoe UI", sans-serif' font-size="10" fill="#898781">Ir (M)</text>
<line x1="64" y1="306" x2="730" y2="306" stroke="#383835" stroke-width="1"/>
<text x="64.0" y="322" text-anchor="middle" font-family='system-ui, -apple-system, "Segoe UI", sans-serif' font-size="11" style="font-variant-numeric: tabular-nums" fill="#898781">07-12</text>
<text x="148.8" y="322" text-anchor="middle" font-family='system-ui, -apple-system, "Segoe UI", sans-serif' font-size="11" style="font-variant-numeric: tabular-nums" fill="#898781">07-14</text>
<text x="257.7" y="322" text-anchor="middle" font-family='system-ui, -apple-system, "Segoe UI", sans-serif' font-size="11" style="font-variant-numeric: tabular-nums" fill="#898781">07-17</text>
<text x="403.1" y="322" text-anchor="middle" font-family='system-ui, -apple-system, "Segoe UI", sans-serif' font-size="11" style="font-variant-numeric: tabular-nums" fill="#898781">07-19</text>
<text x="621.0" y="322" text-anchor="middle" font-family='system-ui, -apple-system, "Segoe UI", sans-serif' font-size="11" style="font-variant-numeric: tabular-nums" fill="#898781">07-21</text>
<path d="M439.4,217.9 L451.5,217.9 L463.6,217.9 L475.7,217.9 L487.8,217.9 L499.9,217.9 L512.0,217.9 L524.1,217.9 L536.3,217.9 L548.4,217.9 L560.5,218.0 L572.6,218.0 L584.7,218.0 L596.8,218.0 L608.9,218.0 L621.0,218.0 L633.1,218.0 L645.2,218.0 L657.3,218.0 L669.5,218.0 L681.6,218.0 L693.7,218.0 L705.8,218.0 L717.9,218.0 L730.0,218.1" fill="none" stroke="#3987e5" stroke-width="2" stroke-linejoin="round" stroke-linecap="round"/>
<circle cx="730.0" cy="218.1" r="6" fill="#1a1a19"/>
<circle cx="730.0" cy="218.1" r="4" fill="#3987e5"/>
<path d="M64.0,56.0 L76.1,56.0 L88.2,56.0 L100.3,56.0 L112.4,56.0 L124.5,56.0 L136.7,56.0 L148.8,56.0 L160.9,56.0 L173.0,56.0 L185.1,56.0 L197.2,56.0 L209.3,56.0 L221.4,56.0 L233.5,56.0 L245.6,56.0 L257.7,56.0 L269.9,56.0 L282.0,56.0 L294.1,56.0 L306.2,56.0 L318.3,56.0 L330.4,56.0 L342.5,56.0 L354.6,56.0 L366.7,56.0 L378.8,56.0 L390.9,56.0 L403.1,56.0 L415.2,56.0 L427.3,56.0 L439.4,56.0 L451.5,56.0 L463.6,56.0 L475.7,56.0 L487.8,56.0 L499.9,56.0 L512.0,56.0 L524.1,56.0 L536.3,56.0 L548.4,56.0 L560.5,56.1 L572.6,56.1 L584.7,56.1 L596.8,56.1 L608.9,56.1 L621.0,56.1 L633.1,56.1 L645.2,56.1 L657.3,56.1 L669.5,56.1 L681.6,56.0 L693.7,56.0 L705.8,56.0 L717.9,56.0 L730.0,56.0" fill="none" stroke="#199e70" stroke-width="2" stroke-linejoin="round" stroke-linecap="round"/>
<circle cx="730.0" cy="56.0" r="6" fill="#1a1a19"/>
<circle cx="730.0" cy="56.0" r="4" fill="#199e70"/>
<path d="M64.0,250.6 L76.1,250.6 L88.2,250.6 L100.3,250.6 L112.4,250.6 L124.5,250.6 L136.7,250.6 L148.8,250.6 L160.9,250.6 L173.0,250.6 L185.1,250.6 L197.2,250.6 L209.3,250.6 L221.4,250.6 L233.5,250.6 L245.6,250.6 L257.7,250.6 L269.9,250.6 L282.0,250.6 L294.1,250.6 L306.2,250.6 L318.3,250.6 L330.4,250.6 L342.5,250.6 L354.6,250.6 L366.7,250.6 L378.8,250.6 L390.9,250.6 L403.1,250.6 L415.2,250.6 L427.3,250.6 L439.4,250.6 L451.5,250.6 L463.6,250.7 L475.7,250.7 L487.8,250.7 L499.9,250.7 L512.0,250.7 L524.1,250.7 L536.3,250.7 L548.4,250.7 L560.5,250.7 L572.6,250.7 L584.7,250.7 L596.8,250.7 L608.9,250.7 L621.0,250.7 L633.1,250.7 L645.2,250.7 L657.3,250.7 L669.5,250.7 L681.6,250.7 L693.7,250.7 L705.8,250.7 L717.9,250.7 L730.0,250.7" fill="none" stroke="#c98500" stroke-width="2" stroke-linejoin="round" stroke-linecap="round"/>
<circle cx="730.0" cy="250.7" r="6" fill="#1a1a19"/>
<circle cx="730.0" cy="250.7" r="4" fill="#c98500"/>
<path d="M64.0,137.6 L76.1,137.6 L88.2,137.6 L100.3,137.6 L112.4,137.6 L124.5,137.6 L136.7,138.4 L148.8,138.4 L160.9,138.4 L173.0,138.4 L185.1,138.4 L197.2,138.4 L209.3,138.4 L221.4,138.4 L233.5,138.4 L245.6,138.4 L257.7,138.4 L269.9,138.4 L282.0,138.4 L294.1,138.4 L306.2,138.4 L318.3,138.4 L330.4,138.4 L342.5,138.4 L354.6,138.4 L366.7,138.4 L378.8,138.4 L390.9,138.4 L403.1,138.4 L415.2,138.4 L427.3,138.4 L439.4,138.4 L451.5,138.4 L463.6,138.4 L475.7,138.4 L487.8,138.4 L499.9,138.4 L512.0,138.4 L524.1,138.4 L536.3,138.4 L548.4,138.4 L560.5,138.5 L572.6,138.5 L584.7,138.5 L596.8,138.5 L608.9,138.5 L621.0,138.5 L633.1,138.5 L645.2,138.5 L657.3,138.5 L669.5,138.5 L681.6,138.4 L693.7,138.4 L705.8,138.4 L717.9,138.4 L730.0,138.4" fill="none" stroke="#008300" stroke-width="2" stroke-linejoin="round" stroke-linecap="round"/>
<circle cx="730.0" cy="138.4" r="6" fill="#1a1a19"/>
<circle cx="730.0" cy="138.4" r="4" fill="#008300"/>
<path d="M64.0,205.9 L76.1,205.9 L88.2,205.9 L100.3,205.9 L112.4,205.9 L124.5,205.9 L136.7,205.9 L148.8,205.9 L160.9,205.9 L173.0,205.9 L185.1,205.9 L197.2,205.9 L209.3,205.9 L221.4,205.9 L233.5,205.9 L245.6,205.9 L257.7,205.9 L269.9,205.9 L282.0,205.9 L294.1,205.9 L306.2,205.9 L318.3,205.9 L330.4,205.9 L342.5,205.9 L354.6,205.9 L366.7,205.9 L378.8,205.9 L390.9,205.9 L403.1,205.9 L415.2,205.9 L427.3,205.9 L439.4,205.9 L451.5,205.9 L463.6,205.9 L475.7,205.9 L487.8,205.9 L499.9,205.9 L512.0,205.9 L524.1,205.9 L536.3,205.9 L548.4,205.9 L560.5,205.9 L572.6,205.9 L584.7,205.9 L596.8,205.9 L608.9,205.9 L621.0,205.9 L633.1,205.9 L645.2,205.9 L657.3,205.9 L669.5,205.9 L681.6,205.9 L693.7,205.9 L705.8,205.9 L717.9,205.9 L730.0,205.9" fill="none" stroke="#9085e9" stroke-width="2" stroke-linejoin="round" stroke-linecap="round"/>
<circle cx="730.0" cy="205.9" r="6" fill="#1a1a19"/>
<circle cx="730.0" cy="205.9" r="4" fill="#9085e9"/>
<path d="M64.0,227.3 L76.1,227.3 L88.2,227.3 L100.3,227.3 L112.4,227.3 L124.5,227.3 L136.7,227.3 L148.8,227.3 L160.9,227.3 L173.0,227.3 L185.1,227.3 L197.2,227.3 L209.3,227.3 L221.4,227.3 L233.5,227.3 L245.6,227.3 L257.7,227.3 L269.9,227.3 L282.0,227.3 L294.1,227.3 L306.2,227.3 L318.3,227.3 L330.4,227.3 L342.5,227.3 L354.6,227.3 L366.7,227.3 L378.8,227.3 L390.9,227.3 L403.1,227.3 L415.2,227.3 L427.3,227.3 L439.4,227.3 L451.5,227.3 L463.6,227.3 L475.7,227.3 L487.8,227.3 L499.9,227.3 L512.0,227.3 L524.1,227.3 L536.3,227.3 L548.4,227.3 L560.5,227.3 L572.6,227.3 L584.7,227.3 L596.8,227.3 L608.9,227.3 L621.0,227.3 L633.1,227.3 L645.2,227.3 L657.3,227.3 L669.5,227.3 L681.6,227.3 L693.7,227.3 L705.8,227.3 L717.9,227.3 L730.0,227.3" fill="none" stroke="#e66767" stroke-width="2" stroke-linejoin="round" stroke-linecap="round"/>
<circle cx="730.0" cy="227.3" r="6" fill="#1a1a19"/>
<circle cx="730.0" cy="227.3" r="4" fill="#e66767"/>
<circle cx="745.0" cy="52.5" r="3.5" fill="#199e70"/>
<text x="753.0" y="56.0" font-family='system-ui, -apple-system, "Segoe UI", sans-serif' font-size="11" fill="#ffffff">granulator</text>
<text x="753.0" y="68.0" font-family='system-ui, -apple-system, "Segoe UI", sans-serif' font-size="10" style="font-variant-numeric: tabular-nums" fill="#c3c2b7">27.5M</text>
<circle cx="745.0" cy="134.9" r="3.5" fill="#008300"/>
<text x="753.0" y="138.4" font-family='system-ui, -apple-system, "Segoe UI", sans-serif' font-size="11" fill="#ffffff">resonator</text>
<text x="753.0" y="150.4" font-family='system-ui, -apple-system, "Segoe UI", sans-serif' font-size="10" style="font-variant-numeric: tabular-nums" fill="#c3c2b7">18.4M</text>
<circle cx="745.0" cy="202.4" r="3.5" fill="#9085e9"/>
<text x="753.0" y="205.9" font-family='system-ui, -apple-system, "Segoe UI", sans-serif' font-size="11" fill="#ffffff">reverb</text>
<text x="753.0" y="217.9" font-family='system-ui, -apple-system, "Segoe UI", sans-serif' font-size="10" style="font-variant-numeric: tabular-nums" fill="#c3c2b7">11.0M</text>
<line x1="736.0" y1="218.1" x2="740.0" y2="233.9" stroke="#383835" stroke-width="1"/>
<circle cx="745.0" cy="230.4" r="3.5" fill="#3987e5"/>
<text x="753.0" y="233.9" font-family='system-ui, -apple-system, "Segoe UI", sans-serif' font-size="11" fill="#ffffff">compressor</text>
<text x="753.0" y="245.9" font-family='system-ui, -apple-system, "Segoe UI", sans-serif' font-size="10" style="font-variant-numeric: tabular-nums" fill="#c3c2b7">9.67M</text>
<line x1="736.0" y1="227.3" x2="740.0" y2="261.9" stroke="#383835" stroke-width="1"/>
<circle cx="745.0" cy="258.4" r="3.5" fill="#e66767"/>
<text x="753.0" y="261.9" font-family='system-ui, -apple-system, "Segoe UI", sans-serif' font-size="11" fill="#ffffff">saturator</text>
<text x="753.0" y="273.9" font-family='system-ui, -apple-system, "Segoe UI", sans-serif' font-size="10" style="font-variant-numeric: tabular-nums" fill="#c3c2b7">8.65M</text>
<line x1="736.0" y1="250.7" x2="740.0" y2="289.9" stroke="#383835" stroke-width="1"/>
<circle cx="745.0" cy="286.4" r="3.5" fill="#c98500"/>
<text x="753.0" y="289.9" font-family='system-ui, -apple-system, "Segoe UI", sans-serif' font-size="11" fill="#ffffff">pan</text>
<text x="753.0" y="301.9" font-family='system-ui, -apple-system, "Segoe UI", sans-serif' font-size="10" style="font-variant-numeric: tabular-nums" fill="#c3c2b7">6.08M</text>
</svg>