<svg xmlns="http://www.w3.org/2000/svg" width="880" height="340" viewBox="0 0 880 340" role="img" aria-label="Heaviest operators (micro)">
<rect width="880" height="340" rx="6" fill="#fcfcfb"/>
<text x="64" y="24" font-family='system-ui, -apple-system, "Segoe UI", sans-serif' font-size="14" font-weight="600" fill="#0b0b0b">Heaviest operators (micro)</text>
<text x="64" y="41" font-family='system-ui, -apple-system, "Segoe UI", sans-serif' font-size="11" fill="#52514e">per-operator step_node cost over the same 1 s schedule - top 6 by latest Ir</text>
<line x1="64" y1="306.0" x2="730" y2="306.0" stroke="#e1e0d9" stroke-width="1"/>
<text x="56" y="309.5" text-anchor="end" font-family='system-ui, -apple-system, "Segoe UI", sans-serif' font-size="11" style="font-variant-numeric: tabular-nums" fill="#898781">0</text>
<line x1="64" y1="215.1" x2="730" y2="215.1" stroke="#e1e0d9" stroke-width="1"/>
<text x="56" y="218.6" text-anchor="end" font-family='system-ui, -apple-system, "Segoe UI", sans-serif' font-size="11" style="font-variant-numeric: tabular-nums" fill="#898781">10</text>
<line x1="64" y1="124.2" x2="730" y2="124.2" stroke="#e1e0d9" stroke-width="1"/>
<text x="56" y="127.7" text-anchor="end" font-family='system-ui, -apple-system, "Segoe UI", sans-serif' font-size="11" style="font-variant-numeric: tabular-nums" fill="#898781">20</text>
<text x="56" y="46" text-anchor="end" font-family='system-ui, -apple-system, "Segoe UI", sans-serif' font-size="10" fill="#898781">Ir (M)</text>
<line x1="64" y1="306" x2="730" y2="306" stroke="#c3c2b7" stroke-width="1"/>
<text x="64.0" y="322" text-anchor="middle" font-family='system-ui, -apple-system, "Segoe UI", sans-serif' font-size="11" style="font-variant-numeric: tabular-nums" fill="#898781">07-12</text>
<text x="159.1" y="322" text-anchor="middle" font-family='system-ui, -apple-system, "Segoe UI", sans-serif' font-size="11" style="font-variant-numeric: tabular-nums" fill="#898781">07-13</text>
<text x="175.0" y="322" text-anchor="middle" font-family='system-ui, -apple-system, "Segoe UI", sans-serif' font-size="11" style="font-variant-numeric: tabular-nums" fill="#898781">07-14</text>
<text x="190.9" y="322" text-anchor="middle" font-family='system-ui, -apple-system, "Segoe UI", sans-serif' font-size="11" style="font-variant-numeric: tabular-nums" fill="#898781">07-16</text>
<text x="317.7" y="322" text-anchor="middle" font-family='system-ui, -apple-system, "Segoe UI", sans-serif' font-size="11" style="font-variant-numeric: tabular-nums" fill="#898781">07-17</text>
<text x="412.9" y="322" text-anchor="middle" font-family='system-ui, -apple-system, "Segoe UI", sans-serif' font-size="11" style="font-variant-numeric: tabular-nums" fill="#898781">07-18</text>
<text x="508.0" y="322" text-anchor="middle" font-family='system-ui, -apple-system, "Segoe UI", sans-serif' font-size="11" style="font-variant-numeric: tabular-nums" fill="#898781">07-19</text>
<text x="555.6" y="322" text-anchor="middle" font-family='system-ui, -apple-system, "Segoe UI", sans-serif' font-size="11" style="font-variant-numeric: tabular-nums" fill="#898781">07-20</text>
<path d="M555.6,217.9 L571.4,217.9 L587.3,217.9 L603.1,217.9 L619.0,217.9 L634.9,217.9 L650.7,217.9 L666.6,217.9 L682.4,217.9 L698.3,217.9 L714.1,218.0 L730.0,218.0" fill="none" stroke="#2a78d6" stroke-width="2" stroke-linejoin="round" stroke-linecap="round"/>
<circle cx="730.0" cy="218.0" r="6" fill="#fcfcfb"/>
<circle cx="730.0" cy="218.0" r="4" fill="#2a78d6"/>
<path d="M64.0,56.0 L79.9,56.0 L95.7,56.0 L111.6,56.0 L127.4,56.0 L143.3,56.0 L159.1,56.0 L175.0,56.0 L190.9,56.0 L206.7,56.0 L222.6,56.0 L238.4,56.0 L254.3,56.0 L270.1,56.0 L286.0,56.0 L301.9,56.0 L317.7,56.0 L333.6,56.0 L349.4,56.0 L365.3,56.0 L381.1,56.0 L397.0,56.0 L412.9,56.0 L428.7,56.0 L444.6,56.0 L460.4,56.0 L476.3,56.0 L492.1,56.0 L508.0,56.0 L523.9,56.0 L539.7,56.0 L555.6,56.0 L571.4,56.0 L587.3,56.0 L603.1,56.0 L619.0,56.0 L634.9,56.0 L650.7,56.0 L666.6,56.0 L682.4,56.0 L698.3,56.0 L714.1,56.1 L730.0,56.1" fill="none" stroke="#1baf7a" stroke-width="2" stroke-linejoin="round" stroke-linecap="round"/>
<circle cx="730.0" cy="56.1" r="6" fill="#fcfcfb"/>
<circle cx="730.0" cy="56.1" r="4" fill="#1baf7a"/>
<path d="M64.0,250.6 L79.9,250.6 L95.7,250.6 L111.6,250.6 L127.4,250.6 L143.3,250.6 L159.1,250.6 L175.0,250.6 L190.9,250.6 L206.7,250.6 L222.6,250.6 L238.4,250.6 L254.3,250.6 L270.1,250.6 L286.0,250.6 L301.9,250.6 L317.7,250.6 L333.6,250.6 L349.4,250.6 L365.3,250.6 L381.1,250.6 L397.0,250.6 L412.9,250.6 L428.7,250.6 L444.6,250.6 L460.4,250.6 L476.3,250.6 L492.1,250.6 L508.0,250.6 L523.9,250.6 L539.7,250.6 L555.6,250.6 L571.4,250.6 L587.3,250.7 L603.1,250.7 L619.0,250.7 L634.9,250.7 L650.7,250.7 L666.6,250.7 L682.4,250.7 L698.3,250.7 L714.1,250.7 L730.0,250.7" fill="none" stroke="#eda100" stroke-width="2" stroke-linejoin="round" stroke-linecap="round"/>
<circle cx="730.0" cy="250.7" r="6" fill="#fcfcfb"/>
<circle cx="730.0" cy="250.7" r="4" fill="#eda100"/>
<path d="M64.0,137.6 L79.9,137.6 L95.7,137.6 L111.6,137.6 L127.4,137.6 L143.3,137.6 L159.1,138.4 L175.0,138.4 L190.9,138.4 L206.7,138.4 L222.6,138.4 L238.4,138.4 L254.3,138.4 L270.1,138.4 L286.0,138.4 L301.9,138.4 L317.7,138.4 L333.6,138.4 L349.4,138.4 L365.3,138.4 L381.1,138.4 L397.0,138.4 L412.9,138.4 L428.7,138.4 L444.6,138.4 L460.4,138.4 L476.3,138.4 L492.1,138.4 L508.0,138.4 L523.9,138.4 L539.7,138.4 L555.6,138.4 L571.4,138.4 L587.3,138.4 L603.1,138.4 L619.0,138.4 L634.9,138.4 L650.7,138.4 L666.6,138.4 L682.4,138.4 L698.3,138.4 L714.1,138.5 L730.0,138.5" fill="none" stroke="#008300" stroke-width="2" stroke-linejoin="round" stroke-linecap="round"/>
<circle cx="730.0" cy="138.5" r="6" fill="#fcfcfb"/>
<circle cx="730.0" cy="138.5" r="4" fill="#008300"/>
<path d="M64.0,205.9 L79.9,205.9 L95.7,205.9 L111.6,205.9 L127.4,205.9 L143.3,205.9 L159.1,205.9 L175.0,205.9 L190.9,205.9 L206.7,205.9 L222.6,205.9 L238.4,205.9 L254.3,205.9 L270.1,205.9 L286.0,205.9 L301.9,205.9 L317.7,205.9 L333.6,205.9 L349.4,205.9 L365.3,205.9 L381.1,205.9 L397.0,205.9 L412.9,205.9 L428.7,205.9 L444.6,205.9 L460.4,205.9 L476.3,205.9 L492.1,205.9 L508.0,205.9 L523.9,205.9 L539.7,205.9 L555.6,205.9 L571.4,205.9 L587.3,205.9 L603.1,205.9 L619.0,205.9 L634.9,205.9 L650.7,205.9 L666.6,205.9 L682.4,205.9 L698.3,205.9 L714.1,205.9 L730.0,205.9" fill="none" stroke="#4a3aa7" stroke-width="2" stroke-linejoin="round" stroke-linecap="round"/>
<circle cx="730.0" cy="205.9" r="6" fill="#fcfcfb"/>
<circle cx="730.0" cy="205.9" r="4" fill="#4a3aa7"/>
<path d="M64.0,227.3 L79.9,227.3 L95.7,227.3 L111.6,227.3 L127.4,227.3 L143.3,227.3 L159.1,227.3 L175.0,227.3 L190.9,227.3 L206.7,227.3 L222.6,227.3 L238.4,227.3 L254.3,227.3 L270.1,227.3 L286.0,227.3 L301.9,227.3 L317.7,227.3 L333.6,227.3 L349.4,227.3 L365.3,227.3 L381.1,227.3 L397.0,227.3 L412.9,227.3 L428.7,227.3 L444.6,227.3 L460.4,227.3 L476.3,227.3 L492.1,227.3 L508.0,227.3 L523.9,227.3 L539.7,227.3 L555.6,227.3 L571.4,227.3 L587.3,227.3 L603.1,227.3 L619.0,227.3 L634.9,227.3 L650.7,227.3 L666.6,227.3 L682.4,227.3 L698.3,227.3 L714.1,227.3 L730.0,227.3" fill="none" stroke="#e34948" stroke-width="2" stroke-linejoin="round" stroke-linecap="round"/>
<circle cx="730.0" cy="227.3" r="6" fill="#fcfcfb"/>
<circle cx="730.0" cy="227.3" r="4" fill="#e34948"/>
<circle cx="745.0" cy="52.6" r="3.5" fill="#1baf7a"/>
<text x="753.0" y="56.1" font-family='system-ui, -apple-system, "Segoe UI", sans-serif' font-size="11" fill="#0b0b0b">granulator</text>
<text x="753.0" y="68.1" font-family='system-ui, -apple-system, "Segoe UI", sans-serif' font-size="10" style="font-variant-numeric: tabular-nums" fill="#52514e">27.5M</text>
<circle cx="745.0" cy="135.0" r="3.5" fill="#008300"/>
<text x="753.0" y="138.5" font-family='system-ui, -apple-system, "Segoe UI", sans-serif' font-size="11" fill="#0b0b0b">resonator</text>
<text x="753.0" y="150.5" font-family='system-ui, -apple-system, "Segoe UI", sans-serif' font-size="10" style="font-variant-numeric: tabular-nums" fill="#52514e">18.4M</text>
<circle cx="745.0" cy="202.4" r="3.5" fill="#4a3aa7"/>
<text x="753.0" y="205.9" font-family='system-ui, -apple-system, "Segoe UI", sans-serif' font-size="11" fill="#0b0b0b">reverb</text>
<text x="753.0" y="217.9" font-family='system-ui, -apple-system, "Segoe UI", sans-serif' font-size="10" style="font-variant-numeric: tabular-nums" fill="#52514e">11.0M</text>
<line x1="736.0" y1="218.0" x2="740.0" y2="233.9" stroke="#c3c2b7" stroke-width="1"/>
<circle cx="745.0" cy="230.4" r="3.5" fill="#2a78d6"/>
<text x="753.0" y="233.9" font-family='system-ui, -apple-system, "Segoe UI", sans-serif' font-size="11" fill="#0b0b0b">compressor</text>
<text x="753.0" y="245.9" font-family='system-ui, -apple-system, "Segoe UI", sans-serif' font-size="10" style="font-variant-numeric: tabular-nums" fill="#52514e">9.68M</text>
<line x1="736.0" y1="227.3" x2="740.0" y2="261.9" stroke="#c3c2b7" stroke-width="1"/>
<circle cx="745.0" cy="258.4" r="3.5" fill="#e34948"/>
<text x="753.0" y="261.9" font-family='system-ui, -apple-system, "Segoe UI", sans-serif' font-size="11" fill="#0b0b0b">saturator</text>
<text x="753.0" y="273.9" font-family='system-ui, -apple-system, "Segoe UI", sans-serif' font-size="10" style="font-variant-numeric: tabular-nums" fill="#52514e">8.65M</text>
<line x1="736.0" y1="250.7" x2="740.0" y2="289.9" stroke="#c3c2b7" stroke-width="1"/>
<circle cx="745.0" cy="286.4" r="3.5" fill="#eda100"/>
<text x="753.0" y="289.9" font-family='system-ui, -apple-system, "Segoe UI", sans-serif' font-size="11" fill="#0b0b0b">pan</text>
<text x="753.0" y="301.9" font-family='system-ui, -apple-system, "Segoe UI", sans-serif' font-size="10" style="font-variant-numeric: tabular-nums" fill="#52514e">6.08M</text>
</svg>