<svg xmlns="http://www.w3.org/2000/svg" width="880" height="340" viewBox="0 0 880 340" role="img" aria-label="Heaviest operators (micro)">
<rect width="880" height="340" rx="6" fill="#1a1a19"/>
<text x="64" y="24" font-family='system-ui, -apple-system, "Segoe UI", sans-serif' font-size="14" font-weight="600" fill="#ffffff">Heaviest operators (micro)</text>
<text x="64" y="41" font-family='system-ui, -apple-system, "Segoe UI", sans-serif' font-size="11" fill="#c3c2b7">per-operator step_node cost over the same 1 s schedule - top 6 by latest Ir</text>
<line x1="64" y1="306.0" x2="730" y2="306.0" stroke="#2c2c2a" stroke-width="1"/>
<text x="56" y="309.5" text-anchor="end" font-family='system-ui, -apple-system, "Segoe UI", sans-serif' font-size="11" style="font-variant-numeric: tabular-nums" fill="#898781">0</text>
<line x1="64" y1="218.1" x2="730" y2="218.1" stroke="#2c2c2a" stroke-width="1"/>
<text x="56" y="221.6" text-anchor="end" font-family='system-ui, -apple-system, "Segoe UI", sans-serif' font-size="11" style="font-variant-numeric: tabular-nums" fill="#898781">10</text>
<line x1="64" y1="130.3" x2="730" y2="130.3" stroke="#2c2c2a" stroke-width="1"/>
<text x="56" y="133.8" text-anchor="end" font-family='system-ui, -apple-system, "Segoe UI", sans-serif' font-size="11" style="font-variant-numeric: tabular-nums" fill="#898781">20</text>
<text x="56" y="46" text-anchor="end" font-family='system-ui, -apple-system, "Segoe UI", sans-serif' font-size="10" fill="#898781">Ir (M)</text>
<line x1="64" y1="306" x2="730" y2="306" stroke="#383835" stroke-width="1"/>
<text x="64.0" y="322" text-anchor="middle" font-family='system-ui, -apple-system, "Segoe UI", sans-serif' font-size="11" style="font-variant-numeric: tabular-nums" fill="#898781">06-28</text>
<text x="136.7" y="322" text-anchor="middle" font-family='system-ui, -apple-system, "Segoe UI", sans-serif' font-size="11" style="font-variant-numeric: tabular-nums" fill="#898781">06-30</text>
<text x="197.2" y="322" text-anchor="middle" font-family='system-ui, -apple-system, "Segoe UI", sans-serif' font-size="11" style="font-variant-numeric: tabular-nums" fill="#898781">07-02</text>
<text x="330.4" y="322" text-anchor="middle" font-family='system-ui, -apple-system, "Segoe UI", sans-serif' font-size="11" style="font-variant-numeric: tabular-nums" fill="#898781">07-04</text>
<text x="524.1" y="322" text-anchor="middle" font-family='system-ui, -apple-system, "Segoe UI", sans-serif' font-size="11" style="font-variant-numeric: tabular-nums" fill="#898781">07-07</text>
<text x="645.2" y="322" text-anchor="middle" font-family='system-ui, -apple-system, "Segoe UI", sans-serif' font-size="11" style="font-variant-numeric: tabular-nums" fill="#898781">07-09</text>
<path d="M148.8,56.2 L160.9,56.2 L173.0,56.1 L185.1,61.2 L197.2,56.2 L209.3,56.2 L221.4,56.2 L233.5,56.2 L245.6,56.2 L257.7,56.2 L269.9,56.2 L282.0,56.2 L294.1,56.2 L306.2,56.2 L318.3,56.2 L330.4,56.2 L342.5,56.2 L354.6,56.2 L366.7,56.2 L378.8,60.8 L390.9,56.1 L403.1,56.1 L415.2,56.1 L427.3,56.1 L439.4,56.1 L451.5,60.6 L463.6,60.6 L475.7,56.1 L487.8,56.0 L499.9,56.0 L512.0,56.0 L524.1,56.0 L536.3,56.0 L548.4,56.0 L560.5,56.0 L572.6,56.0 L584.7,56.0 L596.8,56.0 L608.9,56.0 L621.0,56.0 L633.1,56.0 L645.2,56.0 L657.3,56.0 L669.5,61.0 L681.6,61.0 L693.7,61.0 L705.8,56.1 L717.9,61.3 L730.0,56.3" fill="none" stroke="#3987e5" stroke-width="2" stroke-linejoin="round" stroke-linecap="round"/>
<circle cx="730.0" cy="56.3" r="6" fill="#1a1a19"/>
<circle cx="730.0" cy="56.3" r="4" fill="#3987e5"/>
<path d="M64.0,246.7 L76.1,246.7 L88.2,246.7 L100.3,246.7 L112.4,246.7 L124.5,246.6 L136.7,246.6 L148.8,246.2 L160.9,246.3 L173.0,246.3 L185.1,246.3 L197.2,246.3 L209.3,246.3 L221.4,246.3 L233.5,246.3 L245.6,246.3 L257.7,246.3 L269.9,246.3 L282.0,251.7 L294.1,251.7 L306.2,251.7 L318.3,251.7 L330.4,251.7 L342.5,251.7 L354.6,251.7 L366.7,251.7 L378.8,251.7 L390.9,251.6 L403.1,251.6 L415.2,251.6 L427.3,251.6 L439.4,251.6 L451.5,251.6 L463.6,251.6 L475.7,251.6 L487.8,251.5 L499.9,251.5 L512.0,251.5 L524.1,251.5 L536.3,251.5 L548.4,251.5 L560.5,251.5 L572.6,251.5 L584.7,251.5 L596.8,251.5 L608.9,251.5 L621.0,251.5 L633.1,251.5 L645.2,251.5 L657.3,251.5 L669.5,251.6 L681.6,251.6 L693.7,251.6 L705.8,251.6 L717.9,251.9 L730.0,251.9" fill="none" stroke="#199e70" stroke-width="2" stroke-linejoin="round" stroke-linecap="round"/>
<circle cx="730.0" cy="251.9" r="6" fill="#1a1a19"/>
<circle cx="730.0" cy="251.9" r="4" fill="#199e70"/>
<path d="M88.2,97.2 L100.3,97.2 L112.4,97.2 L124.5,138.2 L136.7,138.2 L148.8,137.8 L160.9,137.8 L173.0,137.8 L185.1,137.9 L197.2,137.8 L209.3,137.9 L221.4,137.8 L233.5,137.8 L245.6,137.8 L257.7,137.8 L269.9,137.8 L282.0,142.4 L294.1,142.4 L306.2,142.4 L318.3,142.4 L330.4,142.4 L342.5,142.4 L354.6,142.4 L366.7,142.4 L378.8,142.4 L390.9,142.4 L403.1,142.4 L415.2,142.4 L427.3,142.4 L439.4,142.4 L451.5,142.3 L463.6,142.4 L475.7,142.3 L487.8,142.3 L499.9,142.3 L512.0,142.3 L524.1,142.3 L536.3,142.3 L548.4,142.3 L560.5,142.3 L572.6,142.3 L584.7,142.3 L596.8,142.3 L608.9,142.3 L621.0,142.3 L633.1,142.3 L645.2,142.3 L657.3,142.3 L669.5,142.3 L681.6,142.3 L693.7,142.3 L705.8,142.3 L717.9,142.6 L730.0,142.6" fill="none" stroke="#c98500" stroke-width="2" stroke-linejoin="round" stroke-linecap="round"/>
<circle cx="730.0" cy="142.6" r="6" fill="#1a1a19"/>
<circle cx="730.0" cy="142.6" r="4" fill="#c98500"/>
<path d="M64.0,195.3 L76.1,195.3 L88.2,195.4 L100.3,195.4 L112.4,195.4 L124.5,204.2 L136.7,204.1 L148.8,203.8 L160.9,203.8 L173.0,203.8 L185.1,203.9 L197.2,203.8 L209.3,203.8 L221.4,203.8 L233.5,203.8 L245.6,203.8 L257.7,203.8 L269.9,203.8 L282.0,208.4 L294.1,208.4 L306.2,208.4 L318.3,208.4 L330.4,208.4 L342.5,208.4 L354.6,208.4 L366.7,208.4 L378.8,208.5 L390.9,208.3 L403.1,208.3 L415.2,208.3 L427.3,208.3 L439.4,208.3 L451.5,208.3 L463.6,208.4 L475.7,208.4 L487.8,208.2 L499.9,208.2 L512.0,208.2 L524.1,208.2 L536.3,208.2 L548.4,208.2 L560.5,208.2 L572.6,208.2 L584.7,208.2 L596.8,208.2 L608.9,208.2 L621.0,208.2 L633.1,208.2 L645.2,208.2 L657.3,208.2 L669.5,208.4 L681.6,208.3 L693.7,208.3 L705.8,208.3 L717.9,208.6 L730.0,208.6" fill="none" stroke="#008300" stroke-width="2" stroke-linejoin="round" stroke-linecap="round"/>
<circle cx="730.0" cy="208.6" r="6" fill="#1a1a19"/>
<circle cx="730.0" cy="208.6" r="4" fill="#008300"/>
<path d="M681.6,229.0 L693.7,229.0 L705.8,229.1 L717.9,229.3 L730.0,229.3" fill="none" stroke="#9085e9" stroke-width="2" stroke-linejoin="round" stroke-linecap="round"/>
<circle cx="730.0" cy="229.3" r="6" fill="#1a1a19"/>
<circle cx="730.0" cy="229.3" r="4" fill="#9085e9"/>
<path d="M64.0,262.8 L76.1,262.8 L88.2,262.8 L100.3,262.8 L112.4,263.0 L124.5,263.2 L136.7,263.0 L148.8,262.4 L160.9,262.5 L173.0,262.4 L185.1,262.5 L197.2,262.5 L209.3,262.5 L221.4,262.5 L233.5,262.5 L245.6,262.5 L257.7,262.5 L269.9,262.5 L282.0,261.7 L294.1,261.7 L306.2,261.6 L318.3,261.4 L330.4,261.4 L342.5,261.4 L354.6,261.4 L366.7,261.4 L378.8,261.4 L390.9,261.3 L403.1,261.3 L415.2,261.3 L427.3,261.3 L439.4,261.3 L451.5,261.2 L463.6,261.3 L475.7,261.3 L487.8,261.0 L499.9,261.0 L512.0,261.1 L524.1,261.1 L536.3,261.1 L548.4,261.1 L560.5,261.1 L572.6,261.1 L584.7,261.1 L596.8,261.1 L608.9,261.1 L621.0,261.1 L633.1,261.1 L645.2,261.1 L657.3,261.1 L669.5,261.3 L681.6,261.2 L693.7,261.2 L705.8,261.3 L717.9,261.7 L730.0,261.8" fill="none" stroke="#e66767" stroke-width="2" stroke-linejoin="round" stroke-linecap="round"/>
<circle cx="730.0" cy="261.8" r="6" fill="#1a1a19"/>
<circle cx="730.0" cy="261.8" r="4" fill="#e66767"/>
<circle cx="745.0" cy="52.8" r="3.5" fill="#3987e5"/>
<text x="753.0" y="56.3" font-family='system-ui, -apple-system, "Segoe UI", sans-serif' font-size="11" fill="#ffffff">granulator</text>
<text x="753.0" y="68.3" font-family='system-ui, -apple-system, "Segoe UI", sans-serif' font-size="10" style="font-variant-numeric: tabular-nums" fill="#c3c2b7">28.4M</text>
<circle cx="745.0" cy="139.1" r="3.5" fill="#c98500"/>
<text x="753.0" y="142.6" font-family='system-ui, -apple-system, "Segoe UI", sans-serif' font-size="11" fill="#ffffff">resonator</text>
<text x="753.0" y="154.6" font-family='system-ui, -apple-system, "Segoe UI", sans-serif' font-size="10" style="font-variant-numeric: tabular-nums" fill="#c3c2b7">18.6M</text>
<circle cx="745.0" cy="205.1" r="3.5" fill="#008300"/>
<text x="753.0" y="208.6" font-family='system-ui, -apple-system, "Segoe UI", sans-serif' font-size="11" fill="#ffffff">reverb</text>
<text x="753.0" y="220.6" font-family='system-ui, -apple-system, "Segoe UI", sans-serif' font-size="10" style="font-variant-numeric: tabular-nums" fill="#c3c2b7">11.1M</text>
<line x1="736.0" y1="229.3" x2="740.0" y2="236.6" stroke="#383835" stroke-width="1"/>
<circle cx="745.0" cy="233.1" r="3.5" fill="#9085e9"/>
<text x="753.0" y="236.6" font-family='system-ui, -apple-system, "Segoe UI", sans-serif' font-size="11" fill="#ffffff">saturator</text>
<text x="753.0" y="248.6" font-family='system-ui, -apple-system, "Segoe UI", sans-serif' font-size="10" style="font-variant-numeric: tabular-nums" fill="#c3c2b7">8.73M</text>
<line x1="736.0" y1="251.9" x2="740.0" y2="264.6" stroke="#383835" stroke-width="1"/>
<circle cx="745.0" cy="261.1" r="3.5" fill="#199e70"/>
<text x="753.0" y="264.6" font-family='system-ui, -apple-system, "Segoe UI", sans-serif' font-size="11" fill="#ffffff">pan</text>
<text x="753.0" y="276.6" font-family='system-ui, -apple-system, "Segoe UI", sans-serif' font-size="10" style="font-variant-numeric: tabular-nums" fill="#c3c2b7">6.16M</text>
<line x1="736.0" y1="261.8" x2="740.0" y2="292.6" stroke="#383835" stroke-width="1"/>
<circle cx="745.0" cy="289.1" r="3.5" fill="#e66767"/>
<text x="753.0" y="292.6" font-family='system-ui, -apple-system, "Segoe UI", sans-serif' font-size="11" fill="#ffffff">sequencer</text>
<text x="753.0" y="304.6" font-family='system-ui, -apple-system, "Segoe UI", sans-serif' font-size="10" style="font-variant-numeric: tabular-nums" fill="#c3c2b7">5.03M</text>
</svg>