<svg xmlns="http://www.w3.org/2000/svg" width="880" height="340" viewBox="0 0 880 340" role="img" aria-label="Heaviest operators (micro)">
<rect width="880" height="340" rx="6" fill="#fcfcfb"/>
<text x="64" y="24" font-family='system-ui, -apple-system, "Segoe UI", sans-serif' font-size="14" font-weight="600" fill="#0b0b0b">Heaviest operators (micro)</text>
<text x="64" y="41" font-family='system-ui, -apple-system, "Segoe UI", sans-serif' font-size="11" fill="#52514e">per-operator step_node cost over the same 1 s schedule - top 6 by latest Ir</text>
<line x1="64" y1="306.0" x2="730" y2="306.0" stroke="#e1e0d9" stroke-width="1"/>
<text x="56" y="309.5" text-anchor="end" font-family='system-ui, -apple-system, "Segoe UI", sans-serif' font-size="11" style="font-variant-numeric: tabular-nums" fill="#898781">0</text>
<line x1="64" y1="215.1" x2="730" y2="215.1" stroke="#e1e0d9" stroke-width="1"/>
<text x="56" y="218.6" text-anchor="end" font-family='system-ui, -apple-system, "Segoe UI", sans-serif' font-size="11" style="font-variant-numeric: tabular-nums" fill="#898781">10</text>
<line x1="64" y1="124.2" x2="730" y2="124.2" stroke="#e1e0d9" stroke-width="1"/>
<text x="56" y="127.7" text-anchor="end" font-family='system-ui, -apple-system, "Segoe UI", sans-serif' font-size="11" style="font-variant-numeric: tabular-nums" fill="#898781">20</text>
<text x="56" y="46" text-anchor="end" font-family='system-ui, -apple-system, "Segoe UI", sans-serif' font-size="10" fill="#898781">Ir (M)</text>
<line x1="64" y1="306" x2="730" y2="306" stroke="#c3c2b7" stroke-width="1"/>
<text x="64.0" y="322" text-anchor="middle" font-family='system-ui, -apple-system, "Segoe UI", sans-serif' font-size="11" style="font-variant-numeric: tabular-nums" fill="#898781">07-12</text>
<text x="161.1" y="322" text-anchor="middle" font-family='system-ui, -apple-system, "Segoe UI", sans-serif' font-size="11" style="font-variant-numeric: tabular-nums" fill="#898781">07-14</text>
<text x="286.0" y="322" text-anchor="middle" font-family='system-ui, -apple-system, "Segoe UI", sans-serif' font-size="11" style="font-variant-numeric: tabular-nums" fill="#898781">07-17</text>
<text x="452.5" y="322" text-anchor="middle" font-family='system-ui, -apple-system, "Segoe UI", sans-serif' font-size="11" style="font-variant-numeric: tabular-nums" fill="#898781">07-19</text>
<text x="702.2" y="322" text-anchor="middle" font-family='system-ui, -apple-system, "Segoe UI", sans-serif' font-size="11" style="font-variant-numeric: tabular-nums" fill="#898781">07-21</text>
<path d="M494.1,217.9 L508.0,217.9 L521.9,217.9 L535.8,217.9 L549.6,217.9 L563.5,217.9 L577.4,217.9 L591.2,217.9 L605.1,217.9 L619.0,217.9 L632.9,218.0 L646.8,218.0 L660.6,218.0 L674.5,218.0 L688.4,218.0 L702.2,218.0 L716.1,218.0 L730.0,218.0" fill="none" stroke="#2a78d6" stroke-width="2" stroke-linejoin="round" stroke-linecap="round"/>
<circle cx="730.0" cy="218.0" r="6" fill="#fcfcfb"/>
<circle cx="730.0" cy="218.0" r="4" fill="#2a78d6"/>
<path d="M64.0,56.0 L77.9,56.0 L91.8,56.0 L105.6,56.0 L119.5,56.0 L133.4,56.0 L147.2,56.0 L161.1,56.0 L175.0,56.0 L188.9,56.0 L202.8,56.0 L216.6,56.0 L230.5,56.0 L244.4,56.0 L258.2,56.0 L272.1,56.0 L286.0,56.0 L299.9,56.0 L313.8,56.0 L327.6,56.0 L341.5,56.0 L355.4,56.0 L369.2,56.0 L383.1,56.0 L397.0,56.0 L410.9,56.0 L424.8,56.0 L438.6,56.0 L452.5,56.0 L466.4,56.0 L480.2,56.0 L494.1,56.0 L508.0,56.0 L521.9,56.0 L535.8,56.0 L549.6,56.0 L563.5,56.0 L577.4,56.0 L591.2,56.0 L605.1,56.0 L619.0,56.0 L632.9,56.1 L646.8,56.1 L660.6,56.1 L674.5,56.1 L688.4,56.1 L702.2,56.1 L716.1,56.1 L730.0,56.1" fill="none" stroke="#1baf7a" stroke-width="2" stroke-linejoin="round" stroke-linecap="round"/>
<circle cx="730.0" cy="56.1" r="6" fill="#fcfcfb"/>
<circle cx="730.0" cy="56.1" r="4" fill="#1baf7a"/>
<path d="M64.0,250.6 L77.9,250.6 L91.8,250.6 L105.6,250.6 L119.5,250.6 L133.4,250.6 L147.2,250.6 L161.1,250.6 L175.0,250.6 L188.9,250.6 L202.8,250.6 L216.6,250.6 L230.5,250.6 L244.4,250.6 L258.2,250.6 L272.1,250.6 L286.0,250.6 L299.9,250.6 L313.8,250.6 L327.6,250.6 L341.5,250.6 L355.4,250.6 L369.2,250.6 L383.1,250.6 L397.0,250.6 L410.9,250.6 L424.8,250.6 L438.6,250.6 L452.5,250.6 L466.4,250.6 L480.2,250.6 L494.1,250.6 L508.0,250.6 L521.9,250.7 L535.8,250.7 L549.6,250.7 L563.5,250.7 L577.4,250.7 L591.2,250.7 L605.1,250.7 L619.0,250.7 L632.9,250.7 L646.8,250.7 L660.6,250.7 L674.5,250.7 L688.4,250.7 L702.2,250.7 L716.1,250.7 L730.0,250.7" fill="none" stroke="#eda100" stroke-width="2" stroke-linejoin="round" stroke-linecap="round"/>
<circle cx="730.0" cy="250.7" r="6" fill="#fcfcfb"/>
<circle cx="730.0" cy="250.7" r="4" fill="#eda100"/>
<path d="M64.0,137.6 L77.9,137.6 L91.8,137.6 L105.6,137.6 L119.5,137.6 L133.4,137.6 L147.2,138.4 L161.1,138.4 L175.0,138.4 L188.9,138.4 L202.8,138.4 L216.6,138.4 L230.5,138.4 L244.4,138.4 L258.2,138.4 L272.1,138.4 L286.0,138.4 L299.9,138.4 L313.8,138.4 L327.6,138.4 L341.5,138.4 L355.4,138.4 L369.2,138.4 L383.1,138.4 L397.0,138.4 L410.9,138.4 L424.8,138.4 L438.6,138.4 L452.5,138.4 L466.4,138.4 L480.2,138.4 L494.1,138.4 L508.0,138.4 L521.9,138.4 L535.8,138.4 L549.6,138.4 L563.5,138.4 L577.4,138.4 L591.2,138.4 L605.1,138.4 L619.0,138.4 L632.9,138.5 L646.8,138.5 L660.6,138.5 L674.5,138.5 L688.4,138.5 L702.2,138.5 L716.1,138.5 L730.0,138.5" fill="none" stroke="#008300" stroke-width="2" stroke-linejoin="round" stroke-linecap="round"/>
<circle cx="730.0" cy="138.5" r="6" fill="#fcfcfb"/>
<circle cx="730.0" cy="138.5" r="4" fill="#008300"/>
<path d="M64.0,205.9 L77.9,205.9 L91.8,205.9 L105.6,205.9 L119.5,205.9 L133.4,205.9 L147.2,205.9 L161.1,205.9 L175.0,205.9 L188.9,205.9 L202.8,205.9 L216.6,205.9 L230.5,205.9 L244.4,205.9 L258.2,205.9 L272.1,205.9 L286.0,205.9 L299.9,205.9 L313.8,205.9 L327.6,205.9 L341.5,205.9 L355.4,205.9 L369.2,205.9 L383.1,205.9 L397.0,205.9 L410.9,205.9 L424.8,205.9 L438.6,205.9 L452.5,205.9 L466.4,205.9 L480.2,205.9 L494.1,205.9 L508.0,205.9 L521.9,205.9 L535.8,205.9 L549.6,205.9 L563.5,205.9 L577.4,205.9 L591.2,205.9 L605.1,205.9 L619.0,205.9 L632.9,205.9 L646.8,205.9 L660.6,205.9 L674.5,205.9 L688.4,205.9 L702.2,205.9 L716.1,205.9 L730.0,205.9" fill="none" stroke="#4a3aa7" stroke-width="2" stroke-linejoin="round" stroke-linecap="round"/>
<circle cx="730.0" cy="205.9" r="6" fill="#fcfcfb"/>
<circle cx="730.0" cy="205.9" r="4" fill="#4a3aa7"/>
<path d="M64.0,227.3 L77.9,227.3 L91.8,227.3 L105.6,227.3 L119.5,227.3 L133.4,227.3 L147.2,227.3 L161.1,227.3 L175.0,227.3 L188.9,227.3 L202.8,227.3 L216.6,227.3 L230.5,227.3 L244.4,227.3 L258.2,227.3 L272.1,227.3 L286.0,227.3 L299.9,227.3 L313.8,227.3 L327.6,227.3 L341.5,227.3 L355.4,227.3 L369.2,227.3 L383.1,227.3 L397.0,227.3 L410.9,227.3 L424.8,227.3 L438.6,227.3 L452.5,227.3 L466.4,227.3 L480.2,227.3 L494.1,227.3 L508.0,227.3 L521.9,227.3 L535.8,227.3 L549.6,227.3 L563.5,227.3 L577.4,227.3 L591.2,227.3 L605.1,227.3 L619.0,227.3 L632.9,227.3 L646.8,227.3 L660.6,227.3 L674.5,227.3 L688.4,227.3 L702.2,227.3 L716.1,227.3 L730.0,227.3" fill="none" stroke="#e34948" stroke-width="2" stroke-linejoin="round" stroke-linecap="round"/>
<circle cx="730.0" cy="227.3" r="6" fill="#fcfcfb"/>
<circle cx="730.0" cy="227.3" r="4" fill="#e34948"/>
<circle cx="745.0" cy="52.6" r="3.5" fill="#1baf7a"/>
<text x="753.0" y="56.1" font-family='system-ui, -apple-system, "Segoe UI", sans-serif' font-size="11" fill="#0b0b0b">granulator</text>
<text x="753.0" y="68.1" font-family='system-ui, -apple-system, "Segoe UI", sans-serif' font-size="10" style="font-variant-numeric: tabular-nums" fill="#52514e">27.5M</text>
<circle cx="745.0" cy="135.0" r="3.5" fill="#008300"/>
<text x="753.0" y="138.5" font-family='system-ui, -apple-system, "Segoe UI", sans-serif' font-size="11" fill="#0b0b0b">resonator</text>
<text x="753.0" y="150.5" font-family='system-ui, -apple-system, "Segoe UI", sans-serif' font-size="10" style="font-variant-numeric: tabular-nums" fill="#52514e">18.4M</text>
<circle cx="745.0" cy="202.4" r="3.5" fill="#4a3aa7"/>
<text x="753.0" y="205.9" font-family='system-ui, -apple-system, "Segoe UI", sans-serif' font-size="11" fill="#0b0b0b">reverb</text>
<text x="753.0" y="217.9" font-family='system-ui, -apple-system, "Segoe UI", sans-serif' font-size="10" style="font-variant-numeric: tabular-nums" fill="#52514e">11.0M</text>
<line x1="736.0" y1="218.0" x2="740.0" y2="233.9" stroke="#c3c2b7" stroke-width="1"/>
<circle cx="745.0" cy="230.4" r="3.5" fill="#2a78d6"/>
<text x="753.0" y="233.9" font-family='system-ui, -apple-system, "Segoe UI", sans-serif' font-size="11" fill="#0b0b0b">compressor</text>
<text x="753.0" y="245.9" font-family='system-ui, -apple-system, "Segoe UI", sans-serif' font-size="10" style="font-variant-numeric: tabular-nums" fill="#52514e">9.68M</text>
<line x1="736.0" y1="227.3" x2="740.0" y2="261.9" stroke="#c3c2b7" stroke-width="1"/>
<circle cx="745.0" cy="258.4" r="3.5" fill="#e34948"/>
<text x="753.0" y="261.9" font-family='system-ui, -apple-system, "Segoe UI", sans-serif' font-size="11" fill="#0b0b0b">saturator</text>
<text x="753.0" y="273.9" font-family='system-ui, -apple-system, "Segoe UI", sans-serif' font-size="10" style="font-variant-numeric: tabular-nums" fill="#52514e">8.65M</text>
<line x1="736.0" y1="250.7" x2="740.0" y2="289.9" stroke="#c3c2b7" stroke-width="1"/>
<circle cx="745.0" cy="286.4" r="3.5" fill="#eda100"/>
<text x="753.0" y="289.9" font-family='system-ui, -apple-system, "Segoe UI", sans-serif' font-size="11" fill="#0b0b0b">pan</text>
<text x="753.0" y="301.9" font-family='system-ui, -apple-system, "Segoe UI", sans-serif' font-size="10" style="font-variant-numeric: tabular-nums" fill="#52514e">6.08M</text>
</svg>