<svg xmlns="http://www.w3.org/2000/svg" width="880" height="340" viewBox="0 0 880 340" role="img" aria-label="Heaviest operators (micro)">
<rect width="880" height="340" rx="6" fill="#1a1a19"/>
<text x="64" y="24" font-family='system-ui, -apple-system, "Segoe UI", sans-serif' font-size="14" font-weight="600" fill="#ffffff">Heaviest operators (micro)</text>
<text x="64" y="41" font-family='system-ui, -apple-system, "Segoe UI", sans-serif' font-size="11" fill="#c3c2b7">per-operator step_node cost over the same 1 s schedule - top 6 by latest Ir</text>
<line x1="64" y1="306.0" x2="730" y2="306.0" stroke="#2c2c2a" stroke-width="1"/>
<text x="56" y="309.5" text-anchor="end" font-family='system-ui, -apple-system, "Segoe UI", sans-serif' font-size="11" style="font-variant-numeric: tabular-nums" fill="#898781">0</text>
<line x1="64" y1="218.1" x2="730" y2="218.1" stroke="#2c2c2a" stroke-width="1"/>
<text x="56" y="221.6" text-anchor="end" font-family='system-ui, -apple-system, "Segoe UI", sans-serif' font-size="11" style="font-variant-numeric: tabular-nums" fill="#898781">10</text>
<line x1="64" y1="130.3" x2="730" y2="130.3" stroke="#2c2c2a" stroke-width="1"/>
<text x="56" y="133.8" text-anchor="end" font-family='system-ui, -apple-system, "Segoe UI", sans-serif' font-size="11" style="font-variant-numeric: tabular-nums" fill="#898781">20</text>
<text x="56" y="46" text-anchor="end" font-family='system-ui, -apple-system, "Segoe UI", sans-serif' font-size="10" fill="#898781">Ir (M)</text>
<line x1="64" y1="306" x2="730" y2="306" stroke="#383835" stroke-width="1"/>
<text x="64.0" y="322" text-anchor="middle" font-family='system-ui, -apple-system, "Segoe UI", sans-serif' font-size="11" style="font-variant-numeric: tabular-nums" fill="#898781">06-28</text>
<text x="166.5" y="322" text-anchor="middle" font-family='system-ui, -apple-system, "Segoe UI", sans-serif' font-size="11" style="font-variant-numeric: tabular-nums" fill="#898781">06-30</text>
<text x="251.8" y="322" text-anchor="middle" font-family='system-ui, -apple-system, "Segoe UI", sans-serif' font-size="11" style="font-variant-numeric: tabular-nums" fill="#898781">07-02</text>
<text x="439.7" y="322" text-anchor="middle" font-family='system-ui, -apple-system, "Segoe UI", sans-serif' font-size="11" style="font-variant-numeric: tabular-nums" fill="#898781">07-04</text>
<text x="712.9" y="322" text-anchor="middle" font-family='system-ui, -apple-system, "Segoe UI", sans-serif' font-size="11" style="font-variant-numeric: tabular-nums" fill="#898781">07-07</text>
<path d="M183.5,56.2 L200.6,56.2 L217.7,56.1 L234.8,61.2 L251.8,56.2 L268.9,56.2 L286.0,56.2 L303.1,56.2 L320.2,56.2 L337.2,56.2 L354.3,56.2 L371.4,56.2 L388.5,56.2 L405.5,56.2 L422.6,56.2 L439.7,56.2 L456.8,56.2 L473.8,56.2 L490.9,56.2 L508.0,60.8 L525.1,56.1 L542.2,56.1 L559.2,56.1 L576.3,56.1 L593.4,56.1 L610.5,60.6 L627.5,60.6 L644.6,56.1 L661.7,56.0 L678.8,56.0 L695.8,56.0 L712.9,56.0 L730.0,56.0" fill="none" stroke="#3987e5" stroke-width="2" stroke-linejoin="round" stroke-linecap="round"/>
<circle cx="730.0" cy="56.0" r="6" fill="#1a1a19"/>
<circle cx="730.0" cy="56.0" r="4" fill="#3987e5"/>
<path d="M64.0,264.6 L81.1,264.6 L98.2,264.6 L115.2,264.6 L132.3,264.6 L149.4,266.2 L166.5,265.8 L183.5,265.4 L200.6,265.5 L217.7,265.4 L234.8,265.4 L251.8,265.5 L268.9,265.4 L286.0,265.5 L303.1,265.5 L320.2,265.5 L337.2,265.5 L354.3,265.5 L371.4,265.0 L388.5,265.0 L405.5,265.0 L422.6,265.0 L439.7,265.0 L456.8,265.0 L473.8,265.0 L490.9,265.0 L508.0,265.0 L525.1,264.9 L542.2,264.9 L559.2,264.9 L576.3,264.9 L593.4,264.9 L610.5,264.9 L627.5,264.9 L644.6,264.9 L661.7,264.8 L678.8,264.8 L695.8,264.8 L712.9,264.8 L730.0,264.8" fill="none" stroke="#199e70" stroke-width="2" stroke-linejoin="round" stroke-linecap="round"/>
<circle cx="730.0" cy="264.8" r="6" fill="#1a1a19"/>
<circle cx="730.0" cy="264.8" r="4" fill="#199e70"/>
<path d="M64.0,246.7 L81.1,246.7 L98.2,246.7 L115.2,246.7 L132.3,246.7 L149.4,246.6 L166.5,246.6 L183.5,246.2 L200.6,246.3 L217.7,246.3 L234.8,246.3 L251.8,246.3 L268.9,246.3 L286.0,246.3 L303.1,246.3 L320.2,246.3 L337.2,246.3 L354.3,246.3 L371.4,251.7 L388.5,251.7 L405.5,251.7 L422.6,251.7 L439.7,251.7 L456.8,251.7 L473.8,251.7 L490.9,251.7 L508.0,251.7 L525.1,251.6 L542.2,251.6 L559.2,251.6 L576.3,251.6 L593.4,251.6 L610.5,251.6 L627.5,251.6 L644.6,251.6 L661.7,251.5 L678.8,251.5 L695.8,251.5 L712.9,251.5 L730.0,251.5" fill="none" stroke="#c98500" stroke-width="2" stroke-linejoin="round" stroke-linecap="round"/>
<circle cx="730.0" cy="251.5" r="6" fill="#1a1a19"/>
<circle cx="730.0" cy="251.5" r="4" fill="#c98500"/>
<path d="M98.2,97.2 L115.2,97.2 L132.3,97.2 L149.4,138.2 L166.5,138.2 L183.5,137.8 L200.6,137.8 L217.7,137.8 L234.8,137.9 L251.8,137.8 L268.9,137.9 L286.0,137.8 L303.1,137.8 L320.2,137.8 L337.2,137.8 L354.3,137.8 L371.4,142.4 L388.5,142.4 L405.5,142.4 L422.6,142.4 L439.7,142.4 L456.8,142.4 L473.8,142.4 L490.9,142.4 L508.0,142.4 L525.1,142.4 L542.2,142.4 L559.2,142.4 L576.3,142.4 L593.4,142.4 L610.5,142.3 L627.5,142.4 L644.6,142.3 L661.7,142.3 L678.8,142.3 L695.8,142.3 L712.9,142.3 L730.0,142.3" fill="none" stroke="#008300" stroke-width="2" stroke-linejoin="round" stroke-linecap="round"/>
<circle cx="730.0" cy="142.3" r="6" fill="#1a1a19"/>
<circle cx="730.0" cy="142.3" r="4" fill="#008300"/>
<path d="M64.0,195.3 L81.1,195.3 L98.2,195.4 L115.2,195.4 L132.3,195.4 L149.4,204.2 L166.5,204.1 L183.5,203.8 L200.6,203.8 L217.7,203.8 L234.8,203.9 L251.8,203.8 L268.9,203.8 L286.0,203.8 L303.1,203.8 L320.2,203.8 L337.2,203.8 L354.3,203.8 L371.4,208.4 L388.5,208.4 L405.5,208.4 L422.6,208.4 L439.7,208.4 L456.8,208.4 L473.8,208.4 L490.9,208.4 L508.0,208.5 L525.1,208.3 L542.2,208.3 L559.2,208.3 L576.3,208.3 L593.4,208.3 L610.5,208.3 L627.5,208.4 L644.6,208.4 L661.7,208.2 L678.8,208.2 L695.8,208.2 L712.9,208.2 L730.0,208.2" fill="none" stroke="#9085e9" stroke-width="2" stroke-linejoin="round" stroke-linecap="round"/>
<circle cx="730.0" cy="208.2" r="6" fill="#1a1a19"/>
<circle cx="730.0" cy="208.2" r="4" fill="#9085e9"/>
<path d="M64.0,262.8 L81.1,262.8 L98.2,262.8 L115.2,262.8 L132.3,263.0 L149.4,263.2 L166.5,263.0 L183.5,262.4 L200.6,262.5 L217.7,262.4 L234.8,262.5 L251.8,262.5 L268.9,262.5 L286.0,262.5 L303.1,262.5 L320.2,262.5 L337.2,262.5 L354.3,262.5 L371.4,261.7 L388.5,261.7 L405.5,261.6 L422.6,261.4 L439.7,261.4 L456.8,261.4 L473.8,261.4 L490.9,261.4 L508.0,261.4 L525.1,261.3 L542.2,261.3 L559.2,261.3 L576.3,261.3 L593.4,261.3 L610.5,261.2 L627.5,261.3 L644.6,261.3 L661.7,261.0 L678.8,261.0 L695.8,261.1 L712.9,261.1 L730.0,261.1" fill="none" stroke="#e66767" stroke-width="2" stroke-linejoin="round" stroke-linecap="round"/>
<circle cx="730.0" cy="261.1" r="6" fill="#1a1a19"/>
<circle cx="730.0" cy="261.1" r="4" fill="#e66767"/>
<circle cx="745.0" cy="52.5" r="3.5" fill="#3987e5"/>
<text x="753.0" y="56.0" font-family='system-ui, -apple-system, "Segoe UI", sans-serif' font-size="11" fill="#ffffff">granulator</text>
<text x="753.0" y="68.0" font-family='system-ui, -apple-system, "Segoe UI", sans-serif' font-size="10" style="font-variant-numeric: tabular-nums" fill="#c3c2b7">28.5M</text>
<circle cx="745.0" cy="138.8" r="3.5" fill="#008300"/>
<text x="753.0" y="142.3" font-family='system-ui, -apple-system, "Segoe UI", sans-serif' font-size="11" fill="#ffffff">resonator</text>
<text x="753.0" y="154.3" font-family='system-ui, -apple-system, "Segoe UI", sans-serif' font-size="10" style="font-variant-numeric: tabular-nums" fill="#c3c2b7">18.6M</text>
<circle cx="745.0" cy="204.7" r="3.5" fill="#9085e9"/>
<text x="753.0" y="208.2" font-family='system-ui, -apple-system, "Segoe UI", sans-serif' font-size="11" fill="#ffffff">reverb</text>
<text x="753.0" y="220.2" font-family='system-ui, -apple-system, "Segoe UI", sans-serif' font-size="10" style="font-variant-numeric: tabular-nums" fill="#c3c2b7">11.1M</text>
<circle cx="745.0" cy="248.0" r="3.5" fill="#c98500"/>
<text x="753.0" y="251.5" font-family='system-ui, -apple-system, "Segoe UI", sans-serif' font-size="11" fill="#ffffff">pan</text>
<text x="753.0" y="263.5" font-family='system-ui, -apple-system, "Segoe UI", sans-serif' font-size="10" style="font-variant-numeric: tabular-nums" fill="#c3c2b7">6.20M</text>
<line x1="736.0" y1="261.1" x2="740.0" y2="279.5" stroke="#383835" stroke-width="1"/>
<circle cx="745.0" cy="276.0" r="3.5" fill="#e66767"/>
<text x="753.0" y="279.5" font-family='system-ui, -apple-system, "Segoe UI", sans-serif' font-size="11" fill="#ffffff">sequencer</text>
<text x="753.0" y="291.5" font-family='system-ui, -apple-system, "Segoe UI", sans-serif' font-size="10" style="font-variant-numeric: tabular-nums" fill="#c3c2b7">5.11M</text>
<line x1="736.0" y1="264.8" x2="740.0" y2="307.5" stroke="#383835" stroke-width="1"/>
<circle cx="745.0" cy="304.0" r="3.5" fill="#199e70"/>
<text x="753.0" y="307.5" font-family='system-ui, -apple-system, "Segoe UI", sans-serif' font-size="11" fill="#ffffff">map_f32_signal</text>
<text x="753.0" y="319.5" font-family='system-ui, -apple-system, "Segoe UI", sans-serif' font-size="10" style="font-variant-numeric: tabular-nums" fill="#c3c2b7">4.69M</text>
</svg>