<svg xmlns="http://www.w3.org/2000/svg" width="880" height="340" viewBox="0 0 880 340" role="img" aria-label="Heaviest operators (micro)">
<rect width="880" height="340" rx="6" fill="#1a1a19"/>
<text x="64" y="24" font-family='system-ui, -apple-system, "Segoe UI", sans-serif' font-size="14" font-weight="600" fill="#ffffff">Heaviest operators (micro)</text>
<text x="64" y="41" font-family='system-ui, -apple-system, "Segoe UI", sans-serif' font-size="11" fill="#c3c2b7">per-operator step_node cost over the same 1 s schedule - top 6 by latest Ir</text>
<line x1="64" y1="306.0" x2="730" y2="306.0" stroke="#2c2c2a" stroke-width="1"/>
<text x="56" y="309.5" text-anchor="end" font-family='system-ui, -apple-system, "Segoe UI", sans-serif' font-size="11" style="font-variant-numeric: tabular-nums" fill="#898781">0</text>
<line x1="64" y1="218.1" x2="730" y2="218.1" stroke="#2c2c2a" stroke-width="1"/>
<text x="56" y="221.6" text-anchor="end" font-family='system-ui, -apple-system, "Segoe UI", sans-serif' font-size="11" style="font-variant-numeric: tabular-nums" fill="#898781">10</text>
<line x1="64" y1="130.3" x2="730" y2="130.3" stroke="#2c2c2a" stroke-width="1"/>
<text x="56" y="133.8" text-anchor="end" font-family='system-ui, -apple-system, "Segoe UI", sans-serif' font-size="11" style="font-variant-numeric: tabular-nums" fill="#898781">20</text>
<text x="56" y="46" text-anchor="end" font-family='system-ui, -apple-system, "Segoe UI", sans-serif' font-size="10" fill="#898781">Ir (M)</text>
<line x1="64" y1="306" x2="730" y2="306" stroke="#383835" stroke-width="1"/>
<text x="64.0" y="322" text-anchor="middle" font-family='system-ui, -apple-system, "Segoe UI", sans-serif' font-size="11" style="font-variant-numeric: tabular-nums" fill="#898781">06-28</text>
<text x="121.9" y="322" text-anchor="middle" font-family='system-ui, -apple-system, "Segoe UI", sans-serif' font-size="11" style="font-variant-numeric: tabular-nums" fill="#898781">06-30</text>
<text x="170.2" y="322" text-anchor="middle" font-family='system-ui, -apple-system, "Segoe UI", sans-serif' font-size="11" style="font-variant-numeric: tabular-nums" fill="#898781">07-02</text>
<text x="276.3" y="322" text-anchor="middle" font-family='system-ui, -apple-system, "Segoe UI", sans-serif' font-size="11" style="font-variant-numeric: tabular-nums" fill="#898781">07-04</text>
<text x="430.8" y="322" text-anchor="middle" font-family='system-ui, -apple-system, "Segoe UI", sans-serif' font-size="11" style="font-variant-numeric: tabular-nums" fill="#898781">07-07</text>
<text x="527.3" y="322" text-anchor="middle" font-family='system-ui, -apple-system, "Segoe UI", sans-serif' font-size="11" style="font-variant-numeric: tabular-nums" fill="#898781">07-09</text>
<text x="604.5" y="322" text-anchor="middle" font-family='system-ui, -apple-system, "Segoe UI", sans-serif' font-size="11" style="font-variant-numeric: tabular-nums" fill="#898781">07-11</text>
<path d="M131.6,56.2 L141.2,56.2 L150.9,56.1 L160.5,61.2 L170.2,56.2 L179.8,56.2 L189.5,56.2 L199.1,56.2 L208.8,56.2 L218.4,56.2 L228.1,56.2 L237.7,56.2 L247.4,56.2 L257.0,56.2 L266.7,56.2 L276.3,56.2 L286.0,56.2 L295.7,56.2 L305.3,56.2 L315.0,60.8 L324.6,56.1 L334.3,56.1 L343.9,56.1 L353.6,56.1 L363.2,56.1 L372.9,60.6 L382.5,60.6 L392.2,56.1 L401.8,56.0 L411.5,56.0 L421.1,56.0 L430.8,56.0 L440.4,56.0 L450.1,56.0 L459.7,56.0 L469.4,56.0 L479.0,56.0 L488.7,56.0 L498.3,56.0 L508.0,56.0 L517.7,56.0 L527.3,56.0 L537.0,56.0 L546.6,61.0 L556.3,61.0 L565.9,61.0 L575.6,56.1 L585.2,61.3 L594.9,56.3 L604.5,56.4 L614.2,64.4 L623.8,64.4 L633.5,64.4 L643.1,64.4 L652.8,64.4 L662.4,64.4 L672.1,64.4 L681.7,64.4 L691.4,64.4 L701.0,64.4 L710.7,64.4 L720.3,64.4 L730.0,64.4" fill="none" stroke="#3987e5" stroke-width="2" stroke-linejoin="round" stroke-linecap="round"/>
<circle cx="730.0" cy="64.4" r="6" fill="#1a1a19"/>
<circle cx="730.0" cy="64.4" r="4" fill="#3987e5"/>
<path d="M64.0,246.7 L73.7,246.7 L83.3,246.7 L93.0,246.7 L102.6,246.7 L112.3,246.6 L121.9,246.6 L131.6,246.2 L141.2,246.3 L150.9,246.3 L160.5,246.3 L170.2,246.3 L179.8,246.3 L189.5,246.3 L199.1,246.3 L208.8,246.3 L218.4,246.3 L228.1,246.3 L237.7,251.7 L247.4,251.7 L257.0,251.7 L266.7,251.7 L276.3,251.7 L286.0,251.7 L295.7,251.7 L305.3,251.7 L315.0,251.7 L324.6,251.6 L334.3,251.6 L343.9,251.6 L353.6,251.6 L363.2,251.6 L372.9,251.6 L382.5,251.6 L392.2,251.6 L401.8,251.5 L411.5,251.5 L421.1,251.5 L430.8,251.5 L440.4,251.5 L450.1,251.5 L459.7,251.5 L469.4,251.5 L479.0,251.5 L488.7,251.5 L498.3,251.5 L508.0,251.5 L517.7,251.5 L527.3,251.5 L537.0,251.5 L546.6,251.6 L556.3,251.6 L565.9,251.6 L575.6,251.6 L585.2,251.9 L594.9,251.9 L604.5,251.9 L614.2,252.5 L623.8,252.5 L633.5,252.5 L643.1,252.5 L652.8,252.5 L662.4,252.5 L672.1,252.5 L681.7,252.5 L691.4,252.5 L701.0,252.5 L710.7,252.5 L720.3,252.5 L730.0,252.5" fill="none" stroke="#199e70" stroke-width="2" stroke-linejoin="round" stroke-linecap="round"/>
<circle cx="730.0" cy="252.5" r="6" fill="#1a1a19"/>
<circle cx="730.0" cy="252.5" r="4" fill="#199e70"/>
<path d="M83.3,97.2 L93.0,97.2 L102.6,97.2 L112.3,138.2 L121.9,138.2 L131.6,137.8 L141.2,137.8 L150.9,137.8 L160.5,137.9 L170.2,137.8 L179.8,137.9 L189.5,137.8 L199.1,137.8 L208.8,137.8 L218.4,137.8 L228.1,137.8 L237.7,142.4 L247.4,142.4 L257.0,142.4 L266.7,142.4 L276.3,142.4 L286.0,142.4 L295.7,142.4 L305.3,142.4 L315.0,142.4 L324.6,142.4 L334.3,142.4 L343.9,142.4 L353.6,142.4 L363.2,142.4 L372.9,142.3 L382.5,142.4 L392.2,142.3 L401.8,142.3 L411.5,142.3 L421.1,142.3 L430.8,142.3 L440.4,142.3 L450.1,142.3 L459.7,142.3 L469.4,142.3 L479.0,142.3 L488.7,142.3 L498.3,142.3 L508.0,142.3 L517.7,142.3 L527.3,142.3 L537.0,142.3 L546.6,142.3 L556.3,142.3 L565.9,142.3 L575.6,142.3 L585.2,142.6 L594.9,142.6 L604.5,142.7 L614.2,143.3 L623.8,143.3 L633.5,143.3 L643.1,143.3 L652.8,143.3 L662.4,143.3 L672.1,143.3 L681.7,143.3 L691.4,143.3 L701.0,143.3 L710.7,143.3 L720.3,143.3 L730.0,143.3" fill="none" stroke="#c98500" stroke-width="2" stroke-linejoin="round" stroke-linecap="round"/>
<circle cx="730.0" cy="143.3" r="6" fill="#1a1a19"/>
<circle cx="730.0" cy="143.3" r="4" fill="#c98500"/>
<path d="M64.0,195.3 L73.7,195.3 L83.3,195.4 L93.0,195.4 L102.6,195.4 L112.3,204.2 L121.9,204.1 L131.6,203.8 L141.2,203.8 L150.9,203.8 L160.5,203.9 L170.2,203.8 L179.8,203.8 L189.5,203.8 L199.1,203.8 L208.8,203.8 L218.4,203.8 L228.1,203.8 L237.7,208.4 L247.4,208.4 L257.0,208.4 L266.7,208.4 L276.3,208.4 L286.0,208.4 L295.7,208.4 L305.3,208.4 L315.0,208.5 L324.6,208.3 L334.3,208.3 L343.9,208.3 L353.6,208.3 L363.2,208.3 L372.9,208.3 L382.5,208.4 L392.2,208.4 L401.8,208.2 L411.5,208.2 L421.1,208.2 L430.8,208.2 L440.4,208.2 L450.1,208.2 L459.7,208.2 L469.4,208.2 L479.0,208.2 L488.7,208.2 L498.3,208.2 L508.0,208.2 L517.7,208.2 L527.3,208.2 L537.0,208.2 L546.6,208.4 L556.3,208.3 L565.9,208.3 L575.6,208.3 L585.2,208.6 L594.9,208.6 L604.5,208.6 L614.2,209.2 L623.8,209.2 L633.5,209.2 L643.1,209.2 L652.8,209.2 L662.4,209.2 L672.1,209.2 L681.7,209.2 L691.4,209.2 L701.0,209.2 L710.7,209.2 L720.3,209.2 L730.0,209.2" fill="none" stroke="#008300" stroke-width="2" stroke-linejoin="round" stroke-linecap="round"/>
<circle cx="730.0" cy="209.2" r="6" fill="#1a1a19"/>
<circle cx="730.0" cy="209.2" r="4" fill="#008300"/>
<path d="M556.3,229.0 L565.9,229.0 L575.6,229.1 L585.2,229.3 L594.9,229.3 L604.5,229.3 L614.2,229.9 L623.8,229.9 L633.5,229.9 L643.1,229.9 L652.8,229.9 L662.4,229.9 L672.1,229.9 L681.7,229.9 L691.4,229.9 L701.0,229.9 L710.7,229.9 L720.3,229.9 L730.0,229.9" fill="none" stroke="#9085e9" stroke-width="2" stroke-linejoin="round" stroke-linecap="round"/>
<circle cx="730.0" cy="229.9" r="6" fill="#1a1a19"/>
<circle cx="730.0" cy="229.9" r="4" fill="#9085e9"/>
<path d="M64.0,262.8 L73.7,262.8 L83.3,262.8 L93.0,262.8 L102.6,263.0 L112.3,263.2 L121.9,263.0 L131.6,262.4 L141.2,262.5 L150.9,262.4 L160.5,262.5 L170.2,262.5 L179.8,262.5 L189.5,262.5 L199.1,262.5 L208.8,262.5 L218.4,262.5 L228.1,262.5 L237.7,261.7 L247.4,261.7 L257.0,261.6 L266.7,261.4 L276.3,261.4 L286.0,261.4 L295.7,261.4 L305.3,261.4 L315.0,261.4 L324.6,261.3 L334.3,261.3 L343.9,261.3 L353.6,261.3 L363.2,261.3 L372.9,261.2 L382.5,261.3 L392.2,261.3 L401.8,261.0 L411.5,261.0 L421.1,261.1 L430.8,261.1 L440.4,261.1 L450.1,261.1 L459.7,261.1 L469.4,261.1 L479.0,261.1 L488.7,261.1 L498.3,261.1 L508.0,261.1 L517.7,261.1 L527.3,261.1 L537.0,261.1 L546.6,261.3 L556.3,261.2 L565.9,261.2 L575.6,261.3 L585.2,261.7 L594.9,261.8 L604.5,261.8 L614.2,263.1 L623.8,263.1 L633.5,263.1 L643.1,263.1 L652.8,263.1 L662.4,263.1 L672.1,263.0 L681.7,263.0 L691.4,263.0 L701.0,263.0 L710.7,263.0 L720.3,263.0 L730.0,263.0" fill="none" stroke="#e66767" stroke-width="2" stroke-linejoin="round" stroke-linecap="round"/>
<circle cx="730.0" cy="263.0" r="6" fill="#1a1a19"/>
<circle cx="730.0" cy="263.0" r="4" fill="#e66767"/>
<circle cx="745.0" cy="60.9" r="3.5" fill="#3987e5"/>
<text x="753.0" y="64.4" font-family='system-ui, -apple-system, "Segoe UI", sans-serif' font-size="11" fill="#ffffff">granulator</text>
<text x="753.0" y="76.4" font-family='system-ui, -apple-system, "Segoe UI", sans-serif' font-size="10" style="font-variant-numeric: tabular-nums" fill="#c3c2b7">27.5M</text>
<circle cx="745.0" cy="139.8" r="3.5" fill="#c98500"/>
<text x="753.0" y="143.3" font-family='system-ui, -apple-system, "Segoe UI", sans-serif' font-size="11" fill="#ffffff">resonator</text>
<text x="753.0" y="155.3" font-family='system-ui, -apple-system, "Segoe UI", sans-serif' font-size="10" style="font-variant-numeric: tabular-nums" fill="#c3c2b7">18.5M</text>
<circle cx="745.0" cy="205.7" r="3.5" fill="#008300"/>
<text x="753.0" y="209.2" font-family='system-ui, -apple-system, "Segoe UI", sans-serif' font-size="11" fill="#ffffff">reverb</text>
<text x="753.0" y="221.2" font-family='system-ui, -apple-system, "Segoe UI", sans-serif' font-size="10" style="font-variant-numeric: tabular-nums" fill="#c3c2b7">11.0M</text>
<line x1="736.0" y1="229.9" x2="740.0" y2="237.2" stroke="#383835" stroke-width="1"/>
<circle cx="745.0" cy="233.7" r="3.5" fill="#9085e9"/>
<text x="753.0" y="237.2" font-family='system-ui, -apple-system, "Segoe UI", sans-serif' font-size="11" fill="#ffffff">saturator</text>
<text x="753.0" y="249.2" font-family='system-ui, -apple-system, "Segoe UI", sans-serif' font-size="10" style="font-variant-numeric: tabular-nums" fill="#c3c2b7">8.66M</text>
<line x1="736.0" y1="252.5" x2="740.0" y2="265.2" stroke="#383835" stroke-width="1"/>
<circle cx="745.0" cy="261.7" r="3.5" fill="#199e70"/>
<text x="753.0" y="265.2" font-family='system-ui, -apple-system, "Segoe UI", sans-serif' font-size="11" fill="#ffffff">pan</text>
<text x="753.0" y="277.2" font-family='system-ui, -apple-system, "Segoe UI", sans-serif' font-size="10" style="font-variant-numeric: tabular-nums" fill="#c3c2b7">6.09M</text>
<line x1="736.0" y1="263.0" x2="740.0" y2="293.2" stroke="#383835" stroke-width="1"/>
<circle cx="745.0" cy="289.7" r="3.5" fill="#e66767"/>
<text x="753.0" y="293.2" font-family='system-ui, -apple-system, "Segoe UI", sans-serif' font-size="11" fill="#ffffff">sequencer</text>
<text x="753.0" y="305.2" font-family='system-ui, -apple-system, "Segoe UI", sans-serif' font-size="10" style="font-variant-numeric: tabular-nums" fill="#c3c2b7">4.89M</text>
</svg>