<svg xmlns="http://www.w3.org/2000/svg" width="880" height="340" viewBox="0 0 880 340" role="img" aria-label="Heaviest operators (micro)">
<rect width="880" height="340" rx="6" fill="#1a1a19"/>
<text x="64" y="24" font-family='system-ui, -apple-system, "Segoe UI", sans-serif' font-size="14" font-weight="600" fill="#ffffff">Heaviest operators (micro)</text>
<text x="64" y="41" font-family='system-ui, -apple-system, "Segoe UI", sans-serif' font-size="11" fill="#c3c2b7">per-operator step_node cost over the same 1 s schedule - top 6 by latest Ir</text>
<line x1="64" y1="306.0" x2="730" y2="306.0" stroke="#2c2c2a" stroke-width="1"/>
<text x="56" y="309.5" text-anchor="end" font-family='system-ui, -apple-system, "Segoe UI", sans-serif' font-size="11" style="font-variant-numeric: tabular-nums" fill="#898781">0</text>
<line x1="64" y1="215.1" x2="730" y2="215.1" stroke="#2c2c2a" stroke-width="1"/>
<text x="56" y="218.6" text-anchor="end" font-family='system-ui, -apple-system, "Segoe UI", sans-serif' font-size="11" style="font-variant-numeric: tabular-nums" fill="#898781">10</text>
<line x1="64" y1="124.2" x2="730" y2="124.2" stroke="#2c2c2a" stroke-width="1"/>
<text x="56" y="127.7" text-anchor="end" font-family='system-ui, -apple-system, "Segoe UI", sans-serif' font-size="11" style="font-variant-numeric: tabular-nums" fill="#898781">20</text>
<text x="56" y="46" text-anchor="end" font-family='system-ui, -apple-system, "Segoe UI", sans-serif' font-size="10" fill="#898781">Ir (M)</text>
<line x1="64" y1="306" x2="730" y2="306" stroke="#383835" stroke-width="1"/>
<text x="64.0" y="322" text-anchor="middle" font-family='system-ui, -apple-system, "Segoe UI", sans-serif' font-size="11" style="font-variant-numeric: tabular-nums" fill="#898781">07-12</text>
<text x="159.1" y="322" text-anchor="middle" font-family='system-ui, -apple-system, "Segoe UI", sans-serif' font-size="11" style="font-variant-numeric: tabular-nums" fill="#898781">07-14</text>
<text x="281.5" y="322" text-anchor="middle" font-family='system-ui, -apple-system, "Segoe UI", sans-serif' font-size="11" style="font-variant-numeric: tabular-nums" fill="#898781">07-17</text>
<text x="444.6" y="322" text-anchor="middle" font-family='system-ui, -apple-system, "Segoe UI", sans-serif' font-size="11" style="font-variant-numeric: tabular-nums" fill="#898781">07-19</text>
<text x="689.2" y="322" text-anchor="middle" font-family='system-ui, -apple-system, "Segoe UI", sans-serif' font-size="11" style="font-variant-numeric: tabular-nums" fill="#898781">07-21</text>
<path d="M485.3,217.9 L498.9,217.9 L512.5,217.9 L526.1,217.9 L539.7,217.9 L553.3,217.9 L566.9,217.9 L580.5,217.9 L594.1,217.9 L607.7,217.9 L621.3,218.0 L634.9,218.0 L648.4,218.0 L662.0,218.0 L675.6,218.0 L689.2,218.0 L702.8,218.0 L716.4,218.0 L730.0,218.0" fill="none" stroke="#3987e5" stroke-width="2" stroke-linejoin="round" stroke-linecap="round"/>
<circle cx="730.0" cy="218.0" r="6" fill="#1a1a19"/>
<circle cx="730.0" cy="218.0" r="4" fill="#3987e5"/>
<path d="M64.0,56.0 L77.6,56.0 L91.2,56.0 L104.8,56.0 L118.4,56.0 L132.0,56.0 L145.6,56.0 L159.1,56.0 L172.7,56.0 L186.3,56.0 L199.9,56.0 L213.5,56.0 L227.1,56.0 L240.7,56.0 L254.3,56.0 L267.9,56.0 L281.5,56.0 L295.1,56.0 L308.7,56.0 L322.2,56.0 L335.8,56.0 L349.4,56.0 L363.0,56.0 L376.6,56.0 L390.2,56.0 L403.8,56.0 L417.4,56.0 L431.0,56.0 L444.6,56.0 L458.2,56.0 L471.8,56.0 L485.3,56.0 L498.9,56.0 L512.5,56.0 L526.1,56.0 L539.7,56.0 L553.3,56.0 L566.9,56.0 L580.5,56.0 L594.1,56.0 L607.7,56.0 L621.3,56.1 L634.9,56.1 L648.4,56.1 L662.0,56.1 L675.6,56.1 L689.2,56.1 L702.8,56.1 L716.4,56.1 L730.0,56.1" fill="none" stroke="#199e70" stroke-width="2" stroke-linejoin="round" stroke-linecap="round"/>
<circle cx="730.0" cy="56.1" r="6" fill="#1a1a19"/>
<circle cx="730.0" cy="56.1" r="4" fill="#199e70"/>
<path d="M64.0,250.6 L77.6,250.6 L91.2,250.6 L104.8,250.6 L118.4,250.6 L132.0,250.6 L145.6,250.6 L159.1,250.6 L172.7,250.6 L186.3,250.6 L199.9,250.6 L213.5,250.6 L227.1,250.6 L240.7,250.6 L254.3,250.6 L267.9,250.6 L281.5,250.6 L295.1,250.6 L308.7,250.6 L322.2,250.6 L335.8,250.6 L349.4,250.6 L363.0,250.6 L376.6,250.6 L390.2,250.6 L403.8,250.6 L417.4,250.6 L431.0,250.6 L444.6,250.6 L458.2,250.6 L471.8,250.6 L485.3,250.6 L498.9,250.6 L512.5,250.7 L526.1,250.7 L539.7,250.7 L553.3,250.7 L566.9,250.7 L580.5,250.7 L594.1,250.7 L607.7,250.7 L621.3,250.7 L634.9,250.7 L648.4,250.7 L662.0,250.7 L675.6,250.7 L689.2,250.7 L702.8,250.7 L716.4,250.7 L730.0,250.7" fill="none" stroke="#c98500" stroke-width="2" stroke-linejoin="round" stroke-linecap="round"/>
<circle cx="730.0" cy="250.7" r="6" fill="#1a1a19"/>
<circle cx="730.0" cy="250.7" r="4" fill="#c98500"/>
<path d="M64.0,137.6 L77.6,137.6 L91.2,137.6 L104.8,137.6 L118.4,137.6 L132.0,137.6 L145.6,138.4 L159.1,138.4 L172.7,138.4 L186.3,138.4 L199.9,138.4 L213.5,138.4 L227.1,138.4 L240.7,138.4 L254.3,138.4 L267.9,138.4 L281.5,138.4 L295.1,138.4 L308.7,138.4 L322.2,138.4 L335.8,138.4 L349.4,138.4 L363.0,138.4 L376.6,138.4 L390.2,138.4 L403.8,138.4 L417.4,138.4 L431.0,138.4 L444.6,138.4 L458.2,138.4 L471.8,138.4 L485.3,138.4 L498.9,138.4 L512.5,138.4 L526.1,138.4 L539.7,138.4 L553.3,138.4 L566.9,138.4 L580.5,138.4 L594.1,138.4 L607.7,138.4 L621.3,138.5 L634.9,138.5 L648.4,138.5 L662.0,138.5 L675.6,138.5 L689.2,138.5 L702.8,138.5 L716.4,138.5 L730.0,138.5" fill="none" stroke="#008300" stroke-width="2" stroke-linejoin="round" stroke-linecap="round"/>
<circle cx="730.0" cy="138.5" r="6" fill="#1a1a19"/>
<circle cx="730.0" cy="138.5" r="4" fill="#008300"/>
<path d="M64.0,205.9 L77.6,205.9 L91.2,205.9 L104.8,205.9 L118.4,205.9 L132.0,205.9 L145.6,205.9 L159.1,205.9 L172.7,205.9 L186.3,205.9 L199.9,205.9 L213.5,205.9 L227.1,205.9 L240.7,205.9 L254.3,205.9 L267.9,205.9 L281.5,205.9 L295.1,205.9 L308.7,205.9 L322.2,205.9 L335.8,205.9 L349.4,205.9 L363.0,205.9 L376.6,205.9 L390.2,205.9 L403.8,205.9 L417.4,205.9 L431.0,205.9 L444.6,205.9 L458.2,205.9 L471.8,205.9 L485.3,205.9 L498.9,205.9 L512.5,205.9 L526.1,205.9 L539.7,205.9 L553.3,205.9 L566.9,205.9 L580.5,205.9 L594.1,205.9 L607.7,205.9 L621.3,205.9 L634.9,205.9 L648.4,205.9 L662.0,205.9 L675.6,205.9 L689.2,205.9 L702.8,205.9 L716.4,205.9 L730.0,205.9" fill="none" stroke="#9085e9" stroke-width="2" stroke-linejoin="round" stroke-linecap="round"/>
<circle cx="730.0" cy="205.9" r="6" fill="#1a1a19"/>
<circle cx="730.0" cy="205.9" r="4" fill="#9085e9"/>
<path d="M64.0,227.3 L77.6,227.3 L91.2,227.3 L104.8,227.3 L118.4,227.3 L132.0,227.3 L145.6,227.3 L159.1,227.3 L172.7,227.3 L186.3,227.3 L199.9,227.3 L213.5,227.3 L227.1,227.3 L240.7,227.3 L254.3,227.3 L267.9,227.3 L281.5,227.3 L295.1,227.3 L308.7,227.3 L322.2,227.3 L335.8,227.3 L349.4,227.3 L363.0,227.3 L376.6,227.3 L390.2,227.3 L403.8,227.3 L417.4,227.3 L431.0,227.3 L444.6,227.3 L458.2,227.3 L471.8,227.3 L485.3,227.3 L498.9,227.3 L512.5,227.3 L526.1,227.3 L539.7,227.3 L553.3,227.3 L566.9,227.3 L580.5,227.3 L594.1,227.3 L607.7,227.3 L621.3,227.3 L634.9,227.3 L648.4,227.3 L662.0,227.3 L675.6,227.3 L689.2,227.3 L702.8,227.3 L716.4,227.3 L730.0,227.3" fill="none" stroke="#e66767" stroke-width="2" stroke-linejoin="round" stroke-linecap="round"/>
<circle cx="730.0" cy="227.3" r="6" fill="#1a1a19"/>
<circle cx="730.0" cy="227.3" r="4" fill="#e66767"/>
<circle cx="745.0" cy="52.6" r="3.5" fill="#199e70"/>
<text x="753.0" y="56.1" font-family='system-ui, -apple-system, "Segoe UI", sans-serif' font-size="11" fill="#ffffff">granulator</text>
<text x="753.0" y="68.1" font-family='system-ui, -apple-system, "Segoe UI", sans-serif' font-size="10" style="font-variant-numeric: tabular-nums" fill="#c3c2b7">27.5M</text>
<circle cx="745.0" cy="135.0" r="3.5" fill="#008300"/>
<text x="753.0" y="138.5" font-family='system-ui, -apple-system, "Segoe UI", sans-serif' font-size="11" fill="#ffffff">resonator</text>
<text x="753.0" y="150.5" font-family='system-ui, -apple-system, "Segoe UI", sans-serif' font-size="10" style="font-variant-numeric: tabular-nums" fill="#c3c2b7">18.4M</text>
<circle cx="745.0" cy="202.4" r="3.5" fill="#9085e9"/>
<text x="753.0" y="205.9" font-family='system-ui, -apple-system, "Segoe UI", sans-serif' font-size="11" fill="#ffffff">reverb</text>
<text x="753.0" y="217.9" font-family='system-ui, -apple-system, "Segoe UI", sans-serif' font-size="10" style="font-variant-numeric: tabular-nums" fill="#c3c2b7">11.0M</text>
<line x1="736.0" y1="218.0" x2="740.0" y2="233.9" stroke="#383835" stroke-width="1"/>
<circle cx="745.0" cy="230.4" r="3.5" fill="#3987e5"/>
<text x="753.0" y="233.9" font-family='system-ui, -apple-system, "Segoe UI", sans-serif' font-size="11" fill="#ffffff">compressor</text>
<text x="753.0" y="245.9" font-family='system-ui, -apple-system, "Segoe UI", sans-serif' font-size="10" style="font-variant-numeric: tabular-nums" fill="#c3c2b7">9.68M</text>
<line x1="736.0" y1="227.3" x2="740.0" y2="261.9" stroke="#383835" stroke-width="1"/>
<circle cx="745.0" cy="258.4" r="3.5" fill="#e66767"/>
<text x="753.0" y="261.9" font-family='system-ui, -apple-system, "Segoe UI", sans-serif' font-size="11" fill="#ffffff">saturator</text>
<text x="753.0" y="273.9" font-family='system-ui, -apple-system, "Segoe UI", sans-serif' font-size="10" style="font-variant-numeric: tabular-nums" fill="#c3c2b7">8.65M</text>
<line x1="736.0" y1="250.7" x2="740.0" y2="289.9" stroke="#383835" stroke-width="1"/>
<circle cx="745.0" cy="286.4" r="3.5" fill="#c98500"/>
<text x="753.0" y="289.9" font-family='system-ui, -apple-system, "Segoe UI", sans-serif' font-size="11" fill="#ffffff">pan</text>
<text x="753.0" y="301.9" font-family='system-ui, -apple-system, "Segoe UI", sans-serif' font-size="10" style="font-variant-numeric: tabular-nums" fill="#c3c2b7">6.08M</text>
</svg>