<svg xmlns="http://www.w3.org/2000/svg" width="880" height="340" viewBox="0 0 880 340" role="img" aria-label="Heaviest operators (micro)">
<rect width="880" height="340" rx="6" fill="#1a1a19"/>
<text x="64" y="24" font-family='system-ui, -apple-system, "Segoe UI", sans-serif' font-size="14" font-weight="600" fill="#ffffff">Heaviest operators (micro)</text>
<text x="64" y="41" font-family='system-ui, -apple-system, "Segoe UI", sans-serif' font-size="11" fill="#c3c2b7">per-operator step_node cost over the same 1 s schedule - top 6 by latest Ir</text>
<line x1="64" y1="306.0" x2="730" y2="306.0" stroke="#2c2c2a" stroke-width="1"/>
<text x="56" y="309.5" text-anchor="end" font-family='system-ui, -apple-system, "Segoe UI", sans-serif' font-size="11" style="font-variant-numeric: tabular-nums" fill="#898781">0</text>
<line x1="64" y1="215.5" x2="730" y2="215.5" stroke="#2c2c2a" stroke-width="1"/>
<text x="56" y="219.0" text-anchor="end" font-family='system-ui, -apple-system, "Segoe UI", sans-serif' font-size="11" style="font-variant-numeric: tabular-nums" fill="#898781">10</text>
<line x1="64" y1="125.0" x2="730" y2="125.0" stroke="#2c2c2a" stroke-width="1"/>
<text x="56" y="128.5" text-anchor="end" font-family='system-ui, -apple-system, "Segoe UI", sans-serif' font-size="11" style="font-variant-numeric: tabular-nums" fill="#898781">20</text>
<text x="56" y="46" text-anchor="end" font-family='system-ui, -apple-system, "Segoe UI", sans-serif' font-size="10" fill="#898781">Ir (M)</text>
<line x1="64" y1="306" x2="730" y2="306" stroke="#383835" stroke-width="1"/>
<text x="64.0" y="322" text-anchor="middle" font-family='system-ui, -apple-system, "Segoe UI", sans-serif' font-size="11" style="font-variant-numeric: tabular-nums" fill="#898781">07-12</text>
<text x="145.8" y="322" text-anchor="middle" font-family='system-ui, -apple-system, "Segoe UI", sans-serif' font-size="11" style="font-variant-numeric: tabular-nums" fill="#898781">07-14</text>
<text x="250.9" y="322" text-anchor="middle" font-family='system-ui, -apple-system, "Segoe UI", sans-serif' font-size="11" style="font-variant-numeric: tabular-nums" fill="#898781">07-17</text>
<text x="391.2" y="322" text-anchor="middle" font-family='system-ui, -apple-system, "Segoe UI", sans-serif' font-size="11" style="font-variant-numeric: tabular-nums" fill="#898781">07-19</text>
<text x="601.5" y="322" text-anchor="middle" font-family='system-ui, -apple-system, "Segoe UI", sans-serif' font-size="11" style="font-variant-numeric: tabular-nums" fill="#898781">07-21</text>
<path d="M426.2,218.3 L437.9,218.3 L449.6,218.3 L461.3,218.3 L472.9,218.3 L484.6,218.3 L496.3,218.3 L508.0,218.3 L519.7,218.3 L531.4,218.3 L543.1,218.4 L554.7,218.4 L566.4,218.4 L578.1,218.4 L589.8,218.4 L601.5,218.4 L613.2,218.4 L624.8,218.4 L636.5,218.4 L648.2,218.4 L659.9,218.4 L671.6,218.4 L683.3,218.4 L694.9,218.4 L706.6,218.5 L718.3,218.5 L730.0,218.5" fill="none" stroke="#3987e5" stroke-width="2" stroke-linejoin="round" stroke-linecap="round"/>
<circle cx="730.0" cy="218.5" r="6" fill="#1a1a19"/>
<circle cx="730.0" cy="218.5" r="4" fill="#3987e5"/>
<path d="M64.0,57.2 L75.7,57.2 L87.4,57.2 L99.1,57.2 L110.7,57.2 L122.4,57.2 L134.1,57.2 L145.8,57.2 L157.5,57.2 L169.2,57.2 L180.8,57.2 L192.5,57.2 L204.2,57.2 L215.9,57.2 L227.6,57.2 L239.3,57.2 L250.9,57.2 L262.6,57.2 L274.3,57.2 L286.0,57.2 L297.7,57.2 L309.4,57.2 L321.1,57.2 L332.7,57.2 L344.4,57.2 L356.1,57.2 L367.8,57.2 L379.5,57.2 L391.2,57.2 L402.8,57.2 L414.5,57.2 L426.2,57.2 L437.9,57.2 L449.6,57.2 L461.3,57.2 L472.9,57.2 L484.6,57.2 L496.3,57.2 L508.0,57.2 L519.7,57.2 L531.4,57.2 L543.1,57.2 L554.7,57.2 L566.4,57.2 L578.1,57.2 L589.8,57.2 L601.5,57.2 L613.2,57.2 L624.8,57.2 L636.5,57.2 L648.2,57.2 L659.9,57.2 L671.6,57.2 L683.3,57.2 L694.9,57.2 L706.6,57.2 L718.3,56.0 L730.0,56.0" fill="none" stroke="#199e70" stroke-width="2" stroke-linejoin="round" stroke-linecap="round"/>
<circle cx="730.0" cy="56.0" r="6" fill="#1a1a19"/>
<circle cx="730.0" cy="56.0" r="4" fill="#199e70"/>
<path d="M64.0,250.9 L75.7,250.9 L87.4,250.9 L99.1,250.9 L110.7,250.9 L122.4,250.9 L134.1,250.9 L145.8,250.9 L157.5,250.9 L169.2,250.9 L180.8,250.9 L192.5,250.9 L204.2,250.9 L215.9,250.9 L227.6,250.9 L239.3,250.9 L250.9,250.9 L262.6,250.9 L274.3,250.9 L286.0,250.9 L297.7,250.9 L309.4,250.9 L321.1,250.9 L332.7,250.9 L344.4,250.9 L356.1,250.9 L367.8,250.9 L379.5,250.9 L391.2,250.9 L402.8,250.9 L414.5,250.9 L426.2,250.9 L437.9,250.9 L449.6,250.9 L461.3,250.9 L472.9,250.9 L484.6,250.9 L496.3,250.9 L508.0,250.9 L519.7,250.9 L531.4,250.9 L543.1,250.9 L554.7,250.9 L566.4,250.9 L578.1,250.9 L589.8,250.9 L601.5,250.9 L613.2,250.9 L624.8,250.9 L636.5,250.9 L648.2,250.9 L659.9,250.9 L671.6,250.9 L683.3,250.9 L694.9,250.9 L706.6,250.9 L718.3,251.0 L730.0,251.0" fill="none" stroke="#c98500" stroke-width="2" stroke-linejoin="round" stroke-linecap="round"/>
<circle cx="730.0" cy="251.0" r="6" fill="#1a1a19"/>
<circle cx="730.0" cy="251.0" r="4" fill="#c98500"/>
<path d="M64.0,138.4 L75.7,138.4 L87.4,138.4 L99.1,138.4 L110.7,138.4 L122.4,138.4 L134.1,139.2 L145.8,139.2 L157.5,139.2 L169.2,139.2 L180.8,139.2 L192.5,139.2 L204.2,139.2 L215.9,139.2 L227.6,139.2 L239.3,139.2 L250.9,139.2 L262.6,139.2 L274.3,139.2 L286.0,139.2 L297.7,139.2 L309.4,139.2 L321.1,139.2 L332.7,139.2 L344.4,139.2 L356.1,139.2 L367.8,139.2 L379.5,139.2 L391.2,139.2 L402.8,139.2 L414.5,139.2 L426.2,139.2 L437.9,139.2 L449.6,139.2 L461.3,139.2 L472.9,139.2 L484.6,139.2 L496.3,139.2 L508.0,139.2 L519.7,139.2 L531.4,139.2 L543.1,139.3 L554.7,139.3 L566.4,139.3 L578.1,139.3 L589.8,139.3 L601.5,139.3 L613.2,139.3 L624.8,139.3 L636.5,139.3 L648.2,139.3 L659.9,139.2 L671.6,139.2 L683.3,139.2 L694.9,139.2 L706.6,139.2 L718.3,139.2 L730.0,139.2" fill="none" stroke="#008300" stroke-width="2" stroke-linejoin="round" stroke-linecap="round"/>
<circle cx="730.0" cy="139.2" r="6" fill="#1a1a19"/>
<circle cx="730.0" cy="139.2" r="4" fill="#008300"/>
<path d="M64.0,206.3 L75.7,206.3 L87.4,206.3 L99.1,206.3 L110.7,206.3 L122.4,206.3 L134.1,206.3 L145.8,206.3 L157.5,206.3 L169.2,206.3 L180.8,206.3 L192.5,206.3 L204.2,206.3 L215.9,206.3 L227.6,206.3 L239.3,206.3 L250.9,206.3 L262.6,206.3 L274.3,206.3 L286.0,206.3 L297.7,206.3 L309.4,206.3 L321.1,206.3 L332.7,206.3 L344.4,206.3 L356.1,206.3 L367.8,206.3 L379.5,206.3 L391.2,206.3 L402.8,206.3 L414.5,206.4 L426.2,206.4 L437.9,206.4 L449.6,206.4 L461.3,206.4 L472.9,206.4 L484.6,206.4 L496.3,206.4 L508.0,206.4 L519.7,206.4 L531.4,206.4 L543.1,206.3 L554.7,206.3 L566.4,206.3 L578.1,206.3 L589.8,206.3 L601.5,206.3 L613.2,206.3 L624.8,206.3 L636.5,206.3 L648.2,206.3 L659.9,206.4 L671.6,206.4 L683.3,206.4 L694.9,206.4 L706.6,206.4 L718.3,206.4 L730.0,206.4" fill="none" stroke="#9085e9" stroke-width="2" stroke-linejoin="round" stroke-linecap="round"/>
<circle cx="730.0" cy="206.4" r="6" fill="#1a1a19"/>
<circle cx="730.0" cy="206.4" r="4" fill="#9085e9"/>
<path d="M64.0,227.7 L75.7,227.7 L87.4,227.7 L99.1,227.7 L110.7,227.7 L122.4,227.7 L134.1,227.7 L145.8,227.7 L157.5,227.7 L169.2,227.7 L180.8,227.7 L192.5,227.7 L204.2,227.7 L215.9,227.7 L227.6,227.7 L239.3,227.7 L250.9,227.7 L262.6,227.7 L274.3,227.7 L286.0,227.7 L297.7,227.7 L309.4,227.7 L321.1,227.7 L332.7,227.7 L344.4,227.7 L356.1,227.7 L367.8,227.7 L379.5,227.7 L391.2,227.7 L402.8,227.7 L414.5,227.7 L426.2,227.7 L437.9,227.7 L449.6,227.7 L461.3,227.7 L472.9,227.7 L484.6,227.7 L496.3,227.7 L508.0,227.7 L519.7,227.7 L531.4,227.7 L543.1,227.7 L554.7,227.7 L566.4,227.7 L578.1,227.7 L589.8,227.7 L601.5,227.7 L613.2,227.7 L624.8,227.7 L636.5,227.7 L648.2,227.7 L659.9,227.7 L671.6,227.7 L683.3,227.7 L694.9,227.7 L706.6,227.7 L718.3,227.7 L730.0,227.7" fill="none" stroke="#e66767" stroke-width="2" stroke-linejoin="round" stroke-linecap="round"/>
<circle cx="730.0" cy="227.7" r="6" fill="#1a1a19"/>
<circle cx="730.0" cy="227.7" r="4" fill="#e66767"/>
<circle cx="745.0" cy="52.5" r="3.5" fill="#199e70"/>
<text x="753.0" y="56.0" font-family='system-ui, -apple-system, "Segoe UI", sans-serif' font-size="11" fill="#ffffff">granulator</text>
<text x="753.0" y="68.0" font-family='system-ui, -apple-system, "Segoe UI", sans-serif' font-size="10" style="font-variant-numeric: tabular-nums" fill="#c3c2b7">27.6M</text>
<circle cx="745.0" cy="135.7" r="3.5" fill="#008300"/>
<text x="753.0" y="139.2" font-family='system-ui, -apple-system, "Segoe UI", sans-serif' font-size="11" fill="#ffffff">resonator</text>
<text x="753.0" y="151.2" font-family='system-ui, -apple-system, "Segoe UI", sans-serif' font-size="10" style="font-variant-numeric: tabular-nums" fill="#c3c2b7">18.4M</text>
<circle cx="745.0" cy="202.9" r="3.5" fill="#9085e9"/>
<text x="753.0" y="206.4" font-family='system-ui, -apple-system, "Segoe UI", sans-serif' font-size="11" fill="#ffffff">reverb</text>
<text x="753.0" y="218.4" font-family='system-ui, -apple-system, "Segoe UI", sans-serif' font-size="10" style="font-variant-numeric: tabular-nums" fill="#c3c2b7">11.0M</text>
<line x1="736.0" y1="218.5" x2="740.0" y2="234.4" stroke="#383835" stroke-width="1"/>
<circle cx="745.0" cy="230.9" r="3.5" fill="#3987e5"/>
<text x="753.0" y="234.4" font-family='system-ui, -apple-system, "Segoe UI", sans-serif' font-size="11" fill="#ffffff">compressor</text>
<text x="753.0" y="246.4" font-family='system-ui, -apple-system, "Segoe UI", sans-serif' font-size="10" style="font-variant-numeric: tabular-nums" fill="#c3c2b7">9.67M</text>
<line x1="736.0" y1="227.7" x2="740.0" y2="262.4" stroke="#383835" stroke-width="1"/>
<circle cx="745.0" cy="258.9" r="3.5" fill="#e66767"/>
<text x="753.0" y="262.4" font-family='system-ui, -apple-system, "Segoe UI", sans-serif' font-size="11" fill="#ffffff">saturator</text>
<text x="753.0" y="274.4" font-family='system-ui, -apple-system, "Segoe UI", sans-serif' font-size="10" style="font-variant-numeric: tabular-nums" fill="#c3c2b7">8.65M</text>
<line x1="736.0" y1="251.0" x2="740.0" y2="290.4" stroke="#383835" stroke-width="1"/>
<circle cx="745.0" cy="286.9" r="3.5" fill="#c98500"/>
<text x="753.0" y="290.4" font-family='system-ui, -apple-system, "Segoe UI", sans-serif' font-size="11" fill="#ffffff">pan</text>
<text x="753.0" y="302.4" font-family='system-ui, -apple-system, "Segoe UI", sans-serif' font-size="10" style="font-variant-numeric: tabular-nums" fill="#c3c2b7">6.08M</text>
</svg>