<svg xmlns="http://www.w3.org/2000/svg" width="880" height="340" viewBox="0 0 880 340" role="img" aria-label="Heaviest operators (micro)">
<rect width="880" height="340" rx="6" fill="#1a1a19"/>
<text x="64" y="24" font-family='system-ui, -apple-system, "Segoe UI", sans-serif' font-size="14" font-weight="600" fill="#ffffff">Heaviest operators (micro)</text>
<text x="64" y="41" font-family='system-ui, -apple-system, "Segoe UI", sans-serif' font-size="11" fill="#c3c2b7">per-operator step_node cost over the same 1 s schedule - top 6 by latest Ir</text>
<line x1="64" y1="306.0" x2="730" y2="306.0" stroke="#2c2c2a" stroke-width="1"/>
<text x="56" y="309.5" text-anchor="end" font-family='system-ui, -apple-system, "Segoe UI", sans-serif' font-size="11" style="font-variant-numeric: tabular-nums" fill="#898781">0</text>
<line x1="64" y1="215.1" x2="730" y2="215.1" stroke="#2c2c2a" stroke-width="1"/>
<text x="56" y="218.6" text-anchor="end" font-family='system-ui, -apple-system, "Segoe UI", sans-serif' font-size="11" style="font-variant-numeric: tabular-nums" fill="#898781">10</text>
<line x1="64" y1="124.2" x2="730" y2="124.2" stroke="#2c2c2a" stroke-width="1"/>
<text x="56" y="127.7" text-anchor="end" font-family='system-ui, -apple-system, "Segoe UI", sans-serif' font-size="11" style="font-variant-numeric: tabular-nums" fill="#898781">20</text>
<text x="56" y="46" text-anchor="end" font-family='system-ui, -apple-system, "Segoe UI", sans-serif' font-size="10" fill="#898781">Ir (M)</text>
<line x1="64" y1="306" x2="730" y2="306" stroke="#383835" stroke-width="1"/>
<text x="64.0" y="322" text-anchor="middle" font-family='system-ui, -apple-system, "Segoe UI", sans-serif' font-size="11" style="font-variant-numeric: tabular-nums" fill="#898781">07-12</text>
<text x="181.5" y="322" text-anchor="middle" font-family='system-ui, -apple-system, "Segoe UI", sans-serif' font-size="11" style="font-variant-numeric: tabular-nums" fill="#898781">07-13</text>
<text x="201.1" y="322" text-anchor="middle" font-family='system-ui, -apple-system, "Segoe UI", sans-serif' font-size="11" style="font-variant-numeric: tabular-nums" fill="#898781">07-14</text>
<text x="220.7" y="322" text-anchor="middle" font-family='system-ui, -apple-system, "Segoe UI", sans-serif' font-size="11" style="font-variant-numeric: tabular-nums" fill="#898781">07-16</text>
<text x="377.4" y="322" text-anchor="middle" font-family='system-ui, -apple-system, "Segoe UI", sans-serif' font-size="11" style="font-variant-numeric: tabular-nums" fill="#898781">07-17</text>
<text x="494.9" y="322" text-anchor="middle" font-family='system-ui, -apple-system, "Segoe UI", sans-serif' font-size="11" style="font-variant-numeric: tabular-nums" fill="#898781">07-18</text>
<text x="612.5" y="322" text-anchor="middle" font-family='system-ui, -apple-system, "Segoe UI", sans-serif' font-size="11" style="font-variant-numeric: tabular-nums" fill="#898781">07-19</text>
<text x="671.2" y="322" text-anchor="middle" font-family='system-ui, -apple-system, "Segoe UI", sans-serif' font-size="11" style="font-variant-numeric: tabular-nums" fill="#898781">07-20</text>
<path d="M671.2,217.9 L690.8,217.9 L710.4,217.9 L730.0,217.9" fill="none" stroke="#3987e5" stroke-width="2" stroke-linejoin="round" stroke-linecap="round"/>
<circle cx="730.0" cy="217.9" r="6" fill="#1a1a19"/>
<circle cx="730.0" cy="217.9" r="4" fill="#3987e5"/>
<path d="M64.0,56.0 L83.6,56.0 L103.2,56.0 L122.8,56.0 L142.4,56.0 L161.9,56.0 L181.5,56.0 L201.1,56.0 L220.7,56.0 L240.3,56.0 L259.9,56.0 L279.5,56.0 L299.1,56.0 L318.6,56.0 L338.2,56.0 L357.8,56.0 L377.4,56.0 L397.0,56.0 L416.6,56.0 L436.2,56.0 L455.8,56.0 L475.4,56.0 L494.9,56.0 L514.5,56.0 L534.1,56.0 L553.7,56.0 L573.3,56.0 L592.9,56.0 L612.5,56.0 L632.1,56.0 L651.6,56.0 L671.2,56.0 L690.8,56.0 L710.4,56.0 L730.0,56.0" fill="none" stroke="#199e70" stroke-width="2" stroke-linejoin="round" stroke-linecap="round"/>
<circle cx="730.0" cy="56.0" r="6" fill="#1a1a19"/>
<circle cx="730.0" cy="56.0" r="4" fill="#199e70"/>
<path d="M64.0,250.6 L83.6,250.6 L103.2,250.6 L122.8,250.6 L142.4,250.6 L161.9,250.6 L181.5,250.6 L201.1,250.6 L220.7,250.6 L240.3,250.6 L259.9,250.6 L279.5,250.6 L299.1,250.6 L318.6,250.6 L338.2,250.6 L357.8,250.6 L377.4,250.6 L397.0,250.6 L416.6,250.6 L436.2,250.6 L455.8,250.6 L475.4,250.6 L494.9,250.6 L514.5,250.6 L534.1,250.6 L553.7,250.6 L573.3,250.6 L592.9,250.6 L612.5,250.6 L632.1,250.6 L651.6,250.6 L671.2,250.6 L690.8,250.6 L710.4,250.7 L730.0,250.7" fill="none" stroke="#c98500" stroke-width="2" stroke-linejoin="round" stroke-linecap="round"/>
<circle cx="730.0" cy="250.7" r="6" fill="#1a1a19"/>
<circle cx="730.0" cy="250.7" r="4" fill="#c98500"/>
<path d="M64.0,137.6 L83.6,137.6 L103.2,137.6 L122.8,137.6 L142.4,137.6 L161.9,137.6 L181.5,138.4 L201.1,138.4 L220.7,138.4 L240.3,138.4 L259.9,138.4 L279.5,138.4 L299.1,138.4 L318.6,138.4 L338.2,138.4 L357.8,138.4 L377.4,138.4 L397.0,138.4 L416.6,138.4 L436.2,138.4 L455.8,138.4 L475.4,138.4 L494.9,138.4 L514.5,138.4 L534.1,138.4 L553.7,138.4 L573.3,138.4 L592.9,138.4 L612.5,138.4 L632.1,138.4 L651.6,138.4 L671.2,138.4 L690.8,138.4 L710.4,138.4 L730.0,138.4" fill="none" stroke="#008300" stroke-width="2" stroke-linejoin="round" stroke-linecap="round"/>
<circle cx="730.0" cy="138.4" r="6" fill="#1a1a19"/>
<circle cx="730.0" cy="138.4" r="4" fill="#008300"/>
<path d="M64.0,205.9 L83.6,205.9 L103.2,205.9 L122.8,205.9 L142.4,205.9 L161.9,205.9 L181.5,205.9 L201.1,205.9 L220.7,205.9 L240.3,205.9 L259.9,205.9 L279.5,205.9 L299.1,205.9 L318.6,205.9 L338.2,205.9 L357.8,205.9 L377.4,205.9 L397.0,205.9 L416.6,205.9 L436.2,205.9 L455.8,205.9 L475.4,205.9 L494.9,205.9 L514.5,205.9 L534.1,205.9 L553.7,205.9 L573.3,205.9 L592.9,205.9 L612.5,205.9 L632.1,205.9 L651.6,205.9 L671.2,205.9 L690.8,205.9 L710.4,205.9 L730.0,205.9" fill="none" stroke="#9085e9" stroke-width="2" stroke-linejoin="round" stroke-linecap="round"/>
<circle cx="730.0" cy="205.9" r="6" fill="#1a1a19"/>
<circle cx="730.0" cy="205.9" r="4" fill="#9085e9"/>
<path d="M64.0,227.3 L83.6,227.3 L103.2,227.3 L122.8,227.3 L142.4,227.3 L161.9,227.3 L181.5,227.3 L201.1,227.3 L220.7,227.3 L240.3,227.3 L259.9,227.3 L279.5,227.3 L299.1,227.3 L318.6,227.3 L338.2,227.3 L357.8,227.3 L377.4,227.3 L397.0,227.3 L416.6,227.3 L436.2,227.3 L455.8,227.3 L475.4,227.3 L494.9,227.3 L514.5,227.3 L534.1,227.3 L553.7,227.3 L573.3,227.3 L592.9,227.3 L612.5,227.3 L632.1,227.3 L651.6,227.3 L671.2,227.3 L690.8,227.3 L710.4,227.3 L730.0,227.3" fill="none" stroke="#e66767" stroke-width="2" stroke-linejoin="round" stroke-linecap="round"/>
<circle cx="730.0" cy="227.3" r="6" fill="#1a1a19"/>
<circle cx="730.0" cy="227.3" r="4" fill="#e66767"/>
<circle cx="745.0" cy="52.5" r="3.5" fill="#199e70"/>
<text x="753.0" y="56.0" font-family='system-ui, -apple-system, "Segoe UI", sans-serif' font-size="11" fill="#ffffff">granulator</text>
<text x="753.0" y="68.0" font-family='system-ui, -apple-system, "Segoe UI", sans-serif' font-size="10" style="font-variant-numeric: tabular-nums" fill="#c3c2b7">27.5M</text>
<circle cx="745.0" cy="134.9" r="3.5" fill="#008300"/>
<text x="753.0" y="138.4" font-family='system-ui, -apple-system, "Segoe UI", sans-serif' font-size="11" fill="#ffffff">resonator</text>
<text x="753.0" y="150.4" font-family='system-ui, -apple-system, "Segoe UI", sans-serif' font-size="10" style="font-variant-numeric: tabular-nums" fill="#c3c2b7">18.4M</text>
<circle cx="745.0" cy="202.4" r="3.5" fill="#9085e9"/>
<text x="753.0" y="205.9" font-family='system-ui, -apple-system, "Segoe UI", sans-serif' font-size="11" fill="#ffffff">reverb</text>
<text x="753.0" y="217.9" font-family='system-ui, -apple-system, "Segoe UI", sans-serif' font-size="10" style="font-variant-numeric: tabular-nums" fill="#c3c2b7">11.0M</text>
<line x1="736.0" y1="217.9" x2="740.0" y2="233.9" stroke="#383835" stroke-width="1"/>
<circle cx="745.0" cy="230.4" r="3.5" fill="#3987e5"/>
<text x="753.0" y="233.9" font-family='system-ui, -apple-system, "Segoe UI", sans-serif' font-size="11" fill="#ffffff">compressor</text>
<text x="753.0" y="245.9" font-family='system-ui, -apple-system, "Segoe UI", sans-serif' font-size="10" style="font-variant-numeric: tabular-nums" fill="#c3c2b7">9.69M</text>
<line x1="736.0" y1="227.3" x2="740.0" y2="261.9" stroke="#383835" stroke-width="1"/>
<circle cx="745.0" cy="258.4" r="3.5" fill="#e66767"/>
<text x="753.0" y="261.9" font-family='system-ui, -apple-system, "Segoe UI", sans-serif' font-size="11" fill="#ffffff">saturator</text>
<text x="753.0" y="273.9" font-family='system-ui, -apple-system, "Segoe UI", sans-serif' font-size="10" style="font-variant-numeric: tabular-nums" fill="#c3c2b7">8.65M</text>
<line x1="736.0" y1="250.7" x2="740.0" y2="289.9" stroke="#383835" stroke-width="1"/>
<circle cx="745.0" cy="286.4" r="3.5" fill="#c98500"/>
<text x="753.0" y="289.9" font-family='system-ui, -apple-system, "Segoe UI", sans-serif' font-size="11" fill="#ffffff">pan</text>
<text x="753.0" y="301.9" font-family='system-ui, -apple-system, "Segoe UI", sans-serif' font-size="10" style="font-variant-numeric: tabular-nums" fill="#c3c2b7">6.08M</text>
</svg>