<svg xmlns="http://www.w3.org/2000/svg" width="880" height="340" viewBox="0 0 880 340" role="img" aria-label="Heaviest operators (micro)">
<rect width="880" height="340" rx="6" fill="#fcfcfb"/>
<text x="64" y="24" font-family='system-ui, -apple-system, "Segoe UI", sans-serif' font-size="14" font-weight="600" fill="#0b0b0b">Heaviest operators (micro)</text>
<text x="64" y="41" font-family='system-ui, -apple-system, "Segoe UI", sans-serif' font-size="11" fill="#52514e">per-operator step_node cost over the same 1 s schedule - top 6 by latest Ir</text>
<line x1="64" y1="306.0" x2="730" y2="306.0" stroke="#e1e0d9" stroke-width="1"/>
<text x="56" y="309.5" text-anchor="end" font-family='system-ui, -apple-system, "Segoe UI", sans-serif' font-size="11" style="font-variant-numeric: tabular-nums" fill="#898781">0</text>
<line x1="64" y1="218.1" x2="730" y2="218.1" stroke="#e1e0d9" stroke-width="1"/>
<text x="56" y="221.6" text-anchor="end" font-family='system-ui, -apple-system, "Segoe UI", sans-serif' font-size="11" style="font-variant-numeric: tabular-nums" fill="#898781">10</text>
<line x1="64" y1="130.3" x2="730" y2="130.3" stroke="#e1e0d9" stroke-width="1"/>
<text x="56" y="133.8" text-anchor="end" font-family='system-ui, -apple-system, "Segoe UI", sans-serif' font-size="11" style="font-variant-numeric: tabular-nums" fill="#898781">20</text>
<text x="56" y="46" text-anchor="end" font-family='system-ui, -apple-system, "Segoe UI", sans-serif' font-size="10" fill="#898781">Ir (M)</text>
<line x1="64" y1="306" x2="730" y2="306" stroke="#c3c2b7" stroke-width="1"/>
<text x="64.0" y="322" text-anchor="middle" font-family='system-ui, -apple-system, "Segoe UI", sans-serif' font-size="11" style="font-variant-numeric: tabular-nums" fill="#898781">06-28</text>
<text x="124.5" y="322" text-anchor="middle" font-family='system-ui, -apple-system, "Segoe UI", sans-serif' font-size="11" style="font-variant-numeric: tabular-nums" fill="#898781">06-30</text>
<text x="175.0" y="322" text-anchor="middle" font-family='system-ui, -apple-system, "Segoe UI", sans-serif' font-size="11" style="font-variant-numeric: tabular-nums" fill="#898781">07-02</text>
<text x="286.0" y="322" text-anchor="middle" font-family='system-ui, -apple-system, "Segoe UI", sans-serif' font-size="11" style="font-variant-numeric: tabular-nums" fill="#898781">07-04</text>
<text x="447.5" y="322" text-anchor="middle" font-family='system-ui, -apple-system, "Segoe UI", sans-serif' font-size="11" style="font-variant-numeric: tabular-nums" fill="#898781">07-07</text>
<text x="548.4" y="322" text-anchor="middle" font-family='system-ui, -apple-system, "Segoe UI", sans-serif' font-size="11" style="font-variant-numeric: tabular-nums" fill="#898781">07-09</text>
<text x="629.1" y="322" text-anchor="middle" font-family='system-ui, -apple-system, "Segoe UI", sans-serif' font-size="11" style="font-variant-numeric: tabular-nums" fill="#898781">07-11</text>
<path d="M134.6,56.2 L144.7,56.2 L154.8,56.1 L164.9,61.2 L175.0,56.2 L185.1,56.2 L195.2,56.2 L205.3,56.2 L215.4,56.2 L225.5,56.2 L235.5,56.2 L245.6,56.2 L255.7,56.2 L265.8,56.2 L275.9,56.2 L286.0,56.2 L296.1,56.2 L306.2,56.2 L316.3,56.2 L326.4,60.8 L336.5,56.1 L346.5,56.1 L356.6,56.1 L366.7,56.1 L376.8,56.1 L386.9,60.6 L397.0,60.6 L407.1,56.1 L417.2,56.0 L427.3,56.0 L437.4,56.0 L447.5,56.0 L457.5,56.0 L467.6,56.0 L477.7,56.0 L487.8,56.0 L497.9,56.0 L508.0,56.0 L518.1,56.0 L528.2,56.0 L538.3,56.0 L548.4,56.0 L558.5,56.0 L568.5,61.0 L578.6,61.0 L588.7,61.0 L598.8,56.1 L608.9,61.3 L619.0,56.3 L629.1,56.4 L639.2,64.4 L649.3,64.4 L659.4,64.4 L669.5,64.4 L679.5,64.4 L689.6,64.4 L699.7,64.4 L709.8,64.4 L719.9,64.4 L730.0,64.4" fill="none" stroke="#2a78d6" stroke-width="2" stroke-linejoin="round" stroke-linecap="round"/>
<circle cx="730.0" cy="64.4" r="6" fill="#fcfcfb"/>
<circle cx="730.0" cy="64.4" r="4" fill="#2a78d6"/>
<path d="M64.0,246.7 L74.1,246.7 L84.2,246.7 L94.3,246.7 L104.4,246.7 L114.5,246.6 L124.5,246.6 L134.6,246.2 L144.7,246.3 L154.8,246.3 L164.9,246.3 L175.0,246.3 L185.1,246.3 L195.2,246.3 L205.3,246.3 L215.4,246.3 L225.5,246.3 L235.5,246.3 L245.6,251.7 L255.7,251.7 L265.8,251.7 L275.9,251.7 L286.0,251.7 L296.1,251.7 L306.2,251.7 L316.3,251.7 L326.4,251.7 L336.5,251.6 L346.5,251.6 L356.6,251.6 L366.7,251.6 L376.8,251.6 L386.9,251.6 L397.0,251.6 L407.1,251.6 L417.2,251.5 L427.3,251.5 L437.4,251.5 L447.5,251.5 L457.5,251.5 L467.6,251.5 L477.7,251.5 L487.8,251.5 L497.9,251.5 L508.0,251.5 L518.1,251.5 L528.2,251.5 L538.3,251.5 L548.4,251.5 L558.5,251.5 L568.5,251.6 L578.6,251.6 L588.7,251.6 L598.8,251.6 L608.9,251.9 L619.0,251.9 L629.1,251.9 L639.2,252.5 L649.3,252.5 L659.4,252.5 L669.5,252.5 L679.5,252.5 L689.6,252.5 L699.7,252.5 L709.8,252.5 L719.9,252.5 L730.0,252.5" fill="none" stroke="#1baf7a" stroke-width="2" stroke-linejoin="round" stroke-linecap="round"/>
<circle cx="730.0" cy="252.5" r="6" fill="#fcfcfb"/>
<circle cx="730.0" cy="252.5" r="4" fill="#1baf7a"/>
<path d="M84.2,97.2 L94.3,97.2 L104.4,97.2 L114.5,138.2 L124.5,138.2 L134.6,137.8 L144.7,137.8 L154.8,137.8 L164.9,137.9 L175.0,137.8 L185.1,137.9 L195.2,137.8 L205.3,137.8 L215.4,137.8 L225.5,137.8 L235.5,137.8 L245.6,142.4 L255.7,142.4 L265.8,142.4 L275.9,142.4 L286.0,142.4 L296.1,142.4 L306.2,142.4 L316.3,142.4 L326.4,142.4 L336.5,142.4 L346.5,142.4 L356.6,142.4 L366.7,142.4 L376.8,142.4 L386.9,142.3 L397.0,142.4 L407.1,142.3 L417.2,142.3 L427.3,142.3 L437.4,142.3 L447.5,142.3 L457.5,142.3 L467.6,142.3 L477.7,142.3 L487.8,142.3 L497.9,142.3 L508.0,142.3 L518.1,142.3 L528.2,142.3 L538.3,142.3 L548.4,142.3 L558.5,142.3 L568.5,142.3 L578.6,142.3 L588.7,142.3 L598.8,142.3 L608.9,142.6 L619.0,142.6 L629.1,142.7 L639.2,143.3 L649.3,143.3 L659.4,143.3 L669.5,143.3 L679.5,143.3 L689.6,143.3 L699.7,143.3 L709.8,143.3 L719.9,143.3 L730.0,143.3" fill="none" stroke="#eda100" stroke-width="2" stroke-linejoin="round" stroke-linecap="round"/>
<circle cx="730.0" cy="143.3" r="6" fill="#fcfcfb"/>
<circle cx="730.0" cy="143.3" r="4" fill="#eda100"/>
<path d="M64.0,195.3 L74.1,195.3 L84.2,195.4 L94.3,195.4 L104.4,195.4 L114.5,204.2 L124.5,204.1 L134.6,203.8 L144.7,203.8 L154.8,203.8 L164.9,203.9 L175.0,203.8 L185.1,203.8 L195.2,203.8 L205.3,203.8 L215.4,203.8 L225.5,203.8 L235.5,203.8 L245.6,208.4 L255.7,208.4 L265.8,208.4 L275.9,208.4 L286.0,208.4 L296.1,208.4 L306.2,208.4 L316.3,208.4 L326.4,208.5 L336.5,208.3 L346.5,208.3 L356.6,208.3 L366.7,208.3 L376.8,208.3 L386.9,208.3 L397.0,208.4 L407.1,208.4 L417.2,208.2 L427.3,208.2 L437.4,208.2 L447.5,208.2 L457.5,208.2 L467.6,208.2 L477.7,208.2 L487.8,208.2 L497.9,208.2 L508.0,208.2 L518.1,208.2 L528.2,208.2 L538.3,208.2 L548.4,208.2 L558.5,208.2 L568.5,208.4 L578.6,208.3 L588.7,208.3 L598.8,208.3 L608.9,208.6 L619.0,208.6 L629.1,208.6 L639.2,209.2 L649.3,209.2 L659.4,209.2 L669.5,209.2 L679.5,209.2 L689.6,209.2 L699.7,209.2 L709.8,209.2 L719.9,209.2 L730.0,209.2" fill="none" stroke="#008300" stroke-width="2" stroke-linejoin="round" stroke-linecap="round"/>
<circle cx="730.0" cy="209.2" r="6" fill="#fcfcfb"/>
<circle cx="730.0" cy="209.2" r="4" fill="#008300"/>
<path d="M578.6,229.0 L588.7,229.0 L598.8,229.1 L608.9,229.3 L619.0,229.3 L629.1,229.3 L639.2,229.9 L649.3,229.9 L659.4,229.9 L669.5,229.9 L679.5,229.9 L689.6,229.9 L699.7,229.9 L709.8,229.9 L719.9,229.9 L730.0,229.9" fill="none" stroke="#4a3aa7" stroke-width="2" stroke-linejoin="round" stroke-linecap="round"/>
<circle cx="730.0" cy="229.9" r="6" fill="#fcfcfb"/>
<circle cx="730.0" cy="229.9" r="4" fill="#4a3aa7"/>
<path d="M64.0,262.8 L74.1,262.8 L84.2,262.8 L94.3,262.8 L104.4,263.0 L114.5,263.2 L124.5,263.0 L134.6,262.4 L144.7,262.5 L154.8,262.4 L164.9,262.5 L175.0,262.5 L185.1,262.5 L195.2,262.5 L205.3,262.5 L215.4,262.5 L225.5,262.5 L235.5,262.5 L245.6,261.7 L255.7,261.7 L265.8,261.6 L275.9,261.4 L286.0,261.4 L296.1,261.4 L306.2,261.4 L316.3,261.4 L326.4,261.4 L336.5,261.3 L346.5,261.3 L356.6,261.3 L366.7,261.3 L376.8,261.3 L386.9,261.2 L397.0,261.3 L407.1,261.3 L417.2,261.0 L427.3,261.0 L437.4,261.1 L447.5,261.1 L457.5,261.1 L467.6,261.1 L477.7,261.1 L487.8,261.1 L497.9,261.1 L508.0,261.1 L518.1,261.1 L528.2,261.1 L538.3,261.1 L548.4,261.1 L558.5,261.1 L568.5,261.3 L578.6,261.2 L588.7,261.2 L598.8,261.3 L608.9,261.7 L619.0,261.8 L629.1,261.8 L639.2,263.1 L649.3,263.1 L659.4,263.1 L669.5,263.1 L679.5,263.1 L689.6,263.1 L699.7,263.0 L709.8,263.0 L719.9,263.0 L730.0,263.0" fill="none" stroke="#e34948" stroke-width="2" stroke-linejoin="round" stroke-linecap="round"/>
<circle cx="730.0" cy="263.0" r="6" fill="#fcfcfb"/>
<circle cx="730.0" cy="263.0" r="4" fill="#e34948"/>
<circle cx="745.0" cy="60.9" r="3.5" fill="#2a78d6"/>
<text x="753.0" y="64.4" font-family='system-ui, -apple-system, "Segoe UI", sans-serif' font-size="11" fill="#0b0b0b">granulator</text>
<text x="753.0" y="76.4" font-family='system-ui, -apple-system, "Segoe UI", sans-serif' font-size="10" style="font-variant-numeric: tabular-nums" fill="#52514e">27.5M</text>
<circle cx="745.0" cy="139.8" r="3.5" fill="#eda100"/>
<text x="753.0" y="143.3" font-family='system-ui, -apple-system, "Segoe UI", sans-serif' font-size="11" fill="#0b0b0b">resonator</text>
<text x="753.0" y="155.3" font-family='system-ui, -apple-system, "Segoe UI", sans-serif' font-size="10" style="font-variant-numeric: tabular-nums" fill="#52514e">18.5M</text>
<circle cx="745.0" cy="205.7" r="3.5" fill="#008300"/>
<text x="753.0" y="209.2" font-family='system-ui, -apple-system, "Segoe UI", sans-serif' font-size="11" fill="#0b0b0b">reverb</text>
<text x="753.0" y="221.2" font-family='system-ui, -apple-system, "Segoe UI", sans-serif' font-size="10" style="font-variant-numeric: tabular-nums" fill="#52514e">11.0M</text>
<line x1="736.0" y1="229.9" x2="740.0" y2="237.2" stroke="#c3c2b7" stroke-width="1"/>
<circle cx="745.0" cy="233.7" r="3.5" fill="#4a3aa7"/>
<text x="753.0" y="237.2" font-family='system-ui, -apple-system, "Segoe UI", sans-serif' font-size="11" fill="#0b0b0b">saturator</text>
<text x="753.0" y="249.2" font-family='system-ui, -apple-system, "Segoe UI", sans-serif' font-size="10" style="font-variant-numeric: tabular-nums" fill="#52514e">8.66M</text>
<line x1="736.0" y1="252.5" x2="740.0" y2="265.2" stroke="#c3c2b7" stroke-width="1"/>
<circle cx="745.0" cy="261.7" r="3.5" fill="#1baf7a"/>
<text x="753.0" y="265.2" font-family='system-ui, -apple-system, "Segoe UI", sans-serif' font-size="11" fill="#0b0b0b">pan</text>
<text x="753.0" y="277.2" font-family='system-ui, -apple-system, "Segoe UI", sans-serif' font-size="10" style="font-variant-numeric: tabular-nums" fill="#52514e">6.09M</text>
<line x1="736.0" y1="263.0" x2="740.0" y2="293.2" stroke="#c3c2b7" stroke-width="1"/>
<circle cx="745.0" cy="289.7" r="3.5" fill="#e34948"/>
<text x="753.0" y="293.2" font-family='system-ui, -apple-system, "Segoe UI", sans-serif' font-size="11" fill="#0b0b0b">sequencer</text>
<text x="753.0" y="305.2" font-family='system-ui, -apple-system, "Segoe UI", sans-serif' font-size="10" style="font-variant-numeric: tabular-nums" fill="#52514e">4.89M</text>
</svg>