<svg xmlns="http://www.w3.org/2000/svg" width="880" height="340" viewBox="0 0 880 340" role="img" aria-label="Heaviest operators (micro)">
<rect width="880" height="340" rx="6" fill="#fcfcfb"/>
<text x="64" y="24" font-family='system-ui, -apple-system, "Segoe UI", sans-serif' font-size="14" font-weight="600" fill="#0b0b0b">Heaviest operators (micro)</text>
<text x="64" y="41" font-family='system-ui, -apple-system, "Segoe UI", sans-serif' font-size="11" fill="#52514e">per-operator step_node cost over the same 1 s schedule - top 6 by latest Ir</text>
<line x1="64" y1="306.0" x2="730" y2="306.0" stroke="#e1e0d9" stroke-width="1"/>
<text x="56" y="309.5" text-anchor="end" font-family='system-ui, -apple-system, "Segoe UI", sans-serif' font-size="11" style="font-variant-numeric: tabular-nums" fill="#898781">0</text>
<line x1="64" y1="215.1" x2="730" y2="215.1" stroke="#e1e0d9" stroke-width="1"/>
<text x="56" y="218.6" text-anchor="end" font-family='system-ui, -apple-system, "Segoe UI", sans-serif' font-size="11" style="font-variant-numeric: tabular-nums" fill="#898781">10</text>
<line x1="64" y1="124.2" x2="730" y2="124.2" stroke="#e1e0d9" stroke-width="1"/>
<text x="56" y="127.7" text-anchor="end" font-family='system-ui, -apple-system, "Segoe UI", sans-serif' font-size="11" style="font-variant-numeric: tabular-nums" fill="#898781">20</text>
<text x="56" y="46" text-anchor="end" font-family='system-ui, -apple-system, "Segoe UI", sans-serif' font-size="10" fill="#898781">Ir (M)</text>
<line x1="64" y1="306" x2="730" y2="306" stroke="#c3c2b7" stroke-width="1"/>
<text x="64.0" y="322" text-anchor="middle" font-family='system-ui, -apple-system, "Segoe UI", sans-serif' font-size="11" style="font-variant-numeric: tabular-nums" fill="#898781">07-12</text>
<text x="188.9" y="322" text-anchor="middle" font-family='system-ui, -apple-system, "Segoe UI", sans-serif' font-size="11" style="font-variant-numeric: tabular-nums" fill="#898781">07-13</text>
<text x="209.7" y="322" text-anchor="middle" font-family='system-ui, -apple-system, "Segoe UI", sans-serif' font-size="11" style="font-variant-numeric: tabular-nums" fill="#898781">07-14</text>
<text x="230.5" y="322" text-anchor="middle" font-family='system-ui, -apple-system, "Segoe UI", sans-serif' font-size="11" style="font-variant-numeric: tabular-nums" fill="#898781">07-16</text>
<text x="397.0" y="322" text-anchor="middle" font-family='system-ui, -apple-system, "Segoe UI", sans-serif' font-size="11" style="font-variant-numeric: tabular-nums" fill="#898781">07-17</text>
<text x="521.9" y="322" text-anchor="middle" font-family='system-ui, -apple-system, "Segoe UI", sans-serif' font-size="11" style="font-variant-numeric: tabular-nums" fill="#898781">07-18</text>
<text x="646.8" y="322" text-anchor="middle" font-family='system-ui, -apple-system, "Segoe UI", sans-serif' font-size="11" style="font-variant-numeric: tabular-nums" fill="#898781">07-19</text>
<text x="709.2" y="322" text-anchor="middle" font-family='system-ui, -apple-system, "Segoe UI", sans-serif' font-size="11" style="font-variant-numeric: tabular-nums" fill="#898781">07-20</text>
<path d="M709.2,217.9 L730.0,217.9" fill="none" stroke="#2a78d6" stroke-width="2" stroke-linejoin="round" stroke-linecap="round"/>
<circle cx="730.0" cy="217.9" r="6" fill="#fcfcfb"/>
<circle cx="730.0" cy="217.9" r="4" fill="#2a78d6"/>
<path d="M64.0,56.0 L84.8,56.0 L105.6,56.0 L126.4,56.0 L147.2,56.0 L168.1,56.0 L188.9,56.0 L209.7,56.0 L230.5,56.0 L251.3,56.0 L272.1,56.0 L292.9,56.0 L313.8,56.0 L334.6,56.0 L355.4,56.0 L376.2,56.0 L397.0,56.0 L417.8,56.0 L438.6,56.0 L459.4,56.0 L480.2,56.0 L501.1,56.0 L521.9,56.0 L542.7,56.0 L563.5,56.0 L584.3,56.0 L605.1,56.0 L625.9,56.0 L646.8,56.0 L667.6,56.0 L688.4,56.0 L709.2,56.0 L730.0,56.0" fill="none" stroke="#1baf7a" stroke-width="2" stroke-linejoin="round" stroke-linecap="round"/>
<circle cx="730.0" cy="56.0" r="6" fill="#fcfcfb"/>
<circle cx="730.0" cy="56.0" r="4" fill="#1baf7a"/>
<path d="M64.0,250.6 L84.8,250.6 L105.6,250.6 L126.4,250.6 L147.2,250.6 L168.1,250.6 L188.9,250.6 L209.7,250.6 L230.5,250.6 L251.3,250.6 L272.1,250.6 L292.9,250.6 L313.8,250.6 L334.6,250.6 L355.4,250.6 L376.2,250.6 L397.0,250.6 L417.8,250.6 L438.6,250.6 L459.4,250.6 L480.2,250.6 L501.1,250.6 L521.9,250.6 L542.7,250.6 L563.5,250.6 L584.3,250.6 L605.1,250.6 L625.9,250.6 L646.8,250.6 L667.6,250.6 L688.4,250.6 L709.2,250.6 L730.0,250.6" fill="none" stroke="#eda100" stroke-width="2" stroke-linejoin="round" stroke-linecap="round"/>
<circle cx="730.0" cy="250.6" r="6" fill="#fcfcfb"/>
<circle cx="730.0" cy="250.6" r="4" fill="#eda100"/>
<path d="M64.0,137.6 L84.8,137.6 L105.6,137.6 L126.4,137.6 L147.2,137.6 L168.1,137.6 L188.9,138.4 L209.7,138.4 L230.5,138.4 L251.3,138.4 L272.1,138.4 L292.9,138.4 L313.8,138.4 L334.6,138.4 L355.4,138.4 L376.2,138.4 L397.0,138.4 L417.8,138.4 L438.6,138.4 L459.4,138.4 L480.2,138.4 L501.1,138.4 L521.9,138.4 L542.7,138.4 L563.5,138.4 L584.3,138.4 L605.1,138.4 L625.9,138.4 L646.8,138.4 L667.6,138.4 L688.4,138.4 L709.2,138.4 L730.0,138.4" fill="none" stroke="#008300" stroke-width="2" stroke-linejoin="round" stroke-linecap="round"/>
<circle cx="730.0" cy="138.4" r="6" fill="#fcfcfb"/>
<circle cx="730.0" cy="138.4" r="4" fill="#008300"/>
<path d="M64.0,205.9 L84.8,205.9 L105.6,205.9 L126.4,205.9 L147.2,205.9 L168.1,205.9 L188.9,205.9 L209.7,205.9 L230.5,205.9 L251.3,205.9 L272.1,205.9 L292.9,205.9 L313.8,205.9 L334.6,205.9 L355.4,205.9 L376.2,205.9 L397.0,205.9 L417.8,205.9 L438.6,205.9 L459.4,205.9 L480.2,205.9 L501.1,205.9 L521.9,205.9 L542.7,205.9 L563.5,205.9 L584.3,205.9 L605.1,205.9 L625.9,205.9 L646.8,205.9 L667.6,205.9 L688.4,205.9 L709.2,205.9 L730.0,205.9" fill="none" stroke="#4a3aa7" stroke-width="2" stroke-linejoin="round" stroke-linecap="round"/>
<circle cx="730.0" cy="205.9" r="6" fill="#fcfcfb"/>
<circle cx="730.0" cy="205.9" r="4" fill="#4a3aa7"/>
<path d="M64.0,227.3 L84.8,227.3 L105.6,227.3 L126.4,227.3 L147.2,227.3 L168.1,227.3 L188.9,227.3 L209.7,227.3 L230.5,227.3 L251.3,227.3 L272.1,227.3 L292.9,227.3 L313.8,227.3 L334.6,227.3 L355.4,227.3 L376.2,227.3 L397.0,227.3 L417.8,227.3 L438.6,227.3 L459.4,227.3 L480.2,227.3 L501.1,227.3 L521.9,227.3 L542.7,227.3 L563.5,227.3 L584.3,227.3 L605.1,227.3 L625.9,227.3 L646.8,227.3 L667.6,227.3 L688.4,227.3 L709.2,227.3 L730.0,227.3" fill="none" stroke="#e34948" stroke-width="2" stroke-linejoin="round" stroke-linecap="round"/>
<circle cx="730.0" cy="227.3" r="6" fill="#fcfcfb"/>
<circle cx="730.0" cy="227.3" r="4" fill="#e34948"/>
<circle cx="745.0" cy="52.5" r="3.5" fill="#1baf7a"/>
<text x="753.0" y="56.0" font-family='system-ui, -apple-system, "Segoe UI", sans-serif' font-size="11" fill="#0b0b0b">granulator</text>
<text x="753.0" y="68.0" font-family='system-ui, -apple-system, "Segoe UI", sans-serif' font-size="10" style="font-variant-numeric: tabular-nums" fill="#52514e">27.5M</text>
<circle cx="745.0" cy="134.9" r="3.5" fill="#008300"/>
<text x="753.0" y="138.4" font-family='system-ui, -apple-system, "Segoe UI", sans-serif' font-size="11" fill="#0b0b0b">resonator</text>
<text x="753.0" y="150.4" font-family='system-ui, -apple-system, "Segoe UI", sans-serif' font-size="10" style="font-variant-numeric: tabular-nums" fill="#52514e">18.4M</text>
<circle cx="745.0" cy="202.4" r="3.5" fill="#4a3aa7"/>
<text x="753.0" y="205.9" font-family='system-ui, -apple-system, "Segoe UI", sans-serif' font-size="11" fill="#0b0b0b">reverb</text>
<text x="753.0" y="217.9" font-family='system-ui, -apple-system, "Segoe UI", sans-serif' font-size="10" style="font-variant-numeric: tabular-nums" fill="#52514e">11.0M</text>
<line x1="736.0" y1="217.9" x2="740.0" y2="233.9" stroke="#c3c2b7" stroke-width="1"/>
<circle cx="745.0" cy="230.4" r="3.5" fill="#2a78d6"/>
<text x="753.0" y="233.9" font-family='system-ui, -apple-system, "Segoe UI", sans-serif' font-size="11" fill="#0b0b0b">compressor</text>
<text x="753.0" y="245.9" font-family='system-ui, -apple-system, "Segoe UI", sans-serif' font-size="10" style="font-variant-numeric: tabular-nums" fill="#52514e">9.69M</text>
<line x1="736.0" y1="227.3" x2="740.0" y2="261.9" stroke="#c3c2b7" stroke-width="1"/>
<circle cx="745.0" cy="258.4" r="3.5" fill="#e34948"/>
<text x="753.0" y="261.9" font-family='system-ui, -apple-system, "Segoe UI", sans-serif' font-size="11" fill="#0b0b0b">saturator</text>
<text x="753.0" y="273.9" font-family='system-ui, -apple-system, "Segoe UI", sans-serif' font-size="10" style="font-variant-numeric: tabular-nums" fill="#52514e">8.65M</text>
<line x1="736.0" y1="250.6" x2="740.0" y2="289.9" stroke="#c3c2b7" stroke-width="1"/>
<circle cx="745.0" cy="286.4" r="3.5" fill="#eda100"/>
<text x="753.0" y="289.9" font-family='system-ui, -apple-system, "Segoe UI", sans-serif' font-size="11" fill="#0b0b0b">pan</text>
<text x="753.0" y="301.9" font-family='system-ui, -apple-system, "Segoe UI", sans-serif' font-size="10" style="font-variant-numeric: tabular-nums" fill="#52514e">6.09M</text>
</svg>