<svg xmlns="http://www.w3.org/2000/svg" width="880" height="340" viewBox="0 0 880 340" role="img" aria-label="Heaviest operators (micro)">
<rect width="880" height="340" rx="6" fill="#1a1a19"/>
<text x="64" y="24" font-family='system-ui, -apple-system, "Segoe UI", sans-serif' font-size="14" font-weight="600" fill="#ffffff">Heaviest operators (micro)</text>
<text x="64" y="41" font-family='system-ui, -apple-system, "Segoe UI", sans-serif' font-size="11" fill="#c3c2b7">per-operator step_node cost over the same 1 s schedule - top 6 by latest Ir</text>
<line x1="64" y1="306.0" x2="730" y2="306.0" stroke="#2c2c2a" stroke-width="1"/>
<text x="56" y="309.5" text-anchor="end" font-family='system-ui, -apple-system, "Segoe UI", sans-serif' font-size="11" style="font-variant-numeric: tabular-nums" fill="#898781">0</text>
<line x1="64" y1="218.1" x2="730" y2="218.1" stroke="#2c2c2a" stroke-width="1"/>
<text x="56" y="221.6" text-anchor="end" font-family='system-ui, -apple-system, "Segoe UI", sans-serif' font-size="11" style="font-variant-numeric: tabular-nums" fill="#898781">10</text>
<line x1="64" y1="130.3" x2="730" y2="130.3" stroke="#2c2c2a" stroke-width="1"/>
<text x="56" y="133.8" text-anchor="end" font-family='system-ui, -apple-system, "Segoe UI", sans-serif' font-size="11" style="font-variant-numeric: tabular-nums" fill="#898781">20</text>
<text x="56" y="46" text-anchor="end" font-family='system-ui, -apple-system, "Segoe UI", sans-serif' font-size="10" fill="#898781">Ir (M)</text>
<line x1="64" y1="306" x2="730" y2="306" stroke="#383835" stroke-width="1"/>
<text x="64.0" y="322" text-anchor="middle" font-family='system-ui, -apple-system, "Segoe UI", sans-serif' font-size="11" style="font-variant-numeric: tabular-nums" fill="#898781">06-28</text>
<text x="154.8" y="322" text-anchor="middle" font-family='system-ui, -apple-system, "Segoe UI", sans-serif' font-size="11" style="font-variant-numeric: tabular-nums" fill="#898781">06-30</text>
<text x="230.5" y="322" text-anchor="middle" font-family='system-ui, -apple-system, "Segoe UI", sans-serif' font-size="11" style="font-variant-numeric: tabular-nums" fill="#898781">07-02</text>
<text x="397.0" y="322" text-anchor="middle" font-family='system-ui, -apple-system, "Segoe UI", sans-serif' font-size="11" style="font-variant-numeric: tabular-nums" fill="#898781">07-04</text>
<text x="639.2" y="322" text-anchor="middle" font-family='system-ui, -apple-system, "Segoe UI", sans-serif' font-size="11" style="font-variant-numeric: tabular-nums" fill="#898781">07-07</text>
<path d="M170.0,56.2 L185.1,56.2 L200.2,56.1 L215.4,61.2 L230.5,56.2 L245.6,56.2 L260.8,56.2 L275.9,56.2 L291.0,56.2 L306.2,56.2 L321.3,56.2 L336.5,56.2 L351.6,56.2 L366.7,56.2 L381.9,56.2 L397.0,56.2 L412.1,56.2 L427.3,56.2 L442.4,56.2 L457.5,60.8 L472.7,56.1 L487.8,56.1 L503.0,56.1 L518.1,56.1 L533.2,56.1 L548.4,60.6 L563.5,60.6 L578.6,56.1 L593.8,56.0 L608.9,56.0 L624.0,56.0 L639.2,56.0 L654.3,56.0 L669.5,56.0 L684.6,56.0 L699.7,56.0 L714.9,56.0 L730.0,56.0" fill="none" stroke="#3987e5" stroke-width="2" stroke-linejoin="round" stroke-linecap="round"/>
<circle cx="730.0" cy="56.0" r="6" fill="#1a1a19"/>
<circle cx="730.0" cy="56.0" r="4" fill="#3987e5"/>
<path d="M64.0,264.6 L79.1,264.6 L94.3,264.6 L109.4,264.6 L124.5,264.6 L139.7,266.2 L154.8,265.8 L170.0,265.4 L185.1,265.5 L200.2,265.4 L215.4,265.4 L230.5,265.5 L245.6,265.4 L260.8,265.5 L275.9,265.5 L291.0,265.5 L306.2,265.5 L321.3,265.5 L336.5,265.0 L351.6,265.0 L366.7,265.0 L381.9,265.0 L397.0,265.0 L412.1,265.0 L427.3,265.0 L442.4,265.0 L457.5,265.0 L472.7,264.9 L487.8,264.9 L503.0,264.9 L518.1,264.9 L533.2,264.9 L548.4,264.9 L563.5,264.9 L578.6,264.9 L593.8,264.8 L608.9,264.8 L624.0,264.8 L639.2,264.8 L654.3,264.8 L669.5,264.8 L684.6,264.8 L699.7,264.8 L714.9,264.8 L730.0,264.8" fill="none" stroke="#199e70" stroke-width="2" stroke-linejoin="round" stroke-linecap="round"/>
<circle cx="730.0" cy="264.8" r="6" fill="#1a1a19"/>
<circle cx="730.0" cy="264.8" r="4" fill="#199e70"/>
<path d="M64.0,246.7 L79.1,246.7 L94.3,246.7 L109.4,246.7 L124.5,246.7 L139.7,246.6 L154.8,246.6 L170.0,246.2 L185.1,246.3 L200.2,246.3 L215.4,246.3 L230.5,246.3 L245.6,246.3 L260.8,246.3 L275.9,246.3 L291.0,246.3 L306.2,246.3 L321.3,246.3 L336.5,251.7 L351.6,251.7 L366.7,251.7 L381.9,251.7 L397.0,251.7 L412.1,251.7 L427.3,251.7 L442.4,251.7 L457.5,251.7 L472.7,251.6 L487.8,251.6 L503.0,251.6 L518.1,251.6 L533.2,251.6 L548.4,251.6 L563.5,251.6 L578.6,251.6 L593.8,251.5 L608.9,251.5 L624.0,251.5 L639.2,251.5 L654.3,251.5 L669.5,251.5 L684.6,251.5 L699.7,251.5 L714.9,251.5 L730.0,251.5" fill="none" stroke="#c98500" stroke-width="2" stroke-linejoin="round" stroke-linecap="round"/>
<circle cx="730.0" cy="251.5" r="6" fill="#1a1a19"/>
<circle cx="730.0" cy="251.5" r="4" fill="#c98500"/>
<path d="M94.3,97.2 L109.4,97.2 L124.5,97.2 L139.7,138.2 L154.8,138.2 L170.0,137.8 L185.1,137.8 L200.2,137.8 L215.4,137.9 L230.5,137.8 L245.6,137.9 L260.8,137.8 L275.9,137.8 L291.0,137.8 L306.2,137.8 L321.3,137.8 L336.5,142.4 L351.6,142.4 L366.7,142.4 L381.9,142.4 L397.0,142.4 L412.1,142.4 L427.3,142.4 L442.4,142.4 L457.5,142.4 L472.7,142.4 L487.8,142.4 L503.0,142.4 L518.1,142.4 L533.2,142.4 L548.4,142.3 L563.5,142.4 L578.6,142.3 L593.8,142.3 L608.9,142.3 L624.0,142.3 L639.2,142.3 L654.3,142.3 L669.5,142.3 L684.6,142.3 L699.7,142.3 L714.9,142.3 L730.0,142.3" fill="none" stroke="#008300" stroke-width="2" stroke-linejoin="round" stroke-linecap="round"/>
<circle cx="730.0" cy="142.3" r="6" fill="#1a1a19"/>
<circle cx="730.0" cy="142.3" r="4" fill="#008300"/>
<path d="M64.0,195.3 L79.1,195.3 L94.3,195.4 L109.4,195.4 L124.5,195.4 L139.7,204.2 L154.8,204.1 L170.0,203.8 L185.1,203.8 L200.2,203.8 L215.4,203.9 L230.5,203.8 L245.6,203.8 L260.8,203.8 L275.9,203.8 L291.0,203.8 L306.2,203.8 L321.3,203.8 L336.5,208.4 L351.6,208.4 L366.7,208.4 L381.9,208.4 L397.0,208.4 L412.1,208.4 L427.3,208.4 L442.4,208.4 L457.5,208.5 L472.7,208.3 L487.8,208.3 L503.0,208.3 L518.1,208.3 L533.2,208.3 L548.4,208.3 L563.5,208.4 L578.6,208.4 L593.8,208.2 L608.9,208.2 L624.0,208.2 L639.2,208.2 L654.3,208.2 L669.5,208.2 L684.6,208.2 L699.7,208.2 L714.9,208.2 L730.0,208.2" fill="none" stroke="#9085e9" stroke-width="2" stroke-linejoin="round" stroke-linecap="round"/>
<circle cx="730.0" cy="208.2" r="6" fill="#1a1a19"/>
<circle cx="730.0" cy="208.2" r="4" fill="#9085e9"/>
<path d="M64.0,262.8 L79.1,262.8 L94.3,262.8 L109.4,262.8 L124.5,263.0 L139.7,263.2 L154.8,263.0 L170.0,262.4 L185.1,262.5 L200.2,262.4 L215.4,262.5 L230.5,262.5 L245.6,262.5 L260.8,262.5 L275.9,262.5 L291.0,262.5 L306.2,262.5 L321.3,262.5 L336.5,261.7 L351.6,261.7 L366.7,261.6 L381.9,261.4 L397.0,261.4 L412.1,261.4 L427.3,261.4 L442.4,261.4 L457.5,261.4 L472.7,261.3 L487.8,261.3 L503.0,261.3 L518.1,261.3 L533.2,261.3 L548.4,261.2 L563.5,261.3 L578.6,261.3 L593.8,261.0 L608.9,261.0 L624.0,261.1 L639.2,261.1 L654.3,261.1 L669.5,261.1 L684.6,261.1 L699.7,261.1 L714.9,261.1 L730.0,261.1" fill="none" stroke="#e66767" stroke-width="2" stroke-linejoin="round" stroke-linecap="round"/>
<circle cx="730.0" cy="261.1" r="6" fill="#1a1a19"/>
<circle cx="730.0" cy="261.1" r="4" fill="#e66767"/>
<circle cx="745.0" cy="52.5" r="3.5" fill="#3987e5"/>
<text x="753.0" y="56.0" font-family='system-ui, -apple-system, "Segoe UI", sans-serif' font-size="11" fill="#ffffff">granulator</text>
<text x="753.0" y="68.0" font-family='system-ui, -apple-system, "Segoe UI", sans-serif' font-size="10" style="font-variant-numeric: tabular-nums" fill="#c3c2b7">28.5M</text>
<circle cx="745.0" cy="138.8" r="3.5" fill="#008300"/>
<text x="753.0" y="142.3" font-family='system-ui, -apple-system, "Segoe UI", sans-serif' font-size="11" fill="#ffffff">resonator</text>
<text x="753.0" y="154.3" font-family='system-ui, -apple-system, "Segoe UI", sans-serif' font-size="10" style="font-variant-numeric: tabular-nums" fill="#c3c2b7">18.6M</text>
<circle cx="745.0" cy="204.7" r="3.5" fill="#9085e9"/>
<text x="753.0" y="208.2" font-family='system-ui, -apple-system, "Segoe UI", sans-serif' font-size="11" fill="#ffffff">reverb</text>
<text x="753.0" y="220.2" font-family='system-ui, -apple-system, "Segoe UI", sans-serif' font-size="10" style="font-variant-numeric: tabular-nums" fill="#c3c2b7">11.1M</text>
<circle cx="745.0" cy="248.0" r="3.5" fill="#c98500"/>
<text x="753.0" y="251.5" font-family='system-ui, -apple-system, "Segoe UI", sans-serif' font-size="11" fill="#ffffff">pan</text>
<text x="753.0" y="263.5" font-family='system-ui, -apple-system, "Segoe UI", sans-serif' font-size="10" style="font-variant-numeric: tabular-nums" fill="#c3c2b7">6.20M</text>
<line x1="736.0" y1="261.1" x2="740.0" y2="279.5" stroke="#383835" stroke-width="1"/>
<circle cx="745.0" cy="276.0" r="3.5" fill="#e66767"/>
<text x="753.0" y="279.5" font-family='system-ui, -apple-system, "Segoe UI", sans-serif' font-size="11" fill="#ffffff">sequencer</text>
<text x="753.0" y="291.5" font-family='system-ui, -apple-system, "Segoe UI", sans-serif' font-size="10" style="font-variant-numeric: tabular-nums" fill="#c3c2b7">5.11M</text>
<line x1="736.0" y1="264.8" x2="740.0" y2="307.5" stroke="#383835" stroke-width="1"/>
<circle cx="745.0" cy="304.0" r="3.5" fill="#199e70"/>
<text x="753.0" y="307.5" font-family='system-ui, -apple-system, "Segoe UI", sans-serif' font-size="11" fill="#ffffff">map_f32_signal</text>
<text x="753.0" y="319.5" font-family='system-ui, -apple-system, "Segoe UI", sans-serif' font-size="10" style="font-variant-numeric: tabular-nums" fill="#c3c2b7">4.69M</text>
</svg>