<svg xmlns="http://www.w3.org/2000/svg" width="880" height="340" viewBox="0 0 880 340" role="img" aria-label="Heaviest operators (micro)">
<rect width="880" height="340" rx="6" fill="#1a1a19"/>
<text x="64" y="24" font-family='system-ui, -apple-system, "Segoe UI", sans-serif' font-size="14" font-weight="600" fill="#ffffff">Heaviest operators (micro)</text>
<text x="64" y="41" font-family='system-ui, -apple-system, "Segoe UI", sans-serif' font-size="11" fill="#c3c2b7">per-operator step_node cost over the same 1 s schedule - top 6 by latest Ir</text>
<line x1="64" y1="306.0" x2="730" y2="306.0" stroke="#2c2c2a" stroke-width="1"/>
<text x="56" y="309.5" text-anchor="end" font-family='system-ui, -apple-system, "Segoe UI", sans-serif' font-size="11" style="font-variant-numeric: tabular-nums" fill="#898781">0</text>
<line x1="64" y1="218.1" x2="730" y2="218.1" stroke="#2c2c2a" stroke-width="1"/>
<text x="56" y="221.6" text-anchor="end" font-family='system-ui, -apple-system, "Segoe UI", sans-serif' font-size="11" style="font-variant-numeric: tabular-nums" fill="#898781">10</text>
<line x1="64" y1="130.3" x2="730" y2="130.3" stroke="#2c2c2a" stroke-width="1"/>
<text x="56" y="133.8" text-anchor="end" font-family='system-ui, -apple-system, "Segoe UI", sans-serif' font-size="11" style="font-variant-numeric: tabular-nums" fill="#898781">20</text>
<text x="56" y="46" text-anchor="end" font-family='system-ui, -apple-system, "Segoe UI", sans-serif' font-size="10" fill="#898781">Ir (M)</text>
<line x1="64" y1="306" x2="730" y2="306" stroke="#383835" stroke-width="1"/>
<text x="64.0" y="322" text-anchor="middle" font-family='system-ui, -apple-system, "Segoe UI", sans-serif' font-size="11" style="font-variant-numeric: tabular-nums" fill="#898781">06-28</text>
<text x="118.0" y="322" text-anchor="middle" font-family='system-ui, -apple-system, "Segoe UI", sans-serif' font-size="11" style="font-variant-numeric: tabular-nums" fill="#898781">06-30</text>
<text x="163.0" y="322" text-anchor="middle" font-family='system-ui, -apple-system, "Segoe UI", sans-serif' font-size="11" style="font-variant-numeric: tabular-nums" fill="#898781">07-02</text>
<text x="262.0" y="322" text-anchor="middle" font-family='system-ui, -apple-system, "Segoe UI", sans-serif' font-size="11" style="font-variant-numeric: tabular-nums" fill="#898781">07-04</text>
<text x="406.0" y="322" text-anchor="middle" font-family='system-ui, -apple-system, "Segoe UI", sans-serif' font-size="11" style="font-variant-numeric: tabular-nums" fill="#898781">07-07</text>
<text x="496.0" y="322" text-anchor="middle" font-family='system-ui, -apple-system, "Segoe UI", sans-serif' font-size="11" style="font-variant-numeric: tabular-nums" fill="#898781">07-09</text>
<text x="568.0" y="322" text-anchor="middle" font-family='system-ui, -apple-system, "Segoe UI", sans-serif' font-size="11" style="font-variant-numeric: tabular-nums" fill="#898781">07-11</text>
<path d="M127.0,56.2 L136.0,56.2 L145.0,56.1 L154.0,61.2 L163.0,56.2 L172.0,56.2 L181.0,56.2 L190.0,56.2 L199.0,56.2 L208.0,56.2 L217.0,56.2 L226.0,56.2 L235.0,56.2 L244.0,56.2 L253.0,56.2 L262.0,56.2 L271.0,56.2 L280.0,56.2 L289.0,56.2 L298.0,60.8 L307.0,56.1 L316.0,56.1 L325.0,56.1 L334.0,56.1 L343.0,56.1 L352.0,60.6 L361.0,60.6 L370.0,56.1 L379.0,56.0 L388.0,56.0 L397.0,56.0 L406.0,56.0 L415.0,56.0 L424.0,56.0 L433.0,56.0 L442.0,56.0 L451.0,56.0 L460.0,56.0 L469.0,56.0 L478.0,56.0 L487.0,56.0 L496.0,56.0 L505.0,56.0 L514.0,61.0 L523.0,61.0 L532.0,61.0 L541.0,56.1 L550.0,61.3 L559.0,56.3 L568.0,56.4 L577.0,64.4 L586.0,64.4 L595.0,64.4 L604.0,64.4 L613.0,64.4 L622.0,64.4 L631.0,64.4 L640.0,64.4 L649.0,64.4 L658.0,64.4 L667.0,64.4 L676.0,64.4 L685.0,64.4 L694.0,64.4 L703.0,64.4 L712.0,64.4 L721.0,64.4 L730.0,64.4" fill="none" stroke="#3987e5" stroke-width="2" stroke-linejoin="round" stroke-linecap="round"/>
<circle cx="730.0" cy="64.4" r="6" fill="#1a1a19"/>
<circle cx="730.0" cy="64.4" r="4" fill="#3987e5"/>
<path d="M64.0,246.7 L73.0,246.7 L82.0,246.7 L91.0,246.7 L100.0,246.7 L109.0,246.6 L118.0,246.6 L127.0,246.2 L136.0,246.3 L145.0,246.3 L154.0,246.3 L163.0,246.3 L172.0,246.3 L181.0,246.3 L190.0,246.3 L199.0,246.3 L208.0,246.3 L217.0,246.3 L226.0,251.7 L235.0,251.7 L244.0,251.7 L253.0,251.7 L262.0,251.7 L271.0,251.7 L280.0,251.7 L289.0,251.7 L298.0,251.7 L307.0,251.6 L316.0,251.6 L325.0,251.6 L334.0,251.6 L343.0,251.6 L352.0,251.6 L361.0,251.6 L370.0,251.6 L379.0,251.5 L388.0,251.5 L397.0,251.5 L406.0,251.5 L415.0,251.5 L424.0,251.5 L433.0,251.5 L442.0,251.5 L451.0,251.5 L460.0,251.5 L469.0,251.5 L478.0,251.5 L487.0,251.5 L496.0,251.5 L505.0,251.5 L514.0,251.6 L523.0,251.6 L532.0,251.6 L541.0,251.6 L550.0,251.9 L559.0,251.9 L568.0,251.9 L577.0,252.5 L586.0,252.5 L595.0,252.5 L604.0,252.5 L613.0,252.5 L622.0,252.5 L631.0,252.5 L640.0,252.5 L649.0,252.5 L658.0,252.5 L667.0,252.5 L676.0,252.5 L685.0,252.5 L694.0,252.5 L703.0,252.5 L712.0,252.5 L721.0,252.5 L730.0,252.5" fill="none" stroke="#199e70" stroke-width="2" stroke-linejoin="round" stroke-linecap="round"/>
<circle cx="730.0" cy="252.5" r="6" fill="#1a1a19"/>
<circle cx="730.0" cy="252.5" r="4" fill="#199e70"/>
<path d="M82.0,97.2 L91.0,97.2 L100.0,97.2 L109.0,138.2 L118.0,138.2 L127.0,137.8 L136.0,137.8 L145.0,137.8 L154.0,137.9 L163.0,137.8 L172.0,137.9 L181.0,137.8 L190.0,137.8 L199.0,137.8 L208.0,137.8 L217.0,137.8 L226.0,142.4 L235.0,142.4 L244.0,142.4 L253.0,142.4 L262.0,142.4 L271.0,142.4 L280.0,142.4 L289.0,142.4 L298.0,142.4 L307.0,142.4 L316.0,142.4 L325.0,142.4 L334.0,142.4 L343.0,142.4 L352.0,142.3 L361.0,142.4 L370.0,142.3 L379.0,142.3 L388.0,142.3 L397.0,142.3 L406.0,142.3 L415.0,142.3 L424.0,142.3 L433.0,142.3 L442.0,142.3 L451.0,142.3 L460.0,142.3 L469.0,142.3 L478.0,142.3 L487.0,142.3 L496.0,142.3 L505.0,142.3 L514.0,142.3 L523.0,142.3 L532.0,142.3 L541.0,142.3 L550.0,142.6 L559.0,142.6 L568.0,142.7 L577.0,143.3 L586.0,143.3 L595.0,143.3 L604.0,143.3 L613.0,143.3 L622.0,143.3 L631.0,143.3 L640.0,143.3 L649.0,143.3 L658.0,143.3 L667.0,143.3 L676.0,143.3 L685.0,143.3 L694.0,143.3 L703.0,143.3 L712.0,143.3 L721.0,143.3 L730.0,143.3" fill="none" stroke="#c98500" stroke-width="2" stroke-linejoin="round" stroke-linecap="round"/>
<circle cx="730.0" cy="143.3" r="6" fill="#1a1a19"/>
<circle cx="730.0" cy="143.3" r="4" fill="#c98500"/>
<path d="M64.0,195.3 L73.0,195.3 L82.0,195.4 L91.0,195.4 L100.0,195.4 L109.0,204.2 L118.0,204.1 L127.0,203.8 L136.0,203.8 L145.0,203.8 L154.0,203.9 L163.0,203.8 L172.0,203.8 L181.0,203.8 L190.0,203.8 L199.0,203.8 L208.0,203.8 L217.0,203.8 L226.0,208.4 L235.0,208.4 L244.0,208.4 L253.0,208.4 L262.0,208.4 L271.0,208.4 L280.0,208.4 L289.0,208.4 L298.0,208.5 L307.0,208.3 L316.0,208.3 L325.0,208.3 L334.0,208.3 L343.0,208.3 L352.0,208.3 L361.0,208.4 L370.0,208.4 L379.0,208.2 L388.0,208.2 L397.0,208.2 L406.0,208.2 L415.0,208.2 L424.0,208.2 L433.0,208.2 L442.0,208.2 L451.0,208.2 L460.0,208.2 L469.0,208.2 L478.0,208.2 L487.0,208.2 L496.0,208.2 L505.0,208.2 L514.0,208.4 L523.0,208.3 L532.0,208.3 L541.0,208.3 L550.0,208.6 L559.0,208.6 L568.0,208.6 L577.0,209.2 L586.0,209.2 L595.0,209.2 L604.0,209.2 L613.0,209.2 L622.0,209.2 L631.0,209.2 L640.0,209.2 L649.0,209.2 L658.0,209.2 L667.0,209.2 L676.0,209.2 L685.0,209.2 L694.0,209.2 L703.0,209.2 L712.0,209.2 L721.0,209.2 L730.0,209.2" fill="none" stroke="#008300" stroke-width="2" stroke-linejoin="round" stroke-linecap="round"/>
<circle cx="730.0" cy="209.2" r="6" fill="#1a1a19"/>
<circle cx="730.0" cy="209.2" r="4" fill="#008300"/>
<path d="M523.0,229.0 L532.0,229.0 L541.0,229.1 L550.0,229.3 L559.0,229.3 L568.0,229.3 L577.0,229.9 L586.0,229.9 L595.0,229.9 L604.0,229.9 L613.0,229.9 L622.0,229.9 L631.0,229.9 L640.0,229.9 L649.0,229.9 L658.0,229.9 L667.0,229.9 L676.0,229.9 L685.0,229.9 L694.0,229.9 L703.0,229.9 L712.0,229.9 L721.0,229.9 L730.0,229.9" fill="none" stroke="#9085e9" stroke-width="2" stroke-linejoin="round" stroke-linecap="round"/>
<circle cx="730.0" cy="229.9" r="6" fill="#1a1a19"/>
<circle cx="730.0" cy="229.9" r="4" fill="#9085e9"/>
<path d="M64.0,262.8 L73.0,262.8 L82.0,262.8 L91.0,262.8 L100.0,263.0 L109.0,263.2 L118.0,263.0 L127.0,262.4 L136.0,262.5 L145.0,262.4 L154.0,262.5 L163.0,262.5 L172.0,262.5 L181.0,262.5 L190.0,262.5 L199.0,262.5 L208.0,262.5 L217.0,262.5 L226.0,261.7 L235.0,261.7 L244.0,261.6 L253.0,261.4 L262.0,261.4 L271.0,261.4 L280.0,261.4 L289.0,261.4 L298.0,261.4 L307.0,261.3 L316.0,261.3 L325.0,261.3 L334.0,261.3 L343.0,261.3 L352.0,261.2 L361.0,261.3 L370.0,261.3 L379.0,261.0 L388.0,261.0 L397.0,261.1 L406.0,261.1 L415.0,261.1 L424.0,261.1 L433.0,261.1 L442.0,261.1 L451.0,261.1 L460.0,261.1 L469.0,261.1 L478.0,261.1 L487.0,261.1 L496.0,261.1 L505.0,261.1 L514.0,261.3 L523.0,261.2 L532.0,261.2 L541.0,261.3 L550.0,261.7 L559.0,261.8 L568.0,261.8 L577.0,263.1 L586.0,263.1 L595.0,263.1 L604.0,263.1 L613.0,263.1 L622.0,263.1 L631.0,263.0 L640.0,263.0 L649.0,263.0 L658.0,263.0 L667.0,263.0 L676.0,263.0 L685.0,263.0 L694.0,263.0 L703.0,263.0 L712.0,263.0 L721.0,263.0 L730.0,263.0" fill="none" stroke="#e66767" stroke-width="2" stroke-linejoin="round" stroke-linecap="round"/>
<circle cx="730.0" cy="263.0" r="6" fill="#1a1a19"/>
<circle cx="730.0" cy="263.0" r="4" fill="#e66767"/>
<circle cx="745.0" cy="60.9" r="3.5" fill="#3987e5"/>
<text x="753.0" y="64.4" font-family='system-ui, -apple-system, "Segoe UI", sans-serif' font-size="11" fill="#ffffff">granulator</text>
<text x="753.0" y="76.4" font-family='system-ui, -apple-system, "Segoe UI", sans-serif' font-size="10" style="font-variant-numeric: tabular-nums" fill="#c3c2b7">27.5M</text>
<circle cx="745.0" cy="139.8" r="3.5" fill="#c98500"/>
<text x="753.0" y="143.3" font-family='system-ui, -apple-system, "Segoe UI", sans-serif' font-size="11" fill="#ffffff">resonator</text>
<text x="753.0" y="155.3" font-family='system-ui, -apple-system, "Segoe UI", sans-serif' font-size="10" style="font-variant-numeric: tabular-nums" fill="#c3c2b7">18.5M</text>
<circle cx="745.0" cy="205.7" r="3.5" fill="#008300"/>
<text x="753.0" y="209.2" font-family='system-ui, -apple-system, "Segoe UI", sans-serif' font-size="11" fill="#ffffff">reverb</text>
<text x="753.0" y="221.2" font-family='system-ui, -apple-system, "Segoe UI", sans-serif' font-size="10" style="font-variant-numeric: tabular-nums" fill="#c3c2b7">11.0M</text>
<line x1="736.0" y1="229.9" x2="740.0" y2="237.2" stroke="#383835" stroke-width="1"/>
<circle cx="745.0" cy="233.7" r="3.5" fill="#9085e9"/>
<text x="753.0" y="237.2" font-family='system-ui, -apple-system, "Segoe UI", sans-serif' font-size="11" fill="#ffffff">saturator</text>
<text x="753.0" y="249.2" font-family='system-ui, -apple-system, "Segoe UI", sans-serif' font-size="10" style="font-variant-numeric: tabular-nums" fill="#c3c2b7">8.66M</text>
<line x1="736.0" y1="252.5" x2="740.0" y2="265.2" stroke="#383835" stroke-width="1"/>
<circle cx="745.0" cy="261.7" r="3.5" fill="#199e70"/>
<text x="753.0" y="265.2" font-family='system-ui, -apple-system, "Segoe UI", sans-serif' font-size="11" fill="#ffffff">pan</text>
<text x="753.0" y="277.2" font-family='system-ui, -apple-system, "Segoe UI", sans-serif' font-size="10" style="font-variant-numeric: tabular-nums" fill="#c3c2b7">6.09M</text>
<line x1="736.0" y1="263.0" x2="740.0" y2="293.2" stroke="#383835" stroke-width="1"/>
<circle cx="745.0" cy="289.7" r="3.5" fill="#e66767"/>
<text x="753.0" y="293.2" font-family='system-ui, -apple-system, "Segoe UI", sans-serif' font-size="11" fill="#ffffff">sequencer</text>
<text x="753.0" y="305.2" font-family='system-ui, -apple-system, "Segoe UI", sans-serif' font-size="10" style="font-variant-numeric: tabular-nums" fill="#c3c2b7">4.89M</text>
</svg>