<svg xmlns="http://www.w3.org/2000/svg" width="880" height="340" viewBox="0 0 880 340" role="img" aria-label="Heaviest operators (micro)">
<rect width="880" height="340" rx="6" fill="#1a1a19"/>
<text x="64" y="24" font-family='system-ui, -apple-system, "Segoe UI", sans-serif' font-size="14" font-weight="600" fill="#ffffff">Heaviest operators (micro)</text>
<text x="64" y="41" font-family='system-ui, -apple-system, "Segoe UI", sans-serif' font-size="11" fill="#c3c2b7">per-operator step_node cost over the same 1 s schedule - top 6 by latest Ir</text>
<line x1="64" y1="306.0" x2="730" y2="306.0" stroke="#2c2c2a" stroke-width="1"/>
<text x="56" y="309.5" text-anchor="end" font-family='system-ui, -apple-system, "Segoe UI", sans-serif' font-size="11" style="font-variant-numeric: tabular-nums" fill="#898781">0</text>
<line x1="64" y1="215.5" x2="730" y2="215.5" stroke="#2c2c2a" stroke-width="1"/>
<text x="56" y="219.0" text-anchor="end" font-family='system-ui, -apple-system, "Segoe UI", sans-serif' font-size="11" style="font-variant-numeric: tabular-nums" fill="#898781">10</text>
<line x1="64" y1="125.0" x2="730" y2="125.0" stroke="#2c2c2a" stroke-width="1"/>
<text x="56" y="128.5" text-anchor="end" font-family='system-ui, -apple-system, "Segoe UI", sans-serif' font-size="11" style="font-variant-numeric: tabular-nums" fill="#898781">20</text>
<text x="56" y="46" text-anchor="end" font-family='system-ui, -apple-system, "Segoe UI", sans-serif' font-size="10" fill="#898781">Ir (M)</text>
<line x1="64" y1="306" x2="730" y2="306" stroke="#383835" stroke-width="1"/>
<text x="64.0" y="322" text-anchor="middle" font-family='system-ui, -apple-system, "Segoe UI", sans-serif' font-size="11" style="font-variant-numeric: tabular-nums" fill="#898781">07-12</text>
<text x="135.7" y="322" text-anchor="middle" font-family='system-ui, -apple-system, "Segoe UI", sans-serif' font-size="11" style="font-variant-numeric: tabular-nums" fill="#898781">07-14</text>
<text x="227.9" y="322" text-anchor="middle" font-family='system-ui, -apple-system, "Segoe UI", sans-serif' font-size="11" style="font-variant-numeric: tabular-nums" fill="#898781">07-17</text>
<text x="350.9" y="322" text-anchor="middle" font-family='system-ui, -apple-system, "Segoe UI", sans-serif' font-size="11" style="font-variant-numeric: tabular-nums" fill="#898781">07-19</text>
<text x="535.3" y="322" text-anchor="middle" font-family='system-ui, -apple-system, "Segoe UI", sans-serif' font-size="11" style="font-variant-numeric: tabular-nums" fill="#898781">07-21</text>
<text x="730.0" y="322" text-anchor="middle" font-family='system-ui, -apple-system, "Segoe UI", sans-serif' font-size="11" style="font-variant-numeric: tabular-nums" fill="#898781">07-23</text>
<path d="M381.6,218.3 L391.9,218.3 L402.1,218.3 L412.4,218.3 L422.6,218.3 L432.9,218.3 L443.1,218.3 L453.4,218.3 L463.6,218.3 L473.8,218.3 L484.1,218.4 L494.3,218.4 L504.6,218.4 L514.8,218.4 L525.1,218.4 L535.3,218.4 L545.6,218.4 L555.8,218.4 L566.1,218.4 L576.3,218.4 L586.6,218.4 L596.8,218.4 L607.0,218.4 L617.3,218.4 L627.5,218.5 L637.8,218.5 L648.0,218.5 L658.3,218.5 L668.5,218.5 L678.8,218.5 L689.0,218.5 L699.3,218.5 L709.5,218.5 L719.8,218.5 L730.0,218.5" fill="none" stroke="#3987e5" stroke-width="2" stroke-linejoin="round" stroke-linecap="round"/>
<circle cx="730.0" cy="218.5" r="6" fill="#1a1a19"/>
<circle cx="730.0" cy="218.5" r="4" fill="#3987e5"/>
<path d="M64.0,57.2 L74.2,57.2 L84.5,57.2 L94.7,57.2 L105.0,57.2 L115.2,57.2 L125.5,57.2 L135.7,57.2 L146.0,57.2 L156.2,57.2 L166.5,57.2 L176.7,57.2 L187.0,57.2 L197.2,57.2 L207.4,57.2 L217.7,57.2 L227.9,57.2 L238.2,57.2 L248.4,57.2 L258.7,57.2 L268.9,57.2 L279.2,57.2 L289.4,57.2 L299.7,57.2 L309.9,57.2 L320.2,57.2 L330.4,57.2 L340.6,57.2 L350.9,57.2 L361.1,57.2 L371.4,57.2 L381.6,57.2 L391.9,57.2 L402.1,57.2 L412.4,57.2 L422.6,57.2 L432.9,57.2 L443.1,57.2 L453.4,57.2 L463.6,57.2 L473.8,57.2 L484.1,57.2 L494.3,57.2 L504.6,57.2 L514.8,57.2 L525.1,57.2 L535.3,57.2 L545.6,57.2 L555.8,57.2 L566.1,57.2 L576.3,57.2 L586.6,57.2 L596.8,57.2 L607.0,57.2 L617.3,57.2 L627.5,57.2 L637.8,56.0 L648.0,56.0 L658.3,56.0 L668.5,56.0 L678.8,56.0 L689.0,56.0 L699.3,56.0 L709.5,56.0 L719.8,56.0 L730.0,56.0" fill="none" stroke="#199e70" stroke-width="2" stroke-linejoin="round" stroke-linecap="round"/>
<circle cx="730.0" cy="56.0" r="6" fill="#1a1a19"/>
<circle cx="730.0" cy="56.0" r="4" fill="#199e70"/>
<path d="M64.0,250.9 L74.2,250.9 L84.5,250.9 L94.7,250.9 L105.0,250.9 L115.2,250.9 L125.5,250.9 L135.7,250.9 L146.0,250.9 L156.2,250.9 L166.5,250.9 L176.7,250.9 L187.0,250.9 L197.2,250.9 L207.4,250.9 L217.7,250.9 L227.9,250.9 L238.2,250.9 L248.4,250.9 L258.7,250.9 L268.9,250.9 L279.2,250.9 L289.4,250.9 L299.7,250.9 L309.9,250.9 L320.2,250.9 L330.4,250.9 L340.6,250.9 L350.9,250.9 L361.1,250.9 L371.4,250.9 L381.6,250.9 L391.9,250.9 L402.1,250.9 L412.4,250.9 L422.6,250.9 L432.9,250.9 L443.1,250.9 L453.4,250.9 L463.6,250.9 L473.8,250.9 L484.1,250.9 L494.3,250.9 L504.6,250.9 L514.8,250.9 L525.1,250.9 L535.3,250.9 L545.6,250.9 L555.8,250.9 L566.1,250.9 L576.3,250.9 L586.6,250.9 L596.8,250.9 L607.0,250.9 L617.3,250.9 L627.5,250.9 L637.8,251.0 L648.0,251.0 L658.3,251.0 L668.5,251.0 L678.8,251.0 L689.0,251.0 L699.3,251.0 L709.5,251.0 L719.8,251.0 L730.0,251.0" fill="none" stroke="#c98500" stroke-width="2" stroke-linejoin="round" stroke-linecap="round"/>
<circle cx="730.0" cy="251.0" r="6" fill="#1a1a19"/>
<circle cx="730.0" cy="251.0" r="4" fill="#c98500"/>
<path d="M64.0,138.4 L74.2,138.4 L84.5,138.4 L94.7,138.4 L105.0,138.4 L115.2,138.4 L125.5,139.2 L135.7,139.2 L146.0,139.2 L156.2,139.2 L166.5,139.2 L176.7,139.2 L187.0,139.2 L197.2,139.2 L207.4,139.2 L217.7,139.2 L227.9,139.2 L238.2,139.2 L248.4,139.2 L258.7,139.2 L268.9,139.2 L279.2,139.2 L289.4,139.2 L299.7,139.2 L309.9,139.2 L320.2,139.2 L330.4,139.2 L340.6,139.2 L350.9,139.2 L361.1,139.2 L371.4,139.2 L381.6,139.2 L391.9,139.2 L402.1,139.2 L412.4,139.2 L422.6,139.2 L432.9,139.2 L443.1,139.2 L453.4,139.2 L463.6,139.2 L473.8,139.2 L484.1,139.3 L494.3,139.3 L504.6,139.3 L514.8,139.3 L525.1,139.3 L535.3,139.3 L545.6,139.3 L555.8,139.3 L566.1,139.3 L576.3,139.3 L586.6,139.2 L596.8,139.2 L607.0,139.2 L617.3,139.2 L627.5,139.2 L637.8,139.2 L648.0,139.2 L658.3,139.2 L668.5,139.2 L678.8,139.2 L689.0,139.2 L699.3,139.2 L709.5,139.2 L719.8,139.2 L730.0,139.2" fill="none" stroke="#008300" stroke-width="2" stroke-linejoin="round" stroke-linecap="round"/>
<circle cx="730.0" cy="139.2" r="6" fill="#1a1a19"/>
<circle cx="730.0" cy="139.2" r="4" fill="#008300"/>
<path d="M64.0,206.3 L74.2,206.3 L84.5,206.3 L94.7,206.3 L105.0,206.3 L115.2,206.3 L125.5,206.3 L135.7,206.3 L146.0,206.3 L156.2,206.3 L166.5,206.3 L176.7,206.3 L187.0,206.3 L197.2,206.3 L207.4,206.3 L217.7,206.3 L227.9,206.3 L238.2,206.3 L248.4,206.3 L258.7,206.3 L268.9,206.3 L279.2,206.3 L289.4,206.3 L299.7,206.3 L309.9,206.3 L320.2,206.3 L330.4,206.3 L340.6,206.3 L350.9,206.3 L361.1,206.3 L371.4,206.4 L381.6,206.4 L391.9,206.4 L402.1,206.4 L412.4,206.4 L422.6,206.4 L432.9,206.4 L443.1,206.4 L453.4,206.4 L463.6,206.4 L473.8,206.4 L484.1,206.3 L494.3,206.3 L504.6,206.3 L514.8,206.3 L525.1,206.3 L535.3,206.3 L545.6,206.3 L555.8,206.3 L566.1,206.3 L576.3,206.3 L586.6,206.4 L596.8,206.4 L607.0,206.4 L617.3,206.4 L627.5,206.4 L637.8,206.4 L648.0,206.4 L658.3,206.4 L668.5,206.4 L678.8,206.4 L689.0,206.4 L699.3,206.4 L709.5,206.4 L719.8,206.4 L730.0,206.4" fill="none" stroke="#9085e9" stroke-width="2" stroke-linejoin="round" stroke-linecap="round"/>
<circle cx="730.0" cy="206.4" r="6" fill="#1a1a19"/>
<circle cx="730.0" cy="206.4" r="4" fill="#9085e9"/>
<path d="M64.0,227.7 L74.2,227.7 L84.5,227.7 L94.7,227.7 L105.0,227.7 L115.2,227.7 L125.5,227.7 L135.7,227.7 L146.0,227.7 L156.2,227.7 L166.5,227.7 L176.7,227.7 L187.0,227.7 L197.2,227.7 L207.4,227.7 L217.7,227.7 L227.9,227.7 L238.2,227.7 L248.4,227.7 L258.7,227.7 L268.9,227.7 L279.2,227.7 L289.4,227.7 L299.7,227.7 L309.9,227.7 L320.2,227.7 L330.4,227.7 L340.6,227.7 L350.9,227.7 L361.1,227.7 L371.4,227.7 L381.6,227.7 L391.9,227.7 L402.1,227.7 L412.4,227.7 L422.6,227.7 L432.9,227.7 L443.1,227.7 L453.4,227.7 L463.6,227.7 L473.8,227.7 L484.1,227.7 L494.3,227.7 L504.6,227.7 L514.8,227.7 L525.1,227.7 L535.3,227.7 L545.6,227.7 L555.8,227.7 L566.1,227.7 L576.3,227.7 L586.6,227.7 L596.8,227.7 L607.0,227.7 L617.3,227.7 L627.5,227.7 L637.8,227.7 L648.0,227.7 L658.3,227.7 L668.5,227.7 L678.8,227.7 L689.0,227.7 L699.3,227.7 L709.5,227.7 L719.8,227.7 L730.0,227.7" fill="none" stroke="#e66767" stroke-width="2" stroke-linejoin="round" stroke-linecap="round"/>
<circle cx="730.0" cy="227.7" r="6" fill="#1a1a19"/>
<circle cx="730.0" cy="227.7" r="4" fill="#e66767"/>
<circle cx="745.0" cy="52.5" r="3.5" fill="#199e70"/>
<text x="753.0" y="56.0" font-family='system-ui, -apple-system, "Segoe UI", sans-serif' font-size="11" fill="#ffffff">granulator</text>
<text x="753.0" y="68.0" font-family='system-ui, -apple-system, "Segoe UI", sans-serif' font-size="10" style="font-variant-numeric: tabular-nums" fill="#c3c2b7">27.6M</text>
<circle cx="745.0" cy="135.7" r="3.5" fill="#008300"/>
<text x="753.0" y="139.2" font-family='system-ui, -apple-system, "Segoe UI", sans-serif' font-size="11" fill="#ffffff">resonator</text>
<text x="753.0" y="151.2" font-family='system-ui, -apple-system, "Segoe UI", sans-serif' font-size="10" style="font-variant-numeric: tabular-nums" fill="#c3c2b7">18.4M</text>
<circle cx="745.0" cy="202.9" r="3.5" fill="#9085e9"/>
<text x="753.0" y="206.4" font-family='system-ui, -apple-system, "Segoe UI", sans-serif' font-size="11" fill="#ffffff">reverb</text>
<text x="753.0" y="218.4" font-family='system-ui, -apple-system, "Segoe UI", sans-serif' font-size="10" style="font-variant-numeric: tabular-nums" fill="#c3c2b7">11.0M</text>
<line x1="736.0" y1="218.5" x2="740.0" y2="234.4" stroke="#383835" stroke-width="1"/>
<circle cx="745.0" cy="230.9" r="3.5" fill="#3987e5"/>
<text x="753.0" y="234.4" font-family='system-ui, -apple-system, "Segoe UI", sans-serif' font-size="11" fill="#ffffff">compressor</text>
<text x="753.0" y="246.4" font-family='system-ui, -apple-system, "Segoe UI", sans-serif' font-size="10" style="font-variant-numeric: tabular-nums" fill="#c3c2b7">9.67M</text>
<line x1="736.0" y1="227.7" x2="740.0" y2="262.4" stroke="#383835" stroke-width="1"/>
<circle cx="745.0" cy="258.9" r="3.5" fill="#e66767"/>
<text x="753.0" y="262.4" font-family='system-ui, -apple-system, "Segoe UI", sans-serif' font-size="11" fill="#ffffff">saturator</text>
<text x="753.0" y="274.4" font-family='system-ui, -apple-system, "Segoe UI", sans-serif' font-size="10" style="font-variant-numeric: tabular-nums" fill="#c3c2b7">8.65M</text>
<line x1="736.0" y1="251.0" x2="740.0" y2="290.4" stroke="#383835" stroke-width="1"/>
<circle cx="745.0" cy="286.9" r="3.5" fill="#c98500"/>
<text x="753.0" y="290.4" font-family='system-ui, -apple-system, "Segoe UI", sans-serif' font-size="11" fill="#ffffff">pan</text>
<text x="753.0" y="302.4" font-family='system-ui, -apple-system, "Segoe UI", sans-serif' font-size="10" style="font-variant-numeric: tabular-nums" fill="#c3c2b7">6.08M</text>
</svg>