<svg xmlns="http://www.w3.org/2000/svg" width="880" height="340" viewBox="0 0 880 340" role="img" aria-label="Heaviest operators (micro)">
<rect width="880" height="340" rx="6" fill="#1a1a19"/>
<text x="64" y="24" font-family='system-ui, -apple-system, "Segoe UI", sans-serif' font-size="14" font-weight="600" fill="#ffffff">Heaviest operators (micro)</text>
<text x="64" y="41" font-family='system-ui, -apple-system, "Segoe UI", sans-serif' font-size="11" fill="#c3c2b7">per-operator step_node cost over the same 1 s schedule - top 6 by latest Ir</text>
<line x1="64" y1="306.0" x2="730" y2="306.0" stroke="#2c2c2a" stroke-width="1"/>
<text x="56" y="309.5" text-anchor="end" font-family='system-ui, -apple-system, "Segoe UI", sans-serif' font-size="11" style="font-variant-numeric: tabular-nums" fill="#898781">0</text>
<line x1="64" y1="215.1" x2="730" y2="215.1" stroke="#2c2c2a" stroke-width="1"/>
<text x="56" y="218.6" text-anchor="end" font-family='system-ui, -apple-system, "Segoe UI", sans-serif' font-size="11" style="font-variant-numeric: tabular-nums" fill="#898781">10</text>
<line x1="64" y1="124.2" x2="730" y2="124.2" stroke="#2c2c2a" stroke-width="1"/>
<text x="56" y="127.7" text-anchor="end" font-family='system-ui, -apple-system, "Segoe UI", sans-serif' font-size="11" style="font-variant-numeric: tabular-nums" fill="#898781">20</text>
<text x="56" y="46" text-anchor="end" font-family='system-ui, -apple-system, "Segoe UI", sans-serif' font-size="10" fill="#898781">Ir (M)</text>
<line x1="64" y1="306" x2="730" y2="306" stroke="#383835" stroke-width="1"/>
<text x="64.0" y="322" text-anchor="middle" font-family='system-ui, -apple-system, "Segoe UI", sans-serif' font-size="11" style="font-variant-numeric: tabular-nums" fill="#898781">07-12</text>
<text x="175.0" y="322" text-anchor="middle" font-family='system-ui, -apple-system, "Segoe UI", sans-serif' font-size="11" style="font-variant-numeric: tabular-nums" fill="#898781">07-13</text>
<text x="193.5" y="322" text-anchor="middle" font-family='system-ui, -apple-system, "Segoe UI", sans-serif' font-size="11" style="font-variant-numeric: tabular-nums" fill="#898781">07-14</text>
<text x="212.0" y="322" text-anchor="middle" font-family='system-ui, -apple-system, "Segoe UI", sans-serif' font-size="11" style="font-variant-numeric: tabular-nums" fill="#898781">07-16</text>
<text x="360.0" y="322" text-anchor="middle" font-family='system-ui, -apple-system, "Segoe UI", sans-serif' font-size="11" style="font-variant-numeric: tabular-nums" fill="#898781">07-17</text>
<text x="471.0" y="322" text-anchor="middle" font-family='system-ui, -apple-system, "Segoe UI", sans-serif' font-size="11" style="font-variant-numeric: tabular-nums" fill="#898781">07-18</text>
<text x="582.0" y="322" text-anchor="middle" font-family='system-ui, -apple-system, "Segoe UI", sans-serif' font-size="11" style="font-variant-numeric: tabular-nums" fill="#898781">07-19</text>
<text x="637.5" y="322" text-anchor="middle" font-family='system-ui, -apple-system, "Segoe UI", sans-serif' font-size="11" style="font-variant-numeric: tabular-nums" fill="#898781">07-20</text>
<path d="M637.5,217.9 L656.0,217.9 L674.5,217.9 L693.0,217.9 L711.5,217.9 L730.0,217.9" fill="none" stroke="#3987e5" stroke-width="2" stroke-linejoin="round" stroke-linecap="round"/>
<circle cx="730.0" cy="217.9" r="6" fill="#1a1a19"/>
<circle cx="730.0" cy="217.9" r="4" fill="#3987e5"/>
<path d="M64.0,56.0 L82.5,56.0 L101.0,56.0 L119.5,56.0 L138.0,56.0 L156.5,56.0 L175.0,56.0 L193.5,56.0 L212.0,56.0 L230.5,56.0 L249.0,56.0 L267.5,56.0 L286.0,56.0 L304.5,56.0 L323.0,56.0 L341.5,56.0 L360.0,56.0 L378.5,56.0 L397.0,56.0 L415.5,56.0 L434.0,56.0 L452.5,56.0 L471.0,56.0 L489.5,56.0 L508.0,56.0 L526.5,56.0 L545.0,56.0 L563.5,56.0 L582.0,56.0 L600.5,56.0 L619.0,56.0 L637.5,56.0 L656.0,56.0 L674.5,56.0 L693.0,56.0 L711.5,56.0 L730.0,56.0" fill="none" stroke="#199e70" stroke-width="2" stroke-linejoin="round" stroke-linecap="round"/>
<circle cx="730.0" cy="56.0" r="6" fill="#1a1a19"/>
<circle cx="730.0" cy="56.0" r="4" fill="#199e70"/>
<path d="M64.0,250.6 L82.5,250.6 L101.0,250.6 L119.5,250.6 L138.0,250.6 L156.5,250.6 L175.0,250.6 L193.5,250.6 L212.0,250.6 L230.5,250.6 L249.0,250.6 L267.5,250.6 L286.0,250.6 L304.5,250.6 L323.0,250.6 L341.5,250.6 L360.0,250.6 L378.5,250.6 L397.0,250.6 L415.5,250.6 L434.0,250.6 L452.5,250.6 L471.0,250.6 L489.5,250.6 L508.0,250.6 L526.5,250.6 L545.0,250.6 L563.5,250.6 L582.0,250.6 L600.5,250.6 L619.0,250.6 L637.5,250.6 L656.0,250.6 L674.5,250.7 L693.0,250.7 L711.5,250.7 L730.0,250.7" fill="none" stroke="#c98500" stroke-width="2" stroke-linejoin="round" stroke-linecap="round"/>
<circle cx="730.0" cy="250.7" r="6" fill="#1a1a19"/>
<circle cx="730.0" cy="250.7" r="4" fill="#c98500"/>
<path d="M64.0,137.6 L82.5,137.6 L101.0,137.6 L119.5,137.6 L138.0,137.6 L156.5,137.6 L175.0,138.4 L193.5,138.4 L212.0,138.4 L230.5,138.4 L249.0,138.4 L267.5,138.4 L286.0,138.4 L304.5,138.4 L323.0,138.4 L341.5,138.4 L360.0,138.4 L378.5,138.4 L397.0,138.4 L415.5,138.4 L434.0,138.4 L452.5,138.4 L471.0,138.4 L489.5,138.4 L508.0,138.4 L526.5,138.4 L545.0,138.4 L563.5,138.4 L582.0,138.4 L600.5,138.4 L619.0,138.4 L637.5,138.4 L656.0,138.4 L674.5,138.4 L693.0,138.4 L711.5,138.4 L730.0,138.4" fill="none" stroke="#008300" stroke-width="2" stroke-linejoin="round" stroke-linecap="round"/>
<circle cx="730.0" cy="138.4" r="6" fill="#1a1a19"/>
<circle cx="730.0" cy="138.4" r="4" fill="#008300"/>
<path d="M64.0,205.9 L82.5,205.9 L101.0,205.9 L119.5,205.9 L138.0,205.9 L156.5,205.9 L175.0,205.9 L193.5,205.9 L212.0,205.9 L230.5,205.9 L249.0,205.9 L267.5,205.9 L286.0,205.9 L304.5,205.9 L323.0,205.9 L341.5,205.9 L360.0,205.9 L378.5,205.9 L397.0,205.9 L415.5,205.9 L434.0,205.9 L452.5,205.9 L471.0,205.9 L489.5,205.9 L508.0,205.9 L526.5,205.9 L545.0,205.9 L563.5,205.9 L582.0,205.9 L600.5,205.9 L619.0,205.9 L637.5,205.9 L656.0,205.9 L674.5,205.9 L693.0,205.9 L711.5,205.9 L730.0,205.9" fill="none" stroke="#9085e9" stroke-width="2" stroke-linejoin="round" stroke-linecap="round"/>
<circle cx="730.0" cy="205.9" r="6" fill="#1a1a19"/>
<circle cx="730.0" cy="205.9" r="4" fill="#9085e9"/>
<path d="M64.0,227.3 L82.5,227.3 L101.0,227.3 L119.5,227.3 L138.0,227.3 L156.5,227.3 L175.0,227.3 L193.5,227.3 L212.0,227.3 L230.5,227.3 L249.0,227.3 L267.5,227.3 L286.0,227.3 L304.5,227.3 L323.0,227.3 L341.5,227.3 L360.0,227.3 L378.5,227.3 L397.0,227.3 L415.5,227.3 L434.0,227.3 L452.5,227.3 L471.0,227.3 L489.5,227.3 L508.0,227.3 L526.5,227.3 L545.0,227.3 L563.5,227.3 L582.0,227.3 L600.5,227.3 L619.0,227.3 L637.5,227.3 L656.0,227.3 L674.5,227.3 L693.0,227.3 L711.5,227.3 L730.0,227.3" fill="none" stroke="#e66767" stroke-width="2" stroke-linejoin="round" stroke-linecap="round"/>
<circle cx="730.0" cy="227.3" r="6" fill="#1a1a19"/>
<circle cx="730.0" cy="227.3" r="4" fill="#e66767"/>
<circle cx="745.0" cy="52.5" r="3.5" fill="#199e70"/>
<text x="753.0" y="56.0" font-family='system-ui, -apple-system, "Segoe UI", sans-serif' font-size="11" fill="#ffffff">granulator</text>
<text x="753.0" y="68.0" font-family='system-ui, -apple-system, "Segoe UI", sans-serif' font-size="10" style="font-variant-numeric: tabular-nums" fill="#c3c2b7">27.5M</text>
<circle cx="745.0" cy="134.9" r="3.5" fill="#008300"/>
<text x="753.0" y="138.4" font-family='system-ui, -apple-system, "Segoe UI", sans-serif' font-size="11" fill="#ffffff">resonator</text>
<text x="753.0" y="150.4" font-family='system-ui, -apple-system, "Segoe UI", sans-serif' font-size="10" style="font-variant-numeric: tabular-nums" fill="#c3c2b7">18.4M</text>
<circle cx="745.0" cy="202.4" r="3.5" fill="#9085e9"/>
<text x="753.0" y="205.9" font-family='system-ui, -apple-system, "Segoe UI", sans-serif' font-size="11" fill="#ffffff">reverb</text>
<text x="753.0" y="217.9" font-family='system-ui, -apple-system, "Segoe UI", sans-serif' font-size="10" style="font-variant-numeric: tabular-nums" fill="#c3c2b7">11.0M</text>
<line x1="736.0" y1="217.9" x2="740.0" y2="233.9" stroke="#383835" stroke-width="1"/>
<circle cx="745.0" cy="230.4" r="3.5" fill="#3987e5"/>
<text x="753.0" y="233.9" font-family='system-ui, -apple-system, "Segoe UI", sans-serif' font-size="11" fill="#ffffff">compressor</text>
<text x="753.0" y="245.9" font-family='system-ui, -apple-system, "Segoe UI", sans-serif' font-size="10" style="font-variant-numeric: tabular-nums" fill="#c3c2b7">9.69M</text>
<line x1="736.0" y1="227.3" x2="740.0" y2="261.9" stroke="#383835" stroke-width="1"/>
<circle cx="745.0" cy="258.4" r="3.5" fill="#e66767"/>
<text x="753.0" y="261.9" font-family='system-ui, -apple-system, "Segoe UI", sans-serif' font-size="11" fill="#ffffff">saturator</text>
<text x="753.0" y="273.9" font-family='system-ui, -apple-system, "Segoe UI", sans-serif' font-size="10" style="font-variant-numeric: tabular-nums" fill="#c3c2b7">8.65M</text>
<line x1="736.0" y1="250.7" x2="740.0" y2="289.9" stroke="#383835" stroke-width="1"/>
<circle cx="745.0" cy="286.4" r="3.5" fill="#c98500"/>
<text x="753.0" y="289.9" font-family='system-ui, -apple-system, "Segoe UI", sans-serif' font-size="11" fill="#ffffff">pan</text>
<text x="753.0" y="301.9" font-family='system-ui, -apple-system, "Segoe UI", sans-serif' font-size="10" style="font-variant-numeric: tabular-nums" fill="#c3c2b7">6.08M</text>
</svg>