<svg xmlns="http://www.w3.org/2000/svg" width="880" height="340" viewBox="0 0 880 340" role="img" aria-label="Heaviest operators (micro)">
<rect width="880" height="340" rx="6" fill="#1a1a19"/>
<text x="64" y="24" font-family='system-ui, -apple-system, "Segoe UI", sans-serif' font-size="14" font-weight="600" fill="#ffffff">Heaviest operators (micro)</text>
<text x="64" y="41" font-family='system-ui, -apple-system, "Segoe UI", sans-serif' font-size="11" fill="#c3c2b7">per-operator step_node cost over the same 1 s schedule - top 6 by latest Ir</text>
<line x1="64" y1="306.0" x2="730" y2="306.0" stroke="#2c2c2a" stroke-width="1"/>
<text x="56" y="309.5" text-anchor="end" font-family='system-ui, -apple-system, "Segoe UI", sans-serif' font-size="11" style="font-variant-numeric: tabular-nums" fill="#898781">0</text>
<line x1="64" y1="218.1" x2="730" y2="218.1" stroke="#2c2c2a" stroke-width="1"/>
<text x="56" y="221.6" text-anchor="end" font-family='system-ui, -apple-system, "Segoe UI", sans-serif' font-size="11" style="font-variant-numeric: tabular-nums" fill="#898781">10</text>
<line x1="64" y1="130.3" x2="730" y2="130.3" stroke="#2c2c2a" stroke-width="1"/>
<text x="56" y="133.8" text-anchor="end" font-family='system-ui, -apple-system, "Segoe UI", sans-serif' font-size="11" style="font-variant-numeric: tabular-nums" fill="#898781">20</text>
<text x="56" y="46" text-anchor="end" font-family='system-ui, -apple-system, "Segoe UI", sans-serif' font-size="10" fill="#898781">Ir (M)</text>
<line x1="64" y1="306" x2="730" y2="306" stroke="#383835" stroke-width="1"/>
<text x="64.0" y="322" text-anchor="middle" font-family='system-ui, -apple-system, "Segoe UI", sans-serif' font-size="11" style="font-variant-numeric: tabular-nums" fill="#898781">06-28</text>
<text x="132.9" y="322" text-anchor="middle" font-family='system-ui, -apple-system, "Segoe UI", sans-serif' font-size="11" style="font-variant-numeric: tabular-nums" fill="#898781">06-30</text>
<text x="190.3" y="322" text-anchor="middle" font-family='system-ui, -apple-system, "Segoe UI", sans-serif' font-size="11" style="font-variant-numeric: tabular-nums" fill="#898781">07-02</text>
<text x="316.6" y="322" text-anchor="middle" font-family='system-ui, -apple-system, "Segoe UI", sans-serif' font-size="11" style="font-variant-numeric: tabular-nums" fill="#898781">07-04</text>
<text x="500.3" y="322" text-anchor="middle" font-family='system-ui, -apple-system, "Segoe UI", sans-serif' font-size="11" style="font-variant-numeric: tabular-nums" fill="#898781">07-07</text>
<text x="615.2" y="322" text-anchor="middle" font-family='system-ui, -apple-system, "Segoe UI", sans-serif' font-size="11" style="font-variant-numeric: tabular-nums" fill="#898781">07-09</text>
<text x="707.0" y="322" text-anchor="middle" font-family='system-ui, -apple-system, "Segoe UI", sans-serif' font-size="11" style="font-variant-numeric: tabular-nums" fill="#898781">07-11</text>
<path d="M144.4,56.2 L155.9,56.2 L167.3,56.1 L178.8,61.2 L190.3,56.2 L201.8,56.2 L213.3,56.2 L224.8,56.2 L236.2,56.2 L247.7,56.2 L259.2,56.2 L270.7,56.2 L282.2,56.2 L293.7,56.2 L305.1,56.2 L316.6,56.2 L328.1,56.2 L339.6,56.2 L351.1,56.2 L362.6,60.8 L374.0,56.1 L385.5,56.1 L397.0,56.1 L408.5,56.1 L420.0,56.1 L431.4,60.6 L442.9,60.6 L454.4,56.1 L465.9,56.0 L477.4,56.0 L488.9,56.0 L500.3,56.0 L511.8,56.0 L523.3,56.0 L534.8,56.0 L546.3,56.0 L557.8,56.0 L569.2,56.0 L580.7,56.0 L592.2,56.0 L603.7,56.0 L615.2,56.0 L626.7,56.0 L638.1,61.0 L649.6,61.0 L661.1,61.0 L672.6,56.1 L684.1,61.3 L695.6,56.3 L707.0,56.4 L718.5,64.4 L730.0,64.4" fill="none" stroke="#3987e5" stroke-width="2" stroke-linejoin="round" stroke-linecap="round"/>
<circle cx="730.0" cy="64.4" r="6" fill="#1a1a19"/>
<circle cx="730.0" cy="64.4" r="4" fill="#3987e5"/>
<path d="M64.0,246.7 L75.5,246.7 L87.0,246.7 L98.4,246.7 L109.9,246.7 L121.4,246.6 L132.9,246.6 L144.4,246.2 L155.9,246.3 L167.3,246.3 L178.8,246.3 L190.3,246.3 L201.8,246.3 L213.3,246.3 L224.8,246.3 L236.2,246.3 L247.7,246.3 L259.2,246.3 L270.7,251.7 L282.2,251.7 L293.7,251.7 L305.1,251.7 L316.6,251.7 L328.1,251.7 L339.6,251.7 L351.1,251.7 L362.6,251.7 L374.0,251.6 L385.5,251.6 L397.0,251.6 L408.5,251.6 L420.0,251.6 L431.4,251.6 L442.9,251.6 L454.4,251.6 L465.9,251.5 L477.4,251.5 L488.9,251.5 L500.3,251.5 L511.8,251.5 L523.3,251.5 L534.8,251.5 L546.3,251.5 L557.8,251.5 L569.2,251.5 L580.7,251.5 L592.2,251.5 L603.7,251.5 L615.2,251.5 L626.7,251.5 L638.1,251.6 L649.6,251.6 L661.1,251.6 L672.6,251.6 L684.1,251.9 L695.6,251.9 L707.0,251.9 L718.5,252.5 L730.0,252.5" fill="none" stroke="#199e70" stroke-width="2" stroke-linejoin="round" stroke-linecap="round"/>
<circle cx="730.0" cy="252.5" r="6" fill="#1a1a19"/>
<circle cx="730.0" cy="252.5" r="4" fill="#199e70"/>
<path d="M87.0,97.2 L98.4,97.2 L109.9,97.2 L121.4,138.2 L132.9,138.2 L144.4,137.8 L155.9,137.8 L167.3,137.8 L178.8,137.9 L190.3,137.8 L201.8,137.9 L213.3,137.8 L224.8,137.8 L236.2,137.8 L247.7,137.8 L259.2,137.8 L270.7,142.4 L282.2,142.4 L293.7,142.4 L305.1,142.4 L316.6,142.4 L328.1,142.4 L339.6,142.4 L351.1,142.4 L362.6,142.4 L374.0,142.4 L385.5,142.4 L397.0,142.4 L408.5,142.4 L420.0,142.4 L431.4,142.3 L442.9,142.4 L454.4,142.3 L465.9,142.3 L477.4,142.3 L488.9,142.3 L500.3,142.3 L511.8,142.3 L523.3,142.3 L534.8,142.3 L546.3,142.3 L557.8,142.3 L569.2,142.3 L580.7,142.3 L592.2,142.3 L603.7,142.3 L615.2,142.3 L626.7,142.3 L638.1,142.3 L649.6,142.3 L661.1,142.3 L672.6,142.3 L684.1,142.6 L695.6,142.6 L707.0,142.7 L718.5,143.3 L730.0,143.3" fill="none" stroke="#c98500" stroke-width="2" stroke-linejoin="round" stroke-linecap="round"/>
<circle cx="730.0" cy="143.3" r="6" fill="#1a1a19"/>
<circle cx="730.0" cy="143.3" r="4" fill="#c98500"/>
<path d="M64.0,195.3 L75.5,195.3 L87.0,195.4 L98.4,195.4 L109.9,195.4 L121.4,204.2 L132.9,204.1 L144.4,203.8 L155.9,203.8 L167.3,203.8 L178.8,203.9 L190.3,203.8 L201.8,203.8 L213.3,203.8 L224.8,203.8 L236.2,203.8 L247.7,203.8 L259.2,203.8 L270.7,208.4 L282.2,208.4 L293.7,208.4 L305.1,208.4 L316.6,208.4 L328.1,208.4 L339.6,208.4 L351.1,208.4 L362.6,208.5 L374.0,208.3 L385.5,208.3 L397.0,208.3 L408.5,208.3 L420.0,208.3 L431.4,208.3 L442.9,208.4 L454.4,208.4 L465.9,208.2 L477.4,208.2 L488.9,208.2 L500.3,208.2 L511.8,208.2 L523.3,208.2 L534.8,208.2 L546.3,208.2 L557.8,208.2 L569.2,208.2 L580.7,208.2 L592.2,208.2 L603.7,208.2 L615.2,208.2 L626.7,208.2 L638.1,208.4 L649.6,208.3 L661.1,208.3 L672.6,208.3 L684.1,208.6 L695.6,208.6 L707.0,208.6 L718.5,209.2 L730.0,209.2" fill="none" stroke="#008300" stroke-width="2" stroke-linejoin="round" stroke-linecap="round"/>
<circle cx="730.0" cy="209.2" r="6" fill="#1a1a19"/>
<circle cx="730.0" cy="209.2" r="4" fill="#008300"/>
<path d="M649.6,229.0 L661.1,229.0 L672.6,229.1 L684.1,229.3 L695.6,229.3 L707.0,229.3 L718.5,229.9 L730.0,229.9" fill="none" stroke="#9085e9" stroke-width="2" stroke-linejoin="round" stroke-linecap="round"/>
<circle cx="730.0" cy="229.9" r="6" fill="#1a1a19"/>
<circle cx="730.0" cy="229.9" r="4" fill="#9085e9"/>
<path d="M64.0,262.8 L75.5,262.8 L87.0,262.8 L98.4,262.8 L109.9,263.0 L121.4,263.2 L132.9,263.0 L144.4,262.4 L155.9,262.5 L167.3,262.4 L178.8,262.5 L190.3,262.5 L201.8,262.5 L213.3,262.5 L224.8,262.5 L236.2,262.5 L247.7,262.5 L259.2,262.5 L270.7,261.7 L282.2,261.7 L293.7,261.6 L305.1,261.4 L316.6,261.4 L328.1,261.4 L339.6,261.4 L351.1,261.4 L362.6,261.4 L374.0,261.3 L385.5,261.3 L397.0,261.3 L408.5,261.3 L420.0,261.3 L431.4,261.2 L442.9,261.3 L454.4,261.3 L465.9,261.0 L477.4,261.0 L488.9,261.1 L500.3,261.1 L511.8,261.1 L523.3,261.1 L534.8,261.1 L546.3,261.1 L557.8,261.1 L569.2,261.1 L580.7,261.1 L592.2,261.1 L603.7,261.1 L615.2,261.1 L626.7,261.1 L638.1,261.3 L649.6,261.2 L661.1,261.2 L672.6,261.3 L684.1,261.7 L695.6,261.8 L707.0,261.8 L718.5,263.1 L730.0,263.1" fill="none" stroke="#e66767" stroke-width="2" stroke-linejoin="round" stroke-linecap="round"/>
<circle cx="730.0" cy="263.1" r="6" fill="#1a1a19"/>
<circle cx="730.0" cy="263.1" r="4" fill="#e66767"/>
<circle cx="745.0" cy="60.9" r="3.5" fill="#3987e5"/>
<text x="753.0" y="64.4" font-family='system-ui, -apple-system, "Segoe UI", sans-serif' font-size="11" fill="#ffffff">granulator</text>
<text x="753.0" y="76.4" font-family='system-ui, -apple-system, "Segoe UI", sans-serif' font-size="10" style="font-variant-numeric: tabular-nums" fill="#c3c2b7">27.5M</text>
<circle cx="745.0" cy="139.8" r="3.5" fill="#c98500"/>
<text x="753.0" y="143.3" font-family='system-ui, -apple-system, "Segoe UI", sans-serif' font-size="11" fill="#ffffff">resonator</text>
<text x="753.0" y="155.3" font-family='system-ui, -apple-system, "Segoe UI", sans-serif' font-size="10" style="font-variant-numeric: tabular-nums" fill="#c3c2b7">18.5M</text>
<circle cx="745.0" cy="205.7" r="3.5" fill="#008300"/>
<text x="753.0" y="209.2" font-family='system-ui, -apple-system, "Segoe UI", sans-serif' font-size="11" fill="#ffffff">reverb</text>
<text x="753.0" y="221.2" font-family='system-ui, -apple-system, "Segoe UI", sans-serif' font-size="10" style="font-variant-numeric: tabular-nums" fill="#c3c2b7">11.0M</text>
<line x1="736.0" y1="229.9" x2="740.0" y2="237.2" stroke="#383835" stroke-width="1"/>
<circle cx="745.0" cy="233.7" r="3.5" fill="#9085e9"/>
<text x="753.0" y="237.2" font-family='system-ui, -apple-system, "Segoe UI", sans-serif' font-size="11" fill="#ffffff">saturator</text>
<text x="753.0" y="249.2" font-family='system-ui, -apple-system, "Segoe UI", sans-serif' font-size="10" style="font-variant-numeric: tabular-nums" fill="#c3c2b7">8.66M</text>
<line x1="736.0" y1="252.5" x2="740.0" y2="265.2" stroke="#383835" stroke-width="1"/>
<circle cx="745.0" cy="261.7" r="3.5" fill="#199e70"/>
<text x="753.0" y="265.2" font-family='system-ui, -apple-system, "Segoe UI", sans-serif' font-size="11" fill="#ffffff">pan</text>
<text x="753.0" y="277.2" font-family='system-ui, -apple-system, "Segoe UI", sans-serif' font-size="10" style="font-variant-numeric: tabular-nums" fill="#c3c2b7">6.09M</text>
<line x1="736.0" y1="263.1" x2="740.0" y2="293.2" stroke="#383835" stroke-width="1"/>
<circle cx="745.0" cy="289.7" r="3.5" fill="#e66767"/>
<text x="753.0" y="293.2" font-family='system-ui, -apple-system, "Segoe UI", sans-serif' font-size="11" fill="#ffffff">sequencer</text>
<text x="753.0" y="305.2" font-family='system-ui, -apple-system, "Segoe UI", sans-serif' font-size="10" style="font-variant-numeric: tabular-nums" fill="#c3c2b7">4.89M</text>
</svg>