<svg xmlns="http://www.w3.org/2000/svg" width="880" height="340" viewBox="0 0 880 340" role="img" aria-label="Heaviest operators (micro)">
<rect width="880" height="340" rx="6" fill="#1a1a19"/>
<text x="64" y="24" font-family='system-ui, -apple-system, "Segoe UI", sans-serif' font-size="14" font-weight="600" fill="#ffffff">Heaviest operators (micro)</text>
<text x="64" y="41" font-family='system-ui, -apple-system, "Segoe UI", sans-serif' font-size="11" fill="#c3c2b7">per-operator step_node cost over the same 1 s schedule - top 6 by latest Ir</text>
<line x1="64" y1="306.0" x2="730" y2="306.0" stroke="#2c2c2a" stroke-width="1"/>
<text x="56" y="309.5" text-anchor="end" font-family='system-ui, -apple-system, "Segoe UI", sans-serif' font-size="11" style="font-variant-numeric: tabular-nums" fill="#898781">0</text>
<line x1="64" y1="218.1" x2="730" y2="218.1" stroke="#2c2c2a" stroke-width="1"/>
<text x="56" y="221.6" text-anchor="end" font-family='system-ui, -apple-system, "Segoe UI", sans-serif' font-size="11" style="font-variant-numeric: tabular-nums" fill="#898781">10</text>
<line x1="64" y1="130.2" x2="730" y2="130.2" stroke="#2c2c2a" stroke-width="1"/>
<text x="56" y="133.7" text-anchor="end" font-family='system-ui, -apple-system, "Segoe UI", sans-serif' font-size="11" style="font-variant-numeric: tabular-nums" fill="#898781">20</text>
<text x="56" y="46" text-anchor="end" font-family='system-ui, -apple-system, "Segoe UI", sans-serif' font-size="10" fill="#898781">Ir (M)</text>
<line x1="64" y1="306" x2="730" y2="306" stroke="#383835" stroke-width="1"/>
<text x="64.0" y="322" text-anchor="middle" font-family='system-ui, -apple-system, "Segoe UI", sans-serif' font-size="11" style="font-variant-numeric: tabular-nums" fill="#898781">06-28</text>
<text x="104.4" y="322" text-anchor="middle" font-family='system-ui, -apple-system, "Segoe UI", sans-serif' font-size="11" style="font-variant-numeric: tabular-nums" fill="#898781">06-29</text>
<text x="185.1" y="322" text-anchor="middle" font-family='system-ui, -apple-system, "Segoe UI", sans-serif' font-size="11" style="font-variant-numeric: tabular-nums" fill="#898781">06-30</text>
<text x="245.6" y="322" text-anchor="middle" font-family='system-ui, -apple-system, "Segoe UI", sans-serif' font-size="11" style="font-variant-numeric: tabular-nums" fill="#898781">07-01</text>
<text x="286.0" y="322" text-anchor="middle" font-family='system-ui, -apple-system, "Segoe UI", sans-serif' font-size="11" style="font-variant-numeric: tabular-nums" fill="#898781">07-02</text>
<text x="427.3" y="322" text-anchor="middle" font-family='system-ui, -apple-system, "Segoe UI", sans-serif' font-size="11" style="font-variant-numeric: tabular-nums" fill="#898781">07-03</text>
<text x="508.0" y="322" text-anchor="middle" font-family='system-ui, -apple-system, "Segoe UI", sans-serif' font-size="11" style="font-variant-numeric: tabular-nums" fill="#898781">07-04</text>
<text x="669.5" y="322" text-anchor="middle" font-family='system-ui, -apple-system, "Segoe UI", sans-serif' font-size="11" style="font-variant-numeric: tabular-nums" fill="#898781">07-05</text>
<path d="M205.3,56.1 L225.5,56.1 L245.6,56.0 L265.8,61.1 L286.0,56.1 L306.2,56.1 L326.4,56.1 L346.5,56.1 L366.7,56.1 L386.9,56.1 L407.1,56.1 L427.3,56.1 L447.5,56.1 L467.6,56.1 L487.8,56.1 L508.0,56.1 L528.2,56.1 L548.4,56.1 L568.5,56.1 L588.7,60.7 L608.9,56.0 L629.1,56.0 L649.3,56.0 L669.5,56.0 L689.6,56.0 L709.8,60.5 L730.0,60.5" fill="none" stroke="#3987e5" stroke-width="2" stroke-linejoin="round" stroke-linecap="round"/>
<circle cx="730.0" cy="60.5" r="6" fill="#1a1a19"/>
<circle cx="730.0" cy="60.5" r="4" fill="#3987e5"/>
<path d="M64.0,264.6 L84.2,264.6 L104.4,264.6 L124.5,264.6 L144.7,264.6 L164.9,266.2 L185.1,265.7 L205.3,265.4 L225.5,265.5 L245.6,265.4 L265.8,265.4 L286.0,265.4 L306.2,265.4 L326.4,265.4 L346.5,265.4 L366.7,265.4 L386.9,265.4 L407.1,265.4 L427.3,265.0 L447.5,265.0 L467.6,265.0 L487.8,265.0 L508.0,265.0 L528.2,265.0 L548.4,265.0 L568.5,265.0 L588.7,265.0 L608.9,264.9 L629.1,264.9 L649.3,264.9 L669.5,264.9 L689.6,264.9 L709.8,264.9 L730.0,264.9" fill="none" stroke="#199e70" stroke-width="2" stroke-linejoin="round" stroke-linecap="round"/>
<circle cx="730.0" cy="264.9" r="6" fill="#1a1a19"/>
<circle cx="730.0" cy="264.9" r="4" fill="#199e70"/>
<path d="M64.0,246.6 L84.2,246.6 L104.4,246.6 L124.5,246.6 L144.7,246.6 L164.9,246.6 L185.1,246.6 L205.3,246.2 L225.5,246.3 L245.6,246.2 L265.8,246.3 L286.0,246.3 L306.2,246.3 L326.4,246.3 L346.5,246.3 L366.7,246.3 L386.9,246.3 L407.1,246.3 L427.3,251.7 L447.5,251.7 L467.6,251.7 L487.8,251.7 L508.0,251.7 L528.2,251.7 L548.4,251.7 L568.5,251.7 L588.7,251.7 L608.9,251.6 L629.1,251.6 L649.3,251.6 L669.5,251.6 L689.6,251.6 L709.8,251.6 L730.0,251.6" fill="none" stroke="#c98500" stroke-width="2" stroke-linejoin="round" stroke-linecap="round"/>
<circle cx="730.0" cy="251.6" r="6" fill="#1a1a19"/>
<circle cx="730.0" cy="251.6" r="4" fill="#c98500"/>
<path d="M104.4,97.1 L124.5,97.1 L144.7,97.2 L164.9,138.1 L185.1,138.1 L205.3,137.7 L225.5,137.8 L245.6,137.7 L265.8,137.8 L286.0,137.8 L306.2,137.8 L326.4,137.8 L346.5,137.8 L366.7,137.8 L386.9,137.8 L407.1,137.8 L427.3,142.4 L447.5,142.4 L467.6,142.4 L487.8,142.4 L508.0,142.4 L528.2,142.4 L548.4,142.4 L568.5,142.4 L588.7,142.4 L608.9,142.3 L629.1,142.3 L649.3,142.3 L669.5,142.3 L689.6,142.3 L709.8,142.3 L730.0,142.3" fill="none" stroke="#008300" stroke-width="2" stroke-linejoin="round" stroke-linecap="round"/>
<circle cx="730.0" cy="142.3" r="6" fill="#1a1a19"/>
<circle cx="730.0" cy="142.3" r="4" fill="#008300"/>
<path d="M64.0,195.3 L84.2,195.3 L104.4,195.3 L124.5,195.3 L144.7,195.3 L164.9,204.2 L185.1,204.1 L205.3,203.7 L225.5,203.8 L245.6,203.8 L265.8,203.8 L286.0,203.8 L306.2,203.8 L326.4,203.8 L346.5,203.8 L366.7,203.8 L386.9,203.8 L407.1,203.8 L427.3,208.4 L447.5,208.4 L467.6,208.4 L487.8,208.4 L508.0,208.4 L528.2,208.4 L548.4,208.4 L568.5,208.4 L588.7,208.4 L608.9,208.3 L629.1,208.3 L649.3,208.3 L669.5,208.3 L689.6,208.3 L709.8,208.3 L730.0,208.3" fill="none" stroke="#9085e9" stroke-width="2" stroke-linejoin="round" stroke-linecap="round"/>
<circle cx="730.0" cy="208.3" r="6" fill="#1a1a19"/>
<circle cx="730.0" cy="208.3" r="4" fill="#9085e9"/>
<path d="M64.0,262.8 L84.2,262.8 L104.4,262.8 L124.5,262.8 L144.7,263.0 L164.9,263.1 L185.1,263.0 L205.3,262.4 L225.5,262.5 L245.6,262.4 L265.8,262.4 L286.0,262.5 L306.2,262.5 L326.4,262.5 L346.5,262.5 L366.7,262.5 L386.9,262.5 L407.1,262.5 L427.3,261.7 L447.5,261.7 L467.6,261.6 L487.8,261.4 L508.0,261.4 L528.2,261.4 L548.4,261.4 L568.5,261.4 L588.7,261.4 L608.9,261.3 L629.1,261.3 L649.3,261.3 L669.5,261.3 L689.6,261.3 L709.8,261.2 L730.0,261.2" fill="none" stroke="#e66767" stroke-width="2" stroke-linejoin="round" stroke-linecap="round"/>
<circle cx="730.0" cy="261.2" r="6" fill="#1a1a19"/>
<circle cx="730.0" cy="261.2" r="4" fill="#e66767"/>
<circle cx="745.0" cy="57.0" r="3.5" fill="#3987e5"/>
<text x="753.0" y="60.5" font-family='system-ui, -apple-system, "Segoe UI", sans-serif' font-size="11" fill="#ffffff">granulator</text>
<text x="753.0" y="72.5" font-family='system-ui, -apple-system, "Segoe UI", sans-serif' font-size="10" style="font-variant-numeric: tabular-nums" fill="#c3c2b7">27.9M</text>
<circle cx="745.0" cy="138.8" r="3.5" fill="#008300"/>
<text x="753.0" y="142.3" font-family='system-ui, -apple-system, "Segoe UI", sans-serif' font-size="11" fill="#ffffff">resonator</text>
<text x="753.0" y="154.3" font-family='system-ui, -apple-system, "Segoe UI", sans-serif' font-size="10" style="font-variant-numeric: tabular-nums" fill="#c3c2b7">18.6M</text>
<circle cx="745.0" cy="204.8" r="3.5" fill="#9085e9"/>
<text x="753.0" y="208.3" font-family='system-ui, -apple-system, "Segoe UI", sans-serif' font-size="11" fill="#ffffff">reverb</text>
<text x="753.0" y="220.3" font-family='system-ui, -apple-system, "Segoe UI", sans-serif' font-size="10" style="font-variant-numeric: tabular-nums" fill="#c3c2b7">11.1M</text>
<circle cx="745.0" cy="248.1" r="3.5" fill="#c98500"/>
<text x="753.0" y="251.6" font-family='system-ui, -apple-system, "Segoe UI", sans-serif' font-size="11" fill="#ffffff">pan</text>
<text x="753.0" y="263.6" font-family='system-ui, -apple-system, "Segoe UI", sans-serif' font-size="10" style="font-variant-numeric: tabular-nums" fill="#c3c2b7">6.19M</text>
<line x1="736.0" y1="261.2" x2="740.0" y2="279.6" stroke="#383835" stroke-width="1"/>
<circle cx="745.0" cy="276.1" r="3.5" fill="#e66767"/>
<text x="753.0" y="279.6" font-family='system-ui, -apple-system, "Segoe UI", sans-serif' font-size="11" fill="#ffffff">sequencer</text>
<text x="753.0" y="291.6" font-family='system-ui, -apple-system, "Segoe UI", sans-serif' font-size="10" style="font-variant-numeric: tabular-nums" fill="#c3c2b7">5.09M</text>
<line x1="736.0" y1="264.9" x2="740.0" y2="307.6" stroke="#383835" stroke-width="1"/>
<circle cx="745.0" cy="304.1" r="3.5" fill="#199e70"/>
<text x="753.0" y="307.6" font-family='system-ui, -apple-system, "Segoe UI", sans-serif' font-size="11" fill="#ffffff">map_f32_signal</text>
<text x="753.0" y="319.6" font-family='system-ui, -apple-system, "Segoe UI", sans-serif' font-size="10" style="font-variant-numeric: tabular-nums" fill="#c3c2b7">4.68M</text>
</svg>