<svg xmlns="http://www.w3.org/2000/svg" width="880" height="340" viewBox="0 0 880 340" role="img" aria-label="Heaviest operators (micro)">
<rect width="880" height="340" rx="6" fill="#1a1a19"/>
<text x="64" y="24" font-family='system-ui, -apple-system, "Segoe UI", sans-serif' font-size="14" font-weight="600" fill="#ffffff">Heaviest operators (micro)</text>
<text x="64" y="41" font-family='system-ui, -apple-system, "Segoe UI", sans-serif' font-size="11" fill="#c3c2b7">per-operator step_node cost over the same 1 s schedule - top 6 by latest Ir</text>
<line x1="64" y1="306.0" x2="730" y2="306.0" stroke="#2c2c2a" stroke-width="1"/>
<text x="56" y="309.5" text-anchor="end" font-family='system-ui, -apple-system, "Segoe UI", sans-serif' font-size="11" style="font-variant-numeric: tabular-nums" fill="#898781">0</text>
<line x1="64" y1="218.1" x2="730" y2="218.1" stroke="#2c2c2a" stroke-width="1"/>
<text x="56" y="221.6" text-anchor="end" font-family='system-ui, -apple-system, "Segoe UI", sans-serif' font-size="11" style="font-variant-numeric: tabular-nums" fill="#898781">10</text>
<line x1="64" y1="130.3" x2="730" y2="130.3" stroke="#2c2c2a" stroke-width="1"/>
<text x="56" y="133.8" text-anchor="end" font-family='system-ui, -apple-system, "Segoe UI", sans-serif' font-size="11" style="font-variant-numeric: tabular-nums" fill="#898781">20</text>
<text x="56" y="46" text-anchor="end" font-family='system-ui, -apple-system, "Segoe UI", sans-serif' font-size="10" fill="#898781">Ir (M)</text>
<line x1="64" y1="306" x2="730" y2="306" stroke="#383835" stroke-width="1"/>
<text x="64.0" y="322" text-anchor="middle" font-family='system-ui, -apple-system, "Segoe UI", sans-serif' font-size="11" style="font-variant-numeric: tabular-nums" fill="#898781">06-28</text>
<text x="122.8" y="322" text-anchor="middle" font-family='system-ui, -apple-system, "Segoe UI", sans-serif' font-size="11" style="font-variant-numeric: tabular-nums" fill="#898781">06-30</text>
<text x="171.7" y="322" text-anchor="middle" font-family='system-ui, -apple-system, "Segoe UI", sans-serif' font-size="11" style="font-variant-numeric: tabular-nums" fill="#898781">07-02</text>
<text x="279.5" y="322" text-anchor="middle" font-family='system-ui, -apple-system, "Segoe UI", sans-serif' font-size="11" style="font-variant-numeric: tabular-nums" fill="#898781">07-04</text>
<text x="436.2" y="322" text-anchor="middle" font-family='system-ui, -apple-system, "Segoe UI", sans-serif' font-size="11" style="font-variant-numeric: tabular-nums" fill="#898781">07-07</text>
<text x="534.1" y="322" text-anchor="middle" font-family='system-ui, -apple-system, "Segoe UI", sans-serif' font-size="11" style="font-variant-numeric: tabular-nums" fill="#898781">07-09</text>
<text x="612.5" y="322" text-anchor="middle" font-family='system-ui, -apple-system, "Segoe UI", sans-serif' font-size="11" style="font-variant-numeric: tabular-nums" fill="#898781">07-11</text>
<path d="M132.6,56.2 L142.4,56.2 L152.1,56.1 L161.9,61.2 L171.7,56.2 L181.5,56.2 L191.3,56.2 L201.1,56.2 L210.9,56.2 L220.7,56.2 L230.5,56.2 L240.3,56.2 L250.1,56.2 L259.9,56.2 L269.7,56.2 L279.5,56.2 L289.3,56.2 L299.1,56.2 L308.9,56.2 L318.6,60.8 L328.4,56.1 L338.2,56.1 L348.0,56.1 L357.8,56.1 L367.6,56.1 L377.4,60.6 L387.2,60.6 L397.0,56.1 L406.8,56.0 L416.6,56.0 L426.4,56.0 L436.2,56.0 L446.0,56.0 L455.8,56.0 L465.6,56.0 L475.4,56.0 L485.1,56.0 L494.9,56.0 L504.7,56.0 L514.5,56.0 L524.3,56.0 L534.1,56.0 L543.9,56.0 L553.7,61.0 L563.5,61.0 L573.3,61.0 L583.1,56.1 L592.9,61.3 L602.7,56.3 L612.5,56.4 L622.3,64.4 L632.1,64.4 L641.9,64.4 L651.6,64.4 L661.4,64.4 L671.2,64.4 L681.0,64.4 L690.8,64.4 L700.6,64.4 L710.4,64.4 L720.2,64.4 L730.0,64.4" fill="none" stroke="#3987e5" stroke-width="2" stroke-linejoin="round" stroke-linecap="round"/>
<circle cx="730.0" cy="64.4" r="6" fill="#1a1a19"/>
<circle cx="730.0" cy="64.4" r="4" fill="#3987e5"/>
<path d="M64.0,246.7 L73.8,246.7 L83.6,246.7 L93.4,246.7 L103.2,246.7 L113.0,246.6 L122.8,246.6 L132.6,246.2 L142.4,246.3 L152.1,246.3 L161.9,246.3 L171.7,246.3 L181.5,246.3 L191.3,246.3 L201.1,246.3 L210.9,246.3 L220.7,246.3 L230.5,246.3 L240.3,251.7 L250.1,251.7 L259.9,251.7 L269.7,251.7 L279.5,251.7 L289.3,251.7 L299.1,251.7 L308.9,251.7 L318.6,251.7 L328.4,251.6 L338.2,251.6 L348.0,251.6 L357.8,251.6 L367.6,251.6 L377.4,251.6 L387.2,251.6 L397.0,251.6 L406.8,251.5 L416.6,251.5 L426.4,251.5 L436.2,251.5 L446.0,251.5 L455.8,251.5 L465.6,251.5 L475.4,251.5 L485.1,251.5 L494.9,251.5 L504.7,251.5 L514.5,251.5 L524.3,251.5 L534.1,251.5 L543.9,251.5 L553.7,251.6 L563.5,251.6 L573.3,251.6 L583.1,251.6 L592.9,251.9 L602.7,251.9 L612.5,251.9 L622.3,252.5 L632.1,252.5 L641.9,252.5 L651.6,252.5 L661.4,252.5 L671.2,252.5 L681.0,252.5 L690.8,252.5 L700.6,252.5 L710.4,252.5 L720.2,252.5 L730.0,252.5" fill="none" stroke="#199e70" stroke-width="2" stroke-linejoin="round" stroke-linecap="round"/>
<circle cx="730.0" cy="252.5" r="6" fill="#1a1a19"/>
<circle cx="730.0" cy="252.5" r="4" fill="#199e70"/>
<path d="M83.6,97.2 L93.4,97.2 L103.2,97.2 L113.0,138.2 L122.8,138.2 L132.6,137.8 L142.4,137.8 L152.1,137.8 L161.9,137.9 L171.7,137.8 L181.5,137.9 L191.3,137.8 L201.1,137.8 L210.9,137.8 L220.7,137.8 L230.5,137.8 L240.3,142.4 L250.1,142.4 L259.9,142.4 L269.7,142.4 L279.5,142.4 L289.3,142.4 L299.1,142.4 L308.9,142.4 L318.6,142.4 L328.4,142.4 L338.2,142.4 L348.0,142.4 L357.8,142.4 L367.6,142.4 L377.4,142.3 L387.2,142.4 L397.0,142.3 L406.8,142.3 L416.6,142.3 L426.4,142.3 L436.2,142.3 L446.0,142.3 L455.8,142.3 L465.6,142.3 L475.4,142.3 L485.1,142.3 L494.9,142.3 L504.7,142.3 L514.5,142.3 L524.3,142.3 L534.1,142.3 L543.9,142.3 L553.7,142.3 L563.5,142.3 L573.3,142.3 L583.1,142.3 L592.9,142.6 L602.7,142.6 L612.5,142.7 L622.3,143.3 L632.1,143.3 L641.9,143.3 L651.6,143.3 L661.4,143.3 L671.2,143.3 L681.0,143.3 L690.8,143.3 L700.6,143.3 L710.4,143.3 L720.2,143.3 L730.0,143.3" fill="none" stroke="#c98500" stroke-width="2" stroke-linejoin="round" stroke-linecap="round"/>
<circle cx="730.0" cy="143.3" r="6" fill="#1a1a19"/>
<circle cx="730.0" cy="143.3" r="4" fill="#c98500"/>
<path d="M64.0,195.3 L73.8,195.3 L83.6,195.4 L93.4,195.4 L103.2,195.4 L113.0,204.2 L122.8,204.1 L132.6,203.8 L142.4,203.8 L152.1,203.8 L161.9,203.9 L171.7,203.8 L181.5,203.8 L191.3,203.8 L201.1,203.8 L210.9,203.8 L220.7,203.8 L230.5,203.8 L240.3,208.4 L250.1,208.4 L259.9,208.4 L269.7,208.4 L279.5,208.4 L289.3,208.4 L299.1,208.4 L308.9,208.4 L318.6,208.5 L328.4,208.3 L338.2,208.3 L348.0,208.3 L357.8,208.3 L367.6,208.3 L377.4,208.3 L387.2,208.4 L397.0,208.4 L406.8,208.2 L416.6,208.2 L426.4,208.2 L436.2,208.2 L446.0,208.2 L455.8,208.2 L465.6,208.2 L475.4,208.2 L485.1,208.2 L494.9,208.2 L504.7,208.2 L514.5,208.2 L524.3,208.2 L534.1,208.2 L543.9,208.2 L553.7,208.4 L563.5,208.3 L573.3,208.3 L583.1,208.3 L592.9,208.6 L602.7,208.6 L612.5,208.6 L622.3,209.2 L632.1,209.2 L641.9,209.2 L651.6,209.2 L661.4,209.2 L671.2,209.2 L681.0,209.2 L690.8,209.2 L700.6,209.2 L710.4,209.2 L720.2,209.2 L730.0,209.2" fill="none" stroke="#008300" stroke-width="2" stroke-linejoin="round" stroke-linecap="round"/>
<circle cx="730.0" cy="209.2" r="6" fill="#1a1a19"/>
<circle cx="730.0" cy="209.2" r="4" fill="#008300"/>
<path d="M563.5,229.0 L573.3,229.0 L583.1,229.1 L592.9,229.3 L602.7,229.3 L612.5,229.3 L622.3,229.9 L632.1,229.9 L641.9,229.9 L651.6,229.9 L661.4,229.9 L671.2,229.9 L681.0,229.9 L690.8,229.9 L700.6,229.9 L710.4,229.9 L720.2,229.9 L730.0,229.9" fill="none" stroke="#9085e9" stroke-width="2" stroke-linejoin="round" stroke-linecap="round"/>
<circle cx="730.0" cy="229.9" r="6" fill="#1a1a19"/>
<circle cx="730.0" cy="229.9" r="4" fill="#9085e9"/>
<path d="M64.0,262.8 L73.8,262.8 L83.6,262.8 L93.4,262.8 L103.2,263.0 L113.0,263.2 L122.8,263.0 L132.6,262.4 L142.4,262.5 L152.1,262.4 L161.9,262.5 L171.7,262.5 L181.5,262.5 L191.3,262.5 L201.1,262.5 L210.9,262.5 L220.7,262.5 L230.5,262.5 L240.3,261.7 L250.1,261.7 L259.9,261.6 L269.7,261.4 L279.5,261.4 L289.3,261.4 L299.1,261.4 L308.9,261.4 L318.6,261.4 L328.4,261.3 L338.2,261.3 L348.0,261.3 L357.8,261.3 L367.6,261.3 L377.4,261.2 L387.2,261.3 L397.0,261.3 L406.8,261.0 L416.6,261.0 L426.4,261.1 L436.2,261.1 L446.0,261.1 L455.8,261.1 L465.6,261.1 L475.4,261.1 L485.1,261.1 L494.9,261.1 L504.7,261.1 L514.5,261.1 L524.3,261.1 L534.1,261.1 L543.9,261.1 L553.7,261.3 L563.5,261.2 L573.3,261.2 L583.1,261.3 L592.9,261.7 L602.7,261.8 L612.5,261.8 L622.3,263.1 L632.1,263.1 L641.9,263.1 L651.6,263.1 L661.4,263.1 L671.2,263.1 L681.0,263.0 L690.8,263.0 L700.6,263.0 L710.4,263.0 L720.2,263.0 L730.0,263.0" fill="none" stroke="#e66767" stroke-width="2" stroke-linejoin="round" stroke-linecap="round"/>
<circle cx="730.0" cy="263.0" r="6" fill="#1a1a19"/>
<circle cx="730.0" cy="263.0" r="4" fill="#e66767"/>
<circle cx="745.0" cy="60.9" r="3.5" fill="#3987e5"/>
<text x="753.0" y="64.4" font-family='system-ui, -apple-system, "Segoe UI", sans-serif' font-size="11" fill="#ffffff">granulator</text>
<text x="753.0" y="76.4" font-family='system-ui, -apple-system, "Segoe UI", sans-serif' font-size="10" style="font-variant-numeric: tabular-nums" fill="#c3c2b7">27.5M</text>
<circle cx="745.0" cy="139.8" r="3.5" fill="#c98500"/>
<text x="753.0" y="143.3" font-family='system-ui, -apple-system, "Segoe UI", sans-serif' font-size="11" fill="#ffffff">resonator</text>
<text x="753.0" y="155.3" font-family='system-ui, -apple-system, "Segoe UI", sans-serif' font-size="10" style="font-variant-numeric: tabular-nums" fill="#c3c2b7">18.5M</text>
<circle cx="745.0" cy="205.7" r="3.5" fill="#008300"/>
<text x="753.0" y="209.2" font-family='system-ui, -apple-system, "Segoe UI", sans-serif' font-size="11" fill="#ffffff">reverb</text>
<text x="753.0" y="221.2" font-family='system-ui, -apple-system, "Segoe UI", sans-serif' font-size="10" style="font-variant-numeric: tabular-nums" fill="#c3c2b7">11.0M</text>
<line x1="736.0" y1="229.9" x2="740.0" y2="237.2" stroke="#383835" stroke-width="1"/>
<circle cx="745.0" cy="233.7" r="3.5" fill="#9085e9"/>
<text x="753.0" y="237.2" font-family='system-ui, -apple-system, "Segoe UI", sans-serif' font-size="11" fill="#ffffff">saturator</text>
<text x="753.0" y="249.2" font-family='system-ui, -apple-system, "Segoe UI", sans-serif' font-size="10" style="font-variant-numeric: tabular-nums" fill="#c3c2b7">8.66M</text>
<line x1="736.0" y1="252.5" x2="740.0" y2="265.2" stroke="#383835" stroke-width="1"/>
<circle cx="745.0" cy="261.7" r="3.5" fill="#199e70"/>
<text x="753.0" y="265.2" font-family='system-ui, -apple-system, "Segoe UI", sans-serif' font-size="11" fill="#ffffff">pan</text>
<text x="753.0" y="277.2" font-family='system-ui, -apple-system, "Segoe UI", sans-serif' font-size="10" style="font-variant-numeric: tabular-nums" fill="#c3c2b7">6.09M</text>
<line x1="736.0" y1="263.0" x2="740.0" y2="293.2" stroke="#383835" stroke-width="1"/>
<circle cx="745.0" cy="289.7" r="3.5" fill="#e66767"/>
<text x="753.0" y="293.2" font-family='system-ui, -apple-system, "Segoe UI", sans-serif' font-size="11" fill="#ffffff">sequencer</text>
<text x="753.0" y="305.2" font-family='system-ui, -apple-system, "Segoe UI", sans-serif' font-size="10" style="font-variant-numeric: tabular-nums" fill="#c3c2b7">4.89M</text>
</svg>