<svg xmlns="http://www.w3.org/2000/svg" width="880" height="340" viewBox="0 0 880 340" role="img" aria-label="Heaviest operators (micro)">
<rect width="880" height="340" rx="6" fill="#fcfcfb"/>
<text x="64" y="24" font-family='system-ui, -apple-system, "Segoe UI", sans-serif' font-size="14" font-weight="600" fill="#0b0b0b">Heaviest operators (micro)</text>
<text x="64" y="41" font-family='system-ui, -apple-system, "Segoe UI", sans-serif' font-size="11" fill="#52514e">per-operator step_node cost over the same 1 s schedule - top 6 by latest Ir</text>
<line x1="64" y1="306.0" x2="730" y2="306.0" stroke="#e1e0d9" stroke-width="1"/>
<text x="56" y="309.5" text-anchor="end" font-family='system-ui, -apple-system, "Segoe UI", sans-serif' font-size="11" style="font-variant-numeric: tabular-nums" fill="#898781">0</text>
<line x1="64" y1="215.1" x2="730" y2="215.1" stroke="#e1e0d9" stroke-width="1"/>
<text x="56" y="218.6" text-anchor="end" font-family='system-ui, -apple-system, "Segoe UI", sans-serif' font-size="11" style="font-variant-numeric: tabular-nums" fill="#898781">10</text>
<line x1="64" y1="124.2" x2="730" y2="124.2" stroke="#e1e0d9" stroke-width="1"/>
<text x="56" y="127.7" text-anchor="end" font-family='system-ui, -apple-system, "Segoe UI", sans-serif' font-size="11" style="font-variant-numeric: tabular-nums" fill="#898781">20</text>
<text x="56" y="46" text-anchor="end" font-family='system-ui, -apple-system, "Segoe UI", sans-serif' font-size="10" fill="#898781">Ir (M)</text>
<line x1="64" y1="306" x2="730" y2="306" stroke="#c3c2b7" stroke-width="1"/>
<text x="64.0" y="322" text-anchor="middle" font-family='system-ui, -apple-system, "Segoe UI", sans-serif' font-size="11" style="font-variant-numeric: tabular-nums" fill="#898781">07-12</text>
<text x="150.3" y="322" text-anchor="middle" font-family='system-ui, -apple-system, "Segoe UI", sans-serif' font-size="11" style="font-variant-numeric: tabular-nums" fill="#898781">07-14</text>
<text x="261.3" y="322" text-anchor="middle" font-family='system-ui, -apple-system, "Segoe UI", sans-serif' font-size="11" style="font-variant-numeric: tabular-nums" fill="#898781">07-17</text>
<text x="409.3" y="322" text-anchor="middle" font-family='system-ui, -apple-system, "Segoe UI", sans-serif' font-size="11" style="font-variant-numeric: tabular-nums" fill="#898781">07-19</text>
<text x="631.3" y="322" text-anchor="middle" font-family='system-ui, -apple-system, "Segoe UI", sans-serif' font-size="11" style="font-variant-numeric: tabular-nums" fill="#898781">07-21</text>
<path d="M446.3,217.9 L458.7,217.9 L471.0,217.9 L483.3,217.9 L495.7,217.9 L508.0,217.9 L520.3,217.9 L532.7,217.9 L545.0,217.9 L557.3,217.9 L569.7,218.0 L582.0,218.0 L594.3,218.0 L606.7,218.0 L619.0,218.0 L631.3,218.0 L643.7,218.0 L656.0,218.0 L668.3,218.0 L680.7,218.0 L693.0,218.0 L705.3,218.0 L717.7,218.0 L730.0,218.0" fill="none" stroke="#2a78d6" stroke-width="2" stroke-linejoin="round" stroke-linecap="round"/>
<circle cx="730.0" cy="218.0" r="6" fill="#fcfcfb"/>
<circle cx="730.0" cy="218.0" r="4" fill="#2a78d6"/>
<path d="M64.0,56.0 L76.3,56.0 L88.7,56.0 L101.0,56.0 L113.3,56.0 L125.7,56.0 L138.0,56.0 L150.3,56.0 L162.7,56.0 L175.0,56.0 L187.3,56.0 L199.7,56.0 L212.0,56.0 L224.3,56.0 L236.7,56.0 L249.0,56.0 L261.3,56.0 L273.7,56.0 L286.0,56.0 L298.3,56.0 L310.7,56.0 L323.0,56.0 L335.3,56.0 L347.7,56.0 L360.0,56.0 L372.3,56.0 L384.7,56.0 L397.0,56.0 L409.3,56.0 L421.7,56.0 L434.0,56.0 L446.3,56.0 L458.7,56.0 L471.0,56.0 L483.3,56.0 L495.7,56.0 L508.0,56.0 L520.3,56.0 L532.7,56.0 L545.0,56.0 L557.3,56.0 L569.7,56.1 L582.0,56.1 L594.3,56.1 L606.7,56.1 L619.0,56.1 L631.3,56.1 L643.7,56.1 L656.0,56.1 L668.3,56.1 L680.7,56.1 L693.0,56.0 L705.3,56.0 L717.7,56.0 L730.0,56.0" fill="none" stroke="#1baf7a" stroke-width="2" stroke-linejoin="round" stroke-linecap="round"/>
<circle cx="730.0" cy="56.0" r="6" fill="#fcfcfb"/>
<circle cx="730.0" cy="56.0" r="4" fill="#1baf7a"/>
<path d="M64.0,250.6 L76.3,250.6 L88.7,250.6 L101.0,250.6 L113.3,250.6 L125.7,250.6 L138.0,250.6 L150.3,250.6 L162.7,250.6 L175.0,250.6 L187.3,250.6 L199.7,250.6 L212.0,250.6 L224.3,250.6 L236.7,250.6 L249.0,250.6 L261.3,250.6 L273.7,250.6 L286.0,250.6 L298.3,250.6 L310.7,250.6 L323.0,250.6 L335.3,250.6 L347.7,250.6 L360.0,250.6 L372.3,250.6 L384.7,250.6 L397.0,250.6 L409.3,250.6 L421.7,250.6 L434.0,250.6 L446.3,250.6 L458.7,250.6 L471.0,250.7 L483.3,250.7 L495.7,250.7 L508.0,250.7 L520.3,250.7 L532.7,250.7 L545.0,250.7 L557.3,250.7 L569.7,250.7 L582.0,250.7 L594.3,250.7 L606.7,250.7 L619.0,250.7 L631.3,250.7 L643.7,250.7 L656.0,250.7 L668.3,250.7 L680.7,250.7 L693.0,250.7 L705.3,250.7 L717.7,250.7 L730.0,250.7" fill="none" stroke="#eda100" stroke-width="2" stroke-linejoin="round" stroke-linecap="round"/>
<circle cx="730.0" cy="250.7" r="6" fill="#fcfcfb"/>
<circle cx="730.0" cy="250.7" r="4" fill="#eda100"/>
<path d="M64.0,137.6 L76.3,137.6 L88.7,137.6 L101.0,137.6 L113.3,137.6 L125.7,137.6 L138.0,138.4 L150.3,138.4 L162.7,138.4 L175.0,138.4 L187.3,138.4 L199.7,138.4 L212.0,138.4 L224.3,138.4 L236.7,138.4 L249.0,138.4 L261.3,138.4 L273.7,138.4 L286.0,138.4 L298.3,138.4 L310.7,138.4 L323.0,138.4 L335.3,138.4 L347.7,138.4 L360.0,138.4 L372.3,138.4 L384.7,138.4 L397.0,138.4 L409.3,138.4 L421.7,138.4 L434.0,138.4 L446.3,138.4 L458.7,138.4 L471.0,138.4 L483.3,138.4 L495.7,138.4 L508.0,138.4 L520.3,138.4 L532.7,138.4 L545.0,138.4 L557.3,138.4 L569.7,138.5 L582.0,138.5 L594.3,138.5 L606.7,138.5 L619.0,138.5 L631.3,138.5 L643.7,138.5 L656.0,138.5 L668.3,138.5 L680.7,138.5 L693.0,138.4 L705.3,138.4 L717.7,138.4 L730.0,138.4" fill="none" stroke="#008300" stroke-width="2" stroke-linejoin="round" stroke-linecap="round"/>
<circle cx="730.0" cy="138.4" r="6" fill="#fcfcfb"/>
<circle cx="730.0" cy="138.4" r="4" fill="#008300"/>
<path d="M64.0,205.9 L76.3,205.9 L88.7,205.9 L101.0,205.9 L113.3,205.9 L125.7,205.9 L138.0,205.9 L150.3,205.9 L162.7,205.9 L175.0,205.9 L187.3,205.9 L199.7,205.9 L212.0,205.9 L224.3,205.9 L236.7,205.9 L249.0,205.9 L261.3,205.9 L273.7,205.9 L286.0,205.9 L298.3,205.9 L310.7,205.9 L323.0,205.9 L335.3,205.9 L347.7,205.9 L360.0,205.9 L372.3,205.9 L384.7,205.9 L397.0,205.9 L409.3,205.9 L421.7,205.9 L434.0,205.9 L446.3,205.9 L458.7,205.9 L471.0,205.9 L483.3,205.9 L495.7,205.9 L508.0,205.9 L520.3,205.9 L532.7,205.9 L545.0,205.9 L557.3,205.9 L569.7,205.9 L582.0,205.9 L594.3,205.9 L606.7,205.9 L619.0,205.9 L631.3,205.9 L643.7,205.9 L656.0,205.9 L668.3,205.9 L680.7,205.9 L693.0,205.9 L705.3,205.9 L717.7,205.9 L730.0,205.9" fill="none" stroke="#4a3aa7" stroke-width="2" stroke-linejoin="round" stroke-linecap="round"/>
<circle cx="730.0" cy="205.9" r="6" fill="#fcfcfb"/>
<circle cx="730.0" cy="205.9" r="4" fill="#4a3aa7"/>
<path d="M64.0,227.3 L76.3,227.3 L88.7,227.3 L101.0,227.3 L113.3,227.3 L125.7,227.3 L138.0,227.3 L150.3,227.3 L162.7,227.3 L175.0,227.3 L187.3,227.3 L199.7,227.3 L212.0,227.3 L224.3,227.3 L236.7,227.3 L249.0,227.3 L261.3,227.3 L273.7,227.3 L286.0,227.3 L298.3,227.3 L310.7,227.3 L323.0,227.3 L335.3,227.3 L347.7,227.3 L360.0,227.3 L372.3,227.3 L384.7,227.3 L397.0,227.3 L409.3,227.3 L421.7,227.3 L434.0,227.3 L446.3,227.3 L458.7,227.3 L471.0,227.3 L483.3,227.3 L495.7,227.3 L508.0,227.3 L520.3,227.3 L532.7,227.3 L545.0,227.3 L557.3,227.3 L569.7,227.3 L582.0,227.3 L594.3,227.3 L606.7,227.3 L619.0,227.3 L631.3,227.3 L643.7,227.3 L656.0,227.3 L668.3,227.3 L680.7,227.3 L693.0,227.3 L705.3,227.3 L717.7,227.3 L730.0,227.3" fill="none" stroke="#e34948" stroke-width="2" stroke-linejoin="round" stroke-linecap="round"/>
<circle cx="730.0" cy="227.3" r="6" fill="#fcfcfb"/>
<circle cx="730.0" cy="227.3" r="4" fill="#e34948"/>
<circle cx="745.0" cy="52.5" r="3.5" fill="#1baf7a"/>
<text x="753.0" y="56.0" font-family='system-ui, -apple-system, "Segoe UI", sans-serif' font-size="11" fill="#0b0b0b">granulator</text>
<text x="753.0" y="68.0" font-family='system-ui, -apple-system, "Segoe UI", sans-serif' font-size="10" style="font-variant-numeric: tabular-nums" fill="#52514e">27.5M</text>
<circle cx="745.0" cy="134.9" r="3.5" fill="#008300"/>
<text x="753.0" y="138.4" font-family='system-ui, -apple-system, "Segoe UI", sans-serif' font-size="11" fill="#0b0b0b">resonator</text>
<text x="753.0" y="150.4" font-family='system-ui, -apple-system, "Segoe UI", sans-serif' font-size="10" style="font-variant-numeric: tabular-nums" fill="#52514e">18.4M</text>
<circle cx="745.0" cy="202.4" r="3.5" fill="#4a3aa7"/>
<text x="753.0" y="205.9" font-family='system-ui, -apple-system, "Segoe UI", sans-serif' font-size="11" fill="#0b0b0b">reverb</text>
<text x="753.0" y="217.9" font-family='system-ui, -apple-system, "Segoe UI", sans-serif' font-size="10" style="font-variant-numeric: tabular-nums" fill="#52514e">11.0M</text>
<line x1="736.0" y1="218.0" x2="740.0" y2="233.9" stroke="#c3c2b7" stroke-width="1"/>
<circle cx="745.0" cy="230.4" r="3.5" fill="#2a78d6"/>
<text x="753.0" y="233.9" font-family='system-ui, -apple-system, "Segoe UI", sans-serif' font-size="11" fill="#0b0b0b">compressor</text>
<text x="753.0" y="245.9" font-family='system-ui, -apple-system, "Segoe UI", sans-serif' font-size="10" style="font-variant-numeric: tabular-nums" fill="#52514e">9.68M</text>
<line x1="736.0" y1="227.3" x2="740.0" y2="261.9" stroke="#c3c2b7" stroke-width="1"/>
<circle cx="745.0" cy="258.4" r="3.5" fill="#e34948"/>
<text x="753.0" y="261.9" font-family='system-ui, -apple-system, "Segoe UI", sans-serif' font-size="11" fill="#0b0b0b">saturator</text>
<text x="753.0" y="273.9" font-family='system-ui, -apple-system, "Segoe UI", sans-serif' font-size="10" style="font-variant-numeric: tabular-nums" fill="#52514e">8.65M</text>
<line x1="736.0" y1="250.7" x2="740.0" y2="289.9" stroke="#c3c2b7" stroke-width="1"/>
<circle cx="745.0" cy="286.4" r="3.5" fill="#eda100"/>
<text x="753.0" y="289.9" font-family='system-ui, -apple-system, "Segoe UI", sans-serif' font-size="11" fill="#0b0b0b">pan</text>
<text x="753.0" y="301.9" font-family='system-ui, -apple-system, "Segoe UI", sans-serif' font-size="10" style="font-variant-numeric: tabular-nums" fill="#52514e">6.08M</text>
</svg>