<svg xmlns="http://www.w3.org/2000/svg" width="880" height="340" viewBox="0 0 880 340" role="img" aria-label="Heaviest operators (micro)">
<rect width="880" height="340" rx="6" fill="#1a1a19"/>
<text x="64" y="24" font-family='system-ui, -apple-system, "Segoe UI", sans-serif' font-size="14" font-weight="600" fill="#ffffff">Heaviest operators (micro)</text>
<text x="64" y="41" font-family='system-ui, -apple-system, "Segoe UI", sans-serif' font-size="11" fill="#c3c2b7">per-operator step_node cost over the same 1 s schedule - top 6 by latest Ir</text>
<line x1="64" y1="306.0" x2="730" y2="306.0" stroke="#2c2c2a" stroke-width="1"/>
<text x="56" y="309.5" text-anchor="end" font-family='system-ui, -apple-system, "Segoe UI", sans-serif' font-size="11" style="font-variant-numeric: tabular-nums" fill="#898781">0</text>
<line x1="64" y1="218.1" x2="730" y2="218.1" stroke="#2c2c2a" stroke-width="1"/>
<text x="56" y="221.6" text-anchor="end" font-family='system-ui, -apple-system, "Segoe UI", sans-serif' font-size="11" style="font-variant-numeric: tabular-nums" fill="#898781">10</text>
<line x1="64" y1="130.3" x2="730" y2="130.3" stroke="#2c2c2a" stroke-width="1"/>
<text x="56" y="133.8" text-anchor="end" font-family='system-ui, -apple-system, "Segoe UI", sans-serif' font-size="11" style="font-variant-numeric: tabular-nums" fill="#898781">20</text>
<text x="56" y="46" text-anchor="end" font-family='system-ui, -apple-system, "Segoe UI", sans-serif' font-size="10" fill="#898781">Ir (M)</text>
<line x1="64" y1="306" x2="730" y2="306" stroke="#383835" stroke-width="1"/>
<text x="64.0" y="322" text-anchor="middle" font-family='system-ui, -apple-system, "Segoe UI", sans-serif' font-size="11" style="font-variant-numeric: tabular-nums" fill="#898781">06-28</text>
<text x="163.9" y="322" text-anchor="middle" font-family='system-ui, -apple-system, "Segoe UI", sans-serif' font-size="11" style="font-variant-numeric: tabular-nums" fill="#898781">06-30</text>
<text x="247.2" y="322" text-anchor="middle" font-family='system-ui, -apple-system, "Segoe UI", sans-serif' font-size="11" style="font-variant-numeric: tabular-nums" fill="#898781">07-02</text>
<text x="430.3" y="322" text-anchor="middle" font-family='system-ui, -apple-system, "Segoe UI", sans-serif' font-size="11" style="font-variant-numeric: tabular-nums" fill="#898781">07-04</text>
<text x="696.7" y="322" text-anchor="middle" font-family='system-ui, -apple-system, "Segoe UI", sans-serif' font-size="11" style="font-variant-numeric: tabular-nums" fill="#898781">07-07</text>
<path d="M180.6,56.2 L197.2,56.2 L213.8,56.1 L230.5,61.2 L247.2,56.2 L263.8,56.2 L280.4,56.2 L297.1,56.2 L313.8,56.2 L330.4,56.2 L347.1,56.2 L363.7,56.2 L380.4,56.2 L397.0,56.2 L413.6,56.2 L430.3,56.2 L446.9,56.2 L463.6,56.2 L480.2,56.2 L496.9,60.8 L513.5,56.1 L530.2,56.1 L546.9,56.1 L563.5,56.1 L580.1,56.1 L596.8,60.6 L613.5,60.6 L630.1,56.1 L646.8,56.0 L663.4,56.0 L680.0,56.0 L696.7,56.0 L713.4,56.0 L730.0,56.0" fill="none" stroke="#3987e5" stroke-width="2" stroke-linejoin="round" stroke-linecap="round"/>
<circle cx="730.0" cy="56.0" r="6" fill="#1a1a19"/>
<circle cx="730.0" cy="56.0" r="4" fill="#3987e5"/>
<path d="M64.0,264.6 L80.7,264.6 L97.3,264.6 L114.0,264.6 L130.6,264.6 L147.2,266.2 L163.9,265.8 L180.6,265.4 L197.2,265.5 L213.8,265.4 L230.5,265.4 L247.2,265.5 L263.8,265.4 L280.4,265.5 L297.1,265.5 L313.8,265.5 L330.4,265.5 L347.1,265.5 L363.7,265.0 L380.4,265.0 L397.0,265.0 L413.6,265.0 L430.3,265.0 L446.9,265.0 L463.6,265.0 L480.2,265.0 L496.9,265.0 L513.5,264.9 L530.2,264.9 L546.9,264.9 L563.5,264.9 L580.1,264.9 L596.8,264.9 L613.5,264.9 L630.1,264.9 L646.8,264.8 L663.4,264.8 L680.0,264.8 L696.7,264.8 L713.4,264.8 L730.0,264.8" fill="none" stroke="#199e70" stroke-width="2" stroke-linejoin="round" stroke-linecap="round"/>
<circle cx="730.0" cy="264.8" r="6" fill="#1a1a19"/>
<circle cx="730.0" cy="264.8" r="4" fill="#199e70"/>
<path d="M64.0,246.7 L80.7,246.7 L97.3,246.7 L114.0,246.7 L130.6,246.7 L147.2,246.6 L163.9,246.6 L180.6,246.2 L197.2,246.3 L213.8,246.3 L230.5,246.3 L247.2,246.3 L263.8,246.3 L280.4,246.3 L297.1,246.3 L313.8,246.3 L330.4,246.3 L347.1,246.3 L363.7,251.7 L380.4,251.7 L397.0,251.7 L413.6,251.7 L430.3,251.7 L446.9,251.7 L463.6,251.7 L480.2,251.7 L496.9,251.7 L513.5,251.6 L530.2,251.6 L546.9,251.6 L563.5,251.6 L580.1,251.6 L596.8,251.6 L613.5,251.6 L630.1,251.6 L646.8,251.5 L663.4,251.5 L680.0,251.5 L696.7,251.5 L713.4,251.5 L730.0,251.5" fill="none" stroke="#c98500" stroke-width="2" stroke-linejoin="round" stroke-linecap="round"/>
<circle cx="730.0" cy="251.5" r="6" fill="#1a1a19"/>
<circle cx="730.0" cy="251.5" r="4" fill="#c98500"/>
<path d="M97.3,97.2 L114.0,97.2 L130.6,97.2 L147.2,138.2 L163.9,138.2 L180.6,137.8 L197.2,137.8 L213.8,137.8 L230.5,137.9 L247.2,137.8 L263.8,137.9 L280.4,137.8 L297.1,137.8 L313.8,137.8 L330.4,137.8 L347.1,137.8 L363.7,142.4 L380.4,142.4 L397.0,142.4 L413.6,142.4 L430.3,142.4 L446.9,142.4 L463.6,142.4 L480.2,142.4 L496.9,142.4 L513.5,142.4 L530.2,142.4 L546.9,142.4 L563.5,142.4 L580.1,142.4 L596.8,142.3 L613.5,142.4 L630.1,142.3 L646.8,142.3 L663.4,142.3 L680.0,142.3 L696.7,142.3 L713.4,142.3 L730.0,142.3" fill="none" stroke="#008300" stroke-width="2" stroke-linejoin="round" stroke-linecap="round"/>
<circle cx="730.0" cy="142.3" r="6" fill="#1a1a19"/>
<circle cx="730.0" cy="142.3" r="4" fill="#008300"/>
<path d="M64.0,195.3 L80.7,195.3 L97.3,195.4 L114.0,195.4 L130.6,195.4 L147.2,204.2 L163.9,204.1 L180.6,203.8 L197.2,203.8 L213.8,203.8 L230.5,203.9 L247.2,203.8 L263.8,203.8 L280.4,203.8 L297.1,203.8 L313.8,203.8 L330.4,203.8 L347.1,203.8 L363.7,208.4 L380.4,208.4 L397.0,208.4 L413.6,208.4 L430.3,208.4 L446.9,208.4 L463.6,208.4 L480.2,208.4 L496.9,208.5 L513.5,208.3 L530.2,208.3 L546.9,208.3 L563.5,208.3 L580.1,208.3 L596.8,208.3 L613.5,208.4 L630.1,208.4 L646.8,208.2 L663.4,208.2 L680.0,208.2 L696.7,208.2 L713.4,208.2 L730.0,208.2" fill="none" stroke="#9085e9" stroke-width="2" stroke-linejoin="round" stroke-linecap="round"/>
<circle cx="730.0" cy="208.2" r="6" fill="#1a1a19"/>
<circle cx="730.0" cy="208.2" r="4" fill="#9085e9"/>
<path d="M64.0,262.8 L80.7,262.8 L97.3,262.8 L114.0,262.8 L130.6,263.0 L147.2,263.2 L163.9,263.0 L180.6,262.4 L197.2,262.5 L213.8,262.4 L230.5,262.5 L247.2,262.5 L263.8,262.5 L280.4,262.5 L297.1,262.5 L313.8,262.5 L330.4,262.5 L347.1,262.5 L363.7,261.7 L380.4,261.7 L397.0,261.6 L413.6,261.4 L430.3,261.4 L446.9,261.4 L463.6,261.4 L480.2,261.4 L496.9,261.4 L513.5,261.3 L530.2,261.3 L546.9,261.3 L563.5,261.3 L580.1,261.3 L596.8,261.2 L613.5,261.3 L630.1,261.3 L646.8,261.0 L663.4,261.0 L680.0,261.1 L696.7,261.1 L713.4,261.1 L730.0,261.1" fill="none" stroke="#e66767" stroke-width="2" stroke-linejoin="round" stroke-linecap="round"/>
<circle cx="730.0" cy="261.1" r="6" fill="#1a1a19"/>
<circle cx="730.0" cy="261.1" r="4" fill="#e66767"/>
<circle cx="745.0" cy="52.5" r="3.5" fill="#3987e5"/>
<text x="753.0" y="56.0" font-family='system-ui, -apple-system, "Segoe UI", sans-serif' font-size="11" fill="#ffffff">granulator</text>
<text x="753.0" y="68.0" font-family='system-ui, -apple-system, "Segoe UI", sans-serif' font-size="10" style="font-variant-numeric: tabular-nums" fill="#c3c2b7">28.5M</text>
<circle cx="745.0" cy="138.8" r="3.5" fill="#008300"/>
<text x="753.0" y="142.3" font-family='system-ui, -apple-system, "Segoe UI", sans-serif' font-size="11" fill="#ffffff">resonator</text>
<text x="753.0" y="154.3" font-family='system-ui, -apple-system, "Segoe UI", sans-serif' font-size="10" style="font-variant-numeric: tabular-nums" fill="#c3c2b7">18.6M</text>
<circle cx="745.0" cy="204.7" r="3.5" fill="#9085e9"/>
<text x="753.0" y="208.2" font-family='system-ui, -apple-system, "Segoe UI", sans-serif' font-size="11" fill="#ffffff">reverb</text>
<text x="753.0" y="220.2" font-family='system-ui, -apple-system, "Segoe UI", sans-serif' font-size="10" style="font-variant-numeric: tabular-nums" fill="#c3c2b7">11.1M</text>
<circle cx="745.0" cy="248.0" r="3.5" fill="#c98500"/>
<text x="753.0" y="251.5" font-family='system-ui, -apple-system, "Segoe UI", sans-serif' font-size="11" fill="#ffffff">pan</text>
<text x="753.0" y="263.5" font-family='system-ui, -apple-system, "Segoe UI", sans-serif' font-size="10" style="font-variant-numeric: tabular-nums" fill="#c3c2b7">6.20M</text>
<line x1="736.0" y1="261.1" x2="740.0" y2="279.5" stroke="#383835" stroke-width="1"/>
<circle cx="745.0" cy="276.0" r="3.5" fill="#e66767"/>
<text x="753.0" y="279.5" font-family='system-ui, -apple-system, "Segoe UI", sans-serif' font-size="11" fill="#ffffff">sequencer</text>
<text x="753.0" y="291.5" font-family='system-ui, -apple-system, "Segoe UI", sans-serif' font-size="10" style="font-variant-numeric: tabular-nums" fill="#c3c2b7">5.11M</text>
<line x1="736.0" y1="264.8" x2="740.0" y2="307.5" stroke="#383835" stroke-width="1"/>
<circle cx="745.0" cy="304.0" r="3.5" fill="#199e70"/>
<text x="753.0" y="307.5" font-family='system-ui, -apple-system, "Segoe UI", sans-serif' font-size="11" fill="#ffffff">map_f32_signal</text>
<text x="753.0" y="319.5" font-family='system-ui, -apple-system, "Segoe UI", sans-serif' font-size="10" style="font-variant-numeric: tabular-nums" fill="#c3c2b7">4.69M</text>
</svg>