<svg xmlns="http://www.w3.org/2000/svg" width="880" height="340" viewBox="0 0 880 340" role="img" aria-label="Heaviest operators (micro)">
<rect width="880" height="340" rx="6" fill="#fcfcfb"/>
<text x="64" y="24" font-family='system-ui, -apple-system, "Segoe UI", sans-serif' font-size="14" font-weight="600" fill="#0b0b0b">Heaviest operators (micro)</text>
<text x="64" y="41" font-family='system-ui, -apple-system, "Segoe UI", sans-serif' font-size="11" fill="#52514e">per-operator step_node cost over the same 1 s schedule - top 6 by latest Ir</text>
<line x1="64" y1="306.0" x2="730" y2="306.0" stroke="#e1e0d9" stroke-width="1"/>
<text x="56" y="309.5" text-anchor="end" font-family='system-ui, -apple-system, "Segoe UI", sans-serif' font-size="11" style="font-variant-numeric: tabular-nums" fill="#898781">0</text>
<line x1="64" y1="218.1" x2="730" y2="218.1" stroke="#e1e0d9" stroke-width="1"/>
<text x="56" y="221.6" text-anchor="end" font-family='system-ui, -apple-system, "Segoe UI", sans-serif' font-size="11" style="font-variant-numeric: tabular-nums" fill="#898781">10</text>
<line x1="64" y1="130.3" x2="730" y2="130.3" stroke="#e1e0d9" stroke-width="1"/>
<text x="56" y="133.8" text-anchor="end" font-family='system-ui, -apple-system, "Segoe UI", sans-serif' font-size="11" style="font-variant-numeric: tabular-nums" fill="#898781">20</text>
<text x="56" y="46" text-anchor="end" font-family='system-ui, -apple-system, "Segoe UI", sans-serif' font-size="10" fill="#898781">Ir (M)</text>
<line x1="64" y1="306" x2="730" y2="306" stroke="#c3c2b7" stroke-width="1"/>
<text x="64.0" y="322" text-anchor="middle" font-family='system-ui, -apple-system, "Segoe UI", sans-serif' font-size="11" style="font-variant-numeric: tabular-nums" fill="#898781">06-28</text>
<text x="135.4" y="322" text-anchor="middle" font-family='system-ui, -apple-system, "Segoe UI", sans-serif' font-size="11" style="font-variant-numeric: tabular-nums" fill="#898781">06-30</text>
<text x="194.8" y="322" text-anchor="middle" font-family='system-ui, -apple-system, "Segoe UI", sans-serif' font-size="11" style="font-variant-numeric: tabular-nums" fill="#898781">07-02</text>
<text x="325.6" y="322" text-anchor="middle" font-family='system-ui, -apple-system, "Segoe UI", sans-serif' font-size="11" style="font-variant-numeric: tabular-nums" fill="#898781">07-04</text>
<text x="515.9" y="322" text-anchor="middle" font-family='system-ui, -apple-system, "Segoe UI", sans-serif' font-size="11" style="font-variant-numeric: tabular-nums" fill="#898781">07-07</text>
<text x="634.9" y="322" text-anchor="middle" font-family='system-ui, -apple-system, "Segoe UI", sans-serif' font-size="11" style="font-variant-numeric: tabular-nums" fill="#898781">07-09</text>
<text x="730.0" y="322" text-anchor="middle" font-family='system-ui, -apple-system, "Segoe UI", sans-serif' font-size="11" style="font-variant-numeric: tabular-nums" fill="#898781">07-11</text>
<path d="M147.2,56.2 L159.1,56.2 L171.0,56.1 L182.9,61.2 L194.8,56.2 L206.7,56.2 L218.6,56.2 L230.5,56.2 L242.4,56.2 L254.3,56.2 L266.2,56.2 L278.1,56.2 L290.0,56.2 L301.9,56.2 L313.8,56.2 L325.6,56.2 L337.5,56.2 L349.4,56.2 L361.3,56.2 L373.2,60.8 L385.1,56.1 L397.0,56.1 L408.9,56.1 L420.8,56.1 L432.7,56.1 L444.6,60.6 L456.5,60.6 L468.4,56.1 L480.2,56.0 L492.1,56.0 L504.0,56.0 L515.9,56.0 L527.8,56.0 L539.7,56.0 L551.6,56.0 L563.5,56.0 L575.4,56.0 L587.3,56.0 L599.2,56.0 L611.1,56.0 L623.0,56.0 L634.9,56.0 L646.8,56.0 L658.6,61.0 L670.5,61.0 L682.4,61.0 L694.3,56.1 L706.2,61.3 L718.1,56.3 L730.0,56.4" fill="none" stroke="#2a78d6" stroke-width="2" stroke-linejoin="round" stroke-linecap="round"/>
<circle cx="730.0" cy="56.4" r="6" fill="#fcfcfb"/>
<circle cx="730.0" cy="56.4" r="4" fill="#2a78d6"/>
<path d="M64.0,246.7 L75.9,246.7 L87.8,246.7 L99.7,246.7 L111.6,246.7 L123.5,246.6 L135.4,246.6 L147.2,246.2 L159.1,246.3 L171.0,246.3 L182.9,246.3 L194.8,246.3 L206.7,246.3 L218.6,246.3 L230.5,246.3 L242.4,246.3 L254.3,246.3 L266.2,246.3 L278.1,251.7 L290.0,251.7 L301.9,251.7 L313.8,251.7 L325.6,251.7 L337.5,251.7 L349.4,251.7 L361.3,251.7 L373.2,251.7 L385.1,251.6 L397.0,251.6 L408.9,251.6 L420.8,251.6 L432.7,251.6 L444.6,251.6 L456.5,251.6 L468.4,251.6 L480.2,251.5 L492.1,251.5 L504.0,251.5 L515.9,251.5 L527.8,251.5 L539.7,251.5 L551.6,251.5 L563.5,251.5 L575.4,251.5 L587.3,251.5 L599.2,251.5 L611.1,251.5 L623.0,251.5 L634.9,251.5 L646.8,251.5 L658.6,251.6 L670.5,251.6 L682.4,251.6 L694.3,251.6 L706.2,251.9 L718.1,251.9 L730.0,251.9" fill="none" stroke="#1baf7a" stroke-width="2" stroke-linejoin="round" stroke-linecap="round"/>
<circle cx="730.0" cy="251.9" r="6" fill="#fcfcfb"/>
<circle cx="730.0" cy="251.9" r="4" fill="#1baf7a"/>
<path d="M87.8,97.2 L99.7,97.2 L111.6,97.2 L123.5,138.2 L135.4,138.2 L147.2,137.8 L159.1,137.8 L171.0,137.8 L182.9,137.9 L194.8,137.8 L206.7,137.9 L218.6,137.8 L230.5,137.8 L242.4,137.8 L254.3,137.8 L266.2,137.8 L278.1,142.4 L290.0,142.4 L301.9,142.4 L313.8,142.4 L325.6,142.4 L337.5,142.4 L349.4,142.4 L361.3,142.4 L373.2,142.4 L385.1,142.4 L397.0,142.4 L408.9,142.4 L420.8,142.4 L432.7,142.4 L444.6,142.3 L456.5,142.4 L468.4,142.3 L480.2,142.3 L492.1,142.3 L504.0,142.3 L515.9,142.3 L527.8,142.3 L539.7,142.3 L551.6,142.3 L563.5,142.3 L575.4,142.3 L587.3,142.3 L599.2,142.3 L611.1,142.3 L623.0,142.3 L634.9,142.3 L646.8,142.3 L658.6,142.3 L670.5,142.3 L682.4,142.3 L694.3,142.3 L706.2,142.6 L718.1,142.6 L730.0,142.7" fill="none" stroke="#eda100" stroke-width="2" stroke-linejoin="round" stroke-linecap="round"/>
<circle cx="730.0" cy="142.7" r="6" fill="#fcfcfb"/>
<circle cx="730.0" cy="142.7" r="4" fill="#eda100"/>
<path d="M64.0,195.3 L75.9,195.3 L87.8,195.4 L99.7,195.4 L111.6,195.4 L123.5,204.2 L135.4,204.1 L147.2,203.8 L159.1,203.8 L171.0,203.8 L182.9,203.9 L194.8,203.8 L206.7,203.8 L218.6,203.8 L230.5,203.8 L242.4,203.8 L254.3,203.8 L266.2,203.8 L278.1,208.4 L290.0,208.4 L301.9,208.4 L313.8,208.4 L325.6,208.4 L337.5,208.4 L349.4,208.4 L361.3,208.4 L373.2,208.5 L385.1,208.3 L397.0,208.3 L408.9,208.3 L420.8,208.3 L432.7,208.3 L444.6,208.3 L456.5,208.4 L468.4,208.4 L480.2,208.2 L492.1,208.2 L504.0,208.2 L515.9,208.2 L527.8,208.2 L539.7,208.2 L551.6,208.2 L563.5,208.2 L575.4,208.2 L587.3,208.2 L599.2,208.2 L611.1,208.2 L623.0,208.2 L634.9,208.2 L646.8,208.2 L658.6,208.4 L670.5,208.3 L682.4,208.3 L694.3,208.3 L706.2,208.6 L718.1,208.6 L730.0,208.6" fill="none" stroke="#008300" stroke-width="2" stroke-linejoin="round" stroke-linecap="round"/>
<circle cx="730.0" cy="208.6" r="6" fill="#fcfcfb"/>
<circle cx="730.0" cy="208.6" r="4" fill="#008300"/>
<path d="M670.5,229.0 L682.4,229.0 L694.3,229.1 L706.2,229.3 L718.1,229.3 L730.0,229.3" fill="none" stroke="#4a3aa7" stroke-width="2" stroke-linejoin="round" stroke-linecap="round"/>
<circle cx="730.0" cy="229.3" r="6" fill="#fcfcfb"/>
<circle cx="730.0" cy="229.3" r="4" fill="#4a3aa7"/>
<path d="M64.0,262.8 L75.9,262.8 L87.8,262.8 L99.7,262.8 L111.6,263.0 L123.5,263.2 L135.4,263.0 L147.2,262.4 L159.1,262.5 L171.0,262.4 L182.9,262.5 L194.8,262.5 L206.7,262.5 L218.6,262.5 L230.5,262.5 L242.4,262.5 L254.3,262.5 L266.2,262.5 L278.1,261.7 L290.0,261.7 L301.9,261.6 L313.8,261.4 L325.6,261.4 L337.5,261.4 L349.4,261.4 L361.3,261.4 L373.2,261.4 L385.1,261.3 L397.0,261.3 L408.9,261.3 L420.8,261.3 L432.7,261.3 L444.6,261.2 L456.5,261.3 L468.4,261.3 L480.2,261.0 L492.1,261.0 L504.0,261.1 L515.9,261.1 L527.8,261.1 L539.7,261.1 L551.6,261.1 L563.5,261.1 L575.4,261.1 L587.3,261.1 L599.2,261.1 L611.1,261.1 L623.0,261.1 L634.9,261.1 L646.8,261.1 L658.6,261.3 L670.5,261.2 L682.4,261.2 L694.3,261.3 L706.2,261.7 L718.1,261.8 L730.0,261.8" fill="none" stroke="#e34948" stroke-width="2" stroke-linejoin="round" stroke-linecap="round"/>
<circle cx="730.0" cy="261.8" r="6" fill="#fcfcfb"/>
<circle cx="730.0" cy="261.8" r="4" fill="#e34948"/>
<circle cx="745.0" cy="52.9" r="3.5" fill="#2a78d6"/>
<text x="753.0" y="56.4" font-family='system-ui, -apple-system, "Segoe UI", sans-serif' font-size="11" fill="#0b0b0b">granulator</text>
<text x="753.0" y="68.4" font-family='system-ui, -apple-system, "Segoe UI", sans-serif' font-size="10" style="font-variant-numeric: tabular-nums" fill="#52514e">28.4M</text>
<circle cx="745.0" cy="139.2" r="3.5" fill="#eda100"/>
<text x="753.0" y="142.7" font-family='system-ui, -apple-system, "Segoe UI", sans-serif' font-size="11" fill="#0b0b0b">resonator</text>
<text x="753.0" y="154.7" font-family='system-ui, -apple-system, "Segoe UI", sans-serif' font-size="10" style="font-variant-numeric: tabular-nums" fill="#52514e">18.6M</text>
<circle cx="745.0" cy="205.1" r="3.5" fill="#008300"/>
<text x="753.0" y="208.6" font-family='system-ui, -apple-system, "Segoe UI", sans-serif' font-size="11" fill="#0b0b0b">reverb</text>
<text x="753.0" y="220.6" font-family='system-ui, -apple-system, "Segoe UI", sans-serif' font-size="10" style="font-variant-numeric: tabular-nums" fill="#52514e">11.1M</text>
<line x1="736.0" y1="229.3" x2="740.0" y2="236.6" stroke="#c3c2b7" stroke-width="1"/>
<circle cx="745.0" cy="233.1" r="3.5" fill="#4a3aa7"/>
<text x="753.0" y="236.6" font-family='system-ui, -apple-system, "Segoe UI", sans-serif' font-size="11" fill="#0b0b0b">saturator</text>
<text x="753.0" y="248.6" font-family='system-ui, -apple-system, "Segoe UI", sans-serif' font-size="10" style="font-variant-numeric: tabular-nums" fill="#52514e">8.73M</text>
<line x1="736.0" y1="251.9" x2="740.0" y2="264.6" stroke="#c3c2b7" stroke-width="1"/>
<circle cx="745.0" cy="261.1" r="3.5" fill="#1baf7a"/>
<text x="753.0" y="264.6" font-family='system-ui, -apple-system, "Segoe UI", sans-serif' font-size="11" fill="#0b0b0b">pan</text>
<text x="753.0" y="276.6" font-family='system-ui, -apple-system, "Segoe UI", sans-serif' font-size="10" style="font-variant-numeric: tabular-nums" fill="#52514e">6.16M</text>
<line x1="736.0" y1="261.8" x2="740.0" y2="292.6" stroke="#c3c2b7" stroke-width="1"/>
<circle cx="745.0" cy="289.1" r="3.5" fill="#e34948"/>
<text x="753.0" y="292.6" font-family='system-ui, -apple-system, "Segoe UI", sans-serif' font-size="11" fill="#0b0b0b">sequencer</text>
<text x="753.0" y="304.6" font-family='system-ui, -apple-system, "Segoe UI", sans-serif' font-size="10" style="font-variant-numeric: tabular-nums" fill="#52514e">5.03M</text>
</svg>