<svg xmlns="http://www.w3.org/2000/svg" width="880" height="340" viewBox="0 0 880 340" role="img" aria-label="Heaviest operators (micro)">
<rect width="880" height="340" rx="6" fill="#1a1a19"/>
<text x="64" y="24" font-family='system-ui, -apple-system, "Segoe UI", sans-serif' font-size="14" font-weight="600" fill="#ffffff">Heaviest operators (micro)</text>
<text x="64" y="41" font-family='system-ui, -apple-system, "Segoe UI", sans-serif' font-size="11" fill="#c3c2b7">per-operator step_node cost over the same 1 s schedule - top 6 by latest Ir</text>
<line x1="64" y1="306.0" x2="730" y2="306.0" stroke="#2c2c2a" stroke-width="1"/>
<text x="56" y="309.5" text-anchor="end" font-family='system-ui, -apple-system, "Segoe UI", sans-serif' font-size="11" style="font-variant-numeric: tabular-nums" fill="#898781">0</text>
<line x1="64" y1="218.1" x2="730" y2="218.1" stroke="#2c2c2a" stroke-width="1"/>
<text x="56" y="221.6" text-anchor="end" font-family='system-ui, -apple-system, "Segoe UI", sans-serif' font-size="11" style="font-variant-numeric: tabular-nums" fill="#898781">10</text>
<line x1="64" y1="130.3" x2="730" y2="130.3" stroke="#2c2c2a" stroke-width="1"/>
<text x="56" y="133.8" text-anchor="end" font-family='system-ui, -apple-system, "Segoe UI", sans-serif' font-size="11" style="font-variant-numeric: tabular-nums" fill="#898781">20</text>
<text x="56" y="46" text-anchor="end" font-family='system-ui, -apple-system, "Segoe UI", sans-serif' font-size="10" fill="#898781">Ir (M)</text>
<line x1="64" y1="306" x2="730" y2="306" stroke="#383835" stroke-width="1"/>
<text x="64.0" y="322" text-anchor="middle" font-family='system-ui, -apple-system, "Segoe UI", sans-serif' font-size="11" style="font-variant-numeric: tabular-nums" fill="#898781">06-28</text>
<text x="130.6" y="322" text-anchor="middle" font-family='system-ui, -apple-system, "Segoe UI", sans-serif' font-size="11" style="font-variant-numeric: tabular-nums" fill="#898781">06-30</text>
<text x="186.1" y="322" text-anchor="middle" font-family='system-ui, -apple-system, "Segoe UI", sans-serif' font-size="11" style="font-variant-numeric: tabular-nums" fill="#898781">07-02</text>
<text x="308.2" y="322" text-anchor="middle" font-family='system-ui, -apple-system, "Segoe UI", sans-serif' font-size="11" style="font-variant-numeric: tabular-nums" fill="#898781">07-04</text>
<text x="485.8" y="322" text-anchor="middle" font-family='system-ui, -apple-system, "Segoe UI", sans-serif' font-size="11" style="font-variant-numeric: tabular-nums" fill="#898781">07-07</text>
<text x="596.8" y="322" text-anchor="middle" font-family='system-ui, -apple-system, "Segoe UI", sans-serif' font-size="11" style="font-variant-numeric: tabular-nums" fill="#898781">07-09</text>
<text x="685.6" y="322" text-anchor="middle" font-family='system-ui, -apple-system, "Segoe UI", sans-serif' font-size="11" style="font-variant-numeric: tabular-nums" fill="#898781">07-11</text>
<path d="M141.7,56.2 L152.8,56.2 L163.9,56.1 L175.0,61.2 L186.1,56.2 L197.2,56.2 L208.3,56.2 L219.4,56.2 L230.5,56.2 L241.6,56.2 L252.7,56.2 L263.8,56.2 L274.9,56.2 L286.0,56.2 L297.1,56.2 L308.2,56.2 L319.3,56.2 L330.4,56.2 L341.5,56.2 L352.6,60.8 L363.7,56.1 L374.8,56.1 L385.9,56.1 L397.0,56.1 L408.1,56.1 L419.2,60.6 L430.3,60.6 L441.4,56.1 L452.5,56.0 L463.6,56.0 L474.7,56.0 L485.8,56.0 L496.9,56.0 L508.0,56.0 L519.1,56.0 L530.2,56.0 L541.3,56.0 L552.4,56.0 L563.5,56.0 L574.6,56.0 L585.7,56.0 L596.8,56.0 L607.9,56.0 L619.0,61.0 L630.1,61.0 L641.2,61.0 L652.3,56.1 L663.4,61.3 L674.5,56.3 L685.6,56.4 L696.7,64.4 L707.8,64.4 L718.9,64.4 L730.0,64.4" fill="none" stroke="#3987e5" stroke-width="2" stroke-linejoin="round" stroke-linecap="round"/>
<circle cx="730.0" cy="64.4" r="6" fill="#1a1a19"/>
<circle cx="730.0" cy="64.4" r="4" fill="#3987e5"/>
<path d="M64.0,246.7 L75.1,246.7 L86.2,246.7 L97.3,246.7 L108.4,246.7 L119.5,246.6 L130.6,246.6 L141.7,246.2 L152.8,246.3 L163.9,246.3 L175.0,246.3 L186.1,246.3 L197.2,246.3 L208.3,246.3 L219.4,246.3 L230.5,246.3 L241.6,246.3 L252.7,246.3 L263.8,251.7 L274.9,251.7 L286.0,251.7 L297.1,251.7 L308.2,251.7 L319.3,251.7 L330.4,251.7 L341.5,251.7 L352.6,251.7 L363.7,251.6 L374.8,251.6 L385.9,251.6 L397.0,251.6 L408.1,251.6 L419.2,251.6 L430.3,251.6 L441.4,251.6 L452.5,251.5 L463.6,251.5 L474.7,251.5 L485.8,251.5 L496.9,251.5 L508.0,251.5 L519.1,251.5 L530.2,251.5 L541.3,251.5 L552.4,251.5 L563.5,251.5 L574.6,251.5 L585.7,251.5 L596.8,251.5 L607.9,251.5 L619.0,251.6 L630.1,251.6 L641.2,251.6 L652.3,251.6 L663.4,251.9 L674.5,251.9 L685.6,251.9 L696.7,252.5 L707.8,252.5 L718.9,252.5 L730.0,252.5" fill="none" stroke="#199e70" stroke-width="2" stroke-linejoin="round" stroke-linecap="round"/>
<circle cx="730.0" cy="252.5" r="6" fill="#1a1a19"/>
<circle cx="730.0" cy="252.5" r="4" fill="#199e70"/>
<path d="M86.2,97.2 L97.3,97.2 L108.4,97.2 L119.5,138.2 L130.6,138.2 L141.7,137.8 L152.8,137.8 L163.9,137.8 L175.0,137.9 L186.1,137.8 L197.2,137.9 L208.3,137.8 L219.4,137.8 L230.5,137.8 L241.6,137.8 L252.7,137.8 L263.8,142.4 L274.9,142.4 L286.0,142.4 L297.1,142.4 L308.2,142.4 L319.3,142.4 L330.4,142.4 L341.5,142.4 L352.6,142.4 L363.7,142.4 L374.8,142.4 L385.9,142.4 L397.0,142.4 L408.1,142.4 L419.2,142.3 L430.3,142.4 L441.4,142.3 L452.5,142.3 L463.6,142.3 L474.7,142.3 L485.8,142.3 L496.9,142.3 L508.0,142.3 L519.1,142.3 L530.2,142.3 L541.3,142.3 L552.4,142.3 L563.5,142.3 L574.6,142.3 L585.7,142.3 L596.8,142.3 L607.9,142.3 L619.0,142.3 L630.1,142.3 L641.2,142.3 L652.3,142.3 L663.4,142.6 L674.5,142.6 L685.6,142.7 L696.7,143.3 L707.8,143.3 L718.9,143.3 L730.0,143.3" fill="none" stroke="#c98500" stroke-width="2" stroke-linejoin="round" stroke-linecap="round"/>
<circle cx="730.0" cy="143.3" r="6" fill="#1a1a19"/>
<circle cx="730.0" cy="143.3" r="4" fill="#c98500"/>
<path d="M64.0,195.3 L75.1,195.3 L86.2,195.4 L97.3,195.4 L108.4,195.4 L119.5,204.2 L130.6,204.1 L141.7,203.8 L152.8,203.8 L163.9,203.8 L175.0,203.9 L186.1,203.8 L197.2,203.8 L208.3,203.8 L219.4,203.8 L230.5,203.8 L241.6,203.8 L252.7,203.8 L263.8,208.4 L274.9,208.4 L286.0,208.4 L297.1,208.4 L308.2,208.4 L319.3,208.4 L330.4,208.4 L341.5,208.4 L352.6,208.5 L363.7,208.3 L374.8,208.3 L385.9,208.3 L397.0,208.3 L408.1,208.3 L419.2,208.3 L430.3,208.4 L441.4,208.4 L452.5,208.2 L463.6,208.2 L474.7,208.2 L485.8,208.2 L496.9,208.2 L508.0,208.2 L519.1,208.2 L530.2,208.2 L541.3,208.2 L552.4,208.2 L563.5,208.2 L574.6,208.2 L585.7,208.2 L596.8,208.2 L607.9,208.2 L619.0,208.4 L630.1,208.3 L641.2,208.3 L652.3,208.3 L663.4,208.6 L674.5,208.6 L685.6,208.6 L696.7,209.2 L707.8,209.2 L718.9,209.2 L730.0,209.2" fill="none" stroke="#008300" stroke-width="2" stroke-linejoin="round" stroke-linecap="round"/>
<circle cx="730.0" cy="209.2" r="6" fill="#1a1a19"/>
<circle cx="730.0" cy="209.2" r="4" fill="#008300"/>
<path d="M630.1,229.0 L641.2,229.0 L652.3,229.1 L663.4,229.3 L674.5,229.3 L685.6,229.3 L696.7,229.9 L707.8,229.9 L718.9,229.9 L730.0,229.9" fill="none" stroke="#9085e9" stroke-width="2" stroke-linejoin="round" stroke-linecap="round"/>
<circle cx="730.0" cy="229.9" r="6" fill="#1a1a19"/>
<circle cx="730.0" cy="229.9" r="4" fill="#9085e9"/>
<path d="M64.0,262.8 L75.1,262.8 L86.2,262.8 L97.3,262.8 L108.4,263.0 L119.5,263.2 L130.6,263.0 L141.7,262.4 L152.8,262.5 L163.9,262.4 L175.0,262.5 L186.1,262.5 L197.2,262.5 L208.3,262.5 L219.4,262.5 L230.5,262.5 L241.6,262.5 L252.7,262.5 L263.8,261.7 L274.9,261.7 L286.0,261.6 L297.1,261.4 L308.2,261.4 L319.3,261.4 L330.4,261.4 L341.5,261.4 L352.6,261.4 L363.7,261.3 L374.8,261.3 L385.9,261.3 L397.0,261.3 L408.1,261.3 L419.2,261.2 L430.3,261.3 L441.4,261.3 L452.5,261.0 L463.6,261.0 L474.7,261.1 L485.8,261.1 L496.9,261.1 L508.0,261.1 L519.1,261.1 L530.2,261.1 L541.3,261.1 L552.4,261.1 L563.5,261.1 L574.6,261.1 L585.7,261.1 L596.8,261.1 L607.9,261.1 L619.0,261.3 L630.1,261.2 L641.2,261.2 L652.3,261.3 L663.4,261.7 L674.5,261.8 L685.6,261.8 L696.7,263.1 L707.8,263.1 L718.9,263.1 L730.0,263.1" fill="none" stroke="#e66767" stroke-width="2" stroke-linejoin="round" stroke-linecap="round"/>
<circle cx="730.0" cy="263.1" r="6" fill="#1a1a19"/>
<circle cx="730.0" cy="263.1" r="4" fill="#e66767"/>
<circle cx="745.0" cy="60.9" r="3.5" fill="#3987e5"/>
<text x="753.0" y="64.4" font-family='system-ui, -apple-system, "Segoe UI", sans-serif' font-size="11" fill="#ffffff">granulator</text>
<text x="753.0" y="76.4" font-family='system-ui, -apple-system, "Segoe UI", sans-serif' font-size="10" style="font-variant-numeric: tabular-nums" fill="#c3c2b7">27.5M</text>
<circle cx="745.0" cy="139.8" r="3.5" fill="#c98500"/>
<text x="753.0" y="143.3" font-family='system-ui, -apple-system, "Segoe UI", sans-serif' font-size="11" fill="#ffffff">resonator</text>
<text x="753.0" y="155.3" font-family='system-ui, -apple-system, "Segoe UI", sans-serif' font-size="10" style="font-variant-numeric: tabular-nums" fill="#c3c2b7">18.5M</text>
<circle cx="745.0" cy="205.7" r="3.5" fill="#008300"/>
<text x="753.0" y="209.2" font-family='system-ui, -apple-system, "Segoe UI", sans-serif' font-size="11" fill="#ffffff">reverb</text>
<text x="753.0" y="221.2" font-family='system-ui, -apple-system, "Segoe UI", sans-serif' font-size="10" style="font-variant-numeric: tabular-nums" fill="#c3c2b7">11.0M</text>
<line x1="736.0" y1="229.9" x2="740.0" y2="237.2" stroke="#383835" stroke-width="1"/>
<circle cx="745.0" cy="233.7" r="3.5" fill="#9085e9"/>
<text x="753.0" y="237.2" font-family='system-ui, -apple-system, "Segoe UI", sans-serif' font-size="11" fill="#ffffff">saturator</text>
<text x="753.0" y="249.2" font-family='system-ui, -apple-system, "Segoe UI", sans-serif' font-size="10" style="font-variant-numeric: tabular-nums" fill="#c3c2b7">8.66M</text>
<line x1="736.0" y1="252.5" x2="740.0" y2="265.2" stroke="#383835" stroke-width="1"/>
<circle cx="745.0" cy="261.7" r="3.5" fill="#199e70"/>
<text x="753.0" y="265.2" font-family='system-ui, -apple-system, "Segoe UI", sans-serif' font-size="11" fill="#ffffff">pan</text>
<text x="753.0" y="277.2" font-family='system-ui, -apple-system, "Segoe UI", sans-serif' font-size="10" style="font-variant-numeric: tabular-nums" fill="#c3c2b7">6.09M</text>
<line x1="736.0" y1="263.1" x2="740.0" y2="293.2" stroke="#383835" stroke-width="1"/>
<circle cx="745.0" cy="289.7" r="3.5" fill="#e66767"/>
<text x="753.0" y="293.2" font-family='system-ui, -apple-system, "Segoe UI", sans-serif' font-size="11" fill="#ffffff">sequencer</text>
<text x="753.0" y="305.2" font-family='system-ui, -apple-system, "Segoe UI", sans-serif' font-size="10" style="font-variant-numeric: tabular-nums" fill="#c3c2b7">4.89M</text>
</svg>