<svg xmlns="http://www.w3.org/2000/svg" width="880" height="340" viewBox="0 0 880 340" role="img" aria-label="Heaviest operators (micro)">
<rect width="880" height="340" rx="6" fill="#1a1a19"/>
<text x="64" y="24" font-family='system-ui, -apple-system, "Segoe UI", sans-serif' font-size="14" font-weight="600" fill="#ffffff">Heaviest operators (micro)</text>
<text x="64" y="41" font-family='system-ui, -apple-system, "Segoe UI", sans-serif' font-size="11" fill="#c3c2b7">per-operator step_node cost over the same 1 s schedule - top 6 by latest Ir</text>
<line x1="64" y1="306.0" x2="730" y2="306.0" stroke="#2c2c2a" stroke-width="1"/>
<text x="56" y="309.5" text-anchor="end" font-family='system-ui, -apple-system, "Segoe UI", sans-serif' font-size="11" style="font-variant-numeric: tabular-nums" fill="#898781">0</text>
<line x1="64" y1="218.1" x2="730" y2="218.1" stroke="#2c2c2a" stroke-width="1"/>
<text x="56" y="221.6" text-anchor="end" font-family='system-ui, -apple-system, "Segoe UI", sans-serif' font-size="11" style="font-variant-numeric: tabular-nums" fill="#898781">10</text>
<line x1="64" y1="130.3" x2="730" y2="130.3" stroke="#2c2c2a" stroke-width="1"/>
<text x="56" y="133.8" text-anchor="end" font-family='system-ui, -apple-system, "Segoe UI", sans-serif' font-size="11" style="font-variant-numeric: tabular-nums" fill="#898781">20</text>
<text x="56" y="46" text-anchor="end" font-family='system-ui, -apple-system, "Segoe UI", sans-serif' font-size="10" fill="#898781">Ir (M)</text>
<line x1="64" y1="306" x2="730" y2="306" stroke="#383835" stroke-width="1"/>
<text x="64.0" y="322" text-anchor="middle" font-family='system-ui, -apple-system, "Segoe UI", sans-serif' font-size="11" style="font-variant-numeric: tabular-nums" fill="#898781">06-28</text>
<text x="126.4" y="322" text-anchor="middle" font-family='system-ui, -apple-system, "Segoe UI", sans-serif' font-size="11" style="font-variant-numeric: tabular-nums" fill="#898781">06-30</text>
<text x="178.5" y="322" text-anchor="middle" font-family='system-ui, -apple-system, "Segoe UI", sans-serif' font-size="11" style="font-variant-numeric: tabular-nums" fill="#898781">07-02</text>
<text x="292.9" y="322" text-anchor="middle" font-family='system-ui, -apple-system, "Segoe UI", sans-serif' font-size="11" style="font-variant-numeric: tabular-nums" fill="#898781">07-04</text>
<text x="459.4" y="322" text-anchor="middle" font-family='system-ui, -apple-system, "Segoe UI", sans-serif' font-size="11" style="font-variant-numeric: tabular-nums" fill="#898781">07-07</text>
<text x="563.5" y="322" text-anchor="middle" font-family='system-ui, -apple-system, "Segoe UI", sans-serif' font-size="11" style="font-variant-numeric: tabular-nums" fill="#898781">07-09</text>
<text x="646.8" y="322" text-anchor="middle" font-family='system-ui, -apple-system, "Segoe UI", sans-serif' font-size="11" style="font-variant-numeric: tabular-nums" fill="#898781">07-11</text>
<path d="M136.8,56.2 L147.2,56.2 L157.7,56.1 L168.1,61.2 L178.5,56.2 L188.9,56.2 L199.3,56.2 L209.7,56.2 L220.1,56.2 L230.5,56.2 L240.9,56.2 L251.3,56.2 L261.7,56.2 L272.1,56.2 L282.5,56.2 L292.9,56.2 L303.3,56.2 L313.8,56.2 L324.2,56.2 L334.6,60.8 L345.0,56.1 L355.4,56.1 L365.8,56.1 L376.2,56.1 L386.6,56.1 L397.0,60.6 L407.4,60.6 L417.8,56.1 L428.2,56.0 L438.6,56.0 L449.0,56.0 L459.4,56.0 L469.8,56.0 L480.2,56.0 L490.7,56.0 L501.1,56.0 L511.5,56.0 L521.9,56.0 L532.3,56.0 L542.7,56.0 L553.1,56.0 L563.5,56.0 L573.9,56.0 L584.3,61.0 L594.7,61.0 L605.1,61.0 L615.5,56.1 L625.9,61.3 L636.3,56.3 L646.8,56.4 L657.2,64.4 L667.6,64.4 L678.0,64.4 L688.4,64.4 L698.8,64.4 L709.2,64.4 L719.6,64.4 L730.0,64.4" fill="none" stroke="#3987e5" stroke-width="2" stroke-linejoin="round" stroke-linecap="round"/>
<circle cx="730.0" cy="64.4" r="6" fill="#1a1a19"/>
<circle cx="730.0" cy="64.4" r="4" fill="#3987e5"/>
<path d="M64.0,246.7 L74.4,246.7 L84.8,246.7 L95.2,246.7 L105.6,246.7 L116.0,246.6 L126.4,246.6 L136.8,246.2 L147.2,246.3 L157.7,246.3 L168.1,246.3 L178.5,246.3 L188.9,246.3 L199.3,246.3 L209.7,246.3 L220.1,246.3 L230.5,246.3 L240.9,246.3 L251.3,251.7 L261.7,251.7 L272.1,251.7 L282.5,251.7 L292.9,251.7 L303.3,251.7 L313.8,251.7 L324.2,251.7 L334.6,251.7 L345.0,251.6 L355.4,251.6 L365.8,251.6 L376.2,251.6 L386.6,251.6 L397.0,251.6 L407.4,251.6 L417.8,251.6 L428.2,251.5 L438.6,251.5 L449.0,251.5 L459.4,251.5 L469.8,251.5 L480.2,251.5 L490.7,251.5 L501.1,251.5 L511.5,251.5 L521.9,251.5 L532.3,251.5 L542.7,251.5 L553.1,251.5 L563.5,251.5 L573.9,251.5 L584.3,251.6 L594.7,251.6 L605.1,251.6 L615.5,251.6 L625.9,251.9 L636.3,251.9 L646.8,251.9 L657.2,252.5 L667.6,252.5 L678.0,252.5 L688.4,252.5 L698.8,252.5 L709.2,252.5 L719.6,252.5 L730.0,252.5" fill="none" stroke="#199e70" stroke-width="2" stroke-linejoin="round" stroke-linecap="round"/>
<circle cx="730.0" cy="252.5" r="6" fill="#1a1a19"/>
<circle cx="730.0" cy="252.5" r="4" fill="#199e70"/>
<path d="M84.8,97.2 L95.2,97.2 L105.6,97.2 L116.0,138.2 L126.4,138.2 L136.8,137.8 L147.2,137.8 L157.7,137.8 L168.1,137.9 L178.5,137.8 L188.9,137.9 L199.3,137.8 L209.7,137.8 L220.1,137.8 L230.5,137.8 L240.9,137.8 L251.3,142.4 L261.7,142.4 L272.1,142.4 L282.5,142.4 L292.9,142.4 L303.3,142.4 L313.8,142.4 L324.2,142.4 L334.6,142.4 L345.0,142.4 L355.4,142.4 L365.8,142.4 L376.2,142.4 L386.6,142.4 L397.0,142.3 L407.4,142.4 L417.8,142.3 L428.2,142.3 L438.6,142.3 L449.0,142.3 L459.4,142.3 L469.8,142.3 L480.2,142.3 L490.7,142.3 L501.1,142.3 L511.5,142.3 L521.9,142.3 L532.3,142.3 L542.7,142.3 L553.1,142.3 L563.5,142.3 L573.9,142.3 L584.3,142.3 L594.7,142.3 L605.1,142.3 L615.5,142.3 L625.9,142.6 L636.3,142.6 L646.8,142.7 L657.2,143.3 L667.6,143.3 L678.0,143.3 L688.4,143.3 L698.8,143.3 L709.2,143.3 L719.6,143.3 L730.0,143.3" fill="none" stroke="#c98500" stroke-width="2" stroke-linejoin="round" stroke-linecap="round"/>
<circle cx="730.0" cy="143.3" r="6" fill="#1a1a19"/>
<circle cx="730.0" cy="143.3" r="4" fill="#c98500"/>
<path d="M64.0,195.3 L74.4,195.3 L84.8,195.4 L95.2,195.4 L105.6,195.4 L116.0,204.2 L126.4,204.1 L136.8,203.8 L147.2,203.8 L157.7,203.8 L168.1,203.9 L178.5,203.8 L188.9,203.8 L199.3,203.8 L209.7,203.8 L220.1,203.8 L230.5,203.8 L240.9,203.8 L251.3,208.4 L261.7,208.4 L272.1,208.4 L282.5,208.4 L292.9,208.4 L303.3,208.4 L313.8,208.4 L324.2,208.4 L334.6,208.5 L345.0,208.3 L355.4,208.3 L365.8,208.3 L376.2,208.3 L386.6,208.3 L397.0,208.3 L407.4,208.4 L417.8,208.4 L428.2,208.2 L438.6,208.2 L449.0,208.2 L459.4,208.2 L469.8,208.2 L480.2,208.2 L490.7,208.2 L501.1,208.2 L511.5,208.2 L521.9,208.2 L532.3,208.2 L542.7,208.2 L553.1,208.2 L563.5,208.2 L573.9,208.2 L584.3,208.4 L594.7,208.3 L605.1,208.3 L615.5,208.3 L625.9,208.6 L636.3,208.6 L646.8,208.6 L657.2,209.2 L667.6,209.2 L678.0,209.2 L688.4,209.2 L698.8,209.2 L709.2,209.2 L719.6,209.2 L730.0,209.2" fill="none" stroke="#008300" stroke-width="2" stroke-linejoin="round" stroke-linecap="round"/>
<circle cx="730.0" cy="209.2" r="6" fill="#1a1a19"/>
<circle cx="730.0" cy="209.2" r="4" fill="#008300"/>
<path d="M594.7,229.0 L605.1,229.0 L615.5,229.1 L625.9,229.3 L636.3,229.3 L646.8,229.3 L657.2,229.9 L667.6,229.9 L678.0,229.9 L688.4,229.9 L698.8,229.9 L709.2,229.9 L719.6,229.9 L730.0,229.9" fill="none" stroke="#9085e9" stroke-width="2" stroke-linejoin="round" stroke-linecap="round"/>
<circle cx="730.0" cy="229.9" r="6" fill="#1a1a19"/>
<circle cx="730.0" cy="229.9" r="4" fill="#9085e9"/>
<path d="M64.0,262.8 L74.4,262.8 L84.8,262.8 L95.2,262.8 L105.6,263.0 L116.0,263.2 L126.4,263.0 L136.8,262.4 L147.2,262.5 L157.7,262.4 L168.1,262.5 L178.5,262.5 L188.9,262.5 L199.3,262.5 L209.7,262.5 L220.1,262.5 L230.5,262.5 L240.9,262.5 L251.3,261.7 L261.7,261.7 L272.1,261.6 L282.5,261.4 L292.9,261.4 L303.3,261.4 L313.8,261.4 L324.2,261.4 L334.6,261.4 L345.0,261.3 L355.4,261.3 L365.8,261.3 L376.2,261.3 L386.6,261.3 L397.0,261.2 L407.4,261.3 L417.8,261.3 L428.2,261.0 L438.6,261.0 L449.0,261.1 L459.4,261.1 L469.8,261.1 L480.2,261.1 L490.7,261.1 L501.1,261.1 L511.5,261.1 L521.9,261.1 L532.3,261.1 L542.7,261.1 L553.1,261.1 L563.5,261.1 L573.9,261.1 L584.3,261.3 L594.7,261.2 L605.1,261.2 L615.5,261.3 L625.9,261.7 L636.3,261.8 L646.8,261.8 L657.2,263.1 L667.6,263.1 L678.0,263.1 L688.4,263.1 L698.8,263.1 L709.2,263.1 L719.6,263.0 L730.0,263.0" fill="none" stroke="#e66767" stroke-width="2" stroke-linejoin="round" stroke-linecap="round"/>
<circle cx="730.0" cy="263.0" r="6" fill="#1a1a19"/>
<circle cx="730.0" cy="263.0" r="4" fill="#e66767"/>
<circle cx="745.0" cy="60.9" r="3.5" fill="#3987e5"/>
<text x="753.0" y="64.4" font-family='system-ui, -apple-system, "Segoe UI", sans-serif' font-size="11" fill="#ffffff">granulator</text>
<text x="753.0" y="76.4" font-family='system-ui, -apple-system, "Segoe UI", sans-serif' font-size="10" style="font-variant-numeric: tabular-nums" fill="#c3c2b7">27.5M</text>
<circle cx="745.0" cy="139.8" r="3.5" fill="#c98500"/>
<text x="753.0" y="143.3" font-family='system-ui, -apple-system, "Segoe UI", sans-serif' font-size="11" fill="#ffffff">resonator</text>
<text x="753.0" y="155.3" font-family='system-ui, -apple-system, "Segoe UI", sans-serif' font-size="10" style="font-variant-numeric: tabular-nums" fill="#c3c2b7">18.5M</text>
<circle cx="745.0" cy="205.7" r="3.5" fill="#008300"/>
<text x="753.0" y="209.2" font-family='system-ui, -apple-system, "Segoe UI", sans-serif' font-size="11" fill="#ffffff">reverb</text>
<text x="753.0" y="221.2" font-family='system-ui, -apple-system, "Segoe UI", sans-serif' font-size="10" style="font-variant-numeric: tabular-nums" fill="#c3c2b7">11.0M</text>
<line x1="736.0" y1="229.9" x2="740.0" y2="237.2" stroke="#383835" stroke-width="1"/>
<circle cx="745.0" cy="233.7" r="3.5" fill="#9085e9"/>
<text x="753.0" y="237.2" font-family='system-ui, -apple-system, "Segoe UI", sans-serif' font-size="11" fill="#ffffff">saturator</text>
<text x="753.0" y="249.2" font-family='system-ui, -apple-system, "Segoe UI", sans-serif' font-size="10" style="font-variant-numeric: tabular-nums" fill="#c3c2b7">8.66M</text>
<line x1="736.0" y1="252.5" x2="740.0" y2="265.2" stroke="#383835" stroke-width="1"/>
<circle cx="745.0" cy="261.7" r="3.5" fill="#199e70"/>
<text x="753.0" y="265.2" font-family='system-ui, -apple-system, "Segoe UI", sans-serif' font-size="11" fill="#ffffff">pan</text>
<text x="753.0" y="277.2" font-family='system-ui, -apple-system, "Segoe UI", sans-serif' font-size="10" style="font-variant-numeric: tabular-nums" fill="#c3c2b7">6.09M</text>
<line x1="736.0" y1="263.0" x2="740.0" y2="293.2" stroke="#383835" stroke-width="1"/>
<circle cx="745.0" cy="289.7" r="3.5" fill="#e66767"/>
<text x="753.0" y="293.2" font-family='system-ui, -apple-system, "Segoe UI", sans-serif' font-size="11" fill="#ffffff">sequencer</text>
<text x="753.0" y="305.2" font-family='system-ui, -apple-system, "Segoe UI", sans-serif' font-size="10" style="font-variant-numeric: tabular-nums" fill="#c3c2b7">4.89M</text>
</svg>