<svg xmlns="http://www.w3.org/2000/svg" width="880" height="340" viewBox="0 0 880 340" role="img" aria-label="Heaviest operators (micro)">
<rect width="880" height="340" rx="6" fill="#1a1a19"/>
<text x="64" y="24" font-family='system-ui, -apple-system, "Segoe UI", sans-serif' font-size="14" font-weight="600" fill="#ffffff">Heaviest operators (micro)</text>
<text x="64" y="41" font-family='system-ui, -apple-system, "Segoe UI", sans-serif' font-size="11" fill="#c3c2b7">per-operator step_node cost over the same 1 s schedule - top 6 by latest Ir</text>
<line x1="64" y1="306.0" x2="730" y2="306.0" stroke="#2c2c2a" stroke-width="1"/>
<text x="56" y="309.5" text-anchor="end" font-family='system-ui, -apple-system, "Segoe UI", sans-serif' font-size="11" style="font-variant-numeric: tabular-nums" fill="#898781">0</text>
<line x1="64" y1="215.1" x2="730" y2="215.1" stroke="#2c2c2a" stroke-width="1"/>
<text x="56" y="218.6" text-anchor="end" font-family='system-ui, -apple-system, "Segoe UI", sans-serif' font-size="11" style="font-variant-numeric: tabular-nums" fill="#898781">10</text>
<line x1="64" y1="124.2" x2="730" y2="124.2" stroke="#2c2c2a" stroke-width="1"/>
<text x="56" y="127.7" text-anchor="end" font-family='system-ui, -apple-system, "Segoe UI", sans-serif' font-size="11" style="font-variant-numeric: tabular-nums" fill="#898781">20</text>
<text x="56" y="46" text-anchor="end" font-family='system-ui, -apple-system, "Segoe UI", sans-serif' font-size="10" fill="#898781">Ir (M)</text>
<line x1="64" y1="306" x2="730" y2="306" stroke="#383835" stroke-width="1"/>
<text x="64.0" y="322" text-anchor="middle" font-family='system-ui, -apple-system, "Segoe UI", sans-serif' font-size="11" style="font-variant-numeric: tabular-nums" fill="#898781">07-12</text>
<text x="172.0" y="322" text-anchor="middle" font-family='system-ui, -apple-system, "Segoe UI", sans-serif' font-size="11" style="font-variant-numeric: tabular-nums" fill="#898781">07-13</text>
<text x="190.0" y="322" text-anchor="middle" font-family='system-ui, -apple-system, "Segoe UI", sans-serif' font-size="11" style="font-variant-numeric: tabular-nums" fill="#898781">07-14</text>
<text x="208.0" y="322" text-anchor="middle" font-family='system-ui, -apple-system, "Segoe UI", sans-serif' font-size="11" style="font-variant-numeric: tabular-nums" fill="#898781">07-16</text>
<text x="352.0" y="322" text-anchor="middle" font-family='system-ui, -apple-system, "Segoe UI", sans-serif' font-size="11" style="font-variant-numeric: tabular-nums" fill="#898781">07-17</text>
<text x="460.0" y="322" text-anchor="middle" font-family='system-ui, -apple-system, "Segoe UI", sans-serif' font-size="11" style="font-variant-numeric: tabular-nums" fill="#898781">07-18</text>
<text x="568.0" y="322" text-anchor="middle" font-family='system-ui, -apple-system, "Segoe UI", sans-serif' font-size="11" style="font-variant-numeric: tabular-nums" fill="#898781">07-19</text>
<text x="622.0" y="322" text-anchor="middle" font-family='system-ui, -apple-system, "Segoe UI", sans-serif' font-size="11" style="font-variant-numeric: tabular-nums" fill="#898781">07-20</text>
<path d="M622.0,217.9 L640.0,217.9 L658.0,217.9 L676.0,217.9 L694.0,217.9 L712.0,217.9 L730.0,217.9" fill="none" stroke="#3987e5" stroke-width="2" stroke-linejoin="round" stroke-linecap="round"/>
<circle cx="730.0" cy="217.9" r="6" fill="#1a1a19"/>
<circle cx="730.0" cy="217.9" r="4" fill="#3987e5"/>
<path d="M64.0,56.0 L82.0,56.0 L100.0,56.0 L118.0,56.0 L136.0,56.0 L154.0,56.0 L172.0,56.0 L190.0,56.0 L208.0,56.0 L226.0,56.0 L244.0,56.0 L262.0,56.0 L280.0,56.0 L298.0,56.0 L316.0,56.0 L334.0,56.0 L352.0,56.0 L370.0,56.0 L388.0,56.0 L406.0,56.0 L424.0,56.0 L442.0,56.0 L460.0,56.0 L478.0,56.0 L496.0,56.0 L514.0,56.0 L532.0,56.0 L550.0,56.0 L568.0,56.0 L586.0,56.0 L604.0,56.0 L622.0,56.0 L640.0,56.0 L658.0,56.0 L676.0,56.0 L694.0,56.0 L712.0,56.0 L730.0,56.0" fill="none" stroke="#199e70" stroke-width="2" stroke-linejoin="round" stroke-linecap="round"/>
<circle cx="730.0" cy="56.0" r="6" fill="#1a1a19"/>
<circle cx="730.0" cy="56.0" r="4" fill="#199e70"/>
<path d="M64.0,250.6 L82.0,250.6 L100.0,250.6 L118.0,250.6 L136.0,250.6 L154.0,250.6 L172.0,250.6 L190.0,250.6 L208.0,250.6 L226.0,250.6 L244.0,250.6 L262.0,250.6 L280.0,250.6 L298.0,250.6 L316.0,250.6 L334.0,250.6 L352.0,250.6 L370.0,250.6 L388.0,250.6 L406.0,250.6 L424.0,250.6 L442.0,250.6 L460.0,250.6 L478.0,250.6 L496.0,250.6 L514.0,250.6 L532.0,250.6 L550.0,250.6 L568.0,250.6 L586.0,250.6 L604.0,250.6 L622.0,250.6 L640.0,250.6 L658.0,250.7 L676.0,250.7 L694.0,250.7 L712.0,250.7 L730.0,250.7" fill="none" stroke="#c98500" stroke-width="2" stroke-linejoin="round" stroke-linecap="round"/>
<circle cx="730.0" cy="250.7" r="6" fill="#1a1a19"/>
<circle cx="730.0" cy="250.7" r="4" fill="#c98500"/>
<path d="M64.0,137.6 L82.0,137.6 L100.0,137.6 L118.0,137.6 L136.0,137.6 L154.0,137.6 L172.0,138.4 L190.0,138.4 L208.0,138.4 L226.0,138.4 L244.0,138.4 L262.0,138.4 L280.0,138.4 L298.0,138.4 L316.0,138.4 L334.0,138.4 L352.0,138.4 L370.0,138.4 L388.0,138.4 L406.0,138.4 L424.0,138.4 L442.0,138.4 L460.0,138.4 L478.0,138.4 L496.0,138.4 L514.0,138.4 L532.0,138.4 L550.0,138.4 L568.0,138.4 L586.0,138.4 L604.0,138.4 L622.0,138.4 L640.0,138.4 L658.0,138.4 L676.0,138.4 L694.0,138.4 L712.0,138.4 L730.0,138.4" fill="none" stroke="#008300" stroke-width="2" stroke-linejoin="round" stroke-linecap="round"/>
<circle cx="730.0" cy="138.4" r="6" fill="#1a1a19"/>
<circle cx="730.0" cy="138.4" r="4" fill="#008300"/>
<path d="M64.0,205.9 L82.0,205.9 L100.0,205.9 L118.0,205.9 L136.0,205.9 L154.0,205.9 L172.0,205.9 L190.0,205.9 L208.0,205.9 L226.0,205.9 L244.0,205.9 L262.0,205.9 L280.0,205.9 L298.0,205.9 L316.0,205.9 L334.0,205.9 L352.0,205.9 L370.0,205.9 L388.0,205.9 L406.0,205.9 L424.0,205.9 L442.0,205.9 L460.0,205.9 L478.0,205.9 L496.0,205.9 L514.0,205.9 L532.0,205.9 L550.0,205.9 L568.0,205.9 L586.0,205.9 L604.0,205.9 L622.0,205.9 L640.0,205.9 L658.0,205.9 L676.0,205.9 L694.0,205.9 L712.0,205.9 L730.0,205.9" fill="none" stroke="#9085e9" stroke-width="2" stroke-linejoin="round" stroke-linecap="round"/>
<circle cx="730.0" cy="205.9" r="6" fill="#1a1a19"/>
<circle cx="730.0" cy="205.9" r="4" fill="#9085e9"/>
<path d="M64.0,227.3 L82.0,227.3 L100.0,227.3 L118.0,227.3 L136.0,227.3 L154.0,227.3 L172.0,227.3 L190.0,227.3 L208.0,227.3 L226.0,227.3 L244.0,227.3 L262.0,227.3 L280.0,227.3 L298.0,227.3 L316.0,227.3 L334.0,227.3 L352.0,227.3 L370.0,227.3 L388.0,227.3 L406.0,227.3 L424.0,227.3 L442.0,227.3 L460.0,227.3 L478.0,227.3 L496.0,227.3 L514.0,227.3 L532.0,227.3 L550.0,227.3 L568.0,227.3 L586.0,227.3 L604.0,227.3 L622.0,227.3 L640.0,227.3 L658.0,227.3 L676.0,227.3 L694.0,227.3 L712.0,227.3 L730.0,227.3" fill="none" stroke="#e66767" stroke-width="2" stroke-linejoin="round" stroke-linecap="round"/>
<circle cx="730.0" cy="227.3" r="6" fill="#1a1a19"/>
<circle cx="730.0" cy="227.3" r="4" fill="#e66767"/>
<circle cx="745.0" cy="52.5" r="3.5" fill="#199e70"/>
<text x="753.0" y="56.0" font-family='system-ui, -apple-system, "Segoe UI", sans-serif' font-size="11" fill="#ffffff">granulator</text>
<text x="753.0" y="68.0" font-family='system-ui, -apple-system, "Segoe UI", sans-serif' font-size="10" style="font-variant-numeric: tabular-nums" fill="#c3c2b7">27.5M</text>
<circle cx="745.0" cy="134.9" r="3.5" fill="#008300"/>
<text x="753.0" y="138.4" font-family='system-ui, -apple-system, "Segoe UI", sans-serif' font-size="11" fill="#ffffff">resonator</text>
<text x="753.0" y="150.4" font-family='system-ui, -apple-system, "Segoe UI", sans-serif' font-size="10" style="font-variant-numeric: tabular-nums" fill="#c3c2b7">18.4M</text>
<circle cx="745.0" cy="202.4" r="3.5" fill="#9085e9"/>
<text x="753.0" y="205.9" font-family='system-ui, -apple-system, "Segoe UI", sans-serif' font-size="11" fill="#ffffff">reverb</text>
<text x="753.0" y="217.9" font-family='system-ui, -apple-system, "Segoe UI", sans-serif' font-size="10" style="font-variant-numeric: tabular-nums" fill="#c3c2b7">11.0M</text>
<line x1="736.0" y1="217.9" x2="740.0" y2="233.9" stroke="#383835" stroke-width="1"/>
<circle cx="745.0" cy="230.4" r="3.5" fill="#3987e5"/>
<text x="753.0" y="233.9" font-family='system-ui, -apple-system, "Segoe UI", sans-serif' font-size="11" fill="#ffffff">compressor</text>
<text x="753.0" y="245.9" font-family='system-ui, -apple-system, "Segoe UI", sans-serif' font-size="10" style="font-variant-numeric: tabular-nums" fill="#c3c2b7">9.69M</text>
<line x1="736.0" y1="227.3" x2="740.0" y2="261.9" stroke="#383835" stroke-width="1"/>
<circle cx="745.0" cy="258.4" r="3.5" fill="#e66767"/>
<text x="753.0" y="261.9" font-family='system-ui, -apple-system, "Segoe UI", sans-serif' font-size="11" fill="#ffffff">saturator</text>
<text x="753.0" y="273.9" font-family='system-ui, -apple-system, "Segoe UI", sans-serif' font-size="10" style="font-variant-numeric: tabular-nums" fill="#c3c2b7">8.65M</text>
<line x1="736.0" y1="250.7" x2="740.0" y2="289.9" stroke="#383835" stroke-width="1"/>
<circle cx="745.0" cy="286.4" r="3.5" fill="#c98500"/>
<text x="753.0" y="289.9" font-family='system-ui, -apple-system, "Segoe UI", sans-serif' font-size="11" fill="#ffffff">pan</text>
<text x="753.0" y="301.9" font-family='system-ui, -apple-system, "Segoe UI", sans-serif' font-size="10" style="font-variant-numeric: tabular-nums" fill="#c3c2b7">6.08M</text>
</svg>