<svg xmlns="http://www.w3.org/2000/svg" width="880" height="340" viewBox="0 0 880 340" role="img" aria-label="Heaviest operators (micro)">
<rect width="880" height="340" rx="6" fill="#fcfcfb"/>
<text x="64" y="24" font-family='system-ui, -apple-system, "Segoe UI", sans-serif' font-size="14" font-weight="600" fill="#0b0b0b">Heaviest operators (micro)</text>
<text x="64" y="41" font-family='system-ui, -apple-system, "Segoe UI", sans-serif' font-size="11" fill="#52514e">per-operator step_node cost over the same 1 s schedule - top 6 by latest Ir</text>
<line x1="64" y1="306.0" x2="730" y2="306.0" stroke="#e1e0d9" stroke-width="1"/>
<text x="56" y="309.5" text-anchor="end" font-family='system-ui, -apple-system, "Segoe UI", sans-serif' font-size="11" style="font-variant-numeric: tabular-nums" fill="#898781">0</text>
<line x1="64" y1="218.1" x2="730" y2="218.1" stroke="#e1e0d9" stroke-width="1"/>
<text x="56" y="221.6" text-anchor="end" font-family='system-ui, -apple-system, "Segoe UI", sans-serif' font-size="11" style="font-variant-numeric: tabular-nums" fill="#898781">10</text>
<line x1="64" y1="130.3" x2="730" y2="130.3" stroke="#e1e0d9" stroke-width="1"/>
<text x="56" y="133.8" text-anchor="end" font-family='system-ui, -apple-system, "Segoe UI", sans-serif' font-size="11" style="font-variant-numeric: tabular-nums" fill="#898781">20</text>
<text x="56" y="46" text-anchor="end" font-family='system-ui, -apple-system, "Segoe UI", sans-serif' font-size="10" fill="#898781">Ir (M)</text>
<line x1="64" y1="306" x2="730" y2="306" stroke="#c3c2b7" stroke-width="1"/>
<text x="64.0" y="322" text-anchor="middle" font-family='system-ui, -apple-system, "Segoe UI", sans-serif' font-size="11" style="font-variant-numeric: tabular-nums" fill="#898781">06-28</text>
<text x="119.5" y="322" text-anchor="middle" font-family='system-ui, -apple-system, "Segoe UI", sans-serif' font-size="11" style="font-variant-numeric: tabular-nums" fill="#898781">06-30</text>
<text x="165.8" y="322" text-anchor="middle" font-family='system-ui, -apple-system, "Segoe UI", sans-serif' font-size="11" style="font-variant-numeric: tabular-nums" fill="#898781">07-02</text>
<text x="267.5" y="322" text-anchor="middle" font-family='system-ui, -apple-system, "Segoe UI", sans-serif' font-size="11" style="font-variant-numeric: tabular-nums" fill="#898781">07-04</text>
<text x="415.5" y="322" text-anchor="middle" font-family='system-ui, -apple-system, "Segoe UI", sans-serif' font-size="11" style="font-variant-numeric: tabular-nums" fill="#898781">07-07</text>
<text x="508.0" y="322" text-anchor="middle" font-family='system-ui, -apple-system, "Segoe UI", sans-serif' font-size="11" style="font-variant-numeric: tabular-nums" fill="#898781">07-09</text>
<text x="582.0" y="322" text-anchor="middle" font-family='system-ui, -apple-system, "Segoe UI", sans-serif' font-size="11" style="font-variant-numeric: tabular-nums" fill="#898781">07-11</text>
<path d="M128.8,56.2 L138.0,56.2 L147.2,56.1 L156.5,61.2 L165.8,56.2 L175.0,56.2 L184.2,56.2 L193.5,56.2 L202.8,56.2 L212.0,56.2 L221.2,56.2 L230.5,56.2 L239.8,56.2 L249.0,56.2 L258.2,56.2 L267.5,56.2 L276.8,56.2 L286.0,56.2 L295.2,56.2 L304.5,60.8 L313.8,56.1 L323.0,56.1 L332.2,56.1 L341.5,56.1 L350.8,56.1 L360.0,60.6 L369.2,60.6 L378.5,56.1 L387.8,56.0 L397.0,56.0 L406.2,56.0 L415.5,56.0 L424.8,56.0 L434.0,56.0 L443.2,56.0 L452.5,56.0 L461.8,56.0 L471.0,56.0 L480.2,56.0 L489.5,56.0 L498.8,56.0 L508.0,56.0 L517.2,56.0 L526.5,61.0 L535.8,61.0 L545.0,61.0 L554.2,56.1 L563.5,61.3 L572.8,56.3 L582.0,56.4 L591.2,64.4 L600.5,64.4 L609.8,64.4 L619.0,64.4 L628.2,64.4 L637.5,64.4 L646.8,64.4 L656.0,64.4 L665.2,64.4 L674.5,64.4 L683.8,64.4 L693.0,64.4 L702.2,64.4 L711.5,64.4 L720.8,64.4 L730.0,64.4" fill="none" stroke="#2a78d6" stroke-width="2" stroke-linejoin="round" stroke-linecap="round"/>
<circle cx="730.0" cy="64.4" r="6" fill="#fcfcfb"/>
<circle cx="730.0" cy="64.4" r="4" fill="#2a78d6"/>
<path d="M64.0,246.7 L73.2,246.7 L82.5,246.7 L91.8,246.7 L101.0,246.7 L110.2,246.6 L119.5,246.6 L128.8,246.2 L138.0,246.3 L147.2,246.3 L156.5,246.3 L165.8,246.3 L175.0,246.3 L184.2,246.3 L193.5,246.3 L202.8,246.3 L212.0,246.3 L221.2,246.3 L230.5,251.7 L239.8,251.7 L249.0,251.7 L258.2,251.7 L267.5,251.7 L276.8,251.7 L286.0,251.7 L295.2,251.7 L304.5,251.7 L313.8,251.6 L323.0,251.6 L332.2,251.6 L341.5,251.6 L350.8,251.6 L360.0,251.6 L369.2,251.6 L378.5,251.6 L387.8,251.5 L397.0,251.5 L406.2,251.5 L415.5,251.5 L424.8,251.5 L434.0,251.5 L443.2,251.5 L452.5,251.5 L461.8,251.5 L471.0,251.5 L480.2,251.5 L489.5,251.5 L498.8,251.5 L508.0,251.5 L517.2,251.5 L526.5,251.6 L535.8,251.6 L545.0,251.6 L554.2,251.6 L563.5,251.9 L572.8,251.9 L582.0,251.9 L591.2,252.5 L600.5,252.5 L609.8,252.5 L619.0,252.5 L628.2,252.5 L637.5,252.5 L646.8,252.5 L656.0,252.5 L665.2,252.5 L674.5,252.5 L683.8,252.5 L693.0,252.5 L702.2,252.5 L711.5,252.5 L720.8,252.5 L730.0,252.5" fill="none" stroke="#1baf7a" stroke-width="2" stroke-linejoin="round" stroke-linecap="round"/>
<circle cx="730.0" cy="252.5" r="6" fill="#fcfcfb"/>
<circle cx="730.0" cy="252.5" r="4" fill="#1baf7a"/>
<path d="M82.5,97.2 L91.8,97.2 L101.0,97.2 L110.2,138.2 L119.5,138.2 L128.8,137.8 L138.0,137.8 L147.2,137.8 L156.5,137.9 L165.8,137.8 L175.0,137.9 L184.2,137.8 L193.5,137.8 L202.8,137.8 L212.0,137.8 L221.2,137.8 L230.5,142.4 L239.8,142.4 L249.0,142.4 L258.2,142.4 L267.5,142.4 L276.8,142.4 L286.0,142.4 L295.2,142.4 L304.5,142.4 L313.8,142.4 L323.0,142.4 L332.2,142.4 L341.5,142.4 L350.8,142.4 L360.0,142.3 L369.2,142.4 L378.5,142.3 L387.8,142.3 L397.0,142.3 L406.2,142.3 L415.5,142.3 L424.8,142.3 L434.0,142.3 L443.2,142.3 L452.5,142.3 L461.8,142.3 L471.0,142.3 L480.2,142.3 L489.5,142.3 L498.8,142.3 L508.0,142.3 L517.2,142.3 L526.5,142.3 L535.8,142.3 L545.0,142.3 L554.2,142.3 L563.5,142.6 L572.8,142.6 L582.0,142.7 L591.2,143.3 L600.5,143.3 L609.8,143.3 L619.0,143.3 L628.2,143.3 L637.5,143.3 L646.8,143.3 L656.0,143.3 L665.2,143.3 L674.5,143.3 L683.8,143.3 L693.0,143.3 L702.2,143.3 L711.5,143.3 L720.8,143.3 L730.0,143.3" fill="none" stroke="#eda100" stroke-width="2" stroke-linejoin="round" stroke-linecap="round"/>
<circle cx="730.0" cy="143.3" r="6" fill="#fcfcfb"/>
<circle cx="730.0" cy="143.3" r="4" fill="#eda100"/>
<path d="M64.0,195.3 L73.2,195.3 L82.5,195.4 L91.8,195.4 L101.0,195.4 L110.2,204.2 L119.5,204.1 L128.8,203.8 L138.0,203.8 L147.2,203.8 L156.5,203.9 L165.8,203.8 L175.0,203.8 L184.2,203.8 L193.5,203.8 L202.8,203.8 L212.0,203.8 L221.2,203.8 L230.5,208.4 L239.8,208.4 L249.0,208.4 L258.2,208.4 L267.5,208.4 L276.8,208.4 L286.0,208.4 L295.2,208.4 L304.5,208.5 L313.8,208.3 L323.0,208.3 L332.2,208.3 L341.5,208.3 L350.8,208.3 L360.0,208.3 L369.2,208.4 L378.5,208.4 L387.8,208.2 L397.0,208.2 L406.2,208.2 L415.5,208.2 L424.8,208.2 L434.0,208.2 L443.2,208.2 L452.5,208.2 L461.8,208.2 L471.0,208.2 L480.2,208.2 L489.5,208.2 L498.8,208.2 L508.0,208.2 L517.2,208.2 L526.5,208.4 L535.8,208.3 L545.0,208.3 L554.2,208.3 L563.5,208.6 L572.8,208.6 L582.0,208.6 L591.2,209.2 L600.5,209.2 L609.8,209.2 L619.0,209.2 L628.2,209.2 L637.5,209.2 L646.8,209.2 L656.0,209.2 L665.2,209.2 L674.5,209.2 L683.8,209.2 L693.0,209.2 L702.2,209.2 L711.5,209.2 L720.8,209.2 L730.0,209.2" fill="none" stroke="#008300" stroke-width="2" stroke-linejoin="round" stroke-linecap="round"/>
<circle cx="730.0" cy="209.2" r="6" fill="#fcfcfb"/>
<circle cx="730.0" cy="209.2" r="4" fill="#008300"/>
<path d="M535.8,229.0 L545.0,229.0 L554.2,229.1 L563.5,229.3 L572.8,229.3 L582.0,229.3 L591.2,229.9 L600.5,229.9 L609.8,229.9 L619.0,229.9 L628.2,229.9 L637.5,229.9 L646.8,229.9 L656.0,229.9 L665.2,229.9 L674.5,229.9 L683.8,229.9 L693.0,229.9 L702.2,229.9 L711.5,229.9 L720.8,229.9 L730.0,229.9" fill="none" stroke="#4a3aa7" stroke-width="2" stroke-linejoin="round" stroke-linecap="round"/>
<circle cx="730.0" cy="229.9" r="6" fill="#fcfcfb"/>
<circle cx="730.0" cy="229.9" r="4" fill="#4a3aa7"/>
<path d="M64.0,262.8 L73.2,262.8 L82.5,262.8 L91.8,262.8 L101.0,263.0 L110.2,263.2 L119.5,263.0 L128.8,262.4 L138.0,262.5 L147.2,262.4 L156.5,262.5 L165.8,262.5 L175.0,262.5 L184.2,262.5 L193.5,262.5 L202.8,262.5 L212.0,262.5 L221.2,262.5 L230.5,261.7 L239.8,261.7 L249.0,261.6 L258.2,261.4 L267.5,261.4 L276.8,261.4 L286.0,261.4 L295.2,261.4 L304.5,261.4 L313.8,261.3 L323.0,261.3 L332.2,261.3 L341.5,261.3 L350.8,261.3 L360.0,261.2 L369.2,261.3 L378.5,261.3 L387.8,261.0 L397.0,261.0 L406.2,261.1 L415.5,261.1 L424.8,261.1 L434.0,261.1 L443.2,261.1 L452.5,261.1 L461.8,261.1 L471.0,261.1 L480.2,261.1 L489.5,261.1 L498.8,261.1 L508.0,261.1 L517.2,261.1 L526.5,261.3 L535.8,261.2 L545.0,261.2 L554.2,261.3 L563.5,261.7 L572.8,261.8 L582.0,261.8 L591.2,263.1 L600.5,263.1 L609.8,263.1 L619.0,263.1 L628.2,263.1 L637.5,263.1 L646.8,263.0 L656.0,263.0 L665.2,263.0 L674.5,263.0 L683.8,263.0 L693.0,263.0 L702.2,263.0 L711.5,263.0 L720.8,263.0 L730.0,263.0" fill="none" stroke="#e34948" stroke-width="2" stroke-linejoin="round" stroke-linecap="round"/>
<circle cx="730.0" cy="263.0" r="6" fill="#fcfcfb"/>
<circle cx="730.0" cy="263.0" r="4" fill="#e34948"/>
<circle cx="745.0" cy="60.9" r="3.5" fill="#2a78d6"/>
<text x="753.0" y="64.4" font-family='system-ui, -apple-system, "Segoe UI", sans-serif' font-size="11" fill="#0b0b0b">granulator</text>
<text x="753.0" y="76.4" font-family='system-ui, -apple-system, "Segoe UI", sans-serif' font-size="10" style="font-variant-numeric: tabular-nums" fill="#52514e">27.5M</text>
<circle cx="745.0" cy="139.8" r="3.5" fill="#eda100"/>
<text x="753.0" y="143.3" font-family='system-ui, -apple-system, "Segoe UI", sans-serif' font-size="11" fill="#0b0b0b">resonator</text>
<text x="753.0" y="155.3" font-family='system-ui, -apple-system, "Segoe UI", sans-serif' font-size="10" style="font-variant-numeric: tabular-nums" fill="#52514e">18.5M</text>
<circle cx="745.0" cy="205.7" r="3.5" fill="#008300"/>
<text x="753.0" y="209.2" font-family='system-ui, -apple-system, "Segoe UI", sans-serif' font-size="11" fill="#0b0b0b">reverb</text>
<text x="753.0" y="221.2" font-family='system-ui, -apple-system, "Segoe UI", sans-serif' font-size="10" style="font-variant-numeric: tabular-nums" fill="#52514e">11.0M</text>
<line x1="736.0" y1="229.9" x2="740.0" y2="237.2" stroke="#c3c2b7" stroke-width="1"/>
<circle cx="745.0" cy="233.7" r="3.5" fill="#4a3aa7"/>
<text x="753.0" y="237.2" font-family='system-ui, -apple-system, "Segoe UI", sans-serif' font-size="11" fill="#0b0b0b">saturator</text>
<text x="753.0" y="249.2" font-family='system-ui, -apple-system, "Segoe UI", sans-serif' font-size="10" style="font-variant-numeric: tabular-nums" fill="#52514e">8.66M</text>
<line x1="736.0" y1="252.5" x2="740.0" y2="265.2" stroke="#c3c2b7" stroke-width="1"/>
<circle cx="745.0" cy="261.7" r="3.5" fill="#1baf7a"/>
<text x="753.0" y="265.2" font-family='system-ui, -apple-system, "Segoe UI", sans-serif' font-size="11" fill="#0b0b0b">pan</text>
<text x="753.0" y="277.2" font-family='system-ui, -apple-system, "Segoe UI", sans-serif' font-size="10" style="font-variant-numeric: tabular-nums" fill="#52514e">6.09M</text>
<line x1="736.0" y1="263.0" x2="740.0" y2="293.2" stroke="#c3c2b7" stroke-width="1"/>
<circle cx="745.0" cy="289.7" r="3.5" fill="#e34948"/>
<text x="753.0" y="293.2" font-family='system-ui, -apple-system, "Segoe UI", sans-serif' font-size="11" fill="#0b0b0b">sequencer</text>
<text x="753.0" y="305.2" font-family='system-ui, -apple-system, "Segoe UI", sans-serif' font-size="10" style="font-variant-numeric: tabular-nums" fill="#52514e">4.89M</text>
</svg>