<svg xmlns="http://www.w3.org/2000/svg" width="880" height="340" viewBox="0 0 880 340" role="img" aria-label="Heaviest operators (micro)">
<rect width="880" height="340" rx="6" fill="#fcfcfb"/>
<text x="64" y="24" font-family='system-ui, -apple-system, "Segoe UI", sans-serif' font-size="14" font-weight="600" fill="#0b0b0b">Heaviest operators (micro)</text>
<text x="64" y="41" font-family='system-ui, -apple-system, "Segoe UI", sans-serif' font-size="11" fill="#52514e">per-operator step_node cost over the same 1 s schedule - top 6 by latest Ir</text>
<line x1="64" y1="306.0" x2="730" y2="306.0" stroke="#e1e0d9" stroke-width="1"/>
<text x="56" y="309.5" text-anchor="end" font-family='system-ui, -apple-system, "Segoe UI", sans-serif' font-size="11" style="font-variant-numeric: tabular-nums" fill="#898781">0</text>
<line x1="64" y1="215.1" x2="730" y2="215.1" stroke="#e1e0d9" stroke-width="1"/>
<text x="56" y="218.6" text-anchor="end" font-family='system-ui, -apple-system, "Segoe UI", sans-serif' font-size="11" style="font-variant-numeric: tabular-nums" fill="#898781">10</text>
<line x1="64" y1="124.2" x2="730" y2="124.2" stroke="#e1e0d9" stroke-width="1"/>
<text x="56" y="127.7" text-anchor="end" font-family='system-ui, -apple-system, "Segoe UI", sans-serif' font-size="11" style="font-variant-numeric: tabular-nums" fill="#898781">20</text>
<text x="56" y="46" text-anchor="end" font-family='system-ui, -apple-system, "Segoe UI", sans-serif' font-size="10" fill="#898781">Ir (M)</text>
<line x1="64" y1="306" x2="730" y2="306" stroke="#c3c2b7" stroke-width="1"/>
<text x="64.0" y="322" text-anchor="middle" font-family='system-ui, -apple-system, "Segoe UI", sans-serif' font-size="11" style="font-variant-numeric: tabular-nums" fill="#898781">07-12</text>
<text x="155.4" y="322" text-anchor="middle" font-family='system-ui, -apple-system, "Segoe UI", sans-serif' font-size="11" style="font-variant-numeric: tabular-nums" fill="#898781">07-14</text>
<text x="272.9" y="322" text-anchor="middle" font-family='system-ui, -apple-system, "Segoe UI", sans-serif' font-size="11" style="font-variant-numeric: tabular-nums" fill="#898781">07-17</text>
<text x="429.6" y="322" text-anchor="middle" font-family='system-ui, -apple-system, "Segoe UI", sans-serif' font-size="11" style="font-variant-numeric: tabular-nums" fill="#898781">07-19</text>
<text x="664.7" y="322" text-anchor="middle" font-family='system-ui, -apple-system, "Segoe UI", sans-serif' font-size="11" style="font-variant-numeric: tabular-nums" fill="#898781">07-21</text>
<path d="M468.8,217.9 L481.9,217.9 L494.9,217.9 L508.0,217.9 L521.1,217.9 L534.1,217.9 L547.2,217.9 L560.2,217.9 L573.3,217.9 L586.4,217.9 L599.4,218.0 L612.5,218.0 L625.5,218.0 L638.6,218.0 L651.6,218.0 L664.7,218.0 L677.8,218.0 L690.8,218.0 L703.9,218.0 L716.9,218.0 L730.0,218.0" fill="none" stroke="#2a78d6" stroke-width="2" stroke-linejoin="round" stroke-linecap="round"/>
<circle cx="730.0" cy="218.0" r="6" fill="#fcfcfb"/>
<circle cx="730.0" cy="218.0" r="4" fill="#2a78d6"/>
<path d="M64.0,56.0 L77.1,56.0 L90.1,56.0 L103.2,56.0 L116.2,56.0 L129.3,56.0 L142.4,56.0 L155.4,56.0 L168.5,56.0 L181.5,56.0 L194.6,56.0 L207.6,56.0 L220.7,56.0 L233.8,56.0 L246.8,56.0 L259.9,56.0 L272.9,56.0 L286.0,56.0 L299.1,56.0 L312.1,56.0 L325.2,56.0 L338.2,56.0 L351.3,56.0 L364.4,56.0 L377.4,56.0 L390.5,56.0 L403.5,56.0 L416.6,56.0 L429.6,56.0 L442.7,56.0 L455.8,56.0 L468.8,56.0 L481.9,56.0 L494.9,56.0 L508.0,56.0 L521.1,56.0 L534.1,56.0 L547.2,56.0 L560.2,56.0 L573.3,56.0 L586.4,56.0 L599.4,56.1 L612.5,56.1 L625.5,56.1 L638.6,56.1 L651.6,56.1 L664.7,56.1 L677.8,56.1 L690.8,56.1 L703.9,56.1 L716.9,56.1 L730.0,56.0" fill="none" stroke="#1baf7a" stroke-width="2" stroke-linejoin="round" stroke-linecap="round"/>
<circle cx="730.0" cy="56.0" r="6" fill="#fcfcfb"/>
<circle cx="730.0" cy="56.0" r="4" fill="#1baf7a"/>
<path d="M64.0,250.6 L77.1,250.6 L90.1,250.6 L103.2,250.6 L116.2,250.6 L129.3,250.6 L142.4,250.6 L155.4,250.6 L168.5,250.6 L181.5,250.6 L194.6,250.6 L207.6,250.6 L220.7,250.6 L233.8,250.6 L246.8,250.6 L259.9,250.6 L272.9,250.6 L286.0,250.6 L299.1,250.6 L312.1,250.6 L325.2,250.6 L338.2,250.6 L351.3,250.6 L364.4,250.6 L377.4,250.6 L390.5,250.6 L403.5,250.6 L416.6,250.6 L429.6,250.6 L442.7,250.6 L455.8,250.6 L468.8,250.6 L481.9,250.6 L494.9,250.7 L508.0,250.7 L521.1,250.7 L534.1,250.7 L547.2,250.7 L560.2,250.7 L573.3,250.7 L586.4,250.7 L599.4,250.7 L612.5,250.7 L625.5,250.7 L638.6,250.7 L651.6,250.7 L664.7,250.7 L677.8,250.7 L690.8,250.7 L703.9,250.7 L716.9,250.7 L730.0,250.7" fill="none" stroke="#eda100" stroke-width="2" stroke-linejoin="round" stroke-linecap="round"/>
<circle cx="730.0" cy="250.7" r="6" fill="#fcfcfb"/>
<circle cx="730.0" cy="250.7" r="4" fill="#eda100"/>
<path d="M64.0,137.6 L77.1,137.6 L90.1,137.6 L103.2,137.6 L116.2,137.6 L129.3,137.6 L142.4,138.4 L155.4,138.4 L168.5,138.4 L181.5,138.4 L194.6,138.4 L207.6,138.4 L220.7,138.4 L233.8,138.4 L246.8,138.4 L259.9,138.4 L272.9,138.4 L286.0,138.4 L299.1,138.4 L312.1,138.4 L325.2,138.4 L338.2,138.4 L351.3,138.4 L364.4,138.4 L377.4,138.4 L390.5,138.4 L403.5,138.4 L416.6,138.4 L429.6,138.4 L442.7,138.4 L455.8,138.4 L468.8,138.4 L481.9,138.4 L494.9,138.4 L508.0,138.4 L521.1,138.4 L534.1,138.4 L547.2,138.4 L560.2,138.4 L573.3,138.4 L586.4,138.4 L599.4,138.5 L612.5,138.5 L625.5,138.5 L638.6,138.5 L651.6,138.5 L664.7,138.5 L677.8,138.5 L690.8,138.5 L703.9,138.5 L716.9,138.5 L730.0,138.4" fill="none" stroke="#008300" stroke-width="2" stroke-linejoin="round" stroke-linecap="round"/>
<circle cx="730.0" cy="138.4" r="6" fill="#fcfcfb"/>
<circle cx="730.0" cy="138.4" r="4" fill="#008300"/>
<path d="M64.0,205.9 L77.1,205.9 L90.1,205.9 L103.2,205.9 L116.2,205.9 L129.3,205.9 L142.4,205.9 L155.4,205.9 L168.5,205.9 L181.5,205.9 L194.6,205.9 L207.6,205.9 L220.7,205.9 L233.8,205.9 L246.8,205.9 L259.9,205.9 L272.9,205.9 L286.0,205.9 L299.1,205.9 L312.1,205.9 L325.2,205.9 L338.2,205.9 L351.3,205.9 L364.4,205.9 L377.4,205.9 L390.5,205.9 L403.5,205.9 L416.6,205.9 L429.6,205.9 L442.7,205.9 L455.8,205.9 L468.8,205.9 L481.9,205.9 L494.9,205.9 L508.0,205.9 L521.1,205.9 L534.1,205.9 L547.2,205.9 L560.2,205.9 L573.3,205.9 L586.4,205.9 L599.4,205.9 L612.5,205.9 L625.5,205.9 L638.6,205.9 L651.6,205.9 L664.7,205.9 L677.8,205.9 L690.8,205.9 L703.9,205.9 L716.9,205.9 L730.0,205.9" fill="none" stroke="#4a3aa7" stroke-width="2" stroke-linejoin="round" stroke-linecap="round"/>
<circle cx="730.0" cy="205.9" r="6" fill="#fcfcfb"/>
<circle cx="730.0" cy="205.9" r="4" fill="#4a3aa7"/>
<path d="M64.0,227.3 L77.1,227.3 L90.1,227.3 L103.2,227.3 L116.2,227.3 L129.3,227.3 L142.4,227.3 L155.4,227.3 L168.5,227.3 L181.5,227.3 L194.6,227.3 L207.6,227.3 L220.7,227.3 L233.8,227.3 L246.8,227.3 L259.9,227.3 L272.9,227.3 L286.0,227.3 L299.1,227.3 L312.1,227.3 L325.2,227.3 L338.2,227.3 L351.3,227.3 L364.4,227.3 L377.4,227.3 L390.5,227.3 L403.5,227.3 L416.6,227.3 L429.6,227.3 L442.7,227.3 L455.8,227.3 L468.8,227.3 L481.9,227.3 L494.9,227.3 L508.0,227.3 L521.1,227.3 L534.1,227.3 L547.2,227.3 L560.2,227.3 L573.3,227.3 L586.4,227.3 L599.4,227.3 L612.5,227.3 L625.5,227.3 L638.6,227.3 L651.6,227.3 L664.7,227.3 L677.8,227.3 L690.8,227.3 L703.9,227.3 L716.9,227.3 L730.0,227.3" fill="none" stroke="#e34948" stroke-width="2" stroke-linejoin="round" stroke-linecap="round"/>
<circle cx="730.0" cy="227.3" r="6" fill="#fcfcfb"/>
<circle cx="730.0" cy="227.3" r="4" fill="#e34948"/>
<circle cx="745.0" cy="52.5" r="3.5" fill="#1baf7a"/>
<text x="753.0" y="56.0" font-family='system-ui, -apple-system, "Segoe UI", sans-serif' font-size="11" fill="#0b0b0b">granulator</text>
<text x="753.0" y="68.0" font-family='system-ui, -apple-system, "Segoe UI", sans-serif' font-size="10" style="font-variant-numeric: tabular-nums" fill="#52514e">27.5M</text>
<circle cx="745.0" cy="134.9" r="3.5" fill="#008300"/>
<text x="753.0" y="138.4" font-family='system-ui, -apple-system, "Segoe UI", sans-serif' font-size="11" fill="#0b0b0b">resonator</text>
<text x="753.0" y="150.4" font-family='system-ui, -apple-system, "Segoe UI", sans-serif' font-size="10" style="font-variant-numeric: tabular-nums" fill="#52514e">18.4M</text>
<circle cx="745.0" cy="202.4" r="3.5" fill="#4a3aa7"/>
<text x="753.0" y="205.9" font-family='system-ui, -apple-system, "Segoe UI", sans-serif' font-size="11" fill="#0b0b0b">reverb</text>
<text x="753.0" y="217.9" font-family='system-ui, -apple-system, "Segoe UI", sans-serif' font-size="10" style="font-variant-numeric: tabular-nums" fill="#52514e">11.0M</text>
<line x1="736.0" y1="218.0" x2="740.0" y2="233.9" stroke="#c3c2b7" stroke-width="1"/>
<circle cx="745.0" cy="230.4" r="3.5" fill="#2a78d6"/>
<text x="753.0" y="233.9" font-family='system-ui, -apple-system, "Segoe UI", sans-serif' font-size="11" fill="#0b0b0b">compressor</text>
<text x="753.0" y="245.9" font-family='system-ui, -apple-system, "Segoe UI", sans-serif' font-size="10" style="font-variant-numeric: tabular-nums" fill="#52514e">9.68M</text>
<line x1="736.0" y1="227.3" x2="740.0" y2="261.9" stroke="#c3c2b7" stroke-width="1"/>
<circle cx="745.0" cy="258.4" r="3.5" fill="#e34948"/>
<text x="753.0" y="261.9" font-family='system-ui, -apple-system, "Segoe UI", sans-serif' font-size="11" fill="#0b0b0b">saturator</text>
<text x="753.0" y="273.9" font-family='system-ui, -apple-system, "Segoe UI", sans-serif' font-size="10" style="font-variant-numeric: tabular-nums" fill="#52514e">8.65M</text>
<line x1="736.0" y1="250.7" x2="740.0" y2="289.9" stroke="#c3c2b7" stroke-width="1"/>
<circle cx="745.0" cy="286.4" r="3.5" fill="#eda100"/>
<text x="753.0" y="289.9" font-family='system-ui, -apple-system, "Segoe UI", sans-serif' font-size="11" fill="#0b0b0b">pan</text>
<text x="753.0" y="301.9" font-family='system-ui, -apple-system, "Segoe UI", sans-serif' font-size="10" style="font-variant-numeric: tabular-nums" fill="#52514e">6.08M</text>
</svg>