<svg xmlns="http://www.w3.org/2000/svg" width="880" height="340" viewBox="0 0 880 340" role="img" aria-label="Heaviest operators (micro)">
<rect width="880" height="340" rx="6" fill="#1a1a19"/>
<text x="64" y="24" font-family='system-ui, -apple-system, "Segoe UI", sans-serif' font-size="14" font-weight="600" fill="#ffffff">Heaviest operators (micro)</text>
<text x="64" y="41" font-family='system-ui, -apple-system, "Segoe UI", sans-serif' font-size="11" fill="#c3c2b7">per-operator step_node cost over the same 1 s schedule - top 6 by latest Ir</text>
<line x1="64" y1="306.0" x2="730" y2="306.0" stroke="#2c2c2a" stroke-width="1"/>
<text x="56" y="309.5" text-anchor="end" font-family='system-ui, -apple-system, "Segoe UI", sans-serif' font-size="11" style="font-variant-numeric: tabular-nums" fill="#898781">0</text>
<line x1="64" y1="215.5" x2="730" y2="215.5" stroke="#2c2c2a" stroke-width="1"/>
<text x="56" y="219.0" text-anchor="end" font-family='system-ui, -apple-system, "Segoe UI", sans-serif' font-size="11" style="font-variant-numeric: tabular-nums" fill="#898781">10</text>
<line x1="64" y1="125.0" x2="730" y2="125.0" stroke="#2c2c2a" stroke-width="1"/>
<text x="56" y="128.5" text-anchor="end" font-family='system-ui, -apple-system, "Segoe UI", sans-serif' font-size="11" style="font-variant-numeric: tabular-nums" fill="#898781">20</text>
<text x="56" y="46" text-anchor="end" font-family='system-ui, -apple-system, "Segoe UI", sans-serif' font-size="10" fill="#898781">Ir (M)</text>
<line x1="64" y1="306" x2="730" y2="306" stroke="#383835" stroke-width="1"/>
<text x="64.0" y="322" text-anchor="middle" font-family='system-ui, -apple-system, "Segoe UI", sans-serif' font-size="11" style="font-variant-numeric: tabular-nums" fill="#898781">07-12</text>
<text x="134.6" y="322" text-anchor="middle" font-family='system-ui, -apple-system, "Segoe UI", sans-serif' font-size="11" style="font-variant-numeric: tabular-nums" fill="#898781">07-14</text>
<text x="225.5" y="322" text-anchor="middle" font-family='system-ui, -apple-system, "Segoe UI", sans-serif' font-size="11" style="font-variant-numeric: tabular-nums" fill="#898781">07-17</text>
<text x="346.5" y="322" text-anchor="middle" font-family='system-ui, -apple-system, "Segoe UI", sans-serif' font-size="11" style="font-variant-numeric: tabular-nums" fill="#898781">07-19</text>
<text x="528.2" y="322" text-anchor="middle" font-family='system-ui, -apple-system, "Segoe UI", sans-serif' font-size="11" style="font-variant-numeric: tabular-nums" fill="#898781">07-21</text>
<text x="719.9" y="322" text-anchor="middle" font-family='system-ui, -apple-system, "Segoe UI", sans-serif' font-size="11" style="font-variant-numeric: tabular-nums" fill="#898781">07-23</text>
<path d="M376.8,218.3 L386.9,218.3 L397.0,218.3 L407.1,218.3 L417.2,218.3 L427.3,218.3 L437.4,218.3 L447.5,218.3 L457.5,218.3 L467.6,218.3 L477.7,218.4 L487.8,218.4 L497.9,218.4 L508.0,218.4 L518.1,218.4 L528.2,218.4 L538.3,218.4 L548.4,218.4 L558.5,218.4 L568.5,218.4 L578.6,218.4 L588.7,218.4 L598.8,218.4 L608.9,218.4 L619.0,218.5 L629.1,218.5 L639.2,218.5 L649.3,218.5 L659.4,218.5 L669.5,218.5 L679.5,218.5 L689.6,218.5 L699.7,218.5 L709.8,218.5 L719.9,218.5 L730.0,218.5" fill="none" stroke="#3987e5" stroke-width="2" stroke-linejoin="round" stroke-linecap="round"/>
<circle cx="730.0" cy="218.5" r="6" fill="#1a1a19"/>
<circle cx="730.0" cy="218.5" r="4" fill="#3987e5"/>
<path d="M64.0,57.2 L74.1,57.2 L84.2,57.2 L94.3,57.2 L104.4,57.2 L114.5,57.2 L124.5,57.2 L134.6,57.2 L144.7,57.2 L154.8,57.2 L164.9,57.2 L175.0,57.2 L185.1,57.2 L195.2,57.2 L205.3,57.2 L215.4,57.2 L225.5,57.2 L235.5,57.2 L245.6,57.2 L255.7,57.2 L265.8,57.2 L275.9,57.2 L286.0,57.2 L296.1,57.2 L306.2,57.2 L316.3,57.2 L326.4,57.2 L336.5,57.2 L346.5,57.2 L356.6,57.2 L366.7,57.2 L376.8,57.2 L386.9,57.2 L397.0,57.2 L407.1,57.2 L417.2,57.2 L427.3,57.2 L437.4,57.2 L447.5,57.2 L457.5,57.2 L467.6,57.2 L477.7,57.2 L487.8,57.2 L497.9,57.2 L508.0,57.2 L518.1,57.2 L528.2,57.2 L538.3,57.2 L548.4,57.2 L558.5,57.2 L568.5,57.2 L578.6,57.2 L588.7,57.2 L598.8,57.2 L608.9,57.2 L619.0,57.2 L629.1,56.0 L639.2,56.0 L649.3,56.0 L659.4,56.0 L669.5,56.0 L679.5,56.0 L689.6,56.0 L699.7,56.0 L709.8,56.0 L719.9,56.0 L730.0,56.0" fill="none" stroke="#199e70" stroke-width="2" stroke-linejoin="round" stroke-linecap="round"/>
<circle cx="730.0" cy="56.0" r="6" fill="#1a1a19"/>
<circle cx="730.0" cy="56.0" r="4" fill="#199e70"/>
<path d="M64.0,250.9 L74.1,250.9 L84.2,250.9 L94.3,250.9 L104.4,250.9 L114.5,250.9 L124.5,250.9 L134.6,250.9 L144.7,250.9 L154.8,250.9 L164.9,250.9 L175.0,250.9 L185.1,250.9 L195.2,250.9 L205.3,250.9 L215.4,250.9 L225.5,250.9 L235.5,250.9 L245.6,250.9 L255.7,250.9 L265.8,250.9 L275.9,250.9 L286.0,250.9 L296.1,250.9 L306.2,250.9 L316.3,250.9 L326.4,250.9 L336.5,250.9 L346.5,250.9 L356.6,250.9 L366.7,250.9 L376.8,250.9 L386.9,250.9 L397.0,250.9 L407.1,250.9 L417.2,250.9 L427.3,250.9 L437.4,250.9 L447.5,250.9 L457.5,250.9 L467.6,250.9 L477.7,250.9 L487.8,250.9 L497.9,250.9 L508.0,250.9 L518.1,250.9 L528.2,250.9 L538.3,250.9 L548.4,250.9 L558.5,250.9 L568.5,250.9 L578.6,250.9 L588.7,250.9 L598.8,250.9 L608.9,250.9 L619.0,250.9 L629.1,251.0 L639.2,251.0 L649.3,251.0 L659.4,251.0 L669.5,251.0 L679.5,251.0 L689.6,251.0 L699.7,251.0 L709.8,251.0 L719.9,251.0 L730.0,251.0" fill="none" stroke="#c98500" stroke-width="2" stroke-linejoin="round" stroke-linecap="round"/>
<circle cx="730.0" cy="251.0" r="6" fill="#1a1a19"/>
<circle cx="730.0" cy="251.0" r="4" fill="#c98500"/>
<path d="M64.0,138.4 L74.1,138.4 L84.2,138.4 L94.3,138.4 L104.4,138.4 L114.5,138.4 L124.5,139.2 L134.6,139.2 L144.7,139.2 L154.8,139.2 L164.9,139.2 L175.0,139.2 L185.1,139.2 L195.2,139.2 L205.3,139.2 L215.4,139.2 L225.5,139.2 L235.5,139.2 L245.6,139.2 L255.7,139.2 L265.8,139.2 L275.9,139.2 L286.0,139.2 L296.1,139.2 L306.2,139.2 L316.3,139.2 L326.4,139.2 L336.5,139.2 L346.5,139.2 L356.6,139.2 L366.7,139.2 L376.8,139.2 L386.9,139.2 L397.0,139.2 L407.1,139.2 L417.2,139.2 L427.3,139.2 L437.4,139.2 L447.5,139.2 L457.5,139.2 L467.6,139.2 L477.7,139.3 L487.8,139.3 L497.9,139.3 L508.0,139.3 L518.1,139.3 L528.2,139.3 L538.3,139.3 L548.4,139.3 L558.5,139.3 L568.5,139.3 L578.6,139.2 L588.7,139.2 L598.8,139.2 L608.9,139.2 L619.0,139.2 L629.1,139.2 L639.2,139.2 L649.3,139.2 L659.4,139.2 L669.5,139.2 L679.5,139.2 L689.6,139.2 L699.7,139.2 L709.8,139.2 L719.9,139.2 L730.0,139.2" fill="none" stroke="#008300" stroke-width="2" stroke-linejoin="round" stroke-linecap="round"/>
<circle cx="730.0" cy="139.2" r="6" fill="#1a1a19"/>
<circle cx="730.0" cy="139.2" r="4" fill="#008300"/>
<path d="M64.0,206.3 L74.1,206.3 L84.2,206.3 L94.3,206.3 L104.4,206.3 L114.5,206.3 L124.5,206.3 L134.6,206.3 L144.7,206.3 L154.8,206.3 L164.9,206.3 L175.0,206.3 L185.1,206.3 L195.2,206.3 L205.3,206.3 L215.4,206.3 L225.5,206.3 L235.5,206.3 L245.6,206.3 L255.7,206.3 L265.8,206.3 L275.9,206.3 L286.0,206.3 L296.1,206.3 L306.2,206.3 L316.3,206.3 L326.4,206.3 L336.5,206.3 L346.5,206.3 L356.6,206.3 L366.7,206.4 L376.8,206.4 L386.9,206.4 L397.0,206.4 L407.1,206.4 L417.2,206.4 L427.3,206.4 L437.4,206.4 L447.5,206.4 L457.5,206.4 L467.6,206.4 L477.7,206.3 L487.8,206.3 L497.9,206.3 L508.0,206.3 L518.1,206.3 L528.2,206.3 L538.3,206.3 L548.4,206.3 L558.5,206.3 L568.5,206.3 L578.6,206.4 L588.7,206.4 L598.8,206.4 L608.9,206.4 L619.0,206.4 L629.1,206.4 L639.2,206.4 L649.3,206.4 L659.4,206.4 L669.5,206.4 L679.5,206.4 L689.6,206.4 L699.7,206.4 L709.8,206.4 L719.9,206.4 L730.0,206.4" fill="none" stroke="#9085e9" stroke-width="2" stroke-linejoin="round" stroke-linecap="round"/>
<circle cx="730.0" cy="206.4" r="6" fill="#1a1a19"/>
<circle cx="730.0" cy="206.4" r="4" fill="#9085e9"/>
<path d="M64.0,227.7 L74.1,227.7 L84.2,227.7 L94.3,227.7 L104.4,227.7 L114.5,227.7 L124.5,227.7 L134.6,227.7 L144.7,227.7 L154.8,227.7 L164.9,227.7 L175.0,227.7 L185.1,227.7 L195.2,227.7 L205.3,227.7 L215.4,227.7 L225.5,227.7 L235.5,227.7 L245.6,227.7 L255.7,227.7 L265.8,227.7 L275.9,227.7 L286.0,227.7 L296.1,227.7 L306.2,227.7 L316.3,227.7 L326.4,227.7 L336.5,227.7 L346.5,227.7 L356.6,227.7 L366.7,227.7 L376.8,227.7 L386.9,227.7 L397.0,227.7 L407.1,227.7 L417.2,227.7 L427.3,227.7 L437.4,227.7 L447.5,227.7 L457.5,227.7 L467.6,227.7 L477.7,227.7 L487.8,227.7 L497.9,227.7 L508.0,227.7 L518.1,227.7 L528.2,227.7 L538.3,227.7 L548.4,227.7 L558.5,227.7 L568.5,227.7 L578.6,227.7 L588.7,227.7 L598.8,227.7 L608.9,227.7 L619.0,227.7 L629.1,227.7 L639.2,227.7 L649.3,227.7 L659.4,227.7 L669.5,227.7 L679.5,227.7 L689.6,227.7 L699.7,227.7 L709.8,227.7 L719.9,227.7 L730.0,227.7" fill="none" stroke="#e66767" stroke-width="2" stroke-linejoin="round" stroke-linecap="round"/>
<circle cx="730.0" cy="227.7" r="6" fill="#1a1a19"/>
<circle cx="730.0" cy="227.7" r="4" fill="#e66767"/>
<circle cx="745.0" cy="52.5" r="3.5" fill="#199e70"/>
<text x="753.0" y="56.0" font-family='system-ui, -apple-system, "Segoe UI", sans-serif' font-size="11" fill="#ffffff">granulator</text>
<text x="753.0" y="68.0" font-family='system-ui, -apple-system, "Segoe UI", sans-serif' font-size="10" style="font-variant-numeric: tabular-nums" fill="#c3c2b7">27.6M</text>
<circle cx="745.0" cy="135.7" r="3.5" fill="#008300"/>
<text x="753.0" y="139.2" font-family='system-ui, -apple-system, "Segoe UI", sans-serif' font-size="11" fill="#ffffff">resonator</text>
<text x="753.0" y="151.2" font-family='system-ui, -apple-system, "Segoe UI", sans-serif' font-size="10" style="font-variant-numeric: tabular-nums" fill="#c3c2b7">18.4M</text>
<circle cx="745.0" cy="202.9" r="3.5" fill="#9085e9"/>
<text x="753.0" y="206.4" font-family='system-ui, -apple-system, "Segoe UI", sans-serif' font-size="11" fill="#ffffff">reverb</text>
<text x="753.0" y="218.4" font-family='system-ui, -apple-system, "Segoe UI", sans-serif' font-size="10" style="font-variant-numeric: tabular-nums" fill="#c3c2b7">11.0M</text>
<line x1="736.0" y1="218.5" x2="740.0" y2="234.4" stroke="#383835" stroke-width="1"/>
<circle cx="745.0" cy="230.9" r="3.5" fill="#3987e5"/>
<text x="753.0" y="234.4" font-family='system-ui, -apple-system, "Segoe UI", sans-serif' font-size="11" fill="#ffffff">compressor</text>
<text x="753.0" y="246.4" font-family='system-ui, -apple-system, "Segoe UI", sans-serif' font-size="10" style="font-variant-numeric: tabular-nums" fill="#c3c2b7">9.67M</text>
<line x1="736.0" y1="227.7" x2="740.0" y2="262.4" stroke="#383835" stroke-width="1"/>
<circle cx="745.0" cy="258.9" r="3.5" fill="#e66767"/>
<text x="753.0" y="262.4" font-family='system-ui, -apple-system, "Segoe UI", sans-serif' font-size="11" fill="#ffffff">saturator</text>
<text x="753.0" y="274.4" font-family='system-ui, -apple-system, "Segoe UI", sans-serif' font-size="10" style="font-variant-numeric: tabular-nums" fill="#c3c2b7">8.65M</text>
<line x1="736.0" y1="251.0" x2="740.0" y2="290.4" stroke="#383835" stroke-width="1"/>
<circle cx="745.0" cy="286.9" r="3.5" fill="#c98500"/>
<text x="753.0" y="290.4" font-family='system-ui, -apple-system, "Segoe UI", sans-serif' font-size="11" fill="#ffffff">pan</text>
<text x="753.0" y="302.4" font-family='system-ui, -apple-system, "Segoe UI", sans-serif' font-size="10" style="font-variant-numeric: tabular-nums" fill="#c3c2b7">6.08M</text>
</svg>