<svg xmlns="http://www.w3.org/2000/svg" width="880" height="340" viewBox="0 0 880 340" role="img" aria-label="Heaviest operators (micro)">
<rect width="880" height="340" rx="6" fill="#fcfcfb"/>
<text x="64" y="24" font-family='system-ui, -apple-system, "Segoe UI", sans-serif' font-size="14" font-weight="600" fill="#0b0b0b">Heaviest operators (micro)</text>
<text x="64" y="41" font-family='system-ui, -apple-system, "Segoe UI", sans-serif' font-size="11" fill="#52514e">per-operator step_node cost over the same 1 s schedule - top 6 by latest Ir</text>
<line x1="64" y1="306.0" x2="730" y2="306.0" stroke="#e1e0d9" stroke-width="1"/>
<text x="56" y="309.5" text-anchor="end" font-family='system-ui, -apple-system, "Segoe UI", sans-serif' font-size="11" style="font-variant-numeric: tabular-nums" fill="#898781">0</text>
<line x1="64" y1="215.1" x2="730" y2="215.1" stroke="#e1e0d9" stroke-width="1"/>
<text x="56" y="218.6" text-anchor="end" font-family='system-ui, -apple-system, "Segoe UI", sans-serif' font-size="11" style="font-variant-numeric: tabular-nums" fill="#898781">10</text>
<line x1="64" y1="124.2" x2="730" y2="124.2" stroke="#e1e0d9" stroke-width="1"/>
<text x="56" y="127.7" text-anchor="end" font-family='system-ui, -apple-system, "Segoe UI", sans-serif' font-size="11" style="font-variant-numeric: tabular-nums" fill="#898781">20</text>
<text x="56" y="46" text-anchor="end" font-family='system-ui, -apple-system, "Segoe UI", sans-serif' font-size="10" fill="#898781">Ir (M)</text>
<line x1="64" y1="306" x2="730" y2="306" stroke="#c3c2b7" stroke-width="1"/>
<text x="64.0" y="322" text-anchor="middle" font-family='system-ui, -apple-system, "Segoe UI", sans-serif' font-size="11" style="font-variant-numeric: tabular-nums" fill="#898781">07-12</text>
<text x="169.2" y="322" text-anchor="middle" font-family='system-ui, -apple-system, "Segoe UI", sans-serif' font-size="11" style="font-variant-numeric: tabular-nums" fill="#898781">07-13</text>
<text x="186.7" y="322" text-anchor="middle" font-family='system-ui, -apple-system, "Segoe UI", sans-serif' font-size="11" style="font-variant-numeric: tabular-nums" fill="#898781">07-14</text>
<text x="204.2" y="322" text-anchor="middle" font-family='system-ui, -apple-system, "Segoe UI", sans-serif' font-size="11" style="font-variant-numeric: tabular-nums" fill="#898781">07-16</text>
<text x="344.4" y="322" text-anchor="middle" font-family='system-ui, -apple-system, "Segoe UI", sans-serif' font-size="11" style="font-variant-numeric: tabular-nums" fill="#898781">07-17</text>
<text x="449.6" y="322" text-anchor="middle" font-family='system-ui, -apple-system, "Segoe UI", sans-serif' font-size="11" style="font-variant-numeric: tabular-nums" fill="#898781">07-18</text>
<text x="554.7" y="322" text-anchor="middle" font-family='system-ui, -apple-system, "Segoe UI", sans-serif' font-size="11" style="font-variant-numeric: tabular-nums" fill="#898781">07-19</text>
<text x="607.3" y="322" text-anchor="middle" font-family='system-ui, -apple-system, "Segoe UI", sans-serif' font-size="11" style="font-variant-numeric: tabular-nums" fill="#898781">07-20</text>
<path d="M607.3,217.9 L624.8,217.9 L642.4,217.9 L659.9,217.9 L677.4,217.9 L694.9,217.9 L712.5,217.9 L730.0,217.9" fill="none" stroke="#2a78d6" stroke-width="2" stroke-linejoin="round" stroke-linecap="round"/>
<circle cx="730.0" cy="217.9" r="6" fill="#fcfcfb"/>
<circle cx="730.0" cy="217.9" r="4" fill="#2a78d6"/>
<path d="M64.0,56.0 L81.5,56.0 L99.1,56.0 L116.6,56.0 L134.1,56.0 L151.6,56.0 L169.2,56.0 L186.7,56.0 L204.2,56.0 L221.7,56.0 L239.3,56.0 L256.8,56.0 L274.3,56.0 L291.8,56.0 L309.4,56.0 L326.9,56.0 L344.4,56.0 L361.9,56.0 L379.5,56.0 L397.0,56.0 L414.5,56.0 L432.1,56.0 L449.6,56.0 L467.1,56.0 L484.6,56.0 L502.2,56.0 L519.7,56.0 L537.2,56.0 L554.7,56.0 L572.3,56.0 L589.8,56.0 L607.3,56.0 L624.8,56.0 L642.4,56.0 L659.9,56.0 L677.4,56.0 L694.9,56.0 L712.5,56.0 L730.0,56.0" fill="none" stroke="#1baf7a" stroke-width="2" stroke-linejoin="round" stroke-linecap="round"/>
<circle cx="730.0" cy="56.0" r="6" fill="#fcfcfb"/>
<circle cx="730.0" cy="56.0" r="4" fill="#1baf7a"/>
<path d="M64.0,250.6 L81.5,250.6 L99.1,250.6 L116.6,250.6 L134.1,250.6 L151.6,250.6 L169.2,250.6 L186.7,250.6 L204.2,250.6 L221.7,250.6 L239.3,250.6 L256.8,250.6 L274.3,250.6 L291.8,250.6 L309.4,250.6 L326.9,250.6 L344.4,250.6 L361.9,250.6 L379.5,250.6 L397.0,250.6 L414.5,250.6 L432.1,250.6 L449.6,250.6 L467.1,250.6 L484.6,250.6 L502.2,250.6 L519.7,250.6 L537.2,250.6 L554.7,250.6 L572.3,250.6 L589.8,250.6 L607.3,250.6 L624.8,250.6 L642.4,250.7 L659.9,250.7 L677.4,250.7 L694.9,250.7 L712.5,250.7 L730.0,250.7" fill="none" stroke="#eda100" stroke-width="2" stroke-linejoin="round" stroke-linecap="round"/>
<circle cx="730.0" cy="250.7" r="6" fill="#fcfcfb"/>
<circle cx="730.0" cy="250.7" r="4" fill="#eda100"/>
<path d="M64.0,137.6 L81.5,137.6 L99.1,137.6 L116.6,137.6 L134.1,137.6 L151.6,137.6 L169.2,138.4 L186.7,138.4 L204.2,138.4 L221.7,138.4 L239.3,138.4 L256.8,138.4 L274.3,138.4 L291.8,138.4 L309.4,138.4 L326.9,138.4 L344.4,138.4 L361.9,138.4 L379.5,138.4 L397.0,138.4 L414.5,138.4 L432.1,138.4 L449.6,138.4 L467.1,138.4 L484.6,138.4 L502.2,138.4 L519.7,138.4 L537.2,138.4 L554.7,138.4 L572.3,138.4 L589.8,138.4 L607.3,138.4 L624.8,138.4 L642.4,138.4 L659.9,138.4 L677.4,138.4 L694.9,138.4 L712.5,138.4 L730.0,138.4" fill="none" stroke="#008300" stroke-width="2" stroke-linejoin="round" stroke-linecap="round"/>
<circle cx="730.0" cy="138.4" r="6" fill="#fcfcfb"/>
<circle cx="730.0" cy="138.4" r="4" fill="#008300"/>
<path d="M64.0,205.9 L81.5,205.9 L99.1,205.9 L116.6,205.9 L134.1,205.9 L151.6,205.9 L169.2,205.9 L186.7,205.9 L204.2,205.9 L221.7,205.9 L239.3,205.9 L256.8,205.9 L274.3,205.9 L291.8,205.9 L309.4,205.9 L326.9,205.9 L344.4,205.9 L361.9,205.9 L379.5,205.9 L397.0,205.9 L414.5,205.9 L432.1,205.9 L449.6,205.9 L467.1,205.9 L484.6,205.9 L502.2,205.9 L519.7,205.9 L537.2,205.9 L554.7,205.9 L572.3,205.9 L589.8,205.9 L607.3,205.9 L624.8,205.9 L642.4,205.9 L659.9,205.9 L677.4,205.9 L694.9,205.9 L712.5,205.9 L730.0,205.9" fill="none" stroke="#4a3aa7" stroke-width="2" stroke-linejoin="round" stroke-linecap="round"/>
<circle cx="730.0" cy="205.9" r="6" fill="#fcfcfb"/>
<circle cx="730.0" cy="205.9" r="4" fill="#4a3aa7"/>
<path d="M64.0,227.3 L81.5,227.3 L99.1,227.3 L116.6,227.3 L134.1,227.3 L151.6,227.3 L169.2,227.3 L186.7,227.3 L204.2,227.3 L221.7,227.3 L239.3,227.3 L256.8,227.3 L274.3,227.3 L291.8,227.3 L309.4,227.3 L326.9,227.3 L344.4,227.3 L361.9,227.3 L379.5,227.3 L397.0,227.3 L414.5,227.3 L432.1,227.3 L449.6,227.3 L467.1,227.3 L484.6,227.3 L502.2,227.3 L519.7,227.3 L537.2,227.3 L554.7,227.3 L572.3,227.3 L589.8,227.3 L607.3,227.3 L624.8,227.3 L642.4,227.3 L659.9,227.3 L677.4,227.3 L694.9,227.3 L712.5,227.3 L730.0,227.3" fill="none" stroke="#e34948" stroke-width="2" stroke-linejoin="round" stroke-linecap="round"/>
<circle cx="730.0" cy="227.3" r="6" fill="#fcfcfb"/>
<circle cx="730.0" cy="227.3" r="4" fill="#e34948"/>
<circle cx="745.0" cy="52.5" r="3.5" fill="#1baf7a"/>
<text x="753.0" y="56.0" font-family='system-ui, -apple-system, "Segoe UI", sans-serif' font-size="11" fill="#0b0b0b">granulator</text>
<text x="753.0" y="68.0" font-family='system-ui, -apple-system, "Segoe UI", sans-serif' font-size="10" style="font-variant-numeric: tabular-nums" fill="#52514e">27.5M</text>
<circle cx="745.0" cy="134.9" r="3.5" fill="#008300"/>
<text x="753.0" y="138.4" font-family='system-ui, -apple-system, "Segoe UI", sans-serif' font-size="11" fill="#0b0b0b">resonator</text>
<text x="753.0" y="150.4" font-family='system-ui, -apple-system, "Segoe UI", sans-serif' font-size="10" style="font-variant-numeric: tabular-nums" fill="#52514e">18.4M</text>
<circle cx="745.0" cy="202.4" r="3.5" fill="#4a3aa7"/>
<text x="753.0" y="205.9" font-family='system-ui, -apple-system, "Segoe UI", sans-serif' font-size="11" fill="#0b0b0b">reverb</text>
<text x="753.0" y="217.9" font-family='system-ui, -apple-system, "Segoe UI", sans-serif' font-size="10" style="font-variant-numeric: tabular-nums" fill="#52514e">11.0M</text>
<line x1="736.0" y1="217.9" x2="740.0" y2="233.9" stroke="#c3c2b7" stroke-width="1"/>
<circle cx="745.0" cy="230.4" r="3.5" fill="#2a78d6"/>
<text x="753.0" y="233.9" font-family='system-ui, -apple-system, "Segoe UI", sans-serif' font-size="11" fill="#0b0b0b">compressor</text>
<text x="753.0" y="245.9" font-family='system-ui, -apple-system, "Segoe UI", sans-serif' font-size="10" style="font-variant-numeric: tabular-nums" fill="#52514e">9.69M</text>
<line x1="736.0" y1="227.3" x2="740.0" y2="261.9" stroke="#c3c2b7" stroke-width="1"/>
<circle cx="745.0" cy="258.4" r="3.5" fill="#e34948"/>
<text x="753.0" y="261.9" font-family='system-ui, -apple-system, "Segoe UI", sans-serif' font-size="11" fill="#0b0b0b">saturator</text>
<text x="753.0" y="273.9" font-family='system-ui, -apple-system, "Segoe UI", sans-serif' font-size="10" style="font-variant-numeric: tabular-nums" fill="#52514e">8.65M</text>
<line x1="736.0" y1="250.7" x2="740.0" y2="289.9" stroke="#c3c2b7" stroke-width="1"/>
<circle cx="745.0" cy="286.4" r="3.5" fill="#eda100"/>
<text x="753.0" y="289.9" font-family='system-ui, -apple-system, "Segoe UI", sans-serif' font-size="11" fill="#0b0b0b">pan</text>
<text x="753.0" y="301.9" font-family='system-ui, -apple-system, "Segoe UI", sans-serif' font-size="10" style="font-variant-numeric: tabular-nums" fill="#52514e">6.08M</text>
</svg>