<svg xmlns="http://www.w3.org/2000/svg" width="880" height="340" viewBox="0 0 880 340" role="img" aria-label="Heaviest operators (micro)">
<rect width="880" height="340" rx="6" fill="#1a1a19"/>
<text x="64" y="24" font-family='system-ui, -apple-system, "Segoe UI", sans-serif' font-size="14" font-weight="600" fill="#ffffff">Heaviest operators (micro)</text>
<text x="64" y="41" font-family='system-ui, -apple-system, "Segoe UI", sans-serif' font-size="11" fill="#c3c2b7">per-operator step_node cost over the same 1 s schedule - top 6 by latest Ir</text>
<line x1="64" y1="306.0" x2="730" y2="306.0" stroke="#2c2c2a" stroke-width="1"/>
<text x="56" y="309.5" text-anchor="end" font-family='system-ui, -apple-system, "Segoe UI", sans-serif' font-size="11" style="font-variant-numeric: tabular-nums" fill="#898781">0</text>
<line x1="64" y1="218.1" x2="730" y2="218.1" stroke="#2c2c2a" stroke-width="1"/>
<text x="56" y="221.6" text-anchor="end" font-family='system-ui, -apple-system, "Segoe UI", sans-serif' font-size="11" style="font-variant-numeric: tabular-nums" fill="#898781">10</text>
<line x1="64" y1="130.3" x2="730" y2="130.3" stroke="#2c2c2a" stroke-width="1"/>
<text x="56" y="133.8" text-anchor="end" font-family='system-ui, -apple-system, "Segoe UI", sans-serif' font-size="11" style="font-variant-numeric: tabular-nums" fill="#898781">20</text>
<text x="56" y="46" text-anchor="end" font-family='system-ui, -apple-system, "Segoe UI", sans-serif' font-size="10" fill="#898781">Ir (M)</text>
<line x1="64" y1="306" x2="730" y2="306" stroke="#383835" stroke-width="1"/>
<text x="64.0" y="322" text-anchor="middle" font-family='system-ui, -apple-system, "Segoe UI", sans-serif' font-size="11" style="font-variant-numeric: tabular-nums" fill="#898781">06-28</text>
<text x="142.4" y="322" text-anchor="middle" font-family='system-ui, -apple-system, "Segoe UI", sans-serif' font-size="11" style="font-variant-numeric: tabular-nums" fill="#898781">06-30</text>
<text x="207.6" y="322" text-anchor="middle" font-family='system-ui, -apple-system, "Segoe UI", sans-serif' font-size="11" style="font-variant-numeric: tabular-nums" fill="#898781">07-02</text>
<text x="351.3" y="322" text-anchor="middle" font-family='system-ui, -apple-system, "Segoe UI", sans-serif' font-size="11" style="font-variant-numeric: tabular-nums" fill="#898781">07-04</text>
<text x="560.2" y="322" text-anchor="middle" font-family='system-ui, -apple-system, "Segoe UI", sans-serif' font-size="11" style="font-variant-numeric: tabular-nums" fill="#898781">07-07</text>
<text x="690.8" y="322" text-anchor="middle" font-family='system-ui, -apple-system, "Segoe UI", sans-serif' font-size="11" style="font-variant-numeric: tabular-nums" fill="#898781">07-09</text>
<path d="M155.4,56.2 L168.5,56.2 L181.5,56.1 L194.6,61.2 L207.6,56.2 L220.7,56.2 L233.8,56.2 L246.8,56.2 L259.9,56.2 L272.9,56.2 L286.0,56.2 L299.1,56.2 L312.1,56.2 L325.2,56.2 L338.2,56.2 L351.3,56.2 L364.4,56.2 L377.4,56.2 L390.5,56.2 L403.5,60.8 L416.6,56.1 L429.6,56.1 L442.7,56.1 L455.8,56.1 L468.8,56.1 L481.9,60.6 L494.9,60.6 L508.0,56.1 L521.1,56.0 L534.1,56.0 L547.2,56.0 L560.2,56.0 L573.3,56.0 L586.4,56.0 L599.4,56.0 L612.5,56.0 L625.5,56.0 L638.6,56.0 L651.6,56.0 L664.7,56.0 L677.8,56.0 L690.8,56.0 L703.9,56.0 L716.9,61.0 L730.0,61.0" fill="none" stroke="#3987e5" stroke-width="2" stroke-linejoin="round" stroke-linecap="round"/>
<circle cx="730.0" cy="61.0" r="6" fill="#1a1a19"/>
<circle cx="730.0" cy="61.0" r="4" fill="#3987e5"/>
<path d="M64.0,246.7 L77.1,246.7 L90.1,246.7 L103.2,246.7 L116.2,246.7 L129.3,246.6 L142.4,246.6 L155.4,246.2 L168.5,246.3 L181.5,246.3 L194.6,246.3 L207.6,246.3 L220.7,246.3 L233.8,246.3 L246.8,246.3 L259.9,246.3 L272.9,246.3 L286.0,246.3 L299.1,251.7 L312.1,251.7 L325.2,251.7 L338.2,251.7 L351.3,251.7 L364.4,251.7 L377.4,251.7 L390.5,251.7 L403.5,251.7 L416.6,251.6 L429.6,251.6 L442.7,251.6 L455.8,251.6 L468.8,251.6 L481.9,251.6 L494.9,251.6 L508.0,251.6 L521.1,251.5 L534.1,251.5 L547.2,251.5 L560.2,251.5 L573.3,251.5 L586.4,251.5 L599.4,251.5 L612.5,251.5 L625.5,251.5 L638.6,251.5 L651.6,251.5 L664.7,251.5 L677.8,251.5 L690.8,251.5 L703.9,251.5 L716.9,251.6 L730.0,251.6" fill="none" stroke="#199e70" stroke-width="2" stroke-linejoin="round" stroke-linecap="round"/>
<circle cx="730.0" cy="251.6" r="6" fill="#1a1a19"/>
<circle cx="730.0" cy="251.6" r="4" fill="#199e70"/>
<path d="M90.1,97.2 L103.2,97.2 L116.2,97.2 L129.3,138.2 L142.4,138.2 L155.4,137.8 L168.5,137.8 L181.5,137.8 L194.6,137.9 L207.6,137.8 L220.7,137.9 L233.8,137.8 L246.8,137.8 L259.9,137.8 L272.9,137.8 L286.0,137.8 L299.1,142.4 L312.1,142.4 L325.2,142.4 L338.2,142.4 L351.3,142.4 L364.4,142.4 L377.4,142.4 L390.5,142.4 L403.5,142.4 L416.6,142.4 L429.6,142.4 L442.7,142.4 L455.8,142.4 L468.8,142.4 L481.9,142.3 L494.9,142.4 L508.0,142.3 L521.1,142.3 L534.1,142.3 L547.2,142.3 L560.2,142.3 L573.3,142.3 L586.4,142.3 L599.4,142.3 L612.5,142.3 L625.5,142.3 L638.6,142.3 L651.6,142.3 L664.7,142.3 L677.8,142.3 L690.8,142.3 L703.9,142.3 L716.9,142.3 L730.0,142.3" fill="none" stroke="#c98500" stroke-width="2" stroke-linejoin="round" stroke-linecap="round"/>
<circle cx="730.0" cy="142.3" r="6" fill="#1a1a19"/>
<circle cx="730.0" cy="142.3" r="4" fill="#c98500"/>
<path d="M64.0,195.3 L77.1,195.3 L90.1,195.4 L103.2,195.4 L116.2,195.4 L129.3,204.2 L142.4,204.1 L155.4,203.8 L168.5,203.8 L181.5,203.8 L194.6,203.9 L207.6,203.8 L220.7,203.8 L233.8,203.8 L246.8,203.8 L259.9,203.8 L272.9,203.8 L286.0,203.8 L299.1,208.4 L312.1,208.4 L325.2,208.4 L338.2,208.4 L351.3,208.4 L364.4,208.4 L377.4,208.4 L390.5,208.4 L403.5,208.5 L416.6,208.3 L429.6,208.3 L442.7,208.3 L455.8,208.3 L468.8,208.3 L481.9,208.3 L494.9,208.4 L508.0,208.4 L521.1,208.2 L534.1,208.2 L547.2,208.2 L560.2,208.2 L573.3,208.2 L586.4,208.2 L599.4,208.2 L612.5,208.2 L625.5,208.2 L638.6,208.2 L651.6,208.2 L664.7,208.2 L677.8,208.2 L690.8,208.2 L703.9,208.2 L716.9,208.4 L730.0,208.3" fill="none" stroke="#008300" stroke-width="2" stroke-linejoin="round" stroke-linecap="round"/>
<circle cx="730.0" cy="208.3" r="6" fill="#1a1a19"/>
<circle cx="730.0" cy="208.3" r="4" fill="#008300"/>
<circle cx="730.0" cy="229.0" r="2.5" fill="#9085e9"/>
<circle cx="730.0" cy="229.0" r="6" fill="#1a1a19"/>
<circle cx="730.0" cy="229.0" r="4" fill="#9085e9"/>
<path d="M64.0,262.8 L77.1,262.8 L90.1,262.8 L103.2,262.8 L116.2,263.0 L129.3,263.2 L142.4,263.0 L155.4,262.4 L168.5,262.5 L181.5,262.4 L194.6,262.5 L207.6,262.5 L220.7,262.5 L233.8,262.5 L246.8,262.5 L259.9,262.5 L272.9,262.5 L286.0,262.5 L299.1,261.7 L312.1,261.7 L325.2,261.6 L338.2,261.4 L351.3,261.4 L364.4,261.4 L377.4,261.4 L390.5,261.4 L403.5,261.4 L416.6,261.3 L429.6,261.3 L442.7,261.3 L455.8,261.3 L468.8,261.3 L481.9,261.2 L494.9,261.3 L508.0,261.3 L521.1,261.0 L534.1,261.0 L547.2,261.1 L560.2,261.1 L573.3,261.1 L586.4,261.1 L599.4,261.1 L612.5,261.1 L625.5,261.1 L638.6,261.1 L651.6,261.1 L664.7,261.1 L677.8,261.1 L690.8,261.1 L703.9,261.1 L716.9,261.3 L730.0,261.2" fill="none" stroke="#e66767" stroke-width="2" stroke-linejoin="round" stroke-linecap="round"/>
<circle cx="730.0" cy="261.2" r="6" fill="#1a1a19"/>
<circle cx="730.0" cy="261.2" r="4" fill="#e66767"/>
<circle cx="745.0" cy="57.5" r="3.5" fill="#3987e5"/>
<text x="753.0" y="61.0" font-family='system-ui, -apple-system, "Segoe UI", sans-serif' font-size="11" fill="#ffffff">granulator</text>
<text x="753.0" y="73.0" font-family='system-ui, -apple-system, "Segoe UI", sans-serif' font-size="10" style="font-variant-numeric: tabular-nums" fill="#c3c2b7">27.9M</text>
<circle cx="745.0" cy="138.8" r="3.5" fill="#c98500"/>
<text x="753.0" y="142.3" font-family='system-ui, -apple-system, "Segoe UI", sans-serif' font-size="11" fill="#ffffff">resonator</text>
<text x="753.0" y="154.3" font-family='system-ui, -apple-system, "Segoe UI", sans-serif' font-size="10" style="font-variant-numeric: tabular-nums" fill="#c3c2b7">18.6M</text>
<circle cx="745.0" cy="204.8" r="3.5" fill="#008300"/>
<text x="753.0" y="208.3" font-family='system-ui, -apple-system, "Segoe UI", sans-serif' font-size="11" fill="#ffffff">reverb</text>
<text x="753.0" y="220.3" font-family='system-ui, -apple-system, "Segoe UI", sans-serif' font-size="10" style="font-variant-numeric: tabular-nums" fill="#c3c2b7">11.1M</text>
<line x1="736.0" y1="229.0" x2="740.0" y2="236.3" stroke="#383835" stroke-width="1"/>
<circle cx="745.0" cy="232.8" r="3.5" fill="#9085e9"/>
<text x="753.0" y="236.3" font-family='system-ui, -apple-system, "Segoe UI", sans-serif' font-size="11" fill="#ffffff">saturator</text>
<text x="753.0" y="248.3" font-family='system-ui, -apple-system, "Segoe UI", sans-serif' font-size="10" style="font-variant-numeric: tabular-nums" fill="#c3c2b7">8.76M</text>
<line x1="736.0" y1="251.6" x2="740.0" y2="264.3" stroke="#383835" stroke-width="1"/>
<circle cx="745.0" cy="260.8" r="3.5" fill="#199e70"/>
<text x="753.0" y="264.3" font-family='system-ui, -apple-system, "Segoe UI", sans-serif' font-size="11" fill="#ffffff">pan</text>
<text x="753.0" y="276.3" font-family='system-ui, -apple-system, "Segoe UI", sans-serif' font-size="10" style="font-variant-numeric: tabular-nums" fill="#c3c2b7">6.19M</text>
<line x1="736.0" y1="261.2" x2="740.0" y2="292.3" stroke="#383835" stroke-width="1"/>
<circle cx="745.0" cy="288.8" r="3.5" fill="#e66767"/>
<text x="753.0" y="292.3" font-family='system-ui, -apple-system, "Segoe UI", sans-serif' font-size="11" fill="#ffffff">sequencer</text>
<text x="753.0" y="304.3" font-family='system-ui, -apple-system, "Segoe UI", sans-serif' font-size="10" style="font-variant-numeric: tabular-nums" fill="#c3c2b7">5.10M</text>
</svg>