<svg xmlns="http://www.w3.org/2000/svg" width="880" height="340" viewBox="0 0 880 340" role="img" aria-label="Heaviest operators (micro)">
<rect width="880" height="340" rx="6" fill="#fcfcfb"/>
<text x="64" y="24" font-family='system-ui, -apple-system, "Segoe UI", sans-serif' font-size="14" font-weight="600" fill="#0b0b0b">Heaviest operators (micro)</text>
<text x="64" y="41" font-family='system-ui, -apple-system, "Segoe UI", sans-serif' font-size="11" fill="#52514e">per-operator step_node cost over the same 1 s schedule - top 6 by latest Ir</text>
<line x1="64" y1="306.0" x2="730" y2="306.0" stroke="#e1e0d9" stroke-width="1"/>
<text x="56" y="309.5" text-anchor="end" font-family='system-ui, -apple-system, "Segoe UI", sans-serif' font-size="11" style="font-variant-numeric: tabular-nums" fill="#898781">0</text>
<line x1="64" y1="218.1" x2="730" y2="218.1" stroke="#e1e0d9" stroke-width="1"/>
<text x="56" y="221.6" text-anchor="end" font-family='system-ui, -apple-system, "Segoe UI", sans-serif' font-size="11" style="font-variant-numeric: tabular-nums" fill="#898781">10</text>
<line x1="64" y1="130.3" x2="730" y2="130.3" stroke="#e1e0d9" stroke-width="1"/>
<text x="56" y="133.8" text-anchor="end" font-family='system-ui, -apple-system, "Segoe UI", sans-serif' font-size="11" style="font-variant-numeric: tabular-nums" fill="#898781">20</text>
<text x="56" y="46" text-anchor="end" font-family='system-ui, -apple-system, "Segoe UI", sans-serif' font-size="10" fill="#898781">Ir (M)</text>
<line x1="64" y1="306" x2="730" y2="306" stroke="#c3c2b7" stroke-width="1"/>
<text x="64.0" y="322" text-anchor="middle" font-family='system-ui, -apple-system, "Segoe UI", sans-serif' font-size="11" style="font-variant-numeric: tabular-nums" fill="#898781">06-28</text>
<text x="117.3" y="322" text-anchor="middle" font-family='system-ui, -apple-system, "Segoe UI", sans-serif' font-size="11" style="font-variant-numeric: tabular-nums" fill="#898781">06-30</text>
<text x="161.7" y="322" text-anchor="middle" font-family='system-ui, -apple-system, "Segoe UI", sans-serif' font-size="11" style="font-variant-numeric: tabular-nums" fill="#898781">07-02</text>
<text x="259.4" y="322" text-anchor="middle" font-family='system-ui, -apple-system, "Segoe UI", sans-serif' font-size="11" style="font-variant-numeric: tabular-nums" fill="#898781">07-04</text>
<text x="401.4" y="322" text-anchor="middle" font-family='system-ui, -apple-system, "Segoe UI", sans-serif' font-size="11" style="font-variant-numeric: tabular-nums" fill="#898781">07-07</text>
<text x="490.2" y="322" text-anchor="middle" font-family='system-ui, -apple-system, "Segoe UI", sans-serif' font-size="11" style="font-variant-numeric: tabular-nums" fill="#898781">07-09</text>
<text x="561.3" y="322" text-anchor="middle" font-family='system-ui, -apple-system, "Segoe UI", sans-serif' font-size="11" style="font-variant-numeric: tabular-nums" fill="#898781">07-11</text>
<circle cx="730.0" cy="221.0" r="2.5" fill="#2a78d6"/>
<circle cx="730.0" cy="221.0" r="6" fill="#fcfcfb"/>
<circle cx="730.0" cy="221.0" r="4" fill="#2a78d6"/>
<path d="M126.2,56.2 L135.0,56.2 L143.9,56.1 L152.8,61.2 L161.7,56.2 L170.6,56.2 L179.4,56.2 L188.3,56.2 L197.2,56.2 L206.1,56.2 L215.0,56.2 L223.8,56.2 L232.7,56.2 L241.6,56.2 L250.5,56.2 L259.4,56.2 L268.2,56.2 L277.1,56.2 L286.0,56.2 L294.9,60.8 L303.8,56.1 L312.6,56.1 L321.5,56.1 L330.4,56.1 L339.3,56.1 L348.2,60.6 L357.0,60.6 L365.9,56.1 L374.8,56.0 L383.7,56.0 L392.6,56.0 L401.4,56.0 L410.3,56.0 L419.2,56.0 L428.1,56.0 L437.0,56.0 L445.8,56.0 L454.7,56.0 L463.6,56.0 L472.5,56.0 L481.4,56.0 L490.2,56.0 L499.1,56.0 L508.0,61.0 L516.9,61.0 L525.8,61.0 L534.6,56.1 L543.5,61.3 L552.4,56.3 L561.3,56.4 L570.2,64.4 L579.0,64.4 L587.9,64.4 L596.8,64.4 L605.7,64.4 L614.6,64.4 L623.4,64.4 L632.3,64.4 L641.2,64.4 L650.1,64.4 L659.0,64.4 L667.8,64.4 L676.7,64.4 L685.6,64.4 L694.5,64.4 L703.4,64.4 L712.2,64.4 L721.1,64.4 L730.0,63.2" fill="none" stroke="#1baf7a" stroke-width="2" stroke-linejoin="round" stroke-linecap="round"/>
<circle cx="730.0" cy="63.2" r="6" fill="#fcfcfb"/>
<circle cx="730.0" cy="63.2" r="4" fill="#1baf7a"/>
<path d="M64.0,246.7 L72.9,246.7 L81.8,246.7 L90.6,246.7 L99.5,246.7 L108.4,246.6 L117.3,246.6 L126.2,246.2 L135.0,246.3 L143.9,246.3 L152.8,246.3 L161.7,246.3 L170.6,246.3 L179.4,246.3 L188.3,246.3 L197.2,246.3 L206.1,246.3 L215.0,246.3 L223.8,251.7 L232.7,251.7 L241.6,251.7 L250.5,251.7 L259.4,251.7 L268.2,251.7 L277.1,251.7 L286.0,251.7 L294.9,251.7 L303.8,251.6 L312.6,251.6 L321.5,251.6 L330.4,251.6 L339.3,251.6 L348.2,251.6 L357.0,251.6 L365.9,251.6 L374.8,251.5 L383.7,251.5 L392.6,251.5 L401.4,251.5 L410.3,251.5 L419.2,251.5 L428.1,251.5 L437.0,251.5 L445.8,251.5 L454.7,251.5 L463.6,251.5 L472.5,251.5 L481.4,251.5 L490.2,251.5 L499.1,251.5 L508.0,251.6 L516.9,251.6 L525.8,251.6 L534.6,251.6 L543.5,251.9 L552.4,251.9 L561.3,251.9 L570.2,252.5 L579.0,252.5 L587.9,252.5 L596.8,252.5 L605.7,252.5 L614.6,252.5 L623.4,252.5 L632.3,252.5 L641.2,252.5 L650.1,252.5 L659.0,252.5 L667.8,252.5 L676.7,252.5 L685.6,252.5 L694.5,252.5 L703.4,252.5 L712.2,252.5 L721.1,252.5 L730.0,252.5" fill="none" stroke="#eda100" stroke-width="2" stroke-linejoin="round" stroke-linecap="round"/>
<circle cx="730.0" cy="252.5" r="6" fill="#fcfcfb"/>
<circle cx="730.0" cy="252.5" r="4" fill="#eda100"/>
<path d="M81.8,97.2 L90.6,97.2 L99.5,97.2 L108.4,138.2 L117.3,138.2 L126.2,137.8 L135.0,137.8 L143.9,137.8 L152.8,137.9 L161.7,137.8 L170.6,137.9 L179.4,137.8 L188.3,137.8 L197.2,137.8 L206.1,137.8 L215.0,137.8 L223.8,142.4 L232.7,142.4 L241.6,142.4 L250.5,142.4 L259.4,142.4 L268.2,142.4 L277.1,142.4 L286.0,142.4 L294.9,142.4 L303.8,142.4 L312.6,142.4 L321.5,142.4 L330.4,142.4 L339.3,142.4 L348.2,142.3 L357.0,142.4 L365.9,142.3 L374.8,142.3 L383.7,142.3 L392.6,142.3 L401.4,142.3 L410.3,142.3 L419.2,142.3 L428.1,142.3 L437.0,142.3 L445.8,142.3 L454.7,142.3 L463.6,142.3 L472.5,142.3 L481.4,142.3 L490.2,142.3 L499.1,142.3 L508.0,142.3 L516.9,142.3 L525.8,142.3 L534.6,142.3 L543.5,142.6 L552.4,142.6 L561.3,142.7 L570.2,143.3 L579.0,143.3 L587.9,143.3 L596.8,143.3 L605.7,143.3 L614.6,143.3 L623.4,143.3 L632.3,143.3 L641.2,143.3 L650.1,143.3 L659.0,143.3 L667.8,143.3 L676.7,143.3 L685.6,143.3 L694.5,143.3 L703.4,143.3 L712.2,143.3 L721.1,143.3 L730.0,144.1" fill="none" stroke="#008300" stroke-width="2" stroke-linejoin="round" stroke-linecap="round"/>
<circle cx="730.0" cy="144.1" r="6" fill="#fcfcfb"/>
<circle cx="730.0" cy="144.1" r="4" fill="#008300"/>
<path d="M64.0,195.3 L72.9,195.3 L81.8,195.4 L90.6,195.4 L99.5,195.4 L108.4,204.2 L117.3,204.1 L126.2,203.8 L135.0,203.8 L143.9,203.8 L152.8,203.9 L161.7,203.8 L170.6,203.8 L179.4,203.8 L188.3,203.8 L197.2,203.8 L206.1,203.8 L215.0,203.8 L223.8,208.4 L232.7,208.4 L241.6,208.4 L250.5,208.4 L259.4,208.4 L268.2,208.4 L277.1,208.4 L286.0,208.4 L294.9,208.5 L303.8,208.3 L312.6,208.3 L321.5,208.3 L330.4,208.3 L339.3,208.3 L348.2,208.3 L357.0,208.4 L365.9,208.4 L374.8,208.2 L383.7,208.2 L392.6,208.2 L401.4,208.2 L410.3,208.2 L419.2,208.2 L428.1,208.2 L437.0,208.2 L445.8,208.2 L454.7,208.2 L463.6,208.2 L472.5,208.2 L481.4,208.2 L490.2,208.2 L499.1,208.2 L508.0,208.4 L516.9,208.3 L525.8,208.3 L534.6,208.3 L543.5,208.6 L552.4,208.6 L561.3,208.6 L570.2,209.2 L579.0,209.2 L587.9,209.2 L596.8,209.2 L605.7,209.2 L614.6,209.2 L623.4,209.2 L632.3,209.2 L641.2,209.2 L650.1,209.2 L659.0,209.2 L667.8,209.2 L676.7,209.2 L685.6,209.2 L694.5,209.2 L703.4,209.2 L712.2,209.2 L721.1,209.2 L730.0,209.3" fill="none" stroke="#4a3aa7" stroke-width="2" stroke-linejoin="round" stroke-linecap="round"/>
<circle cx="730.0" cy="209.3" r="6" fill="#fcfcfb"/>
<circle cx="730.0" cy="209.3" r="4" fill="#4a3aa7"/>
<path d="M516.9,229.0 L525.8,229.0 L534.6,229.1 L543.5,229.3 L552.4,229.3 L561.3,229.3 L570.2,229.9 L579.0,229.9 L587.9,229.9 L596.8,229.9 L605.7,229.9 L614.6,229.9 L623.4,229.9 L632.3,229.9 L641.2,229.9 L650.1,229.9 L659.0,229.9 L667.8,229.9 L676.7,229.9 L685.6,229.9 L694.5,229.9 L703.4,229.9 L712.2,229.9 L721.1,229.9 L730.0,230.0" fill="none" stroke="#e34948" stroke-width="2" stroke-linejoin="round" stroke-linecap="round"/>
<circle cx="730.0" cy="230.0" r="6" fill="#fcfcfb"/>
<circle cx="730.0" cy="230.0" r="4" fill="#e34948"/>
<circle cx="745.0" cy="59.7" r="3.5" fill="#1baf7a"/>
<text x="753.0" y="63.2" font-family='system-ui, -apple-system, "Segoe UI", sans-serif' font-size="11" fill="#0b0b0b">granulator</text>
<text x="753.0" y="75.2" font-family='system-ui, -apple-system, "Segoe UI", sans-serif' font-size="10" style="font-variant-numeric: tabular-nums" fill="#52514e">27.6M</text>
<circle cx="745.0" cy="140.6" r="3.5" fill="#008300"/>
<text x="753.0" y="144.1" font-family='system-ui, -apple-system, "Segoe UI", sans-serif' font-size="11" fill="#0b0b0b">resonator</text>
<text x="753.0" y="156.1" font-family='system-ui, -apple-system, "Segoe UI", sans-serif' font-size="10" style="font-variant-numeric: tabular-nums" fill="#52514e">18.4M</text>
<circle cx="745.0" cy="205.8" r="3.5" fill="#4a3aa7"/>
<text x="753.0" y="209.3" font-family='system-ui, -apple-system, "Segoe UI", sans-serif' font-size="11" fill="#0b0b0b">reverb</text>
<text x="753.0" y="221.3" font-family='system-ui, -apple-system, "Segoe UI", sans-serif' font-size="10" style="font-variant-numeric: tabular-nums" fill="#52514e">11.0M</text>
<line x1="736.0" y1="221.0" x2="740.0" y2="237.3" stroke="#c3c2b7" stroke-width="1"/>
<circle cx="745.0" cy="233.8" r="3.5" fill="#2a78d6"/>
<text x="753.0" y="237.3" font-family='system-ui, -apple-system, "Segoe UI", sans-serif' font-size="11" fill="#0b0b0b">compressor</text>
<text x="753.0" y="249.3" font-family='system-ui, -apple-system, "Segoe UI", sans-serif' font-size="10" style="font-variant-numeric: tabular-nums" fill="#52514e">9.67M</text>
<line x1="736.0" y1="230.0" x2="740.0" y2="265.3" stroke="#c3c2b7" stroke-width="1"/>
<circle cx="745.0" cy="261.8" r="3.5" fill="#e34948"/>
<text x="753.0" y="265.3" font-family='system-ui, -apple-system, "Segoe UI", sans-serif' font-size="11" fill="#0b0b0b">saturator</text>
<text x="753.0" y="277.3" font-family='system-ui, -apple-system, "Segoe UI", sans-serif' font-size="10" style="font-variant-numeric: tabular-nums" fill="#52514e">8.65M</text>
<line x1="736.0" y1="252.5" x2="740.0" y2="293.3" stroke="#c3c2b7" stroke-width="1"/>
<circle cx="745.0" cy="289.8" r="3.5" fill="#eda100"/>
<text x="753.0" y="293.3" font-family='system-ui, -apple-system, "Segoe UI", sans-serif' font-size="11" fill="#0b0b0b">pan</text>
<text x="753.0" y="305.3" font-family='system-ui, -apple-system, "Segoe UI", sans-serif' font-size="10" style="font-variant-numeric: tabular-nums" fill="#52514e">6.08M</text>
</svg>