<svg xmlns="http://www.w3.org/2000/svg" width="880" height="340" viewBox="0 0 880 340" role="img" aria-label="Heaviest operators (micro)">
<rect width="880" height="340" rx="6" fill="#1a1a19"/>
<text x="64" y="24" font-family='system-ui, -apple-system, "Segoe UI", sans-serif' font-size="14" font-weight="600" fill="#ffffff">Heaviest operators (micro)</text>
<text x="64" y="41" font-family='system-ui, -apple-system, "Segoe UI", sans-serif' font-size="11" fill="#c3c2b7">per-operator step_node cost over the same 1 s schedule - top 6 by latest Ir</text>
<line x1="64" y1="306.0" x2="730" y2="306.0" stroke="#2c2c2a" stroke-width="1"/>
<text x="56" y="309.5" text-anchor="end" font-family='system-ui, -apple-system, "Segoe UI", sans-serif' font-size="11" style="font-variant-numeric: tabular-nums" fill="#898781">0</text>
<line x1="64" y1="215.5" x2="730" y2="215.5" stroke="#2c2c2a" stroke-width="1"/>
<text x="56" y="219.0" text-anchor="end" font-family='system-ui, -apple-system, "Segoe UI", sans-serif' font-size="11" style="font-variant-numeric: tabular-nums" fill="#898781">10</text>
<line x1="64" y1="125.0" x2="730" y2="125.0" stroke="#2c2c2a" stroke-width="1"/>
<text x="56" y="128.5" text-anchor="end" font-family='system-ui, -apple-system, "Segoe UI", sans-serif' font-size="11" style="font-variant-numeric: tabular-nums" fill="#898781">20</text>
<text x="56" y="46" text-anchor="end" font-family='system-ui, -apple-system, "Segoe UI", sans-serif' font-size="10" fill="#898781">Ir (M)</text>
<line x1="64" y1="306" x2="730" y2="306" stroke="#383835" stroke-width="1"/>
<text x="64.0" y="322" text-anchor="middle" font-family='system-ui, -apple-system, "Segoe UI", sans-serif' font-size="11" style="font-variant-numeric: tabular-nums" fill="#898781">07-12</text>
<text x="140.4" y="322" text-anchor="middle" font-family='system-ui, -apple-system, "Segoe UI", sans-serif' font-size="11" style="font-variant-numeric: tabular-nums" fill="#898781">07-14</text>
<text x="238.7" y="322" text-anchor="middle" font-family='system-ui, -apple-system, "Segoe UI", sans-serif' font-size="11" style="font-variant-numeric: tabular-nums" fill="#898781">07-17</text>
<text x="369.7" y="322" text-anchor="middle" font-family='system-ui, -apple-system, "Segoe UI", sans-serif' font-size="11" style="font-variant-numeric: tabular-nums" fill="#898781">07-19</text>
<text x="566.2" y="322" text-anchor="middle" font-family='system-ui, -apple-system, "Segoe UI", sans-serif' font-size="11" style="font-variant-numeric: tabular-nums" fill="#898781">07-21</text>
<path d="M402.5,218.3 L413.4,218.3 L424.3,218.3 L435.2,218.3 L446.1,218.3 L457.0,218.3 L468.0,218.3 L478.9,218.3 L489.8,218.3 L500.7,218.3 L511.6,218.4 L522.6,218.4 L533.5,218.4 L544.4,218.4 L555.3,218.4 L566.2,218.4 L577.1,218.4 L588.1,218.4 L599.0,218.4 L609.9,218.4 L620.8,218.4 L631.7,218.4 L642.7,218.4 L653.6,218.4 L664.5,218.5 L675.4,218.5 L686.3,218.5 L697.2,218.5 L708.2,218.5 L719.1,218.5 L730.0,218.5" fill="none" stroke="#3987e5" stroke-width="2" stroke-linejoin="round" stroke-linecap="round"/>
<circle cx="730.0" cy="218.5" r="6" fill="#1a1a19"/>
<circle cx="730.0" cy="218.5" r="4" fill="#3987e5"/>
<path d="M64.0,57.2 L74.9,57.2 L85.8,57.2 L96.8,57.2 L107.7,57.2 L118.6,57.2 L129.5,57.2 L140.4,57.2 L151.3,57.2 L162.3,57.2 L173.2,57.2 L184.1,57.2 L195.0,57.2 L205.9,57.2 L216.9,57.2 L227.8,57.2 L238.7,57.2 L249.6,57.2 L260.5,57.2 L271.4,57.2 L282.4,57.2 L293.3,57.2 L304.2,57.2 L315.1,57.2 L326.0,57.2 L337.0,57.2 L347.9,57.2 L358.8,57.2 L369.7,57.2 L380.6,57.2 L391.5,57.2 L402.5,57.2 L413.4,57.2 L424.3,57.2 L435.2,57.2 L446.1,57.2 L457.0,57.2 L468.0,57.2 L478.9,57.2 L489.8,57.2 L500.7,57.2 L511.6,57.2 L522.6,57.2 L533.5,57.2 L544.4,57.2 L555.3,57.2 L566.2,57.2 L577.1,57.2 L588.1,57.2 L599.0,57.2 L609.9,57.2 L620.8,57.2 L631.7,57.2 L642.7,57.2 L653.6,57.2 L664.5,57.2 L675.4,56.0 L686.3,56.0 L697.2,56.0 L708.2,56.0 L719.1,56.0 L730.0,56.0" fill="none" stroke="#199e70" stroke-width="2" stroke-linejoin="round" stroke-linecap="round"/>
<circle cx="730.0" cy="56.0" r="6" fill="#1a1a19"/>
<circle cx="730.0" cy="56.0" r="4" fill="#199e70"/>
<path d="M64.0,250.9 L74.9,250.9 L85.8,250.9 L96.8,250.9 L107.7,250.9 L118.6,250.9 L129.5,250.9 L140.4,250.9 L151.3,250.9 L162.3,250.9 L173.2,250.9 L184.1,250.9 L195.0,250.9 L205.9,250.9 L216.9,250.9 L227.8,250.9 L238.7,250.9 L249.6,250.9 L260.5,250.9 L271.4,250.9 L282.4,250.9 L293.3,250.9 L304.2,250.9 L315.1,250.9 L326.0,250.9 L337.0,250.9 L347.9,250.9 L358.8,250.9 L369.7,250.9 L380.6,250.9 L391.5,250.9 L402.5,250.9 L413.4,250.9 L424.3,250.9 L435.2,250.9 L446.1,250.9 L457.0,250.9 L468.0,250.9 L478.9,250.9 L489.8,250.9 L500.7,250.9 L511.6,250.9 L522.6,250.9 L533.5,250.9 L544.4,250.9 L555.3,250.9 L566.2,250.9 L577.1,250.9 L588.1,250.9 L599.0,250.9 L609.9,250.9 L620.8,250.9 L631.7,250.9 L642.7,250.9 L653.6,250.9 L664.5,250.9 L675.4,251.0 L686.3,251.0 L697.2,251.0 L708.2,251.0 L719.1,251.0 L730.0,251.0" fill="none" stroke="#c98500" stroke-width="2" stroke-linejoin="round" stroke-linecap="round"/>
<circle cx="730.0" cy="251.0" r="6" fill="#1a1a19"/>
<circle cx="730.0" cy="251.0" r="4" fill="#c98500"/>
<path d="M64.0,138.4 L74.9,138.4 L85.8,138.4 L96.8,138.4 L107.7,138.4 L118.6,138.4 L129.5,139.2 L140.4,139.2 L151.3,139.2 L162.3,139.2 L173.2,139.2 L184.1,139.2 L195.0,139.2 L205.9,139.2 L216.9,139.2 L227.8,139.2 L238.7,139.2 L249.6,139.2 L260.5,139.2 L271.4,139.2 L282.4,139.2 L293.3,139.2 L304.2,139.2 L315.1,139.2 L326.0,139.2 L337.0,139.2 L347.9,139.2 L358.8,139.2 L369.7,139.2 L380.6,139.2 L391.5,139.2 L402.5,139.2 L413.4,139.2 L424.3,139.2 L435.2,139.2 L446.1,139.2 L457.0,139.2 L468.0,139.2 L478.9,139.2 L489.8,139.2 L500.7,139.2 L511.6,139.3 L522.6,139.3 L533.5,139.3 L544.4,139.3 L555.3,139.3 L566.2,139.3 L577.1,139.3 L588.1,139.3 L599.0,139.3 L609.9,139.3 L620.8,139.2 L631.7,139.2 L642.7,139.2 L653.6,139.2 L664.5,139.2 L675.4,139.2 L686.3,139.2 L697.2,139.2 L708.2,139.2 L719.1,139.2 L730.0,139.2" fill="none" stroke="#008300" stroke-width="2" stroke-linejoin="round" stroke-linecap="round"/>
<circle cx="730.0" cy="139.2" r="6" fill="#1a1a19"/>
<circle cx="730.0" cy="139.2" r="4" fill="#008300"/>
<path d="M64.0,206.3 L74.9,206.3 L85.8,206.3 L96.8,206.3 L107.7,206.3 L118.6,206.3 L129.5,206.3 L140.4,206.3 L151.3,206.3 L162.3,206.3 L173.2,206.3 L184.1,206.3 L195.0,206.3 L205.9,206.3 L216.9,206.3 L227.8,206.3 L238.7,206.3 L249.6,206.3 L260.5,206.3 L271.4,206.3 L282.4,206.3 L293.3,206.3 L304.2,206.3 L315.1,206.3 L326.0,206.3 L337.0,206.3 L347.9,206.3 L358.8,206.3 L369.7,206.3 L380.6,206.3 L391.5,206.4 L402.5,206.4 L413.4,206.4 L424.3,206.4 L435.2,206.4 L446.1,206.4 L457.0,206.4 L468.0,206.4 L478.9,206.4 L489.8,206.4 L500.7,206.4 L511.6,206.3 L522.6,206.3 L533.5,206.3 L544.4,206.3 L555.3,206.3 L566.2,206.3 L577.1,206.3 L588.1,206.3 L599.0,206.3 L609.9,206.3 L620.8,206.4 L631.7,206.4 L642.7,206.4 L653.6,206.4 L664.5,206.4 L675.4,206.4 L686.3,206.4 L697.2,206.4 L708.2,206.4 L719.1,206.4 L730.0,206.4" fill="none" stroke="#9085e9" stroke-width="2" stroke-linejoin="round" stroke-linecap="round"/>
<circle cx="730.0" cy="206.4" r="6" fill="#1a1a19"/>
<circle cx="730.0" cy="206.4" r="4" fill="#9085e9"/>
<path d="M64.0,227.7 L74.9,227.7 L85.8,227.7 L96.8,227.7 L107.7,227.7 L118.6,227.7 L129.5,227.7 L140.4,227.7 L151.3,227.7 L162.3,227.7 L173.2,227.7 L184.1,227.7 L195.0,227.7 L205.9,227.7 L216.9,227.7 L227.8,227.7 L238.7,227.7 L249.6,227.7 L260.5,227.7 L271.4,227.7 L282.4,227.7 L293.3,227.7 L304.2,227.7 L315.1,227.7 L326.0,227.7 L337.0,227.7 L347.9,227.7 L358.8,227.7 L369.7,227.7 L380.6,227.7 L391.5,227.7 L402.5,227.7 L413.4,227.7 L424.3,227.7 L435.2,227.7 L446.1,227.7 L457.0,227.7 L468.0,227.7 L478.9,227.7 L489.8,227.7 L500.7,227.7 L511.6,227.7 L522.6,227.7 L533.5,227.7 L544.4,227.7 L555.3,227.7 L566.2,227.7 L577.1,227.7 L588.1,227.7 L599.0,227.7 L609.9,227.7 L620.8,227.7 L631.7,227.7 L642.7,227.7 L653.6,227.7 L664.5,227.7 L675.4,227.7 L686.3,227.7 L697.2,227.7 L708.2,227.7 L719.1,227.7 L730.0,227.7" fill="none" stroke="#e66767" stroke-width="2" stroke-linejoin="round" stroke-linecap="round"/>
<circle cx="730.0" cy="227.7" r="6" fill="#1a1a19"/>
<circle cx="730.0" cy="227.7" r="4" fill="#e66767"/>
<circle cx="745.0" cy="52.5" r="3.5" fill="#199e70"/>
<text x="753.0" y="56.0" font-family='system-ui, -apple-system, "Segoe UI", sans-serif' font-size="11" fill="#ffffff">granulator</text>
<text x="753.0" y="68.0" font-family='system-ui, -apple-system, "Segoe UI", sans-serif' font-size="10" style="font-variant-numeric: tabular-nums" fill="#c3c2b7">27.6M</text>
<circle cx="745.0" cy="135.7" r="3.5" fill="#008300"/>
<text x="753.0" y="139.2" font-family='system-ui, -apple-system, "Segoe UI", sans-serif' font-size="11" fill="#ffffff">resonator</text>
<text x="753.0" y="151.2" font-family='system-ui, -apple-system, "Segoe UI", sans-serif' font-size="10" style="font-variant-numeric: tabular-nums" fill="#c3c2b7">18.4M</text>
<circle cx="745.0" cy="202.9" r="3.5" fill="#9085e9"/>
<text x="753.0" y="206.4" font-family='system-ui, -apple-system, "Segoe UI", sans-serif' font-size="11" fill="#ffffff">reverb</text>
<text x="753.0" y="218.4" font-family='system-ui, -apple-system, "Segoe UI", sans-serif' font-size="10" style="font-variant-numeric: tabular-nums" fill="#c3c2b7">11.0M</text>
<line x1="736.0" y1="218.5" x2="740.0" y2="234.4" stroke="#383835" stroke-width="1"/>
<circle cx="745.0" cy="230.9" r="3.5" fill="#3987e5"/>
<text x="753.0" y="234.4" font-family='system-ui, -apple-system, "Segoe UI", sans-serif' font-size="11" fill="#ffffff">compressor</text>
<text x="753.0" y="246.4" font-family='system-ui, -apple-system, "Segoe UI", sans-serif' font-size="10" style="font-variant-numeric: tabular-nums" fill="#c3c2b7">9.67M</text>
<line x1="736.0" y1="227.7" x2="740.0" y2="262.4" stroke="#383835" stroke-width="1"/>
<circle cx="745.0" cy="258.9" r="3.5" fill="#e66767"/>
<text x="753.0" y="262.4" font-family='system-ui, -apple-system, "Segoe UI", sans-serif' font-size="11" fill="#ffffff">saturator</text>
<text x="753.0" y="274.4" font-family='system-ui, -apple-system, "Segoe UI", sans-serif' font-size="10" style="font-variant-numeric: tabular-nums" fill="#c3c2b7">8.65M</text>
<line x1="736.0" y1="251.0" x2="740.0" y2="290.4" stroke="#383835" stroke-width="1"/>
<circle cx="745.0" cy="286.9" r="3.5" fill="#c98500"/>
<text x="753.0" y="290.4" font-family='system-ui, -apple-system, "Segoe UI", sans-serif' font-size="11" fill="#ffffff">pan</text>
<text x="753.0" y="302.4" font-family='system-ui, -apple-system, "Segoe UI", sans-serif' font-size="10" style="font-variant-numeric: tabular-nums" fill="#c3c2b7">6.08M</text>
</svg>