<svg xmlns="http://www.w3.org/2000/svg" width="880" height="340" viewBox="0 0 880 340" role="img" aria-label="Heaviest operators (micro)">
<rect width="880" height="340" rx="6" fill="#1a1a19"/>
<text x="64" y="24" font-family='system-ui, -apple-system, "Segoe UI", sans-serif' font-size="14" font-weight="600" fill="#ffffff">Heaviest operators (micro)</text>
<text x="64" y="41" font-family='system-ui, -apple-system, "Segoe UI", sans-serif' font-size="11" fill="#c3c2b7">per-operator step_node cost over the same 1 s schedule - top 6 by latest Ir</text>
<line x1="64" y1="306.0" x2="730" y2="306.0" stroke="#2c2c2a" stroke-width="1"/>
<text x="56" y="309.5" text-anchor="end" font-family='system-ui, -apple-system, "Segoe UI", sans-serif' font-size="11" style="font-variant-numeric: tabular-nums" fill="#898781">0</text>
<line x1="64" y1="215.5" x2="730" y2="215.5" stroke="#2c2c2a" stroke-width="1"/>
<text x="56" y="219.0" text-anchor="end" font-family='system-ui, -apple-system, "Segoe UI", sans-serif' font-size="11" style="font-variant-numeric: tabular-nums" fill="#898781">10</text>
<line x1="64" y1="125.0" x2="730" y2="125.0" stroke="#2c2c2a" stroke-width="1"/>
<text x="56" y="128.5" text-anchor="end" font-family='system-ui, -apple-system, "Segoe UI", sans-serif' font-size="11" style="font-variant-numeric: tabular-nums" fill="#898781">20</text>
<text x="56" y="46" text-anchor="end" font-family='system-ui, -apple-system, "Segoe UI", sans-serif' font-size="10" fill="#898781">Ir (M)</text>
<line x1="64" y1="306" x2="730" y2="306" stroke="#383835" stroke-width="1"/>
<text x="64.0" y="322" text-anchor="middle" font-family='system-ui, -apple-system, "Segoe UI", sans-serif' font-size="11" style="font-variant-numeric: tabular-nums" fill="#898781">07-12</text>
<text x="144.4" y="322" text-anchor="middle" font-family='system-ui, -apple-system, "Segoe UI", sans-serif' font-size="11" style="font-variant-numeric: tabular-nums" fill="#898781">07-14</text>
<text x="247.7" y="322" text-anchor="middle" font-family='system-ui, -apple-system, "Segoe UI", sans-serif' font-size="11" style="font-variant-numeric: tabular-nums" fill="#898781">07-17</text>
<text x="385.5" y="322" text-anchor="middle" font-family='system-ui, -apple-system, "Segoe UI", sans-serif' font-size="11" style="font-variant-numeric: tabular-nums" fill="#898781">07-19</text>
<text x="592.2" y="322" text-anchor="middle" font-family='system-ui, -apple-system, "Segoe UI", sans-serif' font-size="11" style="font-variant-numeric: tabular-nums" fill="#898781">07-21</text>
<path d="M420.0,218.3 L431.4,218.3 L442.9,218.3 L454.4,218.3 L465.9,218.3 L477.4,218.3 L488.9,218.3 L500.3,218.3 L511.8,218.3 L523.3,218.3 L534.8,218.4 L546.3,218.4 L557.8,218.4 L569.2,218.4 L580.7,218.4 L592.2,218.4 L603.7,218.4 L615.2,218.4 L626.7,218.4 L638.1,218.4 L649.6,218.4 L661.1,218.4 L672.6,218.4 L684.1,218.4 L695.6,218.5 L707.0,218.5 L718.5,218.5 L730.0,218.5" fill="none" stroke="#3987e5" stroke-width="2" stroke-linejoin="round" stroke-linecap="round"/>
<circle cx="730.0" cy="218.5" r="6" fill="#1a1a19"/>
<circle cx="730.0" cy="218.5" r="4" fill="#3987e5"/>
<path d="M64.0,57.2 L75.5,57.2 L87.0,57.2 L98.4,57.2 L109.9,57.2 L121.4,57.2 L132.9,57.2 L144.4,57.2 L155.9,57.2 L167.3,57.2 L178.8,57.2 L190.3,57.2 L201.8,57.2 L213.3,57.2 L224.8,57.2 L236.2,57.2 L247.7,57.2 L259.2,57.2 L270.7,57.2 L282.2,57.2 L293.7,57.2 L305.1,57.2 L316.6,57.2 L328.1,57.2 L339.6,57.2 L351.1,57.2 L362.6,57.2 L374.0,57.2 L385.5,57.2 L397.0,57.2 L408.5,57.2 L420.0,57.2 L431.4,57.2 L442.9,57.2 L454.4,57.2 L465.9,57.2 L477.4,57.2 L488.9,57.2 L500.3,57.2 L511.8,57.2 L523.3,57.2 L534.8,57.2 L546.3,57.2 L557.8,57.2 L569.2,57.2 L580.7,57.2 L592.2,57.2 L603.7,57.2 L615.2,57.2 L626.7,57.2 L638.1,57.2 L649.6,57.2 L661.1,57.2 L672.6,57.2 L684.1,57.2 L695.6,57.2 L707.0,56.0 L718.5,56.0 L730.0,56.0" fill="none" stroke="#199e70" stroke-width="2" stroke-linejoin="round" stroke-linecap="round"/>
<circle cx="730.0" cy="56.0" r="6" fill="#1a1a19"/>
<circle cx="730.0" cy="56.0" r="4" fill="#199e70"/>
<path d="M64.0,250.9 L75.5,250.9 L87.0,250.9 L98.4,250.9 L109.9,250.9 L121.4,250.9 L132.9,250.9 L144.4,250.9 L155.9,250.9 L167.3,250.9 L178.8,250.9 L190.3,250.9 L201.8,250.9 L213.3,250.9 L224.8,250.9 L236.2,250.9 L247.7,250.9 L259.2,250.9 L270.7,250.9 L282.2,250.9 L293.7,250.9 L305.1,250.9 L316.6,250.9 L328.1,250.9 L339.6,250.9 L351.1,250.9 L362.6,250.9 L374.0,250.9 L385.5,250.9 L397.0,250.9 L408.5,250.9 L420.0,250.9 L431.4,250.9 L442.9,250.9 L454.4,250.9 L465.9,250.9 L477.4,250.9 L488.9,250.9 L500.3,250.9 L511.8,250.9 L523.3,250.9 L534.8,250.9 L546.3,250.9 L557.8,250.9 L569.2,250.9 L580.7,250.9 L592.2,250.9 L603.7,250.9 L615.2,250.9 L626.7,250.9 L638.1,250.9 L649.6,250.9 L661.1,250.9 L672.6,250.9 L684.1,250.9 L695.6,250.9 L707.0,251.0 L718.5,251.0 L730.0,251.0" fill="none" stroke="#c98500" stroke-width="2" stroke-linejoin="round" stroke-linecap="round"/>
<circle cx="730.0" cy="251.0" r="6" fill="#1a1a19"/>
<circle cx="730.0" cy="251.0" r="4" fill="#c98500"/>
<path d="M64.0,138.4 L75.5,138.4 L87.0,138.4 L98.4,138.4 L109.9,138.4 L121.4,138.4 L132.9,139.2 L144.4,139.2 L155.9,139.2 L167.3,139.2 L178.8,139.2 L190.3,139.2 L201.8,139.2 L213.3,139.2 L224.8,139.2 L236.2,139.2 L247.7,139.2 L259.2,139.2 L270.7,139.2 L282.2,139.2 L293.7,139.2 L305.1,139.2 L316.6,139.2 L328.1,139.2 L339.6,139.2 L351.1,139.2 L362.6,139.2 L374.0,139.2 L385.5,139.2 L397.0,139.2 L408.5,139.2 L420.0,139.2 L431.4,139.2 L442.9,139.2 L454.4,139.2 L465.9,139.2 L477.4,139.2 L488.9,139.2 L500.3,139.2 L511.8,139.2 L523.3,139.2 L534.8,139.3 L546.3,139.3 L557.8,139.3 L569.2,139.3 L580.7,139.3 L592.2,139.3 L603.7,139.3 L615.2,139.3 L626.7,139.3 L638.1,139.3 L649.6,139.2 L661.1,139.2 L672.6,139.2 L684.1,139.2 L695.6,139.2 L707.0,139.2 L718.5,139.2 L730.0,139.2" fill="none" stroke="#008300" stroke-width="2" stroke-linejoin="round" stroke-linecap="round"/>
<circle cx="730.0" cy="139.2" r="6" fill="#1a1a19"/>
<circle cx="730.0" cy="139.2" r="4" fill="#008300"/>
<path d="M64.0,206.3 L75.5,206.3 L87.0,206.3 L98.4,206.3 L109.9,206.3 L121.4,206.3 L132.9,206.3 L144.4,206.3 L155.9,206.3 L167.3,206.3 L178.8,206.3 L190.3,206.3 L201.8,206.3 L213.3,206.3 L224.8,206.3 L236.2,206.3 L247.7,206.3 L259.2,206.3 L270.7,206.3 L282.2,206.3 L293.7,206.3 L305.1,206.3 L316.6,206.3 L328.1,206.3 L339.6,206.3 L351.1,206.3 L362.6,206.3 L374.0,206.3 L385.5,206.3 L397.0,206.3 L408.5,206.4 L420.0,206.4 L431.4,206.4 L442.9,206.4 L454.4,206.4 L465.9,206.4 L477.4,206.4 L488.9,206.4 L500.3,206.4 L511.8,206.4 L523.3,206.4 L534.8,206.3 L546.3,206.3 L557.8,206.3 L569.2,206.3 L580.7,206.3 L592.2,206.3 L603.7,206.3 L615.2,206.3 L626.7,206.3 L638.1,206.3 L649.6,206.4 L661.1,206.4 L672.6,206.4 L684.1,206.4 L695.6,206.4 L707.0,206.4 L718.5,206.4 L730.0,206.4" fill="none" stroke="#9085e9" stroke-width="2" stroke-linejoin="round" stroke-linecap="round"/>
<circle cx="730.0" cy="206.4" r="6" fill="#1a1a19"/>
<circle cx="730.0" cy="206.4" r="4" fill="#9085e9"/>
<path d="M64.0,227.7 L75.5,227.7 L87.0,227.7 L98.4,227.7 L109.9,227.7 L121.4,227.7 L132.9,227.7 L144.4,227.7 L155.9,227.7 L167.3,227.7 L178.8,227.7 L190.3,227.7 L201.8,227.7 L213.3,227.7 L224.8,227.7 L236.2,227.7 L247.7,227.7 L259.2,227.7 L270.7,227.7 L282.2,227.7 L293.7,227.7 L305.1,227.7 L316.6,227.7 L328.1,227.7 L339.6,227.7 L351.1,227.7 L362.6,227.7 L374.0,227.7 L385.5,227.7 L397.0,227.7 L408.5,227.7 L420.0,227.7 L431.4,227.7 L442.9,227.7 L454.4,227.7 L465.9,227.7 L477.4,227.7 L488.9,227.7 L500.3,227.7 L511.8,227.7 L523.3,227.7 L534.8,227.7 L546.3,227.7 L557.8,227.7 L569.2,227.7 L580.7,227.7 L592.2,227.7 L603.7,227.7 L615.2,227.7 L626.7,227.7 L638.1,227.7 L649.6,227.7 L661.1,227.7 L672.6,227.7 L684.1,227.7 L695.6,227.7 L707.0,227.7 L718.5,227.7 L730.0,227.7" fill="none" stroke="#e66767" stroke-width="2" stroke-linejoin="round" stroke-linecap="round"/>
<circle cx="730.0" cy="227.7" r="6" fill="#1a1a19"/>
<circle cx="730.0" cy="227.7" r="4" fill="#e66767"/>
<circle cx="745.0" cy="52.5" r="3.5" fill="#199e70"/>
<text x="753.0" y="56.0" font-family='system-ui, -apple-system, "Segoe UI", sans-serif' font-size="11" fill="#ffffff">granulator</text>
<text x="753.0" y="68.0" font-family='system-ui, -apple-system, "Segoe UI", sans-serif' font-size="10" style="font-variant-numeric: tabular-nums" fill="#c3c2b7">27.6M</text>
<circle cx="745.0" cy="135.7" r="3.5" fill="#008300"/>
<text x="753.0" y="139.2" font-family='system-ui, -apple-system, "Segoe UI", sans-serif' font-size="11" fill="#ffffff">resonator</text>
<text x="753.0" y="151.2" font-family='system-ui, -apple-system, "Segoe UI", sans-serif' font-size="10" style="font-variant-numeric: tabular-nums" fill="#c3c2b7">18.4M</text>
<circle cx="745.0" cy="202.9" r="3.5" fill="#9085e9"/>
<text x="753.0" y="206.4" font-family='system-ui, -apple-system, "Segoe UI", sans-serif' font-size="11" fill="#ffffff">reverb</text>
<text x="753.0" y="218.4" font-family='system-ui, -apple-system, "Segoe UI", sans-serif' font-size="10" style="font-variant-numeric: tabular-nums" fill="#c3c2b7">11.0M</text>
<line x1="736.0" y1="218.5" x2="740.0" y2="234.4" stroke="#383835" stroke-width="1"/>
<circle cx="745.0" cy="230.9" r="3.5" fill="#3987e5"/>
<text x="753.0" y="234.4" font-family='system-ui, -apple-system, "Segoe UI", sans-serif' font-size="11" fill="#ffffff">compressor</text>
<text x="753.0" y="246.4" font-family='system-ui, -apple-system, "Segoe UI", sans-serif' font-size="10" style="font-variant-numeric: tabular-nums" fill="#c3c2b7">9.67M</text>
<line x1="736.0" y1="227.7" x2="740.0" y2="262.4" stroke="#383835" stroke-width="1"/>
<circle cx="745.0" cy="258.9" r="3.5" fill="#e66767"/>
<text x="753.0" y="262.4" font-family='system-ui, -apple-system, "Segoe UI", sans-serif' font-size="11" fill="#ffffff">saturator</text>
<text x="753.0" y="274.4" font-family='system-ui, -apple-system, "Segoe UI", sans-serif' font-size="10" style="font-variant-numeric: tabular-nums" fill="#c3c2b7">8.65M</text>
<line x1="736.0" y1="251.0" x2="740.0" y2="290.4" stroke="#383835" stroke-width="1"/>
<circle cx="745.0" cy="286.9" r="3.5" fill="#c98500"/>
<text x="753.0" y="290.4" font-family='system-ui, -apple-system, "Segoe UI", sans-serif' font-size="11" fill="#ffffff">pan</text>
<text x="753.0" y="302.4" font-family='system-ui, -apple-system, "Segoe UI", sans-serif' font-size="10" style="font-variant-numeric: tabular-nums" fill="#c3c2b7">6.08M</text>
</svg>