<svg xmlns="http://www.w3.org/2000/svg" width="880" height="340" viewBox="0 0 880 340" role="img" aria-label="Heaviest operators (micro)">
<rect width="880" height="340" rx="6" fill="#fcfcfb"/>
<text x="64" y="24" font-family='system-ui, -apple-system, "Segoe UI", sans-serif' font-size="14" font-weight="600" fill="#0b0b0b">Heaviest operators (micro)</text>
<text x="64" y="41" font-family='system-ui, -apple-system, "Segoe UI", sans-serif' font-size="11" fill="#52514e">per-operator step_node cost over the same 1 s schedule - top 6 by latest Ir</text>
<line x1="64" y1="306.0" x2="730" y2="306.0" stroke="#e1e0d9" stroke-width="1"/>
<text x="56" y="309.5" text-anchor="end" font-family='system-ui, -apple-system, "Segoe UI", sans-serif' font-size="11" style="font-variant-numeric: tabular-nums" fill="#898781">0</text>
<line x1="64" y1="215.1" x2="730" y2="215.1" stroke="#e1e0d9" stroke-width="1"/>
<text x="56" y="218.6" text-anchor="end" font-family='system-ui, -apple-system, "Segoe UI", sans-serif' font-size="11" style="font-variant-numeric: tabular-nums" fill="#898781">10</text>
<line x1="64" y1="124.2" x2="730" y2="124.2" stroke="#e1e0d9" stroke-width="1"/>
<text x="56" y="127.7" text-anchor="end" font-family='system-ui, -apple-system, "Segoe UI", sans-serif' font-size="11" style="font-variant-numeric: tabular-nums" fill="#898781">20</text>
<text x="56" y="46" text-anchor="end" font-family='system-ui, -apple-system, "Segoe UI", sans-serif' font-size="10" fill="#898781">Ir (M)</text>
<line x1="64" y1="306" x2="730" y2="306" stroke="#c3c2b7" stroke-width="1"/>
<text x="64.0" y="322" text-anchor="middle" font-family='system-ui, -apple-system, "Segoe UI", sans-serif' font-size="11" style="font-variant-numeric: tabular-nums" fill="#898781">07-12</text>
<text x="178.2" y="322" text-anchor="middle" font-family='system-ui, -apple-system, "Segoe UI", sans-serif' font-size="11" style="font-variant-numeric: tabular-nums" fill="#898781">07-13</text>
<text x="197.2" y="322" text-anchor="middle" font-family='system-ui, -apple-system, "Segoe UI", sans-serif' font-size="11" style="font-variant-numeric: tabular-nums" fill="#898781">07-14</text>
<text x="216.2" y="322" text-anchor="middle" font-family='system-ui, -apple-system, "Segoe UI", sans-serif' font-size="11" style="font-variant-numeric: tabular-nums" fill="#898781">07-16</text>
<text x="368.5" y="322" text-anchor="middle" font-family='system-ui, -apple-system, "Segoe UI", sans-serif' font-size="11" style="font-variant-numeric: tabular-nums" fill="#898781">07-17</text>
<text x="482.6" y="322" text-anchor="middle" font-family='system-ui, -apple-system, "Segoe UI", sans-serif' font-size="11" style="font-variant-numeric: tabular-nums" fill="#898781">07-18</text>
<text x="596.8" y="322" text-anchor="middle" font-family='system-ui, -apple-system, "Segoe UI", sans-serif' font-size="11" style="font-variant-numeric: tabular-nums" fill="#898781">07-19</text>
<text x="653.9" y="322" text-anchor="middle" font-family='system-ui, -apple-system, "Segoe UI", sans-serif' font-size="11" style="font-variant-numeric: tabular-nums" fill="#898781">07-20</text>
<path d="M653.9,217.9 L672.9,217.9 L691.9,217.9 L711.0,217.9 L730.0,217.9" fill="none" stroke="#2a78d6" stroke-width="2" stroke-linejoin="round" stroke-linecap="round"/>
<circle cx="730.0" cy="217.9" r="6" fill="#fcfcfb"/>
<circle cx="730.0" cy="217.9" r="4" fill="#2a78d6"/>
<path d="M64.0,56.0 L83.0,56.0 L102.1,56.0 L121.1,56.0 L140.1,56.0 L159.1,56.0 L178.2,56.0 L197.2,56.0 L216.2,56.0 L235.3,56.0 L254.3,56.0 L273.3,56.0 L292.3,56.0 L311.4,56.0 L330.4,56.0 L349.4,56.0 L368.5,56.0 L387.5,56.0 L406.5,56.0 L425.5,56.0 L444.6,56.0 L463.6,56.0 L482.6,56.0 L501.7,56.0 L520.7,56.0 L539.7,56.0 L558.7,56.0 L577.8,56.0 L596.8,56.0 L615.8,56.0 L634.9,56.0 L653.9,56.0 L672.9,56.0 L691.9,56.0 L711.0,56.0 L730.0,56.0" fill="none" stroke="#1baf7a" stroke-width="2" stroke-linejoin="round" stroke-linecap="round"/>
<circle cx="730.0" cy="56.0" r="6" fill="#fcfcfb"/>
<circle cx="730.0" cy="56.0" r="4" fill="#1baf7a"/>
<path d="M64.0,250.6 L83.0,250.6 L102.1,250.6 L121.1,250.6 L140.1,250.6 L159.1,250.6 L178.2,250.6 L197.2,250.6 L216.2,250.6 L235.3,250.6 L254.3,250.6 L273.3,250.6 L292.3,250.6 L311.4,250.6 L330.4,250.6 L349.4,250.6 L368.5,250.6 L387.5,250.6 L406.5,250.6 L425.5,250.6 L444.6,250.6 L463.6,250.6 L482.6,250.6 L501.7,250.6 L520.7,250.6 L539.7,250.6 L558.7,250.6 L577.8,250.6 L596.8,250.6 L615.8,250.6 L634.9,250.6 L653.9,250.6 L672.9,250.6 L691.9,250.7 L711.0,250.7 L730.0,250.7" fill="none" stroke="#eda100" stroke-width="2" stroke-linejoin="round" stroke-linecap="round"/>
<circle cx="730.0" cy="250.7" r="6" fill="#fcfcfb"/>
<circle cx="730.0" cy="250.7" r="4" fill="#eda100"/>
<path d="M64.0,137.6 L83.0,137.6 L102.1,137.6 L121.1,137.6 L140.1,137.6 L159.1,137.6 L178.2,138.4 L197.2,138.4 L216.2,138.4 L235.3,138.4 L254.3,138.4 L273.3,138.4 L292.3,138.4 L311.4,138.4 L330.4,138.4 L349.4,138.4 L368.5,138.4 L387.5,138.4 L406.5,138.4 L425.5,138.4 L444.6,138.4 L463.6,138.4 L482.6,138.4 L501.7,138.4 L520.7,138.4 L539.7,138.4 L558.7,138.4 L577.8,138.4 L596.8,138.4 L615.8,138.4 L634.9,138.4 L653.9,138.4 L672.9,138.4 L691.9,138.4 L711.0,138.4 L730.0,138.4" fill="none" stroke="#008300" stroke-width="2" stroke-linejoin="round" stroke-linecap="round"/>
<circle cx="730.0" cy="138.4" r="6" fill="#fcfcfb"/>
<circle cx="730.0" cy="138.4" r="4" fill="#008300"/>
<path d="M64.0,205.9 L83.0,205.9 L102.1,205.9 L121.1,205.9 L140.1,205.9 L159.1,205.9 L178.2,205.9 L197.2,205.9 L216.2,205.9 L235.3,205.9 L254.3,205.9 L273.3,205.9 L292.3,205.9 L311.4,205.9 L330.4,205.9 L349.4,205.9 L368.5,205.9 L387.5,205.9 L406.5,205.9 L425.5,205.9 L444.6,205.9 L463.6,205.9 L482.6,205.9 L501.7,205.9 L520.7,205.9 L539.7,205.9 L558.7,205.9 L577.8,205.9 L596.8,205.9 L615.8,205.9 L634.9,205.9 L653.9,205.9 L672.9,205.9 L691.9,205.9 L711.0,205.9 L730.0,205.9" fill="none" stroke="#4a3aa7" stroke-width="2" stroke-linejoin="round" stroke-linecap="round"/>
<circle cx="730.0" cy="205.9" r="6" fill="#fcfcfb"/>
<circle cx="730.0" cy="205.9" r="4" fill="#4a3aa7"/>
<path d="M64.0,227.3 L83.0,227.3 L102.1,227.3 L121.1,227.3 L140.1,227.3 L159.1,227.3 L178.2,227.3 L197.2,227.3 L216.2,227.3 L235.3,227.3 L254.3,227.3 L273.3,227.3 L292.3,227.3 L311.4,227.3 L330.4,227.3 L349.4,227.3 L368.5,227.3 L387.5,227.3 L406.5,227.3 L425.5,227.3 L444.6,227.3 L463.6,227.3 L482.6,227.3 L501.7,227.3 L520.7,227.3 L539.7,227.3 L558.7,227.3 L577.8,227.3 L596.8,227.3 L615.8,227.3 L634.9,227.3 L653.9,227.3 L672.9,227.3 L691.9,227.3 L711.0,227.3 L730.0,227.3" fill="none" stroke="#e34948" stroke-width="2" stroke-linejoin="round" stroke-linecap="round"/>
<circle cx="730.0" cy="227.3" r="6" fill="#fcfcfb"/>
<circle cx="730.0" cy="227.3" r="4" fill="#e34948"/>
<circle cx="745.0" cy="52.5" r="3.5" fill="#1baf7a"/>
<text x="753.0" y="56.0" font-family='system-ui, -apple-system, "Segoe UI", sans-serif' font-size="11" fill="#0b0b0b">granulator</text>
<text x="753.0" y="68.0" font-family='system-ui, -apple-system, "Segoe UI", sans-serif' font-size="10" style="font-variant-numeric: tabular-nums" fill="#52514e">27.5M</text>
<circle cx="745.0" cy="134.9" r="3.5" fill="#008300"/>
<text x="753.0" y="138.4" font-family='system-ui, -apple-system, "Segoe UI", sans-serif' font-size="11" fill="#0b0b0b">resonator</text>
<text x="753.0" y="150.4" font-family='system-ui, -apple-system, "Segoe UI", sans-serif' font-size="10" style="font-variant-numeric: tabular-nums" fill="#52514e">18.4M</text>
<circle cx="745.0" cy="202.4" r="3.5" fill="#4a3aa7"/>
<text x="753.0" y="205.9" font-family='system-ui, -apple-system, "Segoe UI", sans-serif' font-size="11" fill="#0b0b0b">reverb</text>
<text x="753.0" y="217.9" font-family='system-ui, -apple-system, "Segoe UI", sans-serif' font-size="10" style="font-variant-numeric: tabular-nums" fill="#52514e">11.0M</text>
<line x1="736.0" y1="217.9" x2="740.0" y2="233.9" stroke="#c3c2b7" stroke-width="1"/>
<circle cx="745.0" cy="230.4" r="3.5" fill="#2a78d6"/>
<text x="753.0" y="233.9" font-family='system-ui, -apple-system, "Segoe UI", sans-serif' font-size="11" fill="#0b0b0b">compressor</text>
<text x="753.0" y="245.9" font-family='system-ui, -apple-system, "Segoe UI", sans-serif' font-size="10" style="font-variant-numeric: tabular-nums" fill="#52514e">9.69M</text>
<line x1="736.0" y1="227.3" x2="740.0" y2="261.9" stroke="#c3c2b7" stroke-width="1"/>
<circle cx="745.0" cy="258.4" r="3.5" fill="#e34948"/>
<text x="753.0" y="261.9" font-family='system-ui, -apple-system, "Segoe UI", sans-serif' font-size="11" fill="#0b0b0b">saturator</text>
<text x="753.0" y="273.9" font-family='system-ui, -apple-system, "Segoe UI", sans-serif' font-size="10" style="font-variant-numeric: tabular-nums" fill="#52514e">8.65M</text>
<line x1="736.0" y1="250.7" x2="740.0" y2="289.9" stroke="#c3c2b7" stroke-width="1"/>
<circle cx="745.0" cy="286.4" r="3.5" fill="#eda100"/>
<text x="753.0" y="289.9" font-family='system-ui, -apple-system, "Segoe UI", sans-serif' font-size="11" fill="#0b0b0b">pan</text>
<text x="753.0" y="301.9" font-family='system-ui, -apple-system, "Segoe UI", sans-serif' font-size="10" style="font-variant-numeric: tabular-nums" fill="#52514e">6.08M</text>
</svg>