<svg xmlns="http://www.w3.org/2000/svg" width="880" height="340" viewBox="0 0 880 340" role="img" aria-label="Heaviest operators (micro)">
<rect width="880" height="340" rx="6" fill="#fcfcfb"/>
<text x="64" y="24" font-family='system-ui, -apple-system, "Segoe UI", sans-serif' font-size="14" font-weight="600" fill="#0b0b0b">Heaviest operators (micro)</text>
<text x="64" y="41" font-family='system-ui, -apple-system, "Segoe UI", sans-serif' font-size="11" fill="#52514e">per-operator step_node cost over the same 1 s schedule - top 6 by latest Ir</text>
<line x1="64" y1="306.0" x2="730" y2="306.0" stroke="#e1e0d9" stroke-width="1"/>
<text x="56" y="309.5" text-anchor="end" font-family='system-ui, -apple-system, "Segoe UI", sans-serif' font-size="11" style="font-variant-numeric: tabular-nums" fill="#898781">0</text>
<line x1="64" y1="218.1" x2="730" y2="218.1" stroke="#e1e0d9" stroke-width="1"/>
<text x="56" y="221.6" text-anchor="end" font-family='system-ui, -apple-system, "Segoe UI", sans-serif' font-size="11" style="font-variant-numeric: tabular-nums" fill="#898781">10</text>
<line x1="64" y1="130.3" x2="730" y2="130.3" stroke="#e1e0d9" stroke-width="1"/>
<text x="56" y="133.8" text-anchor="end" font-family='system-ui, -apple-system, "Segoe UI", sans-serif' font-size="11" style="font-variant-numeric: tabular-nums" fill="#898781">20</text>
<text x="56" y="46" text-anchor="end" font-family='system-ui, -apple-system, "Segoe UI", sans-serif' font-size="10" fill="#898781">Ir (M)</text>
<line x1="64" y1="306" x2="730" y2="306" stroke="#c3c2b7" stroke-width="1"/>
<text x="64.0" y="322" text-anchor="middle" font-family='system-ui, -apple-system, "Segoe UI", sans-serif' font-size="11" style="font-variant-numeric: tabular-nums" fill="#898781">06-28</text>
<text x="123.6" y="322" text-anchor="middle" font-family='system-ui, -apple-system, "Segoe UI", sans-serif' font-size="11" style="font-variant-numeric: tabular-nums" fill="#898781">06-30</text>
<text x="173.3" y="322" text-anchor="middle" font-family='system-ui, -apple-system, "Segoe UI", sans-serif' font-size="11" style="font-variant-numeric: tabular-nums" fill="#898781">07-02</text>
<text x="282.7" y="322" text-anchor="middle" font-family='system-ui, -apple-system, "Segoe UI", sans-serif' font-size="11" style="font-variant-numeric: tabular-nums" fill="#898781">07-04</text>
<text x="441.7" y="322" text-anchor="middle" font-family='system-ui, -apple-system, "Segoe UI", sans-serif' font-size="11" style="font-variant-numeric: tabular-nums" fill="#898781">07-07</text>
<text x="541.1" y="322" text-anchor="middle" font-family='system-ui, -apple-system, "Segoe UI", sans-serif' font-size="11" style="font-variant-numeric: tabular-nums" fill="#898781">07-09</text>
<text x="620.7" y="322" text-anchor="middle" font-family='system-ui, -apple-system, "Segoe UI", sans-serif' font-size="11" style="font-variant-numeric: tabular-nums" fill="#898781">07-11</text>
<path d="M133.6,56.2 L143.5,56.2 L153.5,56.1 L163.4,61.2 L173.3,56.2 L183.3,56.2 L193.2,56.2 L203.2,56.2 L213.1,56.2 L223.0,56.2 L233.0,56.2 L242.9,56.2 L252.9,56.2 L262.8,56.2 L272.7,56.2 L282.7,56.2 L292.6,56.2 L302.6,56.2 L312.5,56.2 L322.4,60.8 L332.4,56.1 L342.3,56.1 L352.3,56.1 L362.2,56.1 L372.1,56.1 L382.1,60.6 L392.0,60.6 L402.0,56.1 L411.9,56.0 L421.9,56.0 L431.8,56.0 L441.7,56.0 L451.7,56.0 L461.6,56.0 L471.6,56.0 L481.5,56.0 L491.4,56.0 L501.4,56.0 L511.3,56.0 L521.3,56.0 L531.2,56.0 L541.1,56.0 L551.1,56.0 L561.0,61.0 L571.0,61.0 L580.9,61.0 L590.8,56.1 L600.8,61.3 L610.7,56.3 L620.7,56.4 L630.6,64.4 L640.5,64.4 L650.5,64.4 L660.4,64.4 L670.4,64.4 L680.3,64.4 L690.2,64.4 L700.2,64.4 L710.1,64.4 L720.1,64.4 L730.0,64.4" fill="none" stroke="#2a78d6" stroke-width="2" stroke-linejoin="round" stroke-linecap="round"/>
<circle cx="730.0" cy="64.4" r="6" fill="#fcfcfb"/>
<circle cx="730.0" cy="64.4" r="4" fill="#2a78d6"/>
<path d="M64.0,246.7 L73.9,246.7 L83.9,246.7 L93.8,246.7 L103.8,246.7 L113.7,246.6 L123.6,246.6 L133.6,246.2 L143.5,246.3 L153.5,246.3 L163.4,246.3 L173.3,246.3 L183.3,246.3 L193.2,246.3 L203.2,246.3 L213.1,246.3 L223.0,246.3 L233.0,246.3 L242.9,251.7 L252.9,251.7 L262.8,251.7 L272.7,251.7 L282.7,251.7 L292.6,251.7 L302.6,251.7 L312.5,251.7 L322.4,251.7 L332.4,251.6 L342.3,251.6 L352.3,251.6 L362.2,251.6 L372.1,251.6 L382.1,251.6 L392.0,251.6 L402.0,251.6 L411.9,251.5 L421.9,251.5 L431.8,251.5 L441.7,251.5 L451.7,251.5 L461.6,251.5 L471.6,251.5 L481.5,251.5 L491.4,251.5 L501.4,251.5 L511.3,251.5 L521.3,251.5 L531.2,251.5 L541.1,251.5 L551.1,251.5 L561.0,251.6 L571.0,251.6 L580.9,251.6 L590.8,251.6 L600.8,251.9 L610.7,251.9 L620.7,251.9 L630.6,252.5 L640.5,252.5 L650.5,252.5 L660.4,252.5 L670.4,252.5 L680.3,252.5 L690.2,252.5 L700.2,252.5 L710.1,252.5 L720.1,252.5 L730.0,252.5" fill="none" stroke="#1baf7a" stroke-width="2" stroke-linejoin="round" stroke-linecap="round"/>
<circle cx="730.0" cy="252.5" r="6" fill="#fcfcfb"/>
<circle cx="730.0" cy="252.5" r="4" fill="#1baf7a"/>
<path d="M83.9,97.2 L93.8,97.2 L103.8,97.2 L113.7,138.2 L123.6,138.2 L133.6,137.8 L143.5,137.8 L153.5,137.8 L163.4,137.9 L173.3,137.8 L183.3,137.9 L193.2,137.8 L203.2,137.8 L213.1,137.8 L223.0,137.8 L233.0,137.8 L242.9,142.4 L252.9,142.4 L262.8,142.4 L272.7,142.4 L282.7,142.4 L292.6,142.4 L302.6,142.4 L312.5,142.4 L322.4,142.4 L332.4,142.4 L342.3,142.4 L352.3,142.4 L362.2,142.4 L372.1,142.4 L382.1,142.3 L392.0,142.4 L402.0,142.3 L411.9,142.3 L421.9,142.3 L431.8,142.3 L441.7,142.3 L451.7,142.3 L461.6,142.3 L471.6,142.3 L481.5,142.3 L491.4,142.3 L501.4,142.3 L511.3,142.3 L521.3,142.3 L531.2,142.3 L541.1,142.3 L551.1,142.3 L561.0,142.3 L571.0,142.3 L580.9,142.3 L590.8,142.3 L600.8,142.6 L610.7,142.6 L620.7,142.7 L630.6,143.3 L640.5,143.3 L650.5,143.3 L660.4,143.3 L670.4,143.3 L680.3,143.3 L690.2,143.3 L700.2,143.3 L710.1,143.3 L720.1,143.3 L730.0,143.3" fill="none" stroke="#eda100" stroke-width="2" stroke-linejoin="round" stroke-linecap="round"/>
<circle cx="730.0" cy="143.3" r="6" fill="#fcfcfb"/>
<circle cx="730.0" cy="143.3" r="4" fill="#eda100"/>
<path d="M64.0,195.3 L73.9,195.3 L83.9,195.4 L93.8,195.4 L103.8,195.4 L113.7,204.2 L123.6,204.1 L133.6,203.8 L143.5,203.8 L153.5,203.8 L163.4,203.9 L173.3,203.8 L183.3,203.8 L193.2,203.8 L203.2,203.8 L213.1,203.8 L223.0,203.8 L233.0,203.8 L242.9,208.4 L252.9,208.4 L262.8,208.4 L272.7,208.4 L282.7,208.4 L292.6,208.4 L302.6,208.4 L312.5,208.4 L322.4,208.5 L332.4,208.3 L342.3,208.3 L352.3,208.3 L362.2,208.3 L372.1,208.3 L382.1,208.3 L392.0,208.4 L402.0,208.4 L411.9,208.2 L421.9,208.2 L431.8,208.2 L441.7,208.2 L451.7,208.2 L461.6,208.2 L471.6,208.2 L481.5,208.2 L491.4,208.2 L501.4,208.2 L511.3,208.2 L521.3,208.2 L531.2,208.2 L541.1,208.2 L551.1,208.2 L561.0,208.4 L571.0,208.3 L580.9,208.3 L590.8,208.3 L600.8,208.6 L610.7,208.6 L620.7,208.6 L630.6,209.2 L640.5,209.2 L650.5,209.2 L660.4,209.2 L670.4,209.2 L680.3,209.2 L690.2,209.2 L700.2,209.2 L710.1,209.2 L720.1,209.2 L730.0,209.2" fill="none" stroke="#008300" stroke-width="2" stroke-linejoin="round" stroke-linecap="round"/>
<circle cx="730.0" cy="209.2" r="6" fill="#fcfcfb"/>
<circle cx="730.0" cy="209.2" r="4" fill="#008300"/>
<path d="M571.0,229.0 L580.9,229.0 L590.8,229.1 L600.8,229.3 L610.7,229.3 L620.7,229.3 L630.6,229.9 L640.5,229.9 L650.5,229.9 L660.4,229.9 L670.4,229.9 L680.3,229.9 L690.2,229.9 L700.2,229.9 L710.1,229.9 L720.1,229.9 L730.0,229.9" fill="none" stroke="#4a3aa7" stroke-width="2" stroke-linejoin="round" stroke-linecap="round"/>
<circle cx="730.0" cy="229.9" r="6" fill="#fcfcfb"/>
<circle cx="730.0" cy="229.9" r="4" fill="#4a3aa7"/>
<path d="M64.0,262.8 L73.9,262.8 L83.9,262.8 L93.8,262.8 L103.8,263.0 L113.7,263.2 L123.6,263.0 L133.6,262.4 L143.5,262.5 L153.5,262.4 L163.4,262.5 L173.3,262.5 L183.3,262.5 L193.2,262.5 L203.2,262.5 L213.1,262.5 L223.0,262.5 L233.0,262.5 L242.9,261.7 L252.9,261.7 L262.8,261.6 L272.7,261.4 L282.7,261.4 L292.6,261.4 L302.6,261.4 L312.5,261.4 L322.4,261.4 L332.4,261.3 L342.3,261.3 L352.3,261.3 L362.2,261.3 L372.1,261.3 L382.1,261.2 L392.0,261.3 L402.0,261.3 L411.9,261.0 L421.9,261.0 L431.8,261.1 L441.7,261.1 L451.7,261.1 L461.6,261.1 L471.6,261.1 L481.5,261.1 L491.4,261.1 L501.4,261.1 L511.3,261.1 L521.3,261.1 L531.2,261.1 L541.1,261.1 L551.1,261.1 L561.0,261.3 L571.0,261.2 L580.9,261.2 L590.8,261.3 L600.8,261.7 L610.7,261.8 L620.7,261.8 L630.6,263.1 L640.5,263.1 L650.5,263.1 L660.4,263.1 L670.4,263.1 L680.3,263.1 L690.2,263.0 L700.2,263.0 L710.1,263.0 L720.1,263.0 L730.0,263.0" fill="none" stroke="#e34948" stroke-width="2" stroke-linejoin="round" stroke-linecap="round"/>
<circle cx="730.0" cy="263.0" r="6" fill="#fcfcfb"/>
<circle cx="730.0" cy="263.0" r="4" fill="#e34948"/>
<circle cx="745.0" cy="60.9" r="3.5" fill="#2a78d6"/>
<text x="753.0" y="64.4" font-family='system-ui, -apple-system, "Segoe UI", sans-serif' font-size="11" fill="#0b0b0b">granulator</text>
<text x="753.0" y="76.4" font-family='system-ui, -apple-system, "Segoe UI", sans-serif' font-size="10" style="font-variant-numeric: tabular-nums" fill="#52514e">27.5M</text>
<circle cx="745.0" cy="139.8" r="3.5" fill="#eda100"/>
<text x="753.0" y="143.3" font-family='system-ui, -apple-system, "Segoe UI", sans-serif' font-size="11" fill="#0b0b0b">resonator</text>
<text x="753.0" y="155.3" font-family='system-ui, -apple-system, "Segoe UI", sans-serif' font-size="10" style="font-variant-numeric: tabular-nums" fill="#52514e">18.5M</text>
<circle cx="745.0" cy="205.7" r="3.5" fill="#008300"/>
<text x="753.0" y="209.2" font-family='system-ui, -apple-system, "Segoe UI", sans-serif' font-size="11" fill="#0b0b0b">reverb</text>
<text x="753.0" y="221.2" font-family='system-ui, -apple-system, "Segoe UI", sans-serif' font-size="10" style="font-variant-numeric: tabular-nums" fill="#52514e">11.0M</text>
<line x1="736.0" y1="229.9" x2="740.0" y2="237.2" stroke="#c3c2b7" stroke-width="1"/>
<circle cx="745.0" cy="233.7" r="3.5" fill="#4a3aa7"/>
<text x="753.0" y="237.2" font-family='system-ui, -apple-system, "Segoe UI", sans-serif' font-size="11" fill="#0b0b0b">saturator</text>
<text x="753.0" y="249.2" font-family='system-ui, -apple-system, "Segoe UI", sans-serif' font-size="10" style="font-variant-numeric: tabular-nums" fill="#52514e">8.66M</text>
<line x1="736.0" y1="252.5" x2="740.0" y2="265.2" stroke="#c3c2b7" stroke-width="1"/>
<circle cx="745.0" cy="261.7" r="3.5" fill="#1baf7a"/>
<text x="753.0" y="265.2" font-family='system-ui, -apple-system, "Segoe UI", sans-serif' font-size="11" fill="#0b0b0b">pan</text>
<text x="753.0" y="277.2" font-family='system-ui, -apple-system, "Segoe UI", sans-serif' font-size="10" style="font-variant-numeric: tabular-nums" fill="#52514e">6.09M</text>
<line x1="736.0" y1="263.0" x2="740.0" y2="293.2" stroke="#c3c2b7" stroke-width="1"/>
<circle cx="745.0" cy="289.7" r="3.5" fill="#e34948"/>
<text x="753.0" y="293.2" font-family='system-ui, -apple-system, "Segoe UI", sans-serif' font-size="11" fill="#0b0b0b">sequencer</text>
<text x="753.0" y="305.2" font-family='system-ui, -apple-system, "Segoe UI", sans-serif' font-size="10" style="font-variant-numeric: tabular-nums" fill="#52514e">4.89M</text>
</svg>