<svg xmlns="http://www.w3.org/2000/svg" width="880" height="340" viewBox="0 0 880 340" role="img" aria-label="Heaviest operators (micro)">
<rect width="880" height="340" rx="6" fill="#fcfcfb"/>
<text x="64" y="24" font-family='system-ui, -apple-system, "Segoe UI", sans-serif' font-size="14" font-weight="600" fill="#0b0b0b">Heaviest operators (micro)</text>
<text x="64" y="41" font-family='system-ui, -apple-system, "Segoe UI", sans-serif' font-size="11" fill="#52514e">per-operator step_node cost over the same 1 s schedule - top 6 by latest Ir</text>
<line x1="64" y1="306.0" x2="730" y2="306.0" stroke="#e1e0d9" stroke-width="1"/>
<text x="56" y="309.5" text-anchor="end" font-family='system-ui, -apple-system, "Segoe UI", sans-serif' font-size="11" style="font-variant-numeric: tabular-nums" fill="#898781">0</text>
<line x1="64" y1="218.1" x2="730" y2="218.1" stroke="#e1e0d9" stroke-width="1"/>
<text x="56" y="221.6" text-anchor="end" font-family='system-ui, -apple-system, "Segoe UI", sans-serif' font-size="11" style="font-variant-numeric: tabular-nums" fill="#898781">10</text>
<line x1="64" y1="130.3" x2="730" y2="130.3" stroke="#e1e0d9" stroke-width="1"/>
<text x="56" y="133.8" text-anchor="end" font-family='system-ui, -apple-system, "Segoe UI", sans-serif' font-size="11" style="font-variant-numeric: tabular-nums" fill="#898781">20</text>
<text x="56" y="46" text-anchor="end" font-family='system-ui, -apple-system, "Segoe UI", sans-serif' font-size="10" fill="#898781">Ir (M)</text>
<line x1="64" y1="306" x2="730" y2="306" stroke="#c3c2b7" stroke-width="1"/>
<text x="64.0" y="322" text-anchor="middle" font-family='system-ui, -apple-system, "Segoe UI", sans-serif' font-size="11" style="font-variant-numeric: tabular-nums" fill="#898781">06-28</text>
<text x="134.1" y="322" text-anchor="middle" font-family='system-ui, -apple-system, "Segoe UI", sans-serif' font-size="11" style="font-variant-numeric: tabular-nums" fill="#898781">06-30</text>
<text x="192.5" y="322" text-anchor="middle" font-family='system-ui, -apple-system, "Segoe UI", sans-serif' font-size="11" style="font-variant-numeric: tabular-nums" fill="#898781">07-02</text>
<text x="321.1" y="322" text-anchor="middle" font-family='system-ui, -apple-system, "Segoe UI", sans-serif' font-size="11" style="font-variant-numeric: tabular-nums" fill="#898781">07-04</text>
<text x="508.0" y="322" text-anchor="middle" font-family='system-ui, -apple-system, "Segoe UI", sans-serif' font-size="11" style="font-variant-numeric: tabular-nums" fill="#898781">07-07</text>
<text x="624.8" y="322" text-anchor="middle" font-family='system-ui, -apple-system, "Segoe UI", sans-serif' font-size="11" style="font-variant-numeric: tabular-nums" fill="#898781">07-09</text>
<text x="718.3" y="322" text-anchor="middle" font-family='system-ui, -apple-system, "Segoe UI", sans-serif' font-size="11" style="font-variant-numeric: tabular-nums" fill="#898781">07-11</text>
<path d="M145.8,56.2 L157.5,56.2 L169.2,56.1 L180.8,61.2 L192.5,56.2 L204.2,56.2 L215.9,56.2 L227.6,56.2 L239.3,56.2 L250.9,56.2 L262.6,56.2 L274.3,56.2 L286.0,56.2 L297.7,56.2 L309.4,56.2 L321.1,56.2 L332.7,56.2 L344.4,56.2 L356.1,56.2 L367.8,60.8 L379.5,56.1 L391.2,56.1 L402.8,56.1 L414.5,56.1 L426.2,56.1 L437.9,60.6 L449.6,60.6 L461.3,56.1 L472.9,56.0 L484.6,56.0 L496.3,56.0 L508.0,56.0 L519.7,56.0 L531.4,56.0 L543.1,56.0 L554.7,56.0 L566.4,56.0 L578.1,56.0 L589.8,56.0 L601.5,56.0 L613.2,56.0 L624.8,56.0 L636.5,56.0 L648.2,61.0 L659.9,61.0 L671.6,61.0 L683.3,56.1 L694.9,61.3 L706.6,56.3 L718.3,56.4 L730.0,64.4" fill="none" stroke="#2a78d6" stroke-width="2" stroke-linejoin="round" stroke-linecap="round"/>
<circle cx="730.0" cy="64.4" r="6" fill="#fcfcfb"/>
<circle cx="730.0" cy="64.4" r="4" fill="#2a78d6"/>
<path d="M64.0,246.7 L75.7,246.7 L87.4,246.7 L99.1,246.7 L110.7,246.7 L122.4,246.6 L134.1,246.6 L145.8,246.2 L157.5,246.3 L169.2,246.3 L180.8,246.3 L192.5,246.3 L204.2,246.3 L215.9,246.3 L227.6,246.3 L239.3,246.3 L250.9,246.3 L262.6,246.3 L274.3,251.7 L286.0,251.7 L297.7,251.7 L309.4,251.7 L321.1,251.7 L332.7,251.7 L344.4,251.7 L356.1,251.7 L367.8,251.7 L379.5,251.6 L391.2,251.6 L402.8,251.6 L414.5,251.6 L426.2,251.6 L437.9,251.6 L449.6,251.6 L461.3,251.6 L472.9,251.5 L484.6,251.5 L496.3,251.5 L508.0,251.5 L519.7,251.5 L531.4,251.5 L543.1,251.5 L554.7,251.5 L566.4,251.5 L578.1,251.5 L589.8,251.5 L601.5,251.5 L613.2,251.5 L624.8,251.5 L636.5,251.5 L648.2,251.6 L659.9,251.6 L671.6,251.6 L683.3,251.6 L694.9,251.9 L706.6,251.9 L718.3,251.9 L730.0,252.5" fill="none" stroke="#1baf7a" stroke-width="2" stroke-linejoin="round" stroke-linecap="round"/>
<circle cx="730.0" cy="252.5" r="6" fill="#fcfcfb"/>
<circle cx="730.0" cy="252.5" r="4" fill="#1baf7a"/>
<path d="M87.4,97.2 L99.1,97.2 L110.7,97.2 L122.4,138.2 L134.1,138.2 L145.8,137.8 L157.5,137.8 L169.2,137.8 L180.8,137.9 L192.5,137.8 L204.2,137.9 L215.9,137.8 L227.6,137.8 L239.3,137.8 L250.9,137.8 L262.6,137.8 L274.3,142.4 L286.0,142.4 L297.7,142.4 L309.4,142.4 L321.1,142.4 L332.7,142.4 L344.4,142.4 L356.1,142.4 L367.8,142.4 L379.5,142.4 L391.2,142.4 L402.8,142.4 L414.5,142.4 L426.2,142.4 L437.9,142.3 L449.6,142.4 L461.3,142.3 L472.9,142.3 L484.6,142.3 L496.3,142.3 L508.0,142.3 L519.7,142.3 L531.4,142.3 L543.1,142.3 L554.7,142.3 L566.4,142.3 L578.1,142.3 L589.8,142.3 L601.5,142.3 L613.2,142.3 L624.8,142.3 L636.5,142.3 L648.2,142.3 L659.9,142.3 L671.6,142.3 L683.3,142.3 L694.9,142.6 L706.6,142.6 L718.3,142.7 L730.0,143.3" fill="none" stroke="#eda100" stroke-width="2" stroke-linejoin="round" stroke-linecap="round"/>
<circle cx="730.0" cy="143.3" r="6" fill="#fcfcfb"/>
<circle cx="730.0" cy="143.3" r="4" fill="#eda100"/>
<path d="M64.0,195.3 L75.7,195.3 L87.4,195.4 L99.1,195.4 L110.7,195.4 L122.4,204.2 L134.1,204.1 L145.8,203.8 L157.5,203.8 L169.2,203.8 L180.8,203.9 L192.5,203.8 L204.2,203.8 L215.9,203.8 L227.6,203.8 L239.3,203.8 L250.9,203.8 L262.6,203.8 L274.3,208.4 L286.0,208.4 L297.7,208.4 L309.4,208.4 L321.1,208.4 L332.7,208.4 L344.4,208.4 L356.1,208.4 L367.8,208.5 L379.5,208.3 L391.2,208.3 L402.8,208.3 L414.5,208.3 L426.2,208.3 L437.9,208.3 L449.6,208.4 L461.3,208.4 L472.9,208.2 L484.6,208.2 L496.3,208.2 L508.0,208.2 L519.7,208.2 L531.4,208.2 L543.1,208.2 L554.7,208.2 L566.4,208.2 L578.1,208.2 L589.8,208.2 L601.5,208.2 L613.2,208.2 L624.8,208.2 L636.5,208.2 L648.2,208.4 L659.9,208.3 L671.6,208.3 L683.3,208.3 L694.9,208.6 L706.6,208.6 L718.3,208.6 L730.0,209.2" fill="none" stroke="#008300" stroke-width="2" stroke-linejoin="round" stroke-linecap="round"/>
<circle cx="730.0" cy="209.2" r="6" fill="#fcfcfb"/>
<circle cx="730.0" cy="209.2" r="4" fill="#008300"/>
<path d="M659.9,229.0 L671.6,229.0 L683.3,229.1 L694.9,229.3 L706.6,229.3 L718.3,229.3 L730.0,229.9" fill="none" stroke="#4a3aa7" stroke-width="2" stroke-linejoin="round" stroke-linecap="round"/>
<circle cx="730.0" cy="229.9" r="6" fill="#fcfcfb"/>
<circle cx="730.0" cy="229.9" r="4" fill="#4a3aa7"/>
<path d="M64.0,262.8 L75.7,262.8 L87.4,262.8 L99.1,262.8 L110.7,263.0 L122.4,263.2 L134.1,263.0 L145.8,262.4 L157.5,262.5 L169.2,262.4 L180.8,262.5 L192.5,262.5 L204.2,262.5 L215.9,262.5 L227.6,262.5 L239.3,262.5 L250.9,262.5 L262.6,262.5 L274.3,261.7 L286.0,261.7 L297.7,261.6 L309.4,261.4 L321.1,261.4 L332.7,261.4 L344.4,261.4 L356.1,261.4 L367.8,261.4 L379.5,261.3 L391.2,261.3 L402.8,261.3 L414.5,261.3 L426.2,261.3 L437.9,261.2 L449.6,261.3 L461.3,261.3 L472.9,261.0 L484.6,261.0 L496.3,261.1 L508.0,261.1 L519.7,261.1 L531.4,261.1 L543.1,261.1 L554.7,261.1 L566.4,261.1 L578.1,261.1 L589.8,261.1 L601.5,261.1 L613.2,261.1 L624.8,261.1 L636.5,261.1 L648.2,261.3 L659.9,261.2 L671.6,261.2 L683.3,261.3 L694.9,261.7 L706.6,261.8 L718.3,261.8 L730.0,263.1" fill="none" stroke="#e34948" stroke-width="2" stroke-linejoin="round" stroke-linecap="round"/>
<circle cx="730.0" cy="263.1" r="6" fill="#fcfcfb"/>
<circle cx="730.0" cy="263.1" r="4" fill="#e34948"/>
<circle cx="745.0" cy="60.9" r="3.5" fill="#2a78d6"/>
<text x="753.0" y="64.4" font-family='system-ui, -apple-system, "Segoe UI", sans-serif' font-size="11" fill="#0b0b0b">granulator</text>
<text x="753.0" y="76.4" font-family='system-ui, -apple-system, "Segoe UI", sans-serif' font-size="10" style="font-variant-numeric: tabular-nums" fill="#52514e">27.5M</text>
<circle cx="745.0" cy="139.8" r="3.5" fill="#eda100"/>
<text x="753.0" y="143.3" font-family='system-ui, -apple-system, "Segoe UI", sans-serif' font-size="11" fill="#0b0b0b">resonator</text>
<text x="753.0" y="155.3" font-family='system-ui, -apple-system, "Segoe UI", sans-serif' font-size="10" style="font-variant-numeric: tabular-nums" fill="#52514e">18.5M</text>
<circle cx="745.0" cy="205.7" r="3.5" fill="#008300"/>
<text x="753.0" y="209.2" font-family='system-ui, -apple-system, "Segoe UI", sans-serif' font-size="11" fill="#0b0b0b">reverb</text>
<text x="753.0" y="221.2" font-family='system-ui, -apple-system, "Segoe UI", sans-serif' font-size="10" style="font-variant-numeric: tabular-nums" fill="#52514e">11.0M</text>
<line x1="736.0" y1="229.9" x2="740.0" y2="237.2" stroke="#c3c2b7" stroke-width="1"/>
<circle cx="745.0" cy="233.7" r="3.5" fill="#4a3aa7"/>
<text x="753.0" y="237.2" font-family='system-ui, -apple-system, "Segoe UI", sans-serif' font-size="11" fill="#0b0b0b">saturator</text>
<text x="753.0" y="249.2" font-family='system-ui, -apple-system, "Segoe UI", sans-serif' font-size="10" style="font-variant-numeric: tabular-nums" fill="#52514e">8.66M</text>
<line x1="736.0" y1="252.5" x2="740.0" y2="265.2" stroke="#c3c2b7" stroke-width="1"/>
<circle cx="745.0" cy="261.7" r="3.5" fill="#1baf7a"/>
<text x="753.0" y="265.2" font-family='system-ui, -apple-system, "Segoe UI", sans-serif' font-size="11" fill="#0b0b0b">pan</text>
<text x="753.0" y="277.2" font-family='system-ui, -apple-system, "Segoe UI", sans-serif' font-size="10" style="font-variant-numeric: tabular-nums" fill="#52514e">6.09M</text>
<line x1="736.0" y1="263.1" x2="740.0" y2="293.2" stroke="#c3c2b7" stroke-width="1"/>
<circle cx="745.0" cy="289.7" r="3.5" fill="#e34948"/>
<text x="753.0" y="293.2" font-family='system-ui, -apple-system, "Segoe UI", sans-serif' font-size="11" fill="#0b0b0b">sequencer</text>
<text x="753.0" y="305.2" font-family='system-ui, -apple-system, "Segoe UI", sans-serif' font-size="10" style="font-variant-numeric: tabular-nums" fill="#52514e">4.89M</text>
</svg>