<svg xmlns="http://www.w3.org/2000/svg" width="880" height="340" viewBox="0 0 880 340" role="img" aria-label="Heaviest operators (micro)">
<rect width="880" height="340" rx="6" fill="#fcfcfb"/>
<text x="64" y="24" font-family='system-ui, -apple-system, "Segoe UI", sans-serif' font-size="14" font-weight="600" fill="#0b0b0b">Heaviest operators (micro)</text>
<text x="64" y="41" font-family='system-ui, -apple-system, "Segoe UI", sans-serif' font-size="11" fill="#52514e">per-operator step_node cost over the same 1 s schedule - top 6 by latest Ir</text>
<line x1="64" y1="306.0" x2="730" y2="306.0" stroke="#e1e0d9" stroke-width="1"/>
<text x="56" y="309.5" text-anchor="end" font-family='system-ui, -apple-system, "Segoe UI", sans-serif' font-size="11" style="font-variant-numeric: tabular-nums" fill="#898781">0</text>
<line x1="64" y1="218.1" x2="730" y2="218.1" stroke="#e1e0d9" stroke-width="1"/>
<text x="56" y="221.6" text-anchor="end" font-family='system-ui, -apple-system, "Segoe UI", sans-serif' font-size="11" style="font-variant-numeric: tabular-nums" fill="#898781">10</text>
<line x1="64" y1="130.3" x2="730" y2="130.3" stroke="#e1e0d9" stroke-width="1"/>
<text x="56" y="133.8" text-anchor="end" font-family='system-ui, -apple-system, "Segoe UI", sans-serif' font-size="11" style="font-variant-numeric: tabular-nums" fill="#898781">20</text>
<text x="56" y="46" text-anchor="end" font-family='system-ui, -apple-system, "Segoe UI", sans-serif' font-size="10" fill="#898781">Ir (M)</text>
<line x1="64" y1="306" x2="730" y2="306" stroke="#c3c2b7" stroke-width="1"/>
<text x="64.0" y="322" text-anchor="middle" font-family='system-ui, -apple-system, "Segoe UI", sans-serif' font-size="11" style="font-variant-numeric: tabular-nums" fill="#898781">06-28</text>
<text x="125.5" y="322" text-anchor="middle" font-family='system-ui, -apple-system, "Segoe UI", sans-serif' font-size="11" style="font-variant-numeric: tabular-nums" fill="#898781">06-30</text>
<text x="176.7" y="322" text-anchor="middle" font-family='system-ui, -apple-system, "Segoe UI", sans-serif' font-size="11" style="font-variant-numeric: tabular-nums" fill="#898781">07-02</text>
<text x="289.4" y="322" text-anchor="middle" font-family='system-ui, -apple-system, "Segoe UI", sans-serif' font-size="11" style="font-variant-numeric: tabular-nums" fill="#898781">07-04</text>
<text x="453.4" y="322" text-anchor="middle" font-family='system-ui, -apple-system, "Segoe UI", sans-serif' font-size="11" style="font-variant-numeric: tabular-nums" fill="#898781">07-07</text>
<text x="555.8" y="322" text-anchor="middle" font-family='system-ui, -apple-system, "Segoe UI", sans-serif' font-size="11" style="font-variant-numeric: tabular-nums" fill="#898781">07-09</text>
<text x="637.8" y="322" text-anchor="middle" font-family='system-ui, -apple-system, "Segoe UI", sans-serif' font-size="11" style="font-variant-numeric: tabular-nums" fill="#898781">07-11</text>
<path d="M135.7,56.2 L146.0,56.2 L156.2,56.1 L166.5,61.2 L176.7,56.2 L187.0,56.2 L197.2,56.2 L207.4,56.2 L217.7,56.2 L227.9,56.2 L238.2,56.2 L248.4,56.2 L258.7,56.2 L268.9,56.2 L279.2,56.2 L289.4,56.2 L299.7,56.2 L309.9,56.2 L320.2,56.2 L330.4,60.8 L340.6,56.1 L350.9,56.1 L361.1,56.1 L371.4,56.1 L381.6,56.1 L391.9,60.6 L402.1,60.6 L412.4,56.1 L422.6,56.0 L432.9,56.0 L443.1,56.0 L453.4,56.0 L463.6,56.0 L473.8,56.0 L484.1,56.0 L494.3,56.0 L504.6,56.0 L514.8,56.0 L525.1,56.0 L535.3,56.0 L545.6,56.0 L555.8,56.0 L566.1,56.0 L576.3,61.0 L586.6,61.0 L596.8,61.0 L607.0,56.1 L617.3,61.3 L627.5,56.3 L637.8,56.4 L648.0,64.4 L658.3,64.4 L668.5,64.4 L678.8,64.4 L689.0,64.4 L699.3,64.4 L709.5,64.4 L719.8,64.4 L730.0,64.4" fill="none" stroke="#2a78d6" stroke-width="2" stroke-linejoin="round" stroke-linecap="round"/>
<circle cx="730.0" cy="64.4" r="6" fill="#fcfcfb"/>
<circle cx="730.0" cy="64.4" r="4" fill="#2a78d6"/>
<path d="M64.0,246.7 L74.2,246.7 L84.5,246.7 L94.7,246.7 L105.0,246.7 L115.2,246.6 L125.5,246.6 L135.7,246.2 L146.0,246.3 L156.2,246.3 L166.5,246.3 L176.7,246.3 L187.0,246.3 L197.2,246.3 L207.4,246.3 L217.7,246.3 L227.9,246.3 L238.2,246.3 L248.4,251.7 L258.7,251.7 L268.9,251.7 L279.2,251.7 L289.4,251.7 L299.7,251.7 L309.9,251.7 L320.2,251.7 L330.4,251.7 L340.6,251.6 L350.9,251.6 L361.1,251.6 L371.4,251.6 L381.6,251.6 L391.9,251.6 L402.1,251.6 L412.4,251.6 L422.6,251.5 L432.9,251.5 L443.1,251.5 L453.4,251.5 L463.6,251.5 L473.8,251.5 L484.1,251.5 L494.3,251.5 L504.6,251.5 L514.8,251.5 L525.1,251.5 L535.3,251.5 L545.6,251.5 L555.8,251.5 L566.1,251.5 L576.3,251.6 L586.6,251.6 L596.8,251.6 L607.0,251.6 L617.3,251.9 L627.5,251.9 L637.8,251.9 L648.0,252.5 L658.3,252.5 L668.5,252.5 L678.8,252.5 L689.0,252.5 L699.3,252.5 L709.5,252.5 L719.8,252.5 L730.0,252.5" fill="none" stroke="#1baf7a" stroke-width="2" stroke-linejoin="round" stroke-linecap="round"/>
<circle cx="730.0" cy="252.5" r="6" fill="#fcfcfb"/>
<circle cx="730.0" cy="252.5" r="4" fill="#1baf7a"/>
<path d="M84.5,97.2 L94.7,97.2 L105.0,97.2 L115.2,138.2 L125.5,138.2 L135.7,137.8 L146.0,137.8 L156.2,137.8 L166.5,137.9 L176.7,137.8 L187.0,137.9 L197.2,137.8 L207.4,137.8 L217.7,137.8 L227.9,137.8 L238.2,137.8 L248.4,142.4 L258.7,142.4 L268.9,142.4 L279.2,142.4 L289.4,142.4 L299.7,142.4 L309.9,142.4 L320.2,142.4 L330.4,142.4 L340.6,142.4 L350.9,142.4 L361.1,142.4 L371.4,142.4 L381.6,142.4 L391.9,142.3 L402.1,142.4 L412.4,142.3 L422.6,142.3 L432.9,142.3 L443.1,142.3 L453.4,142.3 L463.6,142.3 L473.8,142.3 L484.1,142.3 L494.3,142.3 L504.6,142.3 L514.8,142.3 L525.1,142.3 L535.3,142.3 L545.6,142.3 L555.8,142.3 L566.1,142.3 L576.3,142.3 L586.6,142.3 L596.8,142.3 L607.0,142.3 L617.3,142.6 L627.5,142.6 L637.8,142.7 L648.0,143.3 L658.3,143.3 L668.5,143.3 L678.8,143.3 L689.0,143.3 L699.3,143.3 L709.5,143.3 L719.8,143.3 L730.0,143.3" fill="none" stroke="#eda100" stroke-width="2" stroke-linejoin="round" stroke-linecap="round"/>
<circle cx="730.0" cy="143.3" r="6" fill="#fcfcfb"/>
<circle cx="730.0" cy="143.3" r="4" fill="#eda100"/>
<path d="M64.0,195.3 L74.2,195.3 L84.5,195.4 L94.7,195.4 L105.0,195.4 L115.2,204.2 L125.5,204.1 L135.7,203.8 L146.0,203.8 L156.2,203.8 L166.5,203.9 L176.7,203.8 L187.0,203.8 L197.2,203.8 L207.4,203.8 L217.7,203.8 L227.9,203.8 L238.2,203.8 L248.4,208.4 L258.7,208.4 L268.9,208.4 L279.2,208.4 L289.4,208.4 L299.7,208.4 L309.9,208.4 L320.2,208.4 L330.4,208.5 L340.6,208.3 L350.9,208.3 L361.1,208.3 L371.4,208.3 L381.6,208.3 L391.9,208.3 L402.1,208.4 L412.4,208.4 L422.6,208.2 L432.9,208.2 L443.1,208.2 L453.4,208.2 L463.6,208.2 L473.8,208.2 L484.1,208.2 L494.3,208.2 L504.6,208.2 L514.8,208.2 L525.1,208.2 L535.3,208.2 L545.6,208.2 L555.8,208.2 L566.1,208.2 L576.3,208.4 L586.6,208.3 L596.8,208.3 L607.0,208.3 L617.3,208.6 L627.5,208.6 L637.8,208.6 L648.0,209.2 L658.3,209.2 L668.5,209.2 L678.8,209.2 L689.0,209.2 L699.3,209.2 L709.5,209.2 L719.8,209.2 L730.0,209.2" fill="none" stroke="#008300" stroke-width="2" stroke-linejoin="round" stroke-linecap="round"/>
<circle cx="730.0" cy="209.2" r="6" fill="#fcfcfb"/>
<circle cx="730.0" cy="209.2" r="4" fill="#008300"/>
<path d="M586.6,229.0 L596.8,229.0 L607.0,229.1 L617.3,229.3 L627.5,229.3 L637.8,229.3 L648.0,229.9 L658.3,229.9 L668.5,229.9 L678.8,229.9 L689.0,229.9 L699.3,229.9 L709.5,229.9 L719.8,229.9 L730.0,229.9" fill="none" stroke="#4a3aa7" stroke-width="2" stroke-linejoin="round" stroke-linecap="round"/>
<circle cx="730.0" cy="229.9" r="6" fill="#fcfcfb"/>
<circle cx="730.0" cy="229.9" r="4" fill="#4a3aa7"/>
<path d="M64.0,262.8 L74.2,262.8 L84.5,262.8 L94.7,262.8 L105.0,263.0 L115.2,263.2 L125.5,263.0 L135.7,262.4 L146.0,262.5 L156.2,262.4 L166.5,262.5 L176.7,262.5 L187.0,262.5 L197.2,262.5 L207.4,262.5 L217.7,262.5 L227.9,262.5 L238.2,262.5 L248.4,261.7 L258.7,261.7 L268.9,261.6 L279.2,261.4 L289.4,261.4 L299.7,261.4 L309.9,261.4 L320.2,261.4 L330.4,261.4 L340.6,261.3 L350.9,261.3 L361.1,261.3 L371.4,261.3 L381.6,261.3 L391.9,261.2 L402.1,261.3 L412.4,261.3 L422.6,261.0 L432.9,261.0 L443.1,261.1 L453.4,261.1 L463.6,261.1 L473.8,261.1 L484.1,261.1 L494.3,261.1 L504.6,261.1 L514.8,261.1 L525.1,261.1 L535.3,261.1 L545.6,261.1 L555.8,261.1 L566.1,261.1 L576.3,261.3 L586.6,261.2 L596.8,261.2 L607.0,261.3 L617.3,261.7 L627.5,261.8 L637.8,261.8 L648.0,263.1 L658.3,263.1 L668.5,263.1 L678.8,263.1 L689.0,263.1 L699.3,263.1 L709.5,263.0 L719.8,263.0 L730.0,263.0" fill="none" stroke="#e34948" stroke-width="2" stroke-linejoin="round" stroke-linecap="round"/>
<circle cx="730.0" cy="263.0" r="6" fill="#fcfcfb"/>
<circle cx="730.0" cy="263.0" r="4" fill="#e34948"/>
<circle cx="745.0" cy="60.9" r="3.5" fill="#2a78d6"/>
<text x="753.0" y="64.4" font-family='system-ui, -apple-system, "Segoe UI", sans-serif' font-size="11" fill="#0b0b0b">granulator</text>
<text x="753.0" y="76.4" font-family='system-ui, -apple-system, "Segoe UI", sans-serif' font-size="10" style="font-variant-numeric: tabular-nums" fill="#52514e">27.5M</text>
<circle cx="745.0" cy="139.8" r="3.5" fill="#eda100"/>
<text x="753.0" y="143.3" font-family='system-ui, -apple-system, "Segoe UI", sans-serif' font-size="11" fill="#0b0b0b">resonator</text>
<text x="753.0" y="155.3" font-family='system-ui, -apple-system, "Segoe UI", sans-serif' font-size="10" style="font-variant-numeric: tabular-nums" fill="#52514e">18.5M</text>
<circle cx="745.0" cy="205.7" r="3.5" fill="#008300"/>
<text x="753.0" y="209.2" font-family='system-ui, -apple-system, "Segoe UI", sans-serif' font-size="11" fill="#0b0b0b">reverb</text>
<text x="753.0" y="221.2" font-family='system-ui, -apple-system, "Segoe UI", sans-serif' font-size="10" style="font-variant-numeric: tabular-nums" fill="#52514e">11.0M</text>
<line x1="736.0" y1="229.9" x2="740.0" y2="237.2" stroke="#c3c2b7" stroke-width="1"/>
<circle cx="745.0" cy="233.7" r="3.5" fill="#4a3aa7"/>
<text x="753.0" y="237.2" font-family='system-ui, -apple-system, "Segoe UI", sans-serif' font-size="11" fill="#0b0b0b">saturator</text>
<text x="753.0" y="249.2" font-family='system-ui, -apple-system, "Segoe UI", sans-serif' font-size="10" style="font-variant-numeric: tabular-nums" fill="#52514e">8.66M</text>
<line x1="736.0" y1="252.5" x2="740.0" y2="265.2" stroke="#c3c2b7" stroke-width="1"/>
<circle cx="745.0" cy="261.7" r="3.5" fill="#1baf7a"/>
<text x="753.0" y="265.2" font-family='system-ui, -apple-system, "Segoe UI", sans-serif' font-size="11" fill="#0b0b0b">pan</text>
<text x="753.0" y="277.2" font-family='system-ui, -apple-system, "Segoe UI", sans-serif' font-size="10" style="font-variant-numeric: tabular-nums" fill="#52514e">6.09M</text>
<line x1="736.0" y1="263.0" x2="740.0" y2="293.2" stroke="#c3c2b7" stroke-width="1"/>
<circle cx="745.0" cy="289.7" r="3.5" fill="#e34948"/>
<text x="753.0" y="293.2" font-family='system-ui, -apple-system, "Segoe UI", sans-serif' font-size="11" fill="#0b0b0b">sequencer</text>
<text x="753.0" y="305.2" font-family='system-ui, -apple-system, "Segoe UI", sans-serif' font-size="10" style="font-variant-numeric: tabular-nums" fill="#52514e">4.89M</text>
</svg>