<svg xmlns="http://www.w3.org/2000/svg" width="880" height="340" viewBox="0 0 880 340" role="img" aria-label="Heaviest operators (micro)">
<rect width="880" height="340" rx="6" fill="#fcfcfb"/>
<text x="64" y="24" font-family='system-ui, -apple-system, "Segoe UI", sans-serif' font-size="14" font-weight="600" fill="#0b0b0b">Heaviest operators (micro)</text>
<text x="64" y="41" font-family='system-ui, -apple-system, "Segoe UI", sans-serif' font-size="11" fill="#52514e">per-operator step_node cost over the same 1 s schedule - top 6 by latest Ir</text>
<line x1="64" y1="306.0" x2="730" y2="306.0" stroke="#e1e0d9" stroke-width="1"/>
<text x="56" y="309.5" text-anchor="end" font-family='system-ui, -apple-system, "Segoe UI", sans-serif' font-size="11" style="font-variant-numeric: tabular-nums" fill="#898781">0</text>
<line x1="64" y1="218.1" x2="730" y2="218.1" stroke="#e1e0d9" stroke-width="1"/>
<text x="56" y="221.6" text-anchor="end" font-family='system-ui, -apple-system, "Segoe UI", sans-serif' font-size="11" style="font-variant-numeric: tabular-nums" fill="#898781">10</text>
<line x1="64" y1="130.3" x2="730" y2="130.3" stroke="#e1e0d9" stroke-width="1"/>
<text x="56" y="133.8" text-anchor="end" font-family='system-ui, -apple-system, "Segoe UI", sans-serif' font-size="11" style="font-variant-numeric: tabular-nums" fill="#898781">20</text>
<text x="56" y="46" text-anchor="end" font-family='system-ui, -apple-system, "Segoe UI", sans-serif' font-size="10" fill="#898781">Ir (M)</text>
<line x1="64" y1="306" x2="730" y2="306" stroke="#c3c2b7" stroke-width="1"/>
<text x="64.0" y="322" text-anchor="middle" font-family='system-ui, -apple-system, "Segoe UI", sans-serif' font-size="11" style="font-variant-numeric: tabular-nums" fill="#898781">06-28</text>
<text x="129.5" y="322" text-anchor="middle" font-family='system-ui, -apple-system, "Segoe UI", sans-serif' font-size="11" style="font-variant-numeric: tabular-nums" fill="#898781">06-30</text>
<text x="184.1" y="322" text-anchor="middle" font-family='system-ui, -apple-system, "Segoe UI", sans-serif' font-size="11" style="font-variant-numeric: tabular-nums" fill="#898781">07-02</text>
<text x="304.2" y="322" text-anchor="middle" font-family='system-ui, -apple-system, "Segoe UI", sans-serif' font-size="11" style="font-variant-numeric: tabular-nums" fill="#898781">07-04</text>
<text x="478.9" y="322" text-anchor="middle" font-family='system-ui, -apple-system, "Segoe UI", sans-serif' font-size="11" style="font-variant-numeric: tabular-nums" fill="#898781">07-07</text>
<text x="588.1" y="322" text-anchor="middle" font-family='system-ui, -apple-system, "Segoe UI", sans-serif' font-size="11" style="font-variant-numeric: tabular-nums" fill="#898781">07-09</text>
<text x="675.4" y="322" text-anchor="middle" font-family='system-ui, -apple-system, "Segoe UI", sans-serif' font-size="11" style="font-variant-numeric: tabular-nums" fill="#898781">07-11</text>
<path d="M140.4,56.2 L151.3,56.2 L162.3,56.1 L173.2,61.2 L184.1,56.2 L195.0,56.2 L205.9,56.2 L216.9,56.2 L227.8,56.2 L238.7,56.2 L249.6,56.2 L260.5,56.2 L271.4,56.2 L282.4,56.2 L293.3,56.2 L304.2,56.2 L315.1,56.2 L326.0,56.2 L337.0,56.2 L347.9,60.8 L358.8,56.1 L369.7,56.1 L380.6,56.1 L391.5,56.1 L402.5,56.1 L413.4,60.6 L424.3,60.6 L435.2,56.1 L446.1,56.0 L457.0,56.0 L468.0,56.0 L478.9,56.0 L489.8,56.0 L500.7,56.0 L511.6,56.0 L522.6,56.0 L533.5,56.0 L544.4,56.0 L555.3,56.0 L566.2,56.0 L577.1,56.0 L588.1,56.0 L599.0,56.0 L609.9,61.0 L620.8,61.0 L631.7,61.0 L642.7,56.1 L653.6,61.3 L664.5,56.3 L675.4,56.4 L686.3,64.4 L697.2,64.4 L708.2,64.4 L719.1,64.4 L730.0,64.4" fill="none" stroke="#2a78d6" stroke-width="2" stroke-linejoin="round" stroke-linecap="round"/>
<circle cx="730.0" cy="64.4" r="6" fill="#fcfcfb"/>
<circle cx="730.0" cy="64.4" r="4" fill="#2a78d6"/>
<path d="M64.0,246.7 L74.9,246.7 L85.8,246.7 L96.8,246.7 L107.7,246.7 L118.6,246.6 L129.5,246.6 L140.4,246.2 L151.3,246.3 L162.3,246.3 L173.2,246.3 L184.1,246.3 L195.0,246.3 L205.9,246.3 L216.9,246.3 L227.8,246.3 L238.7,246.3 L249.6,246.3 L260.5,251.7 L271.4,251.7 L282.4,251.7 L293.3,251.7 L304.2,251.7 L315.1,251.7 L326.0,251.7 L337.0,251.7 L347.9,251.7 L358.8,251.6 L369.7,251.6 L380.6,251.6 L391.5,251.6 L402.5,251.6 L413.4,251.6 L424.3,251.6 L435.2,251.6 L446.1,251.5 L457.0,251.5 L468.0,251.5 L478.9,251.5 L489.8,251.5 L500.7,251.5 L511.6,251.5 L522.6,251.5 L533.5,251.5 L544.4,251.5 L555.3,251.5 L566.2,251.5 L577.1,251.5 L588.1,251.5 L599.0,251.5 L609.9,251.6 L620.8,251.6 L631.7,251.6 L642.7,251.6 L653.6,251.9 L664.5,251.9 L675.4,251.9 L686.3,252.5 L697.2,252.5 L708.2,252.5 L719.1,252.5 L730.0,252.5" fill="none" stroke="#1baf7a" stroke-width="2" stroke-linejoin="round" stroke-linecap="round"/>
<circle cx="730.0" cy="252.5" r="6" fill="#fcfcfb"/>
<circle cx="730.0" cy="252.5" r="4" fill="#1baf7a"/>
<path d="M85.8,97.2 L96.8,97.2 L107.7,97.2 L118.6,138.2 L129.5,138.2 L140.4,137.8 L151.3,137.8 L162.3,137.8 L173.2,137.9 L184.1,137.8 L195.0,137.9 L205.9,137.8 L216.9,137.8 L227.8,137.8 L238.7,137.8 L249.6,137.8 L260.5,142.4 L271.4,142.4 L282.4,142.4 L293.3,142.4 L304.2,142.4 L315.1,142.4 L326.0,142.4 L337.0,142.4 L347.9,142.4 L358.8,142.4 L369.7,142.4 L380.6,142.4 L391.5,142.4 L402.5,142.4 L413.4,142.3 L424.3,142.4 L435.2,142.3 L446.1,142.3 L457.0,142.3 L468.0,142.3 L478.9,142.3 L489.8,142.3 L500.7,142.3 L511.6,142.3 L522.6,142.3 L533.5,142.3 L544.4,142.3 L555.3,142.3 L566.2,142.3 L577.1,142.3 L588.1,142.3 L599.0,142.3 L609.9,142.3 L620.8,142.3 L631.7,142.3 L642.7,142.3 L653.6,142.6 L664.5,142.6 L675.4,142.7 L686.3,143.3 L697.2,143.3 L708.2,143.3 L719.1,143.3 L730.0,143.3" fill="none" stroke="#eda100" stroke-width="2" stroke-linejoin="round" stroke-linecap="round"/>
<circle cx="730.0" cy="143.3" r="6" fill="#fcfcfb"/>
<circle cx="730.0" cy="143.3" r="4" fill="#eda100"/>
<path d="M64.0,195.3 L74.9,195.3 L85.8,195.4 L96.8,195.4 L107.7,195.4 L118.6,204.2 L129.5,204.1 L140.4,203.8 L151.3,203.8 L162.3,203.8 L173.2,203.9 L184.1,203.8 L195.0,203.8 L205.9,203.8 L216.9,203.8 L227.8,203.8 L238.7,203.8 L249.6,203.8 L260.5,208.4 L271.4,208.4 L282.4,208.4 L293.3,208.4 L304.2,208.4 L315.1,208.4 L326.0,208.4 L337.0,208.4 L347.9,208.5 L358.8,208.3 L369.7,208.3 L380.6,208.3 L391.5,208.3 L402.5,208.3 L413.4,208.3 L424.3,208.4 L435.2,208.4 L446.1,208.2 L457.0,208.2 L468.0,208.2 L478.9,208.2 L489.8,208.2 L500.7,208.2 L511.6,208.2 L522.6,208.2 L533.5,208.2 L544.4,208.2 L555.3,208.2 L566.2,208.2 L577.1,208.2 L588.1,208.2 L599.0,208.2 L609.9,208.4 L620.8,208.3 L631.7,208.3 L642.7,208.3 L653.6,208.6 L664.5,208.6 L675.4,208.6 L686.3,209.2 L697.2,209.2 L708.2,209.2 L719.1,209.2 L730.0,209.2" fill="none" stroke="#008300" stroke-width="2" stroke-linejoin="round" stroke-linecap="round"/>
<circle cx="730.0" cy="209.2" r="6" fill="#fcfcfb"/>
<circle cx="730.0" cy="209.2" r="4" fill="#008300"/>
<path d="M620.8,229.0 L631.7,229.0 L642.7,229.1 L653.6,229.3 L664.5,229.3 L675.4,229.3 L686.3,229.9 L697.2,229.9 L708.2,229.9 L719.1,229.9 L730.0,229.9" fill="none" stroke="#4a3aa7" stroke-width="2" stroke-linejoin="round" stroke-linecap="round"/>
<circle cx="730.0" cy="229.9" r="6" fill="#fcfcfb"/>
<circle cx="730.0" cy="229.9" r="4" fill="#4a3aa7"/>
<path d="M64.0,262.8 L74.9,262.8 L85.8,262.8 L96.8,262.8 L107.7,263.0 L118.6,263.2 L129.5,263.0 L140.4,262.4 L151.3,262.5 L162.3,262.4 L173.2,262.5 L184.1,262.5 L195.0,262.5 L205.9,262.5 L216.9,262.5 L227.8,262.5 L238.7,262.5 L249.6,262.5 L260.5,261.7 L271.4,261.7 L282.4,261.6 L293.3,261.4 L304.2,261.4 L315.1,261.4 L326.0,261.4 L337.0,261.4 L347.9,261.4 L358.8,261.3 L369.7,261.3 L380.6,261.3 L391.5,261.3 L402.5,261.3 L413.4,261.2 L424.3,261.3 L435.2,261.3 L446.1,261.0 L457.0,261.0 L468.0,261.1 L478.9,261.1 L489.8,261.1 L500.7,261.1 L511.6,261.1 L522.6,261.1 L533.5,261.1 L544.4,261.1 L555.3,261.1 L566.2,261.1 L577.1,261.1 L588.1,261.1 L599.0,261.1 L609.9,261.3 L620.8,261.2 L631.7,261.2 L642.7,261.3 L653.6,261.7 L664.5,261.8 L675.4,261.8 L686.3,263.1 L697.2,263.1 L708.2,263.1 L719.1,263.1 L730.0,263.1" fill="none" stroke="#e34948" stroke-width="2" stroke-linejoin="round" stroke-linecap="round"/>
<circle cx="730.0" cy="263.1" r="6" fill="#fcfcfb"/>
<circle cx="730.0" cy="263.1" r="4" fill="#e34948"/>
<circle cx="745.0" cy="60.9" r="3.5" fill="#2a78d6"/>
<text x="753.0" y="64.4" font-family='system-ui, -apple-system, "Segoe UI", sans-serif' font-size="11" fill="#0b0b0b">granulator</text>
<text x="753.0" y="76.4" font-family='system-ui, -apple-system, "Segoe UI", sans-serif' font-size="10" style="font-variant-numeric: tabular-nums" fill="#52514e">27.5M</text>
<circle cx="745.0" cy="139.8" r="3.5" fill="#eda100"/>
<text x="753.0" y="143.3" font-family='system-ui, -apple-system, "Segoe UI", sans-serif' font-size="11" fill="#0b0b0b">resonator</text>
<text x="753.0" y="155.3" font-family='system-ui, -apple-system, "Segoe UI", sans-serif' font-size="10" style="font-variant-numeric: tabular-nums" fill="#52514e">18.5M</text>
<circle cx="745.0" cy="205.7" r="3.5" fill="#008300"/>
<text x="753.0" y="209.2" font-family='system-ui, -apple-system, "Segoe UI", sans-serif' font-size="11" fill="#0b0b0b">reverb</text>
<text x="753.0" y="221.2" font-family='system-ui, -apple-system, "Segoe UI", sans-serif' font-size="10" style="font-variant-numeric: tabular-nums" fill="#52514e">11.0M</text>
<line x1="736.0" y1="229.9" x2="740.0" y2="237.2" stroke="#c3c2b7" stroke-width="1"/>
<circle cx="745.0" cy="233.7" r="3.5" fill="#4a3aa7"/>
<text x="753.0" y="237.2" font-family='system-ui, -apple-system, "Segoe UI", sans-serif' font-size="11" fill="#0b0b0b">saturator</text>
<text x="753.0" y="249.2" font-family='system-ui, -apple-system, "Segoe UI", sans-serif' font-size="10" style="font-variant-numeric: tabular-nums" fill="#52514e">8.66M</text>
<line x1="736.0" y1="252.5" x2="740.0" y2="265.2" stroke="#c3c2b7" stroke-width="1"/>
<circle cx="745.0" cy="261.7" r="3.5" fill="#1baf7a"/>
<text x="753.0" y="265.2" font-family='system-ui, -apple-system, "Segoe UI", sans-serif' font-size="11" fill="#0b0b0b">pan</text>
<text x="753.0" y="277.2" font-family='system-ui, -apple-system, "Segoe UI", sans-serif' font-size="10" style="font-variant-numeric: tabular-nums" fill="#52514e">6.09M</text>
<line x1="736.0" y1="263.1" x2="740.0" y2="293.2" stroke="#c3c2b7" stroke-width="1"/>
<circle cx="745.0" cy="289.7" r="3.5" fill="#e34948"/>
<text x="753.0" y="293.2" font-family='system-ui, -apple-system, "Segoe UI", sans-serif' font-size="11" fill="#0b0b0b">sequencer</text>
<text x="753.0" y="305.2" font-family='system-ui, -apple-system, "Segoe UI", sans-serif' font-size="10" style="font-variant-numeric: tabular-nums" fill="#52514e">4.89M</text>
</svg>