<svg xmlns="http://www.w3.org/2000/svg" width="880" height="340" viewBox="0 0 880 340" role="img" aria-label="Heaviest operators (micro)">
<rect width="880" height="340" rx="6" fill="#fcfcfb"/>
<text x="64" y="24" font-family='system-ui, -apple-system, "Segoe UI", sans-serif' font-size="14" font-weight="600" fill="#0b0b0b">Heaviest operators (micro)</text>
<text x="64" y="41" font-family='system-ui, -apple-system, "Segoe UI", sans-serif' font-size="11" fill="#52514e">per-operator step_node cost over the same 1 s schedule - top 6 by latest Ir</text>
<line x1="64" y1="306.0" x2="730" y2="306.0" stroke="#e1e0d9" stroke-width="1"/>
<text x="56" y="309.5" text-anchor="end" font-family='system-ui, -apple-system, "Segoe UI", sans-serif' font-size="11" style="font-variant-numeric: tabular-nums" fill="#898781">0</text>
<line x1="64" y1="218.1" x2="730" y2="218.1" stroke="#e1e0d9" stroke-width="1"/>
<text x="56" y="221.6" text-anchor="end" font-family='system-ui, -apple-system, "Segoe UI", sans-serif' font-size="11" style="font-variant-numeric: tabular-nums" fill="#898781">10</text>
<line x1="64" y1="130.3" x2="730" y2="130.3" stroke="#e1e0d9" stroke-width="1"/>
<text x="56" y="133.8" text-anchor="end" font-family='system-ui, -apple-system, "Segoe UI", sans-serif' font-size="11" style="font-variant-numeric: tabular-nums" fill="#898781">20</text>
<text x="56" y="46" text-anchor="end" font-family='system-ui, -apple-system, "Segoe UI", sans-serif' font-size="10" fill="#898781">Ir (M)</text>
<line x1="64" y1="306" x2="730" y2="306" stroke="#c3c2b7" stroke-width="1"/>
<text x="64.0" y="322" text-anchor="middle" font-family='system-ui, -apple-system, "Segoe UI", sans-serif' font-size="11" style="font-variant-numeric: tabular-nums" fill="#898781">06-28</text>
<text x="169.2" y="322" text-anchor="middle" font-family='system-ui, -apple-system, "Segoe UI", sans-serif' font-size="11" style="font-variant-numeric: tabular-nums" fill="#898781">06-30</text>
<text x="256.8" y="322" text-anchor="middle" font-family='system-ui, -apple-system, "Segoe UI", sans-serif' font-size="11" style="font-variant-numeric: tabular-nums" fill="#898781">07-02</text>
<text x="449.6" y="322" text-anchor="middle" font-family='system-ui, -apple-system, "Segoe UI", sans-serif' font-size="11" style="font-variant-numeric: tabular-nums" fill="#898781">07-04</text>
<text x="730.0" y="322" text-anchor="middle" font-family='system-ui, -apple-system, "Segoe UI", sans-serif' font-size="11" style="font-variant-numeric: tabular-nums" fill="#898781">07-07</text>
<path d="M186.7,56.2 L204.2,56.2 L221.7,56.1 L239.3,61.2 L256.8,56.2 L274.3,56.2 L291.8,56.2 L309.4,56.2 L326.9,56.2 L344.4,56.2 L361.9,56.2 L379.5,56.2 L397.0,56.2 L414.5,56.2 L432.1,56.2 L449.6,56.2 L467.1,56.2 L484.6,56.2 L502.2,56.2 L519.7,60.8 L537.2,56.1 L554.7,56.1 L572.3,56.1 L589.8,56.1 L607.3,56.1 L624.8,60.6 L642.4,60.6 L659.9,56.1 L677.4,56.0 L694.9,56.0 L712.5,56.0 L730.0,56.0" fill="none" stroke="#2a78d6" stroke-width="2" stroke-linejoin="round" stroke-linecap="round"/>
<circle cx="730.0" cy="56.0" r="6" fill="#fcfcfb"/>
<circle cx="730.0" cy="56.0" r="4" fill="#2a78d6"/>
<path d="M64.0,264.6 L81.5,264.6 L99.1,264.6 L116.6,264.6 L134.1,264.6 L151.6,266.2 L169.2,265.8 L186.7,265.4 L204.2,265.5 L221.7,265.4 L239.3,265.4 L256.8,265.5 L274.3,265.4 L291.8,265.5 L309.4,265.5 L326.9,265.5 L344.4,265.5 L361.9,265.5 L379.5,265.0 L397.0,265.0 L414.5,265.0 L432.1,265.0 L449.6,265.0 L467.1,265.0 L484.6,265.0 L502.2,265.0 L519.7,265.0 L537.2,264.9 L554.7,264.9 L572.3,264.9 L589.8,264.9 L607.3,264.9 L624.8,264.9 L642.4,264.9 L659.9,264.9 L677.4,264.8 L694.9,264.8 L712.5,264.8 L730.0,264.8" fill="none" stroke="#1baf7a" stroke-width="2" stroke-linejoin="round" stroke-linecap="round"/>
<circle cx="730.0" cy="264.8" r="6" fill="#fcfcfb"/>
<circle cx="730.0" cy="264.8" r="4" fill="#1baf7a"/>
<path d="M64.0,246.7 L81.5,246.7 L99.1,246.7 L116.6,246.7 L134.1,246.7 L151.6,246.6 L169.2,246.6 L186.7,246.2 L204.2,246.3 L221.7,246.3 L239.3,246.3 L256.8,246.3 L274.3,246.3 L291.8,246.3 L309.4,246.3 L326.9,246.3 L344.4,246.3 L361.9,246.3 L379.5,251.7 L397.0,251.7 L414.5,251.7 L432.1,251.7 L449.6,251.7 L467.1,251.7 L484.6,251.7 L502.2,251.7 L519.7,251.7 L537.2,251.6 L554.7,251.6 L572.3,251.6 L589.8,251.6 L607.3,251.6 L624.8,251.6 L642.4,251.6 L659.9,251.6 L677.4,251.5 L694.9,251.5 L712.5,251.5 L730.0,251.5" fill="none" stroke="#eda100" stroke-width="2" stroke-linejoin="round" stroke-linecap="round"/>
<circle cx="730.0" cy="251.5" r="6" fill="#fcfcfb"/>
<circle cx="730.0" cy="251.5" r="4" fill="#eda100"/>
<path d="M99.1,97.2 L116.6,97.2 L134.1,97.2 L151.6,138.2 L169.2,138.2 L186.7,137.8 L204.2,137.8 L221.7,137.8 L239.3,137.9 L256.8,137.8 L274.3,137.9 L291.8,137.8 L309.4,137.8 L326.9,137.8 L344.4,137.8 L361.9,137.8 L379.5,142.4 L397.0,142.4 L414.5,142.4 L432.1,142.4 L449.6,142.4 L467.1,142.4 L484.6,142.4 L502.2,142.4 L519.7,142.4 L537.2,142.4 L554.7,142.4 L572.3,142.4 L589.8,142.4 L607.3,142.4 L624.8,142.3 L642.4,142.4 L659.9,142.3 L677.4,142.3 L694.9,142.3 L712.5,142.3 L730.0,142.3" fill="none" stroke="#008300" stroke-width="2" stroke-linejoin="round" stroke-linecap="round"/>
<circle cx="730.0" cy="142.3" r="6" fill="#fcfcfb"/>
<circle cx="730.0" cy="142.3" r="4" fill="#008300"/>
<path d="M64.0,195.3 L81.5,195.3 L99.1,195.4 L116.6,195.4 L134.1,195.4 L151.6,204.2 L169.2,204.1 L186.7,203.8 L204.2,203.8 L221.7,203.8 L239.3,203.9 L256.8,203.8 L274.3,203.8 L291.8,203.8 L309.4,203.8 L326.9,203.8 L344.4,203.8 L361.9,203.8 L379.5,208.4 L397.0,208.4 L414.5,208.4 L432.1,208.4 L449.6,208.4 L467.1,208.4 L484.6,208.4 L502.2,208.4 L519.7,208.5 L537.2,208.3 L554.7,208.3 L572.3,208.3 L589.8,208.3 L607.3,208.3 L624.8,208.3 L642.4,208.4 L659.9,208.4 L677.4,208.2 L694.9,208.2 L712.5,208.2 L730.0,208.2" fill="none" stroke="#4a3aa7" stroke-width="2" stroke-linejoin="round" stroke-linecap="round"/>
<circle cx="730.0" cy="208.2" r="6" fill="#fcfcfb"/>
<circle cx="730.0" cy="208.2" r="4" fill="#4a3aa7"/>
<path d="M64.0,262.8 L81.5,262.8 L99.1,262.8 L116.6,262.8 L134.1,263.0 L151.6,263.2 L169.2,263.0 L186.7,262.4 L204.2,262.5 L221.7,262.4 L239.3,262.5 L256.8,262.5 L274.3,262.5 L291.8,262.5 L309.4,262.5 L326.9,262.5 L344.4,262.5 L361.9,262.5 L379.5,261.7 L397.0,261.7 L414.5,261.6 L432.1,261.4 L449.6,261.4 L467.1,261.4 L484.6,261.4 L502.2,261.4 L519.7,261.4 L537.2,261.3 L554.7,261.3 L572.3,261.3 L589.8,261.3 L607.3,261.3 L624.8,261.2 L642.4,261.3 L659.9,261.3 L677.4,261.0 L694.9,261.0 L712.5,261.1 L730.0,261.1" fill="none" stroke="#e34948" stroke-width="2" stroke-linejoin="round" stroke-linecap="round"/>
<circle cx="730.0" cy="261.1" r="6" fill="#fcfcfb"/>
<circle cx="730.0" cy="261.1" r="4" fill="#e34948"/>
<circle cx="745.0" cy="52.5" r="3.5" fill="#2a78d6"/>
<text x="753.0" y="56.0" font-family='system-ui, -apple-system, "Segoe UI", sans-serif' font-size="11" fill="#0b0b0b">granulator</text>
<text x="753.0" y="68.0" font-family='system-ui, -apple-system, "Segoe UI", sans-serif' font-size="10" style="font-variant-numeric: tabular-nums" fill="#52514e">28.5M</text>
<circle cx="745.0" cy="138.8" r="3.5" fill="#008300"/>
<text x="753.0" y="142.3" font-family='system-ui, -apple-system, "Segoe UI", sans-serif' font-size="11" fill="#0b0b0b">resonator</text>
<text x="753.0" y="154.3" font-family='system-ui, -apple-system, "Segoe UI", sans-serif' font-size="10" style="font-variant-numeric: tabular-nums" fill="#52514e">18.6M</text>
<circle cx="745.0" cy="204.7" r="3.5" fill="#4a3aa7"/>
<text x="753.0" y="208.2" font-family='system-ui, -apple-system, "Segoe UI", sans-serif' font-size="11" fill="#0b0b0b">reverb</text>
<text x="753.0" y="220.2" font-family='system-ui, -apple-system, "Segoe UI", sans-serif' font-size="10" style="font-variant-numeric: tabular-nums" fill="#52514e">11.1M</text>
<circle cx="745.0" cy="248.0" r="3.5" fill="#eda100"/>
<text x="753.0" y="251.5" font-family='system-ui, -apple-system, "Segoe UI", sans-serif' font-size="11" fill="#0b0b0b">pan</text>
<text x="753.0" y="263.5" font-family='system-ui, -apple-system, "Segoe UI", sans-serif' font-size="10" style="font-variant-numeric: tabular-nums" fill="#52514e">6.20M</text>
<line x1="736.0" y1="261.1" x2="740.0" y2="279.5" stroke="#c3c2b7" stroke-width="1"/>
<circle cx="745.0" cy="276.0" r="3.5" fill="#e34948"/>
<text x="753.0" y="279.5" font-family='system-ui, -apple-system, "Segoe UI", sans-serif' font-size="11" fill="#0b0b0b">sequencer</text>
<text x="753.0" y="291.5" font-family='system-ui, -apple-system, "Segoe UI", sans-serif' font-size="10" style="font-variant-numeric: tabular-nums" fill="#52514e">5.11M</text>
<line x1="736.0" y1="264.8" x2="740.0" y2="307.5" stroke="#c3c2b7" stroke-width="1"/>
<circle cx="745.0" cy="304.0" r="3.5" fill="#1baf7a"/>
<text x="753.0" y="307.5" font-family='system-ui, -apple-system, "Segoe UI", sans-serif' font-size="11" fill="#0b0b0b">map_f32_signal</text>
<text x="753.0" y="319.5" font-family='system-ui, -apple-system, "Segoe UI", sans-serif' font-size="10" style="font-variant-numeric: tabular-nums" fill="#52514e">4.69M</text>
</svg>