<svg xmlns="http://www.w3.org/2000/svg" width="880" height="340" viewBox="0 0 880 340" role="img" aria-label="Heaviest operators (micro)">
<rect width="880" height="340" rx="6" fill="#1a1a19"/>
<text x="64" y="24" font-family='system-ui, -apple-system, "Segoe UI", sans-serif' font-size="14" font-weight="600" fill="#ffffff">Heaviest operators (micro)</text>
<text x="64" y="41" font-family='system-ui, -apple-system, "Segoe UI", sans-serif' font-size="11" fill="#c3c2b7">per-operator step_node cost over the same 1 s schedule - top 6 by latest Ir</text>
<line x1="64" y1="306.0" x2="730" y2="306.0" stroke="#2c2c2a" stroke-width="1"/>
<text x="56" y="309.5" text-anchor="end" font-family='system-ui, -apple-system, "Segoe UI", sans-serif' font-size="11" style="font-variant-numeric: tabular-nums" fill="#898781">0</text>
<line x1="64" y1="215.1" x2="730" y2="215.1" stroke="#2c2c2a" stroke-width="1"/>
<text x="56" y="218.6" text-anchor="end" font-family='system-ui, -apple-system, "Segoe UI", sans-serif' font-size="11" style="font-variant-numeric: tabular-nums" fill="#898781">10</text>
<line x1="64" y1="124.2" x2="730" y2="124.2" stroke="#2c2c2a" stroke-width="1"/>
<text x="56" y="127.7" text-anchor="end" font-family='system-ui, -apple-system, "Segoe UI", sans-serif' font-size="11" style="font-variant-numeric: tabular-nums" fill="#898781">20</text>
<text x="56" y="46" text-anchor="end" font-family='system-ui, -apple-system, "Segoe UI", sans-serif' font-size="10" fill="#898781">Ir (M)</text>
<line x1="64" y1="306" x2="730" y2="306" stroke="#383835" stroke-width="1"/>
<text x="64.0" y="322" text-anchor="middle" font-family='system-ui, -apple-system, "Segoe UI", sans-serif' font-size="11" style="font-variant-numeric: tabular-nums" fill="#898781">07-12</text>
<text x="153.7" y="322" text-anchor="middle" font-family='system-ui, -apple-system, "Segoe UI", sans-serif' font-size="11" style="font-variant-numeric: tabular-nums" fill="#898781">07-14</text>
<text x="268.9" y="322" text-anchor="middle" font-family='system-ui, -apple-system, "Segoe UI", sans-serif' font-size="11" style="font-variant-numeric: tabular-nums" fill="#898781">07-17</text>
<text x="422.6" y="322" text-anchor="middle" font-family='system-ui, -apple-system, "Segoe UI", sans-serif' font-size="11" style="font-variant-numeric: tabular-nums" fill="#898781">07-19</text>
<text x="653.2" y="322" text-anchor="middle" font-family='system-ui, -apple-system, "Segoe UI", sans-serif' font-size="11" style="font-variant-numeric: tabular-nums" fill="#898781">07-21</text>
<path d="M461.0,217.9 L473.8,217.9 L486.7,217.9 L499.5,217.9 L512.3,217.9 L525.1,217.9 L537.9,217.9 L550.7,217.9 L563.5,217.9 L576.3,217.9 L589.1,218.0 L601.9,218.0 L614.7,218.0 L627.5,218.0 L640.3,218.0 L653.2,218.0 L666.0,218.0 L678.8,218.0 L691.6,218.0 L704.4,218.0 L717.2,218.0 L730.0,218.0" fill="none" stroke="#3987e5" stroke-width="2" stroke-linejoin="round" stroke-linecap="round"/>
<circle cx="730.0" cy="218.0" r="6" fill="#1a1a19"/>
<circle cx="730.0" cy="218.0" r="4" fill="#3987e5"/>
<path d="M64.0,56.0 L76.8,56.0 L89.6,56.0 L102.4,56.0 L115.2,56.0 L128.0,56.0 L140.8,56.0 L153.7,56.0 L166.5,56.0 L179.3,56.0 L192.1,56.0 L204.9,56.0 L217.7,56.0 L230.5,56.0 L243.3,56.0 L256.1,56.0 L268.9,56.0 L281.7,56.0 L294.5,56.0 L307.3,56.0 L320.2,56.0 L333.0,56.0 L345.8,56.0 L358.6,56.0 L371.4,56.0 L384.2,56.0 L397.0,56.0 L409.8,56.0 L422.6,56.0 L435.4,56.0 L448.2,56.0 L461.0,56.0 L473.8,56.0 L486.7,56.0 L499.5,56.0 L512.3,56.0 L525.1,56.0 L537.9,56.0 L550.7,56.0 L563.5,56.0 L576.3,56.0 L589.1,56.1 L601.9,56.1 L614.7,56.1 L627.5,56.1 L640.3,56.1 L653.2,56.1 L666.0,56.1 L678.8,56.1 L691.6,56.1 L704.4,56.1 L717.2,56.0 L730.0,56.0" fill="none" stroke="#199e70" stroke-width="2" stroke-linejoin="round" stroke-linecap="round"/>
<circle cx="730.0" cy="56.0" r="6" fill="#1a1a19"/>
<circle cx="730.0" cy="56.0" r="4" fill="#199e70"/>
<path d="M64.0,250.6 L76.8,250.6 L89.6,250.6 L102.4,250.6 L115.2,250.6 L128.0,250.6 L140.8,250.6 L153.7,250.6 L166.5,250.6 L179.3,250.6 L192.1,250.6 L204.9,250.6 L217.7,250.6 L230.5,250.6 L243.3,250.6 L256.1,250.6 L268.9,250.6 L281.7,250.6 L294.5,250.6 L307.3,250.6 L320.2,250.6 L333.0,250.6 L345.8,250.6 L358.6,250.6 L371.4,250.6 L384.2,250.6 L397.0,250.6 L409.8,250.6 L422.6,250.6 L435.4,250.6 L448.2,250.6 L461.0,250.6 L473.8,250.6 L486.7,250.7 L499.5,250.7 L512.3,250.7 L525.1,250.7 L537.9,250.7 L550.7,250.7 L563.5,250.7 L576.3,250.7 L589.1,250.7 L601.9,250.7 L614.7,250.7 L627.5,250.7 L640.3,250.7 L653.2,250.7 L666.0,250.7 L678.8,250.7 L691.6,250.7 L704.4,250.7 L717.2,250.7 L730.0,250.7" fill="none" stroke="#c98500" stroke-width="2" stroke-linejoin="round" stroke-linecap="round"/>
<circle cx="730.0" cy="250.7" r="6" fill="#1a1a19"/>
<circle cx="730.0" cy="250.7" r="4" fill="#c98500"/>
<path d="M64.0,137.6 L76.8,137.6 L89.6,137.6 L102.4,137.6 L115.2,137.6 L128.0,137.6 L140.8,138.4 L153.7,138.4 L166.5,138.4 L179.3,138.4 L192.1,138.4 L204.9,138.4 L217.7,138.4 L230.5,138.4 L243.3,138.4 L256.1,138.4 L268.9,138.4 L281.7,138.4 L294.5,138.4 L307.3,138.4 L320.2,138.4 L333.0,138.4 L345.8,138.4 L358.6,138.4 L371.4,138.4 L384.2,138.4 L397.0,138.4 L409.8,138.4 L422.6,138.4 L435.4,138.4 L448.2,138.4 L461.0,138.4 L473.8,138.4 L486.7,138.4 L499.5,138.4 L512.3,138.4 L525.1,138.4 L537.9,138.4 L550.7,138.4 L563.5,138.4 L576.3,138.4 L589.1,138.5 L601.9,138.5 L614.7,138.5 L627.5,138.5 L640.3,138.5 L653.2,138.5 L666.0,138.5 L678.8,138.5 L691.6,138.5 L704.4,138.5 L717.2,138.4 L730.0,138.4" fill="none" stroke="#008300" stroke-width="2" stroke-linejoin="round" stroke-linecap="round"/>
<circle cx="730.0" cy="138.4" r="6" fill="#1a1a19"/>
<circle cx="730.0" cy="138.4" r="4" fill="#008300"/>
<path d="M64.0,205.9 L76.8,205.9 L89.6,205.9 L102.4,205.9 L115.2,205.9 L128.0,205.9 L140.8,205.9 L153.7,205.9 L166.5,205.9 L179.3,205.9 L192.1,205.9 L204.9,205.9 L217.7,205.9 L230.5,205.9 L243.3,205.9 L256.1,205.9 L268.9,205.9 L281.7,205.9 L294.5,205.9 L307.3,205.9 L320.2,205.9 L333.0,205.9 L345.8,205.9 L358.6,205.9 L371.4,205.9 L384.2,205.9 L397.0,205.9 L409.8,205.9 L422.6,205.9 L435.4,205.9 L448.2,205.9 L461.0,205.9 L473.8,205.9 L486.7,205.9 L499.5,205.9 L512.3,205.9 L525.1,205.9 L537.9,205.9 L550.7,205.9 L563.5,205.9 L576.3,205.9 L589.1,205.9 L601.9,205.9 L614.7,205.9 L627.5,205.9 L640.3,205.9 L653.2,205.9 L666.0,205.9 L678.8,205.9 L691.6,205.9 L704.4,205.9 L717.2,205.9 L730.0,205.9" fill="none" stroke="#9085e9" stroke-width="2" stroke-linejoin="round" stroke-linecap="round"/>
<circle cx="730.0" cy="205.9" r="6" fill="#1a1a19"/>
<circle cx="730.0" cy="205.9" r="4" fill="#9085e9"/>
<path d="M64.0,227.3 L76.8,227.3 L89.6,227.3 L102.4,227.3 L115.2,227.3 L128.0,227.3 L140.8,227.3 L153.7,227.3 L166.5,227.3 L179.3,227.3 L192.1,227.3 L204.9,227.3 L217.7,227.3 L230.5,227.3 L243.3,227.3 L256.1,227.3 L268.9,227.3 L281.7,227.3 L294.5,227.3 L307.3,227.3 L320.2,227.3 L333.0,227.3 L345.8,227.3 L358.6,227.3 L371.4,227.3 L384.2,227.3 L397.0,227.3 L409.8,227.3 L422.6,227.3 L435.4,227.3 L448.2,227.3 L461.0,227.3 L473.8,227.3 L486.7,227.3 L499.5,227.3 L512.3,227.3 L525.1,227.3 L537.9,227.3 L550.7,227.3 L563.5,227.3 L576.3,227.3 L589.1,227.3 L601.9,227.3 L614.7,227.3 L627.5,227.3 L640.3,227.3 L653.2,227.3 L666.0,227.3 L678.8,227.3 L691.6,227.3 L704.4,227.3 L717.2,227.3 L730.0,227.3" fill="none" stroke="#e66767" stroke-width="2" stroke-linejoin="round" stroke-linecap="round"/>
<circle cx="730.0" cy="227.3" r="6" fill="#1a1a19"/>
<circle cx="730.0" cy="227.3" r="4" fill="#e66767"/>
<circle cx="745.0" cy="52.5" r="3.5" fill="#199e70"/>
<text x="753.0" y="56.0" font-family='system-ui, -apple-system, "Segoe UI", sans-serif' font-size="11" fill="#ffffff">granulator</text>
<text x="753.0" y="68.0" font-family='system-ui, -apple-system, "Segoe UI", sans-serif' font-size="10" style="font-variant-numeric: tabular-nums" fill="#c3c2b7">27.5M</text>
<circle cx="745.0" cy="134.9" r="3.5" fill="#008300"/>
<text x="753.0" y="138.4" font-family='system-ui, -apple-system, "Segoe UI", sans-serif' font-size="11" fill="#ffffff">resonator</text>
<text x="753.0" y="150.4" font-family='system-ui, -apple-system, "Segoe UI", sans-serif' font-size="10" style="font-variant-numeric: tabular-nums" fill="#c3c2b7">18.4M</text>
<circle cx="745.0" cy="202.4" r="3.5" fill="#9085e9"/>
<text x="753.0" y="205.9" font-family='system-ui, -apple-system, "Segoe UI", sans-serif' font-size="11" fill="#ffffff">reverb</text>
<text x="753.0" y="217.9" font-family='system-ui, -apple-system, "Segoe UI", sans-serif' font-size="10" style="font-variant-numeric: tabular-nums" fill="#c3c2b7">11.0M</text>
<line x1="736.0" y1="218.0" x2="740.0" y2="233.9" stroke="#383835" stroke-width="1"/>
<circle cx="745.0" cy="230.4" r="3.5" fill="#3987e5"/>
<text x="753.0" y="233.9" font-family='system-ui, -apple-system, "Segoe UI", sans-serif' font-size="11" fill="#ffffff">compressor</text>
<text x="753.0" y="245.9" font-family='system-ui, -apple-system, "Segoe UI", sans-serif' font-size="10" style="font-variant-numeric: tabular-nums" fill="#c3c2b7">9.68M</text>
<line x1="736.0" y1="227.3" x2="740.0" y2="261.9" stroke="#383835" stroke-width="1"/>
<circle cx="745.0" cy="258.4" r="3.5" fill="#e66767"/>
<text x="753.0" y="261.9" font-family='system-ui, -apple-system, "Segoe UI", sans-serif' font-size="11" fill="#ffffff">saturator</text>
<text x="753.0" y="273.9" font-family='system-ui, -apple-system, "Segoe UI", sans-serif' font-size="10" style="font-variant-numeric: tabular-nums" fill="#c3c2b7">8.65M</text>
<line x1="736.0" y1="250.7" x2="740.0" y2="289.9" stroke="#383835" stroke-width="1"/>
<circle cx="745.0" cy="286.4" r="3.5" fill="#c98500"/>
<text x="753.0" y="289.9" font-family='system-ui, -apple-system, "Segoe UI", sans-serif' font-size="11" fill="#ffffff">pan</text>
<text x="753.0" y="301.9" font-family='system-ui, -apple-system, "Segoe UI", sans-serif' font-size="10" style="font-variant-numeric: tabular-nums" fill="#c3c2b7">6.08M</text>
</svg>