<svg xmlns="http://www.w3.org/2000/svg" width="880" height="340" viewBox="0 0 880 340" role="img" aria-label="Heaviest operators (micro)">
<rect width="880" height="340" rx="6" fill="#1a1a19"/>
<text x="64" y="24" font-family='system-ui, -apple-system, "Segoe UI", sans-serif' font-size="14" font-weight="600" fill="#ffffff">Heaviest operators (micro)</text>
<text x="64" y="41" font-family='system-ui, -apple-system, "Segoe UI", sans-serif' font-size="11" fill="#c3c2b7">per-operator step_node cost over the same 1 s schedule - top 6 by latest Ir</text>
<line x1="64" y1="306.0" x2="730" y2="306.0" stroke="#2c2c2a" stroke-width="1"/>
<text x="56" y="309.5" text-anchor="end" font-family='system-ui, -apple-system, "Segoe UI", sans-serif' font-size="11" style="font-variant-numeric: tabular-nums" fill="#898781">0</text>
<line x1="64" y1="218.1" x2="730" y2="218.1" stroke="#2c2c2a" stroke-width="1"/>
<text x="56" y="221.6" text-anchor="end" font-family='system-ui, -apple-system, "Segoe UI", sans-serif' font-size="11" style="font-variant-numeric: tabular-nums" fill="#898781">10</text>
<line x1="64" y1="130.2" x2="730" y2="130.2" stroke="#2c2c2a" stroke-width="1"/>
<text x="56" y="133.7" text-anchor="end" font-family='system-ui, -apple-system, "Segoe UI", sans-serif' font-size="11" style="font-variant-numeric: tabular-nums" fill="#898781">20</text>
<text x="56" y="46" text-anchor="end" font-family='system-ui, -apple-system, "Segoe UI", sans-serif' font-size="10" fill="#898781">Ir (M)</text>
<line x1="64" y1="306" x2="730" y2="306" stroke="#383835" stroke-width="1"/>
<text x="64.0" y="322" text-anchor="middle" font-family='system-ui, -apple-system, "Segoe UI", sans-serif' font-size="11" style="font-variant-numeric: tabular-nums" fill="#898781">06-28</text>
<text x="102.1" y="322" text-anchor="middle" font-family='system-ui, -apple-system, "Segoe UI", sans-serif' font-size="11" style="font-variant-numeric: tabular-nums" fill="#898781">06-29</text>
<text x="178.2" y="322" text-anchor="middle" font-family='system-ui, -apple-system, "Segoe UI", sans-serif' font-size="11" style="font-variant-numeric: tabular-nums" fill="#898781">06-30</text>
<text x="235.3" y="322" text-anchor="middle" font-family='system-ui, -apple-system, "Segoe UI", sans-serif' font-size="11" style="font-variant-numeric: tabular-nums" fill="#898781">07-01</text>
<text x="273.3" y="322" text-anchor="middle" font-family='system-ui, -apple-system, "Segoe UI", sans-serif' font-size="11" style="font-variant-numeric: tabular-nums" fill="#898781">07-02</text>
<text x="406.5" y="322" text-anchor="middle" font-family='system-ui, -apple-system, "Segoe UI", sans-serif' font-size="11" style="font-variant-numeric: tabular-nums" fill="#898781">07-03</text>
<text x="482.6" y="322" text-anchor="middle" font-family='system-ui, -apple-system, "Segoe UI", sans-serif' font-size="11" style="font-variant-numeric: tabular-nums" fill="#898781">07-04</text>
<text x="634.9" y="322" text-anchor="middle" font-family='system-ui, -apple-system, "Segoe UI", sans-serif' font-size="11" style="font-variant-numeric: tabular-nums" fill="#898781">07-05</text>
<path d="M197.2,56.1 L216.2,56.2 L235.3,56.1 L254.3,61.1 L273.3,56.2 L292.3,56.2 L311.4,56.2 L330.4,56.2 L349.4,56.2 L368.5,56.2 L387.5,56.2 L406.5,56.2 L425.5,56.2 L444.6,56.2 L463.6,56.2 L482.6,56.2 L501.7,56.2 L520.7,56.2 L539.7,56.2 L558.7,60.7 L577.8,56.1 L596.8,56.1 L615.8,56.1 L634.9,56.1 L653.9,56.1 L672.9,60.6 L691.9,60.6 L711.0,56.1 L730.0,56.0" fill="none" stroke="#3987e5" stroke-width="2" stroke-linejoin="round" stroke-linecap="round"/>
<circle cx="730.0" cy="56.0" r="6" fill="#1a1a19"/>
<circle cx="730.0" cy="56.0" r="4" fill="#3987e5"/>
<path d="M64.0,264.6 L83.0,264.6 L102.1,264.6 L121.1,264.6 L140.1,264.6 L159.1,266.2 L178.2,265.8 L197.2,265.4 L216.2,265.5 L235.3,265.4 L254.3,265.4 L273.3,265.5 L292.3,265.4 L311.4,265.5 L330.4,265.5 L349.4,265.5 L368.5,265.5 L387.5,265.5 L406.5,265.0 L425.5,265.0 L444.6,265.0 L463.6,265.0 L482.6,265.0 L501.7,265.0 L520.7,265.0 L539.7,265.0 L558.7,265.0 L577.8,264.9 L596.8,264.9 L615.8,264.9 L634.9,264.9 L653.9,264.9 L672.9,264.9 L691.9,264.9 L711.0,264.9 L730.0,264.8" fill="none" stroke="#199e70" stroke-width="2" stroke-linejoin="round" stroke-linecap="round"/>
<circle cx="730.0" cy="264.8" r="6" fill="#1a1a19"/>
<circle cx="730.0" cy="264.8" r="4" fill="#199e70"/>
<path d="M64.0,246.7 L83.0,246.7 L102.1,246.7 L121.1,246.7 L140.1,246.7 L159.1,246.6 L178.2,246.6 L197.2,246.2 L216.2,246.3 L235.3,246.2 L254.3,246.3 L273.3,246.3 L292.3,246.3 L311.4,246.3 L330.4,246.3 L349.4,246.3 L368.5,246.3 L387.5,246.3 L406.5,251.7 L425.5,251.7 L444.6,251.7 L463.6,251.7 L482.6,251.7 L501.7,251.7 L520.7,251.7 L539.7,251.7 L558.7,251.7 L577.8,251.6 L596.8,251.6 L615.8,251.6 L634.9,251.6 L653.9,251.6 L672.9,251.6 L691.9,251.6 L711.0,251.6 L730.0,251.5" fill="none" stroke="#c98500" stroke-width="2" stroke-linejoin="round" stroke-linecap="round"/>
<circle cx="730.0" cy="251.5" r="6" fill="#1a1a19"/>
<circle cx="730.0" cy="251.5" r="4" fill="#c98500"/>
<path d="M102.1,97.2 L121.1,97.2 L140.1,97.2 L159.1,138.1 L178.2,138.2 L197.2,137.8 L216.2,137.8 L235.3,137.8 L254.3,137.8 L273.3,137.8 L292.3,137.8 L311.4,137.8 L330.4,137.8 L349.4,137.8 L368.5,137.8 L387.5,137.8 L406.5,142.4 L425.5,142.4 L444.6,142.4 L463.6,142.4 L482.6,142.4 L501.7,142.4 L520.7,142.4 L539.7,142.4 L558.7,142.4 L577.8,142.4 L596.8,142.4 L615.8,142.4 L634.9,142.4 L653.9,142.4 L672.9,142.3 L691.9,142.4 L711.0,142.3 L730.0,142.2" fill="none" stroke="#008300" stroke-width="2" stroke-linejoin="round" stroke-linecap="round"/>
<circle cx="730.0" cy="142.2" r="6" fill="#1a1a19"/>
<circle cx="730.0" cy="142.2" r="4" fill="#008300"/>
<path d="M64.0,195.3 L83.0,195.3 L102.1,195.3 L121.1,195.3 L140.1,195.3 L159.1,204.2 L178.2,204.1 L197.2,203.8 L216.2,203.8 L235.3,203.8 L254.3,203.8 L273.3,203.8 L292.3,203.8 L311.4,203.8 L330.4,203.8 L349.4,203.8 L368.5,203.8 L387.5,203.8 L406.5,208.4 L425.5,208.4 L444.6,208.4 L463.6,208.4 L482.6,208.4 L501.7,208.4 L520.7,208.4 L539.7,208.4 L558.7,208.4 L577.8,208.3 L596.8,208.3 L615.8,208.3 L634.9,208.3 L653.9,208.3 L672.9,208.3 L691.9,208.4 L711.0,208.4 L730.0,208.2" fill="none" stroke="#9085e9" stroke-width="2" stroke-linejoin="round" stroke-linecap="round"/>
<circle cx="730.0" cy="208.2" r="6" fill="#1a1a19"/>
<circle cx="730.0" cy="208.2" r="4" fill="#9085e9"/>
<path d="M64.0,262.8 L83.0,262.8 L102.1,262.8 L121.1,262.8 L140.1,263.0 L159.1,263.1 L178.2,263.0 L197.2,262.4 L216.2,262.5 L235.3,262.4 L254.3,262.5 L273.3,262.5 L292.3,262.5 L311.4,262.5 L330.4,262.5 L349.4,262.5 L368.5,262.5 L387.5,262.5 L406.5,261.7 L425.5,261.7 L444.6,261.6 L463.6,261.4 L482.6,261.4 L501.7,261.4 L520.7,261.4 L539.7,261.4 L558.7,261.4 L577.8,261.3 L596.8,261.3 L615.8,261.3 L634.9,261.3 L653.9,261.3 L672.9,261.2 L691.9,261.3 L711.0,261.3 L730.0,261.0" fill="none" stroke="#e66767" stroke-width="2" stroke-linejoin="round" stroke-linecap="round"/>
<circle cx="730.0" cy="261.0" r="6" fill="#1a1a19"/>
<circle cx="730.0" cy="261.0" r="4" fill="#e66767"/>
<circle cx="745.0" cy="52.5" r="3.5" fill="#3987e5"/>
<text x="753.0" y="56.0" font-family='system-ui, -apple-system, "Segoe UI", sans-serif' font-size="11" fill="#ffffff">granulator</text>
<text x="753.0" y="68.0" font-family='system-ui, -apple-system, "Segoe UI", sans-serif' font-size="10" style="font-variant-numeric: tabular-nums" fill="#c3c2b7">28.4M</text>
<circle cx="745.0" cy="138.7" r="3.5" fill="#008300"/>
<text x="753.0" y="142.2" font-family='system-ui, -apple-system, "Segoe UI", sans-serif' font-size="11" fill="#ffffff">resonator</text>
<text x="753.0" y="154.2" font-family='system-ui, -apple-system, "Segoe UI", sans-serif' font-size="10" style="font-variant-numeric: tabular-nums" fill="#c3c2b7">18.6M</text>
<circle cx="745.0" cy="204.7" r="3.5" fill="#9085e9"/>
<text x="753.0" y="208.2" font-family='system-ui, -apple-system, "Segoe UI", sans-serif' font-size="11" fill="#ffffff">reverb</text>
<text x="753.0" y="220.2" font-family='system-ui, -apple-system, "Segoe UI", sans-serif' font-size="10" style="font-variant-numeric: tabular-nums" fill="#c3c2b7">11.1M</text>
<circle cx="745.0" cy="248.0" r="3.5" fill="#c98500"/>
<text x="753.0" y="251.5" font-family='system-ui, -apple-system, "Segoe UI", sans-serif' font-size="11" fill="#ffffff">pan</text>
<text x="753.0" y="263.5" font-family='system-ui, -apple-system, "Segoe UI", sans-serif' font-size="10" style="font-variant-numeric: tabular-nums" fill="#c3c2b7">6.20M</text>
<line x1="736.0" y1="261.0" x2="740.0" y2="279.5" stroke="#383835" stroke-width="1"/>
<circle cx="745.0" cy="276.0" r="3.5" fill="#e66767"/>
<text x="753.0" y="279.5" font-family='system-ui, -apple-system, "Segoe UI", sans-serif' font-size="11" fill="#ffffff">sequencer</text>
<text x="753.0" y="291.5" font-family='system-ui, -apple-system, "Segoe UI", sans-serif' font-size="10" style="font-variant-numeric: tabular-nums" fill="#c3c2b7">5.12M</text>
<line x1="736.0" y1="264.8" x2="740.0" y2="307.5" stroke="#383835" stroke-width="1"/>
<circle cx="745.0" cy="304.0" r="3.5" fill="#199e70"/>
<text x="753.0" y="307.5" font-family='system-ui, -apple-system, "Segoe UI", sans-serif' font-size="11" fill="#ffffff">map_f32_signal</text>
<text x="753.0" y="319.5" font-family='system-ui, -apple-system, "Segoe UI", sans-serif' font-size="10" style="font-variant-numeric: tabular-nums" fill="#c3c2b7">4.68M</text>
</svg>