<svg xmlns="http://www.w3.org/2000/svg" width="880" height="340" viewBox="0 0 880 340" role="img" aria-label="Heaviest operators (micro)">
<rect width="880" height="340" rx="6" fill="#fcfcfb"/>
<text x="64" y="24" font-family='system-ui, -apple-system, "Segoe UI", sans-serif' font-size="14" font-weight="600" fill="#0b0b0b">Heaviest operators (micro)</text>
<text x="64" y="41" font-family='system-ui, -apple-system, "Segoe UI", sans-serif' font-size="11" fill="#52514e">per-operator step_node cost over the same 1 s schedule - top 6 by latest Ir</text>
<line x1="64" y1="306.0" x2="730" y2="306.0" stroke="#e1e0d9" stroke-width="1"/>
<text x="56" y="309.5" text-anchor="end" font-family='system-ui, -apple-system, "Segoe UI", sans-serif' font-size="11" style="font-variant-numeric: tabular-nums" fill="#898781">0</text>
<line x1="64" y1="215.1" x2="730" y2="215.1" stroke="#e1e0d9" stroke-width="1"/>
<text x="56" y="218.6" text-anchor="end" font-family='system-ui, -apple-system, "Segoe UI", sans-serif' font-size="11" style="font-variant-numeric: tabular-nums" fill="#898781">10</text>
<line x1="64" y1="124.2" x2="730" y2="124.2" stroke="#e1e0d9" stroke-width="1"/>
<text x="56" y="127.7" text-anchor="end" font-family='system-ui, -apple-system, "Segoe UI", sans-serif' font-size="11" style="font-variant-numeric: tabular-nums" fill="#898781">20</text>
<text x="56" y="46" text-anchor="end" font-family='system-ui, -apple-system, "Segoe UI", sans-serif' font-size="10" fill="#898781">Ir (M)</text>
<line x1="64" y1="306" x2="730" y2="306" stroke="#c3c2b7" stroke-width="1"/>
<text x="64.0" y="322" text-anchor="middle" font-family='system-ui, -apple-system, "Segoe UI", sans-serif' font-size="11" style="font-variant-numeric: tabular-nums" fill="#898781">07-12</text>
<text x="163.9" y="322" text-anchor="middle" font-family='system-ui, -apple-system, "Segoe UI", sans-serif' font-size="11" style="font-variant-numeric: tabular-nums" fill="#898781">07-13</text>
<text x="180.6" y="322" text-anchor="middle" font-family='system-ui, -apple-system, "Segoe UI", sans-serif' font-size="11" style="font-variant-numeric: tabular-nums" fill="#898781">07-14</text>
<text x="197.2" y="322" text-anchor="middle" font-family='system-ui, -apple-system, "Segoe UI", sans-serif' font-size="11" style="font-variant-numeric: tabular-nums" fill="#898781">07-16</text>
<text x="330.4" y="322" text-anchor="middle" font-family='system-ui, -apple-system, "Segoe UI", sans-serif' font-size="11" style="font-variant-numeric: tabular-nums" fill="#898781">07-17</text>
<text x="430.3" y="322" text-anchor="middle" font-family='system-ui, -apple-system, "Segoe UI", sans-serif' font-size="11" style="font-variant-numeric: tabular-nums" fill="#898781">07-18</text>
<text x="530.2" y="322" text-anchor="middle" font-family='system-ui, -apple-system, "Segoe UI", sans-serif' font-size="11" style="font-variant-numeric: tabular-nums" fill="#898781">07-19</text>
<text x="580.1" y="322" text-anchor="middle" font-family='system-ui, -apple-system, "Segoe UI", sans-serif' font-size="11" style="font-variant-numeric: tabular-nums" fill="#898781">07-20</text>
<path d="M580.1,217.9 L596.8,217.9 L613.5,217.9 L630.1,217.9 L646.8,217.9 L663.4,217.9 L680.0,217.9 L696.7,217.9 L713.4,217.9 L730.0,217.9" fill="none" stroke="#2a78d6" stroke-width="2" stroke-linejoin="round" stroke-linecap="round"/>
<circle cx="730.0" cy="217.9" r="6" fill="#fcfcfb"/>
<circle cx="730.0" cy="217.9" r="4" fill="#2a78d6"/>
<path d="M64.0,56.0 L80.7,56.0 L97.3,56.0 L114.0,56.0 L130.6,56.0 L147.2,56.0 L163.9,56.0 L180.6,56.0 L197.2,56.0 L213.8,56.0 L230.5,56.0 L247.2,56.0 L263.8,56.0 L280.4,56.0 L297.1,56.0 L313.8,56.0 L330.4,56.0 L347.1,56.0 L363.7,56.0 L380.4,56.0 L397.0,56.0 L413.6,56.0 L430.3,56.0 L446.9,56.0 L463.6,56.0 L480.2,56.0 L496.9,56.0 L513.5,56.0 L530.2,56.0 L546.9,56.0 L563.5,56.0 L580.1,56.0 L596.8,56.0 L613.5,56.0 L630.1,56.0 L646.8,56.0 L663.4,56.0 L680.0,56.0 L696.7,56.0 L713.4,56.0 L730.0,56.0" fill="none" stroke="#1baf7a" stroke-width="2" stroke-linejoin="round" stroke-linecap="round"/>
<circle cx="730.0" cy="56.0" r="6" fill="#fcfcfb"/>
<circle cx="730.0" cy="56.0" r="4" fill="#1baf7a"/>
<path d="M64.0,250.6 L80.7,250.6 L97.3,250.6 L114.0,250.6 L130.6,250.6 L147.2,250.6 L163.9,250.6 L180.6,250.6 L197.2,250.6 L213.8,250.6 L230.5,250.6 L247.2,250.6 L263.8,250.6 L280.4,250.6 L297.1,250.6 L313.8,250.6 L330.4,250.6 L347.1,250.6 L363.7,250.6 L380.4,250.6 L397.0,250.6 L413.6,250.6 L430.3,250.6 L446.9,250.6 L463.6,250.6 L480.2,250.6 L496.9,250.6 L513.5,250.6 L530.2,250.6 L546.9,250.6 L563.5,250.6 L580.1,250.6 L596.8,250.6 L613.5,250.7 L630.1,250.7 L646.8,250.7 L663.4,250.7 L680.0,250.7 L696.7,250.7 L713.4,250.7 L730.0,250.7" fill="none" stroke="#eda100" stroke-width="2" stroke-linejoin="round" stroke-linecap="round"/>
<circle cx="730.0" cy="250.7" r="6" fill="#fcfcfb"/>
<circle cx="730.0" cy="250.7" r="4" fill="#eda100"/>
<path d="M64.0,137.6 L80.7,137.6 L97.3,137.6 L114.0,137.6 L130.6,137.6 L147.2,137.6 L163.9,138.4 L180.6,138.4 L197.2,138.4 L213.8,138.4 L230.5,138.4 L247.2,138.4 L263.8,138.4 L280.4,138.4 L297.1,138.4 L313.8,138.4 L330.4,138.4 L347.1,138.4 L363.7,138.4 L380.4,138.4 L397.0,138.4 L413.6,138.4 L430.3,138.4 L446.9,138.4 L463.6,138.4 L480.2,138.4 L496.9,138.4 L513.5,138.4 L530.2,138.4 L546.9,138.4 L563.5,138.4 L580.1,138.4 L596.8,138.4 L613.5,138.4 L630.1,138.4 L646.8,138.4 L663.4,138.4 L680.0,138.4 L696.7,138.4 L713.4,138.4 L730.0,138.4" fill="none" stroke="#008300" stroke-width="2" stroke-linejoin="round" stroke-linecap="round"/>
<circle cx="730.0" cy="138.4" r="6" fill="#fcfcfb"/>
<circle cx="730.0" cy="138.4" r="4" fill="#008300"/>
<path d="M64.0,205.9 L80.7,205.9 L97.3,205.9 L114.0,205.9 L130.6,205.9 L147.2,205.9 L163.9,205.9 L180.6,205.9 L197.2,205.9 L213.8,205.9 L230.5,205.9 L247.2,205.9 L263.8,205.9 L280.4,205.9 L297.1,205.9 L313.8,205.9 L330.4,205.9 L347.1,205.9 L363.7,205.9 L380.4,205.9 L397.0,205.9 L413.6,205.9 L430.3,205.9 L446.9,205.9 L463.6,205.9 L480.2,205.9 L496.9,205.9 L513.5,205.9 L530.2,205.9 L546.9,205.9 L563.5,205.9 L580.1,205.9 L596.8,205.9 L613.5,205.9 L630.1,205.9 L646.8,205.9 L663.4,205.9 L680.0,205.9 L696.7,205.9 L713.4,205.9 L730.0,205.9" fill="none" stroke="#4a3aa7" stroke-width="2" stroke-linejoin="round" stroke-linecap="round"/>
<circle cx="730.0" cy="205.9" r="6" fill="#fcfcfb"/>
<circle cx="730.0" cy="205.9" r="4" fill="#4a3aa7"/>
<path d="M64.0,227.3 L80.7,227.3 L97.3,227.3 L114.0,227.3 L130.6,227.3 L147.2,227.3 L163.9,227.3 L180.6,227.3 L197.2,227.3 L213.8,227.3 L230.5,227.3 L247.2,227.3 L263.8,227.3 L280.4,227.3 L297.1,227.3 L313.8,227.3 L330.4,227.3 L347.1,227.3 L363.7,227.3 L380.4,227.3 L397.0,227.3 L413.6,227.3 L430.3,227.3 L446.9,227.3 L463.6,227.3 L480.2,227.3 L496.9,227.3 L513.5,227.3 L530.2,227.3 L546.9,227.3 L563.5,227.3 L580.1,227.3 L596.8,227.3 L613.5,227.3 L630.1,227.3 L646.8,227.3 L663.4,227.3 L680.0,227.3 L696.7,227.3 L713.4,227.3 L730.0,227.3" fill="none" stroke="#e34948" stroke-width="2" stroke-linejoin="round" stroke-linecap="round"/>
<circle cx="730.0" cy="227.3" r="6" fill="#fcfcfb"/>
<circle cx="730.0" cy="227.3" r="4" fill="#e34948"/>
<circle cx="745.0" cy="52.5" r="3.5" fill="#1baf7a"/>
<text x="753.0" y="56.0" font-family='system-ui, -apple-system, "Segoe UI", sans-serif' font-size="11" fill="#0b0b0b">granulator</text>
<text x="753.0" y="68.0" font-family='system-ui, -apple-system, "Segoe UI", sans-serif' font-size="10" style="font-variant-numeric: tabular-nums" fill="#52514e">27.5M</text>
<circle cx="745.0" cy="134.9" r="3.5" fill="#008300"/>
<text x="753.0" y="138.4" font-family='system-ui, -apple-system, "Segoe UI", sans-serif' font-size="11" fill="#0b0b0b">resonator</text>
<text x="753.0" y="150.4" font-family='system-ui, -apple-system, "Segoe UI", sans-serif' font-size="10" style="font-variant-numeric: tabular-nums" fill="#52514e">18.4M</text>
<circle cx="745.0" cy="202.4" r="3.5" fill="#4a3aa7"/>
<text x="753.0" y="205.9" font-family='system-ui, -apple-system, "Segoe UI", sans-serif' font-size="11" fill="#0b0b0b">reverb</text>
<text x="753.0" y="217.9" font-family='system-ui, -apple-system, "Segoe UI", sans-serif' font-size="10" style="font-variant-numeric: tabular-nums" fill="#52514e">11.0M</text>
<line x1="736.0" y1="217.9" x2="740.0" y2="233.9" stroke="#c3c2b7" stroke-width="1"/>
<circle cx="745.0" cy="230.4" r="3.5" fill="#2a78d6"/>
<text x="753.0" y="233.9" font-family='system-ui, -apple-system, "Segoe UI", sans-serif' font-size="11" fill="#0b0b0b">compressor</text>
<text x="753.0" y="245.9" font-family='system-ui, -apple-system, "Segoe UI", sans-serif' font-size="10" style="font-variant-numeric: tabular-nums" fill="#52514e">9.69M</text>
<line x1="736.0" y1="227.3" x2="740.0" y2="261.9" stroke="#c3c2b7" stroke-width="1"/>
<circle cx="745.0" cy="258.4" r="3.5" fill="#e34948"/>
<text x="753.0" y="261.9" font-family='system-ui, -apple-system, "Segoe UI", sans-serif' font-size="11" fill="#0b0b0b">saturator</text>
<text x="753.0" y="273.9" font-family='system-ui, -apple-system, "Segoe UI", sans-serif' font-size="10" style="font-variant-numeric: tabular-nums" fill="#52514e">8.65M</text>
<line x1="736.0" y1="250.7" x2="740.0" y2="289.9" stroke="#c3c2b7" stroke-width="1"/>
<circle cx="745.0" cy="286.4" r="3.5" fill="#eda100"/>
<text x="753.0" y="289.9" font-family='system-ui, -apple-system, "Segoe UI", sans-serif' font-size="11" fill="#0b0b0b">pan</text>
<text x="753.0" y="301.9" font-family='system-ui, -apple-system, "Segoe UI", sans-serif' font-size="10" style="font-variant-numeric: tabular-nums" fill="#52514e">6.08M</text>
</svg>