<svg xmlns="http://www.w3.org/2000/svg" width="880" height="340" viewBox="0 0 880 340" role="img" aria-label="Heaviest operators (micro)">
<rect width="880" height="340" rx="6" fill="#1a1a19"/>
<text x="64" y="24" font-family='system-ui, -apple-system, "Segoe UI", sans-serif' font-size="14" font-weight="600" fill="#ffffff">Heaviest operators (micro)</text>
<text x="64" y="41" font-family='system-ui, -apple-system, "Segoe UI", sans-serif' font-size="11" fill="#c3c2b7">per-operator step_node cost over the same 1 s schedule - top 6 by latest Ir</text>
<line x1="64" y1="306.0" x2="730" y2="306.0" stroke="#2c2c2a" stroke-width="1"/>
<text x="56" y="309.5" text-anchor="end" font-family='system-ui, -apple-system, "Segoe UI", sans-serif' font-size="11" style="font-variant-numeric: tabular-nums" fill="#898781">0</text>
<line x1="64" y1="215.1" x2="730" y2="215.1" stroke="#2c2c2a" stroke-width="1"/>
<text x="56" y="218.6" text-anchor="end" font-family='system-ui, -apple-system, "Segoe UI", sans-serif' font-size="11" style="font-variant-numeric: tabular-nums" fill="#898781">10</text>
<line x1="64" y1="124.2" x2="730" y2="124.2" stroke="#2c2c2a" stroke-width="1"/>
<text x="56" y="127.7" text-anchor="end" font-family='system-ui, -apple-system, "Segoe UI", sans-serif' font-size="11" style="font-variant-numeric: tabular-nums" fill="#898781">20</text>
<text x="56" y="46" text-anchor="end" font-family='system-ui, -apple-system, "Segoe UI", sans-serif' font-size="10" fill="#898781">Ir (M)</text>
<line x1="64" y1="306" x2="730" y2="306" stroke="#383835" stroke-width="1"/>
<text x="64.0" y="322" text-anchor="middle" font-family='system-ui, -apple-system, "Segoe UI", sans-serif' font-size="11" style="font-variant-numeric: tabular-nums" fill="#898781">07-12</text>
<text x="197.2" y="322" text-anchor="middle" font-family='system-ui, -apple-system, "Segoe UI", sans-serif' font-size="11" style="font-variant-numeric: tabular-nums" fill="#898781">07-13</text>
<text x="219.4" y="322" text-anchor="middle" font-family='system-ui, -apple-system, "Segoe UI", sans-serif' font-size="11" style="font-variant-numeric: tabular-nums" fill="#898781">07-14</text>
<text x="241.6" y="322" text-anchor="middle" font-family='system-ui, -apple-system, "Segoe UI", sans-serif' font-size="11" style="font-variant-numeric: tabular-nums" fill="#898781">07-16</text>
<text x="419.2" y="322" text-anchor="middle" font-family='system-ui, -apple-system, "Segoe UI", sans-serif' font-size="11" style="font-variant-numeric: tabular-nums" fill="#898781">07-17</text>
<text x="552.4" y="322" text-anchor="middle" font-family='system-ui, -apple-system, "Segoe UI", sans-serif' font-size="11" style="font-variant-numeric: tabular-nums" fill="#898781">07-18</text>
<text x="685.6" y="322" text-anchor="middle" font-family='system-ui, -apple-system, "Segoe UI", sans-serif' font-size="11" style="font-variant-numeric: tabular-nums" fill="#898781">07-19</text>
<path d="M64.0,56.0 L86.2,56.0 L108.4,56.0 L130.6,56.0 L152.8,56.0 L175.0,56.0 L197.2,56.0 L219.4,56.0 L241.6,56.0 L263.8,56.0 L286.0,56.0 L308.2,56.0 L330.4,56.0 L352.6,56.0 L374.8,56.0 L397.0,56.0 L419.2,56.0 L441.4,56.0 L463.6,56.0 L485.8,56.0 L508.0,56.0 L530.2,56.0 L552.4,56.0 L574.6,56.0 L596.8,56.0 L619.0,56.0 L641.2,56.0 L663.4,56.0 L685.6,56.0 L707.8,56.0 L730.0,56.0" fill="none" stroke="#3987e5" stroke-width="2" stroke-linejoin="round" stroke-linecap="round"/>
<circle cx="730.0" cy="56.0" r="6" fill="#1a1a19"/>
<circle cx="730.0" cy="56.0" r="4" fill="#3987e5"/>
<path d="M64.0,250.6 L86.2,250.6 L108.4,250.6 L130.6,250.6 L152.8,250.6 L175.0,250.6 L197.2,250.6 L219.4,250.6 L241.6,250.6 L263.8,250.6 L286.0,250.6 L308.2,250.6 L330.4,250.6 L352.6,250.6 L374.8,250.6 L397.0,250.6 L419.2,250.6 L441.4,250.6 L463.6,250.6 L485.8,250.6 L508.0,250.6 L530.2,250.6 L552.4,250.6 L574.6,250.6 L596.8,250.6 L619.0,250.6 L641.2,250.6 L663.4,250.6 L685.6,250.6 L707.8,250.6 L730.0,250.6" fill="none" stroke="#199e70" stroke-width="2" stroke-linejoin="round" stroke-linecap="round"/>
<circle cx="730.0" cy="250.6" r="6" fill="#1a1a19"/>
<circle cx="730.0" cy="250.6" r="4" fill="#199e70"/>
<path d="M64.0,137.6 L86.2,137.6 L108.4,137.6 L130.6,137.6 L152.8,137.6 L175.0,137.6 L197.2,138.4 L219.4,138.4 L241.6,138.4 L263.8,138.4 L286.0,138.4 L308.2,138.4 L330.4,138.4 L352.6,138.4 L374.8,138.4 L397.0,138.4 L419.2,138.4 L441.4,138.4 L463.6,138.4 L485.8,138.4 L508.0,138.4 L530.2,138.4 L552.4,138.4 L574.6,138.4 L596.8,138.4 L619.0,138.4 L641.2,138.4 L663.4,138.4 L685.6,138.4 L707.8,138.4 L730.0,138.4" fill="none" stroke="#c98500" stroke-width="2" stroke-linejoin="round" stroke-linecap="round"/>
<circle cx="730.0" cy="138.4" r="6" fill="#1a1a19"/>
<circle cx="730.0" cy="138.4" r="4" fill="#c98500"/>
<path d="M64.0,205.9 L86.2,205.9 L108.4,205.9 L130.6,205.9 L152.8,205.9 L175.0,205.9 L197.2,205.9 L219.4,205.9 L241.6,205.9 L263.8,205.9 L286.0,205.9 L308.2,205.9 L330.4,205.9 L352.6,205.9 L374.8,205.9 L397.0,205.9 L419.2,205.9 L441.4,205.9 L463.6,205.9 L485.8,205.9 L508.0,205.9 L530.2,205.9 L552.4,205.9 L574.6,205.9 L596.8,205.9 L619.0,205.9 L641.2,205.9 L663.4,205.9 L685.6,205.9 L707.8,205.9 L730.0,205.9" fill="none" stroke="#008300" stroke-width="2" stroke-linejoin="round" stroke-linecap="round"/>
<circle cx="730.0" cy="205.9" r="6" fill="#1a1a19"/>
<circle cx="730.0" cy="205.9" r="4" fill="#008300"/>
<path d="M64.0,227.3 L86.2,227.3 L108.4,227.3 L130.6,227.3 L152.8,227.3 L175.0,227.3 L197.2,227.3 L219.4,227.3 L241.6,227.3 L263.8,227.3 L286.0,227.3 L308.2,227.3 L330.4,227.3 L352.6,227.3 L374.8,227.3 L397.0,227.3 L419.2,227.3 L441.4,227.3 L463.6,227.3 L485.8,227.3 L508.0,227.3 L530.2,227.3 L552.4,227.3 L574.6,227.3 L596.8,227.3 L619.0,227.3 L641.2,227.3 L663.4,227.3 L685.6,227.3 L707.8,227.3 L730.0,227.3" fill="none" stroke="#9085e9" stroke-width="2" stroke-linejoin="round" stroke-linecap="round"/>
<circle cx="730.0" cy="227.3" r="6" fill="#1a1a19"/>
<circle cx="730.0" cy="227.3" r="4" fill="#9085e9"/>
<path d="M64.0,261.6 L86.2,261.6 L108.4,261.6 L130.6,261.6 L152.8,261.6 L175.0,261.6 L197.2,261.6 L219.4,261.6 L241.6,261.6 L263.8,261.6 L286.0,261.6 L308.2,261.6 L330.4,261.6 L352.6,261.6 L374.8,261.6 L397.0,261.6 L419.2,261.6 L441.4,261.6 L463.6,261.6 L485.8,261.6 L508.0,261.6 L530.2,261.6 L552.4,261.6 L574.6,261.6 L596.8,261.6 L619.0,261.6 L641.2,261.6 L663.4,261.6 L685.6,261.6 L707.8,261.6 L730.0,261.6" fill="none" stroke="#e66767" stroke-width="2" stroke-linejoin="round" stroke-linecap="round"/>
<circle cx="730.0" cy="261.6" r="6" fill="#1a1a19"/>
<circle cx="730.0" cy="261.6" r="4" fill="#e66767"/>
<circle cx="745.0" cy="52.5" r="3.5" fill="#3987e5"/>
<text x="753.0" y="56.0" font-family='system-ui, -apple-system, "Segoe UI", sans-serif' font-size="11" fill="#ffffff">granulator</text>
<text x="753.0" y="68.0" font-family='system-ui, -apple-system, "Segoe UI", sans-serif' font-size="10" style="font-variant-numeric: tabular-nums" fill="#c3c2b7">27.5M</text>
<circle cx="745.0" cy="134.9" r="3.5" fill="#c98500"/>
<text x="753.0" y="138.4" font-family='system-ui, -apple-system, "Segoe UI", sans-serif' font-size="11" fill="#ffffff">resonator</text>
<text x="753.0" y="150.4" font-family='system-ui, -apple-system, "Segoe UI", sans-serif' font-size="10" style="font-variant-numeric: tabular-nums" fill="#c3c2b7">18.4M</text>
<circle cx="745.0" cy="202.4" r="3.5" fill="#008300"/>
<text x="753.0" y="205.9" font-family='system-ui, -apple-system, "Segoe UI", sans-serif' font-size="11" fill="#ffffff">reverb</text>
<text x="753.0" y="217.9" font-family='system-ui, -apple-system, "Segoe UI", sans-serif' font-size="10" style="font-variant-numeric: tabular-nums" fill="#c3c2b7">11.0M</text>
<line x1="736.0" y1="227.3" x2="740.0" y2="233.9" stroke="#383835" stroke-width="1"/>
<circle cx="745.0" cy="230.4" r="3.5" fill="#9085e9"/>
<text x="753.0" y="233.9" font-family='system-ui, -apple-system, "Segoe UI", sans-serif' font-size="11" fill="#ffffff">saturator</text>
<text x="753.0" y="245.9" font-family='system-ui, -apple-system, "Segoe UI", sans-serif' font-size="10" style="font-variant-numeric: tabular-nums" fill="#c3c2b7">8.65M</text>
<line x1="736.0" y1="250.6" x2="740.0" y2="261.9" stroke="#383835" stroke-width="1"/>
<circle cx="745.0" cy="258.4" r="3.5" fill="#199e70"/>
<text x="753.0" y="261.9" font-family='system-ui, -apple-system, "Segoe UI", sans-serif' font-size="11" fill="#ffffff">pan</text>
<text x="753.0" y="273.9" font-family='system-ui, -apple-system, "Segoe UI", sans-serif' font-size="10" style="font-variant-numeric: tabular-nums" fill="#c3c2b7">6.09M</text>
<line x1="736.0" y1="261.6" x2="740.0" y2="289.9" stroke="#383835" stroke-width="1"/>
<circle cx="745.0" cy="286.4" r="3.5" fill="#e66767"/>
<text x="753.0" y="289.9" font-family='system-ui, -apple-system, "Segoe UI", sans-serif' font-size="11" fill="#ffffff">sequencer</text>
<text x="753.0" y="301.9" font-family='system-ui, -apple-system, "Segoe UI", sans-serif' font-size="10" style="font-variant-numeric: tabular-nums" fill="#c3c2b7">4.89M</text>
</svg>