<svg xmlns="http://www.w3.org/2000/svg" width="880" height="340" viewBox="0 0 880 340" role="img" aria-label="Heaviest operators (micro)">
<rect width="880" height="340" rx="6" fill="#1a1a19"/>
<text x="64" y="24" font-family='system-ui, -apple-system, "Segoe UI", sans-serif' font-size="14" font-weight="600" fill="#ffffff">Heaviest operators (micro)</text>
<text x="64" y="41" font-family='system-ui, -apple-system, "Segoe UI", sans-serif' font-size="11" fill="#c3c2b7">per-operator step_node cost over the same 1 s schedule - top 6 by latest Ir</text>
<line x1="64" y1="306.0" x2="730" y2="306.0" stroke="#2c2c2a" stroke-width="1"/>
<text x="56" y="309.5" text-anchor="end" font-family='system-ui, -apple-system, "Segoe UI", sans-serif' font-size="11" style="font-variant-numeric: tabular-nums" fill="#898781">0</text>
<line x1="64" y1="215.5" x2="730" y2="215.5" stroke="#2c2c2a" stroke-width="1"/>
<text x="56" y="219.0" text-anchor="end" font-family='system-ui, -apple-system, "Segoe UI", sans-serif' font-size="11" style="font-variant-numeric: tabular-nums" fill="#898781">10</text>
<line x1="64" y1="125.0" x2="730" y2="125.0" stroke="#2c2c2a" stroke-width="1"/>
<text x="56" y="128.5" text-anchor="end" font-family='system-ui, -apple-system, "Segoe UI", sans-serif' font-size="11" style="font-variant-numeric: tabular-nums" fill="#898781">20</text>
<text x="56" y="46" text-anchor="end" font-family='system-ui, -apple-system, "Segoe UI", sans-serif' font-size="10" fill="#898781">Ir (M)</text>
<line x1="64" y1="306" x2="730" y2="306" stroke="#383835" stroke-width="1"/>
<text x="64.0" y="322" text-anchor="middle" font-family='system-ui, -apple-system, "Segoe UI", sans-serif' font-size="11" style="font-variant-numeric: tabular-nums" fill="#898781">07-12</text>
<text x="136.8" y="322" text-anchor="middle" font-family='system-ui, -apple-system, "Segoe UI", sans-serif' font-size="11" style="font-variant-numeric: tabular-nums" fill="#898781">07-14</text>
<text x="230.5" y="322" text-anchor="middle" font-family='system-ui, -apple-system, "Segoe UI", sans-serif' font-size="11" style="font-variant-numeric: tabular-nums" fill="#898781">07-17</text>
<text x="355.4" y="322" text-anchor="middle" font-family='system-ui, -apple-system, "Segoe UI", sans-serif' font-size="11" style="font-variant-numeric: tabular-nums" fill="#898781">07-19</text>
<text x="542.7" y="322" text-anchor="middle" font-family='system-ui, -apple-system, "Segoe UI", sans-serif' font-size="11" style="font-variant-numeric: tabular-nums" fill="#898781">07-21</text>
<path d="M386.6,218.3 L397.0,218.3 L407.4,218.3 L417.8,218.3 L428.2,218.3 L438.6,218.3 L449.0,218.3 L459.4,218.3 L469.8,218.3 L480.2,218.3 L490.7,218.4 L501.1,218.4 L511.5,218.4 L521.9,218.4 L532.3,218.4 L542.7,218.4 L553.1,218.4 L563.5,218.4 L573.9,218.4 L584.3,218.4 L594.7,218.4 L605.1,218.4 L615.5,218.4 L625.9,218.4 L636.3,218.5 L646.8,218.5 L657.2,218.5 L667.6,218.5 L678.0,218.5 L688.4,218.5 L698.8,218.5 L709.2,218.5 L719.6,218.5 L730.0,218.5" fill="none" stroke="#3987e5" stroke-width="2" stroke-linejoin="round" stroke-linecap="round"/>
<circle cx="730.0" cy="218.5" r="6" fill="#1a1a19"/>
<circle cx="730.0" cy="218.5" r="4" fill="#3987e5"/>
<path d="M64.0,57.2 L74.4,57.2 L84.8,57.2 L95.2,57.2 L105.6,57.2 L116.0,57.2 L126.4,57.2 L136.8,57.2 L147.2,57.2 L157.7,57.2 L168.1,57.2 L178.5,57.2 L188.9,57.2 L199.3,57.2 L209.7,57.2 L220.1,57.2 L230.5,57.2 L240.9,57.2 L251.3,57.2 L261.7,57.2 L272.1,57.2 L282.5,57.2 L292.9,57.2 L303.3,57.2 L313.8,57.2 L324.2,57.2 L334.6,57.2 L345.0,57.2 L355.4,57.2 L365.8,57.2 L376.2,57.2 L386.6,57.2 L397.0,57.2 L407.4,57.2 L417.8,57.2 L428.2,57.2 L438.6,57.2 L449.0,57.2 L459.4,57.2 L469.8,57.2 L480.2,57.2 L490.7,57.2 L501.1,57.2 L511.5,57.2 L521.9,57.2 L532.3,57.2 L542.7,57.2 L553.1,57.2 L563.5,57.2 L573.9,57.2 L584.3,57.2 L594.7,57.2 L605.1,57.2 L615.5,57.2 L625.9,57.2 L636.3,57.2 L646.8,56.0 L657.2,56.0 L667.6,56.0 L678.0,56.0 L688.4,56.0 L698.8,56.0 L709.2,56.0 L719.6,56.0 L730.0,56.0" fill="none" stroke="#199e70" stroke-width="2" stroke-linejoin="round" stroke-linecap="round"/>
<circle cx="730.0" cy="56.0" r="6" fill="#1a1a19"/>
<circle cx="730.0" cy="56.0" r="4" fill="#199e70"/>
<path d="M64.0,250.9 L74.4,250.9 L84.8,250.9 L95.2,250.9 L105.6,250.9 L116.0,250.9 L126.4,250.9 L136.8,250.9 L147.2,250.9 L157.7,250.9 L168.1,250.9 L178.5,250.9 L188.9,250.9 L199.3,250.9 L209.7,250.9 L220.1,250.9 L230.5,250.9 L240.9,250.9 L251.3,250.9 L261.7,250.9 L272.1,250.9 L282.5,250.9 L292.9,250.9 L303.3,250.9 L313.8,250.9 L324.2,250.9 L334.6,250.9 L345.0,250.9 L355.4,250.9 L365.8,250.9 L376.2,250.9 L386.6,250.9 L397.0,250.9 L407.4,250.9 L417.8,250.9 L428.2,250.9 L438.6,250.9 L449.0,250.9 L459.4,250.9 L469.8,250.9 L480.2,250.9 L490.7,250.9 L501.1,250.9 L511.5,250.9 L521.9,250.9 L532.3,250.9 L542.7,250.9 L553.1,250.9 L563.5,250.9 L573.9,250.9 L584.3,250.9 L594.7,250.9 L605.1,250.9 L615.5,250.9 L625.9,250.9 L636.3,250.9 L646.8,251.0 L657.2,251.0 L667.6,251.0 L678.0,251.0 L688.4,251.0 L698.8,251.0 L709.2,251.0 L719.6,251.0 L730.0,251.0" fill="none" stroke="#c98500" stroke-width="2" stroke-linejoin="round" stroke-linecap="round"/>
<circle cx="730.0" cy="251.0" r="6" fill="#1a1a19"/>
<circle cx="730.0" cy="251.0" r="4" fill="#c98500"/>
<path d="M64.0,138.4 L74.4,138.4 L84.8,138.4 L95.2,138.4 L105.6,138.4 L116.0,138.4 L126.4,139.2 L136.8,139.2 L147.2,139.2 L157.7,139.2 L168.1,139.2 L178.5,139.2 L188.9,139.2 L199.3,139.2 L209.7,139.2 L220.1,139.2 L230.5,139.2 L240.9,139.2 L251.3,139.2 L261.7,139.2 L272.1,139.2 L282.5,139.2 L292.9,139.2 L303.3,139.2 L313.8,139.2 L324.2,139.2 L334.6,139.2 L345.0,139.2 L355.4,139.2 L365.8,139.2 L376.2,139.2 L386.6,139.2 L397.0,139.2 L407.4,139.2 L417.8,139.2 L428.2,139.2 L438.6,139.2 L449.0,139.2 L459.4,139.2 L469.8,139.2 L480.2,139.2 L490.7,139.3 L501.1,139.3 L511.5,139.3 L521.9,139.3 L532.3,139.3 L542.7,139.3 L553.1,139.3 L563.5,139.3 L573.9,139.3 L584.3,139.3 L594.7,139.2 L605.1,139.2 L615.5,139.2 L625.9,139.2 L636.3,139.2 L646.8,139.2 L657.2,139.2 L667.6,139.2 L678.0,139.2 L688.4,139.2 L698.8,139.2 L709.2,139.2 L719.6,139.2 L730.0,139.2" fill="none" stroke="#008300" stroke-width="2" stroke-linejoin="round" stroke-linecap="round"/>
<circle cx="730.0" cy="139.2" r="6" fill="#1a1a19"/>
<circle cx="730.0" cy="139.2" r="4" fill="#008300"/>
<path d="M64.0,206.3 L74.4,206.3 L84.8,206.3 L95.2,206.3 L105.6,206.3 L116.0,206.3 L126.4,206.3 L136.8,206.3 L147.2,206.3 L157.7,206.3 L168.1,206.3 L178.5,206.3 L188.9,206.3 L199.3,206.3 L209.7,206.3 L220.1,206.3 L230.5,206.3 L240.9,206.3 L251.3,206.3 L261.7,206.3 L272.1,206.3 L282.5,206.3 L292.9,206.3 L303.3,206.3 L313.8,206.3 L324.2,206.3 L334.6,206.3 L345.0,206.3 L355.4,206.3 L365.8,206.3 L376.2,206.4 L386.6,206.4 L397.0,206.4 L407.4,206.4 L417.8,206.4 L428.2,206.4 L438.6,206.4 L449.0,206.4 L459.4,206.4 L469.8,206.4 L480.2,206.4 L490.7,206.3 L501.1,206.3 L511.5,206.3 L521.9,206.3 L532.3,206.3 L542.7,206.3 L553.1,206.3 L563.5,206.3 L573.9,206.3 L584.3,206.3 L594.7,206.4 L605.1,206.4 L615.5,206.4 L625.9,206.4 L636.3,206.4 L646.8,206.4 L657.2,206.4 L667.6,206.4 L678.0,206.4 L688.4,206.4 L698.8,206.4 L709.2,206.4 L719.6,206.4 L730.0,206.4" fill="none" stroke="#9085e9" stroke-width="2" stroke-linejoin="round" stroke-linecap="round"/>
<circle cx="730.0" cy="206.4" r="6" fill="#1a1a19"/>
<circle cx="730.0" cy="206.4" r="4" fill="#9085e9"/>
<path d="M64.0,227.7 L74.4,227.7 L84.8,227.7 L95.2,227.7 L105.6,227.7 L116.0,227.7 L126.4,227.7 L136.8,227.7 L147.2,227.7 L157.7,227.7 L168.1,227.7 L178.5,227.7 L188.9,227.7 L199.3,227.7 L209.7,227.7 L220.1,227.7 L230.5,227.7 L240.9,227.7 L251.3,227.7 L261.7,227.7 L272.1,227.7 L282.5,227.7 L292.9,227.7 L303.3,227.7 L313.8,227.7 L324.2,227.7 L334.6,227.7 L345.0,227.7 L355.4,227.7 L365.8,227.7 L376.2,227.7 L386.6,227.7 L397.0,227.7 L407.4,227.7 L417.8,227.7 L428.2,227.7 L438.6,227.7 L449.0,227.7 L459.4,227.7 L469.8,227.7 L480.2,227.7 L490.7,227.7 L501.1,227.7 L511.5,227.7 L521.9,227.7 L532.3,227.7 L542.7,227.7 L553.1,227.7 L563.5,227.7 L573.9,227.7 L584.3,227.7 L594.7,227.7 L605.1,227.7 L615.5,227.7 L625.9,227.7 L636.3,227.7 L646.8,227.7 L657.2,227.7 L667.6,227.7 L678.0,227.7 L688.4,227.7 L698.8,227.7 L709.2,227.7 L719.6,227.7 L730.0,227.7" fill="none" stroke="#e66767" stroke-width="2" stroke-linejoin="round" stroke-linecap="round"/>
<circle cx="730.0" cy="227.7" r="6" fill="#1a1a19"/>
<circle cx="730.0" cy="227.7" r="4" fill="#e66767"/>
<circle cx="745.0" cy="52.5" r="3.5" fill="#199e70"/>
<text x="753.0" y="56.0" font-family='system-ui, -apple-system, "Segoe UI", sans-serif' font-size="11" fill="#ffffff">granulator</text>
<text x="753.0" y="68.0" font-family='system-ui, -apple-system, "Segoe UI", sans-serif' font-size="10" style="font-variant-numeric: tabular-nums" fill="#c3c2b7">27.6M</text>
<circle cx="745.0" cy="135.7" r="3.5" fill="#008300"/>
<text x="753.0" y="139.2" font-family='system-ui, -apple-system, "Segoe UI", sans-serif' font-size="11" fill="#ffffff">resonator</text>
<text x="753.0" y="151.2" font-family='system-ui, -apple-system, "Segoe UI", sans-serif' font-size="10" style="font-variant-numeric: tabular-nums" fill="#c3c2b7">18.4M</text>
<circle cx="745.0" cy="202.9" r="3.5" fill="#9085e9"/>
<text x="753.0" y="206.4" font-family='system-ui, -apple-system, "Segoe UI", sans-serif' font-size="11" fill="#ffffff">reverb</text>
<text x="753.0" y="218.4" font-family='system-ui, -apple-system, "Segoe UI", sans-serif' font-size="10" style="font-variant-numeric: tabular-nums" fill="#c3c2b7">11.0M</text>
<line x1="736.0" y1="218.5" x2="740.0" y2="234.4" stroke="#383835" stroke-width="1"/>
<circle cx="745.0" cy="230.9" r="3.5" fill="#3987e5"/>
<text x="753.0" y="234.4" font-family='system-ui, -apple-system, "Segoe UI", sans-serif' font-size="11" fill="#ffffff">compressor</text>
<text x="753.0" y="246.4" font-family='system-ui, -apple-system, "Segoe UI", sans-serif' font-size="10" style="font-variant-numeric: tabular-nums" fill="#c3c2b7">9.67M</text>
<line x1="736.0" y1="227.7" x2="740.0" y2="262.4" stroke="#383835" stroke-width="1"/>
<circle cx="745.0" cy="258.9" r="3.5" fill="#e66767"/>
<text x="753.0" y="262.4" font-family='system-ui, -apple-system, "Segoe UI", sans-serif' font-size="11" fill="#ffffff">saturator</text>
<text x="753.0" y="274.4" font-family='system-ui, -apple-system, "Segoe UI", sans-serif' font-size="10" style="font-variant-numeric: tabular-nums" fill="#c3c2b7">8.65M</text>
<line x1="736.0" y1="251.0" x2="740.0" y2="290.4" stroke="#383835" stroke-width="1"/>
<circle cx="745.0" cy="286.9" r="3.5" fill="#c98500"/>
<text x="753.0" y="290.4" font-family='system-ui, -apple-system, "Segoe UI", sans-serif' font-size="11" fill="#ffffff">pan</text>
<text x="753.0" y="302.4" font-family='system-ui, -apple-system, "Segoe UI", sans-serif' font-size="10" style="font-variant-numeric: tabular-nums" fill="#c3c2b7">6.08M</text>
</svg>