<svg xmlns="http://www.w3.org/2000/svg" width="880" height="340" viewBox="0 0 880 340" role="img" aria-label="Heaviest operators (micro)">
<rect width="880" height="340" rx="6" fill="#fcfcfb"/>
<text x="64" y="24" font-family='system-ui, -apple-system, "Segoe UI", sans-serif' font-size="14" font-weight="600" fill="#0b0b0b">Heaviest operators (micro)</text>
<text x="64" y="41" font-family='system-ui, -apple-system, "Segoe UI", sans-serif' font-size="11" fill="#52514e">per-operator step_node cost over the same 1 s schedule - top 6 by latest Ir</text>
<line x1="64" y1="306.0" x2="730" y2="306.0" stroke="#e1e0d9" stroke-width="1"/>
<text x="56" y="309.5" text-anchor="end" font-family='system-ui, -apple-system, "Segoe UI", sans-serif' font-size="11" style="font-variant-numeric: tabular-nums" fill="#898781">0</text>
<line x1="64" y1="218.1" x2="730" y2="218.1" stroke="#e1e0d9" stroke-width="1"/>
<text x="56" y="221.6" text-anchor="end" font-family='system-ui, -apple-system, "Segoe UI", sans-serif' font-size="11" style="font-variant-numeric: tabular-nums" fill="#898781">10</text>
<line x1="64" y1="130.3" x2="730" y2="130.3" stroke="#e1e0d9" stroke-width="1"/>
<text x="56" y="133.8" text-anchor="end" font-family='system-ui, -apple-system, "Segoe UI", sans-serif' font-size="11" style="font-variant-numeric: tabular-nums" fill="#898781">20</text>
<text x="56" y="46" text-anchor="end" font-family='system-ui, -apple-system, "Segoe UI", sans-serif' font-size="10" fill="#898781">Ir (M)</text>
<line x1="64" y1="306" x2="730" y2="306" stroke="#c3c2b7" stroke-width="1"/>
<text x="64.0" y="322" text-anchor="middle" font-family='system-ui, -apple-system, "Segoe UI", sans-serif' font-size="11" style="font-variant-numeric: tabular-nums" fill="#898781">06-28</text>
<text x="152.8" y="322" text-anchor="middle" font-family='system-ui, -apple-system, "Segoe UI", sans-serif' font-size="11" style="font-variant-numeric: tabular-nums" fill="#898781">06-30</text>
<text x="226.8" y="322" text-anchor="middle" font-family='system-ui, -apple-system, "Segoe UI", sans-serif' font-size="11" style="font-variant-numeric: tabular-nums" fill="#898781">07-02</text>
<text x="389.6" y="322" text-anchor="middle" font-family='system-ui, -apple-system, "Segoe UI", sans-serif' font-size="11" style="font-variant-numeric: tabular-nums" fill="#898781">07-04</text>
<text x="626.4" y="322" text-anchor="middle" font-family='system-ui, -apple-system, "Segoe UI", sans-serif' font-size="11" style="font-variant-numeric: tabular-nums" fill="#898781">07-07</text>
<path d="M167.6,56.2 L182.4,56.2 L197.2,56.1 L212.0,61.2 L226.8,56.2 L241.6,56.2 L256.4,56.2 L271.2,56.2 L286.0,56.2 L300.8,56.2 L315.6,56.2 L330.4,56.2 L345.2,56.2 L360.0,56.2 L374.8,56.2 L389.6,56.2 L404.4,56.2 L419.2,56.2 L434.0,56.2 L448.8,60.8 L463.6,56.1 L478.4,56.1 L493.2,56.1 L508.0,56.1 L522.8,56.1 L537.6,60.6 L552.4,60.6 L567.2,56.1 L582.0,56.0 L596.8,56.0 L611.6,56.0 L626.4,56.0 L641.2,56.0 L656.0,56.0 L670.8,56.0 L685.6,56.0 L700.4,56.0 L715.2,56.0 L730.0,56.0" fill="none" stroke="#2a78d6" stroke-width="2" stroke-linejoin="round" stroke-linecap="round"/>
<circle cx="730.0" cy="56.0" r="6" fill="#fcfcfb"/>
<circle cx="730.0" cy="56.0" r="4" fill="#2a78d6"/>
<path d="M64.0,264.6 L78.8,264.6 L93.6,264.6 L108.4,264.6 L123.2,264.6 L138.0,266.2 L152.8,265.8 L167.6,265.4 L182.4,265.5 L197.2,265.4 L212.0,265.4 L226.8,265.5 L241.6,265.4 L256.4,265.5 L271.2,265.5 L286.0,265.5 L300.8,265.5 L315.6,265.5 L330.4,265.0 L345.2,265.0 L360.0,265.0 L374.8,265.0 L389.6,265.0 L404.4,265.0 L419.2,265.0 L434.0,265.0 L448.8,265.0 L463.6,264.9 L478.4,264.9 L493.2,264.9 L508.0,264.9 L522.8,264.9 L537.6,264.9 L552.4,264.9 L567.2,264.9 L582.0,264.8 L596.8,264.8 L611.6,264.8 L626.4,264.8 L641.2,264.8 L656.0,264.8 L670.8,264.8 L685.6,264.8 L700.4,264.8 L715.2,264.8 L730.0,264.8" fill="none" stroke="#1baf7a" stroke-width="2" stroke-linejoin="round" stroke-linecap="round"/>
<circle cx="730.0" cy="264.8" r="6" fill="#fcfcfb"/>
<circle cx="730.0" cy="264.8" r="4" fill="#1baf7a"/>
<path d="M64.0,246.7 L78.8,246.7 L93.6,246.7 L108.4,246.7 L123.2,246.7 L138.0,246.6 L152.8,246.6 L167.6,246.2 L182.4,246.3 L197.2,246.3 L212.0,246.3 L226.8,246.3 L241.6,246.3 L256.4,246.3 L271.2,246.3 L286.0,246.3 L300.8,246.3 L315.6,246.3 L330.4,251.7 L345.2,251.7 L360.0,251.7 L374.8,251.7 L389.6,251.7 L404.4,251.7 L419.2,251.7 L434.0,251.7 L448.8,251.7 L463.6,251.6 L478.4,251.6 L493.2,251.6 L508.0,251.6 L522.8,251.6 L537.6,251.6 L552.4,251.6 L567.2,251.6 L582.0,251.5 L596.8,251.5 L611.6,251.5 L626.4,251.5 L641.2,251.5 L656.0,251.5 L670.8,251.5 L685.6,251.5 L700.4,251.5 L715.2,251.5 L730.0,251.5" fill="none" stroke="#eda100" stroke-width="2" stroke-linejoin="round" stroke-linecap="round"/>
<circle cx="730.0" cy="251.5" r="6" fill="#fcfcfb"/>
<circle cx="730.0" cy="251.5" r="4" fill="#eda100"/>
<path d="M93.6,97.2 L108.4,97.2 L123.2,97.2 L138.0,138.2 L152.8,138.2 L167.6,137.8 L182.4,137.8 L197.2,137.8 L212.0,137.9 L226.8,137.8 L241.6,137.9 L256.4,137.8 L271.2,137.8 L286.0,137.8 L300.8,137.8 L315.6,137.8 L330.4,142.4 L345.2,142.4 L360.0,142.4 L374.8,142.4 L389.6,142.4 L404.4,142.4 L419.2,142.4 L434.0,142.4 L448.8,142.4 L463.6,142.4 L478.4,142.4 L493.2,142.4 L508.0,142.4 L522.8,142.4 L537.6,142.3 L552.4,142.4 L567.2,142.3 L582.0,142.3 L596.8,142.3 L611.6,142.3 L626.4,142.3 L641.2,142.3 L656.0,142.3 L670.8,142.3 L685.6,142.3 L700.4,142.3 L715.2,142.3 L730.0,142.3" fill="none" stroke="#008300" stroke-width="2" stroke-linejoin="round" stroke-linecap="round"/>
<circle cx="730.0" cy="142.3" r="6" fill="#fcfcfb"/>
<circle cx="730.0" cy="142.3" r="4" fill="#008300"/>
<path d="M64.0,195.3 L78.8,195.3 L93.6,195.4 L108.4,195.4 L123.2,195.4 L138.0,204.2 L152.8,204.1 L167.6,203.8 L182.4,203.8 L197.2,203.8 L212.0,203.9 L226.8,203.8 L241.6,203.8 L256.4,203.8 L271.2,203.8 L286.0,203.8 L300.8,203.8 L315.6,203.8 L330.4,208.4 L345.2,208.4 L360.0,208.4 L374.8,208.4 L389.6,208.4 L404.4,208.4 L419.2,208.4 L434.0,208.4 L448.8,208.5 L463.6,208.3 L478.4,208.3 L493.2,208.3 L508.0,208.3 L522.8,208.3 L537.6,208.3 L552.4,208.4 L567.2,208.4 L582.0,208.2 L596.8,208.2 L611.6,208.2 L626.4,208.2 L641.2,208.2 L656.0,208.2 L670.8,208.2 L685.6,208.2 L700.4,208.2 L715.2,208.2 L730.0,208.2" fill="none" stroke="#4a3aa7" stroke-width="2" stroke-linejoin="round" stroke-linecap="round"/>
<circle cx="730.0" cy="208.2" r="6" fill="#fcfcfb"/>
<circle cx="730.0" cy="208.2" r="4" fill="#4a3aa7"/>
<path d="M64.0,262.8 L78.8,262.8 L93.6,262.8 L108.4,262.8 L123.2,263.0 L138.0,263.2 L152.8,263.0 L167.6,262.4 L182.4,262.5 L197.2,262.4 L212.0,262.5 L226.8,262.5 L241.6,262.5 L256.4,262.5 L271.2,262.5 L286.0,262.5 L300.8,262.5 L315.6,262.5 L330.4,261.7 L345.2,261.7 L360.0,261.6 L374.8,261.4 L389.6,261.4 L404.4,261.4 L419.2,261.4 L434.0,261.4 L448.8,261.4 L463.6,261.3 L478.4,261.3 L493.2,261.3 L508.0,261.3 L522.8,261.3 L537.6,261.2 L552.4,261.3 L567.2,261.3 L582.0,261.0 L596.8,261.0 L611.6,261.1 L626.4,261.1 L641.2,261.1 L656.0,261.1 L670.8,261.1 L685.6,261.1 L700.4,261.1 L715.2,261.1 L730.0,261.1" fill="none" stroke="#e34948" stroke-width="2" stroke-linejoin="round" stroke-linecap="round"/>
<circle cx="730.0" cy="261.1" r="6" fill="#fcfcfb"/>
<circle cx="730.0" cy="261.1" r="4" fill="#e34948"/>
<circle cx="745.0" cy="52.5" r="3.5" fill="#2a78d6"/>
<text x="753.0" y="56.0" font-family='system-ui, -apple-system, "Segoe UI", sans-serif' font-size="11" fill="#0b0b0b">granulator</text>
<text x="753.0" y="68.0" font-family='system-ui, -apple-system, "Segoe UI", sans-serif' font-size="10" style="font-variant-numeric: tabular-nums" fill="#52514e">28.5M</text>
<circle cx="745.0" cy="138.8" r="3.5" fill="#008300"/>
<text x="753.0" y="142.3" font-family='system-ui, -apple-system, "Segoe UI", sans-serif' font-size="11" fill="#0b0b0b">resonator</text>
<text x="753.0" y="154.3" font-family='system-ui, -apple-system, "Segoe UI", sans-serif' font-size="10" style="font-variant-numeric: tabular-nums" fill="#52514e">18.6M</text>
<circle cx="745.0" cy="204.7" r="3.5" fill="#4a3aa7"/>
<text x="753.0" y="208.2" font-family='system-ui, -apple-system, "Segoe UI", sans-serif' font-size="11" fill="#0b0b0b">reverb</text>
<text x="753.0" y="220.2" font-family='system-ui, -apple-system, "Segoe UI", sans-serif' font-size="10" style="font-variant-numeric: tabular-nums" fill="#52514e">11.1M</text>
<circle cx="745.0" cy="248.0" r="3.5" fill="#eda100"/>
<text x="753.0" y="251.5" font-family='system-ui, -apple-system, "Segoe UI", sans-serif' font-size="11" fill="#0b0b0b">pan</text>
<text x="753.0" y="263.5" font-family='system-ui, -apple-system, "Segoe UI", sans-serif' font-size="10" style="font-variant-numeric: tabular-nums" fill="#52514e">6.20M</text>
<line x1="736.0" y1="261.1" x2="740.0" y2="279.5" stroke="#c3c2b7" stroke-width="1"/>
<circle cx="745.0" cy="276.0" r="3.5" fill="#e34948"/>
<text x="753.0" y="279.5" font-family='system-ui, -apple-system, "Segoe UI", sans-serif' font-size="11" fill="#0b0b0b">sequencer</text>
<text x="753.0" y="291.5" font-family='system-ui, -apple-system, "Segoe UI", sans-serif' font-size="10" style="font-variant-numeric: tabular-nums" fill="#52514e">5.11M</text>
<line x1="736.0" y1="264.8" x2="740.0" y2="307.5" stroke="#c3c2b7" stroke-width="1"/>
<circle cx="745.0" cy="304.0" r="3.5" fill="#1baf7a"/>
<text x="753.0" y="307.5" font-family='system-ui, -apple-system, "Segoe UI", sans-serif' font-size="11" fill="#0b0b0b">map_f32_signal</text>
<text x="753.0" y="319.5" font-family='system-ui, -apple-system, "Segoe UI", sans-serif' font-size="10" style="font-variant-numeric: tabular-nums" fill="#52514e">4.69M</text>
</svg>