<svg xmlns="http://www.w3.org/2000/svg" width="880" height="340" viewBox="0 0 880 340" role="img" aria-label="Heaviest operators (micro)">
<rect width="880" height="340" rx="6" fill="#1a1a19"/>
<text x="64" y="24" font-family='system-ui, -apple-system, "Segoe UI", sans-serif' font-size="14" font-weight="600" fill="#ffffff">Heaviest operators (micro)</text>
<text x="64" y="41" font-family='system-ui, -apple-system, "Segoe UI", sans-serif' font-size="11" fill="#c3c2b7">per-operator step_node cost over the same 1 s schedule - top 6 by latest Ir</text>
<line x1="64" y1="306.0" x2="730" y2="306.0" stroke="#2c2c2a" stroke-width="1"/>
<text x="56" y="309.5" text-anchor="end" font-family='system-ui, -apple-system, "Segoe UI", sans-serif' font-size="11" style="font-variant-numeric: tabular-nums" fill="#898781">0</text>
<line x1="64" y1="218.1" x2="730" y2="218.1" stroke="#2c2c2a" stroke-width="1"/>
<text x="56" y="221.6" text-anchor="end" font-family='system-ui, -apple-system, "Segoe UI", sans-serif' font-size="11" style="font-variant-numeric: tabular-nums" fill="#898781">10</text>
<line x1="64" y1="130.3" x2="730" y2="130.3" stroke="#2c2c2a" stroke-width="1"/>
<text x="56" y="133.8" text-anchor="end" font-family='system-ui, -apple-system, "Segoe UI", sans-serif' font-size="11" style="font-variant-numeric: tabular-nums" fill="#898781">20</text>
<text x="56" y="46" text-anchor="end" font-family='system-ui, -apple-system, "Segoe UI", sans-serif' font-size="10" fill="#898781">Ir (M)</text>
<line x1="64" y1="306" x2="730" y2="306" stroke="#383835" stroke-width="1"/>
<text x="64.0" y="322" text-anchor="middle" font-family='system-ui, -apple-system, "Segoe UI", sans-serif' font-size="11" style="font-variant-numeric: tabular-nums" fill="#898781">06-28</text>
<text x="127.4" y="322" text-anchor="middle" font-family='system-ui, -apple-system, "Segoe UI", sans-serif' font-size="11" style="font-variant-numeric: tabular-nums" fill="#898781">06-30</text>
<text x="180.3" y="322" text-anchor="middle" font-family='system-ui, -apple-system, "Segoe UI", sans-serif' font-size="11" style="font-variant-numeric: tabular-nums" fill="#898781">07-02</text>
<text x="296.6" y="322" text-anchor="middle" font-family='system-ui, -apple-system, "Segoe UI", sans-serif' font-size="11" style="font-variant-numeric: tabular-nums" fill="#898781">07-04</text>
<text x="465.7" y="322" text-anchor="middle" font-family='system-ui, -apple-system, "Segoe UI", sans-serif' font-size="11" style="font-variant-numeric: tabular-nums" fill="#898781">07-07</text>
<text x="571.4" y="322" text-anchor="middle" font-family='system-ui, -apple-system, "Segoe UI", sans-serif' font-size="11" style="font-variant-numeric: tabular-nums" fill="#898781">07-09</text>
<text x="656.0" y="322" text-anchor="middle" font-family='system-ui, -apple-system, "Segoe UI", sans-serif' font-size="11" style="font-variant-numeric: tabular-nums" fill="#898781">07-11</text>
<path d="M138.0,56.2 L148.6,56.2 L159.1,56.1 L169.7,61.2 L180.3,56.2 L190.9,56.2 L201.4,56.2 L212.0,56.2 L222.6,56.2 L233.1,56.2 L243.7,56.2 L254.3,56.2 L264.9,56.2 L275.4,56.2 L286.0,56.2 L296.6,56.2 L307.1,56.2 L317.7,56.2 L328.3,56.2 L338.9,60.8 L349.4,56.1 L360.0,56.1 L370.6,56.1 L381.1,56.1 L391.7,56.1 L402.3,60.6 L412.9,60.6 L423.4,56.1 L434.0,56.0 L444.6,56.0 L455.1,56.0 L465.7,56.0 L476.3,56.0 L486.9,56.0 L497.4,56.0 L508.0,56.0 L518.6,56.0 L529.1,56.0 L539.7,56.0 L550.3,56.0 L560.9,56.0 L571.4,56.0 L582.0,56.0 L592.6,61.0 L603.1,61.0 L613.7,61.0 L624.3,56.1 L634.9,61.3 L645.4,56.3 L656.0,56.4 L666.6,64.4 L677.1,64.4 L687.7,64.4 L698.3,64.4 L708.9,64.4 L719.4,64.4 L730.0,64.4" fill="none" stroke="#3987e5" stroke-width="2" stroke-linejoin="round" stroke-linecap="round"/>
<circle cx="730.0" cy="64.4" r="6" fill="#1a1a19"/>
<circle cx="730.0" cy="64.4" r="4" fill="#3987e5"/>
<path d="M64.0,246.7 L74.6,246.7 L85.1,246.7 L95.7,246.7 L106.3,246.7 L116.9,246.6 L127.4,246.6 L138.0,246.2 L148.6,246.3 L159.1,246.3 L169.7,246.3 L180.3,246.3 L190.9,246.3 L201.4,246.3 L212.0,246.3 L222.6,246.3 L233.1,246.3 L243.7,246.3 L254.3,251.7 L264.9,251.7 L275.4,251.7 L286.0,251.7 L296.6,251.7 L307.1,251.7 L317.7,251.7 L328.3,251.7 L338.9,251.7 L349.4,251.6 L360.0,251.6 L370.6,251.6 L381.1,251.6 L391.7,251.6 L402.3,251.6 L412.9,251.6 L423.4,251.6 L434.0,251.5 L444.6,251.5 L455.1,251.5 L465.7,251.5 L476.3,251.5 L486.9,251.5 L497.4,251.5 L508.0,251.5 L518.6,251.5 L529.1,251.5 L539.7,251.5 L550.3,251.5 L560.9,251.5 L571.4,251.5 L582.0,251.5 L592.6,251.6 L603.1,251.6 L613.7,251.6 L624.3,251.6 L634.9,251.9 L645.4,251.9 L656.0,251.9 L666.6,252.5 L677.1,252.5 L687.7,252.5 L698.3,252.5 L708.9,252.5 L719.4,252.5 L730.0,252.5" fill="none" stroke="#199e70" stroke-width="2" stroke-linejoin="round" stroke-linecap="round"/>
<circle cx="730.0" cy="252.5" r="6" fill="#1a1a19"/>
<circle cx="730.0" cy="252.5" r="4" fill="#199e70"/>
<path d="M85.1,97.2 L95.7,97.2 L106.3,97.2 L116.9,138.2 L127.4,138.2 L138.0,137.8 L148.6,137.8 L159.1,137.8 L169.7,137.9 L180.3,137.8 L190.9,137.9 L201.4,137.8 L212.0,137.8 L222.6,137.8 L233.1,137.8 L243.7,137.8 L254.3,142.4 L264.9,142.4 L275.4,142.4 L286.0,142.4 L296.6,142.4 L307.1,142.4 L317.7,142.4 L328.3,142.4 L338.9,142.4 L349.4,142.4 L360.0,142.4 L370.6,142.4 L381.1,142.4 L391.7,142.4 L402.3,142.3 L412.9,142.4 L423.4,142.3 L434.0,142.3 L444.6,142.3 L455.1,142.3 L465.7,142.3 L476.3,142.3 L486.9,142.3 L497.4,142.3 L508.0,142.3 L518.6,142.3 L529.1,142.3 L539.7,142.3 L550.3,142.3 L560.9,142.3 L571.4,142.3 L582.0,142.3 L592.6,142.3 L603.1,142.3 L613.7,142.3 L624.3,142.3 L634.9,142.6 L645.4,142.6 L656.0,142.7 L666.6,143.3 L677.1,143.3 L687.7,143.3 L698.3,143.3 L708.9,143.3 L719.4,143.3 L730.0,143.3" fill="none" stroke="#c98500" stroke-width="2" stroke-linejoin="round" stroke-linecap="round"/>
<circle cx="730.0" cy="143.3" r="6" fill="#1a1a19"/>
<circle cx="730.0" cy="143.3" r="4" fill="#c98500"/>
<path d="M64.0,195.3 L74.6,195.3 L85.1,195.4 L95.7,195.4 L106.3,195.4 L116.9,204.2 L127.4,204.1 L138.0,203.8 L148.6,203.8 L159.1,203.8 L169.7,203.9 L180.3,203.8 L190.9,203.8 L201.4,203.8 L212.0,203.8 L222.6,203.8 L233.1,203.8 L243.7,203.8 L254.3,208.4 L264.9,208.4 L275.4,208.4 L286.0,208.4 L296.6,208.4 L307.1,208.4 L317.7,208.4 L328.3,208.4 L338.9,208.5 L349.4,208.3 L360.0,208.3 L370.6,208.3 L381.1,208.3 L391.7,208.3 L402.3,208.3 L412.9,208.4 L423.4,208.4 L434.0,208.2 L444.6,208.2 L455.1,208.2 L465.7,208.2 L476.3,208.2 L486.9,208.2 L497.4,208.2 L508.0,208.2 L518.6,208.2 L529.1,208.2 L539.7,208.2 L550.3,208.2 L560.9,208.2 L571.4,208.2 L582.0,208.2 L592.6,208.4 L603.1,208.3 L613.7,208.3 L624.3,208.3 L634.9,208.6 L645.4,208.6 L656.0,208.6 L666.6,209.2 L677.1,209.2 L687.7,209.2 L698.3,209.2 L708.9,209.2 L719.4,209.2 L730.0,209.2" fill="none" stroke="#008300" stroke-width="2" stroke-linejoin="round" stroke-linecap="round"/>
<circle cx="730.0" cy="209.2" r="6" fill="#1a1a19"/>
<circle cx="730.0" cy="209.2" r="4" fill="#008300"/>
<path d="M603.1,229.0 L613.7,229.0 L624.3,229.1 L634.9,229.3 L645.4,229.3 L656.0,229.3 L666.6,229.9 L677.1,229.9 L687.7,229.9 L698.3,229.9 L708.9,229.9 L719.4,229.9 L730.0,229.9" fill="none" stroke="#9085e9" stroke-width="2" stroke-linejoin="round" stroke-linecap="round"/>
<circle cx="730.0" cy="229.9" r="6" fill="#1a1a19"/>
<circle cx="730.0" cy="229.9" r="4" fill="#9085e9"/>
<path d="M64.0,262.8 L74.6,262.8 L85.1,262.8 L95.7,262.8 L106.3,263.0 L116.9,263.2 L127.4,263.0 L138.0,262.4 L148.6,262.5 L159.1,262.4 L169.7,262.5 L180.3,262.5 L190.9,262.5 L201.4,262.5 L212.0,262.5 L222.6,262.5 L233.1,262.5 L243.7,262.5 L254.3,261.7 L264.9,261.7 L275.4,261.6 L286.0,261.4 L296.6,261.4 L307.1,261.4 L317.7,261.4 L328.3,261.4 L338.9,261.4 L349.4,261.3 L360.0,261.3 L370.6,261.3 L381.1,261.3 L391.7,261.3 L402.3,261.2 L412.9,261.3 L423.4,261.3 L434.0,261.0 L444.6,261.0 L455.1,261.1 L465.7,261.1 L476.3,261.1 L486.9,261.1 L497.4,261.1 L508.0,261.1 L518.6,261.1 L529.1,261.1 L539.7,261.1 L550.3,261.1 L560.9,261.1 L571.4,261.1 L582.0,261.1 L592.6,261.3 L603.1,261.2 L613.7,261.2 L624.3,261.3 L634.9,261.7 L645.4,261.8 L656.0,261.8 L666.6,263.1 L677.1,263.1 L687.7,263.1 L698.3,263.1 L708.9,263.1 L719.4,263.1 L730.0,263.0" fill="none" stroke="#e66767" stroke-width="2" stroke-linejoin="round" stroke-linecap="round"/>
<circle cx="730.0" cy="263.0" r="6" fill="#1a1a19"/>
<circle cx="730.0" cy="263.0" r="4" fill="#e66767"/>
<circle cx="745.0" cy="60.9" r="3.5" fill="#3987e5"/>
<text x="753.0" y="64.4" font-family='system-ui, -apple-system, "Segoe UI", sans-serif' font-size="11" fill="#ffffff">granulator</text>
<text x="753.0" y="76.4" font-family='system-ui, -apple-system, "Segoe UI", sans-serif' font-size="10" style="font-variant-numeric: tabular-nums" fill="#c3c2b7">27.5M</text>
<circle cx="745.0" cy="139.8" r="3.5" fill="#c98500"/>
<text x="753.0" y="143.3" font-family='system-ui, -apple-system, "Segoe UI", sans-serif' font-size="11" fill="#ffffff">resonator</text>
<text x="753.0" y="155.3" font-family='system-ui, -apple-system, "Segoe UI", sans-serif' font-size="10" style="font-variant-numeric: tabular-nums" fill="#c3c2b7">18.5M</text>
<circle cx="745.0" cy="205.7" r="3.5" fill="#008300"/>
<text x="753.0" y="209.2" font-family='system-ui, -apple-system, "Segoe UI", sans-serif' font-size="11" fill="#ffffff">reverb</text>
<text x="753.0" y="221.2" font-family='system-ui, -apple-system, "Segoe UI", sans-serif' font-size="10" style="font-variant-numeric: tabular-nums" fill="#c3c2b7">11.0M</text>
<line x1="736.0" y1="229.9" x2="740.0" y2="237.2" stroke="#383835" stroke-width="1"/>
<circle cx="745.0" cy="233.7" r="3.5" fill="#9085e9"/>
<text x="753.0" y="237.2" font-family='system-ui, -apple-system, "Segoe UI", sans-serif' font-size="11" fill="#ffffff">saturator</text>
<text x="753.0" y="249.2" font-family='system-ui, -apple-system, "Segoe UI", sans-serif' font-size="10" style="font-variant-numeric: tabular-nums" fill="#c3c2b7">8.66M</text>
<line x1="736.0" y1="252.5" x2="740.0" y2="265.2" stroke="#383835" stroke-width="1"/>
<circle cx="745.0" cy="261.7" r="3.5" fill="#199e70"/>
<text x="753.0" y="265.2" font-family='system-ui, -apple-system, "Segoe UI", sans-serif' font-size="11" fill="#ffffff">pan</text>
<text x="753.0" y="277.2" font-family='system-ui, -apple-system, "Segoe UI", sans-serif' font-size="10" style="font-variant-numeric: tabular-nums" fill="#c3c2b7">6.09M</text>
<line x1="736.0" y1="263.0" x2="740.0" y2="293.2" stroke="#383835" stroke-width="1"/>
<circle cx="745.0" cy="289.7" r="3.5" fill="#e66767"/>
<text x="753.0" y="293.2" font-family='system-ui, -apple-system, "Segoe UI", sans-serif' font-size="11" fill="#ffffff">sequencer</text>
<text x="753.0" y="305.2" font-family='system-ui, -apple-system, "Segoe UI", sans-serif' font-size="10" style="font-variant-numeric: tabular-nums" fill="#c3c2b7">4.89M</text>
</svg>