<svg xmlns="http://www.w3.org/2000/svg" width="880" height="340" viewBox="0 0 880 340" role="img" aria-label="Heaviest operators (micro)">
<rect width="880" height="340" rx="6" fill="#fcfcfb"/>
<text x="64" y="24" font-family='system-ui, -apple-system, "Segoe UI", sans-serif' font-size="14" font-weight="600" fill="#0b0b0b">Heaviest operators (micro)</text>
<text x="64" y="41" font-family='system-ui, -apple-system, "Segoe UI", sans-serif' font-size="11" fill="#52514e">per-operator step_node cost over the same 1 s schedule - top 6 by latest Ir</text>
<line x1="64" y1="306.0" x2="730" y2="306.0" stroke="#e1e0d9" stroke-width="1"/>
<text x="56" y="309.5" text-anchor="end" font-family='system-ui, -apple-system, "Segoe UI", sans-serif' font-size="11" style="font-variant-numeric: tabular-nums" fill="#898781">0</text>
<line x1="64" y1="215.1" x2="730" y2="215.1" stroke="#e1e0d9" stroke-width="1"/>
<text x="56" y="218.6" text-anchor="end" font-family='system-ui, -apple-system, "Segoe UI", sans-serif' font-size="11" style="font-variant-numeric: tabular-nums" fill="#898781">10</text>
<line x1="64" y1="124.2" x2="730" y2="124.2" stroke="#e1e0d9" stroke-width="1"/>
<text x="56" y="127.7" text-anchor="end" font-family='system-ui, -apple-system, "Segoe UI", sans-serif' font-size="11" style="font-variant-numeric: tabular-nums" fill="#898781">20</text>
<text x="56" y="46" text-anchor="end" font-family='system-ui, -apple-system, "Segoe UI", sans-serif' font-size="10" fill="#898781">Ir (M)</text>
<line x1="64" y1="306" x2="730" y2="306" stroke="#c3c2b7" stroke-width="1"/>
<text x="64.0" y="322" text-anchor="middle" font-family='system-ui, -apple-system, "Segoe UI", sans-serif' font-size="11" style="font-variant-numeric: tabular-nums" fill="#898781">07-12</text>
<text x="152.8" y="322" text-anchor="middle" font-family='system-ui, -apple-system, "Segoe UI", sans-serif' font-size="11" style="font-variant-numeric: tabular-nums" fill="#898781">07-13</text>
<text x="167.6" y="322" text-anchor="middle" font-family='system-ui, -apple-system, "Segoe UI", sans-serif' font-size="11" style="font-variant-numeric: tabular-nums" fill="#898781">07-14</text>
<text x="182.4" y="322" text-anchor="middle" font-family='system-ui, -apple-system, "Segoe UI", sans-serif' font-size="11" style="font-variant-numeric: tabular-nums" fill="#898781">07-16</text>
<text x="300.8" y="322" text-anchor="middle" font-family='system-ui, -apple-system, "Segoe UI", sans-serif' font-size="11" style="font-variant-numeric: tabular-nums" fill="#898781">07-17</text>
<text x="389.6" y="322" text-anchor="middle" font-family='system-ui, -apple-system, "Segoe UI", sans-serif' font-size="11" style="font-variant-numeric: tabular-nums" fill="#898781">07-18</text>
<text x="478.4" y="322" text-anchor="middle" font-family='system-ui, -apple-system, "Segoe UI", sans-serif' font-size="11" style="font-variant-numeric: tabular-nums" fill="#898781">07-19</text>
<text x="522.8" y="322" text-anchor="middle" font-family='system-ui, -apple-system, "Segoe UI", sans-serif' font-size="11" style="font-variant-numeric: tabular-nums" fill="#898781">07-20</text>
<path d="M522.8,217.9 L537.6,217.9 L552.4,217.9 L567.2,217.9 L582.0,217.9 L596.8,217.9 L611.6,217.9 L626.4,217.9 L641.2,217.9 L656.0,217.9 L670.8,218.0 L685.6,218.0 L700.4,218.0 L715.2,218.0 L730.0,218.0" fill="none" stroke="#2a78d6" stroke-width="2" stroke-linejoin="round" stroke-linecap="round"/>
<circle cx="730.0" cy="218.0" r="6" fill="#fcfcfb"/>
<circle cx="730.0" cy="218.0" r="4" fill="#2a78d6"/>
<path d="M64.0,56.0 L78.8,56.0 L93.6,56.0 L108.4,56.0 L123.2,56.0 L138.0,56.0 L152.8,56.0 L167.6,56.0 L182.4,56.0 L197.2,56.0 L212.0,56.0 L226.8,56.0 L241.6,56.0 L256.4,56.0 L271.2,56.0 L286.0,56.0 L300.8,56.0 L315.6,56.0 L330.4,56.0 L345.2,56.0 L360.0,56.0 L374.8,56.0 L389.6,56.0 L404.4,56.0 L419.2,56.0 L434.0,56.0 L448.8,56.0 L463.6,56.0 L478.4,56.0 L493.2,56.0 L508.0,56.0 L522.8,56.0 L537.6,56.0 L552.4,56.0 L567.2,56.0 L582.0,56.0 L596.8,56.0 L611.6,56.0 L626.4,56.0 L641.2,56.0 L656.0,56.0 L670.8,56.1 L685.6,56.1 L700.4,56.1 L715.2,56.1 L730.0,56.1" fill="none" stroke="#1baf7a" stroke-width="2" stroke-linejoin="round" stroke-linecap="round"/>
<circle cx="730.0" cy="56.1" r="6" fill="#fcfcfb"/>
<circle cx="730.0" cy="56.1" r="4" fill="#1baf7a"/>
<path d="M64.0,250.6 L78.8,250.6 L93.6,250.6 L108.4,250.6 L123.2,250.6 L138.0,250.6 L152.8,250.6 L167.6,250.6 L182.4,250.6 L197.2,250.6 L212.0,250.6 L226.8,250.6 L241.6,250.6 L256.4,250.6 L271.2,250.6 L286.0,250.6 L300.8,250.6 L315.6,250.6 L330.4,250.6 L345.2,250.6 L360.0,250.6 L374.8,250.6 L389.6,250.6 L404.4,250.6 L419.2,250.6 L434.0,250.6 L448.8,250.6 L463.6,250.6 L478.4,250.6 L493.2,250.6 L508.0,250.6 L522.8,250.6 L537.6,250.6 L552.4,250.7 L567.2,250.7 L582.0,250.7 L596.8,250.7 L611.6,250.7 L626.4,250.7 L641.2,250.7 L656.0,250.7 L670.8,250.7 L685.6,250.7 L700.4,250.7 L715.2,250.7 L730.0,250.7" fill="none" stroke="#eda100" stroke-width="2" stroke-linejoin="round" stroke-linecap="round"/>
<circle cx="730.0" cy="250.7" r="6" fill="#fcfcfb"/>
<circle cx="730.0" cy="250.7" r="4" fill="#eda100"/>
<path d="M64.0,137.6 L78.8,137.6 L93.6,137.6 L108.4,137.6 L123.2,137.6 L138.0,137.6 L152.8,138.4 L167.6,138.4 L182.4,138.4 L197.2,138.4 L212.0,138.4 L226.8,138.4 L241.6,138.4 L256.4,138.4 L271.2,138.4 L286.0,138.4 L300.8,138.4 L315.6,138.4 L330.4,138.4 L345.2,138.4 L360.0,138.4 L374.8,138.4 L389.6,138.4 L404.4,138.4 L419.2,138.4 L434.0,138.4 L448.8,138.4 L463.6,138.4 L478.4,138.4 L493.2,138.4 L508.0,138.4 L522.8,138.4 L537.6,138.4 L552.4,138.4 L567.2,138.4 L582.0,138.4 L596.8,138.4 L611.6,138.4 L626.4,138.4 L641.2,138.4 L656.0,138.4 L670.8,138.5 L685.6,138.5 L700.4,138.5 L715.2,138.5 L730.0,138.5" fill="none" stroke="#008300" stroke-width="2" stroke-linejoin="round" stroke-linecap="round"/>
<circle cx="730.0" cy="138.5" r="6" fill="#fcfcfb"/>
<circle cx="730.0" cy="138.5" r="4" fill="#008300"/>
<path d="M64.0,205.9 L78.8,205.9 L93.6,205.9 L108.4,205.9 L123.2,205.9 L138.0,205.9 L152.8,205.9 L167.6,205.9 L182.4,205.9 L197.2,205.9 L212.0,205.9 L226.8,205.9 L241.6,205.9 L256.4,205.9 L271.2,205.9 L286.0,205.9 L300.8,205.9 L315.6,205.9 L330.4,205.9 L345.2,205.9 L360.0,205.9 L374.8,205.9 L389.6,205.9 L404.4,205.9 L419.2,205.9 L434.0,205.9 L448.8,205.9 L463.6,205.9 L478.4,205.9 L493.2,205.9 L508.0,205.9 L522.8,205.9 L537.6,205.9 L552.4,205.9 L567.2,205.9 L582.0,205.9 L596.8,205.9 L611.6,205.9 L626.4,205.9 L641.2,205.9 L656.0,205.9 L670.8,205.9 L685.6,205.9 L700.4,205.9 L715.2,205.9 L730.0,205.9" fill="none" stroke="#4a3aa7" stroke-width="2" stroke-linejoin="round" stroke-linecap="round"/>
<circle cx="730.0" cy="205.9" r="6" fill="#fcfcfb"/>
<circle cx="730.0" cy="205.9" r="4" fill="#4a3aa7"/>
<path d="M64.0,227.3 L78.8,227.3 L93.6,227.3 L108.4,227.3 L123.2,227.3 L138.0,227.3 L152.8,227.3 L167.6,227.3 L182.4,227.3 L197.2,227.3 L212.0,227.3 L226.8,227.3 L241.6,227.3 L256.4,227.3 L271.2,227.3 L286.0,227.3 L300.8,227.3 L315.6,227.3 L330.4,227.3 L345.2,227.3 L360.0,227.3 L374.8,227.3 L389.6,227.3 L404.4,227.3 L419.2,227.3 L434.0,227.3 L448.8,227.3 L463.6,227.3 L478.4,227.3 L493.2,227.3 L508.0,227.3 L522.8,227.3 L537.6,227.3 L552.4,227.3 L567.2,227.3 L582.0,227.3 L596.8,227.3 L611.6,227.3 L626.4,227.3 L641.2,227.3 L656.0,227.3 L670.8,227.3 L685.6,227.3 L700.4,227.3 L715.2,227.3 L730.0,227.3" fill="none" stroke="#e34948" stroke-width="2" stroke-linejoin="round" stroke-linecap="round"/>
<circle cx="730.0" cy="227.3" r="6" fill="#fcfcfb"/>
<circle cx="730.0" cy="227.3" r="4" fill="#e34948"/>
<circle cx="745.0" cy="52.6" r="3.5" fill="#1baf7a"/>
<text x="753.0" y="56.1" font-family='system-ui, -apple-system, "Segoe UI", sans-serif' font-size="11" fill="#0b0b0b">granulator</text>
<text x="753.0" y="68.1" font-family='system-ui, -apple-system, "Segoe UI", sans-serif' font-size="10" style="font-variant-numeric: tabular-nums" fill="#52514e">27.5M</text>
<circle cx="745.0" cy="135.0" r="3.5" fill="#008300"/>
<text x="753.0" y="138.5" font-family='system-ui, -apple-system, "Segoe UI", sans-serif' font-size="11" fill="#0b0b0b">resonator</text>
<text x="753.0" y="150.5" font-family='system-ui, -apple-system, "Segoe UI", sans-serif' font-size="10" style="font-variant-numeric: tabular-nums" fill="#52514e">18.4M</text>
<circle cx="745.0" cy="202.4" r="3.5" fill="#4a3aa7"/>
<text x="753.0" y="205.9" font-family='system-ui, -apple-system, "Segoe UI", sans-serif' font-size="11" fill="#0b0b0b">reverb</text>
<text x="753.0" y="217.9" font-family='system-ui, -apple-system, "Segoe UI", sans-serif' font-size="10" style="font-variant-numeric: tabular-nums" fill="#52514e">11.0M</text>
<line x1="736.0" y1="218.0" x2="740.0" y2="233.9" stroke="#c3c2b7" stroke-width="1"/>
<circle cx="745.0" cy="230.4" r="3.5" fill="#2a78d6"/>
<text x="753.0" y="233.9" font-family='system-ui, -apple-system, "Segoe UI", sans-serif' font-size="11" fill="#0b0b0b">compressor</text>
<text x="753.0" y="245.9" font-family='system-ui, -apple-system, "Segoe UI", sans-serif' font-size="10" style="font-variant-numeric: tabular-nums" fill="#52514e">9.68M</text>
<line x1="736.0" y1="227.3" x2="740.0" y2="261.9" stroke="#c3c2b7" stroke-width="1"/>
<circle cx="745.0" cy="258.4" r="3.5" fill="#e34948"/>
<text x="753.0" y="261.9" font-family='system-ui, -apple-system, "Segoe UI", sans-serif' font-size="11" fill="#0b0b0b">saturator</text>
<text x="753.0" y="273.9" font-family='system-ui, -apple-system, "Segoe UI", sans-serif' font-size="10" style="font-variant-numeric: tabular-nums" fill="#52514e">8.65M</text>
<line x1="736.0" y1="250.7" x2="740.0" y2="289.9" stroke="#c3c2b7" stroke-width="1"/>
<circle cx="745.0" cy="286.4" r="3.5" fill="#eda100"/>
<text x="753.0" y="289.9" font-family='system-ui, -apple-system, "Segoe UI", sans-serif' font-size="11" fill="#0b0b0b">pan</text>
<text x="753.0" y="301.9" font-family='system-ui, -apple-system, "Segoe UI", sans-serif' font-size="10" style="font-variant-numeric: tabular-nums" fill="#52514e">6.08M</text>
</svg>