<svg xmlns="http://www.w3.org/2000/svg" width="880" height="340" viewBox="0 0 880 340" role="img" aria-label="Heaviest operators (micro)">
<rect width="880" height="340" rx="6" fill="#fcfcfb"/>
<text x="64" y="24" font-family='system-ui, -apple-system, "Segoe UI", sans-serif' font-size="14" font-weight="600" fill="#0b0b0b">Heaviest operators (micro)</text>
<text x="64" y="41" font-family='system-ui, -apple-system, "Segoe UI", sans-serif' font-size="11" fill="#52514e">per-operator step_node cost over the same 1 s schedule - top 6 by latest Ir</text>
<line x1="64" y1="306.0" x2="730" y2="306.0" stroke="#e1e0d9" stroke-width="1"/>
<text x="56" y="309.5" text-anchor="end" font-family='system-ui, -apple-system, "Segoe UI", sans-serif' font-size="11" style="font-variant-numeric: tabular-nums" fill="#898781">0</text>
<line x1="64" y1="218.1" x2="730" y2="218.1" stroke="#e1e0d9" stroke-width="1"/>
<text x="56" y="221.6" text-anchor="end" font-family='system-ui, -apple-system, "Segoe UI", sans-serif' font-size="11" style="font-variant-numeric: tabular-nums" fill="#898781">10</text>
<line x1="64" y1="130.3" x2="730" y2="130.3" stroke="#e1e0d9" stroke-width="1"/>
<text x="56" y="133.8" text-anchor="end" font-family='system-ui, -apple-system, "Segoe UI", sans-serif' font-size="11" style="font-variant-numeric: tabular-nums" fill="#898781">20</text>
<text x="56" y="46" text-anchor="end" font-family='system-ui, -apple-system, "Segoe UI", sans-serif' font-size="10" fill="#898781">Ir (M)</text>
<line x1="64" y1="306" x2="730" y2="306" stroke="#c3c2b7" stroke-width="1"/>
<text x="64.0" y="322" text-anchor="middle" font-family='system-ui, -apple-system, "Segoe UI", sans-serif' font-size="11" style="font-variant-numeric: tabular-nums" fill="#898781">06-28</text>
<text x="121.1" y="322" text-anchor="middle" font-family='system-ui, -apple-system, "Segoe UI", sans-serif' font-size="11" style="font-variant-numeric: tabular-nums" fill="#898781">06-30</text>
<text x="168.7" y="322" text-anchor="middle" font-family='system-ui, -apple-system, "Segoe UI", sans-serif' font-size="11" style="font-variant-numeric: tabular-nums" fill="#898781">07-02</text>
<text x="273.3" y="322" text-anchor="middle" font-family='system-ui, -apple-system, "Segoe UI", sans-serif' font-size="11" style="font-variant-numeric: tabular-nums" fill="#898781">07-04</text>
<text x="425.5" y="322" text-anchor="middle" font-family='system-ui, -apple-system, "Segoe UI", sans-serif' font-size="11" style="font-variant-numeric: tabular-nums" fill="#898781">07-07</text>
<text x="520.7" y="322" text-anchor="middle" font-family='system-ui, -apple-system, "Segoe UI", sans-serif' font-size="11" style="font-variant-numeric: tabular-nums" fill="#898781">07-09</text>
<text x="596.8" y="322" text-anchor="middle" font-family='system-ui, -apple-system, "Segoe UI", sans-serif' font-size="11" style="font-variant-numeric: tabular-nums" fill="#898781">07-11</text>
<path d="M130.6,56.2 L140.1,56.2 L149.6,56.1 L159.1,61.2 L168.7,56.2 L178.2,56.2 L187.7,56.2 L197.2,56.2 L206.7,56.2 L216.2,56.2 L225.7,56.2 L235.3,56.2 L244.8,56.2 L254.3,56.2 L263.8,56.2 L273.3,56.2 L282.8,56.2 L292.3,56.2 L301.9,56.2 L311.4,60.8 L320.9,56.1 L330.4,56.1 L339.9,56.1 L349.4,56.1 L358.9,56.1 L368.5,60.6 L378.0,60.6 L387.5,56.1 L397.0,56.0 L406.5,56.0 L416.0,56.0 L425.5,56.0 L435.1,56.0 L444.6,56.0 L454.1,56.0 L463.6,56.0 L473.1,56.0 L482.6,56.0 L492.1,56.0 L501.7,56.0 L511.2,56.0 L520.7,56.0 L530.2,56.0 L539.7,61.0 L549.2,61.0 L558.7,61.0 L568.3,56.1 L577.8,61.3 L587.3,56.3 L596.8,56.4 L606.3,64.4 L615.8,64.4 L625.3,64.4 L634.9,64.4 L644.4,64.4 L653.9,64.4 L663.4,64.4 L672.9,64.4 L682.4,64.4 L691.9,64.4 L701.5,64.4 L711.0,64.4 L720.5,64.4 L730.0,64.4" fill="none" stroke="#2a78d6" stroke-width="2" stroke-linejoin="round" stroke-linecap="round"/>
<circle cx="730.0" cy="64.4" r="6" fill="#fcfcfb"/>
<circle cx="730.0" cy="64.4" r="4" fill="#2a78d6"/>
<path d="M64.0,246.7 L73.5,246.7 L83.0,246.7 L92.5,246.7 L102.1,246.7 L111.6,246.6 L121.1,246.6 L130.6,246.2 L140.1,246.3 L149.6,246.3 L159.1,246.3 L168.7,246.3 L178.2,246.3 L187.7,246.3 L197.2,246.3 L206.7,246.3 L216.2,246.3 L225.7,246.3 L235.3,251.7 L244.8,251.7 L254.3,251.7 L263.8,251.7 L273.3,251.7 L282.8,251.7 L292.3,251.7 L301.9,251.7 L311.4,251.7 L320.9,251.6 L330.4,251.6 L339.9,251.6 L349.4,251.6 L358.9,251.6 L368.5,251.6 L378.0,251.6 L387.5,251.6 L397.0,251.5 L406.5,251.5 L416.0,251.5 L425.5,251.5 L435.1,251.5 L444.6,251.5 L454.1,251.5 L463.6,251.5 L473.1,251.5 L482.6,251.5 L492.1,251.5 L501.7,251.5 L511.2,251.5 L520.7,251.5 L530.2,251.5 L539.7,251.6 L549.2,251.6 L558.7,251.6 L568.3,251.6 L577.8,251.9 L587.3,251.9 L596.8,251.9 L606.3,252.5 L615.8,252.5 L625.3,252.5 L634.9,252.5 L644.4,252.5 L653.9,252.5 L663.4,252.5 L672.9,252.5 L682.4,252.5 L691.9,252.5 L701.5,252.5 L711.0,252.5 L720.5,252.5 L730.0,252.5" fill="none" stroke="#1baf7a" stroke-width="2" stroke-linejoin="round" stroke-linecap="round"/>
<circle cx="730.0" cy="252.5" r="6" fill="#fcfcfb"/>
<circle cx="730.0" cy="252.5" r="4" fill="#1baf7a"/>
<path d="M83.0,97.2 L92.5,97.2 L102.1,97.2 L111.6,138.2 L121.1,138.2 L130.6,137.8 L140.1,137.8 L149.6,137.8 L159.1,137.9 L168.7,137.8 L178.2,137.9 L187.7,137.8 L197.2,137.8 L206.7,137.8 L216.2,137.8 L225.7,137.8 L235.3,142.4 L244.8,142.4 L254.3,142.4 L263.8,142.4 L273.3,142.4 L282.8,142.4 L292.3,142.4 L301.9,142.4 L311.4,142.4 L320.9,142.4 L330.4,142.4 L339.9,142.4 L349.4,142.4 L358.9,142.4 L368.5,142.3 L378.0,142.4 L387.5,142.3 L397.0,142.3 L406.5,142.3 L416.0,142.3 L425.5,142.3 L435.1,142.3 L444.6,142.3 L454.1,142.3 L463.6,142.3 L473.1,142.3 L482.6,142.3 L492.1,142.3 L501.7,142.3 L511.2,142.3 L520.7,142.3 L530.2,142.3 L539.7,142.3 L549.2,142.3 L558.7,142.3 L568.3,142.3 L577.8,142.6 L587.3,142.6 L596.8,142.7 L606.3,143.3 L615.8,143.3 L625.3,143.3 L634.9,143.3 L644.4,143.3 L653.9,143.3 L663.4,143.3 L672.9,143.3 L682.4,143.3 L691.9,143.3 L701.5,143.3 L711.0,143.3 L720.5,143.3 L730.0,143.3" fill="none" stroke="#eda100" stroke-width="2" stroke-linejoin="round" stroke-linecap="round"/>
<circle cx="730.0" cy="143.3" r="6" fill="#fcfcfb"/>
<circle cx="730.0" cy="143.3" r="4" fill="#eda100"/>
<path d="M64.0,195.3 L73.5,195.3 L83.0,195.4 L92.5,195.4 L102.1,195.4 L111.6,204.2 L121.1,204.1 L130.6,203.8 L140.1,203.8 L149.6,203.8 L159.1,203.9 L168.7,203.8 L178.2,203.8 L187.7,203.8 L197.2,203.8 L206.7,203.8 L216.2,203.8 L225.7,203.8 L235.3,208.4 L244.8,208.4 L254.3,208.4 L263.8,208.4 L273.3,208.4 L282.8,208.4 L292.3,208.4 L301.9,208.4 L311.4,208.5 L320.9,208.3 L330.4,208.3 L339.9,208.3 L349.4,208.3 L358.9,208.3 L368.5,208.3 L378.0,208.4 L387.5,208.4 L397.0,208.2 L406.5,208.2 L416.0,208.2 L425.5,208.2 L435.1,208.2 L444.6,208.2 L454.1,208.2 L463.6,208.2 L473.1,208.2 L482.6,208.2 L492.1,208.2 L501.7,208.2 L511.2,208.2 L520.7,208.2 L530.2,208.2 L539.7,208.4 L549.2,208.3 L558.7,208.3 L568.3,208.3 L577.8,208.6 L587.3,208.6 L596.8,208.6 L606.3,209.2 L615.8,209.2 L625.3,209.2 L634.9,209.2 L644.4,209.2 L653.9,209.2 L663.4,209.2 L672.9,209.2 L682.4,209.2 L691.9,209.2 L701.5,209.2 L711.0,209.2 L720.5,209.2 L730.0,209.2" fill="none" stroke="#008300" stroke-width="2" stroke-linejoin="round" stroke-linecap="round"/>
<circle cx="730.0" cy="209.2" r="6" fill="#fcfcfb"/>
<circle cx="730.0" cy="209.2" r="4" fill="#008300"/>
<path d="M549.2,229.0 L558.7,229.0 L568.3,229.1 L577.8,229.3 L587.3,229.3 L596.8,229.3 L606.3,229.9 L615.8,229.9 L625.3,229.9 L634.9,229.9 L644.4,229.9 L653.9,229.9 L663.4,229.9 L672.9,229.9 L682.4,229.9 L691.9,229.9 L701.5,229.9 L711.0,229.9 L720.5,229.9 L730.0,229.9" fill="none" stroke="#4a3aa7" stroke-width="2" stroke-linejoin="round" stroke-linecap="round"/>
<circle cx="730.0" cy="229.9" r="6" fill="#fcfcfb"/>
<circle cx="730.0" cy="229.9" r="4" fill="#4a3aa7"/>
<path d="M64.0,262.8 L73.5,262.8 L83.0,262.8 L92.5,262.8 L102.1,263.0 L111.6,263.2 L121.1,263.0 L130.6,262.4 L140.1,262.5 L149.6,262.4 L159.1,262.5 L168.7,262.5 L178.2,262.5 L187.7,262.5 L197.2,262.5 L206.7,262.5 L216.2,262.5 L225.7,262.5 L235.3,261.7 L244.8,261.7 L254.3,261.6 L263.8,261.4 L273.3,261.4 L282.8,261.4 L292.3,261.4 L301.9,261.4 L311.4,261.4 L320.9,261.3 L330.4,261.3 L339.9,261.3 L349.4,261.3 L358.9,261.3 L368.5,261.2 L378.0,261.3 L387.5,261.3 L397.0,261.0 L406.5,261.0 L416.0,261.1 L425.5,261.1 L435.1,261.1 L444.6,261.1 L454.1,261.1 L463.6,261.1 L473.1,261.1 L482.6,261.1 L492.1,261.1 L501.7,261.1 L511.2,261.1 L520.7,261.1 L530.2,261.1 L539.7,261.3 L549.2,261.2 L558.7,261.2 L568.3,261.3 L577.8,261.7 L587.3,261.8 L596.8,261.8 L606.3,263.1 L615.8,263.1 L625.3,263.1 L634.9,263.1 L644.4,263.1 L653.9,263.1 L663.4,263.0 L672.9,263.0 L682.4,263.0 L691.9,263.0 L701.5,263.0 L711.0,263.0 L720.5,263.0 L730.0,263.0" fill="none" stroke="#e34948" stroke-width="2" stroke-linejoin="round" stroke-linecap="round"/>
<circle cx="730.0" cy="263.0" r="6" fill="#fcfcfb"/>
<circle cx="730.0" cy="263.0" r="4" fill="#e34948"/>
<circle cx="745.0" cy="60.9" r="3.5" fill="#2a78d6"/>
<text x="753.0" y="64.4" font-family='system-ui, -apple-system, "Segoe UI", sans-serif' font-size="11" fill="#0b0b0b">granulator</text>
<text x="753.0" y="76.4" font-family='system-ui, -apple-system, "Segoe UI", sans-serif' font-size="10" style="font-variant-numeric: tabular-nums" fill="#52514e">27.5M</text>
<circle cx="745.0" cy="139.8" r="3.5" fill="#eda100"/>
<text x="753.0" y="143.3" font-family='system-ui, -apple-system, "Segoe UI", sans-serif' font-size="11" fill="#0b0b0b">resonator</text>
<text x="753.0" y="155.3" font-family='system-ui, -apple-system, "Segoe UI", sans-serif' font-size="10" style="font-variant-numeric: tabular-nums" fill="#52514e">18.5M</text>
<circle cx="745.0" cy="205.7" r="3.5" fill="#008300"/>
<text x="753.0" y="209.2" font-family='system-ui, -apple-system, "Segoe UI", sans-serif' font-size="11" fill="#0b0b0b">reverb</text>
<text x="753.0" y="221.2" font-family='system-ui, -apple-system, "Segoe UI", sans-serif' font-size="10" style="font-variant-numeric: tabular-nums" fill="#52514e">11.0M</text>
<line x1="736.0" y1="229.9" x2="740.0" y2="237.2" stroke="#c3c2b7" stroke-width="1"/>
<circle cx="745.0" cy="233.7" r="3.5" fill="#4a3aa7"/>
<text x="753.0" y="237.2" font-family='system-ui, -apple-system, "Segoe UI", sans-serif' font-size="11" fill="#0b0b0b">saturator</text>
<text x="753.0" y="249.2" font-family='system-ui, -apple-system, "Segoe UI", sans-serif' font-size="10" style="font-variant-numeric: tabular-nums" fill="#52514e">8.66M</text>
<line x1="736.0" y1="252.5" x2="740.0" y2="265.2" stroke="#c3c2b7" stroke-width="1"/>
<circle cx="745.0" cy="261.7" r="3.5" fill="#1baf7a"/>
<text x="753.0" y="265.2" font-family='system-ui, -apple-system, "Segoe UI", sans-serif' font-size="11" fill="#0b0b0b">pan</text>
<text x="753.0" y="277.2" font-family='system-ui, -apple-system, "Segoe UI", sans-serif' font-size="10" style="font-variant-numeric: tabular-nums" fill="#52514e">6.09M</text>
<line x1="736.0" y1="263.0" x2="740.0" y2="293.2" stroke="#c3c2b7" stroke-width="1"/>
<circle cx="745.0" cy="289.7" r="3.5" fill="#e34948"/>
<text x="753.0" y="293.2" font-family='system-ui, -apple-system, "Segoe UI", sans-serif' font-size="11" fill="#0b0b0b">sequencer</text>
<text x="753.0" y="305.2" font-family='system-ui, -apple-system, "Segoe UI", sans-serif' font-size="10" style="font-variant-numeric: tabular-nums" fill="#52514e">4.89M</text>
</svg>