<svg xmlns="http://www.w3.org/2000/svg" width="880" height="340" viewBox="0 0 880 340" role="img" aria-label="Heaviest operators (micro)">
<rect width="880" height="340" rx="6" fill="#1a1a19"/>
<text x="64" y="24" font-family='system-ui, -apple-system, "Segoe UI", sans-serif' font-size="14" font-weight="600" fill="#ffffff">Heaviest operators (micro)</text>
<text x="64" y="41" font-family='system-ui, -apple-system, "Segoe UI", sans-serif' font-size="11" fill="#c3c2b7">per-operator step_node cost over the same 1 s schedule - top 6 by latest Ir</text>
<line x1="64" y1="306.0" x2="730" y2="306.0" stroke="#2c2c2a" stroke-width="1"/>
<text x="56" y="309.5" text-anchor="end" font-family='system-ui, -apple-system, "Segoe UI", sans-serif' font-size="11" style="font-variant-numeric: tabular-nums" fill="#898781">0</text>
<line x1="64" y1="218.1" x2="730" y2="218.1" stroke="#2c2c2a" stroke-width="1"/>
<text x="56" y="221.6" text-anchor="end" font-family='system-ui, -apple-system, "Segoe UI", sans-serif' font-size="11" style="font-variant-numeric: tabular-nums" fill="#898781">10</text>
<line x1="64" y1="130.3" x2="730" y2="130.3" stroke="#2c2c2a" stroke-width="1"/>
<text x="56" y="133.8" text-anchor="end" font-family='system-ui, -apple-system, "Segoe UI", sans-serif' font-size="11" style="font-variant-numeric: tabular-nums" fill="#898781">20</text>
<text x="56" y="46" text-anchor="end" font-family='system-ui, -apple-system, "Segoe UI", sans-serif' font-size="10" fill="#898781">Ir (M)</text>
<line x1="64" y1="306" x2="730" y2="306" stroke="#383835" stroke-width="1"/>
<text x="64.0" y="322" text-anchor="middle" font-family='system-ui, -apple-system, "Segoe UI", sans-serif' font-size="11" style="font-variant-numeric: tabular-nums" fill="#898781">06-28</text>
<text x="131.7" y="322" text-anchor="middle" font-family='system-ui, -apple-system, "Segoe UI", sans-serif' font-size="11" style="font-variant-numeric: tabular-nums" fill="#898781">06-30</text>
<text x="188.2" y="322" text-anchor="middle" font-family='system-ui, -apple-system, "Segoe UI", sans-serif' font-size="11" style="font-variant-numeric: tabular-nums" fill="#898781">07-02</text>
<text x="312.3" y="322" text-anchor="middle" font-family='system-ui, -apple-system, "Segoe UI", sans-serif' font-size="11" style="font-variant-numeric: tabular-nums" fill="#898781">07-04</text>
<text x="492.9" y="322" text-anchor="middle" font-family='system-ui, -apple-system, "Segoe UI", sans-serif' font-size="11" style="font-variant-numeric: tabular-nums" fill="#898781">07-07</text>
<text x="605.8" y="322" text-anchor="middle" font-family='system-ui, -apple-system, "Segoe UI", sans-serif' font-size="11" style="font-variant-numeric: tabular-nums" fill="#898781">07-09</text>
<text x="696.1" y="322" text-anchor="middle" font-family='system-ui, -apple-system, "Segoe UI", sans-serif' font-size="11" style="font-variant-numeric: tabular-nums" fill="#898781">07-11</text>
<path d="M143.0,56.2 L154.3,56.2 L165.6,56.1 L176.9,61.2 L188.2,56.2 L199.5,56.2 L210.7,56.2 L222.0,56.2 L233.3,56.2 L244.6,56.2 L255.9,56.2 L267.2,56.2 L278.5,56.2 L289.8,56.2 L301.1,56.2 L312.3,56.2 L323.6,56.2 L334.9,56.2 L346.2,56.2 L357.5,60.8 L368.8,56.1 L380.1,56.1 L391.4,56.1 L402.6,56.1 L413.9,56.1 L425.2,60.6 L436.5,60.6 L447.8,56.1 L459.1,56.0 L470.4,56.0 L481.7,56.0 L492.9,56.0 L504.2,56.0 L515.5,56.0 L526.8,56.0 L538.1,56.0 L549.4,56.0 L560.7,56.0 L572.0,56.0 L583.3,56.0 L594.5,56.0 L605.8,56.0 L617.1,56.0 L628.4,61.0 L639.7,61.0 L651.0,61.0 L662.3,56.1 L673.6,61.3 L684.8,56.3 L696.1,56.4 L707.4,64.4 L718.7,64.4 L730.0,64.4" fill="none" stroke="#3987e5" stroke-width="2" stroke-linejoin="round" stroke-linecap="round"/>
<circle cx="730.0" cy="64.4" r="6" fill="#1a1a19"/>
<circle cx="730.0" cy="64.4" r="4" fill="#3987e5"/>
<path d="M64.0,246.7 L75.3,246.7 L86.6,246.7 L97.9,246.7 L109.2,246.7 L120.4,246.6 L131.7,246.6 L143.0,246.2 L154.3,246.3 L165.6,246.3 L176.9,246.3 L188.2,246.3 L199.5,246.3 L210.7,246.3 L222.0,246.3 L233.3,246.3 L244.6,246.3 L255.9,246.3 L267.2,251.7 L278.5,251.7 L289.8,251.7 L301.1,251.7 L312.3,251.7 L323.6,251.7 L334.9,251.7 L346.2,251.7 L357.5,251.7 L368.8,251.6 L380.1,251.6 L391.4,251.6 L402.6,251.6 L413.9,251.6 L425.2,251.6 L436.5,251.6 L447.8,251.6 L459.1,251.5 L470.4,251.5 L481.7,251.5 L492.9,251.5 L504.2,251.5 L515.5,251.5 L526.8,251.5 L538.1,251.5 L549.4,251.5 L560.7,251.5 L572.0,251.5 L583.3,251.5 L594.5,251.5 L605.8,251.5 L617.1,251.5 L628.4,251.6 L639.7,251.6 L651.0,251.6 L662.3,251.6 L673.6,251.9 L684.8,251.9 L696.1,251.9 L707.4,252.5 L718.7,252.5 L730.0,252.5" fill="none" stroke="#199e70" stroke-width="2" stroke-linejoin="round" stroke-linecap="round"/>
<circle cx="730.0" cy="252.5" r="6" fill="#1a1a19"/>
<circle cx="730.0" cy="252.5" r="4" fill="#199e70"/>
<path d="M86.6,97.2 L97.9,97.2 L109.2,97.2 L120.4,138.2 L131.7,138.2 L143.0,137.8 L154.3,137.8 L165.6,137.8 L176.9,137.9 L188.2,137.8 L199.5,137.9 L210.7,137.8 L222.0,137.8 L233.3,137.8 L244.6,137.8 L255.9,137.8 L267.2,142.4 L278.5,142.4 L289.8,142.4 L301.1,142.4 L312.3,142.4 L323.6,142.4 L334.9,142.4 L346.2,142.4 L357.5,142.4 L368.8,142.4 L380.1,142.4 L391.4,142.4 L402.6,142.4 L413.9,142.4 L425.2,142.3 L436.5,142.4 L447.8,142.3 L459.1,142.3 L470.4,142.3 L481.7,142.3 L492.9,142.3 L504.2,142.3 L515.5,142.3 L526.8,142.3 L538.1,142.3 L549.4,142.3 L560.7,142.3 L572.0,142.3 L583.3,142.3 L594.5,142.3 L605.8,142.3 L617.1,142.3 L628.4,142.3 L639.7,142.3 L651.0,142.3 L662.3,142.3 L673.6,142.6 L684.8,142.6 L696.1,142.7 L707.4,143.3 L718.7,143.3 L730.0,143.3" fill="none" stroke="#c98500" stroke-width="2" stroke-linejoin="round" stroke-linecap="round"/>
<circle cx="730.0" cy="143.3" r="6" fill="#1a1a19"/>
<circle cx="730.0" cy="143.3" r="4" fill="#c98500"/>
<path d="M64.0,195.3 L75.3,195.3 L86.6,195.4 L97.9,195.4 L109.2,195.4 L120.4,204.2 L131.7,204.1 L143.0,203.8 L154.3,203.8 L165.6,203.8 L176.9,203.9 L188.2,203.8 L199.5,203.8 L210.7,203.8 L222.0,203.8 L233.3,203.8 L244.6,203.8 L255.9,203.8 L267.2,208.4 L278.5,208.4 L289.8,208.4 L301.1,208.4 L312.3,208.4 L323.6,208.4 L334.9,208.4 L346.2,208.4 L357.5,208.5 L368.8,208.3 L380.1,208.3 L391.4,208.3 L402.6,208.3 L413.9,208.3 L425.2,208.3 L436.5,208.4 L447.8,208.4 L459.1,208.2 L470.4,208.2 L481.7,208.2 L492.9,208.2 L504.2,208.2 L515.5,208.2 L526.8,208.2 L538.1,208.2 L549.4,208.2 L560.7,208.2 L572.0,208.2 L583.3,208.2 L594.5,208.2 L605.8,208.2 L617.1,208.2 L628.4,208.4 L639.7,208.3 L651.0,208.3 L662.3,208.3 L673.6,208.6 L684.8,208.6 L696.1,208.6 L707.4,209.2 L718.7,209.2 L730.0,209.2" fill="none" stroke="#008300" stroke-width="2" stroke-linejoin="round" stroke-linecap="round"/>
<circle cx="730.0" cy="209.2" r="6" fill="#1a1a19"/>
<circle cx="730.0" cy="209.2" r="4" fill="#008300"/>
<path d="M639.7,229.0 L651.0,229.0 L662.3,229.1 L673.6,229.3 L684.8,229.3 L696.1,229.3 L707.4,229.9 L718.7,229.9 L730.0,229.9" fill="none" stroke="#9085e9" stroke-width="2" stroke-linejoin="round" stroke-linecap="round"/>
<circle cx="730.0" cy="229.9" r="6" fill="#1a1a19"/>
<circle cx="730.0" cy="229.9" r="4" fill="#9085e9"/>
<path d="M64.0,262.8 L75.3,262.8 L86.6,262.8 L97.9,262.8 L109.2,263.0 L120.4,263.2 L131.7,263.0 L143.0,262.4 L154.3,262.5 L165.6,262.4 L176.9,262.5 L188.2,262.5 L199.5,262.5 L210.7,262.5 L222.0,262.5 L233.3,262.5 L244.6,262.5 L255.9,262.5 L267.2,261.7 L278.5,261.7 L289.8,261.6 L301.1,261.4 L312.3,261.4 L323.6,261.4 L334.9,261.4 L346.2,261.4 L357.5,261.4 L368.8,261.3 L380.1,261.3 L391.4,261.3 L402.6,261.3 L413.9,261.3 L425.2,261.2 L436.5,261.3 L447.8,261.3 L459.1,261.0 L470.4,261.0 L481.7,261.1 L492.9,261.1 L504.2,261.1 L515.5,261.1 L526.8,261.1 L538.1,261.1 L549.4,261.1 L560.7,261.1 L572.0,261.1 L583.3,261.1 L594.5,261.1 L605.8,261.1 L617.1,261.1 L628.4,261.3 L639.7,261.2 L651.0,261.2 L662.3,261.3 L673.6,261.7 L684.8,261.8 L696.1,261.8 L707.4,263.1 L718.7,263.1 L730.0,263.1" fill="none" stroke="#e66767" stroke-width="2" stroke-linejoin="round" stroke-linecap="round"/>
<circle cx="730.0" cy="263.1" r="6" fill="#1a1a19"/>
<circle cx="730.0" cy="263.1" r="4" fill="#e66767"/>
<circle cx="745.0" cy="60.9" r="3.5" fill="#3987e5"/>
<text x="753.0" y="64.4" font-family='system-ui, -apple-system, "Segoe UI", sans-serif' font-size="11" fill="#ffffff">granulator</text>
<text x="753.0" y="76.4" font-family='system-ui, -apple-system, "Segoe UI", sans-serif' font-size="10" style="font-variant-numeric: tabular-nums" fill="#c3c2b7">27.5M</text>
<circle cx="745.0" cy="139.8" r="3.5" fill="#c98500"/>
<text x="753.0" y="143.3" font-family='system-ui, -apple-system, "Segoe UI", sans-serif' font-size="11" fill="#ffffff">resonator</text>
<text x="753.0" y="155.3" font-family='system-ui, -apple-system, "Segoe UI", sans-serif' font-size="10" style="font-variant-numeric: tabular-nums" fill="#c3c2b7">18.5M</text>
<circle cx="745.0" cy="205.7" r="3.5" fill="#008300"/>
<text x="753.0" y="209.2" font-family='system-ui, -apple-system, "Segoe UI", sans-serif' font-size="11" fill="#ffffff">reverb</text>
<text x="753.0" y="221.2" font-family='system-ui, -apple-system, "Segoe UI", sans-serif' font-size="10" style="font-variant-numeric: tabular-nums" fill="#c3c2b7">11.0M</text>
<line x1="736.0" y1="229.9" x2="740.0" y2="237.2" stroke="#383835" stroke-width="1"/>
<circle cx="745.0" cy="233.7" r="3.5" fill="#9085e9"/>
<text x="753.0" y="237.2" font-family='system-ui, -apple-system, "Segoe UI", sans-serif' font-size="11" fill="#ffffff">saturator</text>
<text x="753.0" y="249.2" font-family='system-ui, -apple-system, "Segoe UI", sans-serif' font-size="10" style="font-variant-numeric: tabular-nums" fill="#c3c2b7">8.66M</text>
<line x1="736.0" y1="252.5" x2="740.0" y2="265.2" stroke="#383835" stroke-width="1"/>
<circle cx="745.0" cy="261.7" r="3.5" fill="#199e70"/>
<text x="753.0" y="265.2" font-family='system-ui, -apple-system, "Segoe UI", sans-serif' font-size="11" fill="#ffffff">pan</text>
<text x="753.0" y="277.2" font-family='system-ui, -apple-system, "Segoe UI", sans-serif' font-size="10" style="font-variant-numeric: tabular-nums" fill="#c3c2b7">6.09M</text>
<line x1="736.0" y1="263.1" x2="740.0" y2="293.2" stroke="#383835" stroke-width="1"/>
<circle cx="745.0" cy="289.7" r="3.5" fill="#e66767"/>
<text x="753.0" y="293.2" font-family='system-ui, -apple-system, "Segoe UI", sans-serif' font-size="11" fill="#ffffff">sequencer</text>
<text x="753.0" y="305.2" font-family='system-ui, -apple-system, "Segoe UI", sans-serif' font-size="10" style="font-variant-numeric: tabular-nums" fill="#c3c2b7">4.89M</text>
</svg>