<svg xmlns="http://www.w3.org/2000/svg" width="880" height="340" viewBox="0 0 880 340" role="img" aria-label="Heaviest operators (micro)">
<rect width="880" height="340" rx="6" fill="#1a1a19"/>
<text x="64" y="24" font-family='system-ui, -apple-system, "Segoe UI", sans-serif' font-size="14" font-weight="600" fill="#ffffff">Heaviest operators (micro)</text>
<text x="64" y="41" font-family='system-ui, -apple-system, "Segoe UI", sans-serif' font-size="11" fill="#c3c2b7">per-operator step_node cost over the same 1 s schedule - top 6 by latest Ir</text>
<line x1="64" y1="306.0" x2="730" y2="306.0" stroke="#2c2c2a" stroke-width="1"/>
<text x="56" y="309.5" text-anchor="end" font-family='system-ui, -apple-system, "Segoe UI", sans-serif' font-size="11" style="font-variant-numeric: tabular-nums" fill="#898781">0</text>
<line x1="64" y1="215.1" x2="730" y2="215.1" stroke="#2c2c2a" stroke-width="1"/>
<text x="56" y="218.6" text-anchor="end" font-family='system-ui, -apple-system, "Segoe UI", sans-serif' font-size="11" style="font-variant-numeric: tabular-nums" fill="#898781">10</text>
<line x1="64" y1="124.2" x2="730" y2="124.2" stroke="#2c2c2a" stroke-width="1"/>
<text x="56" y="127.7" text-anchor="end" font-family='system-ui, -apple-system, "Segoe UI", sans-serif' font-size="11" style="font-variant-numeric: tabular-nums" fill="#898781">20</text>
<text x="56" y="46" text-anchor="end" font-family='system-ui, -apple-system, "Segoe UI", sans-serif' font-size="10" fill="#898781">Ir (M)</text>
<line x1="64" y1="306" x2="730" y2="306" stroke="#383835" stroke-width="1"/>
<text x="64.0" y="322" text-anchor="middle" font-family='system-ui, -apple-system, "Segoe UI", sans-serif' font-size="11" style="font-variant-numeric: tabular-nums" fill="#898781">07-12</text>
<text x="163.2" y="322" text-anchor="middle" font-family='system-ui, -apple-system, "Segoe UI", sans-serif' font-size="11" style="font-variant-numeric: tabular-nums" fill="#898781">07-14</text>
<text x="290.7" y="322" text-anchor="middle" font-family='system-ui, -apple-system, "Segoe UI", sans-serif' font-size="11" style="font-variant-numeric: tabular-nums" fill="#898781">07-17</text>
<text x="460.8" y="322" text-anchor="middle" font-family='system-ui, -apple-system, "Segoe UI", sans-serif' font-size="11" style="font-variant-numeric: tabular-nums" fill="#898781">07-19</text>
<text x="715.8" y="322" text-anchor="middle" font-family='system-ui, -apple-system, "Segoe UI", sans-serif' font-size="11" style="font-variant-numeric: tabular-nums" fill="#898781">07-21</text>
<path d="M503.3,217.9 L517.4,217.9 L531.6,217.9 L545.8,217.9 L560.0,217.9 L574.1,217.9 L588.3,217.9 L602.5,217.9 L616.6,217.9 L630.8,217.9 L645.0,218.0 L659.1,218.0 L673.3,218.0 L687.5,218.0 L701.7,218.0 L715.8,218.0 L730.0,218.0" fill="none" stroke="#3987e5" stroke-width="2" stroke-linejoin="round" stroke-linecap="round"/>
<circle cx="730.0" cy="218.0" r="6" fill="#1a1a19"/>
<circle cx="730.0" cy="218.0" r="4" fill="#3987e5"/>
<path d="M64.0,56.0 L78.2,56.0 L92.3,56.0 L106.5,56.0 L120.7,56.0 L134.9,56.0 L149.0,56.0 L163.2,56.0 L177.4,56.0 L191.5,56.0 L205.7,56.0 L219.9,56.0 L234.0,56.0 L248.2,56.0 L262.4,56.0 L276.6,56.0 L290.7,56.0 L304.9,56.0 L319.1,56.0 L333.2,56.0 L347.4,56.0 L361.6,56.0 L375.7,56.0 L389.9,56.0 L404.1,56.0 L418.3,56.0 L432.4,56.0 L446.6,56.0 L460.8,56.0 L474.9,56.0 L489.1,56.0 L503.3,56.0 L517.4,56.0 L531.6,56.0 L545.8,56.0 L560.0,56.0 L574.1,56.0 L588.3,56.0 L602.5,56.0 L616.6,56.0 L630.8,56.0 L645.0,56.1 L659.1,56.1 L673.3,56.1 L687.5,56.1 L701.7,56.1 L715.8,56.1 L730.0,56.1" fill="none" stroke="#199e70" stroke-width="2" stroke-linejoin="round" stroke-linecap="round"/>
<circle cx="730.0" cy="56.1" r="6" fill="#1a1a19"/>
<circle cx="730.0" cy="56.1" r="4" fill="#199e70"/>
<path d="M64.0,250.6 L78.2,250.6 L92.3,250.6 L106.5,250.6 L120.7,250.6 L134.9,250.6 L149.0,250.6 L163.2,250.6 L177.4,250.6 L191.5,250.6 L205.7,250.6 L219.9,250.6 L234.0,250.6 L248.2,250.6 L262.4,250.6 L276.6,250.6 L290.7,250.6 L304.9,250.6 L319.1,250.6 L333.2,250.6 L347.4,250.6 L361.6,250.6 L375.7,250.6 L389.9,250.6 L404.1,250.6 L418.3,250.6 L432.4,250.6 L446.6,250.6 L460.8,250.6 L474.9,250.6 L489.1,250.6 L503.3,250.6 L517.4,250.6 L531.6,250.7 L545.8,250.7 L560.0,250.7 L574.1,250.7 L588.3,250.7 L602.5,250.7 L616.6,250.7 L630.8,250.7 L645.0,250.7 L659.1,250.7 L673.3,250.7 L687.5,250.7 L701.7,250.7 L715.8,250.7 L730.0,250.7" fill="none" stroke="#c98500" stroke-width="2" stroke-linejoin="round" stroke-linecap="round"/>
<circle cx="730.0" cy="250.7" r="6" fill="#1a1a19"/>
<circle cx="730.0" cy="250.7" r="4" fill="#c98500"/>
<path d="M64.0,137.6 L78.2,137.6 L92.3,137.6 L106.5,137.6 L120.7,137.6 L134.9,137.6 L149.0,138.4 L163.2,138.4 L177.4,138.4 L191.5,138.4 L205.7,138.4 L219.9,138.4 L234.0,138.4 L248.2,138.4 L262.4,138.4 L276.6,138.4 L290.7,138.4 L304.9,138.4 L319.1,138.4 L333.2,138.4 L347.4,138.4 L361.6,138.4 L375.7,138.4 L389.9,138.4 L404.1,138.4 L418.3,138.4 L432.4,138.4 L446.6,138.4 L460.8,138.4 L474.9,138.4 L489.1,138.4 L503.3,138.4 L517.4,138.4 L531.6,138.4 L545.8,138.4 L560.0,138.4 L574.1,138.4 L588.3,138.4 L602.5,138.4 L616.6,138.4 L630.8,138.4 L645.0,138.5 L659.1,138.5 L673.3,138.5 L687.5,138.5 L701.7,138.5 L715.8,138.5 L730.0,138.5" fill="none" stroke="#008300" stroke-width="2" stroke-linejoin="round" stroke-linecap="round"/>
<circle cx="730.0" cy="138.5" r="6" fill="#1a1a19"/>
<circle cx="730.0" cy="138.5" r="4" fill="#008300"/>
<path d="M64.0,205.9 L78.2,205.9 L92.3,205.9 L106.5,205.9 L120.7,205.9 L134.9,205.9 L149.0,205.9 L163.2,205.9 L177.4,205.9 L191.5,205.9 L205.7,205.9 L219.9,205.9 L234.0,205.9 L248.2,205.9 L262.4,205.9 L276.6,205.9 L290.7,205.9 L304.9,205.9 L319.1,205.9 L333.2,205.9 L347.4,205.9 L361.6,205.9 L375.7,205.9 L389.9,205.9 L404.1,205.9 L418.3,205.9 L432.4,205.9 L446.6,205.9 L460.8,205.9 L474.9,205.9 L489.1,205.9 L503.3,205.9 L517.4,205.9 L531.6,205.9 L545.8,205.9 L560.0,205.9 L574.1,205.9 L588.3,205.9 L602.5,205.9 L616.6,205.9 L630.8,205.9 L645.0,205.9 L659.1,205.9 L673.3,205.9 L687.5,205.9 L701.7,205.9 L715.8,205.9 L730.0,205.9" fill="none" stroke="#9085e9" stroke-width="2" stroke-linejoin="round" stroke-linecap="round"/>
<circle cx="730.0" cy="205.9" r="6" fill="#1a1a19"/>
<circle cx="730.0" cy="205.9" r="4" fill="#9085e9"/>
<path d="M64.0,227.3 L78.2,227.3 L92.3,227.3 L106.5,227.3 L120.7,227.3 L134.9,227.3 L149.0,227.3 L163.2,227.3 L177.4,227.3 L191.5,227.3 L205.7,227.3 L219.9,227.3 L234.0,227.3 L248.2,227.3 L262.4,227.3 L276.6,227.3 L290.7,227.3 L304.9,227.3 L319.1,227.3 L333.2,227.3 L347.4,227.3 L361.6,227.3 L375.7,227.3 L389.9,227.3 L404.1,227.3 L418.3,227.3 L432.4,227.3 L446.6,227.3 L460.8,227.3 L474.9,227.3 L489.1,227.3 L503.3,227.3 L517.4,227.3 L531.6,227.3 L545.8,227.3 L560.0,227.3 L574.1,227.3 L588.3,227.3 L602.5,227.3 L616.6,227.3 L630.8,227.3 L645.0,227.3 L659.1,227.3 L673.3,227.3 L687.5,227.3 L701.7,227.3 L715.8,227.3 L730.0,227.3" fill="none" stroke="#e66767" stroke-width="2" stroke-linejoin="round" stroke-linecap="round"/>
<circle cx="730.0" cy="227.3" r="6" fill="#1a1a19"/>
<circle cx="730.0" cy="227.3" r="4" fill="#e66767"/>
<circle cx="745.0" cy="52.6" r="3.5" fill="#199e70"/>
<text x="753.0" y="56.1" font-family='system-ui, -apple-system, "Segoe UI", sans-serif' font-size="11" fill="#ffffff">granulator</text>
<text x="753.0" y="68.1" font-family='system-ui, -apple-system, "Segoe UI", sans-serif' font-size="10" style="font-variant-numeric: tabular-nums" fill="#c3c2b7">27.5M</text>
<circle cx="745.0" cy="135.0" r="3.5" fill="#008300"/>
<text x="753.0" y="138.5" font-family='system-ui, -apple-system, "Segoe UI", sans-serif' font-size="11" fill="#ffffff">resonator</text>
<text x="753.0" y="150.5" font-family='system-ui, -apple-system, "Segoe UI", sans-serif' font-size="10" style="font-variant-numeric: tabular-nums" fill="#c3c2b7">18.4M</text>
<circle cx="745.0" cy="202.4" r="3.5" fill="#9085e9"/>
<text x="753.0" y="205.9" font-family='system-ui, -apple-system, "Segoe UI", sans-serif' font-size="11" fill="#ffffff">reverb</text>
<text x="753.0" y="217.9" font-family='system-ui, -apple-system, "Segoe UI", sans-serif' font-size="10" style="font-variant-numeric: tabular-nums" fill="#c3c2b7">11.0M</text>
<line x1="736.0" y1="218.0" x2="740.0" y2="233.9" stroke="#383835" stroke-width="1"/>
<circle cx="745.0" cy="230.4" r="3.5" fill="#3987e5"/>
<text x="753.0" y="233.9" font-family='system-ui, -apple-system, "Segoe UI", sans-serif' font-size="11" fill="#ffffff">compressor</text>
<text x="753.0" y="245.9" font-family='system-ui, -apple-system, "Segoe UI", sans-serif' font-size="10" style="font-variant-numeric: tabular-nums" fill="#c3c2b7">9.68M</text>
<line x1="736.0" y1="227.3" x2="740.0" y2="261.9" stroke="#383835" stroke-width="1"/>
<circle cx="745.0" cy="258.4" r="3.5" fill="#e66767"/>
<text x="753.0" y="261.9" font-family='system-ui, -apple-system, "Segoe UI", sans-serif' font-size="11" fill="#ffffff">saturator</text>
<text x="753.0" y="273.9" font-family='system-ui, -apple-system, "Segoe UI", sans-serif' font-size="10" style="font-variant-numeric: tabular-nums" fill="#c3c2b7">8.65M</text>
<line x1="736.0" y1="250.7" x2="740.0" y2="289.9" stroke="#383835" stroke-width="1"/>
<circle cx="745.0" cy="286.4" r="3.5" fill="#c98500"/>
<text x="753.0" y="289.9" font-family='system-ui, -apple-system, "Segoe UI", sans-serif' font-size="11" fill="#ffffff">pan</text>
<text x="753.0" y="301.9" font-family='system-ui, -apple-system, "Segoe UI", sans-serif' font-size="10" style="font-variant-numeric: tabular-nums" fill="#c3c2b7">6.08M</text>
</svg>