<svg xmlns="http://www.w3.org/2000/svg" width="880" height="340" viewBox="0 0 880 340" role="img" aria-label="Heaviest operators (micro)">
<rect width="880" height="340" rx="6" fill="#fcfcfb"/>
<text x="64" y="24" font-family='system-ui, -apple-system, "Segoe UI", sans-serif' font-size="14" font-weight="600" fill="#0b0b0b">Heaviest operators (micro)</text>
<text x="64" y="41" font-family='system-ui, -apple-system, "Segoe UI", sans-serif' font-size="11" fill="#52514e">per-operator step_node cost over the same 1 s schedule - top 6 by latest Ir</text>
<line x1="64" y1="306.0" x2="730" y2="306.0" stroke="#e1e0d9" stroke-width="1"/>
<text x="56" y="309.5" text-anchor="end" font-family='system-ui, -apple-system, "Segoe UI", sans-serif' font-size="11" style="font-variant-numeric: tabular-nums" fill="#898781">0</text>
<line x1="64" y1="215.5" x2="730" y2="215.5" stroke="#e1e0d9" stroke-width="1"/>
<text x="56" y="219.0" text-anchor="end" font-family='system-ui, -apple-system, "Segoe UI", sans-serif' font-size="11" style="font-variant-numeric: tabular-nums" fill="#898781">10</text>
<line x1="64" y1="125.0" x2="730" y2="125.0" stroke="#e1e0d9" stroke-width="1"/>
<text x="56" y="128.5" text-anchor="end" font-family='system-ui, -apple-system, "Segoe UI", sans-serif' font-size="11" style="font-variant-numeric: tabular-nums" fill="#898781">20</text>
<text x="56" y="46" text-anchor="end" font-family='system-ui, -apple-system, "Segoe UI", sans-serif' font-size="10" fill="#898781">Ir (M)</text>
<line x1="64" y1="306" x2="730" y2="306" stroke="#c3c2b7" stroke-width="1"/>
<text x="64.0" y="322" text-anchor="middle" font-family='system-ui, -apple-system, "Segoe UI", sans-serif' font-size="11" style="font-variant-numeric: tabular-nums" fill="#898781">07-12</text>
<text x="139.2" y="322" text-anchor="middle" font-family='system-ui, -apple-system, "Segoe UI", sans-serif' font-size="11" style="font-variant-numeric: tabular-nums" fill="#898781">07-14</text>
<text x="235.9" y="322" text-anchor="middle" font-family='system-ui, -apple-system, "Segoe UI", sans-serif' font-size="11" style="font-variant-numeric: tabular-nums" fill="#898781">07-17</text>
<text x="364.8" y="322" text-anchor="middle" font-family='system-ui, -apple-system, "Segoe UI", sans-serif' font-size="11" style="font-variant-numeric: tabular-nums" fill="#898781">07-19</text>
<text x="558.1" y="322" text-anchor="middle" font-family='system-ui, -apple-system, "Segoe UI", sans-serif' font-size="11" style="font-variant-numeric: tabular-nums" fill="#898781">07-21</text>
<path d="M397.0,218.3 L407.7,218.3 L418.5,218.3 L429.2,218.3 L440.0,218.3 L450.7,218.3 L461.5,218.3 L472.2,218.3 L482.9,218.3 L493.7,218.3 L504.4,218.4 L515.2,218.4 L525.9,218.4 L536.6,218.4 L547.4,218.4 L558.1,218.4 L568.9,218.4 L579.6,218.4 L590.4,218.4 L601.1,218.4 L611.8,218.4 L622.6,218.4 L633.3,218.4 L644.1,218.4 L654.8,218.5 L665.5,218.5 L676.3,218.5 L687.0,218.5 L697.8,218.5 L708.5,218.5 L719.3,218.5 L730.0,218.5" fill="none" stroke="#2a78d6" stroke-width="2" stroke-linejoin="round" stroke-linecap="round"/>
<circle cx="730.0" cy="218.5" r="6" fill="#fcfcfb"/>
<circle cx="730.0" cy="218.5" r="4" fill="#2a78d6"/>
<path d="M64.0,57.2 L74.7,57.2 L85.5,57.2 L96.2,57.2 L107.0,57.2 L117.7,57.2 L128.5,57.2 L139.2,57.2 L149.9,57.2 L160.7,57.2 L171.4,57.2 L182.2,57.2 L192.9,57.2 L203.6,57.2 L214.4,57.2 L225.1,57.2 L235.9,57.2 L246.6,57.2 L257.4,57.2 L268.1,57.2 L278.8,57.2 L289.6,57.2 L300.3,57.2 L311.1,57.2 L321.8,57.2 L332.5,57.2 L343.3,57.2 L354.0,57.2 L364.8,57.2 L375.5,57.2 L386.3,57.2 L397.0,57.2 L407.7,57.2 L418.5,57.2 L429.2,57.2 L440.0,57.2 L450.7,57.2 L461.5,57.2 L472.2,57.2 L482.9,57.2 L493.7,57.2 L504.4,57.2 L515.2,57.2 L525.9,57.2 L536.6,57.2 L547.4,57.2 L558.1,57.2 L568.9,57.2 L579.6,57.2 L590.4,57.2 L601.1,57.2 L611.8,57.2 L622.6,57.2 L633.3,57.2 L644.1,57.2 L654.8,57.2 L665.5,56.0 L676.3,56.0 L687.0,56.0 L697.8,56.0 L708.5,56.0 L719.3,56.0 L730.0,56.0" fill="none" stroke="#1baf7a" stroke-width="2" stroke-linejoin="round" stroke-linecap="round"/>
<circle cx="730.0" cy="56.0" r="6" fill="#fcfcfb"/>
<circle cx="730.0" cy="56.0" r="4" fill="#1baf7a"/>
<path d="M64.0,250.9 L74.7,250.9 L85.5,250.9 L96.2,250.9 L107.0,250.9 L117.7,250.9 L128.5,250.9 L139.2,250.9 L149.9,250.9 L160.7,250.9 L171.4,250.9 L182.2,250.9 L192.9,250.9 L203.6,250.9 L214.4,250.9 L225.1,250.9 L235.9,250.9 L246.6,250.9 L257.4,250.9 L268.1,250.9 L278.8,250.9 L289.6,250.9 L300.3,250.9 L311.1,250.9 L321.8,250.9 L332.5,250.9 L343.3,250.9 L354.0,250.9 L364.8,250.9 L375.5,250.9 L386.3,250.9 L397.0,250.9 L407.7,250.9 L418.5,250.9 L429.2,250.9 L440.0,250.9 L450.7,250.9 L461.5,250.9 L472.2,250.9 L482.9,250.9 L493.7,250.9 L504.4,250.9 L515.2,250.9 L525.9,250.9 L536.6,250.9 L547.4,250.9 L558.1,250.9 L568.9,250.9 L579.6,250.9 L590.4,250.9 L601.1,250.9 L611.8,250.9 L622.6,250.9 L633.3,250.9 L644.1,250.9 L654.8,250.9 L665.5,251.0 L676.3,251.0 L687.0,251.0 L697.8,251.0 L708.5,251.0 L719.3,251.0 L730.0,251.0" fill="none" stroke="#eda100" stroke-width="2" stroke-linejoin="round" stroke-linecap="round"/>
<circle cx="730.0" cy="251.0" r="6" fill="#fcfcfb"/>
<circle cx="730.0" cy="251.0" r="4" fill="#eda100"/>
<path d="M64.0,138.4 L74.7,138.4 L85.5,138.4 L96.2,138.4 L107.0,138.4 L117.7,138.4 L128.5,139.2 L139.2,139.2 L149.9,139.2 L160.7,139.2 L171.4,139.2 L182.2,139.2 L192.9,139.2 L203.6,139.2 L214.4,139.2 L225.1,139.2 L235.9,139.2 L246.6,139.2 L257.4,139.2 L268.1,139.2 L278.8,139.2 L289.6,139.2 L300.3,139.2 L311.1,139.2 L321.8,139.2 L332.5,139.2 L343.3,139.2 L354.0,139.2 L364.8,139.2 L375.5,139.2 L386.3,139.2 L397.0,139.2 L407.7,139.2 L418.5,139.2 L429.2,139.2 L440.0,139.2 L450.7,139.2 L461.5,139.2 L472.2,139.2 L482.9,139.2 L493.7,139.2 L504.4,139.3 L515.2,139.3 L525.9,139.3 L536.6,139.3 L547.4,139.3 L558.1,139.3 L568.9,139.3 L579.6,139.3 L590.4,139.3 L601.1,139.3 L611.8,139.2 L622.6,139.2 L633.3,139.2 L644.1,139.2 L654.8,139.2 L665.5,139.2 L676.3,139.2 L687.0,139.2 L697.8,139.2 L708.5,139.2 L719.3,139.2 L730.0,139.2" fill="none" stroke="#008300" stroke-width="2" stroke-linejoin="round" stroke-linecap="round"/>
<circle cx="730.0" cy="139.2" r="6" fill="#fcfcfb"/>
<circle cx="730.0" cy="139.2" r="4" fill="#008300"/>
<path d="M64.0,206.3 L74.7,206.3 L85.5,206.3 L96.2,206.3 L107.0,206.3 L117.7,206.3 L128.5,206.3 L139.2,206.3 L149.9,206.3 L160.7,206.3 L171.4,206.3 L182.2,206.3 L192.9,206.3 L203.6,206.3 L214.4,206.3 L225.1,206.3 L235.9,206.3 L246.6,206.3 L257.4,206.3 L268.1,206.3 L278.8,206.3 L289.6,206.3 L300.3,206.3 L311.1,206.3 L321.8,206.3 L332.5,206.3 L343.3,206.3 L354.0,206.3 L364.8,206.3 L375.5,206.3 L386.3,206.4 L397.0,206.4 L407.7,206.4 L418.5,206.4 L429.2,206.4 L440.0,206.4 L450.7,206.4 L461.5,206.4 L472.2,206.4 L482.9,206.4 L493.7,206.4 L504.4,206.3 L515.2,206.3 L525.9,206.3 L536.6,206.3 L547.4,206.3 L558.1,206.3 L568.9,206.3 L579.6,206.3 L590.4,206.3 L601.1,206.3 L611.8,206.4 L622.6,206.4 L633.3,206.4 L644.1,206.4 L654.8,206.4 L665.5,206.4 L676.3,206.4 L687.0,206.4 L697.8,206.4 L708.5,206.4 L719.3,206.4 L730.0,206.4" fill="none" stroke="#4a3aa7" stroke-width="2" stroke-linejoin="round" stroke-linecap="round"/>
<circle cx="730.0" cy="206.4" r="6" fill="#fcfcfb"/>
<circle cx="730.0" cy="206.4" r="4" fill="#4a3aa7"/>
<path d="M64.0,227.7 L74.7,227.7 L85.5,227.7 L96.2,227.7 L107.0,227.7 L117.7,227.7 L128.5,227.7 L139.2,227.7 L149.9,227.7 L160.7,227.7 L171.4,227.7 L182.2,227.7 L192.9,227.7 L203.6,227.7 L214.4,227.7 L225.1,227.7 L235.9,227.7 L246.6,227.7 L257.4,227.7 L268.1,227.7 L278.8,227.7 L289.6,227.7 L300.3,227.7 L311.1,227.7 L321.8,227.7 L332.5,227.7 L343.3,227.7 L354.0,227.7 L364.8,227.7 L375.5,227.7 L386.3,227.7 L397.0,227.7 L407.7,227.7 L418.5,227.7 L429.2,227.7 L440.0,227.7 L450.7,227.7 L461.5,227.7 L472.2,227.7 L482.9,227.7 L493.7,227.7 L504.4,227.7 L515.2,227.7 L525.9,227.7 L536.6,227.7 L547.4,227.7 L558.1,227.7 L568.9,227.7 L579.6,227.7 L590.4,227.7 L601.1,227.7 L611.8,227.7 L622.6,227.7 L633.3,227.7 L644.1,227.7 L654.8,227.7 L665.5,227.7 L676.3,227.7 L687.0,227.7 L697.8,227.7 L708.5,227.7 L719.3,227.7 L730.0,227.7" fill="none" stroke="#e34948" stroke-width="2" stroke-linejoin="round" stroke-linecap="round"/>
<circle cx="730.0" cy="227.7" r="6" fill="#fcfcfb"/>
<circle cx="730.0" cy="227.7" r="4" fill="#e34948"/>
<circle cx="745.0" cy="52.5" r="3.5" fill="#1baf7a"/>
<text x="753.0" y="56.0" font-family='system-ui, -apple-system, "Segoe UI", sans-serif' font-size="11" fill="#0b0b0b">granulator</text>
<text x="753.0" y="68.0" font-family='system-ui, -apple-system, "Segoe UI", sans-serif' font-size="10" style="font-variant-numeric: tabular-nums" fill="#52514e">27.6M</text>
<circle cx="745.0" cy="135.7" r="3.5" fill="#008300"/>
<text x="753.0" y="139.2" font-family='system-ui, -apple-system, "Segoe UI", sans-serif' font-size="11" fill="#0b0b0b">resonator</text>
<text x="753.0" y="151.2" font-family='system-ui, -apple-system, "Segoe UI", sans-serif' font-size="10" style="font-variant-numeric: tabular-nums" fill="#52514e">18.4M</text>
<circle cx="745.0" cy="202.9" r="3.5" fill="#4a3aa7"/>
<text x="753.0" y="206.4" font-family='system-ui, -apple-system, "Segoe UI", sans-serif' font-size="11" fill="#0b0b0b">reverb</text>
<text x="753.0" y="218.4" font-family='system-ui, -apple-system, "Segoe UI", sans-serif' font-size="10" style="font-variant-numeric: tabular-nums" fill="#52514e">11.0M</text>
<line x1="736.0" y1="218.5" x2="740.0" y2="234.4" stroke="#c3c2b7" stroke-width="1"/>
<circle cx="745.0" cy="230.9" r="3.5" fill="#2a78d6"/>
<text x="753.0" y="234.4" font-family='system-ui, -apple-system, "Segoe UI", sans-serif' font-size="11" fill="#0b0b0b">compressor</text>
<text x="753.0" y="246.4" font-family='system-ui, -apple-system, "Segoe UI", sans-serif' font-size="10" style="font-variant-numeric: tabular-nums" fill="#52514e">9.67M</text>
<line x1="736.0" y1="227.7" x2="740.0" y2="262.4" stroke="#c3c2b7" stroke-width="1"/>
<circle cx="745.0" cy="258.9" r="3.5" fill="#e34948"/>
<text x="753.0" y="262.4" font-family='system-ui, -apple-system, "Segoe UI", sans-serif' font-size="11" fill="#0b0b0b">saturator</text>
<text x="753.0" y="274.4" font-family='system-ui, -apple-system, "Segoe UI", sans-serif' font-size="10" style="font-variant-numeric: tabular-nums" fill="#52514e">8.65M</text>
<line x1="736.0" y1="251.0" x2="740.0" y2="290.4" stroke="#c3c2b7" stroke-width="1"/>
<circle cx="745.0" cy="286.9" r="3.5" fill="#eda100"/>
<text x="753.0" y="290.4" font-family='system-ui, -apple-system, "Segoe UI", sans-serif' font-size="11" fill="#0b0b0b">pan</text>
<text x="753.0" y="302.4" font-family='system-ui, -apple-system, "Segoe UI", sans-serif' font-size="10" style="font-variant-numeric: tabular-nums" fill="#52514e">6.08M</text>
</svg>