<svg xmlns="http://www.w3.org/2000/svg" width="880" height="340" viewBox="0 0 880 340" role="img" aria-label="Heaviest operators (micro)">
<rect width="880" height="340" rx="6" fill="#fcfcfb"/>
<text x="64" y="24" font-family='system-ui, -apple-system, "Segoe UI", sans-serif' font-size="14" font-weight="600" fill="#0b0b0b">Heaviest operators (micro)</text>
<text x="64" y="41" font-family='system-ui, -apple-system, "Segoe UI", sans-serif' font-size="11" fill="#52514e">per-operator step_node cost over the same 1 s schedule - top 6 by latest Ir</text>
<line x1="64" y1="306.0" x2="730" y2="306.0" stroke="#e1e0d9" stroke-width="1"/>
<text x="56" y="309.5" text-anchor="end" font-family='system-ui, -apple-system, "Segoe UI", sans-serif' font-size="11" style="font-variant-numeric: tabular-nums" fill="#898781">0</text>
<line x1="64" y1="218.1" x2="730" y2="218.1" stroke="#e1e0d9" stroke-width="1"/>
<text x="56" y="221.6" text-anchor="end" font-family='system-ui, -apple-system, "Segoe UI", sans-serif' font-size="11" style="font-variant-numeric: tabular-nums" fill="#898781">10</text>
<line x1="64" y1="130.3" x2="730" y2="130.3" stroke="#e1e0d9" stroke-width="1"/>
<text x="56" y="133.8" text-anchor="end" font-family='system-ui, -apple-system, "Segoe UI", sans-serif' font-size="11" style="font-variant-numeric: tabular-nums" fill="#898781">20</text>
<text x="56" y="46" text-anchor="end" font-family='system-ui, -apple-system, "Segoe UI", sans-serif' font-size="10" fill="#898781">Ir (M)</text>
<line x1="64" y1="306" x2="730" y2="306" stroke="#c3c2b7" stroke-width="1"/>
<text x="64.0" y="322" text-anchor="middle" font-family='system-ui, -apple-system, "Segoe UI", sans-serif' font-size="11" style="font-variant-numeric: tabular-nums" fill="#898781">06-28</text>
<text x="161.5" y="322" text-anchor="middle" font-family='system-ui, -apple-system, "Segoe UI", sans-serif' font-size="11" style="font-variant-numeric: tabular-nums" fill="#898781">06-30</text>
<text x="242.7" y="322" text-anchor="middle" font-family='system-ui, -apple-system, "Segoe UI", sans-serif' font-size="11" style="font-variant-numeric: tabular-nums" fill="#898781">07-02</text>
<text x="421.4" y="322" text-anchor="middle" font-family='system-ui, -apple-system, "Segoe UI", sans-serif' font-size="11" style="font-variant-numeric: tabular-nums" fill="#898781">07-04</text>
<text x="681.3" y="322" text-anchor="middle" font-family='system-ui, -apple-system, "Segoe UI", sans-serif' font-size="11" style="font-variant-numeric: tabular-nums" fill="#898781">07-07</text>
<path d="M177.7,56.2 L194.0,56.2 L210.2,56.1 L226.4,61.2 L242.7,56.2 L258.9,56.2 L275.2,56.2 L291.4,56.2 L307.7,56.2 L323.9,56.2 L340.1,56.2 L356.4,56.2 L372.6,56.2 L388.9,56.2 L405.1,56.2 L421.4,56.2 L437.6,56.2 L453.9,56.2 L470.1,56.2 L486.3,60.8 L502.6,56.1 L518.8,56.1 L535.1,56.1 L551.3,56.1 L567.6,56.1 L583.8,60.6 L600.0,60.6 L616.3,56.1 L632.5,56.0 L648.8,56.0 L665.0,56.0 L681.3,56.0 L697.5,56.0 L713.8,56.0 L730.0,56.0" fill="none" stroke="#2a78d6" stroke-width="2" stroke-linejoin="round" stroke-linecap="round"/>
<circle cx="730.0" cy="56.0" r="6" fill="#fcfcfb"/>
<circle cx="730.0" cy="56.0" r="4" fill="#2a78d6"/>
<path d="M64.0,264.6 L80.2,264.6 L96.5,264.6 L112.7,264.6 L129.0,264.6 L145.2,266.2 L161.5,265.8 L177.7,265.4 L194.0,265.5 L210.2,265.4 L226.4,265.4 L242.7,265.5 L258.9,265.4 L275.2,265.5 L291.4,265.5 L307.7,265.5 L323.9,265.5 L340.1,265.5 L356.4,265.0 L372.6,265.0 L388.9,265.0 L405.1,265.0 L421.4,265.0 L437.6,265.0 L453.9,265.0 L470.1,265.0 L486.3,265.0 L502.6,264.9 L518.8,264.9 L535.1,264.9 L551.3,264.9 L567.6,264.9 L583.8,264.9 L600.0,264.9 L616.3,264.9 L632.5,264.8 L648.8,264.8 L665.0,264.8 L681.3,264.8 L697.5,264.8 L713.8,264.8 L730.0,264.8" fill="none" stroke="#1baf7a" stroke-width="2" stroke-linejoin="round" stroke-linecap="round"/>
<circle cx="730.0" cy="264.8" r="6" fill="#fcfcfb"/>
<circle cx="730.0" cy="264.8" r="4" fill="#1baf7a"/>
<path d="M64.0,246.7 L80.2,246.7 L96.5,246.7 L112.7,246.7 L129.0,246.7 L145.2,246.6 L161.5,246.6 L177.7,246.2 L194.0,246.3 L210.2,246.3 L226.4,246.3 L242.7,246.3 L258.9,246.3 L275.2,246.3 L291.4,246.3 L307.7,246.3 L323.9,246.3 L340.1,246.3 L356.4,251.7 L372.6,251.7 L388.9,251.7 L405.1,251.7 L421.4,251.7 L437.6,251.7 L453.9,251.7 L470.1,251.7 L486.3,251.7 L502.6,251.6 L518.8,251.6 L535.1,251.6 L551.3,251.6 L567.6,251.6 L583.8,251.6 L600.0,251.6 L616.3,251.6 L632.5,251.5 L648.8,251.5 L665.0,251.5 L681.3,251.5 L697.5,251.5 L713.8,251.5 L730.0,251.5" fill="none" stroke="#eda100" stroke-width="2" stroke-linejoin="round" stroke-linecap="round"/>
<circle cx="730.0" cy="251.5" r="6" fill="#fcfcfb"/>
<circle cx="730.0" cy="251.5" r="4" fill="#eda100"/>
<path d="M96.5,97.2 L112.7,97.2 L129.0,97.2 L145.2,138.2 L161.5,138.2 L177.7,137.8 L194.0,137.8 L210.2,137.8 L226.4,137.9 L242.7,137.8 L258.9,137.9 L275.2,137.8 L291.4,137.8 L307.7,137.8 L323.9,137.8 L340.1,137.8 L356.4,142.4 L372.6,142.4 L388.9,142.4 L405.1,142.4 L421.4,142.4 L437.6,142.4 L453.9,142.4 L470.1,142.4 L486.3,142.4 L502.6,142.4 L518.8,142.4 L535.1,142.4 L551.3,142.4 L567.6,142.4 L583.8,142.3 L600.0,142.4 L616.3,142.3 L632.5,142.3 L648.8,142.3 L665.0,142.3 L681.3,142.3 L697.5,142.3 L713.8,142.3 L730.0,142.3" fill="none" stroke="#008300" stroke-width="2" stroke-linejoin="round" stroke-linecap="round"/>
<circle cx="730.0" cy="142.3" r="6" fill="#fcfcfb"/>
<circle cx="730.0" cy="142.3" r="4" fill="#008300"/>
<path d="M64.0,195.3 L80.2,195.3 L96.5,195.4 L112.7,195.4 L129.0,195.4 L145.2,204.2 L161.5,204.1 L177.7,203.8 L194.0,203.8 L210.2,203.8 L226.4,203.9 L242.7,203.8 L258.9,203.8 L275.2,203.8 L291.4,203.8 L307.7,203.8 L323.9,203.8 L340.1,203.8 L356.4,208.4 L372.6,208.4 L388.9,208.4 L405.1,208.4 L421.4,208.4 L437.6,208.4 L453.9,208.4 L470.1,208.4 L486.3,208.5 L502.6,208.3 L518.8,208.3 L535.1,208.3 L551.3,208.3 L567.6,208.3 L583.8,208.3 L600.0,208.4 L616.3,208.4 L632.5,208.2 L648.8,208.2 L665.0,208.2 L681.3,208.2 L697.5,208.2 L713.8,208.2 L730.0,208.2" fill="none" stroke="#4a3aa7" stroke-width="2" stroke-linejoin="round" stroke-linecap="round"/>
<circle cx="730.0" cy="208.2" r="6" fill="#fcfcfb"/>
<circle cx="730.0" cy="208.2" r="4" fill="#4a3aa7"/>
<path d="M64.0,262.8 L80.2,262.8 L96.5,262.8 L112.7,262.8 L129.0,263.0 L145.2,263.2 L161.5,263.0 L177.7,262.4 L194.0,262.5 L210.2,262.4 L226.4,262.5 L242.7,262.5 L258.9,262.5 L275.2,262.5 L291.4,262.5 L307.7,262.5 L323.9,262.5 L340.1,262.5 L356.4,261.7 L372.6,261.7 L388.9,261.6 L405.1,261.4 L421.4,261.4 L437.6,261.4 L453.9,261.4 L470.1,261.4 L486.3,261.4 L502.6,261.3 L518.8,261.3 L535.1,261.3 L551.3,261.3 L567.6,261.3 L583.8,261.2 L600.0,261.3 L616.3,261.3 L632.5,261.0 L648.8,261.0 L665.0,261.1 L681.3,261.1 L697.5,261.1 L713.8,261.1 L730.0,261.1" fill="none" stroke="#e34948" stroke-width="2" stroke-linejoin="round" stroke-linecap="round"/>
<circle cx="730.0" cy="261.1" r="6" fill="#fcfcfb"/>
<circle cx="730.0" cy="261.1" r="4" fill="#e34948"/>
<circle cx="745.0" cy="52.5" r="3.5" fill="#2a78d6"/>
<text x="753.0" y="56.0" font-family='system-ui, -apple-system, "Segoe UI", sans-serif' font-size="11" fill="#0b0b0b">granulator</text>
<text x="753.0" y="68.0" font-family='system-ui, -apple-system, "Segoe UI", sans-serif' font-size="10" style="font-variant-numeric: tabular-nums" fill="#52514e">28.5M</text>
<circle cx="745.0" cy="138.8" r="3.5" fill="#008300"/>
<text x="753.0" y="142.3" font-family='system-ui, -apple-system, "Segoe UI", sans-serif' font-size="11" fill="#0b0b0b">resonator</text>
<text x="753.0" y="154.3" font-family='system-ui, -apple-system, "Segoe UI", sans-serif' font-size="10" style="font-variant-numeric: tabular-nums" fill="#52514e">18.6M</text>
<circle cx="745.0" cy="204.7" r="3.5" fill="#4a3aa7"/>
<text x="753.0" y="208.2" font-family='system-ui, -apple-system, "Segoe UI", sans-serif' font-size="11" fill="#0b0b0b">reverb</text>
<text x="753.0" y="220.2" font-family='system-ui, -apple-system, "Segoe UI", sans-serif' font-size="10" style="font-variant-numeric: tabular-nums" fill="#52514e">11.1M</text>
<circle cx="745.0" cy="248.0" r="3.5" fill="#eda100"/>
<text x="753.0" y="251.5" font-family='system-ui, -apple-system, "Segoe UI", sans-serif' font-size="11" fill="#0b0b0b">pan</text>
<text x="753.0" y="263.5" font-family='system-ui, -apple-system, "Segoe UI", sans-serif' font-size="10" style="font-variant-numeric: tabular-nums" fill="#52514e">6.20M</text>
<line x1="736.0" y1="261.1" x2="740.0" y2="279.5" stroke="#c3c2b7" stroke-width="1"/>
<circle cx="745.0" cy="276.0" r="3.5" fill="#e34948"/>
<text x="753.0" y="279.5" font-family='system-ui, -apple-system, "Segoe UI", sans-serif' font-size="11" fill="#0b0b0b">sequencer</text>
<text x="753.0" y="291.5" font-family='system-ui, -apple-system, "Segoe UI", sans-serif' font-size="10" style="font-variant-numeric: tabular-nums" fill="#52514e">5.11M</text>
<line x1="736.0" y1="264.8" x2="740.0" y2="307.5" stroke="#c3c2b7" stroke-width="1"/>
<circle cx="745.0" cy="304.0" r="3.5" fill="#1baf7a"/>
<text x="753.0" y="307.5" font-family='system-ui, -apple-system, "Segoe UI", sans-serif' font-size="11" fill="#0b0b0b">map_f32_signal</text>
<text x="753.0" y="319.5" font-family='system-ui, -apple-system, "Segoe UI", sans-serif' font-size="10" style="font-variant-numeric: tabular-nums" fill="#52514e">4.69M</text>
</svg>