<svg xmlns="http://www.w3.org/2000/svg" width="880" height="340" viewBox="0 0 880 340" role="img" aria-label="Heaviest operators (micro)">
<rect width="880" height="340" rx="6" fill="#1a1a19"/>
<text x="64" y="24" font-family='system-ui, -apple-system, "Segoe UI", sans-serif' font-size="14" font-weight="600" fill="#ffffff">Heaviest operators (micro)</text>
<text x="64" y="41" font-family='system-ui, -apple-system, "Segoe UI", sans-serif' font-size="11" fill="#c3c2b7">per-operator step_node cost over the same 1 s schedule - top 6 by latest Ir</text>
<line x1="64" y1="306.0" x2="730" y2="306.0" stroke="#2c2c2a" stroke-width="1"/>
<text x="56" y="309.5" text-anchor="end" font-family='system-ui, -apple-system, "Segoe UI", sans-serif' font-size="11" style="font-variant-numeric: tabular-nums" fill="#898781">0</text>
<line x1="64" y1="215.1" x2="730" y2="215.1" stroke="#2c2c2a" stroke-width="1"/>
<text x="56" y="218.6" text-anchor="end" font-family='system-ui, -apple-system, "Segoe UI", sans-serif' font-size="11" style="font-variant-numeric: tabular-nums" fill="#898781">10</text>
<line x1="64" y1="124.1" x2="730" y2="124.1" stroke="#2c2c2a" stroke-width="1"/>
<text x="56" y="127.6" text-anchor="end" font-family='system-ui, -apple-system, "Segoe UI", sans-serif' font-size="11" style="font-variant-numeric: tabular-nums" fill="#898781">20</text>
<text x="56" y="46" text-anchor="end" font-family='system-ui, -apple-system, "Segoe UI", sans-serif' font-size="10" fill="#898781">Ir (M)</text>
<line x1="64" y1="306" x2="730" y2="306" stroke="#383835" stroke-width="1"/>
<text x="64.0" y="322" text-anchor="middle" font-family='system-ui, -apple-system, "Segoe UI", sans-serif' font-size="11" style="font-variant-numeric: tabular-nums" fill="#898781">07-12</text>
<text x="286.0" y="322" text-anchor="middle" font-family='system-ui, -apple-system, "Segoe UI", sans-serif' font-size="11" style="font-variant-numeric: tabular-nums" fill="#898781">07-13</text>
<text x="323.0" y="322" text-anchor="middle" font-family='system-ui, -apple-system, "Segoe UI", sans-serif' font-size="11" style="font-variant-numeric: tabular-nums" fill="#898781">07-14</text>
<text x="360.0" y="322" text-anchor="middle" font-family='system-ui, -apple-system, "Segoe UI", sans-serif' font-size="11" style="font-variant-numeric: tabular-nums" fill="#898781">07-16</text>
<text x="656.0" y="322" text-anchor="middle" font-family='system-ui, -apple-system, "Segoe UI", sans-serif' font-size="11" style="font-variant-numeric: tabular-nums" fill="#898781">07-17</text>
<path d="M64.0,56.0 L101.0,56.0 L138.0,56.0 L175.0,56.0 L212.0,56.0 L249.0,56.0 L286.0,56.0 L323.0,56.0 L360.0,56.0 L397.0,56.0 L434.0,56.0 L471.0,56.0 L508.0,56.0 L545.0,56.0 L582.0,56.0 L619.0,56.0 L656.0,56.0 L693.0,56.0 L730.0,56.0" fill="none" stroke="#3987e5" stroke-width="2" stroke-linejoin="round" stroke-linecap="round"/>
<circle cx="730.0" cy="56.0" r="6" fill="#1a1a19"/>
<circle cx="730.0" cy="56.0" r="4" fill="#3987e5"/>
<path d="M64.0,250.6 L101.0,250.6 L138.0,250.6 L175.0,250.6 L212.0,250.6 L249.0,250.6 L286.0,250.6 L323.0,250.6 L360.0,250.6 L397.0,250.6 L434.0,250.6 L471.0,250.6 L508.0,250.6 L545.0,250.6 L582.0,250.6 L619.0,250.6 L656.0,250.6 L693.0,250.6 L730.0,250.6" fill="none" stroke="#199e70" stroke-width="2" stroke-linejoin="round" stroke-linecap="round"/>
<circle cx="730.0" cy="250.6" r="6" fill="#1a1a19"/>
<circle cx="730.0" cy="250.6" r="4" fill="#199e70"/>
<path d="M64.0,137.6 L101.0,137.6 L138.0,137.6 L175.0,137.6 L212.0,137.6 L249.0,137.6 L286.0,138.4 L323.0,138.4 L360.0,138.4 L397.0,138.4 L434.0,138.4 L471.0,138.4 L508.0,138.4 L545.0,138.4 L582.0,138.4 L619.0,138.4 L656.0,138.4 L693.0,138.4 L730.0,138.4" fill="none" stroke="#c98500" stroke-width="2" stroke-linejoin="round" stroke-linecap="round"/>
<circle cx="730.0" cy="138.4" r="6" fill="#1a1a19"/>
<circle cx="730.0" cy="138.4" r="4" fill="#c98500"/>
<path d="M64.0,205.8 L101.0,205.8 L138.0,205.8 L175.0,205.8 L212.0,205.8 L249.0,205.8 L286.0,205.8 L323.0,205.8 L360.0,205.8 L397.0,205.8 L434.0,205.8 L471.0,205.8 L508.0,205.8 L545.0,205.8 L582.0,205.8 L619.0,205.8 L656.0,205.8 L693.0,205.8 L730.0,205.8" fill="none" stroke="#008300" stroke-width="2" stroke-linejoin="round" stroke-linecap="round"/>
<circle cx="730.0" cy="205.8" r="6" fill="#1a1a19"/>
<circle cx="730.0" cy="205.8" r="4" fill="#008300"/>
<path d="M64.0,227.3 L101.0,227.3 L138.0,227.3 L175.0,227.3 L212.0,227.3 L249.0,227.3 L286.0,227.3 L323.0,227.3 L360.0,227.3 L397.0,227.3 L434.0,227.3 L471.0,227.3 L508.0,227.3 L545.0,227.3 L582.0,227.3 L619.0,227.3 L656.0,227.3 L693.0,227.3 L730.0,227.3" fill="none" stroke="#9085e9" stroke-width="2" stroke-linejoin="round" stroke-linecap="round"/>
<circle cx="730.0" cy="227.3" r="6" fill="#1a1a19"/>
<circle cx="730.0" cy="227.3" r="4" fill="#9085e9"/>
<path d="M64.0,261.6 L101.0,261.6 L138.0,261.6 L175.0,261.6 L212.0,261.6 L249.0,261.6 L286.0,261.6 L323.0,261.6 L360.0,261.6 L397.0,261.6 L434.0,261.6 L471.0,261.6 L508.0,261.6 L545.0,261.6 L582.0,261.6 L619.0,261.6 L656.0,261.6 L693.0,261.6 L730.0,261.6" fill="none" stroke="#e66767" stroke-width="2" stroke-linejoin="round" stroke-linecap="round"/>
<circle cx="730.0" cy="261.6" r="6" fill="#1a1a19"/>
<circle cx="730.0" cy="261.6" r="4" fill="#e66767"/>
<circle cx="745.0" cy="52.5" r="3.5" fill="#3987e5"/>
<text x="753.0" y="56.0" font-family='system-ui, -apple-system, "Segoe UI", sans-serif' font-size="11" fill="#ffffff">granulator</text>
<text x="753.0" y="68.0" font-family='system-ui, -apple-system, "Segoe UI", sans-serif' font-size="10" style="font-variant-numeric: tabular-nums" fill="#c3c2b7">27.5M</text>
<circle cx="745.0" cy="134.9" r="3.5" fill="#c98500"/>
<text x="753.0" y="138.4" font-family='system-ui, -apple-system, "Segoe UI", sans-serif' font-size="11" fill="#ffffff">resonator</text>
<text x="753.0" y="150.4" font-family='system-ui, -apple-system, "Segoe UI", sans-serif' font-size="10" style="font-variant-numeric: tabular-nums" fill="#c3c2b7">18.4M</text>
<circle cx="745.0" cy="202.3" r="3.5" fill="#008300"/>
<text x="753.0" y="205.8" font-family='system-ui, -apple-system, "Segoe UI", sans-serif' font-size="11" fill="#ffffff">reverb</text>
<text x="753.0" y="217.8" font-family='system-ui, -apple-system, "Segoe UI", sans-serif' font-size="10" style="font-variant-numeric: tabular-nums" fill="#c3c2b7">11.0M</text>
<line x1="736.0" y1="227.3" x2="740.0" y2="233.8" stroke="#383835" stroke-width="1"/>
<circle cx="745.0" cy="230.3" r="3.5" fill="#9085e9"/>
<text x="753.0" y="233.8" font-family='system-ui, -apple-system, "Segoe UI", sans-serif' font-size="11" fill="#ffffff">saturator</text>
<text x="753.0" y="245.8" font-family='system-ui, -apple-system, "Segoe UI", sans-serif' font-size="10" style="font-variant-numeric: tabular-nums" fill="#c3c2b7">8.66M</text>
<line x1="736.0" y1="250.6" x2="740.0" y2="261.8" stroke="#383835" stroke-width="1"/>
<circle cx="745.0" cy="258.3" r="3.5" fill="#199e70"/>
<text x="753.0" y="261.8" font-family='system-ui, -apple-system, "Segoe UI", sans-serif' font-size="11" fill="#ffffff">pan</text>
<text x="753.0" y="273.8" font-family='system-ui, -apple-system, "Segoe UI", sans-serif' font-size="10" style="font-variant-numeric: tabular-nums" fill="#c3c2b7">6.09M</text>
<line x1="736.0" y1="261.6" x2="740.0" y2="289.8" stroke="#383835" stroke-width="1"/>
<circle cx="745.0" cy="286.3" r="3.5" fill="#e66767"/>
<text x="753.0" y="289.8" font-family='system-ui, -apple-system, "Segoe UI", sans-serif' font-size="11" fill="#ffffff">sequencer</text>
<text x="753.0" y="301.8" font-family='system-ui, -apple-system, "Segoe UI", sans-serif' font-size="10" style="font-variant-numeric: tabular-nums" fill="#c3c2b7">4.89M</text>
</svg>