<svg xmlns="http://www.w3.org/2000/svg" width="880" height="340" viewBox="0 0 880 340" role="img" aria-label="Heaviest operators (micro)">
<rect width="880" height="340" rx="6" fill="#fcfcfb"/>
<text x="64" y="24" font-family='system-ui, -apple-system, "Segoe UI", sans-serif' font-size="14" font-weight="600" fill="#0b0b0b">Heaviest operators (micro)</text>
<text x="64" y="41" font-family='system-ui, -apple-system, "Segoe UI", sans-serif' font-size="11" fill="#52514e">per-operator step_node cost over the same 1 s schedule - top 6 by latest Ir</text>
<line x1="64" y1="306.0" x2="730" y2="306.0" stroke="#e1e0d9" stroke-width="1"/>
<text x="56" y="309.5" text-anchor="end" font-family='system-ui, -apple-system, "Segoe UI", sans-serif' font-size="11" style="font-variant-numeric: tabular-nums" fill="#898781">0</text>
<line x1="64" y1="218.1" x2="730" y2="218.1" stroke="#e1e0d9" stroke-width="1"/>
<text x="56" y="221.6" text-anchor="end" font-family='system-ui, -apple-system, "Segoe UI", sans-serif' font-size="11" style="font-variant-numeric: tabular-nums" fill="#898781">10</text>
<line x1="64" y1="130.3" x2="730" y2="130.3" stroke="#e1e0d9" stroke-width="1"/>
<text x="56" y="133.8" text-anchor="end" font-family='system-ui, -apple-system, "Segoe UI", sans-serif' font-size="11" style="font-variant-numeric: tabular-nums" fill="#898781">20</text>
<text x="56" y="46" text-anchor="end" font-family='system-ui, -apple-system, "Segoe UI", sans-serif' font-size="10" fill="#898781">Ir (M)</text>
<line x1="64" y1="306" x2="730" y2="306" stroke="#c3c2b7" stroke-width="1"/>
<text x="64.0" y="322" text-anchor="middle" font-family='system-ui, -apple-system, "Segoe UI", sans-serif' font-size="11" style="font-variant-numeric: tabular-nums" fill="#898781">06-28</text>
<text x="159.1" y="322" text-anchor="middle" font-family='system-ui, -apple-system, "Segoe UI", sans-serif' font-size="11" style="font-variant-numeric: tabular-nums" fill="#898781">06-30</text>
<text x="238.4" y="322" text-anchor="middle" font-family='system-ui, -apple-system, "Segoe UI", sans-serif' font-size="11" style="font-variant-numeric: tabular-nums" fill="#898781">07-02</text>
<text x="412.9" y="322" text-anchor="middle" font-family='system-ui, -apple-system, "Segoe UI", sans-serif' font-size="11" style="font-variant-numeric: tabular-nums" fill="#898781">07-04</text>
<text x="666.6" y="322" text-anchor="middle" font-family='system-ui, -apple-system, "Segoe UI", sans-serif' font-size="11" style="font-variant-numeric: tabular-nums" fill="#898781">07-07</text>
<path d="M175.0,56.2 L190.9,56.2 L206.7,56.1 L222.6,61.2 L238.4,56.2 L254.3,56.2 L270.1,56.2 L286.0,56.2 L301.9,56.2 L317.7,56.2 L333.6,56.2 L349.4,56.2 L365.3,56.2 L381.1,56.2 L397.0,56.2 L412.9,56.2 L428.7,56.2 L444.6,56.2 L460.4,56.2 L476.3,60.8 L492.1,56.1 L508.0,56.1 L523.9,56.1 L539.7,56.1 L555.6,56.1 L571.4,60.6 L587.3,60.6 L603.1,56.1 L619.0,56.0 L634.9,56.0 L650.7,56.0 L666.6,56.0 L682.4,56.0 L698.3,56.0 L714.1,56.0 L730.0,56.0" fill="none" stroke="#2a78d6" stroke-width="2" stroke-linejoin="round" stroke-linecap="round"/>
<circle cx="730.0" cy="56.0" r="6" fill="#fcfcfb"/>
<circle cx="730.0" cy="56.0" r="4" fill="#2a78d6"/>
<path d="M64.0,264.6 L79.9,264.6 L95.7,264.6 L111.6,264.6 L127.4,264.6 L143.3,266.2 L159.1,265.8 L175.0,265.4 L190.9,265.5 L206.7,265.4 L222.6,265.4 L238.4,265.5 L254.3,265.4 L270.1,265.5 L286.0,265.5 L301.9,265.5 L317.7,265.5 L333.6,265.5 L349.4,265.0 L365.3,265.0 L381.1,265.0 L397.0,265.0 L412.9,265.0 L428.7,265.0 L444.6,265.0 L460.4,265.0 L476.3,265.0 L492.1,264.9 L508.0,264.9 L523.9,264.9 L539.7,264.9 L555.6,264.9 L571.4,264.9 L587.3,264.9 L603.1,264.9 L619.0,264.8 L634.9,264.8 L650.7,264.8 L666.6,264.8 L682.4,264.8 L698.3,264.8 L714.1,264.8 L730.0,264.8" fill="none" stroke="#1baf7a" stroke-width="2" stroke-linejoin="round" stroke-linecap="round"/>
<circle cx="730.0" cy="264.8" r="6" fill="#fcfcfb"/>
<circle cx="730.0" cy="264.8" r="4" fill="#1baf7a"/>
<path d="M64.0,246.7 L79.9,246.7 L95.7,246.7 L111.6,246.7 L127.4,246.7 L143.3,246.6 L159.1,246.6 L175.0,246.2 L190.9,246.3 L206.7,246.3 L222.6,246.3 L238.4,246.3 L254.3,246.3 L270.1,246.3 L286.0,246.3 L301.9,246.3 L317.7,246.3 L333.6,246.3 L349.4,251.7 L365.3,251.7 L381.1,251.7 L397.0,251.7 L412.9,251.7 L428.7,251.7 L444.6,251.7 L460.4,251.7 L476.3,251.7 L492.1,251.6 L508.0,251.6 L523.9,251.6 L539.7,251.6 L555.6,251.6 L571.4,251.6 L587.3,251.6 L603.1,251.6 L619.0,251.5 L634.9,251.5 L650.7,251.5 L666.6,251.5 L682.4,251.5 L698.3,251.5 L714.1,251.5 L730.0,251.5" fill="none" stroke="#eda100" stroke-width="2" stroke-linejoin="round" stroke-linecap="round"/>
<circle cx="730.0" cy="251.5" r="6" fill="#fcfcfb"/>
<circle cx="730.0" cy="251.5" r="4" fill="#eda100"/>
<path d="M95.7,97.2 L111.6,97.2 L127.4,97.2 L143.3,138.2 L159.1,138.2 L175.0,137.8 L190.9,137.8 L206.7,137.8 L222.6,137.9 L238.4,137.8 L254.3,137.9 L270.1,137.8 L286.0,137.8 L301.9,137.8 L317.7,137.8 L333.6,137.8 L349.4,142.4 L365.3,142.4 L381.1,142.4 L397.0,142.4 L412.9,142.4 L428.7,142.4 L444.6,142.4 L460.4,142.4 L476.3,142.4 L492.1,142.4 L508.0,142.4 L523.9,142.4 L539.7,142.4 L555.6,142.4 L571.4,142.3 L587.3,142.4 L603.1,142.3 L619.0,142.3 L634.9,142.3 L650.7,142.3 L666.6,142.3 L682.4,142.3 L698.3,142.3 L714.1,142.3 L730.0,142.3" fill="none" stroke="#008300" stroke-width="2" stroke-linejoin="round" stroke-linecap="round"/>
<circle cx="730.0" cy="142.3" r="6" fill="#fcfcfb"/>
<circle cx="730.0" cy="142.3" r="4" fill="#008300"/>
<path d="M64.0,195.3 L79.9,195.3 L95.7,195.4 L111.6,195.4 L127.4,195.4 L143.3,204.2 L159.1,204.1 L175.0,203.8 L190.9,203.8 L206.7,203.8 L222.6,203.9 L238.4,203.8 L254.3,203.8 L270.1,203.8 L286.0,203.8 L301.9,203.8 L317.7,203.8 L333.6,203.8 L349.4,208.4 L365.3,208.4 L381.1,208.4 L397.0,208.4 L412.9,208.4 L428.7,208.4 L444.6,208.4 L460.4,208.4 L476.3,208.5 L492.1,208.3 L508.0,208.3 L523.9,208.3 L539.7,208.3 L555.6,208.3 L571.4,208.3 L587.3,208.4 L603.1,208.4 L619.0,208.2 L634.9,208.2 L650.7,208.2 L666.6,208.2 L682.4,208.2 L698.3,208.2 L714.1,208.2 L730.0,208.2" fill="none" stroke="#4a3aa7" stroke-width="2" stroke-linejoin="round" stroke-linecap="round"/>
<circle cx="730.0" cy="208.2" r="6" fill="#fcfcfb"/>
<circle cx="730.0" cy="208.2" r="4" fill="#4a3aa7"/>
<path d="M64.0,262.8 L79.9,262.8 L95.7,262.8 L111.6,262.8 L127.4,263.0 L143.3,263.2 L159.1,263.0 L175.0,262.4 L190.9,262.5 L206.7,262.4 L222.6,262.5 L238.4,262.5 L254.3,262.5 L270.1,262.5 L286.0,262.5 L301.9,262.5 L317.7,262.5 L333.6,262.5 L349.4,261.7 L365.3,261.7 L381.1,261.6 L397.0,261.4 L412.9,261.4 L428.7,261.4 L444.6,261.4 L460.4,261.4 L476.3,261.4 L492.1,261.3 L508.0,261.3 L523.9,261.3 L539.7,261.3 L555.6,261.3 L571.4,261.2 L587.3,261.3 L603.1,261.3 L619.0,261.0 L634.9,261.0 L650.7,261.1 L666.6,261.1 L682.4,261.1 L698.3,261.1 L714.1,261.1 L730.0,261.1" fill="none" stroke="#e34948" stroke-width="2" stroke-linejoin="round" stroke-linecap="round"/>
<circle cx="730.0" cy="261.1" r="6" fill="#fcfcfb"/>
<circle cx="730.0" cy="261.1" r="4" fill="#e34948"/>
<circle cx="745.0" cy="52.5" r="3.5" fill="#2a78d6"/>
<text x="753.0" y="56.0" font-family='system-ui, -apple-system, "Segoe UI", sans-serif' font-size="11" fill="#0b0b0b">granulator</text>
<text x="753.0" y="68.0" font-family='system-ui, -apple-system, "Segoe UI", sans-serif' font-size="10" style="font-variant-numeric: tabular-nums" fill="#52514e">28.5M</text>
<circle cx="745.0" cy="138.8" r="3.5" fill="#008300"/>
<text x="753.0" y="142.3" font-family='system-ui, -apple-system, "Segoe UI", sans-serif' font-size="11" fill="#0b0b0b">resonator</text>
<text x="753.0" y="154.3" font-family='system-ui, -apple-system, "Segoe UI", sans-serif' font-size="10" style="font-variant-numeric: tabular-nums" fill="#52514e">18.6M</text>
<circle cx="745.0" cy="204.7" r="3.5" fill="#4a3aa7"/>
<text x="753.0" y="208.2" font-family='system-ui, -apple-system, "Segoe UI", sans-serif' font-size="11" fill="#0b0b0b">reverb</text>
<text x="753.0" y="220.2" font-family='system-ui, -apple-system, "Segoe UI", sans-serif' font-size="10" style="font-variant-numeric: tabular-nums" fill="#52514e">11.1M</text>
<circle cx="745.0" cy="248.0" r="3.5" fill="#eda100"/>
<text x="753.0" y="251.5" font-family='system-ui, -apple-system, "Segoe UI", sans-serif' font-size="11" fill="#0b0b0b">pan</text>
<text x="753.0" y="263.5" font-family='system-ui, -apple-system, "Segoe UI", sans-serif' font-size="10" style="font-variant-numeric: tabular-nums" fill="#52514e">6.20M</text>
<line x1="736.0" y1="261.1" x2="740.0" y2="279.5" stroke="#c3c2b7" stroke-width="1"/>
<circle cx="745.0" cy="276.0" r="3.5" fill="#e34948"/>
<text x="753.0" y="279.5" font-family='system-ui, -apple-system, "Segoe UI", sans-serif' font-size="11" fill="#0b0b0b">sequencer</text>
<text x="753.0" y="291.5" font-family='system-ui, -apple-system, "Segoe UI", sans-serif' font-size="10" style="font-variant-numeric: tabular-nums" fill="#52514e">5.11M</text>
<line x1="736.0" y1="264.8" x2="740.0" y2="307.5" stroke="#c3c2b7" stroke-width="1"/>
<circle cx="745.0" cy="304.0" r="3.5" fill="#1baf7a"/>
<text x="753.0" y="307.5" font-family='system-ui, -apple-system, "Segoe UI", sans-serif' font-size="11" fill="#0b0b0b">map_f32_signal</text>
<text x="753.0" y="319.5" font-family='system-ui, -apple-system, "Segoe UI", sans-serif' font-size="10" style="font-variant-numeric: tabular-nums" fill="#52514e">4.69M</text>
</svg>