<svg xmlns="http://www.w3.org/2000/svg" width="880" height="340" viewBox="0 0 880 340" role="img" aria-label="Heaviest operators (micro)">
<rect width="880" height="340" rx="6" fill="#1a1a19"/>
<text x="64" y="24" font-family='system-ui, -apple-system, "Segoe UI", sans-serif' font-size="14" font-weight="600" fill="#ffffff">Heaviest operators (micro)</text>
<text x="64" y="41" font-family='system-ui, -apple-system, "Segoe UI", sans-serif' font-size="11" fill="#c3c2b7">per-operator step_node cost over the same 1 s schedule - top 6 by latest Ir</text>
<line x1="64" y1="306.0" x2="730" y2="306.0" stroke="#2c2c2a" stroke-width="1"/>
<text x="56" y="309.5" text-anchor="end" font-family='system-ui, -apple-system, "Segoe UI", sans-serif' font-size="11" style="font-variant-numeric: tabular-nums" fill="#898781">0</text>
<line x1="64" y1="218.1" x2="730" y2="218.1" stroke="#2c2c2a" stroke-width="1"/>
<text x="56" y="221.6" text-anchor="end" font-family='system-ui, -apple-system, "Segoe UI", sans-serif' font-size="11" style="font-variant-numeric: tabular-nums" fill="#898781">10</text>
<line x1="64" y1="130.3" x2="730" y2="130.3" stroke="#2c2c2a" stroke-width="1"/>
<text x="56" y="133.8" text-anchor="end" font-family='system-ui, -apple-system, "Segoe UI", sans-serif' font-size="11" style="font-variant-numeric: tabular-nums" fill="#898781">20</text>
<text x="56" y="46" text-anchor="end" font-family='system-ui, -apple-system, "Segoe UI", sans-serif' font-size="10" fill="#898781">Ir (M)</text>
<line x1="64" y1="306" x2="730" y2="306" stroke="#383835" stroke-width="1"/>
<text x="64.0" y="322" text-anchor="middle" font-family='system-ui, -apple-system, "Segoe UI", sans-serif' font-size="11" style="font-variant-numeric: tabular-nums" fill="#898781">06-28</text>
<text x="143.9" y="322" text-anchor="middle" font-family='system-ui, -apple-system, "Segoe UI", sans-serif' font-size="11" style="font-variant-numeric: tabular-nums" fill="#898781">06-30</text>
<text x="210.5" y="322" text-anchor="middle" font-family='system-ui, -apple-system, "Segoe UI", sans-serif' font-size="11" style="font-variant-numeric: tabular-nums" fill="#898781">07-02</text>
<text x="357.0" y="322" text-anchor="middle" font-family='system-ui, -apple-system, "Segoe UI", sans-serif' font-size="11" style="font-variant-numeric: tabular-nums" fill="#898781">07-04</text>
<text x="570.2" y="322" text-anchor="middle" font-family='system-ui, -apple-system, "Segoe UI", sans-serif' font-size="11" style="font-variant-numeric: tabular-nums" fill="#898781">07-07</text>
<text x="703.4" y="322" text-anchor="middle" font-family='system-ui, -apple-system, "Segoe UI", sans-serif' font-size="11" style="font-variant-numeric: tabular-nums" fill="#898781">07-09</text>
<path d="M157.2,56.2 L170.6,56.2 L183.9,56.1 L197.2,61.2 L210.5,56.2 L223.8,56.2 L237.2,56.2 L250.5,56.2 L263.8,56.2 L277.1,56.2 L290.4,56.2 L303.8,56.2 L317.1,56.2 L330.4,56.2 L343.7,56.2 L357.0,56.2 L370.4,56.2 L383.7,56.2 L397.0,56.2 L410.3,60.8 L423.6,56.1 L437.0,56.1 L450.3,56.1 L463.6,56.1 L476.9,56.1 L490.2,60.6 L503.6,60.6 L516.9,56.1 L530.2,56.0 L543.5,56.0 L556.8,56.0 L570.2,56.0 L583.5,56.0 L596.8,56.0 L610.1,56.0 L623.4,56.0 L636.8,56.0 L650.1,56.0 L663.4,56.0 L676.7,56.0 L690.0,56.0 L703.4,56.0 L716.7,56.0 L730.0,61.0" fill="none" stroke="#3987e5" stroke-width="2" stroke-linejoin="round" stroke-linecap="round"/>
<circle cx="730.0" cy="61.0" r="6" fill="#1a1a19"/>
<circle cx="730.0" cy="61.0" r="4" fill="#3987e5"/>
<path d="M64.0,264.6 L77.3,264.6 L90.6,264.6 L104.0,264.6 L117.3,264.6 L130.6,266.2 L143.9,265.8 L157.2,265.4 L170.6,265.5 L183.9,265.4 L197.2,265.4 L210.5,265.5 L223.8,265.4 L237.2,265.5 L250.5,265.5 L263.8,265.5 L277.1,265.5 L290.4,265.5 L303.8,265.0 L317.1,265.0 L330.4,265.0 L343.7,265.0 L357.0,265.0 L370.4,265.0 L383.7,265.0 L397.0,265.0 L410.3,265.0 L423.6,264.9 L437.0,264.9 L450.3,264.9 L463.6,264.9 L476.9,264.9 L490.2,264.9 L503.6,264.9 L516.9,264.9 L530.2,264.8 L543.5,264.8 L556.8,264.8 L570.2,264.8 L583.5,264.8 L596.8,264.8 L610.1,264.8 L623.4,264.8 L636.8,264.8 L650.1,264.8 L663.4,264.8 L676.7,264.8 L690.0,264.8 L703.4,264.8 L716.7,264.8 L730.0,264.9" fill="none" stroke="#199e70" stroke-width="2" stroke-linejoin="round" stroke-linecap="round"/>
<circle cx="730.0" cy="264.9" r="6" fill="#1a1a19"/>
<circle cx="730.0" cy="264.9" r="4" fill="#199e70"/>
<path d="M64.0,246.7 L77.3,246.7 L90.6,246.7 L104.0,246.7 L117.3,246.7 L130.6,246.6 L143.9,246.6 L157.2,246.2 L170.6,246.3 L183.9,246.3 L197.2,246.3 L210.5,246.3 L223.8,246.3 L237.2,246.3 L250.5,246.3 L263.8,246.3 L277.1,246.3 L290.4,246.3 L303.8,251.7 L317.1,251.7 L330.4,251.7 L343.7,251.7 L357.0,251.7 L370.4,251.7 L383.7,251.7 L397.0,251.7 L410.3,251.7 L423.6,251.6 L437.0,251.6 L450.3,251.6 L463.6,251.6 L476.9,251.6 L490.2,251.6 L503.6,251.6 L516.9,251.6 L530.2,251.5 L543.5,251.5 L556.8,251.5 L570.2,251.5 L583.5,251.5 L596.8,251.5 L610.1,251.5 L623.4,251.5 L636.8,251.5 L650.1,251.5 L663.4,251.5 L676.7,251.5 L690.0,251.5 L703.4,251.5 L716.7,251.5 L730.0,251.6" fill="none" stroke="#c98500" stroke-width="2" stroke-linejoin="round" stroke-linecap="round"/>
<circle cx="730.0" cy="251.6" r="6" fill="#1a1a19"/>
<circle cx="730.0" cy="251.6" r="4" fill="#c98500"/>
<path d="M90.6,97.2 L104.0,97.2 L117.3,97.2 L130.6,138.2 L143.9,138.2 L157.2,137.8 L170.6,137.8 L183.9,137.8 L197.2,137.9 L210.5,137.8 L223.8,137.9 L237.2,137.8 L250.5,137.8 L263.8,137.8 L277.1,137.8 L290.4,137.8 L303.8,142.4 L317.1,142.4 L330.4,142.4 L343.7,142.4 L357.0,142.4 L370.4,142.4 L383.7,142.4 L397.0,142.4 L410.3,142.4 L423.6,142.4 L437.0,142.4 L450.3,142.4 L463.6,142.4 L476.9,142.4 L490.2,142.3 L503.6,142.4 L516.9,142.3 L530.2,142.3 L543.5,142.3 L556.8,142.3 L570.2,142.3 L583.5,142.3 L596.8,142.3 L610.1,142.3 L623.4,142.3 L636.8,142.3 L650.1,142.3 L663.4,142.3 L676.7,142.3 L690.0,142.3 L703.4,142.3 L716.7,142.3 L730.0,142.3" fill="none" stroke="#008300" stroke-width="2" stroke-linejoin="round" stroke-linecap="round"/>
<circle cx="730.0" cy="142.3" r="6" fill="#1a1a19"/>
<circle cx="730.0" cy="142.3" r="4" fill="#008300"/>
<path d="M64.0,195.3 L77.3,195.3 L90.6,195.4 L104.0,195.4 L117.3,195.4 L130.6,204.2 L143.9,204.1 L157.2,203.8 L170.6,203.8 L183.9,203.8 L197.2,203.9 L210.5,203.8 L223.8,203.8 L237.2,203.8 L250.5,203.8 L263.8,203.8 L277.1,203.8 L290.4,203.8 L303.8,208.4 L317.1,208.4 L330.4,208.4 L343.7,208.4 L357.0,208.4 L370.4,208.4 L383.7,208.4 L397.0,208.4 L410.3,208.5 L423.6,208.3 L437.0,208.3 L450.3,208.3 L463.6,208.3 L476.9,208.3 L490.2,208.3 L503.6,208.4 L516.9,208.4 L530.2,208.2 L543.5,208.2 L556.8,208.2 L570.2,208.2 L583.5,208.2 L596.8,208.2 L610.1,208.2 L623.4,208.2 L636.8,208.2 L650.1,208.2 L663.4,208.2 L676.7,208.2 L690.0,208.2 L703.4,208.2 L716.7,208.2 L730.0,208.4" fill="none" stroke="#9085e9" stroke-width="2" stroke-linejoin="round" stroke-linecap="round"/>
<circle cx="730.0" cy="208.4" r="6" fill="#1a1a19"/>
<circle cx="730.0" cy="208.4" r="4" fill="#9085e9"/>
<path d="M64.0,262.8 L77.3,262.8 L90.6,262.8 L104.0,262.8 L117.3,263.0 L130.6,263.2 L143.9,263.0 L157.2,262.4 L170.6,262.5 L183.9,262.4 L197.2,262.5 L210.5,262.5 L223.8,262.5 L237.2,262.5 L250.5,262.5 L263.8,262.5 L277.1,262.5 L290.4,262.5 L303.8,261.7 L317.1,261.7 L330.4,261.6 L343.7,261.4 L357.0,261.4 L370.4,261.4 L383.7,261.4 L397.0,261.4 L410.3,261.4 L423.6,261.3 L437.0,261.3 L450.3,261.3 L463.6,261.3 L476.9,261.3 L490.2,261.2 L503.6,261.3 L516.9,261.3 L530.2,261.0 L543.5,261.0 L556.8,261.1 L570.2,261.1 L583.5,261.1 L596.8,261.1 L610.1,261.1 L623.4,261.1 L636.8,261.1 L650.1,261.1 L663.4,261.1 L676.7,261.1 L690.0,261.1 L703.4,261.1 L716.7,261.1 L730.0,261.3" fill="none" stroke="#e66767" stroke-width="2" stroke-linejoin="round" stroke-linecap="round"/>
<circle cx="730.0" cy="261.3" r="6" fill="#1a1a19"/>
<circle cx="730.0" cy="261.3" r="4" fill="#e66767"/>
<circle cx="745.0" cy="57.5" r="3.5" fill="#3987e5"/>
<text x="753.0" y="61.0" font-family='system-ui, -apple-system, "Segoe UI", sans-serif' font-size="11" fill="#ffffff">granulator</text>
<text x="753.0" y="73.0" font-family='system-ui, -apple-system, "Segoe UI", sans-serif' font-size="10" style="font-variant-numeric: tabular-nums" fill="#c3c2b7">27.9M</text>
<circle cx="745.0" cy="138.8" r="3.5" fill="#008300"/>
<text x="753.0" y="142.3" font-family='system-ui, -apple-system, "Segoe UI", sans-serif' font-size="11" fill="#ffffff">resonator</text>
<text x="753.0" y="154.3" font-family='system-ui, -apple-system, "Segoe UI", sans-serif' font-size="10" style="font-variant-numeric: tabular-nums" fill="#c3c2b7">18.6M</text>
<circle cx="745.0" cy="204.9" r="3.5" fill="#9085e9"/>
<text x="753.0" y="208.4" font-family='system-ui, -apple-system, "Segoe UI", sans-serif' font-size="11" fill="#ffffff">reverb</text>
<text x="753.0" y="220.4" font-family='system-ui, -apple-system, "Segoe UI", sans-serif' font-size="10" style="font-variant-numeric: tabular-nums" fill="#c3c2b7">11.1M</text>
<circle cx="745.0" cy="248.1" r="3.5" fill="#c98500"/>
<text x="753.0" y="251.6" font-family='system-ui, -apple-system, "Segoe UI", sans-serif' font-size="11" fill="#ffffff">pan</text>
<text x="753.0" y="263.6" font-family='system-ui, -apple-system, "Segoe UI", sans-serif' font-size="10" style="font-variant-numeric: tabular-nums" fill="#c3c2b7">6.19M</text>
<line x1="736.0" y1="261.3" x2="740.0" y2="279.6" stroke="#383835" stroke-width="1"/>
<circle cx="745.0" cy="276.1" r="3.5" fill="#e66767"/>
<text x="753.0" y="279.6" font-family='system-ui, -apple-system, "Segoe UI", sans-serif' font-size="11" fill="#ffffff">sequencer</text>
<text x="753.0" y="291.6" font-family='system-ui, -apple-system, "Segoe UI", sans-serif' font-size="10" style="font-variant-numeric: tabular-nums" fill="#c3c2b7">5.09M</text>
<line x1="736.0" y1="264.9" x2="740.0" y2="307.6" stroke="#383835" stroke-width="1"/>
<circle cx="745.0" cy="304.1" r="3.5" fill="#199e70"/>
<text x="753.0" y="307.6" font-family='system-ui, -apple-system, "Segoe UI", sans-serif' font-size="11" fill="#ffffff">map_f32_signal</text>
<text x="753.0" y="319.6" font-family='system-ui, -apple-system, "Segoe UI", sans-serif' font-size="10" style="font-variant-numeric: tabular-nums" fill="#c3c2b7">4.68M</text>
</svg>