<svg xmlns="http://www.w3.org/2000/svg" width="880" height="340" viewBox="0 0 880 340" role="img" aria-label="Heaviest operators (micro)">
<rect width="880" height="340" rx="6" fill="#1a1a19"/>
<text x="64" y="24" font-family='system-ui, -apple-system, "Segoe UI", sans-serif' font-size="14" font-weight="600" fill="#ffffff">Heaviest operators (micro)</text>
<text x="64" y="41" font-family='system-ui, -apple-system, "Segoe UI", sans-serif' font-size="11" fill="#c3c2b7">per-operator step_node cost over the same 1 s schedule - top 6 by latest Ir</text>
<line x1="64" y1="306.0" x2="730" y2="306.0" stroke="#2c2c2a" stroke-width="1"/>
<text x="56" y="309.5" text-anchor="end" font-family='system-ui, -apple-system, "Segoe UI", sans-serif' font-size="11" style="font-variant-numeric: tabular-nums" fill="#898781">0</text>
<line x1="64" y1="218.1" x2="730" y2="218.1" stroke="#2c2c2a" stroke-width="1"/>
<text x="56" y="221.6" text-anchor="end" font-family='system-ui, -apple-system, "Segoe UI", sans-serif' font-size="11" style="font-variant-numeric: tabular-nums" fill="#898781">10</text>
<line x1="64" y1="130.3" x2="730" y2="130.3" stroke="#2c2c2a" stroke-width="1"/>
<text x="56" y="133.8" text-anchor="end" font-family='system-ui, -apple-system, "Segoe UI", sans-serif' font-size="11" style="font-variant-numeric: tabular-nums" fill="#898781">20</text>
<text x="56" y="46" text-anchor="end" font-family='system-ui, -apple-system, "Segoe UI", sans-serif' font-size="10" fill="#898781">Ir (M)</text>
<line x1="64" y1="306" x2="730" y2="306" stroke="#383835" stroke-width="1"/>
<text x="64.0" y="322" text-anchor="middle" font-family='system-ui, -apple-system, "Segoe UI", sans-serif' font-size="11" style="font-variant-numeric: tabular-nums" fill="#898781">06-28</text>
<text x="120.3" y="322" text-anchor="middle" font-family='system-ui, -apple-system, "Segoe UI", sans-serif' font-size="11" style="font-variant-numeric: tabular-nums" fill="#898781">06-30</text>
<text x="167.2" y="322" text-anchor="middle" font-family='system-ui, -apple-system, "Segoe UI", sans-serif' font-size="11" style="font-variant-numeric: tabular-nums" fill="#898781">07-02</text>
<text x="270.4" y="322" text-anchor="middle" font-family='system-ui, -apple-system, "Segoe UI", sans-serif' font-size="11" style="font-variant-numeric: tabular-nums" fill="#898781">07-04</text>
<text x="420.5" y="322" text-anchor="middle" font-family='system-ui, -apple-system, "Segoe UI", sans-serif' font-size="11" style="font-variant-numeric: tabular-nums" fill="#898781">07-07</text>
<text x="514.3" y="322" text-anchor="middle" font-family='system-ui, -apple-system, "Segoe UI", sans-serif' font-size="11" style="font-variant-numeric: tabular-nums" fill="#898781">07-09</text>
<text x="589.3" y="322" text-anchor="middle" font-family='system-ui, -apple-system, "Segoe UI", sans-serif' font-size="11" style="font-variant-numeric: tabular-nums" fill="#898781">07-11</text>
<path d="M129.7,56.2 L139.0,56.2 L148.4,56.1 L157.8,61.2 L167.2,56.2 L176.6,56.2 L185.9,56.2 L195.3,56.2 L204.7,56.2 L214.1,56.2 L223.5,56.2 L232.8,56.2 L242.2,56.2 L251.6,56.2 L261.0,56.2 L270.4,56.2 L279.7,56.2 L289.1,56.2 L298.5,56.2 L307.9,60.8 L317.3,56.1 L326.6,56.1 L336.0,56.1 L345.4,56.1 L354.8,56.1 L364.2,60.6 L373.5,60.6 L382.9,56.1 L392.3,56.0 L401.7,56.0 L411.1,56.0 L420.5,56.0 L429.8,56.0 L439.2,56.0 L448.6,56.0 L458.0,56.0 L467.4,56.0 L476.7,56.0 L486.1,56.0 L495.5,56.0 L504.9,56.0 L514.3,56.0 L523.6,56.0 L533.0,61.0 L542.4,61.0 L551.8,61.0 L561.2,56.1 L570.5,61.3 L579.9,56.3 L589.3,56.4 L598.7,64.4 L608.1,64.4 L617.4,64.4 L626.8,64.4 L636.2,64.4 L645.6,64.4 L655.0,64.4 L664.3,64.4 L673.7,64.4 L683.1,64.4 L692.5,64.4 L701.9,64.4 L711.2,64.4 L720.6,64.4 L730.0,64.4" fill="none" stroke="#3987e5" stroke-width="2" stroke-linejoin="round" stroke-linecap="round"/>
<circle cx="730.0" cy="64.4" r="6" fill="#1a1a19"/>
<circle cx="730.0" cy="64.4" r="4" fill="#3987e5"/>
<path d="M64.0,246.7 L73.4,246.7 L82.8,246.7 L92.1,246.7 L101.5,246.7 L110.9,246.6 L120.3,246.6 L129.7,246.2 L139.0,246.3 L148.4,246.3 L157.8,246.3 L167.2,246.3 L176.6,246.3 L185.9,246.3 L195.3,246.3 L204.7,246.3 L214.1,246.3 L223.5,246.3 L232.8,251.7 L242.2,251.7 L251.6,251.7 L261.0,251.7 L270.4,251.7 L279.7,251.7 L289.1,251.7 L298.5,251.7 L307.9,251.7 L317.3,251.6 L326.6,251.6 L336.0,251.6 L345.4,251.6 L354.8,251.6 L364.2,251.6 L373.5,251.6 L382.9,251.6 L392.3,251.5 L401.7,251.5 L411.1,251.5 L420.5,251.5 L429.8,251.5 L439.2,251.5 L448.6,251.5 L458.0,251.5 L467.4,251.5 L476.7,251.5 L486.1,251.5 L495.5,251.5 L504.9,251.5 L514.3,251.5 L523.6,251.5 L533.0,251.6 L542.4,251.6 L551.8,251.6 L561.2,251.6 L570.5,251.9 L579.9,251.9 L589.3,251.9 L598.7,252.5 L608.1,252.5 L617.4,252.5 L626.8,252.5 L636.2,252.5 L645.6,252.5 L655.0,252.5 L664.3,252.5 L673.7,252.5 L683.1,252.5 L692.5,252.5 L701.9,252.5 L711.2,252.5 L720.6,252.5 L730.0,252.5" fill="none" stroke="#199e70" stroke-width="2" stroke-linejoin="round" stroke-linecap="round"/>
<circle cx="730.0" cy="252.5" r="6" fill="#1a1a19"/>
<circle cx="730.0" cy="252.5" r="4" fill="#199e70"/>
<path d="M82.8,97.2 L92.1,97.2 L101.5,97.2 L110.9,138.2 L120.3,138.2 L129.7,137.8 L139.0,137.8 L148.4,137.8 L157.8,137.9 L167.2,137.8 L176.6,137.9 L185.9,137.8 L195.3,137.8 L204.7,137.8 L214.1,137.8 L223.5,137.8 L232.8,142.4 L242.2,142.4 L251.6,142.4 L261.0,142.4 L270.4,142.4 L279.7,142.4 L289.1,142.4 L298.5,142.4 L307.9,142.4 L317.3,142.4 L326.6,142.4 L336.0,142.4 L345.4,142.4 L354.8,142.4 L364.2,142.3 L373.5,142.4 L382.9,142.3 L392.3,142.3 L401.7,142.3 L411.1,142.3 L420.5,142.3 L429.8,142.3 L439.2,142.3 L448.6,142.3 L458.0,142.3 L467.4,142.3 L476.7,142.3 L486.1,142.3 L495.5,142.3 L504.9,142.3 L514.3,142.3 L523.6,142.3 L533.0,142.3 L542.4,142.3 L551.8,142.3 L561.2,142.3 L570.5,142.6 L579.9,142.6 L589.3,142.7 L598.7,143.3 L608.1,143.3 L617.4,143.3 L626.8,143.3 L636.2,143.3 L645.6,143.3 L655.0,143.3 L664.3,143.3 L673.7,143.3 L683.1,143.3 L692.5,143.3 L701.9,143.3 L711.2,143.3 L720.6,143.3 L730.0,143.3" fill="none" stroke="#c98500" stroke-width="2" stroke-linejoin="round" stroke-linecap="round"/>
<circle cx="730.0" cy="143.3" r="6" fill="#1a1a19"/>
<circle cx="730.0" cy="143.3" r="4" fill="#c98500"/>
<path d="M64.0,195.3 L73.4,195.3 L82.8,195.4 L92.1,195.4 L101.5,195.4 L110.9,204.2 L120.3,204.1 L129.7,203.8 L139.0,203.8 L148.4,203.8 L157.8,203.9 L167.2,203.8 L176.6,203.8 L185.9,203.8 L195.3,203.8 L204.7,203.8 L214.1,203.8 L223.5,203.8 L232.8,208.4 L242.2,208.4 L251.6,208.4 L261.0,208.4 L270.4,208.4 L279.7,208.4 L289.1,208.4 L298.5,208.4 L307.9,208.5 L317.3,208.3 L326.6,208.3 L336.0,208.3 L345.4,208.3 L354.8,208.3 L364.2,208.3 L373.5,208.4 L382.9,208.4 L392.3,208.2 L401.7,208.2 L411.1,208.2 L420.5,208.2 L429.8,208.2 L439.2,208.2 L448.6,208.2 L458.0,208.2 L467.4,208.2 L476.7,208.2 L486.1,208.2 L495.5,208.2 L504.9,208.2 L514.3,208.2 L523.6,208.2 L533.0,208.4 L542.4,208.3 L551.8,208.3 L561.2,208.3 L570.5,208.6 L579.9,208.6 L589.3,208.6 L598.7,209.2 L608.1,209.2 L617.4,209.2 L626.8,209.2 L636.2,209.2 L645.6,209.2 L655.0,209.2 L664.3,209.2 L673.7,209.2 L683.1,209.2 L692.5,209.2 L701.9,209.2 L711.2,209.2 L720.6,209.2 L730.0,209.2" fill="none" stroke="#008300" stroke-width="2" stroke-linejoin="round" stroke-linecap="round"/>
<circle cx="730.0" cy="209.2" r="6" fill="#1a1a19"/>
<circle cx="730.0" cy="209.2" r="4" fill="#008300"/>
<path d="M542.4,229.0 L551.8,229.0 L561.2,229.1 L570.5,229.3 L579.9,229.3 L589.3,229.3 L598.7,229.9 L608.1,229.9 L617.4,229.9 L626.8,229.9 L636.2,229.9 L645.6,229.9 L655.0,229.9 L664.3,229.9 L673.7,229.9 L683.1,229.9 L692.5,229.9 L701.9,229.9 L711.2,229.9 L720.6,229.9 L730.0,229.9" fill="none" stroke="#9085e9" stroke-width="2" stroke-linejoin="round" stroke-linecap="round"/>
<circle cx="730.0" cy="229.9" r="6" fill="#1a1a19"/>
<circle cx="730.0" cy="229.9" r="4" fill="#9085e9"/>
<path d="M64.0,262.8 L73.4,262.8 L82.8,262.8 L92.1,262.8 L101.5,263.0 L110.9,263.2 L120.3,263.0 L129.7,262.4 L139.0,262.5 L148.4,262.4 L157.8,262.5 L167.2,262.5 L176.6,262.5 L185.9,262.5 L195.3,262.5 L204.7,262.5 L214.1,262.5 L223.5,262.5 L232.8,261.7 L242.2,261.7 L251.6,261.6 L261.0,261.4 L270.4,261.4 L279.7,261.4 L289.1,261.4 L298.5,261.4 L307.9,261.4 L317.3,261.3 L326.6,261.3 L336.0,261.3 L345.4,261.3 L354.8,261.3 L364.2,261.2 L373.5,261.3 L382.9,261.3 L392.3,261.0 L401.7,261.0 L411.1,261.1 L420.5,261.1 L429.8,261.1 L439.2,261.1 L448.6,261.1 L458.0,261.1 L467.4,261.1 L476.7,261.1 L486.1,261.1 L495.5,261.1 L504.9,261.1 L514.3,261.1 L523.6,261.1 L533.0,261.3 L542.4,261.2 L551.8,261.2 L561.2,261.3 L570.5,261.7 L579.9,261.8 L589.3,261.8 L598.7,263.1 L608.1,263.1 L617.4,263.1 L626.8,263.1 L636.2,263.1 L645.6,263.1 L655.0,263.0 L664.3,263.0 L673.7,263.0 L683.1,263.0 L692.5,263.0 L701.9,263.0 L711.2,263.0 L720.6,263.0 L730.0,263.0" fill="none" stroke="#e66767" stroke-width="2" stroke-linejoin="round" stroke-linecap="round"/>
<circle cx="730.0" cy="263.0" r="6" fill="#1a1a19"/>
<circle cx="730.0" cy="263.0" r="4" fill="#e66767"/>
<circle cx="745.0" cy="60.9" r="3.5" fill="#3987e5"/>
<text x="753.0" y="64.4" font-family='system-ui, -apple-system, "Segoe UI", sans-serif' font-size="11" fill="#ffffff">granulator</text>
<text x="753.0" y="76.4" font-family='system-ui, -apple-system, "Segoe UI", sans-serif' font-size="10" style="font-variant-numeric: tabular-nums" fill="#c3c2b7">27.5M</text>
<circle cx="745.0" cy="139.8" r="3.5" fill="#c98500"/>
<text x="753.0" y="143.3" font-family='system-ui, -apple-system, "Segoe UI", sans-serif' font-size="11" fill="#ffffff">resonator</text>
<text x="753.0" y="155.3" font-family='system-ui, -apple-system, "Segoe UI", sans-serif' font-size="10" style="font-variant-numeric: tabular-nums" fill="#c3c2b7">18.5M</text>
<circle cx="745.0" cy="205.7" r="3.5" fill="#008300"/>
<text x="753.0" y="209.2" font-family='system-ui, -apple-system, "Segoe UI", sans-serif' font-size="11" fill="#ffffff">reverb</text>
<text x="753.0" y="221.2" font-family='system-ui, -apple-system, "Segoe UI", sans-serif' font-size="10" style="font-variant-numeric: tabular-nums" fill="#c3c2b7">11.0M</text>
<line x1="736.0" y1="229.9" x2="740.0" y2="237.2" stroke="#383835" stroke-width="1"/>
<circle cx="745.0" cy="233.7" r="3.5" fill="#9085e9"/>
<text x="753.0" y="237.2" font-family='system-ui, -apple-system, "Segoe UI", sans-serif' font-size="11" fill="#ffffff">saturator</text>
<text x="753.0" y="249.2" font-family='system-ui, -apple-system, "Segoe UI", sans-serif' font-size="10" style="font-variant-numeric: tabular-nums" fill="#c3c2b7">8.66M</text>
<line x1="736.0" y1="252.5" x2="740.0" y2="265.2" stroke="#383835" stroke-width="1"/>
<circle cx="745.0" cy="261.7" r="3.5" fill="#199e70"/>
<text x="753.0" y="265.2" font-family='system-ui, -apple-system, "Segoe UI", sans-serif' font-size="11" fill="#ffffff">pan</text>
<text x="753.0" y="277.2" font-family='system-ui, -apple-system, "Segoe UI", sans-serif' font-size="10" style="font-variant-numeric: tabular-nums" fill="#c3c2b7">6.09M</text>
<line x1="736.0" y1="263.0" x2="740.0" y2="293.2" stroke="#383835" stroke-width="1"/>
<circle cx="745.0" cy="289.7" r="3.5" fill="#e66767"/>
<text x="753.0" y="293.2" font-family='system-ui, -apple-system, "Segoe UI", sans-serif' font-size="11" fill="#ffffff">sequencer</text>
<text x="753.0" y="305.2" font-family='system-ui, -apple-system, "Segoe UI", sans-serif' font-size="10" style="font-variant-numeric: tabular-nums" fill="#c3c2b7">4.89M</text>
</svg>