<svg xmlns="http://www.w3.org/2000/svg" width="880" height="340" viewBox="0 0 880 340" role="img" aria-label="Heaviest operators (micro)">
<rect width="880" height="340" rx="6" fill="#fcfcfb"/>
<text x="64" y="24" font-family='system-ui, -apple-system, "Segoe UI", sans-serif' font-size="14" font-weight="600" fill="#0b0b0b">Heaviest operators (micro)</text>
<text x="64" y="41" font-family='system-ui, -apple-system, "Segoe UI", sans-serif' font-size="11" fill="#52514e">per-operator step_node cost over the same 1 s schedule - top 6 by latest Ir</text>
<line x1="64" y1="306.0" x2="730" y2="306.0" stroke="#e1e0d9" stroke-width="1"/>
<text x="56" y="309.5" text-anchor="end" font-family='system-ui, -apple-system, "Segoe UI", sans-serif' font-size="11" style="font-variant-numeric: tabular-nums" fill="#898781">0</text>
<line x1="64" y1="218.1" x2="730" y2="218.1" stroke="#e1e0d9" stroke-width="1"/>
<text x="56" y="221.6" text-anchor="end" font-family='system-ui, -apple-system, "Segoe UI", sans-serif' font-size="11" style="font-variant-numeric: tabular-nums" fill="#898781">10</text>
<line x1="64" y1="130.3" x2="730" y2="130.3" stroke="#e1e0d9" stroke-width="1"/>
<text x="56" y="133.8" text-anchor="end" font-family='system-ui, -apple-system, "Segoe UI", sans-serif' font-size="11" style="font-variant-numeric: tabular-nums" fill="#898781">20</text>
<text x="56" y="46" text-anchor="end" font-family='system-ui, -apple-system, "Segoe UI", sans-serif' font-size="10" fill="#898781">Ir (M)</text>
<line x1="64" y1="306" x2="730" y2="306" stroke="#c3c2b7" stroke-width="1"/>
<text x="64.0" y="322" text-anchor="middle" font-family='system-ui, -apple-system, "Segoe UI", sans-serif' font-size="11" style="font-variant-numeric: tabular-nums" fill="#898781">06-28</text>
<text x="118.7" y="322" text-anchor="middle" font-family='system-ui, -apple-system, "Segoe UI", sans-serif' font-size="11" style="font-variant-numeric: tabular-nums" fill="#898781">06-30</text>
<text x="164.4" y="322" text-anchor="middle" font-family='system-ui, -apple-system, "Segoe UI", sans-serif' font-size="11" style="font-variant-numeric: tabular-nums" fill="#898781">07-02</text>
<text x="264.7" y="322" text-anchor="middle" font-family='system-ui, -apple-system, "Segoe UI", sans-serif' font-size="11" style="font-variant-numeric: tabular-nums" fill="#898781">07-04</text>
<text x="410.7" y="322" text-anchor="middle" font-family='system-ui, -apple-system, "Segoe UI", sans-serif' font-size="11" style="font-variant-numeric: tabular-nums" fill="#898781">07-07</text>
<text x="501.9" y="322" text-anchor="middle" font-family='system-ui, -apple-system, "Segoe UI", sans-serif' font-size="11" style="font-variant-numeric: tabular-nums" fill="#898781">07-09</text>
<text x="574.9" y="322" text-anchor="middle" font-family='system-ui, -apple-system, "Segoe UI", sans-serif' font-size="11" style="font-variant-numeric: tabular-nums" fill="#898781">07-11</text>
<path d="M127.9,56.2 L137.0,56.2 L146.1,56.1 L155.2,61.2 L164.4,56.2 L173.5,56.2 L182.6,56.2 L191.7,56.2 L200.8,56.2 L210.0,56.2 L219.1,56.2 L228.2,56.2 L237.3,56.2 L246.5,56.2 L255.6,56.2 L264.7,56.2 L273.8,56.2 L283.0,56.2 L292.1,56.2 L301.2,60.8 L310.3,56.1 L319.5,56.1 L328.6,56.1 L337.7,56.1 L346.8,56.1 L355.9,60.6 L365.1,60.6 L374.2,56.1 L383.3,56.0 L392.4,56.0 L401.6,56.0 L410.7,56.0 L419.8,56.0 L428.9,56.0 L438.1,56.0 L447.2,56.0 L456.3,56.0 L465.4,56.0 L474.5,56.0 L483.7,56.0 L492.8,56.0 L501.9,56.0 L511.0,56.0 L520.2,61.0 L529.3,61.0 L538.4,61.0 L547.5,56.1 L556.7,61.3 L565.8,56.3 L574.9,56.4 L584.0,64.4 L593.2,64.4 L602.3,64.4 L611.4,64.4 L620.5,64.4 L629.6,64.4 L638.8,64.4 L647.9,64.4 L657.0,64.4 L666.1,64.4 L675.3,64.4 L684.4,64.4 L693.5,64.4 L702.6,64.4 L711.8,64.4 L720.9,64.4 L730.0,64.4" fill="none" stroke="#2a78d6" stroke-width="2" stroke-linejoin="round" stroke-linecap="round"/>
<circle cx="730.0" cy="64.4" r="6" fill="#fcfcfb"/>
<circle cx="730.0" cy="64.4" r="4" fill="#2a78d6"/>
<path d="M64.0,246.7 L73.1,246.7 L82.2,246.7 L91.4,246.7 L100.5,246.7 L109.6,246.6 L118.7,246.6 L127.9,246.2 L137.0,246.3 L146.1,246.3 L155.2,246.3 L164.4,246.3 L173.5,246.3 L182.6,246.3 L191.7,246.3 L200.8,246.3 L210.0,246.3 L219.1,246.3 L228.2,251.7 L237.3,251.7 L246.5,251.7 L255.6,251.7 L264.7,251.7 L273.8,251.7 L283.0,251.7 L292.1,251.7 L301.2,251.7 L310.3,251.6 L319.5,251.6 L328.6,251.6 L337.7,251.6 L346.8,251.6 L355.9,251.6 L365.1,251.6 L374.2,251.6 L383.3,251.5 L392.4,251.5 L401.6,251.5 L410.7,251.5 L419.8,251.5 L428.9,251.5 L438.1,251.5 L447.2,251.5 L456.3,251.5 L465.4,251.5 L474.5,251.5 L483.7,251.5 L492.8,251.5 L501.9,251.5 L511.0,251.5 L520.2,251.6 L529.3,251.6 L538.4,251.6 L547.5,251.6 L556.7,251.9 L565.8,251.9 L574.9,251.9 L584.0,252.5 L593.2,252.5 L602.3,252.5 L611.4,252.5 L620.5,252.5 L629.6,252.5 L638.8,252.5 L647.9,252.5 L657.0,252.5 L666.1,252.5 L675.3,252.5 L684.4,252.5 L693.5,252.5 L702.6,252.5 L711.8,252.5 L720.9,252.5 L730.0,252.5" fill="none" stroke="#1baf7a" stroke-width="2" stroke-linejoin="round" stroke-linecap="round"/>
<circle cx="730.0" cy="252.5" r="6" fill="#fcfcfb"/>
<circle cx="730.0" cy="252.5" r="4" fill="#1baf7a"/>
<path d="M82.2,97.2 L91.4,97.2 L100.5,97.2 L109.6,138.2 L118.7,138.2 L127.9,137.8 L137.0,137.8 L146.1,137.8 L155.2,137.9 L164.4,137.8 L173.5,137.9 L182.6,137.8 L191.7,137.8 L200.8,137.8 L210.0,137.8 L219.1,137.8 L228.2,142.4 L237.3,142.4 L246.5,142.4 L255.6,142.4 L264.7,142.4 L273.8,142.4 L283.0,142.4 L292.1,142.4 L301.2,142.4 L310.3,142.4 L319.5,142.4 L328.6,142.4 L337.7,142.4 L346.8,142.4 L355.9,142.3 L365.1,142.4 L374.2,142.3 L383.3,142.3 L392.4,142.3 L401.6,142.3 L410.7,142.3 L419.8,142.3 L428.9,142.3 L438.1,142.3 L447.2,142.3 L456.3,142.3 L465.4,142.3 L474.5,142.3 L483.7,142.3 L492.8,142.3 L501.9,142.3 L511.0,142.3 L520.2,142.3 L529.3,142.3 L538.4,142.3 L547.5,142.3 L556.7,142.6 L565.8,142.6 L574.9,142.7 L584.0,143.3 L593.2,143.3 L602.3,143.3 L611.4,143.3 L620.5,143.3 L629.6,143.3 L638.8,143.3 L647.9,143.3 L657.0,143.3 L666.1,143.3 L675.3,143.3 L684.4,143.3 L693.5,143.3 L702.6,143.3 L711.8,143.3 L720.9,143.3 L730.0,143.3" fill="none" stroke="#eda100" stroke-width="2" stroke-linejoin="round" stroke-linecap="round"/>
<circle cx="730.0" cy="143.3" r="6" fill="#fcfcfb"/>
<circle cx="730.0" cy="143.3" r="4" fill="#eda100"/>
<path d="M64.0,195.3 L73.1,195.3 L82.2,195.4 L91.4,195.4 L100.5,195.4 L109.6,204.2 L118.7,204.1 L127.9,203.8 L137.0,203.8 L146.1,203.8 L155.2,203.9 L164.4,203.8 L173.5,203.8 L182.6,203.8 L191.7,203.8 L200.8,203.8 L210.0,203.8 L219.1,203.8 L228.2,208.4 L237.3,208.4 L246.5,208.4 L255.6,208.4 L264.7,208.4 L273.8,208.4 L283.0,208.4 L292.1,208.4 L301.2,208.5 L310.3,208.3 L319.5,208.3 L328.6,208.3 L337.7,208.3 L346.8,208.3 L355.9,208.3 L365.1,208.4 L374.2,208.4 L383.3,208.2 L392.4,208.2 L401.6,208.2 L410.7,208.2 L419.8,208.2 L428.9,208.2 L438.1,208.2 L447.2,208.2 L456.3,208.2 L465.4,208.2 L474.5,208.2 L483.7,208.2 L492.8,208.2 L501.9,208.2 L511.0,208.2 L520.2,208.4 L529.3,208.3 L538.4,208.3 L547.5,208.3 L556.7,208.6 L565.8,208.6 L574.9,208.6 L584.0,209.2 L593.2,209.2 L602.3,209.2 L611.4,209.2 L620.5,209.2 L629.6,209.2 L638.8,209.2 L647.9,209.2 L657.0,209.2 L666.1,209.2 L675.3,209.2 L684.4,209.2 L693.5,209.2 L702.6,209.2 L711.8,209.2 L720.9,209.2 L730.0,209.2" fill="none" stroke="#008300" stroke-width="2" stroke-linejoin="round" stroke-linecap="round"/>
<circle cx="730.0" cy="209.2" r="6" fill="#fcfcfb"/>
<circle cx="730.0" cy="209.2" r="4" fill="#008300"/>
<path d="M529.3,229.0 L538.4,229.0 L547.5,229.1 L556.7,229.3 L565.8,229.3 L574.9,229.3 L584.0,229.9 L593.2,229.9 L602.3,229.9 L611.4,229.9 L620.5,229.9 L629.6,229.9 L638.8,229.9 L647.9,229.9 L657.0,229.9 L666.1,229.9 L675.3,229.9 L684.4,229.9 L693.5,229.9 L702.6,229.9 L711.8,229.9 L720.9,229.9 L730.0,229.9" fill="none" stroke="#4a3aa7" stroke-width="2" stroke-linejoin="round" stroke-linecap="round"/>
<circle cx="730.0" cy="229.9" r="6" fill="#fcfcfb"/>
<circle cx="730.0" cy="229.9" r="4" fill="#4a3aa7"/>
<path d="M64.0,262.8 L73.1,262.8 L82.2,262.8 L91.4,262.8 L100.5,263.0 L109.6,263.2 L118.7,263.0 L127.9,262.4 L137.0,262.5 L146.1,262.4 L155.2,262.5 L164.4,262.5 L173.5,262.5 L182.6,262.5 L191.7,262.5 L200.8,262.5 L210.0,262.5 L219.1,262.5 L228.2,261.7 L237.3,261.7 L246.5,261.6 L255.6,261.4 L264.7,261.4 L273.8,261.4 L283.0,261.4 L292.1,261.4 L301.2,261.4 L310.3,261.3 L319.5,261.3 L328.6,261.3 L337.7,261.3 L346.8,261.3 L355.9,261.2 L365.1,261.3 L374.2,261.3 L383.3,261.0 L392.4,261.0 L401.6,261.1 L410.7,261.1 L419.8,261.1 L428.9,261.1 L438.1,261.1 L447.2,261.1 L456.3,261.1 L465.4,261.1 L474.5,261.1 L483.7,261.1 L492.8,261.1 L501.9,261.1 L511.0,261.1 L520.2,261.3 L529.3,261.2 L538.4,261.2 L547.5,261.3 L556.7,261.7 L565.8,261.8 L574.9,261.8 L584.0,263.1 L593.2,263.1 L602.3,263.1 L611.4,263.1 L620.5,263.1 L629.6,263.1 L638.8,263.0 L647.9,263.0 L657.0,263.0 L666.1,263.0 L675.3,263.0 L684.4,263.0 L693.5,263.0 L702.6,263.0 L711.8,263.0 L720.9,263.0 L730.0,263.0" fill="none" stroke="#e34948" stroke-width="2" stroke-linejoin="round" stroke-linecap="round"/>
<circle cx="730.0" cy="263.0" r="6" fill="#fcfcfb"/>
<circle cx="730.0" cy="263.0" r="4" fill="#e34948"/>
<circle cx="745.0" cy="60.9" r="3.5" fill="#2a78d6"/>
<text x="753.0" y="64.4" font-family='system-ui, -apple-system, "Segoe UI", sans-serif' font-size="11" fill="#0b0b0b">granulator</text>
<text x="753.0" y="76.4" font-family='system-ui, -apple-system, "Segoe UI", sans-serif' font-size="10" style="font-variant-numeric: tabular-nums" fill="#52514e">27.5M</text>
<circle cx="745.0" cy="139.8" r="3.5" fill="#eda100"/>
<text x="753.0" y="143.3" font-family='system-ui, -apple-system, "Segoe UI", sans-serif' font-size="11" fill="#0b0b0b">resonator</text>
<text x="753.0" y="155.3" font-family='system-ui, -apple-system, "Segoe UI", sans-serif' font-size="10" style="font-variant-numeric: tabular-nums" fill="#52514e">18.5M</text>
<circle cx="745.0" cy="205.7" r="3.5" fill="#008300"/>
<text x="753.0" y="209.2" font-family='system-ui, -apple-system, "Segoe UI", sans-serif' font-size="11" fill="#0b0b0b">reverb</text>
<text x="753.0" y="221.2" font-family='system-ui, -apple-system, "Segoe UI", sans-serif' font-size="10" style="font-variant-numeric: tabular-nums" fill="#52514e">11.0M</text>
<line x1="736.0" y1="229.9" x2="740.0" y2="237.2" stroke="#c3c2b7" stroke-width="1"/>
<circle cx="745.0" cy="233.7" r="3.5" fill="#4a3aa7"/>
<text x="753.0" y="237.2" font-family='system-ui, -apple-system, "Segoe UI", sans-serif' font-size="11" fill="#0b0b0b">saturator</text>
<text x="753.0" y="249.2" font-family='system-ui, -apple-system, "Segoe UI", sans-serif' font-size="10" style="font-variant-numeric: tabular-nums" fill="#52514e">8.66M</text>
<line x1="736.0" y1="252.5" x2="740.0" y2="265.2" stroke="#c3c2b7" stroke-width="1"/>
<circle cx="745.0" cy="261.7" r="3.5" fill="#1baf7a"/>
<text x="753.0" y="265.2" font-family='system-ui, -apple-system, "Segoe UI", sans-serif' font-size="11" fill="#0b0b0b">pan</text>
<text x="753.0" y="277.2" font-family='system-ui, -apple-system, "Segoe UI", sans-serif' font-size="10" style="font-variant-numeric: tabular-nums" fill="#52514e">6.09M</text>
<line x1="736.0" y1="263.0" x2="740.0" y2="293.2" stroke="#c3c2b7" stroke-width="1"/>
<circle cx="745.0" cy="289.7" r="3.5" fill="#e34948"/>
<text x="753.0" y="293.2" font-family='system-ui, -apple-system, "Segoe UI", sans-serif' font-size="11" fill="#0b0b0b">sequencer</text>
<text x="753.0" y="305.2" font-family='system-ui, -apple-system, "Segoe UI", sans-serif' font-size="10" style="font-variant-numeric: tabular-nums" fill="#52514e">4.89M</text>
</svg>