<svg xmlns="http://www.w3.org/2000/svg" width="880" height="340" viewBox="0 0 880 340" role="img" aria-label="Heaviest operators (micro)">
<rect width="880" height="340" rx="6" fill="#fcfcfb"/>
<text x="64" y="24" font-family='system-ui, -apple-system, "Segoe UI", sans-serif' font-size="14" font-weight="600" fill="#0b0b0b">Heaviest operators (micro)</text>
<text x="64" y="41" font-family='system-ui, -apple-system, "Segoe UI", sans-serif' font-size="11" fill="#52514e">per-operator step_node cost over the same 1 s schedule - top 6 by latest Ir</text>
<line x1="64" y1="306.0" x2="730" y2="306.0" stroke="#e1e0d9" stroke-width="1"/>
<text x="56" y="309.5" text-anchor="end" font-family='system-ui, -apple-system, "Segoe UI", sans-serif' font-size="11" style="font-variant-numeric: tabular-nums" fill="#898781">0</text>
<line x1="64" y1="218.1" x2="730" y2="218.1" stroke="#e1e0d9" stroke-width="1"/>
<text x="56" y="221.6" text-anchor="end" font-family='system-ui, -apple-system, "Segoe UI", sans-serif' font-size="11" style="font-variant-numeric: tabular-nums" fill="#898781">10</text>
<line x1="64" y1="130.3" x2="730" y2="130.3" stroke="#e1e0d9" stroke-width="1"/>
<text x="56" y="133.8" text-anchor="end" font-family='system-ui, -apple-system, "Segoe UI", sans-serif' font-size="11" style="font-variant-numeric: tabular-nums" fill="#898781">20</text>
<text x="56" y="46" text-anchor="end" font-family='system-ui, -apple-system, "Segoe UI", sans-serif' font-size="10" fill="#898781">Ir (M)</text>
<line x1="64" y1="306" x2="730" y2="306" stroke="#c3c2b7" stroke-width="1"/>
<text x="64.0" y="322" text-anchor="middle" font-family='system-ui, -apple-system, "Segoe UI", sans-serif' font-size="11" style="font-variant-numeric: tabular-nums" fill="#898781">06-28</text>
<text x="128.5" y="322" text-anchor="middle" font-family='system-ui, -apple-system, "Segoe UI", sans-serif' font-size="11" style="font-variant-numeric: tabular-nums" fill="#898781">06-30</text>
<text x="182.2" y="322" text-anchor="middle" font-family='system-ui, -apple-system, "Segoe UI", sans-serif' font-size="11" style="font-variant-numeric: tabular-nums" fill="#898781">07-02</text>
<text x="300.3" y="322" text-anchor="middle" font-family='system-ui, -apple-system, "Segoe UI", sans-serif' font-size="11" style="font-variant-numeric: tabular-nums" fill="#898781">07-04</text>
<text x="472.2" y="322" text-anchor="middle" font-family='system-ui, -apple-system, "Segoe UI", sans-serif' font-size="11" style="font-variant-numeric: tabular-nums" fill="#898781">07-07</text>
<text x="579.6" y="322" text-anchor="middle" font-family='system-ui, -apple-system, "Segoe UI", sans-serif' font-size="11" style="font-variant-numeric: tabular-nums" fill="#898781">07-09</text>
<text x="665.5" y="322" text-anchor="middle" font-family='system-ui, -apple-system, "Segoe UI", sans-serif' font-size="11" style="font-variant-numeric: tabular-nums" fill="#898781">07-11</text>
<path d="M139.2,56.2 L149.9,56.2 L160.7,56.1 L171.4,61.2 L182.2,56.2 L192.9,56.2 L203.6,56.2 L214.4,56.2 L225.1,56.2 L235.9,56.2 L246.6,56.2 L257.4,56.2 L268.1,56.2 L278.8,56.2 L289.6,56.2 L300.3,56.2 L311.1,56.2 L321.8,56.2 L332.5,56.2 L343.3,60.8 L354.0,56.1 L364.8,56.1 L375.5,56.1 L386.3,56.1 L397.0,56.1 L407.7,60.6 L418.5,60.6 L429.2,56.1 L440.0,56.0 L450.7,56.0 L461.5,56.0 L472.2,56.0 L482.9,56.0 L493.7,56.0 L504.4,56.0 L515.2,56.0 L525.9,56.0 L536.6,56.0 L547.4,56.0 L558.1,56.0 L568.9,56.0 L579.6,56.0 L590.4,56.0 L601.1,61.0 L611.8,61.0 L622.6,61.0 L633.3,56.1 L644.1,61.3 L654.8,56.3 L665.5,56.4 L676.3,64.4 L687.0,64.4 L697.8,64.4 L708.5,64.4 L719.3,64.4 L730.0,64.4" fill="none" stroke="#2a78d6" stroke-width="2" stroke-linejoin="round" stroke-linecap="round"/>
<circle cx="730.0" cy="64.4" r="6" fill="#fcfcfb"/>
<circle cx="730.0" cy="64.4" r="4" fill="#2a78d6"/>
<path d="M64.0,246.7 L74.7,246.7 L85.5,246.7 L96.2,246.7 L107.0,246.7 L117.7,246.6 L128.5,246.6 L139.2,246.2 L149.9,246.3 L160.7,246.3 L171.4,246.3 L182.2,246.3 L192.9,246.3 L203.6,246.3 L214.4,246.3 L225.1,246.3 L235.9,246.3 L246.6,246.3 L257.4,251.7 L268.1,251.7 L278.8,251.7 L289.6,251.7 L300.3,251.7 L311.1,251.7 L321.8,251.7 L332.5,251.7 L343.3,251.7 L354.0,251.6 L364.8,251.6 L375.5,251.6 L386.3,251.6 L397.0,251.6 L407.7,251.6 L418.5,251.6 L429.2,251.6 L440.0,251.5 L450.7,251.5 L461.5,251.5 L472.2,251.5 L482.9,251.5 L493.7,251.5 L504.4,251.5 L515.2,251.5 L525.9,251.5 L536.6,251.5 L547.4,251.5 L558.1,251.5 L568.9,251.5 L579.6,251.5 L590.4,251.5 L601.1,251.6 L611.8,251.6 L622.6,251.6 L633.3,251.6 L644.1,251.9 L654.8,251.9 L665.5,251.9 L676.3,252.5 L687.0,252.5 L697.8,252.5 L708.5,252.5 L719.3,252.5 L730.0,252.5" fill="none" stroke="#1baf7a" stroke-width="2" stroke-linejoin="round" stroke-linecap="round"/>
<circle cx="730.0" cy="252.5" r="6" fill="#fcfcfb"/>
<circle cx="730.0" cy="252.5" r="4" fill="#1baf7a"/>
<path d="M85.5,97.2 L96.2,97.2 L107.0,97.2 L117.7,138.2 L128.5,138.2 L139.2,137.8 L149.9,137.8 L160.7,137.8 L171.4,137.9 L182.2,137.8 L192.9,137.9 L203.6,137.8 L214.4,137.8 L225.1,137.8 L235.9,137.8 L246.6,137.8 L257.4,142.4 L268.1,142.4 L278.8,142.4 L289.6,142.4 L300.3,142.4 L311.1,142.4 L321.8,142.4 L332.5,142.4 L343.3,142.4 L354.0,142.4 L364.8,142.4 L375.5,142.4 L386.3,142.4 L397.0,142.4 L407.7,142.3 L418.5,142.4 L429.2,142.3 L440.0,142.3 L450.7,142.3 L461.5,142.3 L472.2,142.3 L482.9,142.3 L493.7,142.3 L504.4,142.3 L515.2,142.3 L525.9,142.3 L536.6,142.3 L547.4,142.3 L558.1,142.3 L568.9,142.3 L579.6,142.3 L590.4,142.3 L601.1,142.3 L611.8,142.3 L622.6,142.3 L633.3,142.3 L644.1,142.6 L654.8,142.6 L665.5,142.7 L676.3,143.3 L687.0,143.3 L697.8,143.3 L708.5,143.3 L719.3,143.3 L730.0,143.3" fill="none" stroke="#eda100" stroke-width="2" stroke-linejoin="round" stroke-linecap="round"/>
<circle cx="730.0" cy="143.3" r="6" fill="#fcfcfb"/>
<circle cx="730.0" cy="143.3" r="4" fill="#eda100"/>
<path d="M64.0,195.3 L74.7,195.3 L85.5,195.4 L96.2,195.4 L107.0,195.4 L117.7,204.2 L128.5,204.1 L139.2,203.8 L149.9,203.8 L160.7,203.8 L171.4,203.9 L182.2,203.8 L192.9,203.8 L203.6,203.8 L214.4,203.8 L225.1,203.8 L235.9,203.8 L246.6,203.8 L257.4,208.4 L268.1,208.4 L278.8,208.4 L289.6,208.4 L300.3,208.4 L311.1,208.4 L321.8,208.4 L332.5,208.4 L343.3,208.5 L354.0,208.3 L364.8,208.3 L375.5,208.3 L386.3,208.3 L397.0,208.3 L407.7,208.3 L418.5,208.4 L429.2,208.4 L440.0,208.2 L450.7,208.2 L461.5,208.2 L472.2,208.2 L482.9,208.2 L493.7,208.2 L504.4,208.2 L515.2,208.2 L525.9,208.2 L536.6,208.2 L547.4,208.2 L558.1,208.2 L568.9,208.2 L579.6,208.2 L590.4,208.2 L601.1,208.4 L611.8,208.3 L622.6,208.3 L633.3,208.3 L644.1,208.6 L654.8,208.6 L665.5,208.6 L676.3,209.2 L687.0,209.2 L697.8,209.2 L708.5,209.2 L719.3,209.2 L730.0,209.2" fill="none" stroke="#008300" stroke-width="2" stroke-linejoin="round" stroke-linecap="round"/>
<circle cx="730.0" cy="209.2" r="6" fill="#fcfcfb"/>
<circle cx="730.0" cy="209.2" r="4" fill="#008300"/>
<path d="M611.8,229.0 L622.6,229.0 L633.3,229.1 L644.1,229.3 L654.8,229.3 L665.5,229.3 L676.3,229.9 L687.0,229.9 L697.8,229.9 L708.5,229.9 L719.3,229.9 L730.0,229.9" fill="none" stroke="#4a3aa7" stroke-width="2" stroke-linejoin="round" stroke-linecap="round"/>
<circle cx="730.0" cy="229.9" r="6" fill="#fcfcfb"/>
<circle cx="730.0" cy="229.9" r="4" fill="#4a3aa7"/>
<path d="M64.0,262.8 L74.7,262.8 L85.5,262.8 L96.2,262.8 L107.0,263.0 L117.7,263.2 L128.5,263.0 L139.2,262.4 L149.9,262.5 L160.7,262.4 L171.4,262.5 L182.2,262.5 L192.9,262.5 L203.6,262.5 L214.4,262.5 L225.1,262.5 L235.9,262.5 L246.6,262.5 L257.4,261.7 L268.1,261.7 L278.8,261.6 L289.6,261.4 L300.3,261.4 L311.1,261.4 L321.8,261.4 L332.5,261.4 L343.3,261.4 L354.0,261.3 L364.8,261.3 L375.5,261.3 L386.3,261.3 L397.0,261.3 L407.7,261.2 L418.5,261.3 L429.2,261.3 L440.0,261.0 L450.7,261.0 L461.5,261.1 L472.2,261.1 L482.9,261.1 L493.7,261.1 L504.4,261.1 L515.2,261.1 L525.9,261.1 L536.6,261.1 L547.4,261.1 L558.1,261.1 L568.9,261.1 L579.6,261.1 L590.4,261.1 L601.1,261.3 L611.8,261.2 L622.6,261.2 L633.3,261.3 L644.1,261.7 L654.8,261.8 L665.5,261.8 L676.3,263.1 L687.0,263.1 L697.8,263.1 L708.5,263.1 L719.3,263.1 L730.0,263.1" fill="none" stroke="#e34948" stroke-width="2" stroke-linejoin="round" stroke-linecap="round"/>
<circle cx="730.0" cy="263.1" r="6" fill="#fcfcfb"/>
<circle cx="730.0" cy="263.1" r="4" fill="#e34948"/>
<circle cx="745.0" cy="60.9" r="3.5" fill="#2a78d6"/>
<text x="753.0" y="64.4" font-family='system-ui, -apple-system, "Segoe UI", sans-serif' font-size="11" fill="#0b0b0b">granulator</text>
<text x="753.0" y="76.4" font-family='system-ui, -apple-system, "Segoe UI", sans-serif' font-size="10" style="font-variant-numeric: tabular-nums" fill="#52514e">27.5M</text>
<circle cx="745.0" cy="139.8" r="3.5" fill="#eda100"/>
<text x="753.0" y="143.3" font-family='system-ui, -apple-system, "Segoe UI", sans-serif' font-size="11" fill="#0b0b0b">resonator</text>
<text x="753.0" y="155.3" font-family='system-ui, -apple-system, "Segoe UI", sans-serif' font-size="10" style="font-variant-numeric: tabular-nums" fill="#52514e">18.5M</text>
<circle cx="745.0" cy="205.7" r="3.5" fill="#008300"/>
<text x="753.0" y="209.2" font-family='system-ui, -apple-system, "Segoe UI", sans-serif' font-size="11" fill="#0b0b0b">reverb</text>
<text x="753.0" y="221.2" font-family='system-ui, -apple-system, "Segoe UI", sans-serif' font-size="10" style="font-variant-numeric: tabular-nums" fill="#52514e">11.0M</text>
<line x1="736.0" y1="229.9" x2="740.0" y2="237.2" stroke="#c3c2b7" stroke-width="1"/>
<circle cx="745.0" cy="233.7" r="3.5" fill="#4a3aa7"/>
<text x="753.0" y="237.2" font-family='system-ui, -apple-system, "Segoe UI", sans-serif' font-size="11" fill="#0b0b0b">saturator</text>
<text x="753.0" y="249.2" font-family='system-ui, -apple-system, "Segoe UI", sans-serif' font-size="10" style="font-variant-numeric: tabular-nums" fill="#52514e">8.66M</text>
<line x1="736.0" y1="252.5" x2="740.0" y2="265.2" stroke="#c3c2b7" stroke-width="1"/>
<circle cx="745.0" cy="261.7" r="3.5" fill="#1baf7a"/>
<text x="753.0" y="265.2" font-family='system-ui, -apple-system, "Segoe UI", sans-serif' font-size="11" fill="#0b0b0b">pan</text>
<text x="753.0" y="277.2" font-family='system-ui, -apple-system, "Segoe UI", sans-serif' font-size="10" style="font-variant-numeric: tabular-nums" fill="#52514e">6.09M</text>
<line x1="736.0" y1="263.1" x2="740.0" y2="293.2" stroke="#c3c2b7" stroke-width="1"/>
<circle cx="745.0" cy="289.7" r="3.5" fill="#e34948"/>
<text x="753.0" y="293.2" font-family='system-ui, -apple-system, "Segoe UI", sans-serif' font-size="11" fill="#0b0b0b">sequencer</text>
<text x="753.0" y="305.2" font-family='system-ui, -apple-system, "Segoe UI", sans-serif' font-size="10" style="font-variant-numeric: tabular-nums" fill="#52514e">4.89M</text>
</svg>