<svg xmlns="http://www.w3.org/2000/svg" width="880" height="340" viewBox="0 0 880 340" role="img" aria-label="Heaviest operators (micro)">
<rect width="880" height="340" rx="6" fill="#fcfcfb"/>
<text x="64" y="24" font-family='system-ui, -apple-system, "Segoe UI", sans-serif' font-size="14" font-weight="600" fill="#0b0b0b">Heaviest operators (micro)</text>
<text x="64" y="41" font-family='system-ui, -apple-system, "Segoe UI", sans-serif' font-size="11" fill="#52514e">per-operator step_node cost over the same 1 s schedule - top 6 by latest Ir</text>
<line x1="64" y1="306.0" x2="730" y2="306.0" stroke="#e1e0d9" stroke-width="1"/>
<text x="56" y="309.5" text-anchor="end" font-family='system-ui, -apple-system, "Segoe UI", sans-serif' font-size="11" style="font-variant-numeric: tabular-nums" fill="#898781">0</text>
<line x1="64" y1="215.5" x2="730" y2="215.5" stroke="#e1e0d9" stroke-width="1"/>
<text x="56" y="219.0" text-anchor="end" font-family='system-ui, -apple-system, "Segoe UI", sans-serif' font-size="11" style="font-variant-numeric: tabular-nums" fill="#898781">10</text>
<line x1="64" y1="125.0" x2="730" y2="125.0" stroke="#e1e0d9" stroke-width="1"/>
<text x="56" y="128.5" text-anchor="end" font-family='system-ui, -apple-system, "Segoe UI", sans-serif' font-size="11" style="font-variant-numeric: tabular-nums" fill="#898781">20</text>
<text x="56" y="46" text-anchor="end" font-family='system-ui, -apple-system, "Segoe UI", sans-serif' font-size="10" fill="#898781">Ir (M)</text>
<line x1="64" y1="306" x2="730" y2="306" stroke="#c3c2b7" stroke-width="1"/>
<text x="64.0" y="322" text-anchor="middle" font-family='system-ui, -apple-system, "Segoe UI", sans-serif' font-size="11" style="font-variant-numeric: tabular-nums" fill="#898781">07-12</text>
<text x="143.0" y="322" text-anchor="middle" font-family='system-ui, -apple-system, "Segoe UI", sans-serif' font-size="11" style="font-variant-numeric: tabular-nums" fill="#898781">07-14</text>
<text x="244.6" y="322" text-anchor="middle" font-family='system-ui, -apple-system, "Segoe UI", sans-serif' font-size="11" style="font-variant-numeric: tabular-nums" fill="#898781">07-17</text>
<text x="380.1" y="322" text-anchor="middle" font-family='system-ui, -apple-system, "Segoe UI", sans-serif' font-size="11" style="font-variant-numeric: tabular-nums" fill="#898781">07-19</text>
<text x="583.3" y="322" text-anchor="middle" font-family='system-ui, -apple-system, "Segoe UI", sans-serif' font-size="11" style="font-variant-numeric: tabular-nums" fill="#898781">07-21</text>
<path d="M413.9,218.3 L425.2,218.3 L436.5,218.3 L447.8,218.3 L459.1,218.3 L470.4,218.3 L481.7,218.3 L492.9,218.3 L504.2,218.3 L515.5,218.3 L526.8,218.4 L538.1,218.4 L549.4,218.4 L560.7,218.4 L572.0,218.4 L583.3,218.4 L594.5,218.4 L605.8,218.4 L617.1,218.4 L628.4,218.4 L639.7,218.4 L651.0,218.4 L662.3,218.4 L673.6,218.4 L684.8,218.5 L696.1,218.5 L707.4,218.5 L718.7,218.5 L730.0,218.5" fill="none" stroke="#2a78d6" stroke-width="2" stroke-linejoin="round" stroke-linecap="round"/>
<circle cx="730.0" cy="218.5" r="6" fill="#fcfcfb"/>
<circle cx="730.0" cy="218.5" r="4" fill="#2a78d6"/>
<path d="M64.0,57.2 L75.3,57.2 L86.6,57.2 L97.9,57.2 L109.2,57.2 L120.4,57.2 L131.7,57.2 L143.0,57.2 L154.3,57.2 L165.6,57.2 L176.9,57.2 L188.2,57.2 L199.5,57.2 L210.7,57.2 L222.0,57.2 L233.3,57.2 L244.6,57.2 L255.9,57.2 L267.2,57.2 L278.5,57.2 L289.8,57.2 L301.1,57.2 L312.3,57.2 L323.6,57.2 L334.9,57.2 L346.2,57.2 L357.5,57.2 L368.8,57.2 L380.1,57.2 L391.4,57.2 L402.6,57.2 L413.9,57.2 L425.2,57.2 L436.5,57.2 L447.8,57.2 L459.1,57.2 L470.4,57.2 L481.7,57.2 L492.9,57.2 L504.2,57.2 L515.5,57.2 L526.8,57.2 L538.1,57.2 L549.4,57.2 L560.7,57.2 L572.0,57.2 L583.3,57.2 L594.5,57.2 L605.8,57.2 L617.1,57.2 L628.4,57.2 L639.7,57.2 L651.0,57.2 L662.3,57.2 L673.6,57.2 L684.8,57.2 L696.1,56.0 L707.4,56.0 L718.7,56.0 L730.0,56.0" fill="none" stroke="#1baf7a" stroke-width="2" stroke-linejoin="round" stroke-linecap="round"/>
<circle cx="730.0" cy="56.0" r="6" fill="#fcfcfb"/>
<circle cx="730.0" cy="56.0" r="4" fill="#1baf7a"/>
<path d="M64.0,250.9 L75.3,250.9 L86.6,250.9 L97.9,250.9 L109.2,250.9 L120.4,250.9 L131.7,250.9 L143.0,250.9 L154.3,250.9 L165.6,250.9 L176.9,250.9 L188.2,250.9 L199.5,250.9 L210.7,250.9 L222.0,250.9 L233.3,250.9 L244.6,250.9 L255.9,250.9 L267.2,250.9 L278.5,250.9 L289.8,250.9 L301.1,250.9 L312.3,250.9 L323.6,250.9 L334.9,250.9 L346.2,250.9 L357.5,250.9 L368.8,250.9 L380.1,250.9 L391.4,250.9 L402.6,250.9 L413.9,250.9 L425.2,250.9 L436.5,250.9 L447.8,250.9 L459.1,250.9 L470.4,250.9 L481.7,250.9 L492.9,250.9 L504.2,250.9 L515.5,250.9 L526.8,250.9 L538.1,250.9 L549.4,250.9 L560.7,250.9 L572.0,250.9 L583.3,250.9 L594.5,250.9 L605.8,250.9 L617.1,250.9 L628.4,250.9 L639.7,250.9 L651.0,250.9 L662.3,250.9 L673.6,250.9 L684.8,250.9 L696.1,251.0 L707.4,251.0 L718.7,251.0 L730.0,251.0" fill="none" stroke="#eda100" stroke-width="2" stroke-linejoin="round" stroke-linecap="round"/>
<circle cx="730.0" cy="251.0" r="6" fill="#fcfcfb"/>
<circle cx="730.0" cy="251.0" r="4" fill="#eda100"/>
<path d="M64.0,138.4 L75.3,138.4 L86.6,138.4 L97.9,138.4 L109.2,138.4 L120.4,138.4 L131.7,139.2 L143.0,139.2 L154.3,139.2 L165.6,139.2 L176.9,139.2 L188.2,139.2 L199.5,139.2 L210.7,139.2 L222.0,139.2 L233.3,139.2 L244.6,139.2 L255.9,139.2 L267.2,139.2 L278.5,139.2 L289.8,139.2 L301.1,139.2 L312.3,139.2 L323.6,139.2 L334.9,139.2 L346.2,139.2 L357.5,139.2 L368.8,139.2 L380.1,139.2 L391.4,139.2 L402.6,139.2 L413.9,139.2 L425.2,139.2 L436.5,139.2 L447.8,139.2 L459.1,139.2 L470.4,139.2 L481.7,139.2 L492.9,139.2 L504.2,139.2 L515.5,139.2 L526.8,139.3 L538.1,139.3 L549.4,139.3 L560.7,139.3 L572.0,139.3 L583.3,139.3 L594.5,139.3 L605.8,139.3 L617.1,139.3 L628.4,139.3 L639.7,139.2 L651.0,139.2 L662.3,139.2 L673.6,139.2 L684.8,139.2 L696.1,139.2 L707.4,139.2 L718.7,139.2 L730.0,139.2" fill="none" stroke="#008300" stroke-width="2" stroke-linejoin="round" stroke-linecap="round"/>
<circle cx="730.0" cy="139.2" r="6" fill="#fcfcfb"/>
<circle cx="730.0" cy="139.2" r="4" fill="#008300"/>
<path d="M64.0,206.3 L75.3,206.3 L86.6,206.3 L97.9,206.3 L109.2,206.3 L120.4,206.3 L131.7,206.3 L143.0,206.3 L154.3,206.3 L165.6,206.3 L176.9,206.3 L188.2,206.3 L199.5,206.3 L210.7,206.3 L222.0,206.3 L233.3,206.3 L244.6,206.3 L255.9,206.3 L267.2,206.3 L278.5,206.3 L289.8,206.3 L301.1,206.3 L312.3,206.3 L323.6,206.3 L334.9,206.3 L346.2,206.3 L357.5,206.3 L368.8,206.3 L380.1,206.3 L391.4,206.3 L402.6,206.4 L413.9,206.4 L425.2,206.4 L436.5,206.4 L447.8,206.4 L459.1,206.4 L470.4,206.4 L481.7,206.4 L492.9,206.4 L504.2,206.4 L515.5,206.4 L526.8,206.3 L538.1,206.3 L549.4,206.3 L560.7,206.3 L572.0,206.3 L583.3,206.3 L594.5,206.3 L605.8,206.3 L617.1,206.3 L628.4,206.3 L639.7,206.4 L651.0,206.4 L662.3,206.4 L673.6,206.4 L684.8,206.4 L696.1,206.4 L707.4,206.4 L718.7,206.4 L730.0,206.4" fill="none" stroke="#4a3aa7" stroke-width="2" stroke-linejoin="round" stroke-linecap="round"/>
<circle cx="730.0" cy="206.4" r="6" fill="#fcfcfb"/>
<circle cx="730.0" cy="206.4" r="4" fill="#4a3aa7"/>
<path d="M64.0,227.7 L75.3,227.7 L86.6,227.7 L97.9,227.7 L109.2,227.7 L120.4,227.7 L131.7,227.7 L143.0,227.7 L154.3,227.7 L165.6,227.7 L176.9,227.7 L188.2,227.7 L199.5,227.7 L210.7,227.7 L222.0,227.7 L233.3,227.7 L244.6,227.7 L255.9,227.7 L267.2,227.7 L278.5,227.7 L289.8,227.7 L301.1,227.7 L312.3,227.7 L323.6,227.7 L334.9,227.7 L346.2,227.7 L357.5,227.7 L368.8,227.7 L380.1,227.7 L391.4,227.7 L402.6,227.7 L413.9,227.7 L425.2,227.7 L436.5,227.7 L447.8,227.7 L459.1,227.7 L470.4,227.7 L481.7,227.7 L492.9,227.7 L504.2,227.7 L515.5,227.7 L526.8,227.7 L538.1,227.7 L549.4,227.7 L560.7,227.7 L572.0,227.7 L583.3,227.7 L594.5,227.7 L605.8,227.7 L617.1,227.7 L628.4,227.7 L639.7,227.7 L651.0,227.7 L662.3,227.7 L673.6,227.7 L684.8,227.7 L696.1,227.7 L707.4,227.7 L718.7,227.7 L730.0,227.7" fill="none" stroke="#e34948" stroke-width="2" stroke-linejoin="round" stroke-linecap="round"/>
<circle cx="730.0" cy="227.7" r="6" fill="#fcfcfb"/>
<circle cx="730.0" cy="227.7" r="4" fill="#e34948"/>
<circle cx="745.0" cy="52.5" r="3.5" fill="#1baf7a"/>
<text x="753.0" y="56.0" font-family='system-ui, -apple-system, "Segoe UI", sans-serif' font-size="11" fill="#0b0b0b">granulator</text>
<text x="753.0" y="68.0" font-family='system-ui, -apple-system, "Segoe UI", sans-serif' font-size="10" style="font-variant-numeric: tabular-nums" fill="#52514e">27.6M</text>
<circle cx="745.0" cy="135.7" r="3.5" fill="#008300"/>
<text x="753.0" y="139.2" font-family='system-ui, -apple-system, "Segoe UI", sans-serif' font-size="11" fill="#0b0b0b">resonator</text>
<text x="753.0" y="151.2" font-family='system-ui, -apple-system, "Segoe UI", sans-serif' font-size="10" style="font-variant-numeric: tabular-nums" fill="#52514e">18.4M</text>
<circle cx="745.0" cy="202.9" r="3.5" fill="#4a3aa7"/>
<text x="753.0" y="206.4" font-family='system-ui, -apple-system, "Segoe UI", sans-serif' font-size="11" fill="#0b0b0b">reverb</text>
<text x="753.0" y="218.4" font-family='system-ui, -apple-system, "Segoe UI", sans-serif' font-size="10" style="font-variant-numeric: tabular-nums" fill="#52514e">11.0M</text>
<line x1="736.0" y1="218.5" x2="740.0" y2="234.4" stroke="#c3c2b7" stroke-width="1"/>
<circle cx="745.0" cy="230.9" r="3.5" fill="#2a78d6"/>
<text x="753.0" y="234.4" font-family='system-ui, -apple-system, "Segoe UI", sans-serif' font-size="11" fill="#0b0b0b">compressor</text>
<text x="753.0" y="246.4" font-family='system-ui, -apple-system, "Segoe UI", sans-serif' font-size="10" style="font-variant-numeric: tabular-nums" fill="#52514e">9.67M</text>
<line x1="736.0" y1="227.7" x2="740.0" y2="262.4" stroke="#c3c2b7" stroke-width="1"/>
<circle cx="745.0" cy="258.9" r="3.5" fill="#e34948"/>
<text x="753.0" y="262.4" font-family='system-ui, -apple-system, "Segoe UI", sans-serif' font-size="11" fill="#0b0b0b">saturator</text>
<text x="753.0" y="274.4" font-family='system-ui, -apple-system, "Segoe UI", sans-serif' font-size="10" style="font-variant-numeric: tabular-nums" fill="#52514e">8.65M</text>
<line x1="736.0" y1="251.0" x2="740.0" y2="290.4" stroke="#c3c2b7" stroke-width="1"/>
<circle cx="745.0" cy="286.9" r="3.5" fill="#eda100"/>
<text x="753.0" y="290.4" font-family='system-ui, -apple-system, "Segoe UI", sans-serif' font-size="11" fill="#0b0b0b">pan</text>
<text x="753.0" y="302.4" font-family='system-ui, -apple-system, "Segoe UI", sans-serif' font-size="10" style="font-variant-numeric: tabular-nums" fill="#52514e">6.08M</text>
</svg>