<svg xmlns="http://www.w3.org/2000/svg" width="880" height="340" viewBox="0 0 880 340" role="img" aria-label="Heaviest operators (micro)">
<rect width="880" height="340" rx="6" fill="#fcfcfb"/>
<text x="64" y="24" font-family='system-ui, -apple-system, "Segoe UI", sans-serif' font-size="14" font-weight="600" fill="#0b0b0b">Heaviest operators (micro)</text>
<text x="64" y="41" font-family='system-ui, -apple-system, "Segoe UI", sans-serif' font-size="11" fill="#52514e">per-operator step_node cost over the same 1 s schedule - top 6 by latest Ir</text>
<line x1="64" y1="306.0" x2="730" y2="306.0" stroke="#e1e0d9" stroke-width="1"/>
<text x="56" y="309.5" text-anchor="end" font-family='system-ui, -apple-system, "Segoe UI", sans-serif' font-size="11" style="font-variant-numeric: tabular-nums" fill="#898781">0</text>
<line x1="64" y1="218.1" x2="730" y2="218.1" stroke="#e1e0d9" stroke-width="1"/>
<text x="56" y="221.6" text-anchor="end" font-family='system-ui, -apple-system, "Segoe UI", sans-serif' font-size="11" style="font-variant-numeric: tabular-nums" fill="#898781">10</text>
<line x1="64" y1="130.3" x2="730" y2="130.3" stroke="#e1e0d9" stroke-width="1"/>
<text x="56" y="133.8" text-anchor="end" font-family='system-ui, -apple-system, "Segoe UI", sans-serif' font-size="11" style="font-variant-numeric: tabular-nums" fill="#898781">20</text>
<text x="56" y="46" text-anchor="end" font-family='system-ui, -apple-system, "Segoe UI", sans-serif' font-size="10" fill="#898781">Ir (M)</text>
<line x1="64" y1="306" x2="730" y2="306" stroke="#c3c2b7" stroke-width="1"/>
<text x="64.0" y="322" text-anchor="middle" font-family='system-ui, -apple-system, "Segoe UI", sans-serif' font-size="11" style="font-variant-numeric: tabular-nums" fill="#898781">06-28</text>
<text x="140.8" y="322" text-anchor="middle" font-family='system-ui, -apple-system, "Segoe UI", sans-serif' font-size="11" style="font-variant-numeric: tabular-nums" fill="#898781">06-30</text>
<text x="204.9" y="322" text-anchor="middle" font-family='system-ui, -apple-system, "Segoe UI", sans-serif' font-size="11" style="font-variant-numeric: tabular-nums" fill="#898781">07-02</text>
<text x="345.8" y="322" text-anchor="middle" font-family='system-ui, -apple-system, "Segoe UI", sans-serif' font-size="11" style="font-variant-numeric: tabular-nums" fill="#898781">07-04</text>
<text x="550.7" y="322" text-anchor="middle" font-family='system-ui, -apple-system, "Segoe UI", sans-serif' font-size="11" style="font-variant-numeric: tabular-nums" fill="#898781">07-07</text>
<text x="678.8" y="322" text-anchor="middle" font-family='system-ui, -apple-system, "Segoe UI", sans-serif' font-size="11" style="font-variant-numeric: tabular-nums" fill="#898781">07-09</text>
<path d="M153.7,56.2 L166.5,56.2 L179.3,56.1 L192.1,61.2 L204.9,56.2 L217.7,56.2 L230.5,56.2 L243.3,56.2 L256.1,56.2 L268.9,56.2 L281.7,56.2 L294.5,56.2 L307.3,56.2 L320.2,56.2 L333.0,56.2 L345.8,56.2 L358.6,56.2 L371.4,56.2 L384.2,56.2 L397.0,60.8 L409.8,56.1 L422.6,56.1 L435.4,56.1 L448.2,56.1 L461.0,56.1 L473.8,60.6 L486.7,60.6 L499.5,56.1 L512.3,56.0 L525.1,56.0 L537.9,56.0 L550.7,56.0 L563.5,56.0 L576.3,56.0 L589.1,56.0 L601.9,56.0 L614.7,56.0 L627.5,56.0 L640.3,56.0 L653.2,56.0 L666.0,56.0 L678.8,56.0 L691.6,56.0 L704.4,61.0 L717.2,61.0 L730.0,61.0" fill="none" stroke="#2a78d6" stroke-width="2" stroke-linejoin="round" stroke-linecap="round"/>
<circle cx="730.0" cy="61.0" r="6" fill="#fcfcfb"/>
<circle cx="730.0" cy="61.0" r="4" fill="#2a78d6"/>
<path d="M64.0,246.7 L76.8,246.7 L89.6,246.7 L102.4,246.7 L115.2,246.7 L128.0,246.6 L140.8,246.6 L153.7,246.2 L166.5,246.3 L179.3,246.3 L192.1,246.3 L204.9,246.3 L217.7,246.3 L230.5,246.3 L243.3,246.3 L256.1,246.3 L268.9,246.3 L281.7,246.3 L294.5,251.7 L307.3,251.7 L320.2,251.7 L333.0,251.7 L345.8,251.7 L358.6,251.7 L371.4,251.7 L384.2,251.7 L397.0,251.7 L409.8,251.6 L422.6,251.6 L435.4,251.6 L448.2,251.6 L461.0,251.6 L473.8,251.6 L486.7,251.6 L499.5,251.6 L512.3,251.5 L525.1,251.5 L537.9,251.5 L550.7,251.5 L563.5,251.5 L576.3,251.5 L589.1,251.5 L601.9,251.5 L614.7,251.5 L627.5,251.5 L640.3,251.5 L653.2,251.5 L666.0,251.5 L678.8,251.5 L691.6,251.5 L704.4,251.6 L717.2,251.6 L730.0,251.6" fill="none" stroke="#1baf7a" stroke-width="2" stroke-linejoin="round" stroke-linecap="round"/>
<circle cx="730.0" cy="251.6" r="6" fill="#fcfcfb"/>
<circle cx="730.0" cy="251.6" r="4" fill="#1baf7a"/>
<path d="M89.6,97.2 L102.4,97.2 L115.2,97.2 L128.0,138.2 L140.8,138.2 L153.7,137.8 L166.5,137.8 L179.3,137.8 L192.1,137.9 L204.9,137.8 L217.7,137.9 L230.5,137.8 L243.3,137.8 L256.1,137.8 L268.9,137.8 L281.7,137.8 L294.5,142.4 L307.3,142.4 L320.2,142.4 L333.0,142.4 L345.8,142.4 L358.6,142.4 L371.4,142.4 L384.2,142.4 L397.0,142.4 L409.8,142.4 L422.6,142.4 L435.4,142.4 L448.2,142.4 L461.0,142.4 L473.8,142.3 L486.7,142.4 L499.5,142.3 L512.3,142.3 L525.1,142.3 L537.9,142.3 L550.7,142.3 L563.5,142.3 L576.3,142.3 L589.1,142.3 L601.9,142.3 L614.7,142.3 L627.5,142.3 L640.3,142.3 L653.2,142.3 L666.0,142.3 L678.8,142.3 L691.6,142.3 L704.4,142.3 L717.2,142.3 L730.0,142.3" fill="none" stroke="#eda100" stroke-width="2" stroke-linejoin="round" stroke-linecap="round"/>
<circle cx="730.0" cy="142.3" r="6" fill="#fcfcfb"/>
<circle cx="730.0" cy="142.3" r="4" fill="#eda100"/>
<path d="M64.0,195.3 L76.8,195.3 L89.6,195.4 L102.4,195.4 L115.2,195.4 L128.0,204.2 L140.8,204.1 L153.7,203.8 L166.5,203.8 L179.3,203.8 L192.1,203.9 L204.9,203.8 L217.7,203.8 L230.5,203.8 L243.3,203.8 L256.1,203.8 L268.9,203.8 L281.7,203.8 L294.5,208.4 L307.3,208.4 L320.2,208.4 L333.0,208.4 L345.8,208.4 L358.6,208.4 L371.4,208.4 L384.2,208.4 L397.0,208.5 L409.8,208.3 L422.6,208.3 L435.4,208.3 L448.2,208.3 L461.0,208.3 L473.8,208.3 L486.7,208.4 L499.5,208.4 L512.3,208.2 L525.1,208.2 L537.9,208.2 L550.7,208.2 L563.5,208.2 L576.3,208.2 L589.1,208.2 L601.9,208.2 L614.7,208.2 L627.5,208.2 L640.3,208.2 L653.2,208.2 L666.0,208.2 L678.8,208.2 L691.6,208.2 L704.4,208.4 L717.2,208.3 L730.0,208.3" fill="none" stroke="#008300" stroke-width="2" stroke-linejoin="round" stroke-linecap="round"/>
<circle cx="730.0" cy="208.3" r="6" fill="#fcfcfb"/>
<circle cx="730.0" cy="208.3" r="4" fill="#008300"/>
<path d="M717.2,229.0 L730.0,229.0" fill="none" stroke="#4a3aa7" stroke-width="2" stroke-linejoin="round" stroke-linecap="round"/>
<circle cx="730.0" cy="229.0" r="6" fill="#fcfcfb"/>
<circle cx="730.0" cy="229.0" r="4" fill="#4a3aa7"/>
<path d="M64.0,262.8 L76.8,262.8 L89.6,262.8 L102.4,262.8 L115.2,263.0 L128.0,263.2 L140.8,263.0 L153.7,262.4 L166.5,262.5 L179.3,262.4 L192.1,262.5 L204.9,262.5 L217.7,262.5 L230.5,262.5 L243.3,262.5 L256.1,262.5 L268.9,262.5 L281.7,262.5 L294.5,261.7 L307.3,261.7 L320.2,261.6 L333.0,261.4 L345.8,261.4 L358.6,261.4 L371.4,261.4 L384.2,261.4 L397.0,261.4 L409.8,261.3 L422.6,261.3 L435.4,261.3 L448.2,261.3 L461.0,261.3 L473.8,261.2 L486.7,261.3 L499.5,261.3 L512.3,261.0 L525.1,261.0 L537.9,261.1 L550.7,261.1 L563.5,261.1 L576.3,261.1 L589.1,261.1 L601.9,261.1 L614.7,261.1 L627.5,261.1 L640.3,261.1 L653.2,261.1 L666.0,261.1 L678.8,261.1 L691.6,261.1 L704.4,261.3 L717.2,261.2 L730.0,261.2" fill="none" stroke="#e34948" stroke-width="2" stroke-linejoin="round" stroke-linecap="round"/>
<circle cx="730.0" cy="261.2" r="6" fill="#fcfcfb"/>
<circle cx="730.0" cy="261.2" r="4" fill="#e34948"/>
<circle cx="745.0" cy="57.5" r="3.5" fill="#2a78d6"/>
<text x="753.0" y="61.0" font-family='system-ui, -apple-system, "Segoe UI", sans-serif' font-size="11" fill="#0b0b0b">granulator</text>
<text x="753.0" y="73.0" font-family='system-ui, -apple-system, "Segoe UI", sans-serif' font-size="10" style="font-variant-numeric: tabular-nums" fill="#52514e">27.9M</text>
<circle cx="745.0" cy="138.8" r="3.5" fill="#eda100"/>
<text x="753.0" y="142.3" font-family='system-ui, -apple-system, "Segoe UI", sans-serif' font-size="11" fill="#0b0b0b">resonator</text>
<text x="753.0" y="154.3" font-family='system-ui, -apple-system, "Segoe UI", sans-serif' font-size="10" style="font-variant-numeric: tabular-nums" fill="#52514e">18.6M</text>
<circle cx="745.0" cy="204.8" r="3.5" fill="#008300"/>
<text x="753.0" y="208.3" font-family='system-ui, -apple-system, "Segoe UI", sans-serif' font-size="11" fill="#0b0b0b">reverb</text>
<text x="753.0" y="220.3" font-family='system-ui, -apple-system, "Segoe UI", sans-serif' font-size="10" style="font-variant-numeric: tabular-nums" fill="#52514e">11.1M</text>
<line x1="736.0" y1="229.0" x2="740.0" y2="236.3" stroke="#c3c2b7" stroke-width="1"/>
<circle cx="745.0" cy="232.8" r="3.5" fill="#4a3aa7"/>
<text x="753.0" y="236.3" font-family='system-ui, -apple-system, "Segoe UI", sans-serif' font-size="11" fill="#0b0b0b">saturator</text>
<text x="753.0" y="248.3" font-family='system-ui, -apple-system, "Segoe UI", sans-serif' font-size="10" style="font-variant-numeric: tabular-nums" fill="#52514e">8.76M</text>
<line x1="736.0" y1="251.6" x2="740.0" y2="264.3" stroke="#c3c2b7" stroke-width="1"/>
<circle cx="745.0" cy="260.8" r="3.5" fill="#1baf7a"/>
<text x="753.0" y="264.3" font-family='system-ui, -apple-system, "Segoe UI", sans-serif' font-size="11" fill="#0b0b0b">pan</text>
<text x="753.0" y="276.3" font-family='system-ui, -apple-system, "Segoe UI", sans-serif' font-size="10" style="font-variant-numeric: tabular-nums" fill="#52514e">6.19M</text>
<line x1="736.0" y1="261.2" x2="740.0" y2="292.3" stroke="#c3c2b7" stroke-width="1"/>
<circle cx="745.0" cy="288.8" r="3.5" fill="#e34948"/>
<text x="753.0" y="292.3" font-family='system-ui, -apple-system, "Segoe UI", sans-serif' font-size="11" fill="#0b0b0b">sequencer</text>
<text x="753.0" y="304.3" font-family='system-ui, -apple-system, "Segoe UI", sans-serif' font-size="10" style="font-variant-numeric: tabular-nums" fill="#52514e">5.10M</text>
</svg>