<svg xmlns="http://www.w3.org/2000/svg" width="880" height="340" viewBox="0 0 880 340" role="img" aria-label="Heaviest operators (micro)">
<rect width="880" height="340" rx="6" fill="#fcfcfb"/>
<text x="64" y="24" font-family='system-ui, -apple-system, "Segoe UI", sans-serif' font-size="14" font-weight="600" fill="#0b0b0b">Heaviest operators (micro)</text>
<text x="64" y="41" font-family='system-ui, -apple-system, "Segoe UI", sans-serif' font-size="11" fill="#52514e">per-operator step_node cost over the same 1 s schedule - top 6 by latest Ir</text>
<line x1="64" y1="306.0" x2="730" y2="306.0" stroke="#e1e0d9" stroke-width="1"/>
<text x="56" y="309.5" text-anchor="end" font-family='system-ui, -apple-system, "Segoe UI", sans-serif' font-size="11" style="font-variant-numeric: tabular-nums" fill="#898781">0</text>
<line x1="64" y1="215.5" x2="730" y2="215.5" stroke="#e1e0d9" stroke-width="1"/>
<text x="56" y="219.0" text-anchor="end" font-family='system-ui, -apple-system, "Segoe UI", sans-serif' font-size="11" style="font-variant-numeric: tabular-nums" fill="#898781">10</text>
<line x1="64" y1="125.0" x2="730" y2="125.0" stroke="#e1e0d9" stroke-width="1"/>
<text x="56" y="128.5" text-anchor="end" font-family='system-ui, -apple-system, "Segoe UI", sans-serif' font-size="11" style="font-variant-numeric: tabular-nums" fill="#898781">20</text>
<text x="56" y="46" text-anchor="end" font-family='system-ui, -apple-system, "Segoe UI", sans-serif' font-size="10" fill="#898781">Ir (M)</text>
<line x1="64" y1="306" x2="730" y2="306" stroke="#c3c2b7" stroke-width="1"/>
<text x="64.0" y="322" text-anchor="middle" font-family='system-ui, -apple-system, "Segoe UI", sans-serif' font-size="11" style="font-variant-numeric: tabular-nums" fill="#898781">07-12</text>
<text x="147.2" y="322" text-anchor="middle" font-family='system-ui, -apple-system, "Segoe UI", sans-serif' font-size="11" style="font-variant-numeric: tabular-nums" fill="#898781">07-14</text>
<text x="254.3" y="322" text-anchor="middle" font-family='system-ui, -apple-system, "Segoe UI", sans-serif' font-size="11" style="font-variant-numeric: tabular-nums" fill="#898781">07-17</text>
<text x="397.0" y="322" text-anchor="middle" font-family='system-ui, -apple-system, "Segoe UI", sans-serif' font-size="11" style="font-variant-numeric: tabular-nums" fill="#898781">07-19</text>
<text x="611.1" y="322" text-anchor="middle" font-family='system-ui, -apple-system, "Segoe UI", sans-serif' font-size="11" style="font-variant-numeric: tabular-nums" fill="#898781">07-21</text>
<path d="M432.7,218.3 L444.6,218.3 L456.5,218.3 L468.4,218.3 L480.2,218.3 L492.1,218.3 L504.0,218.3 L515.9,218.3 L527.8,218.3 L539.7,218.3 L551.6,218.4 L563.5,218.4 L575.4,218.4 L587.3,218.4 L599.2,218.4 L611.1,218.4 L623.0,218.4 L634.9,218.4 L646.8,218.4 L658.6,218.4 L670.5,218.4 L682.4,218.4 L694.3,218.4 L706.2,218.4 L718.1,218.5 L730.0,218.5" fill="none" stroke="#2a78d6" stroke-width="2" stroke-linejoin="round" stroke-linecap="round"/>
<circle cx="730.0" cy="218.5" r="6" fill="#fcfcfb"/>
<circle cx="730.0" cy="218.5" r="4" fill="#2a78d6"/>
<path d="M64.0,57.2 L75.9,57.2 L87.8,57.2 L99.7,57.2 L111.6,57.2 L123.5,57.2 L135.4,57.2 L147.2,57.2 L159.1,57.2 L171.0,57.2 L182.9,57.2 L194.8,57.2 L206.7,57.2 L218.6,57.2 L230.5,57.2 L242.4,57.2 L254.3,57.2 L266.2,57.2 L278.1,57.2 L290.0,57.2 L301.9,57.2 L313.8,57.2 L325.6,57.2 L337.5,57.2 L349.4,57.2 L361.3,57.2 L373.2,57.2 L385.1,57.2 L397.0,57.2 L408.9,57.2 L420.8,57.2 L432.7,57.2 L444.6,57.2 L456.5,57.2 L468.4,57.2 L480.2,57.2 L492.1,57.2 L504.0,57.2 L515.9,57.2 L527.8,57.2 L539.7,57.2 L551.6,57.2 L563.5,57.2 L575.4,57.2 L587.3,57.2 L599.2,57.2 L611.1,57.2 L623.0,57.2 L634.9,57.2 L646.8,57.2 L658.6,57.2 L670.5,57.2 L682.4,57.2 L694.3,57.2 L706.2,57.2 L718.1,57.2 L730.0,56.0" fill="none" stroke="#1baf7a" stroke-width="2" stroke-linejoin="round" stroke-linecap="round"/>
<circle cx="730.0" cy="56.0" r="6" fill="#fcfcfb"/>
<circle cx="730.0" cy="56.0" r="4" fill="#1baf7a"/>
<path d="M64.0,250.9 L75.9,250.9 L87.8,250.9 L99.7,250.9 L111.6,250.9 L123.5,250.9 L135.4,250.9 L147.2,250.9 L159.1,250.9 L171.0,250.9 L182.9,250.9 L194.8,250.9 L206.7,250.9 L218.6,250.9 L230.5,250.9 L242.4,250.9 L254.3,250.9 L266.2,250.9 L278.1,250.9 L290.0,250.9 L301.9,250.9 L313.8,250.9 L325.6,250.9 L337.5,250.9 L349.4,250.9 L361.3,250.9 L373.2,250.9 L385.1,250.9 L397.0,250.9 L408.9,250.9 L420.8,250.9 L432.7,250.9 L444.6,250.9 L456.5,250.9 L468.4,250.9 L480.2,250.9 L492.1,250.9 L504.0,250.9 L515.9,250.9 L527.8,250.9 L539.7,250.9 L551.6,250.9 L563.5,250.9 L575.4,250.9 L587.3,250.9 L599.2,250.9 L611.1,250.9 L623.0,250.9 L634.9,250.9 L646.8,250.9 L658.6,250.9 L670.5,250.9 L682.4,250.9 L694.3,250.9 L706.2,250.9 L718.1,250.9 L730.0,251.0" fill="none" stroke="#eda100" stroke-width="2" stroke-linejoin="round" stroke-linecap="round"/>
<circle cx="730.0" cy="251.0" r="6" fill="#fcfcfb"/>
<circle cx="730.0" cy="251.0" r="4" fill="#eda100"/>
<path d="M64.0,138.4 L75.9,138.4 L87.8,138.4 L99.7,138.4 L111.6,138.4 L123.5,138.4 L135.4,139.2 L147.2,139.2 L159.1,139.2 L171.0,139.2 L182.9,139.2 L194.8,139.2 L206.7,139.2 L218.6,139.2 L230.5,139.2 L242.4,139.2 L254.3,139.2 L266.2,139.2 L278.1,139.2 L290.0,139.2 L301.9,139.2 L313.8,139.2 L325.6,139.2 L337.5,139.2 L349.4,139.2 L361.3,139.2 L373.2,139.2 L385.1,139.2 L397.0,139.2 L408.9,139.2 L420.8,139.2 L432.7,139.2 L444.6,139.2 L456.5,139.2 L468.4,139.2 L480.2,139.2 L492.1,139.2 L504.0,139.2 L515.9,139.2 L527.8,139.2 L539.7,139.2 L551.6,139.3 L563.5,139.3 L575.4,139.3 L587.3,139.3 L599.2,139.3 L611.1,139.3 L623.0,139.3 L634.9,139.3 L646.8,139.3 L658.6,139.3 L670.5,139.2 L682.4,139.2 L694.3,139.2 L706.2,139.2 L718.1,139.2 L730.0,139.2" fill="none" stroke="#008300" stroke-width="2" stroke-linejoin="round" stroke-linecap="round"/>
<circle cx="730.0" cy="139.2" r="6" fill="#fcfcfb"/>
<circle cx="730.0" cy="139.2" r="4" fill="#008300"/>
<path d="M64.0,206.3 L75.9,206.3 L87.8,206.3 L99.7,206.3 L111.6,206.3 L123.5,206.3 L135.4,206.3 L147.2,206.3 L159.1,206.3 L171.0,206.3 L182.9,206.3 L194.8,206.3 L206.7,206.3 L218.6,206.3 L230.5,206.3 L242.4,206.3 L254.3,206.3 L266.2,206.3 L278.1,206.3 L290.0,206.3 L301.9,206.3 L313.8,206.3 L325.6,206.3 L337.5,206.3 L349.4,206.3 L361.3,206.3 L373.2,206.3 L385.1,206.3 L397.0,206.3 L408.9,206.3 L420.8,206.4 L432.7,206.4 L444.6,206.4 L456.5,206.4 L468.4,206.4 L480.2,206.4 L492.1,206.4 L504.0,206.4 L515.9,206.4 L527.8,206.4 L539.7,206.4 L551.6,206.3 L563.5,206.3 L575.4,206.3 L587.3,206.3 L599.2,206.3 L611.1,206.3 L623.0,206.3 L634.9,206.3 L646.8,206.3 L658.6,206.3 L670.5,206.4 L682.4,206.4 L694.3,206.4 L706.2,206.4 L718.1,206.4 L730.0,206.4" fill="none" stroke="#4a3aa7" stroke-width="2" stroke-linejoin="round" stroke-linecap="round"/>
<circle cx="730.0" cy="206.4" r="6" fill="#fcfcfb"/>
<circle cx="730.0" cy="206.4" r="4" fill="#4a3aa7"/>
<path d="M64.0,227.7 L75.9,227.7 L87.8,227.7 L99.7,227.7 L111.6,227.7 L123.5,227.7 L135.4,227.7 L147.2,227.7 L159.1,227.7 L171.0,227.7 L182.9,227.7 L194.8,227.7 L206.7,227.7 L218.6,227.7 L230.5,227.7 L242.4,227.7 L254.3,227.7 L266.2,227.7 L278.1,227.7 L290.0,227.7 L301.9,227.7 L313.8,227.7 L325.6,227.7 L337.5,227.7 L349.4,227.7 L361.3,227.7 L373.2,227.7 L385.1,227.7 L397.0,227.7 L408.9,227.7 L420.8,227.7 L432.7,227.7 L444.6,227.7 L456.5,227.7 L468.4,227.7 L480.2,227.7 L492.1,227.7 L504.0,227.7 L515.9,227.7 L527.8,227.7 L539.7,227.7 L551.6,227.7 L563.5,227.7 L575.4,227.7 L587.3,227.7 L599.2,227.7 L611.1,227.7 L623.0,227.7 L634.9,227.7 L646.8,227.7 L658.6,227.7 L670.5,227.7 L682.4,227.7 L694.3,227.7 L706.2,227.7 L718.1,227.7 L730.0,227.7" fill="none" stroke="#e34948" stroke-width="2" stroke-linejoin="round" stroke-linecap="round"/>
<circle cx="730.0" cy="227.7" r="6" fill="#fcfcfb"/>
<circle cx="730.0" cy="227.7" r="4" fill="#e34948"/>
<circle cx="745.0" cy="52.5" r="3.5" fill="#1baf7a"/>
<text x="753.0" y="56.0" font-family='system-ui, -apple-system, "Segoe UI", sans-serif' font-size="11" fill="#0b0b0b">granulator</text>
<text x="753.0" y="68.0" font-family='system-ui, -apple-system, "Segoe UI", sans-serif' font-size="10" style="font-variant-numeric: tabular-nums" fill="#52514e">27.6M</text>
<circle cx="745.0" cy="135.7" r="3.5" fill="#008300"/>
<text x="753.0" y="139.2" font-family='system-ui, -apple-system, "Segoe UI", sans-serif' font-size="11" fill="#0b0b0b">resonator</text>
<text x="753.0" y="151.2" font-family='system-ui, -apple-system, "Segoe UI", sans-serif' font-size="10" style="font-variant-numeric: tabular-nums" fill="#52514e">18.4M</text>
<circle cx="745.0" cy="202.9" r="3.5" fill="#4a3aa7"/>
<text x="753.0" y="206.4" font-family='system-ui, -apple-system, "Segoe UI", sans-serif' font-size="11" fill="#0b0b0b">reverb</text>
<text x="753.0" y="218.4" font-family='system-ui, -apple-system, "Segoe UI", sans-serif' font-size="10" style="font-variant-numeric: tabular-nums" fill="#52514e">11.0M</text>
<line x1="736.0" y1="218.5" x2="740.0" y2="234.4" stroke="#c3c2b7" stroke-width="1"/>
<circle cx="745.0" cy="230.9" r="3.5" fill="#2a78d6"/>
<text x="753.0" y="234.4" font-family='system-ui, -apple-system, "Segoe UI", sans-serif' font-size="11" fill="#0b0b0b">compressor</text>
<text x="753.0" y="246.4" font-family='system-ui, -apple-system, "Segoe UI", sans-serif' font-size="10" style="font-variant-numeric: tabular-nums" fill="#52514e">9.67M</text>
<line x1="736.0" y1="227.7" x2="740.0" y2="262.4" stroke="#c3c2b7" stroke-width="1"/>
<circle cx="745.0" cy="258.9" r="3.5" fill="#e34948"/>
<text x="753.0" y="262.4" font-family='system-ui, -apple-system, "Segoe UI", sans-serif' font-size="11" fill="#0b0b0b">saturator</text>
<text x="753.0" y="274.4" font-family='system-ui, -apple-system, "Segoe UI", sans-serif' font-size="10" style="font-variant-numeric: tabular-nums" fill="#52514e">8.65M</text>
<line x1="736.0" y1="251.0" x2="740.0" y2="290.4" stroke="#c3c2b7" stroke-width="1"/>
<circle cx="745.0" cy="286.9" r="3.5" fill="#eda100"/>
<text x="753.0" y="290.4" font-family='system-ui, -apple-system, "Segoe UI", sans-serif' font-size="11" fill="#0b0b0b">pan</text>
<text x="753.0" y="302.4" font-family='system-ui, -apple-system, "Segoe UI", sans-serif' font-size="10" style="font-variant-numeric: tabular-nums" fill="#52514e">6.08M</text>
</svg>