<svg xmlns="http://www.w3.org/2000/svg" width="880" height="340" viewBox="0 0 880 340" role="img" aria-label="Heaviest operators (micro)">
<rect width="880" height="340" rx="6" fill="#1a1a19"/>
<text x="64" y="24" font-family='system-ui, -apple-system, "Segoe UI", sans-serif' font-size="14" font-weight="600" fill="#ffffff">Heaviest operators (micro)</text>
<text x="64" y="41" font-family='system-ui, -apple-system, "Segoe UI", sans-serif' font-size="11" fill="#c3c2b7">per-operator step_node cost over the same 1 s schedule - top 6 by latest Ir</text>
<line x1="64" y1="306.0" x2="730" y2="306.0" stroke="#2c2c2a" stroke-width="1"/>
<text x="56" y="309.5" text-anchor="end" font-family='system-ui, -apple-system, "Segoe UI", sans-serif' font-size="11" style="font-variant-numeric: tabular-nums" fill="#898781">0</text>
<line x1="64" y1="218.1" x2="730" y2="218.1" stroke="#2c2c2a" stroke-width="1"/>
<text x="56" y="221.6" text-anchor="end" font-family='system-ui, -apple-system, "Segoe UI", sans-serif' font-size="11" style="font-variant-numeric: tabular-nums" fill="#898781">10</text>
<line x1="64" y1="130.3" x2="730" y2="130.3" stroke="#2c2c2a" stroke-width="1"/>
<text x="56" y="133.8" text-anchor="end" font-family='system-ui, -apple-system, "Segoe UI", sans-serif' font-size="11" style="font-variant-numeric: tabular-nums" fill="#898781">20</text>
<text x="56" y="46" text-anchor="end" font-family='system-ui, -apple-system, "Segoe UI", sans-serif' font-size="10" fill="#898781">Ir (M)</text>
<line x1="64" y1="306" x2="730" y2="306" stroke="#383835" stroke-width="1"/>
<text x="64.0" y="322" text-anchor="middle" font-family='system-ui, -apple-system, "Segoe UI", sans-serif' font-size="11" style="font-variant-numeric: tabular-nums" fill="#898781">06-28</text>
<text x="149.0" y="322" text-anchor="middle" font-family='system-ui, -apple-system, "Segoe UI", sans-serif' font-size="11" style="font-variant-numeric: tabular-nums" fill="#898781">06-30</text>
<text x="219.9" y="322" text-anchor="middle" font-family='system-ui, -apple-system, "Segoe UI", sans-serif' font-size="11" style="font-variant-numeric: tabular-nums" fill="#898781">07-02</text>
<text x="375.7" y="322" text-anchor="middle" font-family='system-ui, -apple-system, "Segoe UI", sans-serif' font-size="11" style="font-variant-numeric: tabular-nums" fill="#898781">07-04</text>
<text x="602.5" y="322" text-anchor="middle" font-family='system-ui, -apple-system, "Segoe UI", sans-serif' font-size="11" style="font-variant-numeric: tabular-nums" fill="#898781">07-07</text>
<path d="M163.2,56.2 L177.4,56.2 L191.5,56.1 L205.7,61.2 L219.9,56.2 L234.0,56.2 L248.2,56.2 L262.4,56.2 L276.6,56.2 L290.7,56.2 L304.9,56.2 L319.1,56.2 L333.2,56.2 L347.4,56.2 L361.6,56.2 L375.7,56.2 L389.9,56.2 L404.1,56.2 L418.3,56.2 L432.4,60.8 L446.6,56.1 L460.8,56.1 L474.9,56.1 L489.1,56.1 L503.3,56.1 L517.4,60.6 L531.6,60.6 L545.8,56.1 L560.0,56.0 L574.1,56.0 L588.3,56.0 L602.5,56.0 L616.6,56.0 L630.8,56.0 L645.0,56.0 L659.1,56.0 L673.3,56.0 L687.5,56.0 L701.7,56.0 L715.8,56.0 L730.0,56.0" fill="none" stroke="#3987e5" stroke-width="2" stroke-linejoin="round" stroke-linecap="round"/>
<circle cx="730.0" cy="56.0" r="6" fill="#1a1a19"/>
<circle cx="730.0" cy="56.0" r="4" fill="#3987e5"/>
<path d="M64.0,264.6 L78.2,264.6 L92.3,264.6 L106.5,264.6 L120.7,264.6 L134.9,266.2 L149.0,265.8 L163.2,265.4 L177.4,265.5 L191.5,265.4 L205.7,265.4 L219.9,265.5 L234.0,265.4 L248.2,265.5 L262.4,265.5 L276.6,265.5 L290.7,265.5 L304.9,265.5 L319.1,265.0 L333.2,265.0 L347.4,265.0 L361.6,265.0 L375.7,265.0 L389.9,265.0 L404.1,265.0 L418.3,265.0 L432.4,265.0 L446.6,264.9 L460.8,264.9 L474.9,264.9 L489.1,264.9 L503.3,264.9 L517.4,264.9 L531.6,264.9 L545.8,264.9 L560.0,264.8 L574.1,264.8 L588.3,264.8 L602.5,264.8 L616.6,264.8 L630.8,264.8 L645.0,264.8 L659.1,264.8 L673.3,264.8 L687.5,264.8 L701.7,264.8 L715.8,264.8 L730.0,264.8" fill="none" stroke="#199e70" stroke-width="2" stroke-linejoin="round" stroke-linecap="round"/>
<circle cx="730.0" cy="264.8" r="6" fill="#1a1a19"/>
<circle cx="730.0" cy="264.8" r="4" fill="#199e70"/>
<path d="M64.0,246.7 L78.2,246.7 L92.3,246.7 L106.5,246.7 L120.7,246.7 L134.9,246.6 L149.0,246.6 L163.2,246.2 L177.4,246.3 L191.5,246.3 L205.7,246.3 L219.9,246.3 L234.0,246.3 L248.2,246.3 L262.4,246.3 L276.6,246.3 L290.7,246.3 L304.9,246.3 L319.1,251.7 L333.2,251.7 L347.4,251.7 L361.6,251.7 L375.7,251.7 L389.9,251.7 L404.1,251.7 L418.3,251.7 L432.4,251.7 L446.6,251.6 L460.8,251.6 L474.9,251.6 L489.1,251.6 L503.3,251.6 L517.4,251.6 L531.6,251.6 L545.8,251.6 L560.0,251.5 L574.1,251.5 L588.3,251.5 L602.5,251.5 L616.6,251.5 L630.8,251.5 L645.0,251.5 L659.1,251.5 L673.3,251.5 L687.5,251.5 L701.7,251.5 L715.8,251.5 L730.0,251.5" fill="none" stroke="#c98500" stroke-width="2" stroke-linejoin="round" stroke-linecap="round"/>
<circle cx="730.0" cy="251.5" r="6" fill="#1a1a19"/>
<circle cx="730.0" cy="251.5" r="4" fill="#c98500"/>
<path d="M92.3,97.2 L106.5,97.2 L120.7,97.2 L134.9,138.2 L149.0,138.2 L163.2,137.8 L177.4,137.8 L191.5,137.8 L205.7,137.9 L219.9,137.8 L234.0,137.9 L248.2,137.8 L262.4,137.8 L276.6,137.8 L290.7,137.8 L304.9,137.8 L319.1,142.4 L333.2,142.4 L347.4,142.4 L361.6,142.4 L375.7,142.4 L389.9,142.4 L404.1,142.4 L418.3,142.4 L432.4,142.4 L446.6,142.4 L460.8,142.4 L474.9,142.4 L489.1,142.4 L503.3,142.4 L517.4,142.3 L531.6,142.4 L545.8,142.3 L560.0,142.3 L574.1,142.3 L588.3,142.3 L602.5,142.3 L616.6,142.3 L630.8,142.3 L645.0,142.3 L659.1,142.3 L673.3,142.3 L687.5,142.3 L701.7,142.3 L715.8,142.3 L730.0,142.3" fill="none" stroke="#008300" stroke-width="2" stroke-linejoin="round" stroke-linecap="round"/>
<circle cx="730.0" cy="142.3" r="6" fill="#1a1a19"/>
<circle cx="730.0" cy="142.3" r="4" fill="#008300"/>
<path d="M64.0,195.3 L78.2,195.3 L92.3,195.4 L106.5,195.4 L120.7,195.4 L134.9,204.2 L149.0,204.1 L163.2,203.8 L177.4,203.8 L191.5,203.8 L205.7,203.9 L219.9,203.8 L234.0,203.8 L248.2,203.8 L262.4,203.8 L276.6,203.8 L290.7,203.8 L304.9,203.8 L319.1,208.4 L333.2,208.4 L347.4,208.4 L361.6,208.4 L375.7,208.4 L389.9,208.4 L404.1,208.4 L418.3,208.4 L432.4,208.5 L446.6,208.3 L460.8,208.3 L474.9,208.3 L489.1,208.3 L503.3,208.3 L517.4,208.3 L531.6,208.4 L545.8,208.4 L560.0,208.2 L574.1,208.2 L588.3,208.2 L602.5,208.2 L616.6,208.2 L630.8,208.2 L645.0,208.2 L659.1,208.2 L673.3,208.2 L687.5,208.2 L701.7,208.2 L715.8,208.2 L730.0,208.2" fill="none" stroke="#9085e9" stroke-width="2" stroke-linejoin="round" stroke-linecap="round"/>
<circle cx="730.0" cy="208.2" r="6" fill="#1a1a19"/>
<circle cx="730.0" cy="208.2" r="4" fill="#9085e9"/>
<path d="M64.0,262.8 L78.2,262.8 L92.3,262.8 L106.5,262.8 L120.7,263.0 L134.9,263.2 L149.0,263.0 L163.2,262.4 L177.4,262.5 L191.5,262.4 L205.7,262.5 L219.9,262.5 L234.0,262.5 L248.2,262.5 L262.4,262.5 L276.6,262.5 L290.7,262.5 L304.9,262.5 L319.1,261.7 L333.2,261.7 L347.4,261.6 L361.6,261.4 L375.7,261.4 L389.9,261.4 L404.1,261.4 L418.3,261.4 L432.4,261.4 L446.6,261.3 L460.8,261.3 L474.9,261.3 L489.1,261.3 L503.3,261.3 L517.4,261.2 L531.6,261.3 L545.8,261.3 L560.0,261.0 L574.1,261.0 L588.3,261.1 L602.5,261.1 L616.6,261.1 L630.8,261.1 L645.0,261.1 L659.1,261.1 L673.3,261.1 L687.5,261.1 L701.7,261.1 L715.8,261.1 L730.0,261.1" fill="none" stroke="#e66767" stroke-width="2" stroke-linejoin="round" stroke-linecap="round"/>
<circle cx="730.0" cy="261.1" r="6" fill="#1a1a19"/>
<circle cx="730.0" cy="261.1" r="4" fill="#e66767"/>
<circle cx="745.0" cy="52.5" r="3.5" fill="#3987e5"/>
<text x="753.0" y="56.0" font-family='system-ui, -apple-system, "Segoe UI", sans-serif' font-size="11" fill="#ffffff">granulator</text>
<text x="753.0" y="68.0" font-family='system-ui, -apple-system, "Segoe UI", sans-serif' font-size="10" style="font-variant-numeric: tabular-nums" fill="#c3c2b7">28.5M</text>
<circle cx="745.0" cy="138.8" r="3.5" fill="#008300"/>
<text x="753.0" y="142.3" font-family='system-ui, -apple-system, "Segoe UI", sans-serif' font-size="11" fill="#ffffff">resonator</text>
<text x="753.0" y="154.3" font-family='system-ui, -apple-system, "Segoe UI", sans-serif' font-size="10" style="font-variant-numeric: tabular-nums" fill="#c3c2b7">18.6M</text>
<circle cx="745.0" cy="204.7" r="3.5" fill="#9085e9"/>
<text x="753.0" y="208.2" font-family='system-ui, -apple-system, "Segoe UI", sans-serif' font-size="11" fill="#ffffff">reverb</text>
<text x="753.0" y="220.2" font-family='system-ui, -apple-system, "Segoe UI", sans-serif' font-size="10" style="font-variant-numeric: tabular-nums" fill="#c3c2b7">11.1M</text>
<circle cx="745.0" cy="248.0" r="3.5" fill="#c98500"/>
<text x="753.0" y="251.5" font-family='system-ui, -apple-system, "Segoe UI", sans-serif' font-size="11" fill="#ffffff">pan</text>
<text x="753.0" y="263.5" font-family='system-ui, -apple-system, "Segoe UI", sans-serif' font-size="10" style="font-variant-numeric: tabular-nums" fill="#c3c2b7">6.20M</text>
<line x1="736.0" y1="261.1" x2="740.0" y2="279.5" stroke="#383835" stroke-width="1"/>
<circle cx="745.0" cy="276.0" r="3.5" fill="#e66767"/>
<text x="753.0" y="279.5" font-family='system-ui, -apple-system, "Segoe UI", sans-serif' font-size="11" fill="#ffffff">sequencer</text>
<text x="753.0" y="291.5" font-family='system-ui, -apple-system, "Segoe UI", sans-serif' font-size="10" style="font-variant-numeric: tabular-nums" fill="#c3c2b7">5.11M</text>
<line x1="736.0" y1="264.8" x2="740.0" y2="307.5" stroke="#383835" stroke-width="1"/>
<circle cx="745.0" cy="304.0" r="3.5" fill="#199e70"/>
<text x="753.0" y="307.5" font-family='system-ui, -apple-system, "Segoe UI", sans-serif' font-size="11" fill="#ffffff">map_f32_signal</text>
<text x="753.0" y="319.5" font-family='system-ui, -apple-system, "Segoe UI", sans-serif' font-size="10" style="font-variant-numeric: tabular-nums" fill="#c3c2b7">4.69M</text>
</svg>