<svg xmlns="http://www.w3.org/2000/svg" width="880" height="340" viewBox="0 0 880 340" role="img" aria-label="Heaviest operators (micro)">
<rect width="880" height="340" rx="6" fill="#1a1a19"/>
<text x="64" y="24" font-family='system-ui, -apple-system, "Segoe UI", sans-serif' font-size="14" font-weight="600" fill="#ffffff">Heaviest operators (micro)</text>
<text x="64" y="41" font-family='system-ui, -apple-system, "Segoe UI", sans-serif' font-size="11" fill="#c3c2b7">per-operator step_node cost over the same 1 s schedule - top 6 by latest Ir</text>
<line x1="64" y1="306.0" x2="730" y2="306.0" stroke="#2c2c2a" stroke-width="1"/>
<text x="56" y="309.5" text-anchor="end" font-family='system-ui, -apple-system, "Segoe UI", sans-serif' font-size="11" style="font-variant-numeric: tabular-nums" fill="#898781">0</text>
<line x1="64" y1="215.1" x2="730" y2="215.1" stroke="#2c2c2a" stroke-width="1"/>
<text x="56" y="218.6" text-anchor="end" font-family='system-ui, -apple-system, "Segoe UI", sans-serif' font-size="11" style="font-variant-numeric: tabular-nums" fill="#898781">10</text>
<line x1="64" y1="124.2" x2="730" y2="124.2" stroke="#2c2c2a" stroke-width="1"/>
<text x="56" y="127.7" text-anchor="end" font-family='system-ui, -apple-system, "Segoe UI", sans-serif' font-size="11" style="font-variant-numeric: tabular-nums" fill="#898781">20</text>
<text x="56" y="46" text-anchor="end" font-family='system-ui, -apple-system, "Segoe UI", sans-serif' font-size="10" fill="#898781">Ir (M)</text>
<line x1="64" y1="306" x2="730" y2="306" stroke="#383835" stroke-width="1"/>
<text x="64.0" y="322" text-anchor="middle" font-family='system-ui, -apple-system, "Segoe UI", sans-serif' font-size="11" style="font-variant-numeric: tabular-nums" fill="#898781">07-12</text>
<text x="161.5" y="322" text-anchor="middle" font-family='system-ui, -apple-system, "Segoe UI", sans-serif' font-size="11" style="font-variant-numeric: tabular-nums" fill="#898781">07-13</text>
<text x="177.7" y="322" text-anchor="middle" font-family='system-ui, -apple-system, "Segoe UI", sans-serif' font-size="11" style="font-variant-numeric: tabular-nums" fill="#898781">07-14</text>
<text x="194.0" y="322" text-anchor="middle" font-family='system-ui, -apple-system, "Segoe UI", sans-serif' font-size="11" style="font-variant-numeric: tabular-nums" fill="#898781">07-16</text>
<text x="323.9" y="322" text-anchor="middle" font-family='system-ui, -apple-system, "Segoe UI", sans-serif' font-size="11" style="font-variant-numeric: tabular-nums" fill="#898781">07-17</text>
<text x="421.4" y="322" text-anchor="middle" font-family='system-ui, -apple-system, "Segoe UI", sans-serif' font-size="11" style="font-variant-numeric: tabular-nums" fill="#898781">07-18</text>
<text x="518.8" y="322" text-anchor="middle" font-family='system-ui, -apple-system, "Segoe UI", sans-serif' font-size="11" style="font-variant-numeric: tabular-nums" fill="#898781">07-19</text>
<text x="567.6" y="322" text-anchor="middle" font-family='system-ui, -apple-system, "Segoe UI", sans-serif' font-size="11" style="font-variant-numeric: tabular-nums" fill="#898781">07-20</text>
<path d="M567.6,217.9 L583.8,217.9 L600.0,217.9 L616.3,217.9 L632.5,217.9 L648.8,217.9 L665.0,217.9 L681.3,217.9 L697.5,217.9 L713.8,217.9 L730.0,218.0" fill="none" stroke="#3987e5" stroke-width="2" stroke-linejoin="round" stroke-linecap="round"/>
<circle cx="730.0" cy="218.0" r="6" fill="#1a1a19"/>
<circle cx="730.0" cy="218.0" r="4" fill="#3987e5"/>
<path d="M64.0,56.0 L80.2,56.0 L96.5,56.0 L112.7,56.0 L129.0,56.0 L145.2,56.0 L161.5,56.0 L177.7,56.0 L194.0,56.0 L210.2,56.0 L226.4,56.0 L242.7,56.0 L258.9,56.0 L275.2,56.0 L291.4,56.0 L307.7,56.0 L323.9,56.0 L340.1,56.0 L356.4,56.0 L372.6,56.0 L388.9,56.0 L405.1,56.0 L421.4,56.0 L437.6,56.0 L453.9,56.0 L470.1,56.0 L486.3,56.0 L502.6,56.0 L518.8,56.0 L535.1,56.0 L551.3,56.0 L567.6,56.0 L583.8,56.0 L600.0,56.0 L616.3,56.0 L632.5,56.0 L648.8,56.0 L665.0,56.0 L681.3,56.0 L697.5,56.0 L713.8,56.0 L730.0,56.1" fill="none" stroke="#199e70" stroke-width="2" stroke-linejoin="round" stroke-linecap="round"/>
<circle cx="730.0" cy="56.1" r="6" fill="#1a1a19"/>
<circle cx="730.0" cy="56.1" r="4" fill="#199e70"/>
<path d="M64.0,250.6 L80.2,250.6 L96.5,250.6 L112.7,250.6 L129.0,250.6 L145.2,250.6 L161.5,250.6 L177.7,250.6 L194.0,250.6 L210.2,250.6 L226.4,250.6 L242.7,250.6 L258.9,250.6 L275.2,250.6 L291.4,250.6 L307.7,250.6 L323.9,250.6 L340.1,250.6 L356.4,250.6 L372.6,250.6 L388.9,250.6 L405.1,250.6 L421.4,250.6 L437.6,250.6 L453.9,250.6 L470.1,250.6 L486.3,250.6 L502.6,250.6 L518.8,250.6 L535.1,250.6 L551.3,250.6 L567.6,250.6 L583.8,250.6 L600.0,250.7 L616.3,250.7 L632.5,250.7 L648.8,250.7 L665.0,250.7 L681.3,250.7 L697.5,250.7 L713.8,250.7 L730.0,250.7" fill="none" stroke="#c98500" stroke-width="2" stroke-linejoin="round" stroke-linecap="round"/>
<circle cx="730.0" cy="250.7" r="6" fill="#1a1a19"/>
<circle cx="730.0" cy="250.7" r="4" fill="#c98500"/>
<path d="M64.0,137.6 L80.2,137.6 L96.5,137.6 L112.7,137.6 L129.0,137.6 L145.2,137.6 L161.5,138.4 L177.7,138.4 L194.0,138.4 L210.2,138.4 L226.4,138.4 L242.7,138.4 L258.9,138.4 L275.2,138.4 L291.4,138.4 L307.7,138.4 L323.9,138.4 L340.1,138.4 L356.4,138.4 L372.6,138.4 L388.9,138.4 L405.1,138.4 L421.4,138.4 L437.6,138.4 L453.9,138.4 L470.1,138.4 L486.3,138.4 L502.6,138.4 L518.8,138.4 L535.1,138.4 L551.3,138.4 L567.6,138.4 L583.8,138.4 L600.0,138.4 L616.3,138.4 L632.5,138.4 L648.8,138.4 L665.0,138.4 L681.3,138.4 L697.5,138.4 L713.8,138.4 L730.0,138.5" fill="none" stroke="#008300" stroke-width="2" stroke-linejoin="round" stroke-linecap="round"/>
<circle cx="730.0" cy="138.5" r="6" fill="#1a1a19"/>
<circle cx="730.0" cy="138.5" r="4" fill="#008300"/>
<path d="M64.0,205.9 L80.2,205.9 L96.5,205.9 L112.7,205.9 L129.0,205.9 L145.2,205.9 L161.5,205.9 L177.7,205.9 L194.0,205.9 L210.2,205.9 L226.4,205.9 L242.7,205.9 L258.9,205.9 L275.2,205.9 L291.4,205.9 L307.7,205.9 L323.9,205.9 L340.1,205.9 L356.4,205.9 L372.6,205.9 L388.9,205.9 L405.1,205.9 L421.4,205.9 L437.6,205.9 L453.9,205.9 L470.1,205.9 L486.3,205.9 L502.6,205.9 L518.8,205.9 L535.1,205.9 L551.3,205.9 L567.6,205.9 L583.8,205.9 L600.0,205.9 L616.3,205.9 L632.5,205.9 L648.8,205.9 L665.0,205.9 L681.3,205.9 L697.5,205.9 L713.8,205.9 L730.0,205.9" fill="none" stroke="#9085e9" stroke-width="2" stroke-linejoin="round" stroke-linecap="round"/>
<circle cx="730.0" cy="205.9" r="6" fill="#1a1a19"/>
<circle cx="730.0" cy="205.9" r="4" fill="#9085e9"/>
<path d="M64.0,227.3 L80.2,227.3 L96.5,227.3 L112.7,227.3 L129.0,227.3 L145.2,227.3 L161.5,227.3 L177.7,227.3 L194.0,227.3 L210.2,227.3 L226.4,227.3 L242.7,227.3 L258.9,227.3 L275.2,227.3 L291.4,227.3 L307.7,227.3 L323.9,227.3 L340.1,227.3 L356.4,227.3 L372.6,227.3 L388.9,227.3 L405.1,227.3 L421.4,227.3 L437.6,227.3 L453.9,227.3 L470.1,227.3 L486.3,227.3 L502.6,227.3 L518.8,227.3 L535.1,227.3 L551.3,227.3 L567.6,227.3 L583.8,227.3 L600.0,227.3 L616.3,227.3 L632.5,227.3 L648.8,227.3 L665.0,227.3 L681.3,227.3 L697.5,227.3 L713.8,227.3 L730.0,227.3" fill="none" stroke="#e66767" stroke-width="2" stroke-linejoin="round" stroke-linecap="round"/>
<circle cx="730.0" cy="227.3" r="6" fill="#1a1a19"/>
<circle cx="730.0" cy="227.3" r="4" fill="#e66767"/>
<circle cx="745.0" cy="52.6" r="3.5" fill="#199e70"/>
<text x="753.0" y="56.1" font-family='system-ui, -apple-system, "Segoe UI", sans-serif' font-size="11" fill="#ffffff">granulator</text>
<text x="753.0" y="68.1" font-family='system-ui, -apple-system, "Segoe UI", sans-serif' font-size="10" style="font-variant-numeric: tabular-nums" fill="#c3c2b7">27.5M</text>
<circle cx="745.0" cy="135.0" r="3.5" fill="#008300"/>
<text x="753.0" y="138.5" font-family='system-ui, -apple-system, "Segoe UI", sans-serif' font-size="11" fill="#ffffff">resonator</text>
<text x="753.0" y="150.5" font-family='system-ui, -apple-system, "Segoe UI", sans-serif' font-size="10" style="font-variant-numeric: tabular-nums" fill="#c3c2b7">18.4M</text>
<circle cx="745.0" cy="202.4" r="3.5" fill="#9085e9"/>
<text x="753.0" y="205.9" font-family='system-ui, -apple-system, "Segoe UI", sans-serif' font-size="11" fill="#ffffff">reverb</text>
<text x="753.0" y="217.9" font-family='system-ui, -apple-system, "Segoe UI", sans-serif' font-size="10" style="font-variant-numeric: tabular-nums" fill="#c3c2b7">11.0M</text>
<line x1="736.0" y1="218.0" x2="740.0" y2="233.9" stroke="#383835" stroke-width="1"/>
<circle cx="745.0" cy="230.4" r="3.5" fill="#3987e5"/>
<text x="753.0" y="233.9" font-family='system-ui, -apple-system, "Segoe UI", sans-serif' font-size="11" fill="#ffffff">compressor</text>
<text x="753.0" y="245.9" font-family='system-ui, -apple-system, "Segoe UI", sans-serif' font-size="10" style="font-variant-numeric: tabular-nums" fill="#c3c2b7">9.68M</text>
<line x1="736.0" y1="227.3" x2="740.0" y2="261.9" stroke="#383835" stroke-width="1"/>
<circle cx="745.0" cy="258.4" r="3.5" fill="#e66767"/>
<text x="753.0" y="261.9" font-family='system-ui, -apple-system, "Segoe UI", sans-serif' font-size="11" fill="#ffffff">saturator</text>
<text x="753.0" y="273.9" font-family='system-ui, -apple-system, "Segoe UI", sans-serif' font-size="10" style="font-variant-numeric: tabular-nums" fill="#c3c2b7">8.65M</text>
<line x1="736.0" y1="250.7" x2="740.0" y2="289.9" stroke="#383835" stroke-width="1"/>
<circle cx="745.0" cy="286.4" r="3.5" fill="#c98500"/>
<text x="753.0" y="289.9" font-family='system-ui, -apple-system, "Segoe UI", sans-serif' font-size="11" fill="#ffffff">pan</text>
<text x="753.0" y="301.9" font-family='system-ui, -apple-system, "Segoe UI", sans-serif' font-size="10" style="font-variant-numeric: tabular-nums" fill="#c3c2b7">6.08M</text>
</svg>