<svg xmlns="http://www.w3.org/2000/svg" width="880" height="340" viewBox="0 0 880 340" role="img" aria-label="Heaviest operators (micro)">
<rect width="880" height="340" rx="6" fill="#1a1a19"/>
<text x="64" y="24" font-family='system-ui, -apple-system, "Segoe UI", sans-serif' font-size="14" font-weight="600" fill="#ffffff">Heaviest operators (micro)</text>
<text x="64" y="41" font-family='system-ui, -apple-system, "Segoe UI", sans-serif' font-size="11" fill="#c3c2b7">per-operator step_node cost over the same 1 s schedule - top 6 by latest Ir</text>
<line x1="64" y1="306.0" x2="730" y2="306.0" stroke="#2c2c2a" stroke-width="1"/>
<text x="56" y="309.5" text-anchor="end" font-family='system-ui, -apple-system, "Segoe UI", sans-serif' font-size="11" style="font-variant-numeric: tabular-nums" fill="#898781">0</text>
<line x1="64" y1="215.1" x2="730" y2="215.1" stroke="#2c2c2a" stroke-width="1"/>
<text x="56" y="218.6" text-anchor="end" font-family='system-ui, -apple-system, "Segoe UI", sans-serif' font-size="11" style="font-variant-numeric: tabular-nums" fill="#898781">10</text>
<line x1="64" y1="124.2" x2="730" y2="124.2" stroke="#2c2c2a" stroke-width="1"/>
<text x="56" y="127.7" text-anchor="end" font-family='system-ui, -apple-system, "Segoe UI", sans-serif' font-size="11" style="font-variant-numeric: tabular-nums" fill="#898781">20</text>
<text x="56" y="46" text-anchor="end" font-family='system-ui, -apple-system, "Segoe UI", sans-serif' font-size="10" fill="#898781">Ir (M)</text>
<line x1="64" y1="306" x2="730" y2="306" stroke="#383835" stroke-width="1"/>
<text x="64.0" y="322" text-anchor="middle" font-family='system-ui, -apple-system, "Segoe UI", sans-serif' font-size="11" style="font-variant-numeric: tabular-nums" fill="#898781">07-12</text>
<text x="156.9" y="322" text-anchor="middle" font-family='system-ui, -apple-system, "Segoe UI", sans-serif' font-size="11" style="font-variant-numeric: tabular-nums" fill="#898781">07-13</text>
<text x="172.4" y="322" text-anchor="middle" font-family='system-ui, -apple-system, "Segoe UI", sans-serif' font-size="11" style="font-variant-numeric: tabular-nums" fill="#898781">07-14</text>
<text x="187.9" y="322" text-anchor="middle" font-family='system-ui, -apple-system, "Segoe UI", sans-serif' font-size="11" style="font-variant-numeric: tabular-nums" fill="#898781">07-16</text>
<text x="311.8" y="322" text-anchor="middle" font-family='system-ui, -apple-system, "Segoe UI", sans-serif' font-size="11" style="font-variant-numeric: tabular-nums" fill="#898781">07-17</text>
<text x="404.7" y="322" text-anchor="middle" font-family='system-ui, -apple-system, "Segoe UI", sans-serif' font-size="11" style="font-variant-numeric: tabular-nums" fill="#898781">07-18</text>
<text x="497.7" y="322" text-anchor="middle" font-family='system-ui, -apple-system, "Segoe UI", sans-serif' font-size="11" style="font-variant-numeric: tabular-nums" fill="#898781">07-19</text>
<text x="544.1" y="322" text-anchor="middle" font-family='system-ui, -apple-system, "Segoe UI", sans-serif' font-size="11" style="font-variant-numeric: tabular-nums" fill="#898781">07-20</text>
<path d="M544.1,217.9 L559.6,217.9 L575.1,217.9 L590.6,217.9 L606.1,217.9 L621.6,217.9 L637.1,217.9 L652.6,217.9 L668.0,217.9 L683.5,217.9 L699.0,218.0 L714.5,218.0 L730.0,218.0" fill="none" stroke="#3987e5" stroke-width="2" stroke-linejoin="round" stroke-linecap="round"/>
<circle cx="730.0" cy="218.0" r="6" fill="#1a1a19"/>
<circle cx="730.0" cy="218.0" r="4" fill="#3987e5"/>
<path d="M64.0,56.0 L79.5,56.0 L95.0,56.0 L110.5,56.0 L126.0,56.0 L141.4,56.0 L156.9,56.0 L172.4,56.0 L187.9,56.0 L203.4,56.0 L218.9,56.0 L234.4,56.0 L249.9,56.0 L265.3,56.0 L280.8,56.0 L296.3,56.0 L311.8,56.0 L327.3,56.0 L342.8,56.0 L358.3,56.0 L373.8,56.0 L389.3,56.0 L404.7,56.0 L420.2,56.0 L435.7,56.0 L451.2,56.0 L466.7,56.0 L482.2,56.0 L497.7,56.0 L513.2,56.0 L528.7,56.0 L544.1,56.0 L559.6,56.0 L575.1,56.0 L590.6,56.0 L606.1,56.0 L621.6,56.0 L637.1,56.0 L652.6,56.0 L668.0,56.0 L683.5,56.0 L699.0,56.1 L714.5,56.1 L730.0,56.1" fill="none" stroke="#199e70" stroke-width="2" stroke-linejoin="round" stroke-linecap="round"/>
<circle cx="730.0" cy="56.1" r="6" fill="#1a1a19"/>
<circle cx="730.0" cy="56.1" r="4" fill="#199e70"/>
<path d="M64.0,250.6 L79.5,250.6 L95.0,250.6 L110.5,250.6 L126.0,250.6 L141.4,250.6 L156.9,250.6 L172.4,250.6 L187.9,250.6 L203.4,250.6 L218.9,250.6 L234.4,250.6 L249.9,250.6 L265.3,250.6 L280.8,250.6 L296.3,250.6 L311.8,250.6 L327.3,250.6 L342.8,250.6 L358.3,250.6 L373.8,250.6 L389.3,250.6 L404.7,250.6 L420.2,250.6 L435.7,250.6 L451.2,250.6 L466.7,250.6 L482.2,250.6 L497.7,250.6 L513.2,250.6 L528.7,250.6 L544.1,250.6 L559.6,250.6 L575.1,250.7 L590.6,250.7 L606.1,250.7 L621.6,250.7 L637.1,250.7 L652.6,250.7 L668.0,250.7 L683.5,250.7 L699.0,250.7 L714.5,250.7 L730.0,250.7" fill="none" stroke="#c98500" stroke-width="2" stroke-linejoin="round" stroke-linecap="round"/>
<circle cx="730.0" cy="250.7" r="6" fill="#1a1a19"/>
<circle cx="730.0" cy="250.7" r="4" fill="#c98500"/>
<path d="M64.0,137.6 L79.5,137.6 L95.0,137.6 L110.5,137.6 L126.0,137.6 L141.4,137.6 L156.9,138.4 L172.4,138.4 L187.9,138.4 L203.4,138.4 L218.9,138.4 L234.4,138.4 L249.9,138.4 L265.3,138.4 L280.8,138.4 L296.3,138.4 L311.8,138.4 L327.3,138.4 L342.8,138.4 L358.3,138.4 L373.8,138.4 L389.3,138.4 L404.7,138.4 L420.2,138.4 L435.7,138.4 L451.2,138.4 L466.7,138.4 L482.2,138.4 L497.7,138.4 L513.2,138.4 L528.7,138.4 L544.1,138.4 L559.6,138.4 L575.1,138.4 L590.6,138.4 L606.1,138.4 L621.6,138.4 L637.1,138.4 L652.6,138.4 L668.0,138.4 L683.5,138.4 L699.0,138.5 L714.5,138.5 L730.0,138.5" fill="none" stroke="#008300" stroke-width="2" stroke-linejoin="round" stroke-linecap="round"/>
<circle cx="730.0" cy="138.5" r="6" fill="#1a1a19"/>
<circle cx="730.0" cy="138.5" r="4" fill="#008300"/>
<path d="M64.0,205.9 L79.5,205.9 L95.0,205.9 L110.5,205.9 L126.0,205.9 L141.4,205.9 L156.9,205.9 L172.4,205.9 L187.9,205.9 L203.4,205.9 L218.9,205.9 L234.4,205.9 L249.9,205.9 L265.3,205.9 L280.8,205.9 L296.3,205.9 L311.8,205.9 L327.3,205.9 L342.8,205.9 L358.3,205.9 L373.8,205.9 L389.3,205.9 L404.7,205.9 L420.2,205.9 L435.7,205.9 L451.2,205.9 L466.7,205.9 L482.2,205.9 L497.7,205.9 L513.2,205.9 L528.7,205.9 L544.1,205.9 L559.6,205.9 L575.1,205.9 L590.6,205.9 L606.1,205.9 L621.6,205.9 L637.1,205.9 L652.6,205.9 L668.0,205.9 L683.5,205.9 L699.0,205.9 L714.5,205.9 L730.0,205.9" fill="none" stroke="#9085e9" stroke-width="2" stroke-linejoin="round" stroke-linecap="round"/>
<circle cx="730.0" cy="205.9" r="6" fill="#1a1a19"/>
<circle cx="730.0" cy="205.9" r="4" fill="#9085e9"/>
<path d="M64.0,227.3 L79.5,227.3 L95.0,227.3 L110.5,227.3 L126.0,227.3 L141.4,227.3 L156.9,227.3 L172.4,227.3 L187.9,227.3 L203.4,227.3 L218.9,227.3 L234.4,227.3 L249.9,227.3 L265.3,227.3 L280.8,227.3 L296.3,227.3 L311.8,227.3 L327.3,227.3 L342.8,227.3 L358.3,227.3 L373.8,227.3 L389.3,227.3 L404.7,227.3 L420.2,227.3 L435.7,227.3 L451.2,227.3 L466.7,227.3 L482.2,227.3 L497.7,227.3 L513.2,227.3 L528.7,227.3 L544.1,227.3 L559.6,227.3 L575.1,227.3 L590.6,227.3 L606.1,227.3 L621.6,227.3 L637.1,227.3 L652.6,227.3 L668.0,227.3 L683.5,227.3 L699.0,227.3 L714.5,227.3 L730.0,227.3" fill="none" stroke="#e66767" stroke-width="2" stroke-linejoin="round" stroke-linecap="round"/>
<circle cx="730.0" cy="227.3" r="6" fill="#1a1a19"/>
<circle cx="730.0" cy="227.3" r="4" fill="#e66767"/>
<circle cx="745.0" cy="52.6" r="3.5" fill="#199e70"/>
<text x="753.0" y="56.1" font-family='system-ui, -apple-system, "Segoe UI", sans-serif' font-size="11" fill="#ffffff">granulator</text>
<text x="753.0" y="68.1" font-family='system-ui, -apple-system, "Segoe UI", sans-serif' font-size="10" style="font-variant-numeric: tabular-nums" fill="#c3c2b7">27.5M</text>
<circle cx="745.0" cy="135.0" r="3.5" fill="#008300"/>
<text x="753.0" y="138.5" font-family='system-ui, -apple-system, "Segoe UI", sans-serif' font-size="11" fill="#ffffff">resonator</text>
<text x="753.0" y="150.5" font-family='system-ui, -apple-system, "Segoe UI", sans-serif' font-size="10" style="font-variant-numeric: tabular-nums" fill="#c3c2b7">18.4M</text>
<circle cx="745.0" cy="202.4" r="3.5" fill="#9085e9"/>
<text x="753.0" y="205.9" font-family='system-ui, -apple-system, "Segoe UI", sans-serif' font-size="11" fill="#ffffff">reverb</text>
<text x="753.0" y="217.9" font-family='system-ui, -apple-system, "Segoe UI", sans-serif' font-size="10" style="font-variant-numeric: tabular-nums" fill="#c3c2b7">11.0M</text>
<line x1="736.0" y1="218.0" x2="740.0" y2="233.9" stroke="#383835" stroke-width="1"/>
<circle cx="745.0" cy="230.4" r="3.5" fill="#3987e5"/>
<text x="753.0" y="233.9" font-family='system-ui, -apple-system, "Segoe UI", sans-serif' font-size="11" fill="#ffffff">compressor</text>
<text x="753.0" y="245.9" font-family='system-ui, -apple-system, "Segoe UI", sans-serif' font-size="10" style="font-variant-numeric: tabular-nums" fill="#c3c2b7">9.68M</text>
<line x1="736.0" y1="227.3" x2="740.0" y2="261.9" stroke="#383835" stroke-width="1"/>
<circle cx="745.0" cy="258.4" r="3.5" fill="#e66767"/>
<text x="753.0" y="261.9" font-family='system-ui, -apple-system, "Segoe UI", sans-serif' font-size="11" fill="#ffffff">saturator</text>
<text x="753.0" y="273.9" font-family='system-ui, -apple-system, "Segoe UI", sans-serif' font-size="10" style="font-variant-numeric: tabular-nums" fill="#c3c2b7">8.65M</text>
<line x1="736.0" y1="250.7" x2="740.0" y2="289.9" stroke="#383835" stroke-width="1"/>
<circle cx="745.0" cy="286.4" r="3.5" fill="#c98500"/>
<text x="753.0" y="289.9" font-family='system-ui, -apple-system, "Segoe UI", sans-serif' font-size="11" fill="#ffffff">pan</text>
<text x="753.0" y="301.9" font-family='system-ui, -apple-system, "Segoe UI", sans-serif' font-size="10" style="font-variant-numeric: tabular-nums" fill="#c3c2b7">6.08M</text>
</svg>