<svg xmlns="http://www.w3.org/2000/svg" width="880" height="340" viewBox="0 0 880 340" role="img" aria-label="Heaviest operators (micro)">
<rect width="880" height="340" rx="6" fill="#1a1a19"/>
<text x="64" y="24" font-family='system-ui, -apple-system, "Segoe UI", sans-serif' font-size="14" font-weight="600" fill="#ffffff">Heaviest operators (micro)</text>
<text x="64" y="41" font-family='system-ui, -apple-system, "Segoe UI", sans-serif' font-size="11" fill="#c3c2b7">per-operator step_node cost over the same 1 s schedule - top 6 by latest Ir</text>
<line x1="64" y1="306.0" x2="730" y2="306.0" stroke="#2c2c2a" stroke-width="1"/>
<text x="56" y="309.5" text-anchor="end" font-family='system-ui, -apple-system, "Segoe UI", sans-serif' font-size="11" style="font-variant-numeric: tabular-nums" fill="#898781">0</text>
<line x1="64" y1="215.5" x2="730" y2="215.5" stroke="#2c2c2a" stroke-width="1"/>
<text x="56" y="219.0" text-anchor="end" font-family='system-ui, -apple-system, "Segoe UI", sans-serif' font-size="11" style="font-variant-numeric: tabular-nums" fill="#898781">10</text>
<line x1="64" y1="125.0" x2="730" y2="125.0" stroke="#2c2c2a" stroke-width="1"/>
<text x="56" y="128.5" text-anchor="end" font-family='system-ui, -apple-system, "Segoe UI", sans-serif' font-size="11" style="font-variant-numeric: tabular-nums" fill="#898781">20</text>
<text x="56" y="46" text-anchor="end" font-family='system-ui, -apple-system, "Segoe UI", sans-serif' font-size="10" fill="#898781">Ir (M)</text>
<line x1="64" y1="306" x2="730" y2="306" stroke="#383835" stroke-width="1"/>
<text x="64.0" y="322" text-anchor="middle" font-family='system-ui, -apple-system, "Segoe UI", sans-serif' font-size="11" style="font-variant-numeric: tabular-nums" fill="#898781">07-12</text>
<text x="138.0" y="322" text-anchor="middle" font-family='system-ui, -apple-system, "Segoe UI", sans-serif' font-size="11" style="font-variant-numeric: tabular-nums" fill="#898781">07-14</text>
<text x="233.1" y="322" text-anchor="middle" font-family='system-ui, -apple-system, "Segoe UI", sans-serif' font-size="11" style="font-variant-numeric: tabular-nums" fill="#898781">07-17</text>
<text x="360.0" y="322" text-anchor="middle" font-family='system-ui, -apple-system, "Segoe UI", sans-serif' font-size="11" style="font-variant-numeric: tabular-nums" fill="#898781">07-19</text>
<text x="550.3" y="322" text-anchor="middle" font-family='system-ui, -apple-system, "Segoe UI", sans-serif' font-size="11" style="font-variant-numeric: tabular-nums" fill="#898781">07-21</text>
<path d="M391.7,218.3 L402.3,218.3 L412.9,218.3 L423.4,218.3 L434.0,218.3 L444.6,218.3 L455.1,218.3 L465.7,218.3 L476.3,218.3 L486.9,218.3 L497.4,218.4 L508.0,218.4 L518.6,218.4 L529.1,218.4 L539.7,218.4 L550.3,218.4 L560.9,218.4 L571.4,218.4 L582.0,218.4 L592.6,218.4 L603.1,218.4 L613.7,218.4 L624.3,218.4 L634.9,218.4 L645.4,218.5 L656.0,218.5 L666.6,218.5 L677.1,218.5 L687.7,218.5 L698.3,218.5 L708.9,218.5 L719.4,218.5 L730.0,218.5" fill="none" stroke="#3987e5" stroke-width="2" stroke-linejoin="round" stroke-linecap="round"/>
<circle cx="730.0" cy="218.5" r="6" fill="#1a1a19"/>
<circle cx="730.0" cy="218.5" r="4" fill="#3987e5"/>
<path d="M64.0,57.2 L74.6,57.2 L85.1,57.2 L95.7,57.2 L106.3,57.2 L116.9,57.2 L127.4,57.2 L138.0,57.2 L148.6,57.2 L159.1,57.2 L169.7,57.2 L180.3,57.2 L190.9,57.2 L201.4,57.2 L212.0,57.2 L222.6,57.2 L233.1,57.2 L243.7,57.2 L254.3,57.2 L264.9,57.2 L275.4,57.2 L286.0,57.2 L296.6,57.2 L307.1,57.2 L317.7,57.2 L328.3,57.2 L338.9,57.2 L349.4,57.2 L360.0,57.2 L370.6,57.2 L381.1,57.2 L391.7,57.2 L402.3,57.2 L412.9,57.2 L423.4,57.2 L434.0,57.2 L444.6,57.2 L455.1,57.2 L465.7,57.2 L476.3,57.2 L486.9,57.2 L497.4,57.2 L508.0,57.2 L518.6,57.2 L529.1,57.2 L539.7,57.2 L550.3,57.2 L560.9,57.2 L571.4,57.2 L582.0,57.2 L592.6,57.2 L603.1,57.2 L613.7,57.2 L624.3,57.2 L634.9,57.2 L645.4,57.2 L656.0,56.0 L666.6,56.0 L677.1,56.0 L687.7,56.0 L698.3,56.0 L708.9,56.0 L719.4,56.0 L730.0,56.0" fill="none" stroke="#199e70" stroke-width="2" stroke-linejoin="round" stroke-linecap="round"/>
<circle cx="730.0" cy="56.0" r="6" fill="#1a1a19"/>
<circle cx="730.0" cy="56.0" r="4" fill="#199e70"/>
<path d="M64.0,250.9 L74.6,250.9 L85.1,250.9 L95.7,250.9 L106.3,250.9 L116.9,250.9 L127.4,250.9 L138.0,250.9 L148.6,250.9 L159.1,250.9 L169.7,250.9 L180.3,250.9 L190.9,250.9 L201.4,250.9 L212.0,250.9 L222.6,250.9 L233.1,250.9 L243.7,250.9 L254.3,250.9 L264.9,250.9 L275.4,250.9 L286.0,250.9 L296.6,250.9 L307.1,250.9 L317.7,250.9 L328.3,250.9 L338.9,250.9 L349.4,250.9 L360.0,250.9 L370.6,250.9 L381.1,250.9 L391.7,250.9 L402.3,250.9 L412.9,250.9 L423.4,250.9 L434.0,250.9 L444.6,250.9 L455.1,250.9 L465.7,250.9 L476.3,250.9 L486.9,250.9 L497.4,250.9 L508.0,250.9 L518.6,250.9 L529.1,250.9 L539.7,250.9 L550.3,250.9 L560.9,250.9 L571.4,250.9 L582.0,250.9 L592.6,250.9 L603.1,250.9 L613.7,250.9 L624.3,250.9 L634.9,250.9 L645.4,250.9 L656.0,251.0 L666.6,251.0 L677.1,251.0 L687.7,251.0 L698.3,251.0 L708.9,251.0 L719.4,251.0 L730.0,251.0" fill="none" stroke="#c98500" stroke-width="2" stroke-linejoin="round" stroke-linecap="round"/>
<circle cx="730.0" cy="251.0" r="6" fill="#1a1a19"/>
<circle cx="730.0" cy="251.0" r="4" fill="#c98500"/>
<path d="M64.0,138.4 L74.6,138.4 L85.1,138.4 L95.7,138.4 L106.3,138.4 L116.9,138.4 L127.4,139.2 L138.0,139.2 L148.6,139.2 L159.1,139.2 L169.7,139.2 L180.3,139.2 L190.9,139.2 L201.4,139.2 L212.0,139.2 L222.6,139.2 L233.1,139.2 L243.7,139.2 L254.3,139.2 L264.9,139.2 L275.4,139.2 L286.0,139.2 L296.6,139.2 L307.1,139.2 L317.7,139.2 L328.3,139.2 L338.9,139.2 L349.4,139.2 L360.0,139.2 L370.6,139.2 L381.1,139.2 L391.7,139.2 L402.3,139.2 L412.9,139.2 L423.4,139.2 L434.0,139.2 L444.6,139.2 L455.1,139.2 L465.7,139.2 L476.3,139.2 L486.9,139.2 L497.4,139.3 L508.0,139.3 L518.6,139.3 L529.1,139.3 L539.7,139.3 L550.3,139.3 L560.9,139.3 L571.4,139.3 L582.0,139.3 L592.6,139.3 L603.1,139.2 L613.7,139.2 L624.3,139.2 L634.9,139.2 L645.4,139.2 L656.0,139.2 L666.6,139.2 L677.1,139.2 L687.7,139.2 L698.3,139.2 L708.9,139.2 L719.4,139.2 L730.0,139.2" fill="none" stroke="#008300" stroke-width="2" stroke-linejoin="round" stroke-linecap="round"/>
<circle cx="730.0" cy="139.2" r="6" fill="#1a1a19"/>
<circle cx="730.0" cy="139.2" r="4" fill="#008300"/>
<path d="M64.0,206.3 L74.6,206.3 L85.1,206.3 L95.7,206.3 L106.3,206.3 L116.9,206.3 L127.4,206.3 L138.0,206.3 L148.6,206.3 L159.1,206.3 L169.7,206.3 L180.3,206.3 L190.9,206.3 L201.4,206.3 L212.0,206.3 L222.6,206.3 L233.1,206.3 L243.7,206.3 L254.3,206.3 L264.9,206.3 L275.4,206.3 L286.0,206.3 L296.6,206.3 L307.1,206.3 L317.7,206.3 L328.3,206.3 L338.9,206.3 L349.4,206.3 L360.0,206.3 L370.6,206.3 L381.1,206.4 L391.7,206.4 L402.3,206.4 L412.9,206.4 L423.4,206.4 L434.0,206.4 L444.6,206.4 L455.1,206.4 L465.7,206.4 L476.3,206.4 L486.9,206.4 L497.4,206.3 L508.0,206.3 L518.6,206.3 L529.1,206.3 L539.7,206.3 L550.3,206.3 L560.9,206.3 L571.4,206.3 L582.0,206.3 L592.6,206.3 L603.1,206.4 L613.7,206.4 L624.3,206.4 L634.9,206.4 L645.4,206.4 L656.0,206.4 L666.6,206.4 L677.1,206.4 L687.7,206.4 L698.3,206.4 L708.9,206.4 L719.4,206.4 L730.0,206.4" fill="none" stroke="#9085e9" stroke-width="2" stroke-linejoin="round" stroke-linecap="round"/>
<circle cx="730.0" cy="206.4" r="6" fill="#1a1a19"/>
<circle cx="730.0" cy="206.4" r="4" fill="#9085e9"/>
<path d="M64.0,227.7 L74.6,227.7 L85.1,227.7 L95.7,227.7 L106.3,227.7 L116.9,227.7 L127.4,227.7 L138.0,227.7 L148.6,227.7 L159.1,227.7 L169.7,227.7 L180.3,227.7 L190.9,227.7 L201.4,227.7 L212.0,227.7 L222.6,227.7 L233.1,227.7 L243.7,227.7 L254.3,227.7 L264.9,227.7 L275.4,227.7 L286.0,227.7 L296.6,227.7 L307.1,227.7 L317.7,227.7 L328.3,227.7 L338.9,227.7 L349.4,227.7 L360.0,227.7 L370.6,227.7 L381.1,227.7 L391.7,227.7 L402.3,227.7 L412.9,227.7 L423.4,227.7 L434.0,227.7 L444.6,227.7 L455.1,227.7 L465.7,227.7 L476.3,227.7 L486.9,227.7 L497.4,227.7 L508.0,227.7 L518.6,227.7 L529.1,227.7 L539.7,227.7 L550.3,227.7 L560.9,227.7 L571.4,227.7 L582.0,227.7 L592.6,227.7 L603.1,227.7 L613.7,227.7 L624.3,227.7 L634.9,227.7 L645.4,227.7 L656.0,227.7 L666.6,227.7 L677.1,227.7 L687.7,227.7 L698.3,227.7 L708.9,227.7 L719.4,227.7 L730.0,227.7" fill="none" stroke="#e66767" stroke-width="2" stroke-linejoin="round" stroke-linecap="round"/>
<circle cx="730.0" cy="227.7" r="6" fill="#1a1a19"/>
<circle cx="730.0" cy="227.7" r="4" fill="#e66767"/>
<circle cx="745.0" cy="52.5" r="3.5" fill="#199e70"/>
<text x="753.0" y="56.0" font-family='system-ui, -apple-system, "Segoe UI", sans-serif' font-size="11" fill="#ffffff">granulator</text>
<text x="753.0" y="68.0" font-family='system-ui, -apple-system, "Segoe UI", sans-serif' font-size="10" style="font-variant-numeric: tabular-nums" fill="#c3c2b7">27.6M</text>
<circle cx="745.0" cy="135.7" r="3.5" fill="#008300"/>
<text x="753.0" y="139.2" font-family='system-ui, -apple-system, "Segoe UI", sans-serif' font-size="11" fill="#ffffff">resonator</text>
<text x="753.0" y="151.2" font-family='system-ui, -apple-system, "Segoe UI", sans-serif' font-size="10" style="font-variant-numeric: tabular-nums" fill="#c3c2b7">18.4M</text>
<circle cx="745.0" cy="202.9" r="3.5" fill="#9085e9"/>
<text x="753.0" y="206.4" font-family='system-ui, -apple-system, "Segoe UI", sans-serif' font-size="11" fill="#ffffff">reverb</text>
<text x="753.0" y="218.4" font-family='system-ui, -apple-system, "Segoe UI", sans-serif' font-size="10" style="font-variant-numeric: tabular-nums" fill="#c3c2b7">11.0M</text>
<line x1="736.0" y1="218.5" x2="740.0" y2="234.4" stroke="#383835" stroke-width="1"/>
<circle cx="745.0" cy="230.9" r="3.5" fill="#3987e5"/>
<text x="753.0" y="234.4" font-family='system-ui, -apple-system, "Segoe UI", sans-serif' font-size="11" fill="#ffffff">compressor</text>
<text x="753.0" y="246.4" font-family='system-ui, -apple-system, "Segoe UI", sans-serif' font-size="10" style="font-variant-numeric: tabular-nums" fill="#c3c2b7">9.67M</text>
<line x1="736.0" y1="227.7" x2="740.0" y2="262.4" stroke="#383835" stroke-width="1"/>
<circle cx="745.0" cy="258.9" r="3.5" fill="#e66767"/>
<text x="753.0" y="262.4" font-family='system-ui, -apple-system, "Segoe UI", sans-serif' font-size="11" fill="#ffffff">saturator</text>
<text x="753.0" y="274.4" font-family='system-ui, -apple-system, "Segoe UI", sans-serif' font-size="10" style="font-variant-numeric: tabular-nums" fill="#c3c2b7">8.65M</text>
<line x1="736.0" y1="251.0" x2="740.0" y2="290.4" stroke="#383835" stroke-width="1"/>
<circle cx="745.0" cy="286.9" r="3.5" fill="#c98500"/>
<text x="753.0" y="290.4" font-family='system-ui, -apple-system, "Segoe UI", sans-serif' font-size="11" fill="#ffffff">pan</text>
<text x="753.0" y="302.4" font-family='system-ui, -apple-system, "Segoe UI", sans-serif' font-size="10" style="font-variant-numeric: tabular-nums" fill="#c3c2b7">6.08M</text>
</svg>