<svg xmlns="http://www.w3.org/2000/svg" width="880" height="340" viewBox="0 0 880 340" role="img" aria-label="Heaviest operators (micro)">
<rect width="880" height="340" rx="6" fill="#1a1a19"/>
<text x="64" y="24" font-family='system-ui, -apple-system, "Segoe UI", sans-serif' font-size="14" font-weight="600" fill="#ffffff">Heaviest operators (micro)</text>
<text x="64" y="41" font-family='system-ui, -apple-system, "Segoe UI", sans-serif' font-size="11" fill="#c3c2b7">per-operator step_node cost over the same 1 s schedule - top 6 by latest Ir</text>
<line x1="64" y1="306.0" x2="730" y2="306.0" stroke="#2c2c2a" stroke-width="1"/>
<text x="56" y="309.5" text-anchor="end" font-family='system-ui, -apple-system, "Segoe UI", sans-serif' font-size="11" style="font-variant-numeric: tabular-nums" fill="#898781">0</text>
<line x1="64" y1="218.1" x2="730" y2="218.1" stroke="#2c2c2a" stroke-width="1"/>
<text x="56" y="221.6" text-anchor="end" font-family='system-ui, -apple-system, "Segoe UI", sans-serif' font-size="11" style="font-variant-numeric: tabular-nums" fill="#898781">10</text>
<line x1="64" y1="130.3" x2="730" y2="130.3" stroke="#2c2c2a" stroke-width="1"/>
<text x="56" y="133.8" text-anchor="end" font-family='system-ui, -apple-system, "Segoe UI", sans-serif' font-size="11" style="font-variant-numeric: tabular-nums" fill="#898781">20</text>
<text x="56" y="46" text-anchor="end" font-family='system-ui, -apple-system, "Segoe UI", sans-serif' font-size="10" fill="#898781">Ir (M)</text>
<line x1="64" y1="306" x2="730" y2="306" stroke="#383835" stroke-width="1"/>
<text x="64.0" y="322" text-anchor="middle" font-family='system-ui, -apple-system, "Segoe UI", sans-serif' font-size="11" style="font-variant-numeric: tabular-nums" fill="#898781">06-28</text>
<text x="150.9" y="322" text-anchor="middle" font-family='system-ui, -apple-system, "Segoe UI", sans-serif' font-size="11" style="font-variant-numeric: tabular-nums" fill="#898781">06-30</text>
<text x="223.3" y="322" text-anchor="middle" font-family='system-ui, -apple-system, "Segoe UI", sans-serif' font-size="11" style="font-variant-numeric: tabular-nums" fill="#898781">07-02</text>
<text x="382.5" y="322" text-anchor="middle" font-family='system-ui, -apple-system, "Segoe UI", sans-serif' font-size="11" style="font-variant-numeric: tabular-nums" fill="#898781">07-04</text>
<text x="614.2" y="322" text-anchor="middle" font-family='system-ui, -apple-system, "Segoe UI", sans-serif' font-size="11" style="font-variant-numeric: tabular-nums" fill="#898781">07-07</text>
<path d="M165.3,56.2 L179.8,56.2 L194.3,56.1 L208.8,61.2 L223.3,56.2 L237.7,56.2 L252.2,56.2 L266.7,56.2 L281.2,56.2 L295.7,56.2 L310.1,56.2 L324.6,56.2 L339.1,56.2 L353.6,56.2 L368.0,56.2 L382.5,56.2 L397.0,56.2 L411.5,56.2 L426.0,56.2 L440.4,60.8 L454.9,56.1 L469.4,56.1 L483.9,56.1 L498.3,56.1 L512.8,56.1 L527.3,60.6 L541.8,60.6 L556.3,56.1 L570.7,56.0 L585.2,56.0 L599.7,56.0 L614.2,56.0 L628.7,56.0 L643.1,56.0 L657.6,56.0 L672.1,56.0 L686.6,56.0 L701.0,56.0 L715.5,56.0 L730.0,56.0" fill="none" stroke="#3987e5" stroke-width="2" stroke-linejoin="round" stroke-linecap="round"/>
<circle cx="730.0" cy="56.0" r="6" fill="#1a1a19"/>
<circle cx="730.0" cy="56.0" r="4" fill="#3987e5"/>
<path d="M64.0,264.6 L78.5,264.6 L93.0,264.6 L107.4,264.6 L121.9,264.6 L136.4,266.2 L150.9,265.8 L165.3,265.4 L179.8,265.5 L194.3,265.4 L208.8,265.4 L223.3,265.5 L237.7,265.4 L252.2,265.5 L266.7,265.5 L281.2,265.5 L295.7,265.5 L310.1,265.5 L324.6,265.0 L339.1,265.0 L353.6,265.0 L368.0,265.0 L382.5,265.0 L397.0,265.0 L411.5,265.0 L426.0,265.0 L440.4,265.0 L454.9,264.9 L469.4,264.9 L483.9,264.9 L498.3,264.9 L512.8,264.9 L527.3,264.9 L541.8,264.9 L556.3,264.9 L570.7,264.8 L585.2,264.8 L599.7,264.8 L614.2,264.8 L628.7,264.8 L643.1,264.8 L657.6,264.8 L672.1,264.8 L686.6,264.8 L701.0,264.8 L715.5,264.8 L730.0,264.8" fill="none" stroke="#199e70" stroke-width="2" stroke-linejoin="round" stroke-linecap="round"/>
<circle cx="730.0" cy="264.8" r="6" fill="#1a1a19"/>
<circle cx="730.0" cy="264.8" r="4" fill="#199e70"/>
<path d="M64.0,246.7 L78.5,246.7 L93.0,246.7 L107.4,246.7 L121.9,246.7 L136.4,246.6 L150.9,246.6 L165.3,246.2 L179.8,246.3 L194.3,246.3 L208.8,246.3 L223.3,246.3 L237.7,246.3 L252.2,246.3 L266.7,246.3 L281.2,246.3 L295.7,246.3 L310.1,246.3 L324.6,251.7 L339.1,251.7 L353.6,251.7 L368.0,251.7 L382.5,251.7 L397.0,251.7 L411.5,251.7 L426.0,251.7 L440.4,251.7 L454.9,251.6 L469.4,251.6 L483.9,251.6 L498.3,251.6 L512.8,251.6 L527.3,251.6 L541.8,251.6 L556.3,251.6 L570.7,251.5 L585.2,251.5 L599.7,251.5 L614.2,251.5 L628.7,251.5 L643.1,251.5 L657.6,251.5 L672.1,251.5 L686.6,251.5 L701.0,251.5 L715.5,251.5 L730.0,251.5" fill="none" stroke="#c98500" stroke-width="2" stroke-linejoin="round" stroke-linecap="round"/>
<circle cx="730.0" cy="251.5" r="6" fill="#1a1a19"/>
<circle cx="730.0" cy="251.5" r="4" fill="#c98500"/>
<path d="M93.0,97.2 L107.4,97.2 L121.9,97.2 L136.4,138.2 L150.9,138.2 L165.3,137.8 L179.8,137.8 L194.3,137.8 L208.8,137.9 L223.3,137.8 L237.7,137.9 L252.2,137.8 L266.7,137.8 L281.2,137.8 L295.7,137.8 L310.1,137.8 L324.6,142.4 L339.1,142.4 L353.6,142.4 L368.0,142.4 L382.5,142.4 L397.0,142.4 L411.5,142.4 L426.0,142.4 L440.4,142.4 L454.9,142.4 L469.4,142.4 L483.9,142.4 L498.3,142.4 L512.8,142.4 L527.3,142.3 L541.8,142.4 L556.3,142.3 L570.7,142.3 L585.2,142.3 L599.7,142.3 L614.2,142.3 L628.7,142.3 L643.1,142.3 L657.6,142.3 L672.1,142.3 L686.6,142.3 L701.0,142.3 L715.5,142.3 L730.0,142.3" fill="none" stroke="#008300" stroke-width="2" stroke-linejoin="round" stroke-linecap="round"/>
<circle cx="730.0" cy="142.3" r="6" fill="#1a1a19"/>
<circle cx="730.0" cy="142.3" r="4" fill="#008300"/>
<path d="M64.0,195.3 L78.5,195.3 L93.0,195.4 L107.4,195.4 L121.9,195.4 L136.4,204.2 L150.9,204.1 L165.3,203.8 L179.8,203.8 L194.3,203.8 L208.8,203.9 L223.3,203.8 L237.7,203.8 L252.2,203.8 L266.7,203.8 L281.2,203.8 L295.7,203.8 L310.1,203.8 L324.6,208.4 L339.1,208.4 L353.6,208.4 L368.0,208.4 L382.5,208.4 L397.0,208.4 L411.5,208.4 L426.0,208.4 L440.4,208.5 L454.9,208.3 L469.4,208.3 L483.9,208.3 L498.3,208.3 L512.8,208.3 L527.3,208.3 L541.8,208.4 L556.3,208.4 L570.7,208.2 L585.2,208.2 L599.7,208.2 L614.2,208.2 L628.7,208.2 L643.1,208.2 L657.6,208.2 L672.1,208.2 L686.6,208.2 L701.0,208.2 L715.5,208.2 L730.0,208.2" fill="none" stroke="#9085e9" stroke-width="2" stroke-linejoin="round" stroke-linecap="round"/>
<circle cx="730.0" cy="208.2" r="6" fill="#1a1a19"/>
<circle cx="730.0" cy="208.2" r="4" fill="#9085e9"/>
<path d="M64.0,262.8 L78.5,262.8 L93.0,262.8 L107.4,262.8 L121.9,263.0 L136.4,263.2 L150.9,263.0 L165.3,262.4 L179.8,262.5 L194.3,262.4 L208.8,262.5 L223.3,262.5 L237.7,262.5 L252.2,262.5 L266.7,262.5 L281.2,262.5 L295.7,262.5 L310.1,262.5 L324.6,261.7 L339.1,261.7 L353.6,261.6 L368.0,261.4 L382.5,261.4 L397.0,261.4 L411.5,261.4 L426.0,261.4 L440.4,261.4 L454.9,261.3 L469.4,261.3 L483.9,261.3 L498.3,261.3 L512.8,261.3 L527.3,261.2 L541.8,261.3 L556.3,261.3 L570.7,261.0 L585.2,261.0 L599.7,261.1 L614.2,261.1 L628.7,261.1 L643.1,261.1 L657.6,261.1 L672.1,261.1 L686.6,261.1 L701.0,261.1 L715.5,261.1 L730.0,261.1" fill="none" stroke="#e66767" stroke-width="2" stroke-linejoin="round" stroke-linecap="round"/>
<circle cx="730.0" cy="261.1" r="6" fill="#1a1a19"/>
<circle cx="730.0" cy="261.1" r="4" fill="#e66767"/>
<circle cx="745.0" cy="52.5" r="3.5" fill="#3987e5"/>
<text x="753.0" y="56.0" font-family='system-ui, -apple-system, "Segoe UI", sans-serif' font-size="11" fill="#ffffff">granulator</text>
<text x="753.0" y="68.0" font-family='system-ui, -apple-system, "Segoe UI", sans-serif' font-size="10" style="font-variant-numeric: tabular-nums" fill="#c3c2b7">28.5M</text>
<circle cx="745.0" cy="138.8" r="3.5" fill="#008300"/>
<text x="753.0" y="142.3" font-family='system-ui, -apple-system, "Segoe UI", sans-serif' font-size="11" fill="#ffffff">resonator</text>
<text x="753.0" y="154.3" font-family='system-ui, -apple-system, "Segoe UI", sans-serif' font-size="10" style="font-variant-numeric: tabular-nums" fill="#c3c2b7">18.6M</text>
<circle cx="745.0" cy="204.7" r="3.5" fill="#9085e9"/>
<text x="753.0" y="208.2" font-family='system-ui, -apple-system, "Segoe UI", sans-serif' font-size="11" fill="#ffffff">reverb</text>
<text x="753.0" y="220.2" font-family='system-ui, -apple-system, "Segoe UI", sans-serif' font-size="10" style="font-variant-numeric: tabular-nums" fill="#c3c2b7">11.1M</text>
<circle cx="745.0" cy="248.0" r="3.5" fill="#c98500"/>
<text x="753.0" y="251.5" font-family='system-ui, -apple-system, "Segoe UI", sans-serif' font-size="11" fill="#ffffff">pan</text>
<text x="753.0" y="263.5" font-family='system-ui, -apple-system, "Segoe UI", sans-serif' font-size="10" style="font-variant-numeric: tabular-nums" fill="#c3c2b7">6.20M</text>
<line x1="736.0" y1="261.1" x2="740.0" y2="279.5" stroke="#383835" stroke-width="1"/>
<circle cx="745.0" cy="276.0" r="3.5" fill="#e66767"/>
<text x="753.0" y="279.5" font-family='system-ui, -apple-system, "Segoe UI", sans-serif' font-size="11" fill="#ffffff">sequencer</text>
<text x="753.0" y="291.5" font-family='system-ui, -apple-system, "Segoe UI", sans-serif' font-size="10" style="font-variant-numeric: tabular-nums" fill="#c3c2b7">5.11M</text>
<line x1="736.0" y1="264.8" x2="740.0" y2="307.5" stroke="#383835" stroke-width="1"/>
<circle cx="745.0" cy="304.0" r="3.5" fill="#199e70"/>
<text x="753.0" y="307.5" font-family='system-ui, -apple-system, "Segoe UI", sans-serif' font-size="11" fill="#ffffff">map_f32_signal</text>
<text x="753.0" y="319.5" font-family='system-ui, -apple-system, "Segoe UI", sans-serif' font-size="10" style="font-variant-numeric: tabular-nums" fill="#c3c2b7">4.69M</text>
</svg>