<svg xmlns="http://www.w3.org/2000/svg" width="880" height="340" viewBox="0 0 880 340" role="img" aria-label="Heaviest operators (micro)">
<rect width="880" height="340" rx="6" fill="#1a1a19"/>
<text x="64" y="24" font-family='system-ui, -apple-system, "Segoe UI", sans-serif' font-size="14" font-weight="600" fill="#ffffff">Heaviest operators (micro)</text>
<text x="64" y="41" font-family='system-ui, -apple-system, "Segoe UI", sans-serif' font-size="11" fill="#c3c2b7">per-operator step_node cost over the same 1 s schedule - top 6 by latest Ir</text>
<line x1="64" y1="306.0" x2="730" y2="306.0" stroke="#2c2c2a" stroke-width="1"/>
<text x="56" y="309.5" text-anchor="end" font-family='system-ui, -apple-system, "Segoe UI", sans-serif' font-size="11" style="font-variant-numeric: tabular-nums" fill="#898781">0</text>
<line x1="64" y1="218.1" x2="730" y2="218.1" stroke="#2c2c2a" stroke-width="1"/>
<text x="56" y="221.6" text-anchor="end" font-family='system-ui, -apple-system, "Segoe UI", sans-serif' font-size="11" style="font-variant-numeric: tabular-nums" fill="#898781">10</text>
<line x1="64" y1="130.3" x2="730" y2="130.3" stroke="#2c2c2a" stroke-width="1"/>
<text x="56" y="133.8" text-anchor="end" font-family='system-ui, -apple-system, "Segoe UI", sans-serif' font-size="11" style="font-variant-numeric: tabular-nums" fill="#898781">20</text>
<text x="56" y="46" text-anchor="end" font-family='system-ui, -apple-system, "Segoe UI", sans-serif' font-size="10" fill="#898781">Ir (M)</text>
<line x1="64" y1="306" x2="730" y2="306" stroke="#383835" stroke-width="1"/>
<text x="64.0" y="322" text-anchor="middle" font-family='system-ui, -apple-system, "Segoe UI", sans-serif' font-size="11" style="font-variant-numeric: tabular-nums" fill="#898781">06-28</text>
<text x="147.2" y="322" text-anchor="middle" font-family='system-ui, -apple-system, "Segoe UI", sans-serif' font-size="11" style="font-variant-numeric: tabular-nums" fill="#898781">06-30</text>
<text x="216.6" y="322" text-anchor="middle" font-family='system-ui, -apple-system, "Segoe UI", sans-serif' font-size="11" style="font-variant-numeric: tabular-nums" fill="#898781">07-02</text>
<text x="369.2" y="322" text-anchor="middle" font-family='system-ui, -apple-system, "Segoe UI", sans-serif' font-size="11" style="font-variant-numeric: tabular-nums" fill="#898781">07-04</text>
<text x="591.2" y="322" text-anchor="middle" font-family='system-ui, -apple-system, "Segoe UI", sans-serif' font-size="11" style="font-variant-numeric: tabular-nums" fill="#898781">07-07</text>
<text x="730.0" y="322" text-anchor="middle" font-family='system-ui, -apple-system, "Segoe UI", sans-serif' font-size="11" style="font-variant-numeric: tabular-nums" fill="#898781">07-09</text>
<path d="M161.1,56.2 L175.0,56.2 L188.9,56.1 L202.8,61.2 L216.6,56.2 L230.5,56.2 L244.4,56.2 L258.2,56.2 L272.1,56.2 L286.0,56.2 L299.9,56.2 L313.8,56.2 L327.6,56.2 L341.5,56.2 L355.4,56.2 L369.2,56.2 L383.1,56.2 L397.0,56.2 L410.9,56.2 L424.8,60.8 L438.6,56.1 L452.5,56.1 L466.4,56.1 L480.2,56.1 L494.1,56.1 L508.0,60.6 L521.9,60.6 L535.8,56.1 L549.6,56.0 L563.5,56.0 L577.4,56.0 L591.2,56.0 L605.1,56.0 L619.0,56.0 L632.9,56.0 L646.8,56.0 L660.6,56.0 L674.5,56.0 L688.4,56.0 L702.2,56.0 L716.1,56.0 L730.0,56.0" fill="none" stroke="#3987e5" stroke-width="2" stroke-linejoin="round" stroke-linecap="round"/>
<circle cx="730.0" cy="56.0" r="6" fill="#1a1a19"/>
<circle cx="730.0" cy="56.0" r="4" fill="#3987e5"/>
<path d="M64.0,264.6 L77.9,264.6 L91.8,264.6 L105.6,264.6 L119.5,264.6 L133.4,266.2 L147.2,265.8 L161.1,265.4 L175.0,265.5 L188.9,265.4 L202.8,265.4 L216.6,265.5 L230.5,265.4 L244.4,265.5 L258.2,265.5 L272.1,265.5 L286.0,265.5 L299.9,265.5 L313.8,265.0 L327.6,265.0 L341.5,265.0 L355.4,265.0 L369.2,265.0 L383.1,265.0 L397.0,265.0 L410.9,265.0 L424.8,265.0 L438.6,264.9 L452.5,264.9 L466.4,264.9 L480.2,264.9 L494.1,264.9 L508.0,264.9 L521.9,264.9 L535.8,264.9 L549.6,264.8 L563.5,264.8 L577.4,264.8 L591.2,264.8 L605.1,264.8 L619.0,264.8 L632.9,264.8 L646.8,264.8 L660.6,264.8 L674.5,264.8 L688.4,264.8 L702.2,264.8 L716.1,264.8 L730.0,264.8" fill="none" stroke="#199e70" stroke-width="2" stroke-linejoin="round" stroke-linecap="round"/>
<circle cx="730.0" cy="264.8" r="6" fill="#1a1a19"/>
<circle cx="730.0" cy="264.8" r="4" fill="#199e70"/>
<path d="M64.0,246.7 L77.9,246.7 L91.8,246.7 L105.6,246.7 L119.5,246.7 L133.4,246.6 L147.2,246.6 L161.1,246.2 L175.0,246.3 L188.9,246.3 L202.8,246.3 L216.6,246.3 L230.5,246.3 L244.4,246.3 L258.2,246.3 L272.1,246.3 L286.0,246.3 L299.9,246.3 L313.8,251.7 L327.6,251.7 L341.5,251.7 L355.4,251.7 L369.2,251.7 L383.1,251.7 L397.0,251.7 L410.9,251.7 L424.8,251.7 L438.6,251.6 L452.5,251.6 L466.4,251.6 L480.2,251.6 L494.1,251.6 L508.0,251.6 L521.9,251.6 L535.8,251.6 L549.6,251.5 L563.5,251.5 L577.4,251.5 L591.2,251.5 L605.1,251.5 L619.0,251.5 L632.9,251.5 L646.8,251.5 L660.6,251.5 L674.5,251.5 L688.4,251.5 L702.2,251.5 L716.1,251.5 L730.0,251.5" fill="none" stroke="#c98500" stroke-width="2" stroke-linejoin="round" stroke-linecap="round"/>
<circle cx="730.0" cy="251.5" r="6" fill="#1a1a19"/>
<circle cx="730.0" cy="251.5" r="4" fill="#c98500"/>
<path d="M91.8,97.2 L105.6,97.2 L119.5,97.2 L133.4,138.2 L147.2,138.2 L161.1,137.8 L175.0,137.8 L188.9,137.8 L202.8,137.9 L216.6,137.8 L230.5,137.9 L244.4,137.8 L258.2,137.8 L272.1,137.8 L286.0,137.8 L299.9,137.8 L313.8,142.4 L327.6,142.4 L341.5,142.4 L355.4,142.4 L369.2,142.4 L383.1,142.4 L397.0,142.4 L410.9,142.4 L424.8,142.4 L438.6,142.4 L452.5,142.4 L466.4,142.4 L480.2,142.4 L494.1,142.4 L508.0,142.3 L521.9,142.4 L535.8,142.3 L549.6,142.3 L563.5,142.3 L577.4,142.3 L591.2,142.3 L605.1,142.3 L619.0,142.3 L632.9,142.3 L646.8,142.3 L660.6,142.3 L674.5,142.3 L688.4,142.3 L702.2,142.3 L716.1,142.3 L730.0,142.3" fill="none" stroke="#008300" stroke-width="2" stroke-linejoin="round" stroke-linecap="round"/>
<circle cx="730.0" cy="142.3" r="6" fill="#1a1a19"/>
<circle cx="730.0" cy="142.3" r="4" fill="#008300"/>
<path d="M64.0,195.3 L77.9,195.3 L91.8,195.4 L105.6,195.4 L119.5,195.4 L133.4,204.2 L147.2,204.1 L161.1,203.8 L175.0,203.8 L188.9,203.8 L202.8,203.9 L216.6,203.8 L230.5,203.8 L244.4,203.8 L258.2,203.8 L272.1,203.8 L286.0,203.8 L299.9,203.8 L313.8,208.4 L327.6,208.4 L341.5,208.4 L355.4,208.4 L369.2,208.4 L383.1,208.4 L397.0,208.4 L410.9,208.4 L424.8,208.5 L438.6,208.3 L452.5,208.3 L466.4,208.3 L480.2,208.3 L494.1,208.3 L508.0,208.3 L521.9,208.4 L535.8,208.4 L549.6,208.2 L563.5,208.2 L577.4,208.2 L591.2,208.2 L605.1,208.2 L619.0,208.2 L632.9,208.2 L646.8,208.2 L660.6,208.2 L674.5,208.2 L688.4,208.2 L702.2,208.2 L716.1,208.2 L730.0,208.2" fill="none" stroke="#9085e9" stroke-width="2" stroke-linejoin="round" stroke-linecap="round"/>
<circle cx="730.0" cy="208.2" r="6" fill="#1a1a19"/>
<circle cx="730.0" cy="208.2" r="4" fill="#9085e9"/>
<path d="M64.0,262.8 L77.9,262.8 L91.8,262.8 L105.6,262.8 L119.5,263.0 L133.4,263.2 L147.2,263.0 L161.1,262.4 L175.0,262.5 L188.9,262.4 L202.8,262.5 L216.6,262.5 L230.5,262.5 L244.4,262.5 L258.2,262.5 L272.1,262.5 L286.0,262.5 L299.9,262.5 L313.8,261.7 L327.6,261.7 L341.5,261.6 L355.4,261.4 L369.2,261.4 L383.1,261.4 L397.0,261.4 L410.9,261.4 L424.8,261.4 L438.6,261.3 L452.5,261.3 L466.4,261.3 L480.2,261.3 L494.1,261.3 L508.0,261.2 L521.9,261.3 L535.8,261.3 L549.6,261.0 L563.5,261.0 L577.4,261.1 L591.2,261.1 L605.1,261.1 L619.0,261.1 L632.9,261.1 L646.8,261.1 L660.6,261.1 L674.5,261.1 L688.4,261.1 L702.2,261.1 L716.1,261.1 L730.0,261.1" fill="none" stroke="#e66767" stroke-width="2" stroke-linejoin="round" stroke-linecap="round"/>
<circle cx="730.0" cy="261.1" r="6" fill="#1a1a19"/>
<circle cx="730.0" cy="261.1" r="4" fill="#e66767"/>
<circle cx="745.0" cy="52.5" r="3.5" fill="#3987e5"/>
<text x="753.0" y="56.0" font-family='system-ui, -apple-system, "Segoe UI", sans-serif' font-size="11" fill="#ffffff">granulator</text>
<text x="753.0" y="68.0" font-family='system-ui, -apple-system, "Segoe UI", sans-serif' font-size="10" style="font-variant-numeric: tabular-nums" fill="#c3c2b7">28.5M</text>
<circle cx="745.0" cy="138.8" r="3.5" fill="#008300"/>
<text x="753.0" y="142.3" font-family='system-ui, -apple-system, "Segoe UI", sans-serif' font-size="11" fill="#ffffff">resonator</text>
<text x="753.0" y="154.3" font-family='system-ui, -apple-system, "Segoe UI", sans-serif' font-size="10" style="font-variant-numeric: tabular-nums" fill="#c3c2b7">18.6M</text>
<circle cx="745.0" cy="204.7" r="3.5" fill="#9085e9"/>
<text x="753.0" y="208.2" font-family='system-ui, -apple-system, "Segoe UI", sans-serif' font-size="11" fill="#ffffff">reverb</text>
<text x="753.0" y="220.2" font-family='system-ui, -apple-system, "Segoe UI", sans-serif' font-size="10" style="font-variant-numeric: tabular-nums" fill="#c3c2b7">11.1M</text>
<circle cx="745.0" cy="248.0" r="3.5" fill="#c98500"/>
<text x="753.0" y="251.5" font-family='system-ui, -apple-system, "Segoe UI", sans-serif' font-size="11" fill="#ffffff">pan</text>
<text x="753.0" y="263.5" font-family='system-ui, -apple-system, "Segoe UI", sans-serif' font-size="10" style="font-variant-numeric: tabular-nums" fill="#c3c2b7">6.20M</text>
<line x1="736.0" y1="261.1" x2="740.0" y2="279.5" stroke="#383835" stroke-width="1"/>
<circle cx="745.0" cy="276.0" r="3.5" fill="#e66767"/>
<text x="753.0" y="279.5" font-family='system-ui, -apple-system, "Segoe UI", sans-serif' font-size="11" fill="#ffffff">sequencer</text>
<text x="753.0" y="291.5" font-family='system-ui, -apple-system, "Segoe UI", sans-serif' font-size="10" style="font-variant-numeric: tabular-nums" fill="#c3c2b7">5.11M</text>
<line x1="736.0" y1="264.8" x2="740.0" y2="307.5" stroke="#383835" stroke-width="1"/>
<circle cx="745.0" cy="304.0" r="3.5" fill="#199e70"/>
<text x="753.0" y="307.5" font-family='system-ui, -apple-system, "Segoe UI", sans-serif' font-size="11" fill="#ffffff">map_f32_signal</text>
<text x="753.0" y="319.5" font-family='system-ui, -apple-system, "Segoe UI", sans-serif' font-size="10" style="font-variant-numeric: tabular-nums" fill="#c3c2b7">4.69M</text>
</svg>