<svg xmlns="http://www.w3.org/2000/svg" width="880" height="340" viewBox="0 0 880 340" role="img" aria-label="Per-node engine overhead">
<rect width="880" height="340" rx="6" fill="#fcfcfb"/>
<text x="64" y="24" font-family='system-ui, -apple-system, "Segoe UI", sans-serif' font-size="14" font-weight="600" fill="#0b0b0b">Per-node engine overhead</text>
<text x="64" y="41" font-family='system-ui, -apple-system, "Segoe UI", sans-serif' font-size="11" fill="#52514e">callgrind instructions of a case that is ~pure engine stepping cost, gated like any operator. Axis zoomed.</text>
<line x1="64" y1="243.9" x2="730" y2="243.9" stroke="#e1e0d9" stroke-width="1"/>
<text x="56" y="247.4" text-anchor="end" font-family='system-ui, -apple-system, "Segoe UI", sans-serif' font-size="11" style="font-variant-numeric: tabular-nums" fill="#898781">550</text>
<line x1="64" y1="180.1" x2="730" y2="180.1" stroke="#e1e0d9" stroke-width="1"/>
<text x="56" y="183.6" text-anchor="end" font-family='system-ui, -apple-system, "Segoe UI", sans-serif' font-size="11" style="font-variant-numeric: tabular-nums" fill="#898781">600</text>
<line x1="64" y1="116.3" x2="730" y2="116.3" stroke="#e1e0d9" stroke-width="1"/>
<text x="56" y="119.8" text-anchor="end" font-family='system-ui, -apple-system, "Segoe UI", sans-serif' font-size="11" style="font-variant-numeric: tabular-nums" fill="#898781">650</text>
<text x="56" y="46" text-anchor="end" font-family='system-ui, -apple-system, "Segoe UI", sans-serif' font-size="10" fill="#898781">Ir (k)</text>
<line x1="64" y1="306" x2="730" y2="306" stroke="#c3c2b7" stroke-width="1"/>
<text x="64.0" y="322" text-anchor="middle" font-family='system-ui, -apple-system, "Segoe UI", sans-serif' font-size="11" style="font-variant-numeric: tabular-nums" fill="#898781">06-28</text>
<text x="117.3" y="322" text-anchor="middle" font-family='system-ui, -apple-system, "Segoe UI", sans-serif' font-size="11" style="font-variant-numeric: tabular-nums" fill="#898781">06-30</text>
<text x="161.7" y="322" text-anchor="middle" font-family='system-ui, -apple-system, "Segoe UI", sans-serif' font-size="11" style="font-variant-numeric: tabular-nums" fill="#898781">07-02</text>
<text x="259.4" y="322" text-anchor="middle" font-family='system-ui, -apple-system, "Segoe UI", sans-serif' font-size="11" style="font-variant-numeric: tabular-nums" fill="#898781">07-04</text>
<text x="401.4" y="322" text-anchor="middle" font-family='system-ui, -apple-system, "Segoe UI", sans-serif' font-size="11" style="font-variant-numeric: tabular-nums" fill="#898781">07-07</text>
<text x="490.2" y="322" text-anchor="middle" font-family='system-ui, -apple-system, "Segoe UI", sans-serif' font-size="11" style="font-variant-numeric: tabular-nums" fill="#898781">07-09</text>
<text x="561.3" y="322" text-anchor="middle" font-family='system-ui, -apple-system, "Segoe UI", sans-serif' font-size="11" style="font-variant-numeric: tabular-nums" fill="#898781">07-11</text>
<path d="M357.0,88.2 L365.9,91.5 L374.8,77.0 L383.7,77.0 L392.6,73.3 L401.4,73.3 L410.3,73.4 L419.2,73.4 L428.1,73.4 L437.0,73.4 L445.8,73.4 L454.7,73.4 L463.6,73.4 L472.5,73.4 L481.4,73.4 L490.2,73.4 L499.1,73.2 L508.0,84.8 L516.9,79.1 L525.8,79.1 L534.6,84.4 L543.5,128.1 L552.4,128.2 L561.3,129.8 L570.2,218.6 L579.0,218.6 L587.9,218.6 L596.8,218.6 L605.7,218.6 L614.6,218.6 L623.4,218.6 L632.3,218.6 L641.2,218.6 L650.1,218.6 L659.0,218.6 L667.8,218.6 L676.7,218.6 L685.6,218.6 L694.5,218.6 L703.4,218.6 L712.2,218.6 L721.1,218.6 L730.0,226.0" fill="none" stroke="#2a78d6" stroke-width="2" stroke-linejoin="round" stroke-linecap="round"/>
<circle cx="730.0" cy="226.0" r="6" fill="#fcfcfb"/>
<circle cx="730.0" cy="226.0" r="4" fill="#2a78d6"/>
<path d="M64.0,200.0 L72.9,200.0 L81.8,200.1 L90.6,200.1 L99.5,200.1 L108.4,205.3 L117.3,194.0 L126.2,151.6 L135.0,160.2 L143.9,153.8 L152.8,159.6 L161.7,159.5 L170.6,159.7 L179.4,159.4 L188.3,159.4 L197.2,159.4 L206.1,159.4 L215.0,159.4 L223.8,159.4 L232.7,159.4 L241.6,159.4 L250.5,158.9 L259.4,158.9 L268.2,158.9 L277.1,158.9 L286.0,158.9 L294.9,161.7 L303.8,151.6 L312.6,151.6 L321.5,151.6 L330.4,151.6 L339.3,151.6 L348.2,146.8 L357.0,152.6 L365.9,151.7 L374.8,124.7 L383.7,124.7 L392.6,134.3 L401.4,134.3 L410.3,134.4 L419.2,134.4 L428.1,134.4 L437.0,134.4 L445.8,134.4 L454.7,134.4 L463.6,134.4 L472.5,134.4 L481.4,134.4 L490.2,134.4 L499.1,134.4 L508.0,145.3 L516.9,139.5 L525.8,139.5 L534.6,149.2 L543.5,184.9 L552.4,185.5 L561.3,190.4 L570.2,288.8 L579.0,288.8 L587.9,288.8 L596.8,288.8 L605.7,288.8 L614.6,288.8 L623.4,288.8 L632.3,288.8 L641.2,288.8 L650.1,288.8 L659.0,288.8 L667.8,288.8 L676.7,288.8 L685.6,288.8 L694.5,288.8 L703.4,288.8 L712.2,288.8 L721.1,288.8 L730.0,282.6" fill="none" stroke="#1baf7a" stroke-width="2" stroke-linejoin="round" stroke-linecap="round"/>
<circle cx="730.0" cy="282.6" r="6" fill="#fcfcfb"/>
<circle cx="730.0" cy="282.6" r="4" fill="#1baf7a"/>
<circle cx="745.0" cy="222.5" r="3.5" fill="#2a78d6"/>
<text x="753.0" y="226.0" font-family='system-ui, -apple-system, "Segoe UI", sans-serif' font-size="11" fill="#0b0b0b">overhead</text>
<text x="753.0" y="238.0" font-family='system-ui, -apple-system, "Segoe UI", sans-serif' font-size="10" style="font-variant-numeric: tabular-nums" fill="#52514e">564k</text>
<circle cx="745.0" cy="279.1" r="3.5" fill="#1baf7a"/>
<text x="753.0" y="282.6" font-family='system-ui, -apple-system, "Segoe UI", sans-serif' font-size="11" fill="#0b0b0b">proxy (abs_f32_value)</text>
<text x="753.0" y="294.6" font-family='system-ui, -apple-system, "Segoe UI", sans-serif' font-size="10" style="font-variant-numeric: tabular-nums" fill="#52514e">520k</text>
</svg>