<svg xmlns="http://www.w3.org/2000/svg" width="880" height="340" viewBox="0 0 880 340" role="img" aria-label="Per-node engine overhead">
<rect width="880" height="340" rx="6" fill="#1a1a19"/>
<text x="64" y="24" font-family='system-ui, -apple-system, "Segoe UI", sans-serif' font-size="14" font-weight="600" fill="#ffffff">Per-node engine overhead</text>
<text x="64" y="41" font-family='system-ui, -apple-system, "Segoe UI", sans-serif' font-size="11" fill="#c3c2b7">callgrind instructions of a case that is ~pure engine stepping cost, gated like any operator. Axis zoomed.</text>
<line x1="64" y1="262.2" x2="730" y2="262.2" stroke="#2c2c2a" stroke-width="1"/>
<text x="56" y="265.7" text-anchor="end" font-family='system-ui, -apple-system, "Segoe UI", sans-serif' font-size="11" style="font-variant-numeric: tabular-nums" fill="#898781">520</text>
<line x1="64" y1="186.5" x2="730" y2="186.5" stroke="#2c2c2a" stroke-width="1"/>
<text x="56" y="190.0" text-anchor="end" font-family='system-ui, -apple-system, "Segoe UI", sans-serif' font-size="11" style="font-variant-numeric: tabular-nums" fill="#898781">540</text>
<line x1="64" y1="110.7" x2="730" y2="110.7" stroke="#2c2c2a" stroke-width="1"/>
<text x="56" y="114.2" text-anchor="end" font-family='system-ui, -apple-system, "Segoe UI", sans-serif' font-size="11" style="font-variant-numeric: tabular-nums" fill="#898781">560</text>
<text x="56" y="46" text-anchor="end" font-family='system-ui, -apple-system, "Segoe UI", sans-serif' font-size="10" fill="#898781">Ir (k)</text>
<line x1="64" y1="306" x2="730" y2="306" stroke="#383835" stroke-width="1"/>
<text x="64.0" y="322" text-anchor="middle" font-family='system-ui, -apple-system, "Segoe UI", sans-serif' font-size="11" style="font-variant-numeric: tabular-nums" fill="#898781">07-12</text>
<text x="136.8" y="322" text-anchor="middle" font-family='system-ui, -apple-system, "Segoe UI", sans-serif' font-size="11" style="font-variant-numeric: tabular-nums" fill="#898781">07-14</text>
<text x="230.5" y="322" text-anchor="middle" font-family='system-ui, -apple-system, "Segoe UI", sans-serif' font-size="11" style="font-variant-numeric: tabular-nums" fill="#898781">07-17</text>
<text x="355.4" y="322" text-anchor="middle" font-family='system-ui, -apple-system, "Segoe UI", sans-serif' font-size="11" style="font-variant-numeric: tabular-nums" fill="#898781">07-19</text>
<text x="542.7" y="322" text-anchor="middle" font-family='system-ui, -apple-system, "Segoe UI", sans-serif' font-size="11" style="font-variant-numeric: tabular-nums" fill="#898781">07-21</text>
<path d="M64.0,73.2 L74.4,73.2 L84.8,73.2 L95.2,73.2 L105.6,73.2 L116.0,73.2 L126.4,73.2 L136.8,73.2 L147.2,73.2 L157.7,73.2 L168.1,73.2 L178.5,73.2 L188.9,73.2 L199.3,73.2 L209.7,73.2 L220.1,73.2 L230.5,73.2 L240.9,73.2 L251.3,73.2 L261.7,73.2 L272.1,73.2 L282.5,73.2 L292.9,73.2 L303.3,73.2 L313.8,73.2 L324.2,73.2 L334.6,73.2 L345.0,73.2 L355.4,73.2 L365.8,73.2 L376.2,81.2 L386.6,81.2 L397.0,81.2 L407.4,91.2 L417.8,91.2 L428.2,91.2 L438.6,91.2 L449.0,91.2 L459.4,91.2 L469.8,91.3 L480.2,91.3 L490.7,80.9 L501.1,80.9 L511.5,80.9 L521.9,80.9 L532.3,80.9 L542.7,80.9 L553.1,80.9 L563.5,80.9 L573.9,80.9 L584.3,80.9 L594.7,90.0 L605.1,90.0 L615.5,90.0 L625.9,90.0 L636.3,90.2 L646.8,95.4 L657.2,95.4 L667.6,95.4 L678.0,95.4 L688.4,95.4 L698.8,95.4 L709.2,95.4 L719.6,95.4 L730.0,95.4" fill="none" stroke="#3987e5" stroke-width="2" stroke-linejoin="round" stroke-linecap="round"/>
<circle cx="730.0" cy="95.4" r="6" fill="#1a1a19"/>
<circle cx="730.0" cy="95.4" r="4" fill="#3987e5"/>
<path d="M64.0,281.6 L74.4,281.6 L84.8,281.6 L95.2,281.6 L105.6,281.6 L116.0,281.6 L126.4,281.6 L136.8,281.6 L147.2,281.6 L157.7,281.6 L168.1,281.6 L178.5,281.6 L188.9,281.6 L199.3,281.6 L209.7,281.6 L220.1,281.6 L230.5,281.6 L240.9,281.6 L251.3,281.6 L261.7,281.6 L272.1,281.6 L282.5,281.6 L292.9,281.6 L303.3,281.6 L313.8,281.6 L324.2,281.6 L334.6,281.6 L345.0,281.6 L355.4,281.6 L365.8,281.6 L376.2,280.2 L386.6,280.2 L397.0,280.2 L407.4,288.8 L417.8,288.8 L428.2,288.8 L438.6,288.8 L449.0,288.8 L459.4,288.8 L469.8,288.5 L480.2,288.5 L490.7,288.0 L501.1,288.0 L511.5,288.0 L521.9,288.0 L532.3,288.0 L542.7,288.0 L553.1,288.0 L563.5,288.0 L573.9,288.0 L584.3,288.0 L594.7,287.1 L605.1,287.1 L615.5,287.1 L625.9,287.1 L636.3,257.8 L646.8,263.2 L657.2,263.2 L667.6,263.2 L678.0,263.2 L688.4,263.2 L698.8,263.2 L709.2,263.2 L719.6,263.2 L730.0,263.2" fill="none" stroke="#199e70" stroke-width="2" stroke-linejoin="round" stroke-linecap="round"/>
<circle cx="730.0" cy="263.2" r="6" fill="#1a1a19"/>
<circle cx="730.0" cy="263.2" r="4" fill="#199e70"/>
<circle cx="745.0" cy="91.9" r="3.5" fill="#3987e5"/>
<text x="753.0" y="95.4" font-family='system-ui, -apple-system, "Segoe UI", sans-serif' font-size="11" fill="#ffffff">overhead</text>
<text x="753.0" y="107.4" font-family='system-ui, -apple-system, "Segoe UI", sans-serif' font-size="10" style="font-variant-numeric: tabular-nums" fill="#c3c2b7">564k</text>
<circle cx="745.0" cy="259.7" r="3.5" fill="#199e70"/>
<text x="753.0" y="263.2" font-family='system-ui, -apple-system, "Segoe UI", sans-serif' font-size="11" fill="#ffffff">proxy (abs_f32_value)</text>
<text x="753.0" y="275.2" font-family='system-ui, -apple-system, "Segoe UI", sans-serif' font-size="10" style="font-variant-numeric: tabular-nums" fill="#c3c2b7">520k</text>
</svg>