<svg xmlns="http://www.w3.org/2000/svg" width="880" height="340" viewBox="0 0 880 340" role="img" aria-label="Per-node engine overhead">
<rect width="880" height="340" rx="6" fill="#fcfcfb"/>
<text x="64" y="24" font-family='system-ui, -apple-system, "Segoe UI", sans-serif' font-size="14" font-weight="600" fill="#0b0b0b">Per-node engine overhead</text>
<text x="64" y="41" font-family='system-ui, -apple-system, "Segoe UI", sans-serif' font-size="11" fill="#52514e">callgrind instructions of a case that is ~pure engine stepping cost, gated like any operator. Axis zoomed.</text>
<line x1="64" y1="299.7" x2="730" y2="299.7" stroke="#e1e0d9" stroke-width="1"/>
<text x="56" y="303.2" text-anchor="end" font-family='system-ui, -apple-system, "Segoe UI", sans-serif' font-size="11" style="font-variant-numeric: tabular-nums" fill="#898781">575</text>
<line x1="64" y1="247.6" x2="730" y2="247.6" stroke="#e1e0d9" stroke-width="1"/>
<text x="56" y="251.1" text-anchor="end" font-family='system-ui, -apple-system, "Segoe UI", sans-serif' font-size="11" style="font-variant-numeric: tabular-nums" fill="#898781">600</text>
<line x1="64" y1="195.5" x2="730" y2="195.5" stroke="#e1e0d9" stroke-width="1"/>
<text x="56" y="199.0" text-anchor="end" font-family='system-ui, -apple-system, "Segoe UI", sans-serif' font-size="11" style="font-variant-numeric: tabular-nums" fill="#898781">625</text>
<line x1="64" y1="143.5" x2="730" y2="143.5" stroke="#e1e0d9" stroke-width="1"/>
<text x="56" y="147.0" text-anchor="end" font-family='system-ui, -apple-system, "Segoe UI", sans-serif' font-size="11" style="font-variant-numeric: tabular-nums" fill="#898781">650</text>
<line x1="64" y1="91.4" x2="730" y2="91.4" stroke="#e1e0d9" stroke-width="1"/>
<text x="56" y="94.9" text-anchor="end" font-family='system-ui, -apple-system, "Segoe UI", sans-serif' font-size="11" style="font-variant-numeric: tabular-nums" fill="#898781">675</text>
<text x="56" y="46" text-anchor="end" font-family='system-ui, -apple-system, "Segoe UI", sans-serif' font-size="10" fill="#898781">Ir (k)</text>
<line x1="64" y1="306" x2="730" y2="306" stroke="#c3c2b7" stroke-width="1"/>
<text x="64.0" y="322" text-anchor="middle" font-family='system-ui, -apple-system, "Segoe UI", sans-serif' font-size="11" style="font-variant-numeric: tabular-nums" fill="#898781">06-28</text>
<text x="154.8" y="322" text-anchor="middle" font-family='system-ui, -apple-system, "Segoe UI", sans-serif' font-size="11" style="font-variant-numeric: tabular-nums" fill="#898781">06-30</text>
<text x="230.5" y="322" text-anchor="middle" font-family='system-ui, -apple-system, "Segoe UI", sans-serif' font-size="11" style="font-variant-numeric: tabular-nums" fill="#898781">07-02</text>
<text x="397.0" y="322" text-anchor="middle" font-family='system-ui, -apple-system, "Segoe UI", sans-serif' font-size="11" style="font-variant-numeric: tabular-nums" fill="#898781">07-04</text>
<text x="639.2" y="322" text-anchor="middle" font-family='system-ui, -apple-system, "Segoe UI", sans-serif' font-size="11" style="font-variant-numeric: tabular-nums" fill="#898781">07-07</text>
<path d="M563.5,97.5 L578.6,102.9 L593.8,79.3 L608.9,79.3 L624.0,73.2 L639.2,73.2 L654.3,73.3 L669.5,73.3 L684.6,73.3 L699.7,73.3 L714.9,73.3 L730.0,73.3" fill="none" stroke="#2a78d6" stroke-width="2" stroke-linejoin="round" stroke-linecap="round"/>
<circle cx="730.0" cy="73.3" r="6" fill="#fcfcfb"/>
<circle cx="730.0" cy="73.3" r="4" fill="#2a78d6"/>
<path d="M64.0,280.1 L79.1,280.1 L94.3,280.2 L109.4,280.2 L124.5,280.2 L139.7,288.8 L154.8,270.2 L170.0,201.0 L185.1,215.0 L200.2,204.6 L215.4,214.2 L230.5,213.9 L245.6,214.3 L260.8,213.7 L275.9,213.7 L291.0,213.7 L306.2,213.7 L321.3,213.7 L336.5,213.8 L351.6,213.8 L366.7,213.8 L381.9,212.9 L397.0,212.9 L412.1,212.9 L427.3,212.9 L442.4,212.9 L457.5,217.5 L472.7,201.1 L487.8,201.1 L503.0,201.1 L518.1,201.1 L533.2,201.1 L548.4,193.2 L563.5,202.6 L578.6,201.3 L593.8,157.1 L608.9,157.1 L624.0,172.8 L639.2,172.8 L654.3,172.9 L669.5,172.9 L684.6,172.9 L699.7,172.9 L714.9,172.9 L730.0,172.9" fill="none" stroke="#1baf7a" stroke-width="2" stroke-linejoin="round" stroke-linecap="round"/>
<circle cx="730.0" cy="172.9" r="6" fill="#fcfcfb"/>
<circle cx="730.0" cy="172.9" r="4" fill="#1baf7a"/>
<circle cx="745.0" cy="69.8" r="3.5" fill="#2a78d6"/>
<text x="753.0" y="73.3" font-family='system-ui, -apple-system, "Segoe UI", sans-serif' font-size="11" fill="#0b0b0b">overhead</text>
<text x="753.0" y="85.3" font-family='system-ui, -apple-system, "Segoe UI", sans-serif' font-size="10" style="font-variant-numeric: tabular-nums" fill="#52514e">684k</text>
<circle cx="745.0" cy="169.4" r="3.5" fill="#1baf7a"/>
<text x="753.0" y="172.9" font-family='system-ui, -apple-system, "Segoe UI", sans-serif' font-size="11" fill="#0b0b0b">proxy (abs_f32_value)</text>
<text x="753.0" y="184.9" font-family='system-ui, -apple-system, "Segoe UI", sans-serif' font-size="10" style="font-variant-numeric: tabular-nums" fill="#52514e">636k</text>
</svg>