<svg xmlns="http://www.w3.org/2000/svg" width="880" height="340" viewBox="0 0 880 340" role="img" aria-label="Per-node engine overhead">
<rect width="880" height="340" rx="6" fill="#1a1a19"/>
<text x="64" y="24" font-family='system-ui, -apple-system, "Segoe UI", sans-serif' font-size="14" font-weight="600" fill="#ffffff">Per-node engine overhead</text>
<text x="64" y="41" font-family='system-ui, -apple-system, "Segoe UI", sans-serif' font-size="11" fill="#c3c2b7">callgrind instructions of a case that is ~pure engine stepping cost, gated like any operator. Axis zoomed.</text>
<line x1="64" y1="262.2" x2="730" y2="262.2" stroke="#2c2c2a" stroke-width="1"/>
<text x="56" y="265.7" text-anchor="end" font-family='system-ui, -apple-system, "Segoe UI", sans-serif' font-size="11" style="font-variant-numeric: tabular-nums" fill="#898781">520</text>
<line x1="64" y1="186.5" x2="730" y2="186.5" stroke="#2c2c2a" stroke-width="1"/>
<text x="56" y="190.0" text-anchor="end" font-family='system-ui, -apple-system, "Segoe UI", sans-serif' font-size="11" style="font-variant-numeric: tabular-nums" fill="#898781">540</text>
<line x1="64" y1="110.7" x2="730" y2="110.7" stroke="#2c2c2a" stroke-width="1"/>
<text x="56" y="114.2" text-anchor="end" font-family='system-ui, -apple-system, "Segoe UI", sans-serif' font-size="11" style="font-variant-numeric: tabular-nums" fill="#898781">560</text>
<text x="56" y="46" text-anchor="end" font-family='system-ui, -apple-system, "Segoe UI", sans-serif' font-size="10" fill="#898781">Ir (k)</text>
<line x1="64" y1="306" x2="730" y2="306" stroke="#383835" stroke-width="1"/>
<text x="64.0" y="322" text-anchor="middle" font-family='system-ui, -apple-system, "Segoe UI", sans-serif' font-size="11" style="font-variant-numeric: tabular-nums" fill="#898781">07-12</text>
<text x="161.5" y="322" text-anchor="middle" font-family='system-ui, -apple-system, "Segoe UI", sans-serif' font-size="11" style="font-variant-numeric: tabular-nums" fill="#898781">07-13</text>
<text x="177.7" y="322" text-anchor="middle" font-family='system-ui, -apple-system, "Segoe UI", sans-serif' font-size="11" style="font-variant-numeric: tabular-nums" fill="#898781">07-14</text>
<text x="194.0" y="322" text-anchor="middle" font-family='system-ui, -apple-system, "Segoe UI", sans-serif' font-size="11" style="font-variant-numeric: tabular-nums" fill="#898781">07-16</text>
<text x="323.9" y="322" text-anchor="middle" font-family='system-ui, -apple-system, "Segoe UI", sans-serif' font-size="11" style="font-variant-numeric: tabular-nums" fill="#898781">07-17</text>
<text x="421.4" y="322" text-anchor="middle" font-family='system-ui, -apple-system, "Segoe UI", sans-serif' font-size="11" style="font-variant-numeric: tabular-nums" fill="#898781">07-18</text>
<text x="518.8" y="322" text-anchor="middle" font-family='system-ui, -apple-system, "Segoe UI", sans-serif' font-size="11" style="font-variant-numeric: tabular-nums" fill="#898781">07-19</text>
<text x="567.6" y="322" text-anchor="middle" font-family='system-ui, -apple-system, "Segoe UI", sans-serif' font-size="11" style="font-variant-numeric: tabular-nums" fill="#898781">07-20</text>
<path d="M64.0,73.2 L80.2,73.2 L96.5,73.2 L112.7,73.2 L129.0,73.2 L145.2,73.2 L161.5,73.2 L177.7,73.2 L194.0,73.2 L210.2,73.2 L226.4,73.2 L242.7,73.2 L258.9,73.2 L275.2,73.2 L291.4,73.2 L307.7,73.2 L323.9,73.2 L340.1,73.2 L356.4,73.2 L372.6,73.2 L388.9,73.2 L405.1,73.2 L421.4,73.2 L437.6,73.2 L453.9,73.2 L470.1,73.2 L486.3,73.2 L502.6,73.2 L518.8,73.2 L535.1,73.2 L551.3,81.2 L567.6,81.2 L583.8,81.2 L600.0,91.2 L616.3,91.2 L632.5,91.2 L648.8,91.2 L665.0,91.2 L681.3,91.2 L697.5,91.3 L713.8,91.3 L730.0,80.9" fill="none" stroke="#3987e5" stroke-width="2" stroke-linejoin="round" stroke-linecap="round"/>
<circle cx="730.0" cy="80.9" r="6" fill="#1a1a19"/>
<circle cx="730.0" cy="80.9" r="4" fill="#3987e5"/>
<path d="M64.0,281.6 L80.2,281.6 L96.5,281.6 L112.7,281.6 L129.0,281.6 L145.2,281.6 L161.5,281.6 L177.7,281.6 L194.0,281.6 L210.2,281.6 L226.4,281.6 L242.7,281.6 L258.9,281.6 L275.2,281.6 L291.4,281.6 L307.7,281.6 L323.9,281.6 L340.1,281.6 L356.4,281.6 L372.6,281.6 L388.9,281.6 L405.1,281.6 L421.4,281.6 L437.6,281.6 L453.9,281.6 L470.1,281.6 L486.3,281.6 L502.6,281.6 L518.8,281.6 L535.1,281.6 L551.3,280.2 L567.6,280.2 L583.8,280.2 L600.0,288.8 L616.3,288.8 L632.5,288.8 L648.8,288.8 L665.0,288.8 L681.3,288.8 L697.5,288.5 L713.8,288.5 L730.0,288.0" fill="none" stroke="#199e70" stroke-width="2" stroke-linejoin="round" stroke-linecap="round"/>
<circle cx="730.0" cy="288.0" r="6" fill="#1a1a19"/>
<circle cx="730.0" cy="288.0" r="4" fill="#199e70"/>
<circle cx="745.0" cy="77.4" r="3.5" fill="#3987e5"/>
<text x="753.0" y="80.9" font-family='system-ui, -apple-system, "Segoe UI", sans-serif' font-size="11" fill="#ffffff">overhead</text>
<text x="753.0" y="92.9" font-family='system-ui, -apple-system, "Segoe UI", sans-serif' font-size="10" style="font-variant-numeric: tabular-nums" fill="#c3c2b7">568k</text>
<circle cx="745.0" cy="284.5" r="3.5" fill="#199e70"/>
<text x="753.0" y="288.0" font-family='system-ui, -apple-system, "Segoe UI", sans-serif' font-size="11" fill="#ffffff">proxy (abs_f32_value)</text>
<text x="753.0" y="300.0" font-family='system-ui, -apple-system, "Segoe UI", sans-serif' font-size="10" style="font-variant-numeric: tabular-nums" fill="#c3c2b7">513k</text>
</svg>