<svg xmlns="http://www.w3.org/2000/svg" width="880" height="340" viewBox="0 0 880 340" role="img" aria-label="Per-node engine overhead">
<rect width="880" height="340" rx="6" fill="#fcfcfb"/>
<text x="64" y="24" font-family='system-ui, -apple-system, "Segoe UI", sans-serif' font-size="14" font-weight="600" fill="#0b0b0b">Per-node engine overhead</text>
<text x="64" y="41" font-family='system-ui, -apple-system, "Segoe UI", sans-serif' font-size="11" fill="#52514e">callgrind instructions of a case that is ~pure engine stepping cost, gated like any operator. Axis zoomed.</text>
<line x1="64" y1="268.7" x2="730" y2="268.7" stroke="#e1e0d9" stroke-width="1"/>
<text x="56" y="272.2" text-anchor="end" font-family='system-ui, -apple-system, "Segoe UI", sans-serif' font-size="11" style="font-variant-numeric: tabular-nums" fill="#898781">520</text>
<line x1="64" y1="190.4" x2="730" y2="190.4" stroke="#e1e0d9" stroke-width="1"/>
<text x="56" y="193.9" text-anchor="end" font-family='system-ui, -apple-system, "Segoe UI", sans-serif' font-size="11" style="font-variant-numeric: tabular-nums" fill="#898781">540</text>
<line x1="64" y1="112.0" x2="730" y2="112.0" stroke="#e1e0d9" stroke-width="1"/>
<text x="56" y="115.5" text-anchor="end" font-family='system-ui, -apple-system, "Segoe UI", sans-serif' font-size="11" style="font-variant-numeric: tabular-nums" fill="#898781">560</text>
<text x="56" y="46" text-anchor="end" font-family='system-ui, -apple-system, "Segoe UI", sans-serif' font-size="10" fill="#898781">Ir (k)</text>
<line x1="64" y1="306" x2="730" y2="306" stroke="#c3c2b7" stroke-width="1"/>
<text x="64.0" y="322" text-anchor="middle" font-family='system-ui, -apple-system, "Segoe UI", sans-serif' font-size="11" style="font-variant-numeric: tabular-nums" fill="#898781">07-12</text>
<text x="313.8" y="322" text-anchor="middle" font-family='system-ui, -apple-system, "Segoe UI", sans-serif' font-size="11" style="font-variant-numeric: tabular-nums" fill="#898781">07-13</text>
<text x="355.4" y="322" text-anchor="middle" font-family='system-ui, -apple-system, "Segoe UI", sans-serif' font-size="11" style="font-variant-numeric: tabular-nums" fill="#898781">07-14</text>
<text x="397.0" y="322" text-anchor="middle" font-family='system-ui, -apple-system, "Segoe UI", sans-serif' font-size="11" style="font-variant-numeric: tabular-nums" fill="#898781">07-16</text>
<text x="730.0" y="322" text-anchor="middle" font-family='system-ui, -apple-system, "Segoe UI", sans-serif' font-size="11" style="font-variant-numeric: tabular-nums" fill="#898781">07-17</text>
<path d="M64.0,73.2 L105.6,73.2 L147.2,73.2 L188.9,73.2 L230.5,73.2 L272.1,73.2 L313.8,73.2 L355.4,73.2 L397.0,73.2 L438.6,73.2 L480.2,73.2 L521.9,73.2 L563.5,73.2 L605.1,73.2 L646.8,73.2 L688.4,73.2 L730.0,73.2" fill="none" stroke="#2a78d6" stroke-width="2" stroke-linejoin="round" stroke-linecap="round"/>
<circle cx="730.0" cy="73.2" r="6" fill="#fcfcfb"/>
<circle cx="730.0" cy="73.2" r="4" fill="#2a78d6"/>
<path d="M64.0,288.8 L105.6,288.8 L147.2,288.8 L188.9,288.8 L230.5,288.8 L272.1,288.8 L313.8,288.8 L355.4,288.8 L397.0,288.8 L438.6,288.8 L480.2,288.8 L521.9,288.8 L563.5,288.8 L605.1,288.8 L646.8,288.8 L688.4,288.8 L730.0,288.8" fill="none" stroke="#1baf7a" stroke-width="2" stroke-linejoin="round" stroke-linecap="round"/>
<circle cx="730.0" cy="288.8" r="6" fill="#fcfcfb"/>
<circle cx="730.0" cy="288.8" r="4" fill="#1baf7a"/>
<circle cx="745.0" cy="69.7" r="3.5" fill="#2a78d6"/>
<text x="753.0" y="73.2" font-family='system-ui, -apple-system, "Segoe UI", sans-serif' font-size="11" fill="#0b0b0b">overhead</text>
<text x="753.0" y="85.2" font-family='system-ui, -apple-system, "Segoe UI", sans-serif' font-size="10" style="font-variant-numeric: tabular-nums" fill="#52514e">570k</text>
<circle cx="745.0" cy="285.3" r="3.5" fill="#1baf7a"/>
<text x="753.0" y="288.8" font-family='system-ui, -apple-system, "Segoe UI", sans-serif' font-size="11" fill="#0b0b0b">proxy (abs_f32_value)</text>
<text x="753.0" y="300.8" font-family='system-ui, -apple-system, "Segoe UI", sans-serif' font-size="10" style="font-variant-numeric: tabular-nums" fill="#52514e">515k</text>
</svg>