<svg xmlns="http://www.w3.org/2000/svg" width="880" height="340" viewBox="0 0 880 340" role="img" aria-label="Per-node engine overhead">
<rect width="880" height="340" rx="6" fill="#1a1a19"/>
<text x="64" y="24" font-family='system-ui, -apple-system, "Segoe UI", sans-serif' font-size="14" font-weight="600" fill="#ffffff">Per-node engine overhead</text>
<text x="64" y="41" font-family='system-ui, -apple-system, "Segoe UI", sans-serif' font-size="11" fill="#c3c2b7">callgrind instructions of a case that is ~pure engine stepping cost, gated like any operator. Axis zoomed.</text>
<line x1="64" y1="262.2" x2="730" y2="262.2" stroke="#2c2c2a" stroke-width="1"/>
<text x="56" y="265.7" text-anchor="end" font-family='system-ui, -apple-system, "Segoe UI", sans-serif' font-size="11" style="font-variant-numeric: tabular-nums" fill="#898781">520</text>
<line x1="64" y1="186.5" x2="730" y2="186.5" stroke="#2c2c2a" stroke-width="1"/>
<text x="56" y="190.0" text-anchor="end" font-family='system-ui, -apple-system, "Segoe UI", sans-serif' font-size="11" style="font-variant-numeric: tabular-nums" fill="#898781">540</text>
<line x1="64" y1="110.7" x2="730" y2="110.7" stroke="#2c2c2a" stroke-width="1"/>
<text x="56" y="114.2" text-anchor="end" font-family='system-ui, -apple-system, "Segoe UI", sans-serif' font-size="11" style="font-variant-numeric: tabular-nums" fill="#898781">560</text>
<text x="56" y="46" text-anchor="end" font-family='system-ui, -apple-system, "Segoe UI", sans-serif' font-size="10" fill="#898781">Ir (k)</text>
<line x1="64" y1="306" x2="730" y2="306" stroke="#383835" stroke-width="1"/>
<text x="64.0" y="322" text-anchor="middle" font-family='system-ui, -apple-system, "Segoe UI", sans-serif' font-size="11" style="font-variant-numeric: tabular-nums" fill="#898781">07-12</text>
<text x="159.1" y="322" text-anchor="middle" font-family='system-ui, -apple-system, "Segoe UI", sans-serif' font-size="11" style="font-variant-numeric: tabular-nums" fill="#898781">07-13</text>
<text x="175.0" y="322" text-anchor="middle" font-family='system-ui, -apple-system, "Segoe UI", sans-serif' font-size="11" style="font-variant-numeric: tabular-nums" fill="#898781">07-14</text>
<text x="190.9" y="322" text-anchor="middle" font-family='system-ui, -apple-system, "Segoe UI", sans-serif' font-size="11" style="font-variant-numeric: tabular-nums" fill="#898781">07-16</text>
<text x="317.7" y="322" text-anchor="middle" font-family='system-ui, -apple-system, "Segoe UI", sans-serif' font-size="11" style="font-variant-numeric: tabular-nums" fill="#898781">07-17</text>
<text x="412.9" y="322" text-anchor="middle" font-family='system-ui, -apple-system, "Segoe UI", sans-serif' font-size="11" style="font-variant-numeric: tabular-nums" fill="#898781">07-18</text>
<text x="508.0" y="322" text-anchor="middle" font-family='system-ui, -apple-system, "Segoe UI", sans-serif' font-size="11" style="font-variant-numeric: tabular-nums" fill="#898781">07-19</text>
<text x="555.6" y="322" text-anchor="middle" font-family='system-ui, -apple-system, "Segoe UI", sans-serif' font-size="11" style="font-variant-numeric: tabular-nums" fill="#898781">07-20</text>
<path d="M64.0,73.2 L79.9,73.2 L95.7,73.2 L111.6,73.2 L127.4,73.2 L143.3,73.2 L159.1,73.2 L175.0,73.2 L190.9,73.2 L206.7,73.2 L222.6,73.2 L238.4,73.2 L254.3,73.2 L270.1,73.2 L286.0,73.2 L301.9,73.2 L317.7,73.2 L333.6,73.2 L349.4,73.2 L365.3,73.2 L381.1,73.2 L397.0,73.2 L412.9,73.2 L428.7,73.2 L444.6,73.2 L460.4,73.2 L476.3,73.2 L492.1,73.2 L508.0,73.2 L523.9,73.2 L539.7,81.2 L555.6,81.2 L571.4,81.2 L587.3,91.2 L603.1,91.2 L619.0,91.2 L634.9,91.2 L650.7,91.2 L666.6,91.2 L682.4,91.3 L698.3,91.3 L714.1,80.9 L730.0,80.9" fill="none" stroke="#3987e5" stroke-width="2" stroke-linejoin="round" stroke-linecap="round"/>
<circle cx="730.0" cy="80.9" r="6" fill="#1a1a19"/>
<circle cx="730.0" cy="80.9" r="4" fill="#3987e5"/>
<path d="M64.0,281.6 L79.9,281.6 L95.7,281.6 L111.6,281.6 L127.4,281.6 L143.3,281.6 L159.1,281.6 L175.0,281.6 L190.9,281.6 L206.7,281.6 L222.6,281.6 L238.4,281.6 L254.3,281.6 L270.1,281.6 L286.0,281.6 L301.9,281.6 L317.7,281.6 L333.6,281.6 L349.4,281.6 L365.3,281.6 L381.1,281.6 L397.0,281.6 L412.9,281.6 L428.7,281.6 L444.6,281.6 L460.4,281.6 L476.3,281.6 L492.1,281.6 L508.0,281.6 L523.9,281.6 L539.7,280.2 L555.6,280.2 L571.4,280.2 L587.3,288.8 L603.1,288.8 L619.0,288.8 L634.9,288.8 L650.7,288.8 L666.6,288.8 L682.4,288.5 L698.3,288.5 L714.1,288.0 L730.0,288.0" fill="none" stroke="#199e70" stroke-width="2" stroke-linejoin="round" stroke-linecap="round"/>
<circle cx="730.0" cy="288.0" r="6" fill="#1a1a19"/>
<circle cx="730.0" cy="288.0" r="4" fill="#199e70"/>
<circle cx="745.0" cy="77.4" r="3.5" fill="#3987e5"/>
<text x="753.0" y="80.9" font-family='system-ui, -apple-system, "Segoe UI", sans-serif' font-size="11" fill="#ffffff">overhead</text>
<text x="753.0" y="92.9" font-family='system-ui, -apple-system, "Segoe UI", sans-serif' font-size="10" style="font-variant-numeric: tabular-nums" fill="#c3c2b7">568k</text>
<circle cx="745.0" cy="284.5" r="3.5" fill="#199e70"/>
<text x="753.0" y="288.0" font-family='system-ui, -apple-system, "Segoe UI", sans-serif' font-size="11" fill="#ffffff">proxy (abs_f32_value)</text>
<text x="753.0" y="300.0" font-family='system-ui, -apple-system, "Segoe UI", sans-serif' font-size="10" style="font-variant-numeric: tabular-nums" fill="#c3c2b7">513k</text>
</svg>