<svg xmlns="http://www.w3.org/2000/svg" width="880" height="340" viewBox="0 0 880 340" role="img" aria-label="Per-node engine overhead">
<rect width="880" height="340" rx="6" fill="#fcfcfb"/>
<text x="64" y="24" font-family='system-ui, -apple-system, "Segoe UI", sans-serif' font-size="14" font-weight="600" fill="#0b0b0b">Per-node engine overhead</text>
<text x="64" y="41" font-family='system-ui, -apple-system, "Segoe UI", sans-serif' font-size="11" fill="#52514e">callgrind instructions of a case that is ~pure engine stepping cost, gated like any operator. Axis zoomed.</text>
<line x1="64" y1="243.9" x2="730" y2="243.9" stroke="#e1e0d9" stroke-width="1"/>
<text x="56" y="247.4" text-anchor="end" font-family='system-ui, -apple-system, "Segoe UI", sans-serif' font-size="11" style="font-variant-numeric: tabular-nums" fill="#898781">550</text>
<line x1="64" y1="180.1" x2="730" y2="180.1" stroke="#e1e0d9" stroke-width="1"/>
<text x="56" y="183.6" text-anchor="end" font-family='system-ui, -apple-system, "Segoe UI", sans-serif' font-size="11" style="font-variant-numeric: tabular-nums" fill="#898781">600</text>
<line x1="64" y1="116.3" x2="730" y2="116.3" stroke="#e1e0d9" stroke-width="1"/>
<text x="56" y="119.8" text-anchor="end" font-family='system-ui, -apple-system, "Segoe UI", sans-serif' font-size="11" style="font-variant-numeric: tabular-nums" fill="#898781">650</text>
<text x="56" y="46" text-anchor="end" font-family='system-ui, -apple-system, "Segoe UI", sans-serif' font-size="10" fill="#898781">Ir (k)</text>
<line x1="64" y1="306" x2="730" y2="306" stroke="#c3c2b7" stroke-width="1"/>
<text x="64.0" y="322" text-anchor="middle" font-family='system-ui, -apple-system, "Segoe UI", sans-serif' font-size="11" style="font-variant-numeric: tabular-nums" fill="#898781">06-28</text>
<text x="125.5" y="322" text-anchor="middle" font-family='system-ui, -apple-system, "Segoe UI", sans-serif' font-size="11" style="font-variant-numeric: tabular-nums" fill="#898781">06-30</text>
<text x="176.7" y="322" text-anchor="middle" font-family='system-ui, -apple-system, "Segoe UI", sans-serif' font-size="11" style="font-variant-numeric: tabular-nums" fill="#898781">07-02</text>
<text x="289.4" y="322" text-anchor="middle" font-family='system-ui, -apple-system, "Segoe UI", sans-serif' font-size="11" style="font-variant-numeric: tabular-nums" fill="#898781">07-04</text>
<text x="453.4" y="322" text-anchor="middle" font-family='system-ui, -apple-system, "Segoe UI", sans-serif' font-size="11" style="font-variant-numeric: tabular-nums" fill="#898781">07-07</text>
<text x="555.8" y="322" text-anchor="middle" font-family='system-ui, -apple-system, "Segoe UI", sans-serif' font-size="11" style="font-variant-numeric: tabular-nums" fill="#898781">07-09</text>
<text x="637.8" y="322" text-anchor="middle" font-family='system-ui, -apple-system, "Segoe UI", sans-serif' font-size="11" style="font-variant-numeric: tabular-nums" fill="#898781">07-11</text>
<path d="M402.1,88.2 L412.4,91.5 L422.6,77.0 L432.9,77.0 L443.1,73.3 L453.4,73.3 L463.6,73.4 L473.8,73.4 L484.1,73.4 L494.3,73.4 L504.6,73.4 L514.8,73.4 L525.1,73.4 L535.3,73.4 L545.6,73.4 L555.8,73.4 L566.1,73.2 L576.3,84.8 L586.6,79.1 L596.8,79.1 L607.0,84.4 L617.3,128.1 L627.5,128.2 L637.8,129.8 L648.0,218.6 L658.3,218.6 L668.5,218.6 L678.8,218.6 L689.0,218.6 L699.3,218.6 L709.5,218.6 L719.8,218.6 L730.0,218.6" fill="none" stroke="#2a78d6" stroke-width="2" stroke-linejoin="round" stroke-linecap="round"/>
<circle cx="730.0" cy="218.6" r="6" fill="#fcfcfb"/>
<circle cx="730.0" cy="218.6" r="4" fill="#2a78d6"/>
<path d="M64.0,200.0 L74.2,200.0 L84.5,200.1 L94.7,200.1 L105.0,200.1 L115.2,205.3 L125.5,194.0 L135.7,151.6 L146.0,160.2 L156.2,153.8 L166.5,159.6 L176.7,159.5 L187.0,159.7 L197.2,159.4 L207.4,159.4 L217.7,159.4 L227.9,159.4 L238.2,159.4 L248.4,159.4 L258.7,159.4 L268.9,159.4 L279.2,158.9 L289.4,158.9 L299.7,158.9 L309.9,158.9 L320.2,158.9 L330.4,161.7 L340.6,151.6 L350.9,151.6 L361.1,151.6 L371.4,151.6 L381.6,151.6 L391.9,146.8 L402.1,152.6 L412.4,151.7 L422.6,124.7 L432.9,124.7 L443.1,134.3 L453.4,134.3 L463.6,134.4 L473.8,134.4 L484.1,134.4 L494.3,134.4 L504.6,134.4 L514.8,134.4 L525.1,134.4 L535.3,134.4 L545.6,134.4 L555.8,134.4 L566.1,134.4 L576.3,145.3 L586.6,139.5 L596.8,139.5 L607.0,149.2 L617.3,184.9 L627.5,185.5 L637.8,190.4 L648.0,288.8 L658.3,288.8 L668.5,288.8 L678.8,288.8 L689.0,288.8 L699.3,288.8 L709.5,288.8 L719.8,288.8 L730.0,288.8" fill="none" stroke="#1baf7a" stroke-width="2" stroke-linejoin="round" stroke-linecap="round"/>
<circle cx="730.0" cy="288.8" r="6" fill="#fcfcfb"/>
<circle cx="730.0" cy="288.8" r="4" fill="#1baf7a"/>
<circle cx="745.0" cy="215.1" r="3.5" fill="#2a78d6"/>
<text x="753.0" y="218.6" font-family='system-ui, -apple-system, "Segoe UI", sans-serif' font-size="11" fill="#0b0b0b">overhead</text>
<text x="753.0" y="230.6" font-family='system-ui, -apple-system, "Segoe UI", sans-serif' font-size="10" style="font-variant-numeric: tabular-nums" fill="#52514e">570k</text>
<circle cx="745.0" cy="285.3" r="3.5" fill="#1baf7a"/>
<text x="753.0" y="288.8" font-family='system-ui, -apple-system, "Segoe UI", sans-serif' font-size="11" fill="#0b0b0b">proxy (abs_f32_value)</text>
<text x="753.0" y="300.8" font-family='system-ui, -apple-system, "Segoe UI", sans-serif' font-size="10" style="font-variant-numeric: tabular-nums" fill="#52514e">515k</text>
</svg>