<svg xmlns="http://www.w3.org/2000/svg" width="880" height="340" viewBox="0 0 880 340" role="img" aria-label="Per-node engine overhead">
<rect width="880" height="340" rx="6" fill="#1a1a19"/>
<text x="64" y="24" font-family='system-ui, -apple-system, "Segoe UI", sans-serif' font-size="14" font-weight="600" fill="#ffffff">Per-node engine overhead</text>
<text x="64" y="41" font-family='system-ui, -apple-system, "Segoe UI", sans-serif' font-size="11" fill="#c3c2b7">callgrind instructions of a case that is ~pure engine stepping cost, gated like any operator. Axis zoomed.</text>
<line x1="64" y1="262.2" x2="730" y2="262.2" stroke="#2c2c2a" stroke-width="1"/>
<text x="56" y="265.7" text-anchor="end" font-family='system-ui, -apple-system, "Segoe UI", sans-serif' font-size="11" style="font-variant-numeric: tabular-nums" fill="#898781">520</text>
<line x1="64" y1="186.5" x2="730" y2="186.5" stroke="#2c2c2a" stroke-width="1"/>
<text x="56" y="190.0" text-anchor="end" font-family='system-ui, -apple-system, "Segoe UI", sans-serif' font-size="11" style="font-variant-numeric: tabular-nums" fill="#898781">540</text>
<line x1="64" y1="110.7" x2="730" y2="110.7" stroke="#2c2c2a" stroke-width="1"/>
<text x="56" y="114.2" text-anchor="end" font-family='system-ui, -apple-system, "Segoe UI", sans-serif' font-size="11" style="font-variant-numeric: tabular-nums" fill="#898781">560</text>
<text x="56" y="46" text-anchor="end" font-family='system-ui, -apple-system, "Segoe UI", sans-serif' font-size="10" fill="#898781">Ir (k)</text>
<line x1="64" y1="306" x2="730" y2="306" stroke="#383835" stroke-width="1"/>
<text x="64.0" y="322" text-anchor="middle" font-family='system-ui, -apple-system, "Segoe UI", sans-serif' font-size="11" style="font-variant-numeric: tabular-nums" fill="#898781">07-12</text>
<text x="154.8" y="322" text-anchor="middle" font-family='system-ui, -apple-system, "Segoe UI", sans-serif' font-size="11" style="font-variant-numeric: tabular-nums" fill="#898781">07-13</text>
<text x="170.0" y="322" text-anchor="middle" font-family='system-ui, -apple-system, "Segoe UI", sans-serif' font-size="11" style="font-variant-numeric: tabular-nums" fill="#898781">07-14</text>
<text x="185.1" y="322" text-anchor="middle" font-family='system-ui, -apple-system, "Segoe UI", sans-serif' font-size="11" style="font-variant-numeric: tabular-nums" fill="#898781">07-16</text>
<text x="306.2" y="322" text-anchor="middle" font-family='system-ui, -apple-system, "Segoe UI", sans-serif' font-size="11" style="font-variant-numeric: tabular-nums" fill="#898781">07-17</text>
<text x="397.0" y="322" text-anchor="middle" font-family='system-ui, -apple-system, "Segoe UI", sans-serif' font-size="11" style="font-variant-numeric: tabular-nums" fill="#898781">07-18</text>
<text x="487.8" y="322" text-anchor="middle" font-family='system-ui, -apple-system, "Segoe UI", sans-serif' font-size="11" style="font-variant-numeric: tabular-nums" fill="#898781">07-19</text>
<text x="533.2" y="322" text-anchor="middle" font-family='system-ui, -apple-system, "Segoe UI", sans-serif' font-size="11" style="font-variant-numeric: tabular-nums" fill="#898781">07-20</text>
<path d="M64.0,73.2 L79.1,73.2 L94.3,73.2 L109.4,73.2 L124.5,73.2 L139.7,73.2 L154.8,73.2 L170.0,73.2 L185.1,73.2 L200.2,73.2 L215.4,73.2 L230.5,73.2 L245.6,73.2 L260.8,73.2 L275.9,73.2 L291.0,73.2 L306.2,73.2 L321.3,73.2 L336.5,73.2 L351.6,73.2 L366.7,73.2 L381.9,73.2 L397.0,73.2 L412.1,73.2 L427.3,73.2 L442.4,73.2 L457.5,73.2 L472.7,73.2 L487.8,73.2 L503.0,73.2 L518.1,81.2 L533.2,81.2 L548.4,81.2 L563.5,91.2 L578.6,91.2 L593.8,91.2 L608.9,91.2 L624.0,91.2 L639.2,91.2 L654.3,91.3 L669.5,91.3 L684.6,80.9 L699.7,80.9 L714.9,80.9 L730.0,80.9" fill="none" stroke="#3987e5" stroke-width="2" stroke-linejoin="round" stroke-linecap="round"/>
<circle cx="730.0" cy="80.9" r="6" fill="#1a1a19"/>
<circle cx="730.0" cy="80.9" r="4" fill="#3987e5"/>
<path d="M64.0,281.6 L79.1,281.6 L94.3,281.6 L109.4,281.6 L124.5,281.6 L139.7,281.6 L154.8,281.6 L170.0,281.6 L185.1,281.6 L200.2,281.6 L215.4,281.6 L230.5,281.6 L245.6,281.6 L260.8,281.6 L275.9,281.6 L291.0,281.6 L306.2,281.6 L321.3,281.6 L336.5,281.6 L351.6,281.6 L366.7,281.6 L381.9,281.6 L397.0,281.6 L412.1,281.6 L427.3,281.6 L442.4,281.6 L457.5,281.6 L472.7,281.6 L487.8,281.6 L503.0,281.6 L518.1,280.2 L533.2,280.2 L548.4,280.2 L563.5,288.8 L578.6,288.8 L593.8,288.8 L608.9,288.8 L624.0,288.8 L639.2,288.8 L654.3,288.5 L669.5,288.5 L684.6,288.0 L699.7,288.0 L714.9,288.0 L730.0,288.0" fill="none" stroke="#199e70" stroke-width="2" stroke-linejoin="round" stroke-linecap="round"/>
<circle cx="730.0" cy="288.0" r="6" fill="#1a1a19"/>
<circle cx="730.0" cy="288.0" r="4" fill="#199e70"/>
<circle cx="745.0" cy="77.4" r="3.5" fill="#3987e5"/>
<text x="753.0" y="80.9" font-family='system-ui, -apple-system, "Segoe UI", sans-serif' font-size="11" fill="#ffffff">overhead</text>
<text x="753.0" y="92.9" font-family='system-ui, -apple-system, "Segoe UI", sans-serif' font-size="10" style="font-variant-numeric: tabular-nums" fill="#c3c2b7">568k</text>
<circle cx="745.0" cy="284.5" r="3.5" fill="#199e70"/>
<text x="753.0" y="288.0" font-family='system-ui, -apple-system, "Segoe UI", sans-serif' font-size="11" fill="#ffffff">proxy (abs_f32_value)</text>
<text x="753.0" y="300.0" font-family='system-ui, -apple-system, "Segoe UI", sans-serif' font-size="10" style="font-variant-numeric: tabular-nums" fill="#c3c2b7">513k</text>
</svg>