<svg xmlns="http://www.w3.org/2000/svg" width="880" height="340" viewBox="0 0 880 340" role="img" aria-label="Per-node engine overhead">
<rect width="880" height="340" rx="6" fill="#1a1a19"/>
<text x="64" y="24" font-family='system-ui, -apple-system, "Segoe UI", sans-serif' font-size="14" font-weight="600" fill="#ffffff">Per-node engine overhead</text>
<text x="64" y="41" font-family='system-ui, -apple-system, "Segoe UI", sans-serif' font-size="11" fill="#c3c2b7">callgrind instructions of a case that is ~pure engine stepping cost, gated like any operator. Axis zoomed.</text>
<line x1="64" y1="262.2" x2="730" y2="262.2" stroke="#2c2c2a" stroke-width="1"/>
<text x="56" y="265.7" text-anchor="end" font-family='system-ui, -apple-system, "Segoe UI", sans-serif' font-size="11" style="font-variant-numeric: tabular-nums" fill="#898781">520</text>
<line x1="64" y1="186.5" x2="730" y2="186.5" stroke="#2c2c2a" stroke-width="1"/>
<text x="56" y="190.0" text-anchor="end" font-family='system-ui, -apple-system, "Segoe UI", sans-serif' font-size="11" style="font-variant-numeric: tabular-nums" fill="#898781">540</text>
<line x1="64" y1="110.7" x2="730" y2="110.7" stroke="#2c2c2a" stroke-width="1"/>
<text x="56" y="114.2" text-anchor="end" font-family='system-ui, -apple-system, "Segoe UI", sans-serif' font-size="11" style="font-variant-numeric: tabular-nums" fill="#898781">560</text>
<text x="56" y="46" text-anchor="end" font-family='system-ui, -apple-system, "Segoe UI", sans-serif' font-size="10" fill="#898781">Ir (k)</text>
<line x1="64" y1="306" x2="730" y2="306" stroke="#383835" stroke-width="1"/>
<text x="64.0" y="322" text-anchor="middle" font-family='system-ui, -apple-system, "Segoe UI", sans-serif' font-size="11" style="font-variant-numeric: tabular-nums" fill="#898781">07-12</text>
<text x="163.2" y="322" text-anchor="middle" font-family='system-ui, -apple-system, "Segoe UI", sans-serif' font-size="11" style="font-variant-numeric: tabular-nums" fill="#898781">07-14</text>
<text x="290.7" y="322" text-anchor="middle" font-family='system-ui, -apple-system, "Segoe UI", sans-serif' font-size="11" style="font-variant-numeric: tabular-nums" fill="#898781">07-17</text>
<text x="460.8" y="322" text-anchor="middle" font-family='system-ui, -apple-system, "Segoe UI", sans-serif' font-size="11" style="font-variant-numeric: tabular-nums" fill="#898781">07-19</text>
<text x="715.8" y="322" text-anchor="middle" font-family='system-ui, -apple-system, "Segoe UI", sans-serif' font-size="11" style="font-variant-numeric: tabular-nums" fill="#898781">07-21</text>
<path d="M64.0,73.2 L78.2,73.2 L92.3,73.2 L106.5,73.2 L120.7,73.2 L134.9,73.2 L149.0,73.2 L163.2,73.2 L177.4,73.2 L191.5,73.2 L205.7,73.2 L219.9,73.2 L234.0,73.2 L248.2,73.2 L262.4,73.2 L276.6,73.2 L290.7,73.2 L304.9,73.2 L319.1,73.2 L333.2,73.2 L347.4,73.2 L361.6,73.2 L375.7,73.2 L389.9,73.2 L404.1,73.2 L418.3,73.2 L432.4,73.2 L446.6,73.2 L460.8,73.2 L474.9,73.2 L489.1,81.2 L503.3,81.2 L517.4,81.2 L531.6,91.2 L545.8,91.2 L560.0,91.2 L574.1,91.2 L588.3,91.2 L602.5,91.2 L616.6,91.3 L630.8,91.3 L645.0,80.9 L659.1,80.9 L673.3,80.9 L687.5,80.9 L701.7,80.9 L715.8,80.9 L730.0,80.9" fill="none" stroke="#3987e5" stroke-width="2" stroke-linejoin="round" stroke-linecap="round"/>
<circle cx="730.0" cy="80.9" r="6" fill="#1a1a19"/>
<circle cx="730.0" cy="80.9" r="4" fill="#3987e5"/>
<path d="M64.0,281.6 L78.2,281.6 L92.3,281.6 L106.5,281.6 L120.7,281.6 L134.9,281.6 L149.0,281.6 L163.2,281.6 L177.4,281.6 L191.5,281.6 L205.7,281.6 L219.9,281.6 L234.0,281.6 L248.2,281.6 L262.4,281.6 L276.6,281.6 L290.7,281.6 L304.9,281.6 L319.1,281.6 L333.2,281.6 L347.4,281.6 L361.6,281.6 L375.7,281.6 L389.9,281.6 L404.1,281.6 L418.3,281.6 L432.4,281.6 L446.6,281.6 L460.8,281.6 L474.9,281.6 L489.1,280.2 L503.3,280.2 L517.4,280.2 L531.6,288.8 L545.8,288.8 L560.0,288.8 L574.1,288.8 L588.3,288.8 L602.5,288.8 L616.6,288.5 L630.8,288.5 L645.0,288.0 L659.1,288.0 L673.3,288.0 L687.5,288.0 L701.7,288.0 L715.8,288.0 L730.0,288.0" fill="none" stroke="#199e70" stroke-width="2" stroke-linejoin="round" stroke-linecap="round"/>
<circle cx="730.0" cy="288.0" r="6" fill="#1a1a19"/>
<circle cx="730.0" cy="288.0" r="4" fill="#199e70"/>
<circle cx="745.0" cy="77.4" r="3.5" fill="#3987e5"/>
<text x="753.0" y="80.9" font-family='system-ui, -apple-system, "Segoe UI", sans-serif' font-size="11" fill="#ffffff">overhead</text>
<text x="753.0" y="92.9" font-family='system-ui, -apple-system, "Segoe UI", sans-serif' font-size="10" style="font-variant-numeric: tabular-nums" fill="#c3c2b7">568k</text>
<circle cx="745.0" cy="284.5" r="3.5" fill="#199e70"/>
<text x="753.0" y="288.0" font-family='system-ui, -apple-system, "Segoe UI", sans-serif' font-size="11" fill="#ffffff">proxy (abs_f32_value)</text>
<text x="753.0" y="300.0" font-family='system-ui, -apple-system, "Segoe UI", sans-serif' font-size="10" style="font-variant-numeric: tabular-nums" fill="#c3c2b7">513k</text>
</svg>