<svg xmlns="http://www.w3.org/2000/svg" width="880" height="340" viewBox="0 0 880 340" role="img" aria-label="Per-node engine overhead">
<rect width="880" height="340" rx="6" fill="#fcfcfb"/>
<text x="64" y="24" font-family='system-ui, -apple-system, "Segoe UI", sans-serif' font-size="14" font-weight="600" fill="#0b0b0b">Per-node engine overhead</text>
<text x="64" y="41" font-family='system-ui, -apple-system, "Segoe UI", sans-serif' font-size="11" fill="#52514e">callgrind instructions of a case that is ~pure engine stepping cost, gated like any operator. Axis zoomed.</text>
<line x1="64" y1="299.7" x2="730" y2="299.7" stroke="#e1e0d9" stroke-width="1"/>
<text x="56" y="303.2" text-anchor="end" font-family='system-ui, -apple-system, "Segoe UI", sans-serif' font-size="11" style="font-variant-numeric: tabular-nums" fill="#898781">575</text>
<line x1="64" y1="247.6" x2="730" y2="247.6" stroke="#e1e0d9" stroke-width="1"/>
<text x="56" y="251.1" text-anchor="end" font-family='system-ui, -apple-system, "Segoe UI", sans-serif' font-size="11" style="font-variant-numeric: tabular-nums" fill="#898781">600</text>
<line x1="64" y1="195.6" x2="730" y2="195.6" stroke="#e1e0d9" stroke-width="1"/>
<text x="56" y="199.1" text-anchor="end" font-family='system-ui, -apple-system, "Segoe UI", sans-serif' font-size="11" style="font-variant-numeric: tabular-nums" fill="#898781">625</text>
<line x1="64" y1="143.5" x2="730" y2="143.5" stroke="#e1e0d9" stroke-width="1"/>
<text x="56" y="147.0" text-anchor="end" font-family='system-ui, -apple-system, "Segoe UI", sans-serif' font-size="11" style="font-variant-numeric: tabular-nums" fill="#898781">650</text>
<line x1="64" y1="91.5" x2="730" y2="91.5" stroke="#e1e0d9" stroke-width="1"/>
<text x="56" y="95.0" text-anchor="end" font-family='system-ui, -apple-system, "Segoe UI", sans-serif' font-size="11" style="font-variant-numeric: tabular-nums" fill="#898781">675</text>
<text x="56" y="46" text-anchor="end" font-family='system-ui, -apple-system, "Segoe UI", sans-serif' font-size="10" fill="#898781">Ir (k)</text>
<line x1="64" y1="306" x2="730" y2="306" stroke="#c3c2b7" stroke-width="1"/>
<text x="64.0" y="322" text-anchor="middle" font-family='system-ui, -apple-system, "Segoe UI", sans-serif' font-size="11" style="font-variant-numeric: tabular-nums" fill="#898781">06-28</text>
<text x="135.4" y="322" text-anchor="middle" font-family='system-ui, -apple-system, "Segoe UI", sans-serif' font-size="11" style="font-variant-numeric: tabular-nums" fill="#898781">06-30</text>
<text x="194.8" y="322" text-anchor="middle" font-family='system-ui, -apple-system, "Segoe UI", sans-serif' font-size="11" style="font-variant-numeric: tabular-nums" fill="#898781">07-02</text>
<text x="325.6" y="322" text-anchor="middle" font-family='system-ui, -apple-system, "Segoe UI", sans-serif' font-size="11" style="font-variant-numeric: tabular-nums" fill="#898781">07-04</text>
<text x="515.9" y="322" text-anchor="middle" font-family='system-ui, -apple-system, "Segoe UI", sans-serif' font-size="11" style="font-variant-numeric: tabular-nums" fill="#898781">07-07</text>
<text x="634.9" y="322" text-anchor="middle" font-family='system-ui, -apple-system, "Segoe UI", sans-serif' font-size="11" style="font-variant-numeric: tabular-nums" fill="#898781">07-09</text>
<text x="730.0" y="322" text-anchor="middle" font-family='system-ui, -apple-system, "Segoe UI", sans-serif' font-size="11" style="font-variant-numeric: tabular-nums" fill="#898781">07-11</text>
<path d="M456.5,97.6 L468.4,103.0 L480.2,79.4 L492.1,79.4 L504.0,73.3 L515.9,73.3 L527.8,73.4 L539.7,73.4 L551.6,73.4 L563.5,73.4 L575.4,73.4 L587.3,73.4 L599.2,73.4 L611.1,73.4 L623.0,73.4 L634.9,73.4 L646.8,73.2 L658.6,92.1 L670.5,82.7 L682.4,82.7 L694.3,91.5 L706.2,162.7 L718.1,162.8 L730.0,165.4" fill="none" stroke="#2a78d6" stroke-width="2" stroke-linejoin="round" stroke-linecap="round"/>
<circle cx="730.0" cy="165.4" r="6" fill="#fcfcfb"/>
<circle cx="730.0" cy="165.4" r="4" fill="#2a78d6"/>
<path d="M64.0,280.1 L75.9,280.1 L87.8,280.2 L99.7,280.2 L111.6,280.2 L123.5,288.8 L135.4,270.2 L147.2,201.1 L159.1,215.1 L171.0,204.7 L182.9,214.2 L194.8,214.0 L206.7,214.4 L218.6,213.8 L230.5,213.8 L242.4,213.8 L254.3,213.8 L266.2,213.8 L278.1,213.8 L290.0,213.8 L301.9,213.9 L313.8,212.9 L325.6,212.9 L337.5,212.9 L349.4,212.9 L361.3,212.9 L373.2,217.5 L385.1,201.1 L397.0,201.1 L408.9,201.1 L420.8,201.1 L432.7,201.1 L444.6,193.3 L456.5,202.6 L468.4,201.3 L480.2,157.2 L492.1,157.2 L504.0,172.8 L515.9,172.8 L527.8,173.0 L539.7,173.0 L551.6,173.0 L563.5,173.0 L575.4,173.0 L587.3,173.0 L599.2,173.0 L611.1,173.0 L623.0,173.0 L634.9,173.0 L646.8,172.9 L658.6,190.8 L670.5,181.4 L682.4,181.4 L694.3,197.2 L706.2,255.5 L718.1,256.4 L730.0,264.4" fill="none" stroke="#1baf7a" stroke-width="2" stroke-linejoin="round" stroke-linecap="round"/>
<circle cx="730.0" cy="264.4" r="6" fill="#fcfcfb"/>
<circle cx="730.0" cy="264.4" r="4" fill="#1baf7a"/>
<circle cx="745.0" cy="161.9" r="3.5" fill="#2a78d6"/>
<text x="753.0" y="165.4" font-family='system-ui, -apple-system, "Segoe UI", sans-serif' font-size="11" fill="#0b0b0b">overhead</text>
<text x="753.0" y="177.4" font-family='system-ui, -apple-system, "Segoe UI", sans-serif' font-size="10" style="font-variant-numeric: tabular-nums" fill="#52514e">639k</text>
<circle cx="745.0" cy="260.9" r="3.5" fill="#1baf7a"/>
<text x="753.0" y="264.4" font-family='system-ui, -apple-system, "Segoe UI", sans-serif' font-size="11" fill="#0b0b0b">proxy (abs_f32_value)</text>
<text x="753.0" y="276.4" font-family='system-ui, -apple-system, "Segoe UI", sans-serif' font-size="10" style="font-variant-numeric: tabular-nums" fill="#52514e">592k</text>
</svg>