<svg xmlns="http://www.w3.org/2000/svg" width="880" height="340" viewBox="0 0 880 340" role="img" aria-label="Per-node engine overhead">
<rect width="880" height="340" rx="6" fill="#1a1a19"/>
<text x="64" y="24" font-family='system-ui, -apple-system, "Segoe UI", sans-serif' font-size="14" font-weight="600" fill="#ffffff">Per-node engine overhead</text>
<text x="64" y="41" font-family='system-ui, -apple-system, "Segoe UI", sans-serif' font-size="11" fill="#c3c2b7">callgrind instructions of a case that is ~pure engine stepping cost, gated like any operator. Axis zoomed.</text>
<line x1="64" y1="262.2" x2="730" y2="262.2" stroke="#2c2c2a" stroke-width="1"/>
<text x="56" y="265.7" text-anchor="end" font-family='system-ui, -apple-system, "Segoe UI", sans-serif' font-size="11" style="font-variant-numeric: tabular-nums" fill="#898781">520</text>
<line x1="64" y1="186.5" x2="730" y2="186.5" stroke="#2c2c2a" stroke-width="1"/>
<text x="56" y="190.0" text-anchor="end" font-family='system-ui, -apple-system, "Segoe UI", sans-serif' font-size="11" style="font-variant-numeric: tabular-nums" fill="#898781">540</text>
<line x1="64" y1="110.7" x2="730" y2="110.7" stroke="#2c2c2a" stroke-width="1"/>
<text x="56" y="114.2" text-anchor="end" font-family='system-ui, -apple-system, "Segoe UI", sans-serif' font-size="11" style="font-variant-numeric: tabular-nums" fill="#898781">560</text>
<text x="56" y="46" text-anchor="end" font-family='system-ui, -apple-system, "Segoe UI", sans-serif' font-size="10" fill="#898781">Ir (k)</text>
<line x1="64" y1="306" x2="730" y2="306" stroke="#383835" stroke-width="1"/>
<text x="64.0" y="322" text-anchor="middle" font-family='system-ui, -apple-system, "Segoe UI", sans-serif' font-size="11" style="font-variant-numeric: tabular-nums" fill="#898781">07-12</text>
<text x="152.0" y="322" text-anchor="middle" font-family='system-ui, -apple-system, "Segoe UI", sans-serif' font-size="11" style="font-variant-numeric: tabular-nums" fill="#898781">07-14</text>
<text x="265.1" y="322" text-anchor="middle" font-family='system-ui, -apple-system, "Segoe UI", sans-serif' font-size="11" style="font-variant-numeric: tabular-nums" fill="#898781">07-17</text>
<text x="415.8" y="322" text-anchor="middle" font-family='system-ui, -apple-system, "Segoe UI", sans-serif' font-size="11" style="font-variant-numeric: tabular-nums" fill="#898781">07-19</text>
<text x="642.0" y="322" text-anchor="middle" font-family='system-ui, -apple-system, "Segoe UI", sans-serif' font-size="11" style="font-variant-numeric: tabular-nums" fill="#898781">07-21</text>
<path d="M64.0,73.2 L76.6,73.2 L89.1,73.2 L101.7,73.2 L114.3,73.2 L126.8,73.2 L139.4,73.2 L152.0,73.2 L164.5,73.2 L177.1,73.2 L189.7,73.2 L202.2,73.2 L214.8,73.2 L227.4,73.2 L239.9,73.2 L252.5,73.2 L265.1,73.2 L277.6,73.2 L290.2,73.2 L302.8,73.2 L315.3,73.2 L327.9,73.2 L340.5,73.2 L353.0,73.2 L365.6,73.2 L378.2,73.2 L390.7,73.2 L403.3,73.2 L415.8,73.2 L428.4,73.2 L441.0,81.2 L453.5,81.2 L466.1,81.2 L478.7,91.2 L491.2,91.2 L503.8,91.2 L516.4,91.2 L528.9,91.2 L541.5,91.2 L554.1,91.3 L566.6,91.3 L579.2,80.9 L591.8,80.9 L604.3,80.9 L616.9,80.9 L629.5,80.9 L642.0,80.9 L654.6,80.9 L667.2,80.9 L679.7,80.9 L692.3,80.9 L704.9,90.0 L717.4,90.0 L730.0,90.0" fill="none" stroke="#3987e5" stroke-width="2" stroke-linejoin="round" stroke-linecap="round"/>
<circle cx="730.0" cy="90.0" r="6" fill="#1a1a19"/>
<circle cx="730.0" cy="90.0" r="4" fill="#3987e5"/>
<path d="M64.0,281.6 L76.6,281.6 L89.1,281.6 L101.7,281.6 L114.3,281.6 L126.8,281.6 L139.4,281.6 L152.0,281.6 L164.5,281.6 L177.1,281.6 L189.7,281.6 L202.2,281.6 L214.8,281.6 L227.4,281.6 L239.9,281.6 L252.5,281.6 L265.1,281.6 L277.6,281.6 L290.2,281.6 L302.8,281.6 L315.3,281.6 L327.9,281.6 L340.5,281.6 L353.0,281.6 L365.6,281.6 L378.2,281.6 L390.7,281.6 L403.3,281.6 L415.8,281.6 L428.4,281.6 L441.0,280.2 L453.5,280.2 L466.1,280.2 L478.7,288.8 L491.2,288.8 L503.8,288.8 L516.4,288.8 L528.9,288.8 L541.5,288.8 L554.1,288.5 L566.6,288.5 L579.2,288.0 L591.8,288.0 L604.3,288.0 L616.9,288.0 L629.5,288.0 L642.0,288.0 L654.6,288.0 L667.2,288.0 L679.7,288.0 L692.3,288.0 L704.9,287.1 L717.4,287.1 L730.0,287.1" fill="none" stroke="#199e70" stroke-width="2" stroke-linejoin="round" stroke-linecap="round"/>
<circle cx="730.0" cy="287.1" r="6" fill="#1a1a19"/>
<circle cx="730.0" cy="287.1" r="4" fill="#199e70"/>
<circle cx="745.0" cy="86.5" r="3.5" fill="#3987e5"/>
<text x="753.0" y="90.0" font-family='system-ui, -apple-system, "Segoe UI", sans-serif' font-size="11" fill="#ffffff">overhead</text>
<text x="753.0" y="102.0" font-family='system-ui, -apple-system, "Segoe UI", sans-serif' font-size="10" style="font-variant-numeric: tabular-nums" fill="#c3c2b7">565k</text>
<circle cx="745.0" cy="283.6" r="3.5" fill="#199e70"/>
<text x="753.0" y="287.1" font-family='system-ui, -apple-system, "Segoe UI", sans-serif' font-size="11" fill="#ffffff">proxy (abs_f32_value)</text>
<text x="753.0" y="299.1" font-family='system-ui, -apple-system, "Segoe UI", sans-serif' font-size="10" style="font-variant-numeric: tabular-nums" fill="#c3c2b7">513k</text>
</svg>