<svg xmlns="http://www.w3.org/2000/svg" width="880" height="340" viewBox="0 0 880 340" role="img" aria-label="Per-node engine overhead">
<rect width="880" height="340" rx="6" fill="#fcfcfb"/>
<text x="64" y="24" font-family='system-ui, -apple-system, "Segoe UI", sans-serif' font-size="14" font-weight="600" fill="#0b0b0b">Per-node engine overhead</text>
<text x="64" y="41" font-family='system-ui, -apple-system, "Segoe UI", sans-serif' font-size="11" fill="#52514e">callgrind instructions of a case that is ~pure engine stepping cost, gated like any operator. Axis zoomed.</text>
<line x1="64" y1="262.2" x2="730" y2="262.2" stroke="#e1e0d9" stroke-width="1"/>
<text x="56" y="265.7" text-anchor="end" font-family='system-ui, -apple-system, "Segoe UI", sans-serif' font-size="11" style="font-variant-numeric: tabular-nums" fill="#898781">520</text>
<line x1="64" y1="186.5" x2="730" y2="186.5" stroke="#e1e0d9" stroke-width="1"/>
<text x="56" y="190.0" text-anchor="end" font-family='system-ui, -apple-system, "Segoe UI", sans-serif' font-size="11" style="font-variant-numeric: tabular-nums" fill="#898781">540</text>
<line x1="64" y1="110.7" x2="730" y2="110.7" stroke="#e1e0d9" stroke-width="1"/>
<text x="56" y="114.2" text-anchor="end" font-family='system-ui, -apple-system, "Segoe UI", sans-serif' font-size="11" style="font-variant-numeric: tabular-nums" fill="#898781">560</text>
<text x="56" y="46" text-anchor="end" font-family='system-ui, -apple-system, "Segoe UI", sans-serif' font-size="10" fill="#898781">Ir (k)</text>
<line x1="64" y1="306" x2="730" y2="306" stroke="#c3c2b7" stroke-width="1"/>
<text x="64.0" y="322" text-anchor="middle" font-family='system-ui, -apple-system, "Segoe UI", sans-serif' font-size="11" style="font-variant-numeric: tabular-nums" fill="#898781">07-12</text>
<text x="139.2" y="322" text-anchor="middle" font-family='system-ui, -apple-system, "Segoe UI", sans-serif' font-size="11" style="font-variant-numeric: tabular-nums" fill="#898781">07-14</text>
<text x="235.9" y="322" text-anchor="middle" font-family='system-ui, -apple-system, "Segoe UI", sans-serif' font-size="11" style="font-variant-numeric: tabular-nums" fill="#898781">07-17</text>
<text x="364.8" y="322" text-anchor="middle" font-family='system-ui, -apple-system, "Segoe UI", sans-serif' font-size="11" style="font-variant-numeric: tabular-nums" fill="#898781">07-19</text>
<text x="558.1" y="322" text-anchor="middle" font-family='system-ui, -apple-system, "Segoe UI", sans-serif' font-size="11" style="font-variant-numeric: tabular-nums" fill="#898781">07-21</text>
<path d="M64.0,73.2 L74.7,73.2 L85.5,73.2 L96.2,73.2 L107.0,73.2 L117.7,73.2 L128.5,73.2 L139.2,73.2 L149.9,73.2 L160.7,73.2 L171.4,73.2 L182.2,73.2 L192.9,73.2 L203.6,73.2 L214.4,73.2 L225.1,73.2 L235.9,73.2 L246.6,73.2 L257.4,73.2 L268.1,73.2 L278.8,73.2 L289.6,73.2 L300.3,73.2 L311.1,73.2 L321.8,73.2 L332.5,73.2 L343.3,73.2 L354.0,73.2 L364.8,73.2 L375.5,73.2 L386.3,81.2 L397.0,81.2 L407.7,81.2 L418.5,91.2 L429.2,91.2 L440.0,91.2 L450.7,91.2 L461.5,91.2 L472.2,91.2 L482.9,91.3 L493.7,91.3 L504.4,80.9 L515.2,80.9 L525.9,80.9 L536.6,80.9 L547.4,80.9 L558.1,80.9 L568.9,80.9 L579.6,80.9 L590.4,80.9 L601.1,80.9 L611.8,90.0 L622.6,90.0 L633.3,90.0 L644.1,90.0 L654.8,90.2 L665.5,95.4 L676.3,95.4 L687.0,95.4 L697.8,95.4 L708.5,95.4 L719.3,95.4 L730.0,95.4" fill="none" stroke="#2a78d6" stroke-width="2" stroke-linejoin="round" stroke-linecap="round"/>
<circle cx="730.0" cy="95.4" r="6" fill="#fcfcfb"/>
<circle cx="730.0" cy="95.4" r="4" fill="#2a78d6"/>
<path d="M64.0,281.6 L74.7,281.6 L85.5,281.6 L96.2,281.6 L107.0,281.6 L117.7,281.6 L128.5,281.6 L139.2,281.6 L149.9,281.6 L160.7,281.6 L171.4,281.6 L182.2,281.6 L192.9,281.6 L203.6,281.6 L214.4,281.6 L225.1,281.6 L235.9,281.6 L246.6,281.6 L257.4,281.6 L268.1,281.6 L278.8,281.6 L289.6,281.6 L300.3,281.6 L311.1,281.6 L321.8,281.6 L332.5,281.6 L343.3,281.6 L354.0,281.6 L364.8,281.6 L375.5,281.6 L386.3,280.2 L397.0,280.2 L407.7,280.2 L418.5,288.8 L429.2,288.8 L440.0,288.8 L450.7,288.8 L461.5,288.8 L472.2,288.8 L482.9,288.5 L493.7,288.5 L504.4,288.0 L515.2,288.0 L525.9,288.0 L536.6,288.0 L547.4,288.0 L558.1,288.0 L568.9,288.0 L579.6,288.0 L590.4,288.0 L601.1,288.0 L611.8,287.1 L622.6,287.1 L633.3,287.1 L644.1,287.1 L654.8,257.8 L665.5,263.2 L676.3,263.2 L687.0,263.2 L697.8,263.2 L708.5,263.2 L719.3,263.2 L730.0,263.2" fill="none" stroke="#1baf7a" stroke-width="2" stroke-linejoin="round" stroke-linecap="round"/>
<circle cx="730.0" cy="263.2" r="6" fill="#fcfcfb"/>
<circle cx="730.0" cy="263.2" r="4" fill="#1baf7a"/>
<circle cx="745.0" cy="91.9" r="3.5" fill="#2a78d6"/>
<text x="753.0" y="95.4" font-family='system-ui, -apple-system, "Segoe UI", sans-serif' font-size="11" fill="#0b0b0b">overhead</text>
<text x="753.0" y="107.4" font-family='system-ui, -apple-system, "Segoe UI", sans-serif' font-size="10" style="font-variant-numeric: tabular-nums" fill="#52514e">564k</text>
<circle cx="745.0" cy="259.7" r="3.5" fill="#1baf7a"/>
<text x="753.0" y="263.2" font-family='system-ui, -apple-system, "Segoe UI", sans-serif' font-size="11" fill="#0b0b0b">proxy (abs_f32_value)</text>
<text x="753.0" y="275.2" font-family='system-ui, -apple-system, "Segoe UI", sans-serif' font-size="10" style="font-variant-numeric: tabular-nums" fill="#52514e">520k</text>
</svg>