<svg xmlns="http://www.w3.org/2000/svg" width="880" height="340" viewBox="0 0 880 340" role="img" aria-label="Per-node engine overhead">
<rect width="880" height="340" rx="6" fill="#fcfcfb"/>
<text x="64" y="24" font-family='system-ui, -apple-system, "Segoe UI", sans-serif' font-size="14" font-weight="600" fill="#0b0b0b">Per-node engine overhead</text>
<text x="64" y="41" font-family='system-ui, -apple-system, "Segoe UI", sans-serif' font-size="11" fill="#52514e">callgrind instructions of a case that is ~pure engine stepping cost, gated like any operator. Axis zoomed.</text>
<line x1="64" y1="262.2" x2="730" y2="262.2" stroke="#e1e0d9" stroke-width="1"/>
<text x="56" y="265.7" text-anchor="end" font-family='system-ui, -apple-system, "Segoe UI", sans-serif' font-size="11" style="font-variant-numeric: tabular-nums" fill="#898781">520</text>
<line x1="64" y1="186.5" x2="730" y2="186.5" stroke="#e1e0d9" stroke-width="1"/>
<text x="56" y="190.0" text-anchor="end" font-family='system-ui, -apple-system, "Segoe UI", sans-serif' font-size="11" style="font-variant-numeric: tabular-nums" fill="#898781">540</text>
<line x1="64" y1="110.7" x2="730" y2="110.7" stroke="#e1e0d9" stroke-width="1"/>
<text x="56" y="114.2" text-anchor="end" font-family='system-ui, -apple-system, "Segoe UI", sans-serif' font-size="11" style="font-variant-numeric: tabular-nums" fill="#898781">560</text>
<text x="56" y="46" text-anchor="end" font-family='system-ui, -apple-system, "Segoe UI", sans-serif' font-size="10" fill="#898781">Ir (k)</text>
<line x1="64" y1="306" x2="730" y2="306" stroke="#c3c2b7" stroke-width="1"/>
<text x="64.0" y="322" text-anchor="middle" font-family='system-ui, -apple-system, "Segoe UI", sans-serif' font-size="11" style="font-variant-numeric: tabular-nums" fill="#898781">07-12</text>
<text x="163.9" y="322" text-anchor="middle" font-family='system-ui, -apple-system, "Segoe UI", sans-serif' font-size="11" style="font-variant-numeric: tabular-nums" fill="#898781">07-13</text>
<text x="180.6" y="322" text-anchor="middle" font-family='system-ui, -apple-system, "Segoe UI", sans-serif' font-size="11" style="font-variant-numeric: tabular-nums" fill="#898781">07-14</text>
<text x="197.2" y="322" text-anchor="middle" font-family='system-ui, -apple-system, "Segoe UI", sans-serif' font-size="11" style="font-variant-numeric: tabular-nums" fill="#898781">07-16</text>
<text x="330.4" y="322" text-anchor="middle" font-family='system-ui, -apple-system, "Segoe UI", sans-serif' font-size="11" style="font-variant-numeric: tabular-nums" fill="#898781">07-17</text>
<text x="430.3" y="322" text-anchor="middle" font-family='system-ui, -apple-system, "Segoe UI", sans-serif' font-size="11" style="font-variant-numeric: tabular-nums" fill="#898781">07-18</text>
<text x="530.2" y="322" text-anchor="middle" font-family='system-ui, -apple-system, "Segoe UI", sans-serif' font-size="11" style="font-variant-numeric: tabular-nums" fill="#898781">07-19</text>
<text x="580.1" y="322" text-anchor="middle" font-family='system-ui, -apple-system, "Segoe UI", sans-serif' font-size="11" style="font-variant-numeric: tabular-nums" fill="#898781">07-20</text>
<path d="M64.0,73.2 L80.7,73.2 L97.3,73.2 L114.0,73.2 L130.6,73.2 L147.2,73.2 L163.9,73.2 L180.6,73.2 L197.2,73.2 L213.8,73.2 L230.5,73.2 L247.2,73.2 L263.8,73.2 L280.4,73.2 L297.1,73.2 L313.8,73.2 L330.4,73.2 L347.1,73.2 L363.7,73.2 L380.4,73.2 L397.0,73.2 L413.6,73.2 L430.3,73.2 L446.9,73.2 L463.6,73.2 L480.2,73.2 L496.9,73.2 L513.5,73.2 L530.2,73.2 L546.9,73.2 L563.5,81.2 L580.1,81.2 L596.8,81.2 L613.5,91.2 L630.1,91.2 L646.8,91.2 L663.4,91.2 L680.0,91.2 L696.7,91.2 L713.4,91.3 L730.0,91.3" fill="none" stroke="#2a78d6" stroke-width="2" stroke-linejoin="round" stroke-linecap="round"/>
<circle cx="730.0" cy="91.3" r="6" fill="#fcfcfb"/>
<circle cx="730.0" cy="91.3" r="4" fill="#2a78d6"/>
<path d="M64.0,281.6 L80.7,281.6 L97.3,281.6 L114.0,281.6 L130.6,281.6 L147.2,281.6 L163.9,281.6 L180.6,281.6 L197.2,281.6 L213.8,281.6 L230.5,281.6 L247.2,281.6 L263.8,281.6 L280.4,281.6 L297.1,281.6 L313.8,281.6 L330.4,281.6 L347.1,281.6 L363.7,281.6 L380.4,281.6 L397.0,281.6 L413.6,281.6 L430.3,281.6 L446.9,281.6 L463.6,281.6 L480.2,281.6 L496.9,281.6 L513.5,281.6 L530.2,281.6 L546.9,281.6 L563.5,280.2 L580.1,280.2 L596.8,280.2 L613.5,288.8 L630.1,288.8 L646.8,288.8 L663.4,288.8 L680.0,288.8 L696.7,288.8 L713.4,288.5 L730.0,288.5" fill="none" stroke="#1baf7a" stroke-width="2" stroke-linejoin="round" stroke-linecap="round"/>
<circle cx="730.0" cy="288.5" r="6" fill="#fcfcfb"/>
<circle cx="730.0" cy="288.5" r="4" fill="#1baf7a"/>
<circle cx="745.0" cy="87.8" r="3.5" fill="#2a78d6"/>
<text x="753.0" y="91.3" font-family='system-ui, -apple-system, "Segoe UI", sans-serif' font-size="11" fill="#0b0b0b">overhead</text>
<text x="753.0" y="103.3" font-family='system-ui, -apple-system, "Segoe UI", sans-serif' font-size="10" style="font-variant-numeric: tabular-nums" fill="#52514e">565k</text>
<circle cx="745.0" cy="285.0" r="3.5" fill="#1baf7a"/>
<text x="753.0" y="288.5" font-family='system-ui, -apple-system, "Segoe UI", sans-serif' font-size="11" fill="#0b0b0b">proxy (abs_f32_value)</text>
<text x="753.0" y="300.5" font-family='system-ui, -apple-system, "Segoe UI", sans-serif' font-size="10" style="font-variant-numeric: tabular-nums" fill="#52514e">513k</text>
</svg>