<svg xmlns="http://www.w3.org/2000/svg" width="880" height="340" viewBox="0 0 880 340" role="img" aria-label="Per-node engine overhead">
<rect width="880" height="340" rx="6" fill="#1a1a19"/>
<text x="64" y="24" font-family='system-ui, -apple-system, "Segoe UI", sans-serif' font-size="14" font-weight="600" fill="#ffffff">Per-node engine overhead</text>
<text x="64" y="41" font-family='system-ui, -apple-system, "Segoe UI", sans-serif' font-size="11" fill="#c3c2b7">callgrind instructions of a case that is ~pure engine stepping cost, gated like any operator. Axis zoomed.</text>
<line x1="64" y1="243.9" x2="730" y2="243.9" stroke="#2c2c2a" stroke-width="1"/>
<text x="56" y="247.4" text-anchor="end" font-family='system-ui, -apple-system, "Segoe UI", sans-serif' font-size="11" style="font-variant-numeric: tabular-nums" fill="#898781">550</text>
<line x1="64" y1="180.1" x2="730" y2="180.1" stroke="#2c2c2a" stroke-width="1"/>
<text x="56" y="183.6" text-anchor="end" font-family='system-ui, -apple-system, "Segoe UI", sans-serif' font-size="11" style="font-variant-numeric: tabular-nums" fill="#898781">600</text>
<line x1="64" y1="116.3" x2="730" y2="116.3" stroke="#2c2c2a" stroke-width="1"/>
<text x="56" y="119.8" text-anchor="end" font-family='system-ui, -apple-system, "Segoe UI", sans-serif' font-size="11" style="font-variant-numeric: tabular-nums" fill="#898781">650</text>
<text x="56" y="46" text-anchor="end" font-family='system-ui, -apple-system, "Segoe UI", sans-serif' font-size="10" fill="#898781">Ir (k)</text>
<line x1="64" y1="306" x2="730" y2="306" stroke="#383835" stroke-width="1"/>
<text x="64.0" y="322" text-anchor="middle" font-family='system-ui, -apple-system, "Segoe UI", sans-serif' font-size="11" style="font-variant-numeric: tabular-nums" fill="#898781">06-28</text>
<text x="124.5" y="322" text-anchor="middle" font-family='system-ui, -apple-system, "Segoe UI", sans-serif' font-size="11" style="font-variant-numeric: tabular-nums" fill="#898781">06-30</text>
<text x="175.0" y="322" text-anchor="middle" font-family='system-ui, -apple-system, "Segoe UI", sans-serif' font-size="11" style="font-variant-numeric: tabular-nums" fill="#898781">07-02</text>
<text x="286.0" y="322" text-anchor="middle" font-family='system-ui, -apple-system, "Segoe UI", sans-serif' font-size="11" style="font-variant-numeric: tabular-nums" fill="#898781">07-04</text>
<text x="447.5" y="322" text-anchor="middle" font-family='system-ui, -apple-system, "Segoe UI", sans-serif' font-size="11" style="font-variant-numeric: tabular-nums" fill="#898781">07-07</text>
<text x="548.4" y="322" text-anchor="middle" font-family='system-ui, -apple-system, "Segoe UI", sans-serif' font-size="11" style="font-variant-numeric: tabular-nums" fill="#898781">07-09</text>
<text x="629.1" y="322" text-anchor="middle" font-family='system-ui, -apple-system, "Segoe UI", sans-serif' font-size="11" style="font-variant-numeric: tabular-nums" fill="#898781">07-11</text>
<path d="M397.0,88.2 L407.1,91.5 L417.2,77.0 L427.3,77.0 L437.4,73.3 L447.5,73.3 L457.5,73.4 L467.6,73.4 L477.7,73.4 L487.8,73.4 L497.9,73.4 L508.0,73.4 L518.1,73.4 L528.2,73.4 L538.3,73.4 L548.4,73.4 L558.5,73.2 L568.5,84.8 L578.6,79.1 L588.7,79.1 L598.8,84.4 L608.9,128.1 L619.0,128.2 L629.1,129.8 L639.2,218.6 L649.3,218.6 L659.4,218.6 L669.5,218.6 L679.5,218.6 L689.6,218.6 L699.7,218.6 L709.8,218.6 L719.9,218.6 L730.0,218.6" fill="none" stroke="#3987e5" stroke-width="2" stroke-linejoin="round" stroke-linecap="round"/>
<circle cx="730.0" cy="218.6" r="6" fill="#1a1a19"/>
<circle cx="730.0" cy="218.6" r="4" fill="#3987e5"/>
<path d="M64.0,200.0 L74.1,200.0 L84.2,200.1 L94.3,200.1 L104.4,200.1 L114.5,205.3 L124.5,194.0 L134.6,151.6 L144.7,160.2 L154.8,153.8 L164.9,159.6 L175.0,159.5 L185.1,159.7 L195.2,159.4 L205.3,159.4 L215.4,159.4 L225.5,159.4 L235.5,159.4 L245.6,159.4 L255.7,159.4 L265.8,159.4 L275.9,158.9 L286.0,158.9 L296.1,158.9 L306.2,158.9 L316.3,158.9 L326.4,161.7 L336.5,151.6 L346.5,151.6 L356.6,151.6 L366.7,151.6 L376.8,151.6 L386.9,146.8 L397.0,152.6 L407.1,151.7 L417.2,124.7 L427.3,124.7 L437.4,134.3 L447.5,134.3 L457.5,134.4 L467.6,134.4 L477.7,134.4 L487.8,134.4 L497.9,134.4 L508.0,134.4 L518.1,134.4 L528.2,134.4 L538.3,134.4 L548.4,134.4 L558.5,134.4 L568.5,145.3 L578.6,139.5 L588.7,139.5 L598.8,149.2 L608.9,184.9 L619.0,185.5 L629.1,190.4 L639.2,288.8 L649.3,288.8 L659.4,288.8 L669.5,288.8 L679.5,288.8 L689.6,288.8 L699.7,288.8 L709.8,288.8 L719.9,288.8 L730.0,288.8" fill="none" stroke="#199e70" stroke-width="2" stroke-linejoin="round" stroke-linecap="round"/>
<circle cx="730.0" cy="288.8" r="6" fill="#1a1a19"/>
<circle cx="730.0" cy="288.8" r="4" fill="#199e70"/>
<circle cx="745.0" cy="215.1" r="3.5" fill="#3987e5"/>
<text x="753.0" y="218.6" font-family='system-ui, -apple-system, "Segoe UI", sans-serif' font-size="11" fill="#ffffff">overhead</text>
<text x="753.0" y="230.6" font-family='system-ui, -apple-system, "Segoe UI", sans-serif' font-size="10" style="font-variant-numeric: tabular-nums" fill="#c3c2b7">570k</text>
<circle cx="745.0" cy="285.3" r="3.5" fill="#199e70"/>
<text x="753.0" y="288.8" font-family='system-ui, -apple-system, "Segoe UI", sans-serif' font-size="11" fill="#ffffff">proxy (abs_f32_value)</text>
<text x="753.0" y="300.8" font-family='system-ui, -apple-system, "Segoe UI", sans-serif' font-size="10" style="font-variant-numeric: tabular-nums" fill="#c3c2b7">515k</text>
</svg>