<svg xmlns="http://www.w3.org/2000/svg" width="880" height="340" viewBox="0 0 880 340" role="img" aria-label="Per-node engine overhead">
<rect width="880" height="340" rx="6" fill="#fcfcfb"/>
<text x="64" y="24" font-family='system-ui, -apple-system, "Segoe UI", sans-serif' font-size="14" font-weight="600" fill="#0b0b0b">Per-node engine overhead</text>
<text x="64" y="41" font-family='system-ui, -apple-system, "Segoe UI", sans-serif' font-size="11" fill="#52514e">callgrind instructions of a case that is ~pure engine stepping cost, gated like any operator. Axis zoomed.</text>
<line x1="64" y1="268.7" x2="730" y2="268.7" stroke="#e1e0d9" stroke-width="1"/>
<text x="56" y="272.2" text-anchor="end" font-family='system-ui, -apple-system, "Segoe UI", sans-serif' font-size="11" style="font-variant-numeric: tabular-nums" fill="#898781">520</text>
<line x1="64" y1="190.4" x2="730" y2="190.4" stroke="#e1e0d9" stroke-width="1"/>
<text x="56" y="193.9" text-anchor="end" font-family='system-ui, -apple-system, "Segoe UI", sans-serif' font-size="11" style="font-variant-numeric: tabular-nums" fill="#898781">540</text>
<line x1="64" y1="112.0" x2="730" y2="112.0" stroke="#e1e0d9" stroke-width="1"/>
<text x="56" y="115.5" text-anchor="end" font-family='system-ui, -apple-system, "Segoe UI", sans-serif' font-size="11" style="font-variant-numeric: tabular-nums" fill="#898781">560</text>
<text x="56" y="46" text-anchor="end" font-family='system-ui, -apple-system, "Segoe UI", sans-serif' font-size="10" fill="#898781">Ir (k)</text>
<line x1="64" y1="306" x2="730" y2="306" stroke="#c3c2b7" stroke-width="1"/>
<text x="64.0" y="322" text-anchor="middle" font-family='system-ui, -apple-system, "Segoe UI", sans-serif' font-size="11" style="font-variant-numeric: tabular-nums" fill="#898781">07-12</text>
<text x="201.8" y="322" text-anchor="middle" font-family='system-ui, -apple-system, "Segoe UI", sans-serif' font-size="11" style="font-variant-numeric: tabular-nums" fill="#898781">07-13</text>
<text x="224.8" y="322" text-anchor="middle" font-family='system-ui, -apple-system, "Segoe UI", sans-serif' font-size="11" style="font-variant-numeric: tabular-nums" fill="#898781">07-14</text>
<text x="247.7" y="322" text-anchor="middle" font-family='system-ui, -apple-system, "Segoe UI", sans-serif' font-size="11" style="font-variant-numeric: tabular-nums" fill="#898781">07-16</text>
<text x="431.4" y="322" text-anchor="middle" font-family='system-ui, -apple-system, "Segoe UI", sans-serif' font-size="11" style="font-variant-numeric: tabular-nums" fill="#898781">07-17</text>
<text x="569.2" y="322" text-anchor="middle" font-family='system-ui, -apple-system, "Segoe UI", sans-serif' font-size="11" style="font-variant-numeric: tabular-nums" fill="#898781">07-18</text>
<text x="707.0" y="322" text-anchor="middle" font-family='system-ui, -apple-system, "Segoe UI", sans-serif' font-size="11" style="font-variant-numeric: tabular-nums" fill="#898781">07-19</text>
<path d="M64.0,73.2 L87.0,73.2 L109.9,73.2 L132.9,73.2 L155.9,73.2 L178.8,73.2 L201.8,73.2 L224.8,73.2 L247.7,73.2 L270.7,73.2 L293.7,73.2 L316.6,73.2 L339.6,73.2 L362.6,73.2 L385.5,73.2 L408.5,73.2 L431.4,73.2 L454.4,73.2 L477.4,73.2 L500.3,73.2 L523.3,73.2 L546.3,73.2 L569.2,73.2 L592.2,73.2 L615.2,73.2 L638.1,73.2 L661.1,73.2 L684.1,73.2 L707.0,73.2 L730.0,73.2" fill="none" stroke="#2a78d6" stroke-width="2" stroke-linejoin="round" stroke-linecap="round"/>
<circle cx="730.0" cy="73.2" r="6" fill="#fcfcfb"/>
<circle cx="730.0" cy="73.2" r="4" fill="#2a78d6"/>
<path d="M64.0,288.8 L87.0,288.8 L109.9,288.8 L132.9,288.8 L155.9,288.8 L178.8,288.8 L201.8,288.8 L224.8,288.8 L247.7,288.8 L270.7,288.8 L293.7,288.8 L316.6,288.8 L339.6,288.8 L362.6,288.8 L385.5,288.8 L408.5,288.8 L431.4,288.8 L454.4,288.8 L477.4,288.8 L500.3,288.8 L523.3,288.8 L546.3,288.8 L569.2,288.8 L592.2,288.8 L615.2,288.8 L638.1,288.8 L661.1,288.8 L684.1,288.8 L707.0,288.8 L730.0,288.8" fill="none" stroke="#1baf7a" stroke-width="2" stroke-linejoin="round" stroke-linecap="round"/>
<circle cx="730.0" cy="288.8" r="6" fill="#fcfcfb"/>
<circle cx="730.0" cy="288.8" r="4" fill="#1baf7a"/>
<circle cx="745.0" cy="69.7" r="3.5" fill="#2a78d6"/>
<text x="753.0" y="73.2" font-family='system-ui, -apple-system, "Segoe UI", sans-serif' font-size="11" fill="#0b0b0b">overhead</text>
<text x="753.0" y="85.2" font-family='system-ui, -apple-system, "Segoe UI", sans-serif' font-size="10" style="font-variant-numeric: tabular-nums" fill="#52514e">570k</text>
<circle cx="745.0" cy="285.3" r="3.5" fill="#1baf7a"/>
<text x="753.0" y="288.8" font-family='system-ui, -apple-system, "Segoe UI", sans-serif' font-size="11" fill="#0b0b0b">proxy (abs_f32_value)</text>
<text x="753.0" y="300.8" font-family='system-ui, -apple-system, "Segoe UI", sans-serif' font-size="10" style="font-variant-numeric: tabular-nums" fill="#52514e">515k</text>
</svg>