<svg xmlns="http://www.w3.org/2000/svg" width="880" height="340" viewBox="0 0 880 340" role="img" aria-label="Per-node engine overhead">
<rect width="880" height="340" rx="6" fill="#fcfcfb"/>
<text x="64" y="24" font-family='system-ui, -apple-system, "Segoe UI", sans-serif' font-size="14" font-weight="600" fill="#0b0b0b">Per-node engine overhead</text>
<text x="64" y="41" font-family='system-ui, -apple-system, "Segoe UI", sans-serif' font-size="11" fill="#52514e">callgrind instructions of a case that is ~pure engine stepping cost, gated like any operator. Axis zoomed.</text>
<line x1="64" y1="262.2" x2="730" y2="262.2" stroke="#e1e0d9" stroke-width="1"/>
<text x="56" y="265.7" text-anchor="end" font-family='system-ui, -apple-system, "Segoe UI", sans-serif' font-size="11" style="font-variant-numeric: tabular-nums" fill="#898781">520</text>
<line x1="64" y1="186.5" x2="730" y2="186.5" stroke="#e1e0d9" stroke-width="1"/>
<text x="56" y="190.0" text-anchor="end" font-family='system-ui, -apple-system, "Segoe UI", sans-serif' font-size="11" style="font-variant-numeric: tabular-nums" fill="#898781">540</text>
<line x1="64" y1="110.7" x2="730" y2="110.7" stroke="#e1e0d9" stroke-width="1"/>
<text x="56" y="114.2" text-anchor="end" font-family='system-ui, -apple-system, "Segoe UI", sans-serif' font-size="11" style="font-variant-numeric: tabular-nums" fill="#898781">560</text>
<text x="56" y="46" text-anchor="end" font-family='system-ui, -apple-system, "Segoe UI", sans-serif' font-size="10" fill="#898781">Ir (k)</text>
<line x1="64" y1="306" x2="730" y2="306" stroke="#c3c2b7" stroke-width="1"/>
<text x="64.0" y="322" text-anchor="middle" font-family='system-ui, -apple-system, "Segoe UI", sans-serif' font-size="11" style="font-variant-numeric: tabular-nums" fill="#898781">07-12</text>
<text x="140.4" y="322" text-anchor="middle" font-family='system-ui, -apple-system, "Segoe UI", sans-serif' font-size="11" style="font-variant-numeric: tabular-nums" fill="#898781">07-14</text>
<text x="238.7" y="322" text-anchor="middle" font-family='system-ui, -apple-system, "Segoe UI", sans-serif' font-size="11" style="font-variant-numeric: tabular-nums" fill="#898781">07-17</text>
<text x="369.7" y="322" text-anchor="middle" font-family='system-ui, -apple-system, "Segoe UI", sans-serif' font-size="11" style="font-variant-numeric: tabular-nums" fill="#898781">07-19</text>
<text x="566.2" y="322" text-anchor="middle" font-family='system-ui, -apple-system, "Segoe UI", sans-serif' font-size="11" style="font-variant-numeric: tabular-nums" fill="#898781">07-21</text>
<path d="M64.0,73.2 L74.9,73.2 L85.8,73.2 L96.8,73.2 L107.7,73.2 L118.6,73.2 L129.5,73.2 L140.4,73.2 L151.3,73.2 L162.3,73.2 L173.2,73.2 L184.1,73.2 L195.0,73.2 L205.9,73.2 L216.9,73.2 L227.8,73.2 L238.7,73.2 L249.6,73.2 L260.5,73.2 L271.4,73.2 L282.4,73.2 L293.3,73.2 L304.2,73.2 L315.1,73.2 L326.0,73.2 L337.0,73.2 L347.9,73.2 L358.8,73.2 L369.7,73.2 L380.6,73.2 L391.5,81.2 L402.5,81.2 L413.4,81.2 L424.3,91.2 L435.2,91.2 L446.1,91.2 L457.0,91.2 L468.0,91.2 L478.9,91.2 L489.8,91.3 L500.7,91.3 L511.6,80.9 L522.6,80.9 L533.5,80.9 L544.4,80.9 L555.3,80.9 L566.2,80.9 L577.1,80.9 L588.1,80.9 L599.0,80.9 L609.9,80.9 L620.8,90.0 L631.7,90.0 L642.7,90.0 L653.6,90.0 L664.5,90.2 L675.4,95.4 L686.3,95.4 L697.2,95.4 L708.2,95.4 L719.1,95.4 L730.0,95.4" fill="none" stroke="#2a78d6" stroke-width="2" stroke-linejoin="round" stroke-linecap="round"/>
<circle cx="730.0" cy="95.4" r="6" fill="#fcfcfb"/>
<circle cx="730.0" cy="95.4" r="4" fill="#2a78d6"/>
<path d="M64.0,281.6 L74.9,281.6 L85.8,281.6 L96.8,281.6 L107.7,281.6 L118.6,281.6 L129.5,281.6 L140.4,281.6 L151.3,281.6 L162.3,281.6 L173.2,281.6 L184.1,281.6 L195.0,281.6 L205.9,281.6 L216.9,281.6 L227.8,281.6 L238.7,281.6 L249.6,281.6 L260.5,281.6 L271.4,281.6 L282.4,281.6 L293.3,281.6 L304.2,281.6 L315.1,281.6 L326.0,281.6 L337.0,281.6 L347.9,281.6 L358.8,281.6 L369.7,281.6 L380.6,281.6 L391.5,280.2 L402.5,280.2 L413.4,280.2 L424.3,288.8 L435.2,288.8 L446.1,288.8 L457.0,288.8 L468.0,288.8 L478.9,288.8 L489.8,288.5 L500.7,288.5 L511.6,288.0 L522.6,288.0 L533.5,288.0 L544.4,288.0 L555.3,288.0 L566.2,288.0 L577.1,288.0 L588.1,288.0 L599.0,288.0 L609.9,288.0 L620.8,287.1 L631.7,287.1 L642.7,287.1 L653.6,287.1 L664.5,257.8 L675.4,263.2 L686.3,263.2 L697.2,263.2 L708.2,263.2 L719.1,263.2 L730.0,263.2" fill="none" stroke="#1baf7a" stroke-width="2" stroke-linejoin="round" stroke-linecap="round"/>
<circle cx="730.0" cy="263.2" r="6" fill="#fcfcfb"/>
<circle cx="730.0" cy="263.2" r="4" fill="#1baf7a"/>
<circle cx="745.0" cy="91.9" r="3.5" fill="#2a78d6"/>
<text x="753.0" y="95.4" font-family='system-ui, -apple-system, "Segoe UI", sans-serif' font-size="11" fill="#0b0b0b">overhead</text>
<text x="753.0" y="107.4" font-family='system-ui, -apple-system, "Segoe UI", sans-serif' font-size="10" style="font-variant-numeric: tabular-nums" fill="#52514e">564k</text>
<circle cx="745.0" cy="259.7" r="3.5" fill="#1baf7a"/>
<text x="753.0" y="263.2" font-family='system-ui, -apple-system, "Segoe UI", sans-serif' font-size="11" fill="#0b0b0b">proxy (abs_f32_value)</text>
<text x="753.0" y="275.2" font-family='system-ui, -apple-system, "Segoe UI", sans-serif' font-size="10" style="font-variant-numeric: tabular-nums" fill="#52514e">520k</text>
</svg>