<svg xmlns="http://www.w3.org/2000/svg" width="880" height="340" viewBox="0 0 880 340" role="img" aria-label="Per-node engine overhead">
<rect width="880" height="340" rx="6" fill="#1a1a19"/>
<text x="64" y="24" font-family='system-ui, -apple-system, "Segoe UI", sans-serif' font-size="14" font-weight="600" fill="#ffffff">Per-node engine overhead</text>
<text x="64" y="41" font-family='system-ui, -apple-system, "Segoe UI", sans-serif' font-size="11" fill="#c3c2b7">callgrind instructions of a case that is ~pure engine stepping cost, gated like any operator. Axis zoomed.</text>
<line x1="64" y1="262.2" x2="730" y2="262.2" stroke="#2c2c2a" stroke-width="1"/>
<text x="56" y="265.7" text-anchor="end" font-family='system-ui, -apple-system, "Segoe UI", sans-serif' font-size="11" style="font-variant-numeric: tabular-nums" fill="#898781">520</text>
<line x1="64" y1="186.5" x2="730" y2="186.5" stroke="#2c2c2a" stroke-width="1"/>
<text x="56" y="190.0" text-anchor="end" font-family='system-ui, -apple-system, "Segoe UI", sans-serif' font-size="11" style="font-variant-numeric: tabular-nums" fill="#898781">540</text>
<line x1="64" y1="110.7" x2="730" y2="110.7" stroke="#2c2c2a" stroke-width="1"/>
<text x="56" y="114.2" text-anchor="end" font-family='system-ui, -apple-system, "Segoe UI", sans-serif' font-size="11" style="font-variant-numeric: tabular-nums" fill="#898781">560</text>
<text x="56" y="46" text-anchor="end" font-family='system-ui, -apple-system, "Segoe UI", sans-serif' font-size="10" fill="#898781">Ir (k)</text>
<line x1="64" y1="306" x2="730" y2="306" stroke="#383835" stroke-width="1"/>
<text x="64.0" y="322" text-anchor="middle" font-family='system-ui, -apple-system, "Segoe UI", sans-serif' font-size="11" style="font-variant-numeric: tabular-nums" fill="#898781">07-12</text>
<text x="153.7" y="322" text-anchor="middle" font-family='system-ui, -apple-system, "Segoe UI", sans-serif' font-size="11" style="font-variant-numeric: tabular-nums" fill="#898781">07-14</text>
<text x="268.9" y="322" text-anchor="middle" font-family='system-ui, -apple-system, "Segoe UI", sans-serif' font-size="11" style="font-variant-numeric: tabular-nums" fill="#898781">07-17</text>
<text x="422.6" y="322" text-anchor="middle" font-family='system-ui, -apple-system, "Segoe UI", sans-serif' font-size="11" style="font-variant-numeric: tabular-nums" fill="#898781">07-19</text>
<text x="653.2" y="322" text-anchor="middle" font-family='system-ui, -apple-system, "Segoe UI", sans-serif' font-size="11" style="font-variant-numeric: tabular-nums" fill="#898781">07-21</text>
<path d="M64.0,73.2 L76.8,73.2 L89.6,73.2 L102.4,73.2 L115.2,73.2 L128.0,73.2 L140.8,73.2 L153.7,73.2 L166.5,73.2 L179.3,73.2 L192.1,73.2 L204.9,73.2 L217.7,73.2 L230.5,73.2 L243.3,73.2 L256.1,73.2 L268.9,73.2 L281.7,73.2 L294.5,73.2 L307.3,73.2 L320.2,73.2 L333.0,73.2 L345.8,73.2 L358.6,73.2 L371.4,73.2 L384.2,73.2 L397.0,73.2 L409.8,73.2 L422.6,73.2 L435.4,73.2 L448.2,81.2 L461.0,81.2 L473.8,81.2 L486.7,91.2 L499.5,91.2 L512.3,91.2 L525.1,91.2 L537.9,91.2 L550.7,91.2 L563.5,91.3 L576.3,91.3 L589.1,80.9 L601.9,80.9 L614.7,80.9 L627.5,80.9 L640.3,80.9 L653.2,80.9 L666.0,80.9 L678.8,80.9 L691.6,80.9 L704.4,80.9 L717.2,90.0 L730.0,90.0" fill="none" stroke="#3987e5" stroke-width="2" stroke-linejoin="round" stroke-linecap="round"/>
<circle cx="730.0" cy="90.0" r="6" fill="#1a1a19"/>
<circle cx="730.0" cy="90.0" r="4" fill="#3987e5"/>
<path d="M64.0,281.6 L76.8,281.6 L89.6,281.6 L102.4,281.6 L115.2,281.6 L128.0,281.6 L140.8,281.6 L153.7,281.6 L166.5,281.6 L179.3,281.6 L192.1,281.6 L204.9,281.6 L217.7,281.6 L230.5,281.6 L243.3,281.6 L256.1,281.6 L268.9,281.6 L281.7,281.6 L294.5,281.6 L307.3,281.6 L320.2,281.6 L333.0,281.6 L345.8,281.6 L358.6,281.6 L371.4,281.6 L384.2,281.6 L397.0,281.6 L409.8,281.6 L422.6,281.6 L435.4,281.6 L448.2,280.2 L461.0,280.2 L473.8,280.2 L486.7,288.8 L499.5,288.8 L512.3,288.8 L525.1,288.8 L537.9,288.8 L550.7,288.8 L563.5,288.5 L576.3,288.5 L589.1,288.0 L601.9,288.0 L614.7,288.0 L627.5,288.0 L640.3,288.0 L653.2,288.0 L666.0,288.0 L678.8,288.0 L691.6,288.0 L704.4,288.0 L717.2,287.1 L730.0,287.1" fill="none" stroke="#199e70" stroke-width="2" stroke-linejoin="round" stroke-linecap="round"/>
<circle cx="730.0" cy="287.1" r="6" fill="#1a1a19"/>
<circle cx="730.0" cy="287.1" r="4" fill="#199e70"/>
<circle cx="745.0" cy="86.5" r="3.5" fill="#3987e5"/>
<text x="753.0" y="90.0" font-family='system-ui, -apple-system, "Segoe UI", sans-serif' font-size="11" fill="#ffffff">overhead</text>
<text x="753.0" y="102.0" font-family='system-ui, -apple-system, "Segoe UI", sans-serif' font-size="10" style="font-variant-numeric: tabular-nums" fill="#c3c2b7">565k</text>
<circle cx="745.0" cy="283.6" r="3.5" fill="#199e70"/>
<text x="753.0" y="287.1" font-family='system-ui, -apple-system, "Segoe UI", sans-serif' font-size="11" fill="#ffffff">proxy (abs_f32_value)</text>
<text x="753.0" y="299.1" font-family='system-ui, -apple-system, "Segoe UI", sans-serif' font-size="10" style="font-variant-numeric: tabular-nums" fill="#c3c2b7">513k</text>
</svg>