<svg xmlns="http://www.w3.org/2000/svg" width="880" height="340" viewBox="0 0 880 340" role="img" aria-label="Per-node engine overhead">
<rect width="880" height="340" rx="6" fill="#fcfcfb"/>
<text x="64" y="24" font-family='system-ui, -apple-system, "Segoe UI", sans-serif' font-size="14" font-weight="600" fill="#0b0b0b">Per-node engine overhead</text>
<text x="64" y="41" font-family='system-ui, -apple-system, "Segoe UI", sans-serif' font-size="11" fill="#52514e">callgrind instructions of a case that is ~pure engine stepping cost, gated like any operator. Axis zoomed.</text>
<line x1="64" y1="262.2" x2="730" y2="262.2" stroke="#e1e0d9" stroke-width="1"/>
<text x="56" y="265.7" text-anchor="end" font-family='system-ui, -apple-system, "Segoe UI", sans-serif' font-size="11" style="font-variant-numeric: tabular-nums" fill="#898781">520</text>
<line x1="64" y1="186.5" x2="730" y2="186.5" stroke="#e1e0d9" stroke-width="1"/>
<text x="56" y="190.0" text-anchor="end" font-family='system-ui, -apple-system, "Segoe UI", sans-serif' font-size="11" style="font-variant-numeric: tabular-nums" fill="#898781">540</text>
<line x1="64" y1="110.7" x2="730" y2="110.7" stroke="#e1e0d9" stroke-width="1"/>
<text x="56" y="114.2" text-anchor="end" font-family='system-ui, -apple-system, "Segoe UI", sans-serif' font-size="11" style="font-variant-numeric: tabular-nums" fill="#898781">560</text>
<text x="56" y="46" text-anchor="end" font-family='system-ui, -apple-system, "Segoe UI", sans-serif' font-size="10" fill="#898781">Ir (k)</text>
<line x1="64" y1="306" x2="730" y2="306" stroke="#c3c2b7" stroke-width="1"/>
<text x="64.0" y="322" text-anchor="middle" font-family='system-ui, -apple-system, "Segoe UI", sans-serif' font-size="11" style="font-variant-numeric: tabular-nums" fill="#898781">07-12</text>
<text x="143.0" y="322" text-anchor="middle" font-family='system-ui, -apple-system, "Segoe UI", sans-serif' font-size="11" style="font-variant-numeric: tabular-nums" fill="#898781">07-14</text>
<text x="244.6" y="322" text-anchor="middle" font-family='system-ui, -apple-system, "Segoe UI", sans-serif' font-size="11" style="font-variant-numeric: tabular-nums" fill="#898781">07-17</text>
<text x="380.1" y="322" text-anchor="middle" font-family='system-ui, -apple-system, "Segoe UI", sans-serif' font-size="11" style="font-variant-numeric: tabular-nums" fill="#898781">07-19</text>
<text x="583.3" y="322" text-anchor="middle" font-family='system-ui, -apple-system, "Segoe UI", sans-serif' font-size="11" style="font-variant-numeric: tabular-nums" fill="#898781">07-21</text>
<path d="M64.0,73.2 L75.3,73.2 L86.6,73.2 L97.9,73.2 L109.2,73.2 L120.4,73.2 L131.7,73.2 L143.0,73.2 L154.3,73.2 L165.6,73.2 L176.9,73.2 L188.2,73.2 L199.5,73.2 L210.7,73.2 L222.0,73.2 L233.3,73.2 L244.6,73.2 L255.9,73.2 L267.2,73.2 L278.5,73.2 L289.8,73.2 L301.1,73.2 L312.3,73.2 L323.6,73.2 L334.9,73.2 L346.2,73.2 L357.5,73.2 L368.8,73.2 L380.1,73.2 L391.4,73.2 L402.6,81.2 L413.9,81.2 L425.2,81.2 L436.5,91.2 L447.8,91.2 L459.1,91.2 L470.4,91.2 L481.7,91.2 L492.9,91.2 L504.2,91.3 L515.5,91.3 L526.8,80.9 L538.1,80.9 L549.4,80.9 L560.7,80.9 L572.0,80.9 L583.3,80.9 L594.5,80.9 L605.8,80.9 L617.1,80.9 L628.4,80.9 L639.7,90.0 L651.0,90.0 L662.3,90.0 L673.6,90.0 L684.8,90.2 L696.1,95.4 L707.4,95.4 L718.7,95.4 L730.0,95.4" fill="none" stroke="#2a78d6" stroke-width="2" stroke-linejoin="round" stroke-linecap="round"/>
<circle cx="730.0" cy="95.4" r="6" fill="#fcfcfb"/>
<circle cx="730.0" cy="95.4" r="4" fill="#2a78d6"/>
<path d="M64.0,281.6 L75.3,281.6 L86.6,281.6 L97.9,281.6 L109.2,281.6 L120.4,281.6 L131.7,281.6 L143.0,281.6 L154.3,281.6 L165.6,281.6 L176.9,281.6 L188.2,281.6 L199.5,281.6 L210.7,281.6 L222.0,281.6 L233.3,281.6 L244.6,281.6 L255.9,281.6 L267.2,281.6 L278.5,281.6 L289.8,281.6 L301.1,281.6 L312.3,281.6 L323.6,281.6 L334.9,281.6 L346.2,281.6 L357.5,281.6 L368.8,281.6 L380.1,281.6 L391.4,281.6 L402.6,280.2 L413.9,280.2 L425.2,280.2 L436.5,288.8 L447.8,288.8 L459.1,288.8 L470.4,288.8 L481.7,288.8 L492.9,288.8 L504.2,288.5 L515.5,288.5 L526.8,288.0 L538.1,288.0 L549.4,288.0 L560.7,288.0 L572.0,288.0 L583.3,288.0 L594.5,288.0 L605.8,288.0 L617.1,288.0 L628.4,288.0 L639.7,287.1 L651.0,287.1 L662.3,287.1 L673.6,287.1 L684.8,257.8 L696.1,263.2 L707.4,263.2 L718.7,263.2 L730.0,263.2" fill="none" stroke="#1baf7a" stroke-width="2" stroke-linejoin="round" stroke-linecap="round"/>
<circle cx="730.0" cy="263.2" r="6" fill="#fcfcfb"/>
<circle cx="730.0" cy="263.2" r="4" fill="#1baf7a"/>
<circle cx="745.0" cy="91.9" r="3.5" fill="#2a78d6"/>
<text x="753.0" y="95.4" font-family='system-ui, -apple-system, "Segoe UI", sans-serif' font-size="11" fill="#0b0b0b">overhead</text>
<text x="753.0" y="107.4" font-family='system-ui, -apple-system, "Segoe UI", sans-serif' font-size="10" style="font-variant-numeric: tabular-nums" fill="#52514e">564k</text>
<circle cx="745.0" cy="259.7" r="3.5" fill="#1baf7a"/>
<text x="753.0" y="263.2" font-family='system-ui, -apple-system, "Segoe UI", sans-serif' font-size="11" fill="#0b0b0b">proxy (abs_f32_value)</text>
<text x="753.0" y="275.2" font-family='system-ui, -apple-system, "Segoe UI", sans-serif' font-size="10" style="font-variant-numeric: tabular-nums" fill="#52514e">520k</text>
</svg>