<svg xmlns="http://www.w3.org/2000/svg" width="880" height="340" viewBox="0 0 880 340" role="img" aria-label="Per-node engine overhead">
<rect width="880" height="340" rx="6" fill="#1a1a19"/>
<text x="64" y="24" font-family='system-ui, -apple-system, "Segoe UI", sans-serif' font-size="14" font-weight="600" fill="#ffffff">Per-node engine overhead</text>
<text x="64" y="41" font-family='system-ui, -apple-system, "Segoe UI", sans-serif' font-size="11" fill="#c3c2b7">callgrind instructions of a case that is ~pure engine stepping cost, gated like any operator. Axis zoomed.</text>
<line x1="64" y1="262.2" x2="730" y2="262.2" stroke="#2c2c2a" stroke-width="1"/>
<text x="56" y="265.7" text-anchor="end" font-family='system-ui, -apple-system, "Segoe UI", sans-serif' font-size="11" style="font-variant-numeric: tabular-nums" fill="#898781">520</text>
<line x1="64" y1="186.5" x2="730" y2="186.5" stroke="#2c2c2a" stroke-width="1"/>
<text x="56" y="190.0" text-anchor="end" font-family='system-ui, -apple-system, "Segoe UI", sans-serif' font-size="11" style="font-variant-numeric: tabular-nums" fill="#898781">540</text>
<line x1="64" y1="110.7" x2="730" y2="110.7" stroke="#2c2c2a" stroke-width="1"/>
<text x="56" y="114.2" text-anchor="end" font-family='system-ui, -apple-system, "Segoe UI", sans-serif' font-size="11" style="font-variant-numeric: tabular-nums" fill="#898781">560</text>
<text x="56" y="46" text-anchor="end" font-family='system-ui, -apple-system, "Segoe UI", sans-serif' font-size="10" fill="#898781">Ir (k)</text>
<line x1="64" y1="306" x2="730" y2="306" stroke="#383835" stroke-width="1"/>
<text x="64.0" y="322" text-anchor="middle" font-family='system-ui, -apple-system, "Segoe UI", sans-serif' font-size="11" style="font-variant-numeric: tabular-nums" fill="#898781">07-12</text>
<text x="178.2" y="322" text-anchor="middle" font-family='system-ui, -apple-system, "Segoe UI", sans-serif' font-size="11" style="font-variant-numeric: tabular-nums" fill="#898781">07-13</text>
<text x="197.2" y="322" text-anchor="middle" font-family='system-ui, -apple-system, "Segoe UI", sans-serif' font-size="11" style="font-variant-numeric: tabular-nums" fill="#898781">07-14</text>
<text x="216.2" y="322" text-anchor="middle" font-family='system-ui, -apple-system, "Segoe UI", sans-serif' font-size="11" style="font-variant-numeric: tabular-nums" fill="#898781">07-16</text>
<text x="368.5" y="322" text-anchor="middle" font-family='system-ui, -apple-system, "Segoe UI", sans-serif' font-size="11" style="font-variant-numeric: tabular-nums" fill="#898781">07-17</text>
<text x="482.6" y="322" text-anchor="middle" font-family='system-ui, -apple-system, "Segoe UI", sans-serif' font-size="11" style="font-variant-numeric: tabular-nums" fill="#898781">07-18</text>
<text x="596.8" y="322" text-anchor="middle" font-family='system-ui, -apple-system, "Segoe UI", sans-serif' font-size="11" style="font-variant-numeric: tabular-nums" fill="#898781">07-19</text>
<text x="653.9" y="322" text-anchor="middle" font-family='system-ui, -apple-system, "Segoe UI", sans-serif' font-size="11" style="font-variant-numeric: tabular-nums" fill="#898781">07-20</text>
<path d="M64.0,73.2 L83.0,73.2 L102.1,73.2 L121.1,73.2 L140.1,73.2 L159.1,73.2 L178.2,73.2 L197.2,73.2 L216.2,73.2 L235.3,73.2 L254.3,73.2 L273.3,73.2 L292.3,73.2 L311.4,73.2 L330.4,73.2 L349.4,73.2 L368.5,73.2 L387.5,73.2 L406.5,73.2 L425.5,73.2 L444.6,73.2 L463.6,73.2 L482.6,73.2 L501.7,73.2 L520.7,73.2 L539.7,73.2 L558.7,73.2 L577.8,73.2 L596.8,73.2 L615.8,73.2 L634.9,81.2 L653.9,81.2 L672.9,81.2 L691.9,91.2 L711.0,91.2 L730.0,91.2" fill="none" stroke="#3987e5" stroke-width="2" stroke-linejoin="round" stroke-linecap="round"/>
<circle cx="730.0" cy="91.2" r="6" fill="#1a1a19"/>
<circle cx="730.0" cy="91.2" r="4" fill="#3987e5"/>
<path d="M64.0,281.6 L83.0,281.6 L102.1,281.6 L121.1,281.6 L140.1,281.6 L159.1,281.6 L178.2,281.6 L197.2,281.6 L216.2,281.6 L235.3,281.6 L254.3,281.6 L273.3,281.6 L292.3,281.6 L311.4,281.6 L330.4,281.6 L349.4,281.6 L368.5,281.6 L387.5,281.6 L406.5,281.6 L425.5,281.6 L444.6,281.6 L463.6,281.6 L482.6,281.6 L501.7,281.6 L520.7,281.6 L539.7,281.6 L558.7,281.6 L577.8,281.6 L596.8,281.6 L615.8,281.6 L634.9,280.2 L653.9,280.2 L672.9,280.2 L691.9,288.8 L711.0,288.8 L730.0,288.8" fill="none" stroke="#199e70" stroke-width="2" stroke-linejoin="round" stroke-linecap="round"/>
<circle cx="730.0" cy="288.8" r="6" fill="#1a1a19"/>
<circle cx="730.0" cy="288.8" r="4" fill="#199e70"/>
<circle cx="745.0" cy="87.7" r="3.5" fill="#3987e5"/>
<text x="753.0" y="91.2" font-family='system-ui, -apple-system, "Segoe UI", sans-serif' font-size="11" fill="#ffffff">overhead</text>
<text x="753.0" y="103.2" font-family='system-ui, -apple-system, "Segoe UI", sans-serif' font-size="10" style="font-variant-numeric: tabular-nums" fill="#c3c2b7">565k</text>
<circle cx="745.0" cy="285.3" r="3.5" fill="#199e70"/>
<text x="753.0" y="288.8" font-family='system-ui, -apple-system, "Segoe UI", sans-serif' font-size="11" fill="#ffffff">proxy (abs_f32_value)</text>
<text x="753.0" y="300.8" font-family='system-ui, -apple-system, "Segoe UI", sans-serif' font-size="10" style="font-variant-numeric: tabular-nums" fill="#c3c2b7">513k</text>
</svg>