<svg xmlns="http://www.w3.org/2000/svg" width="880" height="340" viewBox="0 0 880 340" role="img" aria-label="Per-node engine overhead">
<rect width="880" height="340" rx="6" fill="#1a1a19"/>
<text x="64" y="24" font-family='system-ui, -apple-system, "Segoe UI", sans-serif' font-size="14" font-weight="600" fill="#ffffff">Per-node engine overhead</text>
<text x="64" y="41" font-family='system-ui, -apple-system, "Segoe UI", sans-serif' font-size="11" fill="#c3c2b7">callgrind instructions of a case that is ~pure engine stepping cost, gated like any operator. Axis zoomed.</text>
<line x1="64" y1="243.9" x2="730" y2="243.9" stroke="#2c2c2a" stroke-width="1"/>
<text x="56" y="247.4" text-anchor="end" font-family='system-ui, -apple-system, "Segoe UI", sans-serif' font-size="11" style="font-variant-numeric: tabular-nums" fill="#898781">550</text>
<line x1="64" y1="180.1" x2="730" y2="180.1" stroke="#2c2c2a" stroke-width="1"/>
<text x="56" y="183.6" text-anchor="end" font-family='system-ui, -apple-system, "Segoe UI", sans-serif' font-size="11" style="font-variant-numeric: tabular-nums" fill="#898781">600</text>
<line x1="64" y1="116.3" x2="730" y2="116.3" stroke="#2c2c2a" stroke-width="1"/>
<text x="56" y="119.8" text-anchor="end" font-family='system-ui, -apple-system, "Segoe UI", sans-serif' font-size="11" style="font-variant-numeric: tabular-nums" fill="#898781">650</text>
<text x="56" y="46" text-anchor="end" font-family='system-ui, -apple-system, "Segoe UI", sans-serif' font-size="10" fill="#898781">Ir (k)</text>
<line x1="64" y1="306" x2="730" y2="306" stroke="#383835" stroke-width="1"/>
<text x="64.0" y="322" text-anchor="middle" font-family='system-ui, -apple-system, "Segoe UI", sans-serif' font-size="11" style="font-variant-numeric: tabular-nums" fill="#898781">06-28</text>
<text x="121.9" y="322" text-anchor="middle" font-family='system-ui, -apple-system, "Segoe UI", sans-serif' font-size="11" style="font-variant-numeric: tabular-nums" fill="#898781">06-30</text>
<text x="170.2" y="322" text-anchor="middle" font-family='system-ui, -apple-system, "Segoe UI", sans-serif' font-size="11" style="font-variant-numeric: tabular-nums" fill="#898781">07-02</text>
<text x="276.3" y="322" text-anchor="middle" font-family='system-ui, -apple-system, "Segoe UI", sans-serif' font-size="11" style="font-variant-numeric: tabular-nums" fill="#898781">07-04</text>
<text x="430.8" y="322" text-anchor="middle" font-family='system-ui, -apple-system, "Segoe UI", sans-serif' font-size="11" style="font-variant-numeric: tabular-nums" fill="#898781">07-07</text>
<text x="527.3" y="322" text-anchor="middle" font-family='system-ui, -apple-system, "Segoe UI", sans-serif' font-size="11" style="font-variant-numeric: tabular-nums" fill="#898781">07-09</text>
<text x="604.5" y="322" text-anchor="middle" font-family='system-ui, -apple-system, "Segoe UI", sans-serif' font-size="11" style="font-variant-numeric: tabular-nums" fill="#898781">07-11</text>
<path d="M382.5,88.2 L392.2,91.5 L401.8,77.0 L411.5,77.0 L421.1,73.3 L430.8,73.3 L440.4,73.4 L450.1,73.4 L459.7,73.4 L469.4,73.4 L479.0,73.4 L488.7,73.4 L498.3,73.4 L508.0,73.4 L517.7,73.4 L527.3,73.4 L537.0,73.2 L546.6,84.8 L556.3,79.1 L565.9,79.1 L575.6,84.4 L585.2,128.1 L594.9,128.2 L604.5,129.8 L614.2,218.6 L623.8,218.6 L633.5,218.6 L643.1,218.6 L652.8,218.6 L662.4,218.6 L672.1,218.6 L681.7,218.6 L691.4,218.6 L701.0,218.6 L710.7,218.6 L720.3,218.6 L730.0,218.6" fill="none" stroke="#3987e5" stroke-width="2" stroke-linejoin="round" stroke-linecap="round"/>
<circle cx="730.0" cy="218.6" r="6" fill="#1a1a19"/>
<circle cx="730.0" cy="218.6" r="4" fill="#3987e5"/>
<path d="M64.0,200.0 L73.7,200.0 L83.3,200.1 L93.0,200.1 L102.6,200.1 L112.3,205.3 L121.9,194.0 L131.6,151.6 L141.2,160.2 L150.9,153.8 L160.5,159.6 L170.2,159.5 L179.8,159.7 L189.5,159.4 L199.1,159.4 L208.8,159.4 L218.4,159.4 L228.1,159.4 L237.7,159.4 L247.4,159.4 L257.0,159.4 L266.7,158.9 L276.3,158.9 L286.0,158.9 L295.7,158.9 L305.3,158.9 L315.0,161.7 L324.6,151.6 L334.3,151.6 L343.9,151.6 L353.6,151.6 L363.2,151.6 L372.9,146.8 L382.5,152.6 L392.2,151.7 L401.8,124.7 L411.5,124.7 L421.1,134.3 L430.8,134.3 L440.4,134.4 L450.1,134.4 L459.7,134.4 L469.4,134.4 L479.0,134.4 L488.7,134.4 L498.3,134.4 L508.0,134.4 L517.7,134.4 L527.3,134.4 L537.0,134.4 L546.6,145.3 L556.3,139.5 L565.9,139.5 L575.6,149.2 L585.2,184.9 L594.9,185.5 L604.5,190.4 L614.2,288.8 L623.8,288.8 L633.5,288.8 L643.1,288.8 L652.8,288.8 L662.4,288.8 L672.1,288.8 L681.7,288.8 L691.4,288.8 L701.0,288.8 L710.7,288.8 L720.3,288.8 L730.0,288.8" fill="none" stroke="#199e70" stroke-width="2" stroke-linejoin="round" stroke-linecap="round"/>
<circle cx="730.0" cy="288.8" r="6" fill="#1a1a19"/>
<circle cx="730.0" cy="288.8" r="4" fill="#199e70"/>
<circle cx="745.0" cy="215.1" r="3.5" fill="#3987e5"/>
<text x="753.0" y="218.6" font-family='system-ui, -apple-system, "Segoe UI", sans-serif' font-size="11" fill="#ffffff">overhead</text>
<text x="753.0" y="230.6" font-family='system-ui, -apple-system, "Segoe UI", sans-serif' font-size="10" style="font-variant-numeric: tabular-nums" fill="#c3c2b7">570k</text>
<circle cx="745.0" cy="285.3" r="3.5" fill="#199e70"/>
<text x="753.0" y="288.8" font-family='system-ui, -apple-system, "Segoe UI", sans-serif' font-size="11" fill="#ffffff">proxy (abs_f32_value)</text>
<text x="753.0" y="300.8" font-family='system-ui, -apple-system, "Segoe UI", sans-serif' font-size="10" style="font-variant-numeric: tabular-nums" fill="#c3c2b7">515k</text>
</svg>