<svg xmlns="http://www.w3.org/2000/svg" width="880" height="340" viewBox="0 0 880 340" role="img" aria-label="Per-node engine overhead">
<rect width="880" height="340" rx="6" fill="#1a1a19"/>
<text x="64" y="24" font-family='system-ui, -apple-system, "Segoe UI", sans-serif' font-size="14" font-weight="600" fill="#ffffff">Per-node engine overhead</text>
<text x="64" y="41" font-family='system-ui, -apple-system, "Segoe UI", sans-serif' font-size="11" fill="#c3c2b7">callgrind instructions of a case that is ~pure engine stepping cost, gated like any operator. Axis zoomed.</text>
<line x1="64" y1="243.9" x2="730" y2="243.9" stroke="#2c2c2a" stroke-width="1"/>
<text x="56" y="247.4" text-anchor="end" font-family='system-ui, -apple-system, "Segoe UI", sans-serif' font-size="11" style="font-variant-numeric: tabular-nums" fill="#898781">550</text>
<line x1="64" y1="180.1" x2="730" y2="180.1" stroke="#2c2c2a" stroke-width="1"/>
<text x="56" y="183.6" text-anchor="end" font-family='system-ui, -apple-system, "Segoe UI", sans-serif' font-size="11" style="font-variant-numeric: tabular-nums" fill="#898781">600</text>
<line x1="64" y1="116.3" x2="730" y2="116.3" stroke="#2c2c2a" stroke-width="1"/>
<text x="56" y="119.8" text-anchor="end" font-family='system-ui, -apple-system, "Segoe UI", sans-serif' font-size="11" style="font-variant-numeric: tabular-nums" fill="#898781">650</text>
<text x="56" y="46" text-anchor="end" font-family='system-ui, -apple-system, "Segoe UI", sans-serif' font-size="10" fill="#898781">Ir (k)</text>
<line x1="64" y1="306" x2="730" y2="306" stroke="#383835" stroke-width="1"/>
<text x="64.0" y="322" text-anchor="middle" font-family='system-ui, -apple-system, "Segoe UI", sans-serif' font-size="11" style="font-variant-numeric: tabular-nums" fill="#898781">06-28</text>
<text x="120.3" y="322" text-anchor="middle" font-family='system-ui, -apple-system, "Segoe UI", sans-serif' font-size="11" style="font-variant-numeric: tabular-nums" fill="#898781">06-30</text>
<text x="167.2" y="322" text-anchor="middle" font-family='system-ui, -apple-system, "Segoe UI", sans-serif' font-size="11" style="font-variant-numeric: tabular-nums" fill="#898781">07-02</text>
<text x="270.4" y="322" text-anchor="middle" font-family='system-ui, -apple-system, "Segoe UI", sans-serif' font-size="11" style="font-variant-numeric: tabular-nums" fill="#898781">07-04</text>
<text x="420.5" y="322" text-anchor="middle" font-family='system-ui, -apple-system, "Segoe UI", sans-serif' font-size="11" style="font-variant-numeric: tabular-nums" fill="#898781">07-07</text>
<text x="514.3" y="322" text-anchor="middle" font-family='system-ui, -apple-system, "Segoe UI", sans-serif' font-size="11" style="font-variant-numeric: tabular-nums" fill="#898781">07-09</text>
<text x="589.3" y="322" text-anchor="middle" font-family='system-ui, -apple-system, "Segoe UI", sans-serif' font-size="11" style="font-variant-numeric: tabular-nums" fill="#898781">07-11</text>
<path d="M373.5,88.2 L382.9,91.5 L392.3,77.0 L401.7,77.0 L411.1,73.3 L420.5,73.3 L429.8,73.4 L439.2,73.4 L448.6,73.4 L458.0,73.4 L467.4,73.4 L476.7,73.4 L486.1,73.4 L495.5,73.4 L504.9,73.4 L514.3,73.4 L523.6,73.2 L533.0,84.8 L542.4,79.1 L551.8,79.1 L561.2,84.4 L570.5,128.1 L579.9,128.2 L589.3,129.8 L598.7,218.6 L608.1,218.6 L617.4,218.6 L626.8,218.6 L636.2,218.6 L645.6,218.6 L655.0,218.6 L664.3,218.6 L673.7,218.6 L683.1,218.6 L692.5,218.6 L701.9,218.6 L711.2,218.6 L720.6,218.6 L730.0,218.6" fill="none" stroke="#3987e5" stroke-width="2" stroke-linejoin="round" stroke-linecap="round"/>
<circle cx="730.0" cy="218.6" r="6" fill="#1a1a19"/>
<circle cx="730.0" cy="218.6" r="4" fill="#3987e5"/>
<path d="M64.0,200.0 L73.4,200.0 L82.8,200.1 L92.1,200.1 L101.5,200.1 L110.9,205.3 L120.3,194.0 L129.7,151.6 L139.0,160.2 L148.4,153.8 L157.8,159.6 L167.2,159.5 L176.6,159.7 L185.9,159.4 L195.3,159.4 L204.7,159.4 L214.1,159.4 L223.5,159.4 L232.8,159.4 L242.2,159.4 L251.6,159.4 L261.0,158.9 L270.4,158.9 L279.7,158.9 L289.1,158.9 L298.5,158.9 L307.9,161.7 L317.3,151.6 L326.6,151.6 L336.0,151.6 L345.4,151.6 L354.8,151.6 L364.2,146.8 L373.5,152.6 L382.9,151.7 L392.3,124.7 L401.7,124.7 L411.1,134.3 L420.5,134.3 L429.8,134.4 L439.2,134.4 L448.6,134.4 L458.0,134.4 L467.4,134.4 L476.7,134.4 L486.1,134.4 L495.5,134.4 L504.9,134.4 L514.3,134.4 L523.6,134.4 L533.0,145.3 L542.4,139.5 L551.8,139.5 L561.2,149.2 L570.5,184.9 L579.9,185.5 L589.3,190.4 L598.7,288.8 L608.1,288.8 L617.4,288.8 L626.8,288.8 L636.2,288.8 L645.6,288.8 L655.0,288.8 L664.3,288.8 L673.7,288.8 L683.1,288.8 L692.5,288.8 L701.9,288.8 L711.2,288.8 L720.6,288.8 L730.0,288.8" fill="none" stroke="#199e70" stroke-width="2" stroke-linejoin="round" stroke-linecap="round"/>
<circle cx="730.0" cy="288.8" r="6" fill="#1a1a19"/>
<circle cx="730.0" cy="288.8" r="4" fill="#199e70"/>
<circle cx="745.0" cy="215.1" r="3.5" fill="#3987e5"/>
<text x="753.0" y="218.6" font-family='system-ui, -apple-system, "Segoe UI", sans-serif' font-size="11" fill="#ffffff">overhead</text>
<text x="753.0" y="230.6" font-family='system-ui, -apple-system, "Segoe UI", sans-serif' font-size="10" style="font-variant-numeric: tabular-nums" fill="#c3c2b7">570k</text>
<circle cx="745.0" cy="285.3" r="3.5" fill="#199e70"/>
<text x="753.0" y="288.8" font-family='system-ui, -apple-system, "Segoe UI", sans-serif' font-size="11" fill="#ffffff">proxy (abs_f32_value)</text>
<text x="753.0" y="300.8" font-family='system-ui, -apple-system, "Segoe UI", sans-serif' font-size="10" style="font-variant-numeric: tabular-nums" fill="#c3c2b7">515k</text>
</svg>