<svg xmlns="http://www.w3.org/2000/svg" width="880" height="340" viewBox="0 0 880 340" role="img" aria-label="Per-node engine overhead">
<rect width="880" height="340" rx="6" fill="#1a1a19"/>
<text x="64" y="24" font-family='system-ui, -apple-system, "Segoe UI", sans-serif' font-size="14" font-weight="600" fill="#ffffff">Per-node engine overhead</text>
<text x="64" y="41" font-family='system-ui, -apple-system, "Segoe UI", sans-serif' font-size="11" fill="#c3c2b7">callgrind instructions of a case that is ~pure engine stepping cost, gated like any operator. Axis zoomed.</text>
<line x1="64" y1="262.2" x2="730" y2="262.2" stroke="#2c2c2a" stroke-width="1"/>
<text x="56" y="265.7" text-anchor="end" font-family='system-ui, -apple-system, "Segoe UI", sans-serif' font-size="11" style="font-variant-numeric: tabular-nums" fill="#898781">520</text>
<line x1="64" y1="186.5" x2="730" y2="186.5" stroke="#2c2c2a" stroke-width="1"/>
<text x="56" y="190.0" text-anchor="end" font-family='system-ui, -apple-system, "Segoe UI", sans-serif' font-size="11" style="font-variant-numeric: tabular-nums" fill="#898781">540</text>
<line x1="64" y1="110.7" x2="730" y2="110.7" stroke="#2c2c2a" stroke-width="1"/>
<text x="56" y="114.2" text-anchor="end" font-family='system-ui, -apple-system, "Segoe UI", sans-serif' font-size="11" style="font-variant-numeric: tabular-nums" fill="#898781">560</text>
<text x="56" y="46" text-anchor="end" font-family='system-ui, -apple-system, "Segoe UI", sans-serif' font-size="10" fill="#898781">Ir (k)</text>
<line x1="64" y1="306" x2="730" y2="306" stroke="#383835" stroke-width="1"/>
<text x="64.0" y="322" text-anchor="middle" font-family='system-ui, -apple-system, "Segoe UI", sans-serif' font-size="11" style="font-variant-numeric: tabular-nums" fill="#898781">07-12</text>
<text x="141.7" y="322" text-anchor="middle" font-family='system-ui, -apple-system, "Segoe UI", sans-serif' font-size="11" style="font-variant-numeric: tabular-nums" fill="#898781">07-14</text>
<text x="241.6" y="322" text-anchor="middle" font-family='system-ui, -apple-system, "Segoe UI", sans-serif' font-size="11" style="font-variant-numeric: tabular-nums" fill="#898781">07-17</text>
<text x="374.8" y="322" text-anchor="middle" font-family='system-ui, -apple-system, "Segoe UI", sans-serif' font-size="11" style="font-variant-numeric: tabular-nums" fill="#898781">07-19</text>
<text x="574.6" y="322" text-anchor="middle" font-family='system-ui, -apple-system, "Segoe UI", sans-serif' font-size="11" style="font-variant-numeric: tabular-nums" fill="#898781">07-21</text>
<path d="M64.0,73.2 L75.1,73.2 L86.2,73.2 L97.3,73.2 L108.4,73.2 L119.5,73.2 L130.6,73.2 L141.7,73.2 L152.8,73.2 L163.9,73.2 L175.0,73.2 L186.1,73.2 L197.2,73.2 L208.3,73.2 L219.4,73.2 L230.5,73.2 L241.6,73.2 L252.7,73.2 L263.8,73.2 L274.9,73.2 L286.0,73.2 L297.1,73.2 L308.2,73.2 L319.3,73.2 L330.4,73.2 L341.5,73.2 L352.6,73.2 L363.7,73.2 L374.8,73.2 L385.9,73.2 L397.0,81.2 L408.1,81.2 L419.2,81.2 L430.3,91.2 L441.4,91.2 L452.5,91.2 L463.6,91.2 L474.7,91.2 L485.8,91.2 L496.9,91.3 L508.0,91.3 L519.1,80.9 L530.2,80.9 L541.3,80.9 L552.4,80.9 L563.5,80.9 L574.6,80.9 L585.7,80.9 L596.8,80.9 L607.9,80.9 L619.0,80.9 L630.1,90.0 L641.2,90.0 L652.3,90.0 L663.4,90.0 L674.5,90.2 L685.6,95.4 L696.7,95.4 L707.8,95.4 L718.9,95.4 L730.0,95.4" fill="none" stroke="#3987e5" stroke-width="2" stroke-linejoin="round" stroke-linecap="round"/>
<circle cx="730.0" cy="95.4" r="6" fill="#1a1a19"/>
<circle cx="730.0" cy="95.4" r="4" fill="#3987e5"/>
<path d="M64.0,281.6 L75.1,281.6 L86.2,281.6 L97.3,281.6 L108.4,281.6 L119.5,281.6 L130.6,281.6 L141.7,281.6 L152.8,281.6 L163.9,281.6 L175.0,281.6 L186.1,281.6 L197.2,281.6 L208.3,281.6 L219.4,281.6 L230.5,281.6 L241.6,281.6 L252.7,281.6 L263.8,281.6 L274.9,281.6 L286.0,281.6 L297.1,281.6 L308.2,281.6 L319.3,281.6 L330.4,281.6 L341.5,281.6 L352.6,281.6 L363.7,281.6 L374.8,281.6 L385.9,281.6 L397.0,280.2 L408.1,280.2 L419.2,280.2 L430.3,288.8 L441.4,288.8 L452.5,288.8 L463.6,288.8 L474.7,288.8 L485.8,288.8 L496.9,288.5 L508.0,288.5 L519.1,288.0 L530.2,288.0 L541.3,288.0 L552.4,288.0 L563.5,288.0 L574.6,288.0 L585.7,288.0 L596.8,288.0 L607.9,288.0 L619.0,288.0 L630.1,287.1 L641.2,287.1 L652.3,287.1 L663.4,287.1 L674.5,257.8 L685.6,263.2 L696.7,263.2 L707.8,263.2 L718.9,263.2 L730.0,263.2" fill="none" stroke="#199e70" stroke-width="2" stroke-linejoin="round" stroke-linecap="round"/>
<circle cx="730.0" cy="263.2" r="6" fill="#1a1a19"/>
<circle cx="730.0" cy="263.2" r="4" fill="#199e70"/>
<circle cx="745.0" cy="91.9" r="3.5" fill="#3987e5"/>
<text x="753.0" y="95.4" font-family='system-ui, -apple-system, "Segoe UI", sans-serif' font-size="11" fill="#ffffff">overhead</text>
<text x="753.0" y="107.4" font-family='system-ui, -apple-system, "Segoe UI", sans-serif' font-size="10" style="font-variant-numeric: tabular-nums" fill="#c3c2b7">564k</text>
<circle cx="745.0" cy="259.7" r="3.5" fill="#199e70"/>
<text x="753.0" y="263.2" font-family='system-ui, -apple-system, "Segoe UI", sans-serif' font-size="11" fill="#ffffff">proxy (abs_f32_value)</text>
<text x="753.0" y="275.2" font-family='system-ui, -apple-system, "Segoe UI", sans-serif' font-size="10" style="font-variant-numeric: tabular-nums" fill="#c3c2b7">520k</text>
</svg>