<svg xmlns="http://www.w3.org/2000/svg" width="880" height="340" viewBox="0 0 880 340" role="img" aria-label="Per-node engine overhead">
<rect width="880" height="340" rx="6" fill="#fcfcfb"/>
<text x="64" y="24" font-family='system-ui, -apple-system, "Segoe UI", sans-serif' font-size="14" font-weight="600" fill="#0b0b0b">Per-node engine overhead</text>
<text x="64" y="41" font-family='system-ui, -apple-system, "Segoe UI", sans-serif' font-size="11" fill="#52514e">callgrind instructions of a case that is ~pure engine stepping cost, gated like any operator. Axis zoomed.</text>
<line x1="64" y1="243.9" x2="730" y2="243.9" stroke="#e1e0d9" stroke-width="1"/>
<text x="56" y="247.4" text-anchor="end" font-family='system-ui, -apple-system, "Segoe UI", sans-serif' font-size="11" style="font-variant-numeric: tabular-nums" fill="#898781">550</text>
<line x1="64" y1="180.1" x2="730" y2="180.1" stroke="#e1e0d9" stroke-width="1"/>
<text x="56" y="183.6" text-anchor="end" font-family='system-ui, -apple-system, "Segoe UI", sans-serif' font-size="11" style="font-variant-numeric: tabular-nums" fill="#898781">600</text>
<line x1="64" y1="116.3" x2="730" y2="116.3" stroke="#e1e0d9" stroke-width="1"/>
<text x="56" y="119.8" text-anchor="end" font-family='system-ui, -apple-system, "Segoe UI", sans-serif' font-size="11" style="font-variant-numeric: tabular-nums" fill="#898781">650</text>
<text x="56" y="46" text-anchor="end" font-family='system-ui, -apple-system, "Segoe UI", sans-serif' font-size="10" fill="#898781">Ir (k)</text>
<line x1="64" y1="306" x2="730" y2="306" stroke="#c3c2b7" stroke-width="1"/>
<text x="64.0" y="322" text-anchor="middle" font-family='system-ui, -apple-system, "Segoe UI", sans-serif' font-size="11" style="font-variant-numeric: tabular-nums" fill="#898781">06-28</text>
<text x="123.6" y="322" text-anchor="middle" font-family='system-ui, -apple-system, "Segoe UI", sans-serif' font-size="11" style="font-variant-numeric: tabular-nums" fill="#898781">06-30</text>
<text x="173.3" y="322" text-anchor="middle" font-family='system-ui, -apple-system, "Segoe UI", sans-serif' font-size="11" style="font-variant-numeric: tabular-nums" fill="#898781">07-02</text>
<text x="282.7" y="322" text-anchor="middle" font-family='system-ui, -apple-system, "Segoe UI", sans-serif' font-size="11" style="font-variant-numeric: tabular-nums" fill="#898781">07-04</text>
<text x="441.7" y="322" text-anchor="middle" font-family='system-ui, -apple-system, "Segoe UI", sans-serif' font-size="11" style="font-variant-numeric: tabular-nums" fill="#898781">07-07</text>
<text x="541.1" y="322" text-anchor="middle" font-family='system-ui, -apple-system, "Segoe UI", sans-serif' font-size="11" style="font-variant-numeric: tabular-nums" fill="#898781">07-09</text>
<text x="620.7" y="322" text-anchor="middle" font-family='system-ui, -apple-system, "Segoe UI", sans-serif' font-size="11" style="font-variant-numeric: tabular-nums" fill="#898781">07-11</text>
<path d="M392.0,88.2 L402.0,91.5 L411.9,77.0 L421.9,77.0 L431.8,73.3 L441.7,73.3 L451.7,73.4 L461.6,73.4 L471.6,73.4 L481.5,73.4 L491.4,73.4 L501.4,73.4 L511.3,73.4 L521.3,73.4 L531.2,73.4 L541.1,73.4 L551.1,73.2 L561.0,84.8 L571.0,79.1 L580.9,79.1 L590.8,84.4 L600.8,128.1 L610.7,128.2 L620.7,129.8 L630.6,218.6 L640.5,218.6 L650.5,218.6 L660.4,218.6 L670.4,218.6 L680.3,218.6 L690.2,218.6 L700.2,218.6 L710.1,218.6 L720.1,218.6 L730.0,218.6" fill="none" stroke="#2a78d6" stroke-width="2" stroke-linejoin="round" stroke-linecap="round"/>
<circle cx="730.0" cy="218.6" r="6" fill="#fcfcfb"/>
<circle cx="730.0" cy="218.6" r="4" fill="#2a78d6"/>
<path d="M64.0,200.0 L73.9,200.0 L83.9,200.1 L93.8,200.1 L103.8,200.1 L113.7,205.3 L123.6,194.0 L133.6,151.6 L143.5,160.2 L153.5,153.8 L163.4,159.6 L173.3,159.5 L183.3,159.7 L193.2,159.4 L203.2,159.4 L213.1,159.4 L223.0,159.4 L233.0,159.4 L242.9,159.4 L252.9,159.4 L262.8,159.4 L272.7,158.9 L282.7,158.9 L292.6,158.9 L302.6,158.9 L312.5,158.9 L322.4,161.7 L332.4,151.6 L342.3,151.6 L352.3,151.6 L362.2,151.6 L372.1,151.6 L382.1,146.8 L392.0,152.6 L402.0,151.7 L411.9,124.7 L421.9,124.7 L431.8,134.3 L441.7,134.3 L451.7,134.4 L461.6,134.4 L471.6,134.4 L481.5,134.4 L491.4,134.4 L501.4,134.4 L511.3,134.4 L521.3,134.4 L531.2,134.4 L541.1,134.4 L551.1,134.4 L561.0,145.3 L571.0,139.5 L580.9,139.5 L590.8,149.2 L600.8,184.9 L610.7,185.5 L620.7,190.4 L630.6,288.8 L640.5,288.8 L650.5,288.8 L660.4,288.8 L670.4,288.8 L680.3,288.8 L690.2,288.8 L700.2,288.8 L710.1,288.8 L720.1,288.8 L730.0,288.8" fill="none" stroke="#1baf7a" stroke-width="2" stroke-linejoin="round" stroke-linecap="round"/>
<circle cx="730.0" cy="288.8" r="6" fill="#fcfcfb"/>
<circle cx="730.0" cy="288.8" r="4" fill="#1baf7a"/>
<circle cx="745.0" cy="215.1" r="3.5" fill="#2a78d6"/>
<text x="753.0" y="218.6" font-family='system-ui, -apple-system, "Segoe UI", sans-serif' font-size="11" fill="#0b0b0b">overhead</text>
<text x="753.0" y="230.6" font-family='system-ui, -apple-system, "Segoe UI", sans-serif' font-size="10" style="font-variant-numeric: tabular-nums" fill="#52514e">570k</text>
<circle cx="745.0" cy="285.3" r="3.5" fill="#1baf7a"/>
<text x="753.0" y="288.8" font-family='system-ui, -apple-system, "Segoe UI", sans-serif' font-size="11" fill="#0b0b0b">proxy (abs_f32_value)</text>
<text x="753.0" y="300.8" font-family='system-ui, -apple-system, "Segoe UI", sans-serif' font-size="10" style="font-variant-numeric: tabular-nums" fill="#52514e">515k</text>
</svg>