<svg xmlns="http://www.w3.org/2000/svg" width="880" height="340" viewBox="0 0 880 340" role="img" aria-label="Per-node engine overhead">
<rect width="880" height="340" rx="6" fill="#1a1a19"/>
<text x="64" y="24" font-family='system-ui, -apple-system, "Segoe UI", sans-serif' font-size="14" font-weight="600" fill="#ffffff">Per-node engine overhead</text>
<text x="64" y="41" font-family='system-ui, -apple-system, "Segoe UI", sans-serif' font-size="11" fill="#c3c2b7">callgrind instructions of a case that is ~pure engine stepping cost, gated like any operator. Axis zoomed.</text>
<line x1="64" y1="262.2" x2="730" y2="262.2" stroke="#2c2c2a" stroke-width="1"/>
<text x="56" y="265.7" text-anchor="end" font-family='system-ui, -apple-system, "Segoe UI", sans-serif' font-size="11" style="font-variant-numeric: tabular-nums" fill="#898781">520</text>
<line x1="64" y1="186.5" x2="730" y2="186.5" stroke="#2c2c2a" stroke-width="1"/>
<text x="56" y="190.0" text-anchor="end" font-family='system-ui, -apple-system, "Segoe UI", sans-serif' font-size="11" style="font-variant-numeric: tabular-nums" fill="#898781">540</text>
<line x1="64" y1="110.7" x2="730" y2="110.7" stroke="#2c2c2a" stroke-width="1"/>
<text x="56" y="114.2" text-anchor="end" font-family='system-ui, -apple-system, "Segoe UI", sans-serif' font-size="11" style="font-variant-numeric: tabular-nums" fill="#898781">560</text>
<text x="56" y="46" text-anchor="end" font-family='system-ui, -apple-system, "Segoe UI", sans-serif' font-size="10" fill="#898781">Ir (k)</text>
<line x1="64" y1="306" x2="730" y2="306" stroke="#383835" stroke-width="1"/>
<text x="64.0" y="322" text-anchor="middle" font-family='system-ui, -apple-system, "Segoe UI", sans-serif' font-size="11" style="font-variant-numeric: tabular-nums" fill="#898781">07-12</text>
<text x="172.0" y="322" text-anchor="middle" font-family='system-ui, -apple-system, "Segoe UI", sans-serif' font-size="11" style="font-variant-numeric: tabular-nums" fill="#898781">07-13</text>
<text x="190.0" y="322" text-anchor="middle" font-family='system-ui, -apple-system, "Segoe UI", sans-serif' font-size="11" style="font-variant-numeric: tabular-nums" fill="#898781">07-14</text>
<text x="208.0" y="322" text-anchor="middle" font-family='system-ui, -apple-system, "Segoe UI", sans-serif' font-size="11" style="font-variant-numeric: tabular-nums" fill="#898781">07-16</text>
<text x="352.0" y="322" text-anchor="middle" font-family='system-ui, -apple-system, "Segoe UI", sans-serif' font-size="11" style="font-variant-numeric: tabular-nums" fill="#898781">07-17</text>
<text x="460.0" y="322" text-anchor="middle" font-family='system-ui, -apple-system, "Segoe UI", sans-serif' font-size="11" style="font-variant-numeric: tabular-nums" fill="#898781">07-18</text>
<text x="568.0" y="322" text-anchor="middle" font-family='system-ui, -apple-system, "Segoe UI", sans-serif' font-size="11" style="font-variant-numeric: tabular-nums" fill="#898781">07-19</text>
<text x="622.0" y="322" text-anchor="middle" font-family='system-ui, -apple-system, "Segoe UI", sans-serif' font-size="11" style="font-variant-numeric: tabular-nums" fill="#898781">07-20</text>
<path d="M64.0,73.2 L82.0,73.2 L100.0,73.2 L118.0,73.2 L136.0,73.2 L154.0,73.2 L172.0,73.2 L190.0,73.2 L208.0,73.2 L226.0,73.2 L244.0,73.2 L262.0,73.2 L280.0,73.2 L298.0,73.2 L316.0,73.2 L334.0,73.2 L352.0,73.2 L370.0,73.2 L388.0,73.2 L406.0,73.2 L424.0,73.2 L442.0,73.2 L460.0,73.2 L478.0,73.2 L496.0,73.2 L514.0,73.2 L532.0,73.2 L550.0,73.2 L568.0,73.2 L586.0,73.2 L604.0,81.2 L622.0,81.2 L640.0,81.2 L658.0,91.2 L676.0,91.2 L694.0,91.2 L712.0,91.2 L730.0,91.2" fill="none" stroke="#3987e5" stroke-width="2" stroke-linejoin="round" stroke-linecap="round"/>
<circle cx="730.0" cy="91.2" r="6" fill="#1a1a19"/>
<circle cx="730.0" cy="91.2" r="4" fill="#3987e5"/>
<path d="M64.0,281.6 L82.0,281.6 L100.0,281.6 L118.0,281.6 L136.0,281.6 L154.0,281.6 L172.0,281.6 L190.0,281.6 L208.0,281.6 L226.0,281.6 L244.0,281.6 L262.0,281.6 L280.0,281.6 L298.0,281.6 L316.0,281.6 L334.0,281.6 L352.0,281.6 L370.0,281.6 L388.0,281.6 L406.0,281.6 L424.0,281.6 L442.0,281.6 L460.0,281.6 L478.0,281.6 L496.0,281.6 L514.0,281.6 L532.0,281.6 L550.0,281.6 L568.0,281.6 L586.0,281.6 L604.0,280.2 L622.0,280.2 L640.0,280.2 L658.0,288.8 L676.0,288.8 L694.0,288.8 L712.0,288.8 L730.0,288.8" fill="none" stroke="#199e70" stroke-width="2" stroke-linejoin="round" stroke-linecap="round"/>
<circle cx="730.0" cy="288.8" r="6" fill="#1a1a19"/>
<circle cx="730.0" cy="288.8" r="4" fill="#199e70"/>
<circle cx="745.0" cy="87.7" r="3.5" fill="#3987e5"/>
<text x="753.0" y="91.2" font-family='system-ui, -apple-system, "Segoe UI", sans-serif' font-size="11" fill="#ffffff">overhead</text>
<text x="753.0" y="103.2" font-family='system-ui, -apple-system, "Segoe UI", sans-serif' font-size="10" style="font-variant-numeric: tabular-nums" fill="#c3c2b7">565k</text>
<circle cx="745.0" cy="285.3" r="3.5" fill="#199e70"/>
<text x="753.0" y="288.8" font-family='system-ui, -apple-system, "Segoe UI", sans-serif' font-size="11" fill="#ffffff">proxy (abs_f32_value)</text>
<text x="753.0" y="300.8" font-family='system-ui, -apple-system, "Segoe UI", sans-serif' font-size="10" style="font-variant-numeric: tabular-nums" fill="#c3c2b7">513k</text>
</svg>