<svg xmlns="http://www.w3.org/2000/svg" width="880" height="340" viewBox="0 0 880 340" role="img" aria-label="Per-node engine overhead">
<rect width="880" height="340" rx="6" fill="#fcfcfb"/>
<text x="64" y="24" font-family='system-ui, -apple-system, "Segoe UI", sans-serif' font-size="14" font-weight="600" fill="#0b0b0b">Per-node engine overhead</text>
<text x="64" y="41" font-family='system-ui, -apple-system, "Segoe UI", sans-serif' font-size="11" fill="#52514e">callgrind instructions of a case that is ~pure engine stepping cost, gated like any operator. Axis zoomed.</text>
<line x1="64" y1="299.7" x2="730" y2="299.7" stroke="#e1e0d9" stroke-width="1"/>
<text x="56" y="303.2" text-anchor="end" font-family='system-ui, -apple-system, "Segoe UI", sans-serif' font-size="11" style="font-variant-numeric: tabular-nums" fill="#898781">575</text>
<line x1="64" y1="247.6" x2="730" y2="247.6" stroke="#e1e0d9" stroke-width="1"/>
<text x="56" y="251.1" text-anchor="end" font-family='system-ui, -apple-system, "Segoe UI", sans-serif' font-size="11" style="font-variant-numeric: tabular-nums" fill="#898781">600</text>
<line x1="64" y1="195.6" x2="730" y2="195.6" stroke="#e1e0d9" stroke-width="1"/>
<text x="56" y="199.1" text-anchor="end" font-family='system-ui, -apple-system, "Segoe UI", sans-serif' font-size="11" style="font-variant-numeric: tabular-nums" fill="#898781">625</text>
<line x1="64" y1="143.5" x2="730" y2="143.5" stroke="#e1e0d9" stroke-width="1"/>
<text x="56" y="147.0" text-anchor="end" font-family='system-ui, -apple-system, "Segoe UI", sans-serif' font-size="11" style="font-variant-numeric: tabular-nums" fill="#898781">650</text>
<line x1="64" y1="91.5" x2="730" y2="91.5" stroke="#e1e0d9" stroke-width="1"/>
<text x="56" y="95.0" text-anchor="end" font-family='system-ui, -apple-system, "Segoe UI", sans-serif' font-size="11" style="font-variant-numeric: tabular-nums" fill="#898781">675</text>
<text x="56" y="46" text-anchor="end" font-family='system-ui, -apple-system, "Segoe UI", sans-serif' font-size="10" fill="#898781">Ir (k)</text>
<line x1="64" y1="306" x2="730" y2="306" stroke="#c3c2b7" stroke-width="1"/>
<text x="64.0" y="322" text-anchor="middle" font-family='system-ui, -apple-system, "Segoe UI", sans-serif' font-size="11" style="font-variant-numeric: tabular-nums" fill="#898781">06-28</text>
<text x="136.7" y="322" text-anchor="middle" font-family='system-ui, -apple-system, "Segoe UI", sans-serif' font-size="11" style="font-variant-numeric: tabular-nums" fill="#898781">06-30</text>
<text x="197.2" y="322" text-anchor="middle" font-family='system-ui, -apple-system, "Segoe UI", sans-serif' font-size="11" style="font-variant-numeric: tabular-nums" fill="#898781">07-02</text>
<text x="330.4" y="322" text-anchor="middle" font-family='system-ui, -apple-system, "Segoe UI", sans-serif' font-size="11" style="font-variant-numeric: tabular-nums" fill="#898781">07-04</text>
<text x="524.1" y="322" text-anchor="middle" font-family='system-ui, -apple-system, "Segoe UI", sans-serif' font-size="11" style="font-variant-numeric: tabular-nums" fill="#898781">07-07</text>
<text x="645.2" y="322" text-anchor="middle" font-family='system-ui, -apple-system, "Segoe UI", sans-serif' font-size="11" style="font-variant-numeric: tabular-nums" fill="#898781">07-09</text>
<path d="M463.6,97.6 L475.7,103.0 L487.8,79.4 L499.9,79.4 L512.0,73.3 L524.1,73.3 L536.3,73.4 L548.4,73.4 L560.5,73.4 L572.6,73.4 L584.7,73.4 L596.8,73.4 L608.9,73.4 L621.0,73.4 L633.1,73.4 L645.2,73.4 L657.3,73.2 L669.5,92.1 L681.6,82.7 L693.7,82.7 L705.8,91.5 L717.9,162.7 L730.0,162.8" fill="none" stroke="#2a78d6" stroke-width="2" stroke-linejoin="round" stroke-linecap="round"/>
<circle cx="730.0" cy="162.8" r="6" fill="#fcfcfb"/>
<circle cx="730.0" cy="162.8" r="4" fill="#2a78d6"/>
<path d="M64.0,280.1 L76.1,280.1 L88.2,280.2 L100.3,280.2 L112.4,280.2 L124.5,288.8 L136.7,270.2 L148.8,201.1 L160.9,215.1 L173.0,204.7 L185.1,214.2 L197.2,214.0 L209.3,214.4 L221.4,213.8 L233.5,213.8 L245.6,213.8 L257.7,213.8 L269.9,213.8 L282.0,213.8 L294.1,213.8 L306.2,213.9 L318.3,212.9 L330.4,212.9 L342.5,212.9 L354.6,212.9 L366.7,212.9 L378.8,217.5 L390.9,201.1 L403.1,201.1 L415.2,201.1 L427.3,201.1 L439.4,201.1 L451.5,193.3 L463.6,202.6 L475.7,201.3 L487.8,157.2 L499.9,157.2 L512.0,172.8 L524.1,172.8 L536.3,173.0 L548.4,173.0 L560.5,173.0 L572.6,173.0 L584.7,173.0 L596.8,173.0 L608.9,173.0 L621.0,173.0 L633.1,173.0 L645.2,173.0 L657.3,172.9 L669.5,190.8 L681.6,181.4 L693.7,181.4 L705.8,197.2 L717.9,255.5 L730.0,256.4" fill="none" stroke="#1baf7a" stroke-width="2" stroke-linejoin="round" stroke-linecap="round"/>
<circle cx="730.0" cy="256.4" r="6" fill="#fcfcfb"/>
<circle cx="730.0" cy="256.4" r="4" fill="#1baf7a"/>
<circle cx="745.0" cy="159.3" r="3.5" fill="#2a78d6"/>
<text x="753.0" y="162.8" font-family='system-ui, -apple-system, "Segoe UI", sans-serif' font-size="11" fill="#0b0b0b">overhead</text>
<text x="753.0" y="174.8" font-family='system-ui, -apple-system, "Segoe UI", sans-serif' font-size="10" style="font-variant-numeric: tabular-nums" fill="#52514e">641k</text>
<circle cx="745.0" cy="252.9" r="3.5" fill="#1baf7a"/>
<text x="753.0" y="256.4" font-family='system-ui, -apple-system, "Segoe UI", sans-serif' font-size="11" fill="#0b0b0b">proxy (abs_f32_value)</text>
<text x="753.0" y="268.4" font-family='system-ui, -apple-system, "Segoe UI", sans-serif' font-size="10" style="font-variant-numeric: tabular-nums" fill="#52514e">596k</text>
</svg>