<svg xmlns="http://www.w3.org/2000/svg" width="880" height="340" viewBox="0 0 880 340" role="img" aria-label="Per-node engine overhead">
<rect width="880" height="340" rx="6" fill="#fcfcfb"/>
<text x="64" y="24" font-family='system-ui, -apple-system, "Segoe UI", sans-serif' font-size="14" font-weight="600" fill="#0b0b0b">Per-node engine overhead</text>
<text x="64" y="41" font-family='system-ui, -apple-system, "Segoe UI", sans-serif' font-size="11" fill="#52514e">callgrind instructions of a case that is ~pure engine stepping cost, gated like any operator. Axis zoomed.</text>
<line x1="64" y1="262.2" x2="730" y2="262.2" stroke="#e1e0d9" stroke-width="1"/>
<text x="56" y="265.7" text-anchor="end" font-family='system-ui, -apple-system, "Segoe UI", sans-serif' font-size="11" style="font-variant-numeric: tabular-nums" fill="#898781">520</text>
<line x1="64" y1="186.5" x2="730" y2="186.5" stroke="#e1e0d9" stroke-width="1"/>
<text x="56" y="190.0" text-anchor="end" font-family='system-ui, -apple-system, "Segoe UI", sans-serif' font-size="11" style="font-variant-numeric: tabular-nums" fill="#898781">540</text>
<line x1="64" y1="110.7" x2="730" y2="110.7" stroke="#e1e0d9" stroke-width="1"/>
<text x="56" y="114.2" text-anchor="end" font-family='system-ui, -apple-system, "Segoe UI", sans-serif' font-size="11" style="font-variant-numeric: tabular-nums" fill="#898781">560</text>
<text x="56" y="46" text-anchor="end" font-family='system-ui, -apple-system, "Segoe UI", sans-serif' font-size="10" fill="#898781">Ir (k)</text>
<line x1="64" y1="306" x2="730" y2="306" stroke="#c3c2b7" stroke-width="1"/>
<text x="64.0" y="322" text-anchor="middle" font-family='system-ui, -apple-system, "Segoe UI", sans-serif' font-size="11" style="font-variant-numeric: tabular-nums" fill="#898781">07-12</text>
<text x="159.1" y="322" text-anchor="middle" font-family='system-ui, -apple-system, "Segoe UI", sans-serif' font-size="11" style="font-variant-numeric: tabular-nums" fill="#898781">07-14</text>
<text x="281.5" y="322" text-anchor="middle" font-family='system-ui, -apple-system, "Segoe UI", sans-serif' font-size="11" style="font-variant-numeric: tabular-nums" fill="#898781">07-17</text>
<text x="444.6" y="322" text-anchor="middle" font-family='system-ui, -apple-system, "Segoe UI", sans-serif' font-size="11" style="font-variant-numeric: tabular-nums" fill="#898781">07-19</text>
<text x="689.2" y="322" text-anchor="middle" font-family='system-ui, -apple-system, "Segoe UI", sans-serif' font-size="11" style="font-variant-numeric: tabular-nums" fill="#898781">07-21</text>
<path d="M64.0,73.2 L77.6,73.2 L91.2,73.2 L104.8,73.2 L118.4,73.2 L132.0,73.2 L145.6,73.2 L159.1,73.2 L172.7,73.2 L186.3,73.2 L199.9,73.2 L213.5,73.2 L227.1,73.2 L240.7,73.2 L254.3,73.2 L267.9,73.2 L281.5,73.2 L295.1,73.2 L308.7,73.2 L322.2,73.2 L335.8,73.2 L349.4,73.2 L363.0,73.2 L376.6,73.2 L390.2,73.2 L403.8,73.2 L417.4,73.2 L431.0,73.2 L444.6,73.2 L458.2,73.2 L471.8,81.2 L485.3,81.2 L498.9,81.2 L512.5,91.2 L526.1,91.2 L539.7,91.2 L553.3,91.2 L566.9,91.2 L580.5,91.2 L594.1,91.3 L607.7,91.3 L621.3,80.9 L634.9,80.9 L648.4,80.9 L662.0,80.9 L675.6,80.9 L689.2,80.9 L702.8,80.9 L716.4,80.9 L730.0,80.9" fill="none" stroke="#2a78d6" stroke-width="2" stroke-linejoin="round" stroke-linecap="round"/>
<circle cx="730.0" cy="80.9" r="6" fill="#fcfcfb"/>
<circle cx="730.0" cy="80.9" r="4" fill="#2a78d6"/>
<path d="M64.0,281.6 L77.6,281.6 L91.2,281.6 L104.8,281.6 L118.4,281.6 L132.0,281.6 L145.6,281.6 L159.1,281.6 L172.7,281.6 L186.3,281.6 L199.9,281.6 L213.5,281.6 L227.1,281.6 L240.7,281.6 L254.3,281.6 L267.9,281.6 L281.5,281.6 L295.1,281.6 L308.7,281.6 L322.2,281.6 L335.8,281.6 L349.4,281.6 L363.0,281.6 L376.6,281.6 L390.2,281.6 L403.8,281.6 L417.4,281.6 L431.0,281.6 L444.6,281.6 L458.2,281.6 L471.8,280.2 L485.3,280.2 L498.9,280.2 L512.5,288.8 L526.1,288.8 L539.7,288.8 L553.3,288.8 L566.9,288.8 L580.5,288.8 L594.1,288.5 L607.7,288.5 L621.3,288.0 L634.9,288.0 L648.4,288.0 L662.0,288.0 L675.6,288.0 L689.2,288.0 L702.8,288.0 L716.4,288.0 L730.0,288.0" fill="none" stroke="#1baf7a" stroke-width="2" stroke-linejoin="round" stroke-linecap="round"/>
<circle cx="730.0" cy="288.0" r="6" fill="#fcfcfb"/>
<circle cx="730.0" cy="288.0" r="4" fill="#1baf7a"/>
<circle cx="745.0" cy="77.4" r="3.5" fill="#2a78d6"/>
<text x="753.0" y="80.9" font-family='system-ui, -apple-system, "Segoe UI", sans-serif' font-size="11" fill="#0b0b0b">overhead</text>
<text x="753.0" y="92.9" font-family='system-ui, -apple-system, "Segoe UI", sans-serif' font-size="10" style="font-variant-numeric: tabular-nums" fill="#52514e">568k</text>
<circle cx="745.0" cy="284.5" r="3.5" fill="#1baf7a"/>
<text x="753.0" y="288.0" font-family='system-ui, -apple-system, "Segoe UI", sans-serif' font-size="11" fill="#0b0b0b">proxy (abs_f32_value)</text>
<text x="753.0" y="300.0" font-family='system-ui, -apple-system, "Segoe UI", sans-serif' font-size="10" style="font-variant-numeric: tabular-nums" fill="#52514e">513k</text>
</svg>