<svg xmlns="http://www.w3.org/2000/svg" width="880" height="340" viewBox="0 0 880 340" role="img" aria-label="Per-node engine overhead">
<rect width="880" height="340" rx="6" fill="#fcfcfb"/>
<text x="64" y="24" font-family='system-ui, -apple-system, "Segoe UI", sans-serif' font-size="14" font-weight="600" fill="#0b0b0b">Per-node engine overhead</text>
<text x="64" y="41" font-family='system-ui, -apple-system, "Segoe UI", sans-serif' font-size="11" fill="#52514e">callgrind instructions of a case that is ~pure engine stepping cost, gated like any operator. Axis zoomed.</text>
<line x1="64" y1="262.2" x2="730" y2="262.2" stroke="#e1e0d9" stroke-width="1"/>
<text x="56" y="265.7" text-anchor="end" font-family='system-ui, -apple-system, "Segoe UI", sans-serif' font-size="11" style="font-variant-numeric: tabular-nums" fill="#898781">520</text>
<line x1="64" y1="186.5" x2="730" y2="186.5" stroke="#e1e0d9" stroke-width="1"/>
<text x="56" y="190.0" text-anchor="end" font-family='system-ui, -apple-system, "Segoe UI", sans-serif' font-size="11" style="font-variant-numeric: tabular-nums" fill="#898781">540</text>
<line x1="64" y1="110.7" x2="730" y2="110.7" stroke="#e1e0d9" stroke-width="1"/>
<text x="56" y="114.2" text-anchor="end" font-family='system-ui, -apple-system, "Segoe UI", sans-serif' font-size="11" style="font-variant-numeric: tabular-nums" fill="#898781">560</text>
<text x="56" y="46" text-anchor="end" font-family='system-ui, -apple-system, "Segoe UI", sans-serif' font-size="10" fill="#898781">Ir (k)</text>
<line x1="64" y1="306" x2="730" y2="306" stroke="#c3c2b7" stroke-width="1"/>
<text x="64.0" y="322" text-anchor="middle" font-family='system-ui, -apple-system, "Segoe UI", sans-serif' font-size="11" style="font-variant-numeric: tabular-nums" fill="#898781">07-12</text>
<text x="155.4" y="322" text-anchor="middle" font-family='system-ui, -apple-system, "Segoe UI", sans-serif' font-size="11" style="font-variant-numeric: tabular-nums" fill="#898781">07-14</text>
<text x="272.9" y="322" text-anchor="middle" font-family='system-ui, -apple-system, "Segoe UI", sans-serif' font-size="11" style="font-variant-numeric: tabular-nums" fill="#898781">07-17</text>
<text x="429.6" y="322" text-anchor="middle" font-family='system-ui, -apple-system, "Segoe UI", sans-serif' font-size="11" style="font-variant-numeric: tabular-nums" fill="#898781">07-19</text>
<text x="664.7" y="322" text-anchor="middle" font-family='system-ui, -apple-system, "Segoe UI", sans-serif' font-size="11" style="font-variant-numeric: tabular-nums" fill="#898781">07-21</text>
<path d="M64.0,73.2 L77.1,73.2 L90.1,73.2 L103.2,73.2 L116.2,73.2 L129.3,73.2 L142.4,73.2 L155.4,73.2 L168.5,73.2 L181.5,73.2 L194.6,73.2 L207.6,73.2 L220.7,73.2 L233.8,73.2 L246.8,73.2 L259.9,73.2 L272.9,73.2 L286.0,73.2 L299.1,73.2 L312.1,73.2 L325.2,73.2 L338.2,73.2 L351.3,73.2 L364.4,73.2 L377.4,73.2 L390.5,73.2 L403.5,73.2 L416.6,73.2 L429.6,73.2 L442.7,73.2 L455.8,81.2 L468.8,81.2 L481.9,81.2 L494.9,91.2 L508.0,91.2 L521.1,91.2 L534.1,91.2 L547.2,91.2 L560.2,91.2 L573.3,91.3 L586.4,91.3 L599.4,80.9 L612.5,80.9 L625.5,80.9 L638.6,80.9 L651.6,80.9 L664.7,80.9 L677.8,80.9 L690.8,80.9 L703.9,80.9 L716.9,80.9 L730.0,90.0" fill="none" stroke="#2a78d6" stroke-width="2" stroke-linejoin="round" stroke-linecap="round"/>
<circle cx="730.0" cy="90.0" r="6" fill="#fcfcfb"/>
<circle cx="730.0" cy="90.0" r="4" fill="#2a78d6"/>
<path d="M64.0,281.6 L77.1,281.6 L90.1,281.6 L103.2,281.6 L116.2,281.6 L129.3,281.6 L142.4,281.6 L155.4,281.6 L168.5,281.6 L181.5,281.6 L194.6,281.6 L207.6,281.6 L220.7,281.6 L233.8,281.6 L246.8,281.6 L259.9,281.6 L272.9,281.6 L286.0,281.6 L299.1,281.6 L312.1,281.6 L325.2,281.6 L338.2,281.6 L351.3,281.6 L364.4,281.6 L377.4,281.6 L390.5,281.6 L403.5,281.6 L416.6,281.6 L429.6,281.6 L442.7,281.6 L455.8,280.2 L468.8,280.2 L481.9,280.2 L494.9,288.8 L508.0,288.8 L521.1,288.8 L534.1,288.8 L547.2,288.8 L560.2,288.8 L573.3,288.5 L586.4,288.5 L599.4,288.0 L612.5,288.0 L625.5,288.0 L638.6,288.0 L651.6,288.0 L664.7,288.0 L677.8,288.0 L690.8,288.0 L703.9,288.0 L716.9,288.0 L730.0,287.1" fill="none" stroke="#1baf7a" stroke-width="2" stroke-linejoin="round" stroke-linecap="round"/>
<circle cx="730.0" cy="287.1" r="6" fill="#fcfcfb"/>
<circle cx="730.0" cy="287.1" r="4" fill="#1baf7a"/>
<circle cx="745.0" cy="86.5" r="3.5" fill="#2a78d6"/>
<text x="753.0" y="90.0" font-family='system-ui, -apple-system, "Segoe UI", sans-serif' font-size="11" fill="#0b0b0b">overhead</text>
<text x="753.0" y="102.0" font-family='system-ui, -apple-system, "Segoe UI", sans-serif' font-size="10" style="font-variant-numeric: tabular-nums" fill="#52514e">565k</text>
<circle cx="745.0" cy="283.6" r="3.5" fill="#1baf7a"/>
<text x="753.0" y="287.1" font-family='system-ui, -apple-system, "Segoe UI", sans-serif' font-size="11" fill="#0b0b0b">proxy (abs_f32_value)</text>
<text x="753.0" y="299.1" font-family='system-ui, -apple-system, "Segoe UI", sans-serif' font-size="10" style="font-variant-numeric: tabular-nums" fill="#52514e">513k</text>
</svg>