<svg xmlns="http://www.w3.org/2000/svg" width="880" height="340" viewBox="0 0 880 340" role="img" aria-label="Per-node engine overhead">
<rect width="880" height="340" rx="6" fill="#1a1a19"/>
<text x="64" y="24" font-family='system-ui, -apple-system, "Segoe UI", sans-serif' font-size="14" font-weight="600" fill="#ffffff">Per-node engine overhead</text>
<text x="64" y="41" font-family='system-ui, -apple-system, "Segoe UI", sans-serif' font-size="11" fill="#c3c2b7">callgrind instructions of a case that is ~pure engine stepping cost, gated like any operator. Axis zoomed.</text>
<line x1="64" y1="262.2" x2="730" y2="262.2" stroke="#2c2c2a" stroke-width="1"/>
<text x="56" y="265.7" text-anchor="end" font-family='system-ui, -apple-system, "Segoe UI", sans-serif' font-size="11" style="font-variant-numeric: tabular-nums" fill="#898781">520</text>
<line x1="64" y1="186.5" x2="730" y2="186.5" stroke="#2c2c2a" stroke-width="1"/>
<text x="56" y="190.0" text-anchor="end" font-family='system-ui, -apple-system, "Segoe UI", sans-serif' font-size="11" style="font-variant-numeric: tabular-nums" fill="#898781">540</text>
<line x1="64" y1="110.7" x2="730" y2="110.7" stroke="#2c2c2a" stroke-width="1"/>
<text x="56" y="114.2" text-anchor="end" font-family='system-ui, -apple-system, "Segoe UI", sans-serif' font-size="11" style="font-variant-numeric: tabular-nums" fill="#898781">560</text>
<text x="56" y="46" text-anchor="end" font-family='system-ui, -apple-system, "Segoe UI", sans-serif' font-size="10" fill="#898781">Ir (k)</text>
<line x1="64" y1="306" x2="730" y2="306" stroke="#383835" stroke-width="1"/>
<text x="64.0" y="322" text-anchor="middle" font-family='system-ui, -apple-system, "Segoe UI", sans-serif' font-size="11" style="font-variant-numeric: tabular-nums" fill="#898781">07-12</text>
<text x="135.7" y="322" text-anchor="middle" font-family='system-ui, -apple-system, "Segoe UI", sans-serif' font-size="11" style="font-variant-numeric: tabular-nums" fill="#898781">07-14</text>
<text x="227.9" y="322" text-anchor="middle" font-family='system-ui, -apple-system, "Segoe UI", sans-serif' font-size="11" style="font-variant-numeric: tabular-nums" fill="#898781">07-17</text>
<text x="350.9" y="322" text-anchor="middle" font-family='system-ui, -apple-system, "Segoe UI", sans-serif' font-size="11" style="font-variant-numeric: tabular-nums" fill="#898781">07-19</text>
<text x="535.3" y="322" text-anchor="middle" font-family='system-ui, -apple-system, "Segoe UI", sans-serif' font-size="11" style="font-variant-numeric: tabular-nums" fill="#898781">07-21</text>
<text x="730.0" y="322" text-anchor="middle" font-family='system-ui, -apple-system, "Segoe UI", sans-serif' font-size="11" style="font-variant-numeric: tabular-nums" fill="#898781">07-23</text>
<path d="M64.0,73.2 L74.2,73.2 L84.5,73.2 L94.7,73.2 L105.0,73.2 L115.2,73.2 L125.5,73.2 L135.7,73.2 L146.0,73.2 L156.2,73.2 L166.5,73.2 L176.7,73.2 L187.0,73.2 L197.2,73.2 L207.4,73.2 L217.7,73.2 L227.9,73.2 L238.2,73.2 L248.4,73.2 L258.7,73.2 L268.9,73.2 L279.2,73.2 L289.4,73.2 L299.7,73.2 L309.9,73.2 L320.2,73.2 L330.4,73.2 L340.6,73.2 L350.9,73.2 L361.1,73.2 L371.4,81.2 L381.6,81.2 L391.9,81.2 L402.1,91.2 L412.4,91.2 L422.6,91.2 L432.9,91.2 L443.1,91.2 L453.4,91.2 L463.6,91.3 L473.8,91.3 L484.1,80.9 L494.3,80.9 L504.6,80.9 L514.8,80.9 L525.1,80.9 L535.3,80.9 L545.6,80.9 L555.8,80.9 L566.1,80.9 L576.3,80.9 L586.6,90.0 L596.8,90.0 L607.0,90.0 L617.3,90.0 L627.5,90.2 L637.8,95.4 L648.0,95.4 L658.3,95.4 L668.5,95.4 L678.8,95.4 L689.0,95.4 L699.3,95.4 L709.5,95.4 L719.8,95.4 L730.0,95.4" fill="none" stroke="#3987e5" stroke-width="2" stroke-linejoin="round" stroke-linecap="round"/>
<circle cx="730.0" cy="95.4" r="6" fill="#1a1a19"/>
<circle cx="730.0" cy="95.4" r="4" fill="#3987e5"/>
<path d="M64.0,281.6 L74.2,281.6 L84.5,281.6 L94.7,281.6 L105.0,281.6 L115.2,281.6 L125.5,281.6 L135.7,281.6 L146.0,281.6 L156.2,281.6 L166.5,281.6 L176.7,281.6 L187.0,281.6 L197.2,281.6 L207.4,281.6 L217.7,281.6 L227.9,281.6 L238.2,281.6 L248.4,281.6 L258.7,281.6 L268.9,281.6 L279.2,281.6 L289.4,281.6 L299.7,281.6 L309.9,281.6 L320.2,281.6 L330.4,281.6 L340.6,281.6 L350.9,281.6 L361.1,281.6 L371.4,280.2 L381.6,280.2 L391.9,280.2 L402.1,288.8 L412.4,288.8 L422.6,288.8 L432.9,288.8 L443.1,288.8 L453.4,288.8 L463.6,288.5 L473.8,288.5 L484.1,288.0 L494.3,288.0 L504.6,288.0 L514.8,288.0 L525.1,288.0 L535.3,288.0 L545.6,288.0 L555.8,288.0 L566.1,288.0 L576.3,288.0 L586.6,287.1 L596.8,287.1 L607.0,287.1 L617.3,287.1 L627.5,257.8 L637.8,263.2 L648.0,263.2 L658.3,263.2 L668.5,263.2 L678.8,263.2 L689.0,263.2 L699.3,263.2 L709.5,263.2 L719.8,263.2 L730.0,263.2" fill="none" stroke="#199e70" stroke-width="2" stroke-linejoin="round" stroke-linecap="round"/>
<circle cx="730.0" cy="263.2" r="6" fill="#1a1a19"/>
<circle cx="730.0" cy="263.2" r="4" fill="#199e70"/>
<circle cx="745.0" cy="91.9" r="3.5" fill="#3987e5"/>
<text x="753.0" y="95.4" font-family='system-ui, -apple-system, "Segoe UI", sans-serif' font-size="11" fill="#ffffff">overhead</text>
<text x="753.0" y="107.4" font-family='system-ui, -apple-system, "Segoe UI", sans-serif' font-size="10" style="font-variant-numeric: tabular-nums" fill="#c3c2b7">564k</text>
<circle cx="745.0" cy="259.7" r="3.5" fill="#199e70"/>
<text x="753.0" y="263.2" font-family='system-ui, -apple-system, "Segoe UI", sans-serif' font-size="11" fill="#ffffff">proxy (abs_f32_value)</text>
<text x="753.0" y="275.2" font-family='system-ui, -apple-system, "Segoe UI", sans-serif' font-size="10" style="font-variant-numeric: tabular-nums" fill="#c3c2b7">520k</text>
</svg>