<svg xmlns="http://www.w3.org/2000/svg" width="880" height="340" viewBox="0 0 880 340" role="img" aria-label="Per-node engine overhead">
<rect width="880" height="340" rx="6" fill="#1a1a19"/>
<text x="64" y="24" font-family='system-ui, -apple-system, "Segoe UI", sans-serif' font-size="14" font-weight="600" fill="#ffffff">Per-node engine overhead</text>
<text x="64" y="41" font-family='system-ui, -apple-system, "Segoe UI", sans-serif' font-size="11" fill="#c3c2b7">callgrind instructions of a case that is ~pure engine stepping cost, gated like any operator. Axis zoomed.</text>
<line x1="64" y1="262.2" x2="730" y2="262.2" stroke="#2c2c2a" stroke-width="1"/>
<text x="56" y="265.7" text-anchor="end" font-family='system-ui, -apple-system, "Segoe UI", sans-serif' font-size="11" style="font-variant-numeric: tabular-nums" fill="#898781">520</text>
<line x1="64" y1="186.5" x2="730" y2="186.5" stroke="#2c2c2a" stroke-width="1"/>
<text x="56" y="190.0" text-anchor="end" font-family='system-ui, -apple-system, "Segoe UI", sans-serif' font-size="11" style="font-variant-numeric: tabular-nums" fill="#898781">540</text>
<line x1="64" y1="110.7" x2="730" y2="110.7" stroke="#2c2c2a" stroke-width="1"/>
<text x="56" y="114.2" text-anchor="end" font-family='system-ui, -apple-system, "Segoe UI", sans-serif' font-size="11" style="font-variant-numeric: tabular-nums" fill="#898781">560</text>
<text x="56" y="46" text-anchor="end" font-family='system-ui, -apple-system, "Segoe UI", sans-serif' font-size="10" fill="#898781">Ir (k)</text>
<line x1="64" y1="306" x2="730" y2="306" stroke="#383835" stroke-width="1"/>
<text x="64.0" y="322" text-anchor="middle" font-family='system-ui, -apple-system, "Segoe UI", sans-serif' font-size="11" style="font-variant-numeric: tabular-nums" fill="#898781">07-12</text>
<text x="134.6" y="322" text-anchor="middle" font-family='system-ui, -apple-system, "Segoe UI", sans-serif' font-size="11" style="font-variant-numeric: tabular-nums" fill="#898781">07-14</text>
<text x="225.5" y="322" text-anchor="middle" font-family='system-ui, -apple-system, "Segoe UI", sans-serif' font-size="11" style="font-variant-numeric: tabular-nums" fill="#898781">07-17</text>
<text x="346.5" y="322" text-anchor="middle" font-family='system-ui, -apple-system, "Segoe UI", sans-serif' font-size="11" style="font-variant-numeric: tabular-nums" fill="#898781">07-19</text>
<text x="528.2" y="322" text-anchor="middle" font-family='system-ui, -apple-system, "Segoe UI", sans-serif' font-size="11" style="font-variant-numeric: tabular-nums" fill="#898781">07-21</text>
<text x="719.9" y="322" text-anchor="middle" font-family='system-ui, -apple-system, "Segoe UI", sans-serif' font-size="11" style="font-variant-numeric: tabular-nums" fill="#898781">07-23</text>
<path d="M64.0,73.2 L74.1,73.2 L84.2,73.2 L94.3,73.2 L104.4,73.2 L114.5,73.2 L124.5,73.2 L134.6,73.2 L144.7,73.2 L154.8,73.2 L164.9,73.2 L175.0,73.2 L185.1,73.2 L195.2,73.2 L205.3,73.2 L215.4,73.2 L225.5,73.2 L235.5,73.2 L245.6,73.2 L255.7,73.2 L265.8,73.2 L275.9,73.2 L286.0,73.2 L296.1,73.2 L306.2,73.2 L316.3,73.2 L326.4,73.2 L336.5,73.2 L346.5,73.2 L356.6,73.2 L366.7,81.2 L376.8,81.2 L386.9,81.2 L397.0,91.2 L407.1,91.2 L417.2,91.2 L427.3,91.2 L437.4,91.2 L447.5,91.2 L457.5,91.3 L467.6,91.3 L477.7,80.9 L487.8,80.9 L497.9,80.9 L508.0,80.9 L518.1,80.9 L528.2,80.9 L538.3,80.9 L548.4,80.9 L558.5,80.9 L568.5,80.9 L578.6,90.0 L588.7,90.0 L598.8,90.0 L608.9,90.0 L619.0,90.2 L629.1,95.4 L639.2,95.4 L649.3,95.4 L659.4,95.4 L669.5,95.4 L679.5,95.4 L689.6,95.4 L699.7,95.4 L709.8,95.4 L719.9,95.4 L730.0,95.4" fill="none" stroke="#3987e5" stroke-width="2" stroke-linejoin="round" stroke-linecap="round"/>
<circle cx="730.0" cy="95.4" r="6" fill="#1a1a19"/>
<circle cx="730.0" cy="95.4" r="4" fill="#3987e5"/>
<path d="M64.0,281.6 L74.1,281.6 L84.2,281.6 L94.3,281.6 L104.4,281.6 L114.5,281.6 L124.5,281.6 L134.6,281.6 L144.7,281.6 L154.8,281.6 L164.9,281.6 L175.0,281.6 L185.1,281.6 L195.2,281.6 L205.3,281.6 L215.4,281.6 L225.5,281.6 L235.5,281.6 L245.6,281.6 L255.7,281.6 L265.8,281.6 L275.9,281.6 L286.0,281.6 L296.1,281.6 L306.2,281.6 L316.3,281.6 L326.4,281.6 L336.5,281.6 L346.5,281.6 L356.6,281.6 L366.7,280.2 L376.8,280.2 L386.9,280.2 L397.0,288.8 L407.1,288.8 L417.2,288.8 L427.3,288.8 L437.4,288.8 L447.5,288.8 L457.5,288.5 L467.6,288.5 L477.7,288.0 L487.8,288.0 L497.9,288.0 L508.0,288.0 L518.1,288.0 L528.2,288.0 L538.3,288.0 L548.4,288.0 L558.5,288.0 L568.5,288.0 L578.6,287.1 L588.7,287.1 L598.8,287.1 L608.9,287.1 L619.0,257.8 L629.1,263.2 L639.2,263.2 L649.3,263.2 L659.4,263.2 L669.5,263.2 L679.5,263.2 L689.6,263.2 L699.7,263.2 L709.8,263.2 L719.9,263.2 L730.0,263.2" fill="none" stroke="#199e70" stroke-width="2" stroke-linejoin="round" stroke-linecap="round"/>
<circle cx="730.0" cy="263.2" r="6" fill="#1a1a19"/>
<circle cx="730.0" cy="263.2" r="4" fill="#199e70"/>
<circle cx="745.0" cy="91.9" r="3.5" fill="#3987e5"/>
<text x="753.0" y="95.4" font-family='system-ui, -apple-system, "Segoe UI", sans-serif' font-size="11" fill="#ffffff">overhead</text>
<text x="753.0" y="107.4" font-family='system-ui, -apple-system, "Segoe UI", sans-serif' font-size="10" style="font-variant-numeric: tabular-nums" fill="#c3c2b7">564k</text>
<circle cx="745.0" cy="259.7" r="3.5" fill="#199e70"/>
<text x="753.0" y="263.2" font-family='system-ui, -apple-system, "Segoe UI", sans-serif' font-size="11" fill="#ffffff">proxy (abs_f32_value)</text>
<text x="753.0" y="275.2" font-family='system-ui, -apple-system, "Segoe UI", sans-serif' font-size="10" style="font-variant-numeric: tabular-nums" fill="#c3c2b7">520k</text>
</svg>