<svg xmlns="http://www.w3.org/2000/svg" width="880" height="340" viewBox="0 0 880 340" role="img" aria-label="Per-node engine overhead">
<rect width="880" height="340" rx="6" fill="#1a1a19"/>
<text x="64" y="24" font-family='system-ui, -apple-system, "Segoe UI", sans-serif' font-size="14" font-weight="600" fill="#ffffff">Per-node engine overhead</text>
<text x="64" y="41" font-family='system-ui, -apple-system, "Segoe UI", sans-serif' font-size="11" fill="#c3c2b7">callgrind instructions of a case that is ~pure engine stepping cost, gated like any operator. Axis zoomed.</text>
<line x1="64" y1="299.7" x2="730" y2="299.7" stroke="#2c2c2a" stroke-width="1"/>
<text x="56" y="303.2" text-anchor="end" font-family='system-ui, -apple-system, "Segoe UI", sans-serif' font-size="11" style="font-variant-numeric: tabular-nums" fill="#898781">575</text>
<line x1="64" y1="247.6" x2="730" y2="247.6" stroke="#2c2c2a" stroke-width="1"/>
<text x="56" y="251.1" text-anchor="end" font-family='system-ui, -apple-system, "Segoe UI", sans-serif' font-size="11" style="font-variant-numeric: tabular-nums" fill="#898781">600</text>
<line x1="64" y1="195.6" x2="730" y2="195.6" stroke="#2c2c2a" stroke-width="1"/>
<text x="56" y="199.1" text-anchor="end" font-family='system-ui, -apple-system, "Segoe UI", sans-serif' font-size="11" style="font-variant-numeric: tabular-nums" fill="#898781">625</text>
<line x1="64" y1="143.5" x2="730" y2="143.5" stroke="#2c2c2a" stroke-width="1"/>
<text x="56" y="147.0" text-anchor="end" font-family='system-ui, -apple-system, "Segoe UI", sans-serif' font-size="11" style="font-variant-numeric: tabular-nums" fill="#898781">650</text>
<line x1="64" y1="91.5" x2="730" y2="91.5" stroke="#2c2c2a" stroke-width="1"/>
<text x="56" y="95.0" text-anchor="end" font-family='system-ui, -apple-system, "Segoe UI", sans-serif' font-size="11" style="font-variant-numeric: tabular-nums" fill="#898781">675</text>
<text x="56" y="46" text-anchor="end" font-family='system-ui, -apple-system, "Segoe UI", sans-serif' font-size="10" fill="#898781">Ir (k)</text>
<line x1="64" y1="306" x2="730" y2="306" stroke="#383835" stroke-width="1"/>
<text x="64.0" y="322" text-anchor="middle" font-family='system-ui, -apple-system, "Segoe UI", sans-serif' font-size="11" style="font-variant-numeric: tabular-nums" fill="#898781">06-28</text>
<text x="143.9" y="322" text-anchor="middle" font-family='system-ui, -apple-system, "Segoe UI", sans-serif' font-size="11" style="font-variant-numeric: tabular-nums" fill="#898781">06-30</text>
<text x="210.5" y="322" text-anchor="middle" font-family='system-ui, -apple-system, "Segoe UI", sans-serif' font-size="11" style="font-variant-numeric: tabular-nums" fill="#898781">07-02</text>
<text x="357.0" y="322" text-anchor="middle" font-family='system-ui, -apple-system, "Segoe UI", sans-serif' font-size="11" style="font-variant-numeric: tabular-nums" fill="#898781">07-04</text>
<text x="570.2" y="322" text-anchor="middle" font-family='system-ui, -apple-system, "Segoe UI", sans-serif' font-size="11" style="font-variant-numeric: tabular-nums" fill="#898781">07-07</text>
<text x="703.4" y="322" text-anchor="middle" font-family='system-ui, -apple-system, "Segoe UI", sans-serif' font-size="11" style="font-variant-numeric: tabular-nums" fill="#898781">07-09</text>
<path d="M503.6,97.6 L516.9,103.0 L530.2,79.4 L543.5,79.4 L556.8,73.3 L570.2,73.3 L583.5,73.4 L596.8,73.4 L610.1,73.4 L623.4,73.4 L636.8,73.4 L650.1,73.4 L663.4,73.4 L676.7,73.4 L690.0,73.4 L703.4,73.4 L716.7,73.2 L730.0,92.1" fill="none" stroke="#3987e5" stroke-width="2" stroke-linejoin="round" stroke-linecap="round"/>
<circle cx="730.0" cy="92.1" r="6" fill="#1a1a19"/>
<circle cx="730.0" cy="92.1" r="4" fill="#3987e5"/>
<path d="M64.0,280.1 L77.3,280.1 L90.6,280.2 L104.0,280.2 L117.3,280.2 L130.6,288.8 L143.9,270.2 L157.2,201.1 L170.6,215.1 L183.9,204.7 L197.2,214.2 L210.5,214.0 L223.8,214.4 L237.2,213.8 L250.5,213.8 L263.8,213.8 L277.1,213.8 L290.4,213.8 L303.8,213.8 L317.1,213.8 L330.4,213.9 L343.7,212.9 L357.0,212.9 L370.4,212.9 L383.7,212.9 L397.0,212.9 L410.3,217.5 L423.6,201.1 L437.0,201.1 L450.3,201.1 L463.6,201.1 L476.9,201.1 L490.2,193.3 L503.6,202.6 L516.9,201.3 L530.2,157.2 L543.5,157.2 L556.8,172.8 L570.2,172.8 L583.5,173.0 L596.8,173.0 L610.1,173.0 L623.4,173.0 L636.8,173.0 L650.1,173.0 L663.4,173.0 L676.7,173.0 L690.0,173.0 L703.4,173.0 L716.7,172.9 L730.0,190.8" fill="none" stroke="#199e70" stroke-width="2" stroke-linejoin="round" stroke-linecap="round"/>
<circle cx="730.0" cy="190.8" r="6" fill="#1a1a19"/>
<circle cx="730.0" cy="190.8" r="4" fill="#199e70"/>
<circle cx="745.0" cy="88.6" r="3.5" fill="#3987e5"/>
<text x="753.0" y="92.1" font-family='system-ui, -apple-system, "Segoe UI", sans-serif' font-size="11" fill="#ffffff">overhead</text>
<text x="753.0" y="104.1" font-family='system-ui, -apple-system, "Segoe UI", sans-serif' font-size="10" style="font-variant-numeric: tabular-nums" fill="#c3c2b7">675k</text>
<circle cx="745.0" cy="187.3" r="3.5" fill="#199e70"/>
<text x="753.0" y="190.8" font-family='system-ui, -apple-system, "Segoe UI", sans-serif' font-size="11" fill="#ffffff">proxy (abs_f32_value)</text>
<text x="753.0" y="202.8" font-family='system-ui, -apple-system, "Segoe UI", sans-serif' font-size="10" style="font-variant-numeric: tabular-nums" fill="#c3c2b7">627k</text>
</svg>