<svg xmlns="http://www.w3.org/2000/svg" width="880" height="340" viewBox="0 0 880 340" role="img" aria-label="Per-node engine overhead">
<rect width="880" height="340" rx="6" fill="#fcfcfb"/>
<text x="64" y="24" font-family='system-ui, -apple-system, "Segoe UI", sans-serif' font-size="14" font-weight="600" fill="#0b0b0b">Per-node engine overhead</text>
<text x="64" y="41" font-family='system-ui, -apple-system, "Segoe UI", sans-serif' font-size="11" fill="#52514e">callgrind instructions of a case that is ~pure engine stepping cost, gated like any operator. Axis zoomed.</text>
<line x1="64" y1="262.2" x2="730" y2="262.2" stroke="#e1e0d9" stroke-width="1"/>
<text x="56" y="265.7" text-anchor="end" font-family='system-ui, -apple-system, "Segoe UI", sans-serif' font-size="11" style="font-variant-numeric: tabular-nums" fill="#898781">520</text>
<line x1="64" y1="186.5" x2="730" y2="186.5" stroke="#e1e0d9" stroke-width="1"/>
<text x="56" y="190.0" text-anchor="end" font-family='system-ui, -apple-system, "Segoe UI", sans-serif' font-size="11" style="font-variant-numeric: tabular-nums" fill="#898781">540</text>
<line x1="64" y1="110.7" x2="730" y2="110.7" stroke="#e1e0d9" stroke-width="1"/>
<text x="56" y="114.2" text-anchor="end" font-family='system-ui, -apple-system, "Segoe UI", sans-serif' font-size="11" style="font-variant-numeric: tabular-nums" fill="#898781">560</text>
<text x="56" y="46" text-anchor="end" font-family='system-ui, -apple-system, "Segoe UI", sans-serif' font-size="10" fill="#898781">Ir (k)</text>
<line x1="64" y1="306" x2="730" y2="306" stroke="#c3c2b7" stroke-width="1"/>
<text x="64.0" y="322" text-anchor="middle" font-family='system-ui, -apple-system, "Segoe UI", sans-serif' font-size="11" style="font-variant-numeric: tabular-nums" fill="#898781">07-12</text>
<text x="156.9" y="322" text-anchor="middle" font-family='system-ui, -apple-system, "Segoe UI", sans-serif' font-size="11" style="font-variant-numeric: tabular-nums" fill="#898781">07-13</text>
<text x="172.4" y="322" text-anchor="middle" font-family='system-ui, -apple-system, "Segoe UI", sans-serif' font-size="11" style="font-variant-numeric: tabular-nums" fill="#898781">07-14</text>
<text x="187.9" y="322" text-anchor="middle" font-family='system-ui, -apple-system, "Segoe UI", sans-serif' font-size="11" style="font-variant-numeric: tabular-nums" fill="#898781">07-16</text>
<text x="311.8" y="322" text-anchor="middle" font-family='system-ui, -apple-system, "Segoe UI", sans-serif' font-size="11" style="font-variant-numeric: tabular-nums" fill="#898781">07-17</text>
<text x="404.7" y="322" text-anchor="middle" font-family='system-ui, -apple-system, "Segoe UI", sans-serif' font-size="11" style="font-variant-numeric: tabular-nums" fill="#898781">07-18</text>
<text x="497.7" y="322" text-anchor="middle" font-family='system-ui, -apple-system, "Segoe UI", sans-serif' font-size="11" style="font-variant-numeric: tabular-nums" fill="#898781">07-19</text>
<text x="544.1" y="322" text-anchor="middle" font-family='system-ui, -apple-system, "Segoe UI", sans-serif' font-size="11" style="font-variant-numeric: tabular-nums" fill="#898781">07-20</text>
<path d="M64.0,73.2 L79.5,73.2 L95.0,73.2 L110.5,73.2 L126.0,73.2 L141.4,73.2 L156.9,73.2 L172.4,73.2 L187.9,73.2 L203.4,73.2 L218.9,73.2 L234.4,73.2 L249.9,73.2 L265.3,73.2 L280.8,73.2 L296.3,73.2 L311.8,73.2 L327.3,73.2 L342.8,73.2 L358.3,73.2 L373.8,73.2 L389.3,73.2 L404.7,73.2 L420.2,73.2 L435.7,73.2 L451.2,73.2 L466.7,73.2 L482.2,73.2 L497.7,73.2 L513.2,73.2 L528.7,81.2 L544.1,81.2 L559.6,81.2 L575.1,91.2 L590.6,91.2 L606.1,91.2 L621.6,91.2 L637.1,91.2 L652.6,91.2 L668.0,91.3 L683.5,91.3 L699.0,80.9 L714.5,80.9 L730.0,80.9" fill="none" stroke="#2a78d6" stroke-width="2" stroke-linejoin="round" stroke-linecap="round"/>
<circle cx="730.0" cy="80.9" r="6" fill="#fcfcfb"/>
<circle cx="730.0" cy="80.9" r="4" fill="#2a78d6"/>
<path d="M64.0,281.6 L79.5,281.6 L95.0,281.6 L110.5,281.6 L126.0,281.6 L141.4,281.6 L156.9,281.6 L172.4,281.6 L187.9,281.6 L203.4,281.6 L218.9,281.6 L234.4,281.6 L249.9,281.6 L265.3,281.6 L280.8,281.6 L296.3,281.6 L311.8,281.6 L327.3,281.6 L342.8,281.6 L358.3,281.6 L373.8,281.6 L389.3,281.6 L404.7,281.6 L420.2,281.6 L435.7,281.6 L451.2,281.6 L466.7,281.6 L482.2,281.6 L497.7,281.6 L513.2,281.6 L528.7,280.2 L544.1,280.2 L559.6,280.2 L575.1,288.8 L590.6,288.8 L606.1,288.8 L621.6,288.8 L637.1,288.8 L652.6,288.8 L668.0,288.5 L683.5,288.5 L699.0,288.0 L714.5,288.0 L730.0,288.0" fill="none" stroke="#1baf7a" stroke-width="2" stroke-linejoin="round" stroke-linecap="round"/>
<circle cx="730.0" cy="288.0" r="6" fill="#fcfcfb"/>
<circle cx="730.0" cy="288.0" r="4" fill="#1baf7a"/>
<circle cx="745.0" cy="77.4" r="3.5" fill="#2a78d6"/>
<text x="753.0" y="80.9" font-family='system-ui, -apple-system, "Segoe UI", sans-serif' font-size="11" fill="#0b0b0b">overhead</text>
<text x="753.0" y="92.9" font-family='system-ui, -apple-system, "Segoe UI", sans-serif' font-size="10" style="font-variant-numeric: tabular-nums" fill="#52514e">568k</text>
<circle cx="745.0" cy="284.5" r="3.5" fill="#1baf7a"/>
<text x="753.0" y="288.0" font-family='system-ui, -apple-system, "Segoe UI", sans-serif' font-size="11" fill="#0b0b0b">proxy (abs_f32_value)</text>
<text x="753.0" y="300.0" font-family='system-ui, -apple-system, "Segoe UI", sans-serif' font-size="10" style="font-variant-numeric: tabular-nums" fill="#52514e">513k</text>
</svg>