<svg xmlns="http://www.w3.org/2000/svg" width="880" height="340" viewBox="0 0 880 340" role="img" aria-label="Per-node engine overhead">
<rect width="880" height="340" rx="6" fill="#1a1a19"/>
<text x="64" y="24" font-family='system-ui, -apple-system, "Segoe UI", sans-serif' font-size="14" font-weight="600" fill="#ffffff">Per-node engine overhead</text>
<text x="64" y="41" font-family='system-ui, -apple-system, "Segoe UI", sans-serif' font-size="11" fill="#c3c2b7">callgrind instructions of a case that is ~pure engine stepping cost, gated like any operator. Axis zoomed.</text>
<line x1="64" y1="299.7" x2="730" y2="299.7" stroke="#2c2c2a" stroke-width="1"/>
<text x="56" y="303.2" text-anchor="end" font-family='system-ui, -apple-system, "Segoe UI", sans-serif' font-size="11" style="font-variant-numeric: tabular-nums" fill="#898781">575</text>
<line x1="64" y1="247.6" x2="730" y2="247.6" stroke="#2c2c2a" stroke-width="1"/>
<text x="56" y="251.1" text-anchor="end" font-family='system-ui, -apple-system, "Segoe UI", sans-serif' font-size="11" style="font-variant-numeric: tabular-nums" fill="#898781">600</text>
<line x1="64" y1="195.6" x2="730" y2="195.6" stroke="#2c2c2a" stroke-width="1"/>
<text x="56" y="199.1" text-anchor="end" font-family='system-ui, -apple-system, "Segoe UI", sans-serif' font-size="11" style="font-variant-numeric: tabular-nums" fill="#898781">625</text>
<line x1="64" y1="143.5" x2="730" y2="143.5" stroke="#2c2c2a" stroke-width="1"/>
<text x="56" y="147.0" text-anchor="end" font-family='system-ui, -apple-system, "Segoe UI", sans-serif' font-size="11" style="font-variant-numeric: tabular-nums" fill="#898781">650</text>
<line x1="64" y1="91.5" x2="730" y2="91.5" stroke="#2c2c2a" stroke-width="1"/>
<text x="56" y="95.0" text-anchor="end" font-family='system-ui, -apple-system, "Segoe UI", sans-serif' font-size="11" style="font-variant-numeric: tabular-nums" fill="#898781">675</text>
<text x="56" y="46" text-anchor="end" font-family='system-ui, -apple-system, "Segoe UI", sans-serif' font-size="10" fill="#898781">Ir (k)</text>
<line x1="64" y1="306" x2="730" y2="306" stroke="#383835" stroke-width="1"/>
<text x="64.0" y="322" text-anchor="middle" font-family='system-ui, -apple-system, "Segoe UI", sans-serif' font-size="11" style="font-variant-numeric: tabular-nums" fill="#898781">06-28</text>
<text x="142.4" y="322" text-anchor="middle" font-family='system-ui, -apple-system, "Segoe UI", sans-serif' font-size="11" style="font-variant-numeric: tabular-nums" fill="#898781">06-30</text>
<text x="207.6" y="322" text-anchor="middle" font-family='system-ui, -apple-system, "Segoe UI", sans-serif' font-size="11" style="font-variant-numeric: tabular-nums" fill="#898781">07-02</text>
<text x="351.3" y="322" text-anchor="middle" font-family='system-ui, -apple-system, "Segoe UI", sans-serif' font-size="11" style="font-variant-numeric: tabular-nums" fill="#898781">07-04</text>
<text x="560.2" y="322" text-anchor="middle" font-family='system-ui, -apple-system, "Segoe UI", sans-serif' font-size="11" style="font-variant-numeric: tabular-nums" fill="#898781">07-07</text>
<text x="690.8" y="322" text-anchor="middle" font-family='system-ui, -apple-system, "Segoe UI", sans-serif' font-size="11" style="font-variant-numeric: tabular-nums" fill="#898781">07-09</text>
<path d="M494.9,97.6 L508.0,103.0 L521.1,79.4 L534.1,79.4 L547.2,73.3 L560.2,73.3 L573.3,73.4 L586.4,73.4 L599.4,73.4 L612.5,73.4 L625.5,73.4 L638.6,73.4 L651.6,73.4 L664.7,73.4 L677.8,73.4 L690.8,73.4 L703.9,73.2 L716.9,92.1 L730.0,82.7" fill="none" stroke="#3987e5" stroke-width="2" stroke-linejoin="round" stroke-linecap="round"/>
<circle cx="730.0" cy="82.7" r="6" fill="#1a1a19"/>
<circle cx="730.0" cy="82.7" r="4" fill="#3987e5"/>
<path d="M64.0,280.1 L77.1,280.1 L90.1,280.2 L103.2,280.2 L116.2,280.2 L129.3,288.8 L142.4,270.2 L155.4,201.1 L168.5,215.1 L181.5,204.7 L194.6,214.2 L207.6,214.0 L220.7,214.4 L233.8,213.8 L246.8,213.8 L259.9,213.8 L272.9,213.8 L286.0,213.8 L299.1,213.8 L312.1,213.8 L325.2,213.9 L338.2,212.9 L351.3,212.9 L364.4,212.9 L377.4,212.9 L390.5,212.9 L403.5,217.5 L416.6,201.1 L429.6,201.1 L442.7,201.1 L455.8,201.1 L468.8,201.1 L481.9,193.3 L494.9,202.6 L508.0,201.3 L521.1,157.2 L534.1,157.2 L547.2,172.8 L560.2,172.8 L573.3,173.0 L586.4,173.0 L599.4,173.0 L612.5,173.0 L625.5,173.0 L638.6,173.0 L651.6,173.0 L664.7,173.0 L677.8,173.0 L690.8,173.0 L703.9,172.9 L716.9,190.8 L730.0,181.4" fill="none" stroke="#199e70" stroke-width="2" stroke-linejoin="round" stroke-linecap="round"/>
<circle cx="730.0" cy="181.4" r="6" fill="#1a1a19"/>
<circle cx="730.0" cy="181.4" r="4" fill="#199e70"/>
<circle cx="745.0" cy="79.2" r="3.5" fill="#3987e5"/>
<text x="753.0" y="82.7" font-family='system-ui, -apple-system, "Segoe UI", sans-serif' font-size="11" fill="#ffffff">overhead</text>
<text x="753.0" y="94.7" font-family='system-ui, -apple-system, "Segoe UI", sans-serif' font-size="10" style="font-variant-numeric: tabular-nums" fill="#c3c2b7">679k</text>
<circle cx="745.0" cy="177.9" r="3.5" fill="#199e70"/>
<text x="753.0" y="181.4" font-family='system-ui, -apple-system, "Segoe UI", sans-serif' font-size="11" fill="#ffffff">proxy (abs_f32_value)</text>
<text x="753.0" y="193.4" font-family='system-ui, -apple-system, "Segoe UI", sans-serif' font-size="10" style="font-variant-numeric: tabular-nums" fill="#c3c2b7">632k</text>
</svg>