<svg xmlns="http://www.w3.org/2000/svg" width="880" height="340" viewBox="0 0 880 340" role="img" aria-label="Per-node engine overhead">
<rect width="880" height="340" rx="6" fill="#1a1a19"/>
<text x="64" y="24" font-family='system-ui, -apple-system, "Segoe UI", sans-serif' font-size="14" font-weight="600" fill="#ffffff">Per-node engine overhead</text>
<text x="64" y="41" font-family='system-ui, -apple-system, "Segoe UI", sans-serif' font-size="11" fill="#c3c2b7">callgrind instructions of a case that is ~pure engine stepping cost, gated like any operator. Axis zoomed.</text>
<line x1="64" y1="243.9" x2="730" y2="243.9" stroke="#2c2c2a" stroke-width="1"/>
<text x="56" y="247.4" text-anchor="end" font-family='system-ui, -apple-system, "Segoe UI", sans-serif' font-size="11" style="font-variant-numeric: tabular-nums" fill="#898781">550</text>
<line x1="64" y1="180.1" x2="730" y2="180.1" stroke="#2c2c2a" stroke-width="1"/>
<text x="56" y="183.6" text-anchor="end" font-family='system-ui, -apple-system, "Segoe UI", sans-serif' font-size="11" style="font-variant-numeric: tabular-nums" fill="#898781">600</text>
<line x1="64" y1="116.3" x2="730" y2="116.3" stroke="#2c2c2a" stroke-width="1"/>
<text x="56" y="119.8" text-anchor="end" font-family='system-ui, -apple-system, "Segoe UI", sans-serif' font-size="11" style="font-variant-numeric: tabular-nums" fill="#898781">650</text>
<text x="56" y="46" text-anchor="end" font-family='system-ui, -apple-system, "Segoe UI", sans-serif' font-size="10" fill="#898781">Ir (k)</text>
<line x1="64" y1="306" x2="730" y2="306" stroke="#383835" stroke-width="1"/>
<text x="64.0" y="322" text-anchor="middle" font-family='system-ui, -apple-system, "Segoe UI", sans-serif' font-size="11" style="font-variant-numeric: tabular-nums" fill="#898781">06-28</text>
<text x="126.4" y="322" text-anchor="middle" font-family='system-ui, -apple-system, "Segoe UI", sans-serif' font-size="11" style="font-variant-numeric: tabular-nums" fill="#898781">06-30</text>
<text x="178.5" y="322" text-anchor="middle" font-family='system-ui, -apple-system, "Segoe UI", sans-serif' font-size="11" style="font-variant-numeric: tabular-nums" fill="#898781">07-02</text>
<text x="292.9" y="322" text-anchor="middle" font-family='system-ui, -apple-system, "Segoe UI", sans-serif' font-size="11" style="font-variant-numeric: tabular-nums" fill="#898781">07-04</text>
<text x="459.4" y="322" text-anchor="middle" font-family='system-ui, -apple-system, "Segoe UI", sans-serif' font-size="11" style="font-variant-numeric: tabular-nums" fill="#898781">07-07</text>
<text x="563.5" y="322" text-anchor="middle" font-family='system-ui, -apple-system, "Segoe UI", sans-serif' font-size="11" style="font-variant-numeric: tabular-nums" fill="#898781">07-09</text>
<text x="646.8" y="322" text-anchor="middle" font-family='system-ui, -apple-system, "Segoe UI", sans-serif' font-size="11" style="font-variant-numeric: tabular-nums" fill="#898781">07-11</text>
<path d="M407.4,88.2 L417.8,91.5 L428.2,77.0 L438.6,77.0 L449.0,73.3 L459.4,73.3 L469.8,73.4 L480.2,73.4 L490.7,73.4 L501.1,73.4 L511.5,73.4 L521.9,73.4 L532.3,73.4 L542.7,73.4 L553.1,73.4 L563.5,73.4 L573.9,73.2 L584.3,84.8 L594.7,79.1 L605.1,79.1 L615.5,84.4 L625.9,128.1 L636.3,128.2 L646.8,129.8 L657.2,218.6 L667.6,218.6 L678.0,218.6 L688.4,218.6 L698.8,218.6 L709.2,218.6 L719.6,218.6 L730.0,218.6" fill="none" stroke="#3987e5" stroke-width="2" stroke-linejoin="round" stroke-linecap="round"/>
<circle cx="730.0" cy="218.6" r="6" fill="#1a1a19"/>
<circle cx="730.0" cy="218.6" r="4" fill="#3987e5"/>
<path d="M64.0,200.0 L74.4,200.0 L84.8,200.1 L95.2,200.1 L105.6,200.1 L116.0,205.3 L126.4,194.0 L136.8,151.6 L147.2,160.2 L157.7,153.8 L168.1,159.6 L178.5,159.5 L188.9,159.7 L199.3,159.4 L209.7,159.4 L220.1,159.4 L230.5,159.4 L240.9,159.4 L251.3,159.4 L261.7,159.4 L272.1,159.4 L282.5,158.9 L292.9,158.9 L303.3,158.9 L313.8,158.9 L324.2,158.9 L334.6,161.7 L345.0,151.6 L355.4,151.6 L365.8,151.6 L376.2,151.6 L386.6,151.6 L397.0,146.8 L407.4,152.6 L417.8,151.7 L428.2,124.7 L438.6,124.7 L449.0,134.3 L459.4,134.3 L469.8,134.4 L480.2,134.4 L490.7,134.4 L501.1,134.4 L511.5,134.4 L521.9,134.4 L532.3,134.4 L542.7,134.4 L553.1,134.4 L563.5,134.4 L573.9,134.4 L584.3,145.3 L594.7,139.5 L605.1,139.5 L615.5,149.2 L625.9,184.9 L636.3,185.5 L646.8,190.4 L657.2,288.8 L667.6,288.8 L678.0,288.8 L688.4,288.8 L698.8,288.8 L709.2,288.8 L719.6,288.8 L730.0,288.8" fill="none" stroke="#199e70" stroke-width="2" stroke-linejoin="round" stroke-linecap="round"/>
<circle cx="730.0" cy="288.8" r="6" fill="#1a1a19"/>
<circle cx="730.0" cy="288.8" r="4" fill="#199e70"/>
<circle cx="745.0" cy="215.1" r="3.5" fill="#3987e5"/>
<text x="753.0" y="218.6" font-family='system-ui, -apple-system, "Segoe UI", sans-serif' font-size="11" fill="#ffffff">overhead</text>
<text x="753.0" y="230.6" font-family='system-ui, -apple-system, "Segoe UI", sans-serif' font-size="10" style="font-variant-numeric: tabular-nums" fill="#c3c2b7">570k</text>
<circle cx="745.0" cy="285.3" r="3.5" fill="#199e70"/>
<text x="753.0" y="288.8" font-family='system-ui, -apple-system, "Segoe UI", sans-serif' font-size="11" fill="#ffffff">proxy (abs_f32_value)</text>
<text x="753.0" y="300.8" font-family='system-ui, -apple-system, "Segoe UI", sans-serif' font-size="10" style="font-variant-numeric: tabular-nums" fill="#c3c2b7">515k</text>
</svg>