<svg xmlns="http://www.w3.org/2000/svg" width="880" height="340" viewBox="0 0 880 340" role="img" aria-label="Per-node engine overhead">
<rect width="880" height="340" rx="6" fill="#fcfcfb"/>
<text x="64" y="24" font-family='system-ui, -apple-system, "Segoe UI", sans-serif' font-size="14" font-weight="600" fill="#0b0b0b">Per-node engine overhead</text>
<text x="64" y="41" font-family='system-ui, -apple-system, "Segoe UI", sans-serif' font-size="11" fill="#52514e">callgrind instructions of a case that is ~pure engine stepping cost, gated like any operator. Axis zoomed.</text>
<line x1="64" y1="299.7" x2="730" y2="299.7" stroke="#e1e0d9" stroke-width="1"/>
<text x="56" y="303.2" text-anchor="end" font-family='system-ui, -apple-system, "Segoe UI", sans-serif' font-size="11" style="font-variant-numeric: tabular-nums" fill="#898781">575</text>
<line x1="64" y1="247.6" x2="730" y2="247.6" stroke="#e1e0d9" stroke-width="1"/>
<text x="56" y="251.1" text-anchor="end" font-family='system-ui, -apple-system, "Segoe UI", sans-serif' font-size="11" style="font-variant-numeric: tabular-nums" fill="#898781">600</text>
<line x1="64" y1="195.6" x2="730" y2="195.6" stroke="#e1e0d9" stroke-width="1"/>
<text x="56" y="199.1" text-anchor="end" font-family='system-ui, -apple-system, "Segoe UI", sans-serif' font-size="11" style="font-variant-numeric: tabular-nums" fill="#898781">625</text>
<line x1="64" y1="143.5" x2="730" y2="143.5" stroke="#e1e0d9" stroke-width="1"/>
<text x="56" y="147.0" text-anchor="end" font-family='system-ui, -apple-system, "Segoe UI", sans-serif' font-size="11" style="font-variant-numeric: tabular-nums" fill="#898781">650</text>
<line x1="64" y1="91.5" x2="730" y2="91.5" stroke="#e1e0d9" stroke-width="1"/>
<text x="56" y="95.0" text-anchor="end" font-family='system-ui, -apple-system, "Segoe UI", sans-serif' font-size="11" style="font-variant-numeric: tabular-nums" fill="#898781">675</text>
<text x="56" y="46" text-anchor="end" font-family='system-ui, -apple-system, "Segoe UI", sans-serif' font-size="10" fill="#898781">Ir (k)</text>
<line x1="64" y1="306" x2="730" y2="306" stroke="#c3c2b7" stroke-width="1"/>
<text x="64.0" y="322" text-anchor="middle" font-family='system-ui, -apple-system, "Segoe UI", sans-serif' font-size="11" style="font-variant-numeric: tabular-nums" fill="#898781">06-28</text>
<text x="139.4" y="322" text-anchor="middle" font-family='system-ui, -apple-system, "Segoe UI", sans-serif' font-size="11" style="font-variant-numeric: tabular-nums" fill="#898781">06-30</text>
<text x="202.2" y="322" text-anchor="middle" font-family='system-ui, -apple-system, "Segoe UI", sans-serif' font-size="11" style="font-variant-numeric: tabular-nums" fill="#898781">07-02</text>
<text x="340.5" y="322" text-anchor="middle" font-family='system-ui, -apple-system, "Segoe UI", sans-serif' font-size="11" style="font-variant-numeric: tabular-nums" fill="#898781">07-04</text>
<text x="541.5" y="322" text-anchor="middle" font-family='system-ui, -apple-system, "Segoe UI", sans-serif' font-size="11" style="font-variant-numeric: tabular-nums" fill="#898781">07-07</text>
<text x="667.2" y="322" text-anchor="middle" font-family='system-ui, -apple-system, "Segoe UI", sans-serif' font-size="11" style="font-variant-numeric: tabular-nums" fill="#898781">07-09</text>
<path d="M478.7,97.6 L491.2,103.0 L503.8,79.4 L516.4,79.4 L528.9,73.3 L541.5,73.3 L554.1,73.4 L566.6,73.4 L579.2,73.4 L591.8,73.4 L604.3,73.4 L616.9,73.4 L629.5,73.4 L642.0,73.4 L654.6,73.4 L667.2,73.4 L679.7,73.2 L692.3,92.1 L704.9,82.7 L717.4,82.7 L730.0,91.5" fill="none" stroke="#2a78d6" stroke-width="2" stroke-linejoin="round" stroke-linecap="round"/>
<circle cx="730.0" cy="91.5" r="6" fill="#fcfcfb"/>
<circle cx="730.0" cy="91.5" r="4" fill="#2a78d6"/>
<path d="M64.0,280.1 L76.6,280.1 L89.1,280.2 L101.7,280.2 L114.3,280.2 L126.8,288.8 L139.4,270.2 L152.0,201.1 L164.5,215.1 L177.1,204.7 L189.7,214.2 L202.2,214.0 L214.8,214.4 L227.4,213.8 L239.9,213.8 L252.5,213.8 L265.1,213.8 L277.6,213.8 L290.2,213.8 L302.8,213.8 L315.3,213.9 L327.9,212.9 L340.5,212.9 L353.0,212.9 L365.6,212.9 L378.2,212.9 L390.7,217.5 L403.3,201.1 L415.8,201.1 L428.4,201.1 L441.0,201.1 L453.5,201.1 L466.1,193.3 L478.7,202.6 L491.2,201.3 L503.8,157.2 L516.4,157.2 L528.9,172.8 L541.5,172.8 L554.1,173.0 L566.6,173.0 L579.2,173.0 L591.8,173.0 L604.3,173.0 L616.9,173.0 L629.5,173.0 L642.0,173.0 L654.6,173.0 L667.2,173.0 L679.7,172.9 L692.3,190.8 L704.9,181.4 L717.4,181.4 L730.0,197.2" fill="none" stroke="#1baf7a" stroke-width="2" stroke-linejoin="round" stroke-linecap="round"/>
<circle cx="730.0" cy="197.2" r="6" fill="#fcfcfb"/>
<circle cx="730.0" cy="197.2" r="4" fill="#1baf7a"/>
<circle cx="745.0" cy="88.0" r="3.5" fill="#2a78d6"/>
<text x="753.0" y="91.5" font-family='system-ui, -apple-system, "Segoe UI", sans-serif' font-size="11" fill="#0b0b0b">overhead</text>
<text x="753.0" y="103.5" font-family='system-ui, -apple-system, "Segoe UI", sans-serif' font-size="10" style="font-variant-numeric: tabular-nums" fill="#52514e">675k</text>
<circle cx="745.0" cy="193.7" r="3.5" fill="#1baf7a"/>
<text x="753.0" y="197.2" font-family='system-ui, -apple-system, "Segoe UI", sans-serif' font-size="11" fill="#0b0b0b">proxy (abs_f32_value)</text>
<text x="753.0" y="209.2" font-family='system-ui, -apple-system, "Segoe UI", sans-serif' font-size="10" style="font-variant-numeric: tabular-nums" fill="#52514e">624k</text>
</svg>