<svg xmlns="http://www.w3.org/2000/svg" width="880" height="340" viewBox="0 0 880 340" role="img" aria-label="Per-node engine overhead">
<rect width="880" height="340" rx="6" fill="#1a1a19"/>
<text x="64" y="24" font-family='system-ui, -apple-system, "Segoe UI", sans-serif' font-size="14" font-weight="600" fill="#ffffff">Per-node engine overhead</text>
<text x="64" y="41" font-family='system-ui, -apple-system, "Segoe UI", sans-serif' font-size="11" fill="#c3c2b7">callgrind instructions of a case that is ~pure engine stepping cost, gated like any operator. Axis zoomed.</text>
<line x1="64" y1="262.2" x2="730" y2="262.2" stroke="#2c2c2a" stroke-width="1"/>
<text x="56" y="265.7" text-anchor="end" font-family='system-ui, -apple-system, "Segoe UI", sans-serif' font-size="11" style="font-variant-numeric: tabular-nums" fill="#898781">520</text>
<line x1="64" y1="186.5" x2="730" y2="186.5" stroke="#2c2c2a" stroke-width="1"/>
<text x="56" y="190.0" text-anchor="end" font-family='system-ui, -apple-system, "Segoe UI", sans-serif' font-size="11" style="font-variant-numeric: tabular-nums" fill="#898781">540</text>
<line x1="64" y1="110.7" x2="730" y2="110.7" stroke="#2c2c2a" stroke-width="1"/>
<text x="56" y="114.2" text-anchor="end" font-family='system-ui, -apple-system, "Segoe UI", sans-serif' font-size="11" style="font-variant-numeric: tabular-nums" fill="#898781">560</text>
<text x="56" y="46" text-anchor="end" font-family='system-ui, -apple-system, "Segoe UI", sans-serif' font-size="10" fill="#898781">Ir (k)</text>
<line x1="64" y1="306" x2="730" y2="306" stroke="#383835" stroke-width="1"/>
<text x="64.0" y="322" text-anchor="middle" font-family='system-ui, -apple-system, "Segoe UI", sans-serif' font-size="11" style="font-variant-numeric: tabular-nums" fill="#898781">07-12</text>
<text x="165.3" y="322" text-anchor="middle" font-family='system-ui, -apple-system, "Segoe UI", sans-serif' font-size="11" style="font-variant-numeric: tabular-nums" fill="#898781">07-14</text>
<text x="295.7" y="322" text-anchor="middle" font-family='system-ui, -apple-system, "Segoe UI", sans-serif' font-size="11" style="font-variant-numeric: tabular-nums" fill="#898781">07-17</text>
<text x="469.4" y="322" text-anchor="middle" font-family='system-ui, -apple-system, "Segoe UI", sans-serif' font-size="11" style="font-variant-numeric: tabular-nums" fill="#898781">07-19</text>
<text x="730.0" y="322" text-anchor="middle" font-family='system-ui, -apple-system, "Segoe UI", sans-serif' font-size="11" style="font-variant-numeric: tabular-nums" fill="#898781">07-21</text>
<path d="M64.0,73.2 L78.5,73.2 L93.0,73.2 L107.4,73.2 L121.9,73.2 L136.4,73.2 L150.9,73.2 L165.3,73.2 L179.8,73.2 L194.3,73.2 L208.8,73.2 L223.3,73.2 L237.7,73.2 L252.2,73.2 L266.7,73.2 L281.2,73.2 L295.7,73.2 L310.1,73.2 L324.6,73.2 L339.1,73.2 L353.6,73.2 L368.0,73.2 L382.5,73.2 L397.0,73.2 L411.5,73.2 L426.0,73.2 L440.4,73.2 L454.9,73.2 L469.4,73.2 L483.9,73.2 L498.3,81.2 L512.8,81.2 L527.3,81.2 L541.8,91.2 L556.3,91.2 L570.7,91.2 L585.2,91.2 L599.7,91.2 L614.2,91.2 L628.7,91.3 L643.1,91.3 L657.6,80.9 L672.1,80.9 L686.6,80.9 L701.0,80.9 L715.5,80.9 L730.0,80.9" fill="none" stroke="#3987e5" stroke-width="2" stroke-linejoin="round" stroke-linecap="round"/>
<circle cx="730.0" cy="80.9" r="6" fill="#1a1a19"/>
<circle cx="730.0" cy="80.9" r="4" fill="#3987e5"/>
<path d="M64.0,281.6 L78.5,281.6 L93.0,281.6 L107.4,281.6 L121.9,281.6 L136.4,281.6 L150.9,281.6 L165.3,281.6 L179.8,281.6 L194.3,281.6 L208.8,281.6 L223.3,281.6 L237.7,281.6 L252.2,281.6 L266.7,281.6 L281.2,281.6 L295.7,281.6 L310.1,281.6 L324.6,281.6 L339.1,281.6 L353.6,281.6 L368.0,281.6 L382.5,281.6 L397.0,281.6 L411.5,281.6 L426.0,281.6 L440.4,281.6 L454.9,281.6 L469.4,281.6 L483.9,281.6 L498.3,280.2 L512.8,280.2 L527.3,280.2 L541.8,288.8 L556.3,288.8 L570.7,288.8 L585.2,288.8 L599.7,288.8 L614.2,288.8 L628.7,288.5 L643.1,288.5 L657.6,288.0 L672.1,288.0 L686.6,288.0 L701.0,288.0 L715.5,288.0 L730.0,288.0" fill="none" stroke="#199e70" stroke-width="2" stroke-linejoin="round" stroke-linecap="round"/>
<circle cx="730.0" cy="288.0" r="6" fill="#1a1a19"/>
<circle cx="730.0" cy="288.0" r="4" fill="#199e70"/>
<circle cx="745.0" cy="77.4" r="3.5" fill="#3987e5"/>
<text x="753.0" y="80.9" font-family='system-ui, -apple-system, "Segoe UI", sans-serif' font-size="11" fill="#ffffff">overhead</text>
<text x="753.0" y="92.9" font-family='system-ui, -apple-system, "Segoe UI", sans-serif' font-size="10" style="font-variant-numeric: tabular-nums" fill="#c3c2b7">568k</text>
<circle cx="745.0" cy="284.5" r="3.5" fill="#199e70"/>
<text x="753.0" y="288.0" font-family='system-ui, -apple-system, "Segoe UI", sans-serif' font-size="11" fill="#ffffff">proxy (abs_f32_value)</text>
<text x="753.0" y="300.0" font-family='system-ui, -apple-system, "Segoe UI", sans-serif' font-size="10" style="font-variant-numeric: tabular-nums" fill="#c3c2b7">513k</text>
</svg>