<svg xmlns="http://www.w3.org/2000/svg" width="880" height="340" viewBox="0 0 880 340" role="img" aria-label="Per-node engine overhead">
<rect width="880" height="340" rx="6" fill="#fcfcfb"/>
<text x="64" y="24" font-family='system-ui, -apple-system, "Segoe UI", sans-serif' font-size="14" font-weight="600" fill="#0b0b0b">Per-node engine overhead</text>
<text x="64" y="41" font-family='system-ui, -apple-system, "Segoe UI", sans-serif' font-size="11" fill="#52514e">callgrind instructions of a case that is ~pure engine stepping cost, gated like any operator. Axis zoomed.</text>
<line x1="64" y1="262.2" x2="730" y2="262.2" stroke="#e1e0d9" stroke-width="1"/>
<text x="56" y="265.7" text-anchor="end" font-family='system-ui, -apple-system, "Segoe UI", sans-serif' font-size="11" style="font-variant-numeric: tabular-nums" fill="#898781">520</text>
<line x1="64" y1="186.5" x2="730" y2="186.5" stroke="#e1e0d9" stroke-width="1"/>
<text x="56" y="190.0" text-anchor="end" font-family='system-ui, -apple-system, "Segoe UI", sans-serif' font-size="11" style="font-variant-numeric: tabular-nums" fill="#898781">540</text>
<line x1="64" y1="110.7" x2="730" y2="110.7" stroke="#e1e0d9" stroke-width="1"/>
<text x="56" y="114.2" text-anchor="end" font-family='system-ui, -apple-system, "Segoe UI", sans-serif' font-size="11" style="font-variant-numeric: tabular-nums" fill="#898781">560</text>
<text x="56" y="46" text-anchor="end" font-family='system-ui, -apple-system, "Segoe UI", sans-serif' font-size="10" fill="#898781">Ir (k)</text>
<line x1="64" y1="306" x2="730" y2="306" stroke="#c3c2b7" stroke-width="1"/>
<text x="64.0" y="322" text-anchor="middle" font-family='system-ui, -apple-system, "Segoe UI", sans-serif' font-size="11" style="font-variant-numeric: tabular-nums" fill="#898781">07-12</text>
<text x="138.0" y="322" text-anchor="middle" font-family='system-ui, -apple-system, "Segoe UI", sans-serif' font-size="11" style="font-variant-numeric: tabular-nums" fill="#898781">07-14</text>
<text x="233.1" y="322" text-anchor="middle" font-family='system-ui, -apple-system, "Segoe UI", sans-serif' font-size="11" style="font-variant-numeric: tabular-nums" fill="#898781">07-17</text>
<text x="360.0" y="322" text-anchor="middle" font-family='system-ui, -apple-system, "Segoe UI", sans-serif' font-size="11" style="font-variant-numeric: tabular-nums" fill="#898781">07-19</text>
<text x="550.3" y="322" text-anchor="middle" font-family='system-ui, -apple-system, "Segoe UI", sans-serif' font-size="11" style="font-variant-numeric: tabular-nums" fill="#898781">07-21</text>
<path d="M64.0,73.2 L74.6,73.2 L85.1,73.2 L95.7,73.2 L106.3,73.2 L116.9,73.2 L127.4,73.2 L138.0,73.2 L148.6,73.2 L159.1,73.2 L169.7,73.2 L180.3,73.2 L190.9,73.2 L201.4,73.2 L212.0,73.2 L222.6,73.2 L233.1,73.2 L243.7,73.2 L254.3,73.2 L264.9,73.2 L275.4,73.2 L286.0,73.2 L296.6,73.2 L307.1,73.2 L317.7,73.2 L328.3,73.2 L338.9,73.2 L349.4,73.2 L360.0,73.2 L370.6,73.2 L381.1,81.2 L391.7,81.2 L402.3,81.2 L412.9,91.2 L423.4,91.2 L434.0,91.2 L444.6,91.2 L455.1,91.2 L465.7,91.2 L476.3,91.3 L486.9,91.3 L497.4,80.9 L508.0,80.9 L518.6,80.9 L529.1,80.9 L539.7,80.9 L550.3,80.9 L560.9,80.9 L571.4,80.9 L582.0,80.9 L592.6,80.9 L603.1,90.0 L613.7,90.0 L624.3,90.0 L634.9,90.0 L645.4,90.2 L656.0,95.4 L666.6,95.4 L677.1,95.4 L687.7,95.4 L698.3,95.4 L708.9,95.4 L719.4,95.4 L730.0,95.4" fill="none" stroke="#2a78d6" stroke-width="2" stroke-linejoin="round" stroke-linecap="round"/>
<circle cx="730.0" cy="95.4" r="6" fill="#fcfcfb"/>
<circle cx="730.0" cy="95.4" r="4" fill="#2a78d6"/>
<path d="M64.0,281.6 L74.6,281.6 L85.1,281.6 L95.7,281.6 L106.3,281.6 L116.9,281.6 L127.4,281.6 L138.0,281.6 L148.6,281.6 L159.1,281.6 L169.7,281.6 L180.3,281.6 L190.9,281.6 L201.4,281.6 L212.0,281.6 L222.6,281.6 L233.1,281.6 L243.7,281.6 L254.3,281.6 L264.9,281.6 L275.4,281.6 L286.0,281.6 L296.6,281.6 L307.1,281.6 L317.7,281.6 L328.3,281.6 L338.9,281.6 L349.4,281.6 L360.0,281.6 L370.6,281.6 L381.1,280.2 L391.7,280.2 L402.3,280.2 L412.9,288.8 L423.4,288.8 L434.0,288.8 L444.6,288.8 L455.1,288.8 L465.7,288.8 L476.3,288.5 L486.9,288.5 L497.4,288.0 L508.0,288.0 L518.6,288.0 L529.1,288.0 L539.7,288.0 L550.3,288.0 L560.9,288.0 L571.4,288.0 L582.0,288.0 L592.6,288.0 L603.1,287.1 L613.7,287.1 L624.3,287.1 L634.9,287.1 L645.4,257.8 L656.0,263.2 L666.6,263.2 L677.1,263.2 L687.7,263.2 L698.3,263.2 L708.9,263.2 L719.4,263.2 L730.0,263.2" fill="none" stroke="#1baf7a" stroke-width="2" stroke-linejoin="round" stroke-linecap="round"/>
<circle cx="730.0" cy="263.2" r="6" fill="#fcfcfb"/>
<circle cx="730.0" cy="263.2" r="4" fill="#1baf7a"/>
<circle cx="745.0" cy="91.9" r="3.5" fill="#2a78d6"/>
<text x="753.0" y="95.4" font-family='system-ui, -apple-system, "Segoe UI", sans-serif' font-size="11" fill="#0b0b0b">overhead</text>
<text x="753.0" y="107.4" font-family='system-ui, -apple-system, "Segoe UI", sans-serif' font-size="10" style="font-variant-numeric: tabular-nums" fill="#52514e">564k</text>
<circle cx="745.0" cy="259.7" r="3.5" fill="#1baf7a"/>
<text x="753.0" y="263.2" font-family='system-ui, -apple-system, "Segoe UI", sans-serif' font-size="11" fill="#0b0b0b">proxy (abs_f32_value)</text>
<text x="753.0" y="275.2" font-family='system-ui, -apple-system, "Segoe UI", sans-serif' font-size="10" style="font-variant-numeric: tabular-nums" fill="#52514e">520k</text>
</svg>