<svg xmlns="http://www.w3.org/2000/svg" width="880" height="340" viewBox="0 0 880 340" role="img" aria-label="Per-node engine overhead">
<rect width="880" height="340" rx="6" fill="#fcfcfb"/>
<text x="64" y="24" font-family='system-ui, -apple-system, "Segoe UI", sans-serif' font-size="14" font-weight="600" fill="#0b0b0b">Per-node engine overhead</text>
<text x="64" y="41" font-family='system-ui, -apple-system, "Segoe UI", sans-serif' font-size="11" fill="#52514e">callgrind instructions of a case that is ~pure engine stepping cost, gated like any operator. Axis zoomed.</text>
<line x1="64" y1="299.7" x2="730" y2="299.7" stroke="#e1e0d9" stroke-width="1"/>
<text x="56" y="303.2" text-anchor="end" font-family='system-ui, -apple-system, "Segoe UI", sans-serif' font-size="11" style="font-variant-numeric: tabular-nums" fill="#898781">575</text>
<line x1="64" y1="247.6" x2="730" y2="247.6" stroke="#e1e0d9" stroke-width="1"/>
<text x="56" y="251.1" text-anchor="end" font-family='system-ui, -apple-system, "Segoe UI", sans-serif' font-size="11" style="font-variant-numeric: tabular-nums" fill="#898781">600</text>
<line x1="64" y1="195.5" x2="730" y2="195.5" stroke="#e1e0d9" stroke-width="1"/>
<text x="56" y="199.0" text-anchor="end" font-family='system-ui, -apple-system, "Segoe UI", sans-serif' font-size="11" style="font-variant-numeric: tabular-nums" fill="#898781">625</text>
<line x1="64" y1="143.5" x2="730" y2="143.5" stroke="#e1e0d9" stroke-width="1"/>
<text x="56" y="147.0" text-anchor="end" font-family='system-ui, -apple-system, "Segoe UI", sans-serif' font-size="11" style="font-variant-numeric: tabular-nums" fill="#898781">650</text>
<line x1="64" y1="91.4" x2="730" y2="91.4" stroke="#e1e0d9" stroke-width="1"/>
<text x="56" y="94.9" text-anchor="end" font-family='system-ui, -apple-system, "Segoe UI", sans-serif' font-size="11" style="font-variant-numeric: tabular-nums" fill="#898781">675</text>
<text x="56" y="46" text-anchor="end" font-family='system-ui, -apple-system, "Segoe UI", sans-serif' font-size="10" fill="#898781">Ir (k)</text>
<line x1="64" y1="306" x2="730" y2="306" stroke="#c3c2b7" stroke-width="1"/>
<text x="64.0" y="322" text-anchor="middle" font-family='system-ui, -apple-system, "Segoe UI", sans-serif' font-size="11" style="font-variant-numeric: tabular-nums" fill="#898781">06-28</text>
<text x="156.9" y="322" text-anchor="middle" font-family='system-ui, -apple-system, "Segoe UI", sans-serif' font-size="11" style="font-variant-numeric: tabular-nums" fill="#898781">06-30</text>
<text x="234.4" y="322" text-anchor="middle" font-family='system-ui, -apple-system, "Segoe UI", sans-serif' font-size="11" style="font-variant-numeric: tabular-nums" fill="#898781">07-02</text>
<text x="404.7" y="322" text-anchor="middle" font-family='system-ui, -apple-system, "Segoe UI", sans-serif' font-size="11" style="font-variant-numeric: tabular-nums" fill="#898781">07-04</text>
<text x="652.6" y="322" text-anchor="middle" font-family='system-ui, -apple-system, "Segoe UI", sans-serif' font-size="11" style="font-variant-numeric: tabular-nums" fill="#898781">07-07</text>
<path d="M575.1,97.5 L590.6,102.9 L606.1,79.3 L621.6,79.3 L637.1,73.2 L652.6,73.2 L668.0,73.3 L683.5,73.3 L699.0,73.3 L714.5,73.3 L730.0,73.3" fill="none" stroke="#2a78d6" stroke-width="2" stroke-linejoin="round" stroke-linecap="round"/>
<circle cx="730.0" cy="73.3" r="6" fill="#fcfcfb"/>
<circle cx="730.0" cy="73.3" r="4" fill="#2a78d6"/>
<path d="M64.0,280.1 L79.5,280.1 L95.0,280.2 L110.5,280.2 L126.0,280.2 L141.4,288.8 L156.9,270.2 L172.4,201.0 L187.9,215.0 L203.4,204.6 L218.9,214.2 L234.4,213.9 L249.9,214.3 L265.3,213.7 L280.8,213.7 L296.3,213.7 L311.8,213.7 L327.3,213.7 L342.8,213.8 L358.3,213.8 L373.8,213.8 L389.3,212.9 L404.7,212.9 L420.2,212.9 L435.7,212.9 L451.2,212.9 L466.7,217.5 L482.2,201.1 L497.7,201.1 L513.2,201.1 L528.7,201.1 L544.1,201.1 L559.6,193.2 L575.1,202.6 L590.6,201.3 L606.1,157.1 L621.6,157.1 L637.1,172.8 L652.6,172.8 L668.0,172.9 L683.5,172.9 L699.0,172.9 L714.5,172.9 L730.0,172.9" fill="none" stroke="#1baf7a" stroke-width="2" stroke-linejoin="round" stroke-linecap="round"/>
<circle cx="730.0" cy="172.9" r="6" fill="#fcfcfb"/>
<circle cx="730.0" cy="172.9" r="4" fill="#1baf7a"/>
<circle cx="745.0" cy="69.8" r="3.5" fill="#2a78d6"/>
<text x="753.0" y="73.3" font-family='system-ui, -apple-system, "Segoe UI", sans-serif' font-size="11" fill="#0b0b0b">overhead</text>
<text x="753.0" y="85.3" font-family='system-ui, -apple-system, "Segoe UI", sans-serif' font-size="10" style="font-variant-numeric: tabular-nums" fill="#52514e">684k</text>
<circle cx="745.0" cy="169.4" r="3.5" fill="#1baf7a"/>
<text x="753.0" y="172.9" font-family='system-ui, -apple-system, "Segoe UI", sans-serif' font-size="11" fill="#0b0b0b">proxy (abs_f32_value)</text>
<text x="753.0" y="184.9" font-family='system-ui, -apple-system, "Segoe UI", sans-serif' font-size="10" style="font-variant-numeric: tabular-nums" fill="#52514e">636k</text>
</svg>