<svg xmlns="http://www.w3.org/2000/svg" width="880" height="340" viewBox="0 0 880 340" role="img" aria-label="Per-node engine overhead">
<rect width="880" height="340" rx="6" fill="#1a1a19"/>
<text x="64" y="24" font-family='system-ui, -apple-system, "Segoe UI", sans-serif' font-size="14" font-weight="600" fill="#ffffff">Per-node engine overhead</text>
<text x="64" y="41" font-family='system-ui, -apple-system, "Segoe UI", sans-serif' font-size="11" fill="#c3c2b7">callgrind instructions of a case that is ~pure engine stepping cost, gated like any operator. Axis zoomed.</text>
<line x1="64" y1="299.7" x2="730" y2="299.7" stroke="#2c2c2a" stroke-width="1"/>
<text x="56" y="303.2" text-anchor="end" font-family='system-ui, -apple-system, "Segoe UI", sans-serif' font-size="11" style="font-variant-numeric: tabular-nums" fill="#898781">575</text>
<line x1="64" y1="247.6" x2="730" y2="247.6" stroke="#2c2c2a" stroke-width="1"/>
<text x="56" y="251.1" text-anchor="end" font-family='system-ui, -apple-system, "Segoe UI", sans-serif' font-size="11" style="font-variant-numeric: tabular-nums" fill="#898781">600</text>
<line x1="64" y1="195.6" x2="730" y2="195.6" stroke="#2c2c2a" stroke-width="1"/>
<text x="56" y="199.1" text-anchor="end" font-family='system-ui, -apple-system, "Segoe UI", sans-serif' font-size="11" style="font-variant-numeric: tabular-nums" fill="#898781">625</text>
<line x1="64" y1="143.5" x2="730" y2="143.5" stroke="#2c2c2a" stroke-width="1"/>
<text x="56" y="147.0" text-anchor="end" font-family='system-ui, -apple-system, "Segoe UI", sans-serif' font-size="11" style="font-variant-numeric: tabular-nums" fill="#898781">650</text>
<line x1="64" y1="91.5" x2="730" y2="91.5" stroke="#2c2c2a" stroke-width="1"/>
<text x="56" y="95.0" text-anchor="end" font-family='system-ui, -apple-system, "Segoe UI", sans-serif' font-size="11" style="font-variant-numeric: tabular-nums" fill="#898781">675</text>
<text x="56" y="46" text-anchor="end" font-family='system-ui, -apple-system, "Segoe UI", sans-serif' font-size="10" fill="#898781">Ir (k)</text>
<line x1="64" y1="306" x2="730" y2="306" stroke="#383835" stroke-width="1"/>
<text x="64.0" y="322" text-anchor="middle" font-family='system-ui, -apple-system, "Segoe UI", sans-serif' font-size="11" style="font-variant-numeric: tabular-nums" fill="#898781">06-28</text>
<text x="140.8" y="322" text-anchor="middle" font-family='system-ui, -apple-system, "Segoe UI", sans-serif' font-size="11" style="font-variant-numeric: tabular-nums" fill="#898781">06-30</text>
<text x="204.9" y="322" text-anchor="middle" font-family='system-ui, -apple-system, "Segoe UI", sans-serif' font-size="11" style="font-variant-numeric: tabular-nums" fill="#898781">07-02</text>
<text x="345.8" y="322" text-anchor="middle" font-family='system-ui, -apple-system, "Segoe UI", sans-serif' font-size="11" style="font-variant-numeric: tabular-nums" fill="#898781">07-04</text>
<text x="550.7" y="322" text-anchor="middle" font-family='system-ui, -apple-system, "Segoe UI", sans-serif' font-size="11" style="font-variant-numeric: tabular-nums" fill="#898781">07-07</text>
<text x="678.8" y="322" text-anchor="middle" font-family='system-ui, -apple-system, "Segoe UI", sans-serif' font-size="11" style="font-variant-numeric: tabular-nums" fill="#898781">07-09</text>
<path d="M486.7,97.6 L499.5,103.0 L512.3,79.4 L525.1,79.4 L537.9,73.3 L550.7,73.3 L563.5,73.4 L576.3,73.4 L589.1,73.4 L601.9,73.4 L614.7,73.4 L627.5,73.4 L640.3,73.4 L653.2,73.4 L666.0,73.4 L678.8,73.4 L691.6,73.2 L704.4,92.1 L717.2,82.7 L730.0,82.7" fill="none" stroke="#3987e5" stroke-width="2" stroke-linejoin="round" stroke-linecap="round"/>
<circle cx="730.0" cy="82.7" r="6" fill="#1a1a19"/>
<circle cx="730.0" cy="82.7" r="4" fill="#3987e5"/>
<path d="M64.0,280.1 L76.8,280.1 L89.6,280.2 L102.4,280.2 L115.2,280.2 L128.0,288.8 L140.8,270.2 L153.7,201.1 L166.5,215.1 L179.3,204.7 L192.1,214.2 L204.9,214.0 L217.7,214.4 L230.5,213.8 L243.3,213.8 L256.1,213.8 L268.9,213.8 L281.7,213.8 L294.5,213.8 L307.3,213.8 L320.2,213.9 L333.0,212.9 L345.8,212.9 L358.6,212.9 L371.4,212.9 L384.2,212.9 L397.0,217.5 L409.8,201.1 L422.6,201.1 L435.4,201.1 L448.2,201.1 L461.0,201.1 L473.8,193.3 L486.7,202.6 L499.5,201.3 L512.3,157.2 L525.1,157.2 L537.9,172.8 L550.7,172.8 L563.5,173.0 L576.3,173.0 L589.1,173.0 L601.9,173.0 L614.7,173.0 L627.5,173.0 L640.3,173.0 L653.2,173.0 L666.0,173.0 L678.8,173.0 L691.6,172.9 L704.4,190.8 L717.2,181.4 L730.0,181.4" fill="none" stroke="#199e70" stroke-width="2" stroke-linejoin="round" stroke-linecap="round"/>
<circle cx="730.0" cy="181.4" r="6" fill="#1a1a19"/>
<circle cx="730.0" cy="181.4" r="4" fill="#199e70"/>
<circle cx="745.0" cy="79.2" r="3.5" fill="#3987e5"/>
<text x="753.0" y="82.7" font-family='system-ui, -apple-system, "Segoe UI", sans-serif' font-size="11" fill="#ffffff">overhead</text>
<text x="753.0" y="94.7" font-family='system-ui, -apple-system, "Segoe UI", sans-serif' font-size="10" style="font-variant-numeric: tabular-nums" fill="#c3c2b7">679k</text>
<circle cx="745.0" cy="177.9" r="3.5" fill="#199e70"/>
<text x="753.0" y="181.4" font-family='system-ui, -apple-system, "Segoe UI", sans-serif' font-size="11" fill="#ffffff">proxy (abs_f32_value)</text>
<text x="753.0" y="193.4" font-family='system-ui, -apple-system, "Segoe UI", sans-serif' font-size="10" style="font-variant-numeric: tabular-nums" fill="#c3c2b7">632k</text>
</svg>