<svg xmlns="http://www.w3.org/2000/svg" width="880" height="340" viewBox="0 0 880 340" role="img" aria-label="Per-node engine overhead">
<rect width="880" height="340" rx="6" fill="#1a1a19"/>
<text x="64" y="24" font-family='system-ui, -apple-system, "Segoe UI", sans-serif' font-size="14" font-weight="600" fill="#ffffff">Per-node engine overhead</text>
<text x="64" y="41" font-family='system-ui, -apple-system, "Segoe UI", sans-serif' font-size="11" fill="#c3c2b7">callgrind instructions of a case that is ~pure engine stepping cost, gated like any operator. Axis zoomed.</text>
<line x1="64" y1="262.2" x2="730" y2="262.2" stroke="#2c2c2a" stroke-width="1"/>
<text x="56" y="265.7" text-anchor="end" font-family='system-ui, -apple-system, "Segoe UI", sans-serif' font-size="11" style="font-variant-numeric: tabular-nums" fill="#898781">520</text>
<line x1="64" y1="186.5" x2="730" y2="186.5" stroke="#2c2c2a" stroke-width="1"/>
<text x="56" y="190.0" text-anchor="end" font-family='system-ui, -apple-system, "Segoe UI", sans-serif' font-size="11" style="font-variant-numeric: tabular-nums" fill="#898781">540</text>
<line x1="64" y1="110.7" x2="730" y2="110.7" stroke="#2c2c2a" stroke-width="1"/>
<text x="56" y="114.2" text-anchor="end" font-family='system-ui, -apple-system, "Segoe UI", sans-serif' font-size="11" style="font-variant-numeric: tabular-nums" fill="#898781">560</text>
<text x="56" y="46" text-anchor="end" font-family='system-ui, -apple-system, "Segoe UI", sans-serif' font-size="10" fill="#898781">Ir (k)</text>
<line x1="64" y1="306" x2="730" y2="306" stroke="#383835" stroke-width="1"/>
<text x="64.0" y="322" text-anchor="middle" font-family='system-ui, -apple-system, "Segoe UI", sans-serif' font-size="11" style="font-variant-numeric: tabular-nums" fill="#898781">07-12</text>
<text x="157.2" y="322" text-anchor="middle" font-family='system-ui, -apple-system, "Segoe UI", sans-serif' font-size="11" style="font-variant-numeric: tabular-nums" fill="#898781">07-14</text>
<text x="277.1" y="322" text-anchor="middle" font-family='system-ui, -apple-system, "Segoe UI", sans-serif' font-size="11" style="font-variant-numeric: tabular-nums" fill="#898781">07-17</text>
<text x="437.0" y="322" text-anchor="middle" font-family='system-ui, -apple-system, "Segoe UI", sans-serif' font-size="11" style="font-variant-numeric: tabular-nums" fill="#898781">07-19</text>
<text x="676.7" y="322" text-anchor="middle" font-family='system-ui, -apple-system, "Segoe UI", sans-serif' font-size="11" style="font-variant-numeric: tabular-nums" fill="#898781">07-21</text>
<path d="M64.0,73.2 L77.3,73.2 L90.6,73.2 L104.0,73.2 L117.3,73.2 L130.6,73.2 L143.9,73.2 L157.2,73.2 L170.6,73.2 L183.9,73.2 L197.2,73.2 L210.5,73.2 L223.8,73.2 L237.2,73.2 L250.5,73.2 L263.8,73.2 L277.1,73.2 L290.4,73.2 L303.8,73.2 L317.1,73.2 L330.4,73.2 L343.7,73.2 L357.0,73.2 L370.4,73.2 L383.7,73.2 L397.0,73.2 L410.3,73.2 L423.6,73.2 L437.0,73.2 L450.3,73.2 L463.6,81.2 L476.9,81.2 L490.2,81.2 L503.6,91.2 L516.9,91.2 L530.2,91.2 L543.5,91.2 L556.8,91.2 L570.2,91.2 L583.5,91.3 L596.8,91.3 L610.1,80.9 L623.4,80.9 L636.8,80.9 L650.1,80.9 L663.4,80.9 L676.7,80.9 L690.0,80.9 L703.4,80.9 L716.7,80.9 L730.0,80.9" fill="none" stroke="#3987e5" stroke-width="2" stroke-linejoin="round" stroke-linecap="round"/>
<circle cx="730.0" cy="80.9" r="6" fill="#1a1a19"/>
<circle cx="730.0" cy="80.9" r="4" fill="#3987e5"/>
<path d="M64.0,281.6 L77.3,281.6 L90.6,281.6 L104.0,281.6 L117.3,281.6 L130.6,281.6 L143.9,281.6 L157.2,281.6 L170.6,281.6 L183.9,281.6 L197.2,281.6 L210.5,281.6 L223.8,281.6 L237.2,281.6 L250.5,281.6 L263.8,281.6 L277.1,281.6 L290.4,281.6 L303.8,281.6 L317.1,281.6 L330.4,281.6 L343.7,281.6 L357.0,281.6 L370.4,281.6 L383.7,281.6 L397.0,281.6 L410.3,281.6 L423.6,281.6 L437.0,281.6 L450.3,281.6 L463.6,280.2 L476.9,280.2 L490.2,280.2 L503.6,288.8 L516.9,288.8 L530.2,288.8 L543.5,288.8 L556.8,288.8 L570.2,288.8 L583.5,288.5 L596.8,288.5 L610.1,288.0 L623.4,288.0 L636.8,288.0 L650.1,288.0 L663.4,288.0 L676.7,288.0 L690.0,288.0 L703.4,288.0 L716.7,288.0 L730.0,288.0" fill="none" stroke="#199e70" stroke-width="2" stroke-linejoin="round" stroke-linecap="round"/>
<circle cx="730.0" cy="288.0" r="6" fill="#1a1a19"/>
<circle cx="730.0" cy="288.0" r="4" fill="#199e70"/>
<circle cx="745.0" cy="77.4" r="3.5" fill="#3987e5"/>
<text x="753.0" y="80.9" font-family='system-ui, -apple-system, "Segoe UI", sans-serif' font-size="11" fill="#ffffff">overhead</text>
<text x="753.0" y="92.9" font-family='system-ui, -apple-system, "Segoe UI", sans-serif' font-size="10" style="font-variant-numeric: tabular-nums" fill="#c3c2b7">568k</text>
<circle cx="745.0" cy="284.5" r="3.5" fill="#199e70"/>
<text x="753.0" y="288.0" font-family='system-ui, -apple-system, "Segoe UI", sans-serif' font-size="11" fill="#ffffff">proxy (abs_f32_value)</text>
<text x="753.0" y="300.0" font-family='system-ui, -apple-system, "Segoe UI", sans-serif' font-size="10" style="font-variant-numeric: tabular-nums" fill="#c3c2b7">513k</text>
</svg>