<svg xmlns="http://www.w3.org/2000/svg" width="880" height="340" viewBox="0 0 880 340" role="img" aria-label="Per-node engine overhead">
<rect width="880" height="340" rx="6" fill="#1a1a19"/>
<text x="64" y="24" font-family='system-ui, -apple-system, "Segoe UI", sans-serif' font-size="14" font-weight="600" fill="#ffffff">Per-node engine overhead</text>
<text x="64" y="41" font-family='system-ui, -apple-system, "Segoe UI", sans-serif' font-size="11" fill="#c3c2b7">callgrind instructions of a case that is ~pure engine stepping cost, gated like any operator. Axis zoomed.</text>
<line x1="64" y1="268.7" x2="730" y2="268.7" stroke="#2c2c2a" stroke-width="1"/>
<text x="56" y="272.2" text-anchor="end" font-family='system-ui, -apple-system, "Segoe UI", sans-serif' font-size="11" style="font-variant-numeric: tabular-nums" fill="#898781">520</text>
<line x1="64" y1="190.4" x2="730" y2="190.4" stroke="#2c2c2a" stroke-width="1"/>
<text x="56" y="193.9" text-anchor="end" font-family='system-ui, -apple-system, "Segoe UI", sans-serif' font-size="11" style="font-variant-numeric: tabular-nums" fill="#898781">540</text>
<line x1="64" y1="112.0" x2="730" y2="112.0" stroke="#2c2c2a" stroke-width="1"/>
<text x="56" y="115.5" text-anchor="end" font-family='system-ui, -apple-system, "Segoe UI", sans-serif' font-size="11" style="font-variant-numeric: tabular-nums" fill="#898781">560</text>
<text x="56" y="46" text-anchor="end" font-family='system-ui, -apple-system, "Segoe UI", sans-serif' font-size="10" fill="#898781">Ir (k)</text>
<line x1="64" y1="306" x2="730" y2="306" stroke="#383835" stroke-width="1"/>
<text x="64.0" y="322" text-anchor="middle" font-family='system-ui, -apple-system, "Segoe UI", sans-serif' font-size="11" style="font-variant-numeric: tabular-nums" fill="#898781">07-12</text>
<text x="188.9" y="322" text-anchor="middle" font-family='system-ui, -apple-system, "Segoe UI", sans-serif' font-size="11" style="font-variant-numeric: tabular-nums" fill="#898781">07-13</text>
<text x="209.7" y="322" text-anchor="middle" font-family='system-ui, -apple-system, "Segoe UI", sans-serif' font-size="11" style="font-variant-numeric: tabular-nums" fill="#898781">07-14</text>
<text x="230.5" y="322" text-anchor="middle" font-family='system-ui, -apple-system, "Segoe UI", sans-serif' font-size="11" style="font-variant-numeric: tabular-nums" fill="#898781">07-16</text>
<text x="397.0" y="322" text-anchor="middle" font-family='system-ui, -apple-system, "Segoe UI", sans-serif' font-size="11" style="font-variant-numeric: tabular-nums" fill="#898781">07-17</text>
<text x="521.9" y="322" text-anchor="middle" font-family='system-ui, -apple-system, "Segoe UI", sans-serif' font-size="11" style="font-variant-numeric: tabular-nums" fill="#898781">07-18</text>
<text x="646.8" y="322" text-anchor="middle" font-family='system-ui, -apple-system, "Segoe UI", sans-serif' font-size="11" style="font-variant-numeric: tabular-nums" fill="#898781">07-19</text>
<text x="709.2" y="322" text-anchor="middle" font-family='system-ui, -apple-system, "Segoe UI", sans-serif' font-size="11" style="font-variant-numeric: tabular-nums" fill="#898781">07-20</text>
<path d="M64.0,73.2 L84.8,73.2 L105.6,73.2 L126.4,73.2 L147.2,73.2 L168.1,73.2 L188.9,73.2 L209.7,73.2 L230.5,73.2 L251.3,73.2 L272.1,73.2 L292.9,73.2 L313.8,73.2 L334.6,73.2 L355.4,73.2 L376.2,73.2 L397.0,73.2 L417.8,73.2 L438.6,73.2 L459.4,73.2 L480.2,73.2 L501.1,73.2 L521.9,73.2 L542.7,73.2 L563.5,73.2 L584.3,73.2 L605.1,73.2 L625.9,73.2 L646.8,73.2 L667.6,73.2 L688.4,81.5 L709.2,81.5 L730.0,81.5" fill="none" stroke="#3987e5" stroke-width="2" stroke-linejoin="round" stroke-linecap="round"/>
<circle cx="730.0" cy="81.5" r="6" fill="#1a1a19"/>
<circle cx="730.0" cy="81.5" r="4" fill="#3987e5"/>
<path d="M64.0,288.8 L84.8,288.8 L105.6,288.8 L126.4,288.8 L147.2,288.8 L168.1,288.8 L188.9,288.8 L209.7,288.8 L230.5,288.8 L251.3,288.8 L272.1,288.8 L292.9,288.8 L313.8,288.8 L334.6,288.8 L355.4,288.8 L376.2,288.8 L397.0,288.8 L417.8,288.8 L438.6,288.8 L459.4,288.8 L480.2,288.8 L501.1,288.8 L521.9,288.8 L542.7,288.8 L563.5,288.8 L584.3,288.8 L605.1,288.8 L625.9,288.8 L646.8,288.8 L667.6,288.8 L688.4,287.4 L709.2,287.4 L730.0,287.4" fill="none" stroke="#199e70" stroke-width="2" stroke-linejoin="round" stroke-linecap="round"/>
<circle cx="730.0" cy="287.4" r="6" fill="#1a1a19"/>
<circle cx="730.0" cy="287.4" r="4" fill="#199e70"/>
<circle cx="745.0" cy="78.0" r="3.5" fill="#3987e5"/>
<text x="753.0" y="81.5" font-family='system-ui, -apple-system, "Segoe UI", sans-serif' font-size="11" fill="#ffffff">overhead</text>
<text x="753.0" y="93.5" font-family='system-ui, -apple-system, "Segoe UI", sans-serif' font-size="10" style="font-variant-numeric: tabular-nums" fill="#c3c2b7">568k</text>
<circle cx="745.0" cy="283.9" r="3.5" fill="#199e70"/>
<text x="753.0" y="287.4" font-family='system-ui, -apple-system, "Segoe UI", sans-serif' font-size="11" fill="#ffffff">proxy (abs_f32_value)</text>
<text x="753.0" y="299.4" font-family='system-ui, -apple-system, "Segoe UI", sans-serif' font-size="10" style="font-variant-numeric: tabular-nums" fill="#c3c2b7">515k</text>
</svg>