<svg xmlns="http://www.w3.org/2000/svg" width="880" height="340" viewBox="0 0 880 340" role="img" aria-label="Per-node engine overhead">
<rect width="880" height="340" rx="6" fill="#1a1a19"/>
<text x="64" y="24" font-family='system-ui, -apple-system, "Segoe UI", sans-serif' font-size="14" font-weight="600" fill="#ffffff">Per-node engine overhead</text>
<text x="64" y="41" font-family='system-ui, -apple-system, "Segoe UI", sans-serif' font-size="11" fill="#c3c2b7">callgrind instructions of a case that is ~pure engine stepping cost, gated like any operator. Axis zoomed.</text>
<line x1="64" y1="262.2" x2="730" y2="262.2" stroke="#2c2c2a" stroke-width="1"/>
<text x="56" y="265.7" text-anchor="end" font-family='system-ui, -apple-system, "Segoe UI", sans-serif' font-size="11" style="font-variant-numeric: tabular-nums" fill="#898781">520</text>
<line x1="64" y1="186.5" x2="730" y2="186.5" stroke="#2c2c2a" stroke-width="1"/>
<text x="56" y="190.0" text-anchor="end" font-family='system-ui, -apple-system, "Segoe UI", sans-serif' font-size="11" style="font-variant-numeric: tabular-nums" fill="#898781">540</text>
<line x1="64" y1="110.7" x2="730" y2="110.7" stroke="#2c2c2a" stroke-width="1"/>
<text x="56" y="114.2" text-anchor="end" font-family='system-ui, -apple-system, "Segoe UI", sans-serif' font-size="11" style="font-variant-numeric: tabular-nums" fill="#898781">560</text>
<text x="56" y="46" text-anchor="end" font-family='system-ui, -apple-system, "Segoe UI", sans-serif' font-size="10" fill="#898781">Ir (k)</text>
<line x1="64" y1="306" x2="730" y2="306" stroke="#383835" stroke-width="1"/>
<text x="64.0" y="322" text-anchor="middle" font-family='system-ui, -apple-system, "Segoe UI", sans-serif' font-size="11" style="font-variant-numeric: tabular-nums" fill="#898781">07-12</text>
<text x="144.4" y="322" text-anchor="middle" font-family='system-ui, -apple-system, "Segoe UI", sans-serif' font-size="11" style="font-variant-numeric: tabular-nums" fill="#898781">07-14</text>
<text x="247.7" y="322" text-anchor="middle" font-family='system-ui, -apple-system, "Segoe UI", sans-serif' font-size="11" style="font-variant-numeric: tabular-nums" fill="#898781">07-17</text>
<text x="385.5" y="322" text-anchor="middle" font-family='system-ui, -apple-system, "Segoe UI", sans-serif' font-size="11" style="font-variant-numeric: tabular-nums" fill="#898781">07-19</text>
<text x="592.2" y="322" text-anchor="middle" font-family='system-ui, -apple-system, "Segoe UI", sans-serif' font-size="11" style="font-variant-numeric: tabular-nums" fill="#898781">07-21</text>
<path d="M64.0,73.2 L75.5,73.2 L87.0,73.2 L98.4,73.2 L109.9,73.2 L121.4,73.2 L132.9,73.2 L144.4,73.2 L155.9,73.2 L167.3,73.2 L178.8,73.2 L190.3,73.2 L201.8,73.2 L213.3,73.2 L224.8,73.2 L236.2,73.2 L247.7,73.2 L259.2,73.2 L270.7,73.2 L282.2,73.2 L293.7,73.2 L305.1,73.2 L316.6,73.2 L328.1,73.2 L339.6,73.2 L351.1,73.2 L362.6,73.2 L374.0,73.2 L385.5,73.2 L397.0,73.2 L408.5,81.2 L420.0,81.2 L431.4,81.2 L442.9,91.2 L454.4,91.2 L465.9,91.2 L477.4,91.2 L488.9,91.2 L500.3,91.2 L511.8,91.3 L523.3,91.3 L534.8,80.9 L546.3,80.9 L557.8,80.9 L569.2,80.9 L580.7,80.9 L592.2,80.9 L603.7,80.9 L615.2,80.9 L626.7,80.9 L638.1,80.9 L649.6,90.0 L661.1,90.0 L672.6,90.0 L684.1,90.0 L695.6,90.2 L707.0,95.4 L718.5,95.4 L730.0,95.4" fill="none" stroke="#3987e5" stroke-width="2" stroke-linejoin="round" stroke-linecap="round"/>
<circle cx="730.0" cy="95.4" r="6" fill="#1a1a19"/>
<circle cx="730.0" cy="95.4" r="4" fill="#3987e5"/>
<path d="M64.0,281.6 L75.5,281.6 L87.0,281.6 L98.4,281.6 L109.9,281.6 L121.4,281.6 L132.9,281.6 L144.4,281.6 L155.9,281.6 L167.3,281.6 L178.8,281.6 L190.3,281.6 L201.8,281.6 L213.3,281.6 L224.8,281.6 L236.2,281.6 L247.7,281.6 L259.2,281.6 L270.7,281.6 L282.2,281.6 L293.7,281.6 L305.1,281.6 L316.6,281.6 L328.1,281.6 L339.6,281.6 L351.1,281.6 L362.6,281.6 L374.0,281.6 L385.5,281.6 L397.0,281.6 L408.5,280.2 L420.0,280.2 L431.4,280.2 L442.9,288.8 L454.4,288.8 L465.9,288.8 L477.4,288.8 L488.9,288.8 L500.3,288.8 L511.8,288.5 L523.3,288.5 L534.8,288.0 L546.3,288.0 L557.8,288.0 L569.2,288.0 L580.7,288.0 L592.2,288.0 L603.7,288.0 L615.2,288.0 L626.7,288.0 L638.1,288.0 L649.6,287.1 L661.1,287.1 L672.6,287.1 L684.1,287.1 L695.6,257.8 L707.0,263.2 L718.5,263.2 L730.0,263.2" fill="none" stroke="#199e70" stroke-width="2" stroke-linejoin="round" stroke-linecap="round"/>
<circle cx="730.0" cy="263.2" r="6" fill="#1a1a19"/>
<circle cx="730.0" cy="263.2" r="4" fill="#199e70"/>
<circle cx="745.0" cy="91.9" r="3.5" fill="#3987e5"/>
<text x="753.0" y="95.4" font-family='system-ui, -apple-system, "Segoe UI", sans-serif' font-size="11" fill="#ffffff">overhead</text>
<text x="753.0" y="107.4" font-family='system-ui, -apple-system, "Segoe UI", sans-serif' font-size="10" style="font-variant-numeric: tabular-nums" fill="#c3c2b7">564k</text>
<circle cx="745.0" cy="259.7" r="3.5" fill="#199e70"/>
<text x="753.0" y="263.2" font-family='system-ui, -apple-system, "Segoe UI", sans-serif' font-size="11" fill="#ffffff">proxy (abs_f32_value)</text>
<text x="753.0" y="275.2" font-family='system-ui, -apple-system, "Segoe UI", sans-serif' font-size="10" style="font-variant-numeric: tabular-nums" fill="#c3c2b7">520k</text>
</svg>