<svg xmlns="http://www.w3.org/2000/svg" width="880" height="340" viewBox="0 0 880 340" role="img" aria-label="Per-node engine overhead">
<rect width="880" height="340" rx="6" fill="#fcfcfb"/>
<text x="64" y="24" font-family='system-ui, -apple-system, "Segoe UI", sans-serif' font-size="14" font-weight="600" fill="#0b0b0b">Per-node engine overhead</text>
<text x="64" y="41" font-family='system-ui, -apple-system, "Segoe UI", sans-serif' font-size="11" fill="#52514e">callgrind instructions of a case that is ~pure engine stepping cost, gated like any operator. Axis zoomed.</text>
<line x1="64" y1="262.2" x2="730" y2="262.2" stroke="#e1e0d9" stroke-width="1"/>
<text x="56" y="265.7" text-anchor="end" font-family='system-ui, -apple-system, "Segoe UI", sans-serif' font-size="11" style="font-variant-numeric: tabular-nums" fill="#898781">520</text>
<line x1="64" y1="186.5" x2="730" y2="186.5" stroke="#e1e0d9" stroke-width="1"/>
<text x="56" y="190.0" text-anchor="end" font-family='system-ui, -apple-system, "Segoe UI", sans-serif' font-size="11" style="font-variant-numeric: tabular-nums" fill="#898781">540</text>
<line x1="64" y1="110.7" x2="730" y2="110.7" stroke="#e1e0d9" stroke-width="1"/>
<text x="56" y="114.2" text-anchor="end" font-family='system-ui, -apple-system, "Segoe UI", sans-serif' font-size="11" style="font-variant-numeric: tabular-nums" fill="#898781">560</text>
<text x="56" y="46" text-anchor="end" font-family='system-ui, -apple-system, "Segoe UI", sans-serif' font-size="10" fill="#898781">Ir (k)</text>
<line x1="64" y1="306" x2="730" y2="306" stroke="#c3c2b7" stroke-width="1"/>
<text x="64.0" y="322" text-anchor="middle" font-family='system-ui, -apple-system, "Segoe UI", sans-serif' font-size="11" style="font-variant-numeric: tabular-nums" fill="#898781">07-12</text>
<text x="161.1" y="322" text-anchor="middle" font-family='system-ui, -apple-system, "Segoe UI", sans-serif' font-size="11" style="font-variant-numeric: tabular-nums" fill="#898781">07-14</text>
<text x="286.0" y="322" text-anchor="middle" font-family='system-ui, -apple-system, "Segoe UI", sans-serif' font-size="11" style="font-variant-numeric: tabular-nums" fill="#898781">07-17</text>
<text x="452.5" y="322" text-anchor="middle" font-family='system-ui, -apple-system, "Segoe UI", sans-serif' font-size="11" style="font-variant-numeric: tabular-nums" fill="#898781">07-19</text>
<text x="702.2" y="322" text-anchor="middle" font-family='system-ui, -apple-system, "Segoe UI", sans-serif' font-size="11" style="font-variant-numeric: tabular-nums" fill="#898781">07-21</text>
<path d="M64.0,73.2 L77.9,73.2 L91.8,73.2 L105.6,73.2 L119.5,73.2 L133.4,73.2 L147.2,73.2 L161.1,73.2 L175.0,73.2 L188.9,73.2 L202.8,73.2 L216.6,73.2 L230.5,73.2 L244.4,73.2 L258.2,73.2 L272.1,73.2 L286.0,73.2 L299.9,73.2 L313.8,73.2 L327.6,73.2 L341.5,73.2 L355.4,73.2 L369.2,73.2 L383.1,73.2 L397.0,73.2 L410.9,73.2 L424.8,73.2 L438.6,73.2 L452.5,73.2 L466.4,73.2 L480.2,81.2 L494.1,81.2 L508.0,81.2 L521.9,91.2 L535.8,91.2 L549.6,91.2 L563.5,91.2 L577.4,91.2 L591.2,91.2 L605.1,91.3 L619.0,91.3 L632.9,80.9 L646.8,80.9 L660.6,80.9 L674.5,80.9 L688.4,80.9 L702.2,80.9 L716.1,80.9 L730.0,80.9" fill="none" stroke="#2a78d6" stroke-width="2" stroke-linejoin="round" stroke-linecap="round"/>
<circle cx="730.0" cy="80.9" r="6" fill="#fcfcfb"/>
<circle cx="730.0" cy="80.9" r="4" fill="#2a78d6"/>
<path d="M64.0,281.6 L77.9,281.6 L91.8,281.6 L105.6,281.6 L119.5,281.6 L133.4,281.6 L147.2,281.6 L161.1,281.6 L175.0,281.6 L188.9,281.6 L202.8,281.6 L216.6,281.6 L230.5,281.6 L244.4,281.6 L258.2,281.6 L272.1,281.6 L286.0,281.6 L299.9,281.6 L313.8,281.6 L327.6,281.6 L341.5,281.6 L355.4,281.6 L369.2,281.6 L383.1,281.6 L397.0,281.6 L410.9,281.6 L424.8,281.6 L438.6,281.6 L452.5,281.6 L466.4,281.6 L480.2,280.2 L494.1,280.2 L508.0,280.2 L521.9,288.8 L535.8,288.8 L549.6,288.8 L563.5,288.8 L577.4,288.8 L591.2,288.8 L605.1,288.5 L619.0,288.5 L632.9,288.0 L646.8,288.0 L660.6,288.0 L674.5,288.0 L688.4,288.0 L702.2,288.0 L716.1,288.0 L730.0,288.0" fill="none" stroke="#1baf7a" stroke-width="2" stroke-linejoin="round" stroke-linecap="round"/>
<circle cx="730.0" cy="288.0" r="6" fill="#fcfcfb"/>
<circle cx="730.0" cy="288.0" r="4" fill="#1baf7a"/>
<circle cx="745.0" cy="77.4" r="3.5" fill="#2a78d6"/>
<text x="753.0" y="80.9" font-family='system-ui, -apple-system, "Segoe UI", sans-serif' font-size="11" fill="#0b0b0b">overhead</text>
<text x="753.0" y="92.9" font-family='system-ui, -apple-system, "Segoe UI", sans-serif' font-size="10" style="font-variant-numeric: tabular-nums" fill="#52514e">568k</text>
<circle cx="745.0" cy="284.5" r="3.5" fill="#1baf7a"/>
<text x="753.0" y="288.0" font-family='system-ui, -apple-system, "Segoe UI", sans-serif' font-size="11" fill="#0b0b0b">proxy (abs_f32_value)</text>
<text x="753.0" y="300.0" font-family='system-ui, -apple-system, "Segoe UI", sans-serif' font-size="10" style="font-variant-numeric: tabular-nums" fill="#52514e">513k</text>
</svg>