<svg xmlns="http://www.w3.org/2000/svg" width="880" height="340" viewBox="0 0 880 340" role="img" aria-label="Per-node engine overhead">
<rect width="880" height="340" rx="6" fill="#1a1a19"/>
<text x="64" y="24" font-family='system-ui, -apple-system, "Segoe UI", sans-serif' font-size="14" font-weight="600" fill="#ffffff">Per-node engine overhead</text>
<text x="64" y="41" font-family='system-ui, -apple-system, "Segoe UI", sans-serif' font-size="11" fill="#c3c2b7">callgrind instructions of a case that is ~pure engine stepping cost, gated like any operator. Axis zoomed.</text>
<line x1="64" y1="243.9" x2="730" y2="243.9" stroke="#2c2c2a" stroke-width="1"/>
<text x="56" y="247.4" text-anchor="end" font-family='system-ui, -apple-system, "Segoe UI", sans-serif' font-size="11" style="font-variant-numeric: tabular-nums" fill="#898781">550</text>
<line x1="64" y1="180.1" x2="730" y2="180.1" stroke="#2c2c2a" stroke-width="1"/>
<text x="56" y="183.6" text-anchor="end" font-family='system-ui, -apple-system, "Segoe UI", sans-serif' font-size="11" style="font-variant-numeric: tabular-nums" fill="#898781">600</text>
<line x1="64" y1="116.3" x2="730" y2="116.3" stroke="#2c2c2a" stroke-width="1"/>
<text x="56" y="119.8" text-anchor="end" font-family='system-ui, -apple-system, "Segoe UI", sans-serif' font-size="11" style="font-variant-numeric: tabular-nums" fill="#898781">650</text>
<text x="56" y="46" text-anchor="end" font-family='system-ui, -apple-system, "Segoe UI", sans-serif' font-size="10" fill="#898781">Ir (k)</text>
<line x1="64" y1="306" x2="730" y2="306" stroke="#383835" stroke-width="1"/>
<text x="64.0" y="322" text-anchor="middle" font-family='system-ui, -apple-system, "Segoe UI", sans-serif' font-size="11" style="font-variant-numeric: tabular-nums" fill="#898781">06-28</text>
<text x="129.5" y="322" text-anchor="middle" font-family='system-ui, -apple-system, "Segoe UI", sans-serif' font-size="11" style="font-variant-numeric: tabular-nums" fill="#898781">06-30</text>
<text x="184.1" y="322" text-anchor="middle" font-family='system-ui, -apple-system, "Segoe UI", sans-serif' font-size="11" style="font-variant-numeric: tabular-nums" fill="#898781">07-02</text>
<text x="304.2" y="322" text-anchor="middle" font-family='system-ui, -apple-system, "Segoe UI", sans-serif' font-size="11" style="font-variant-numeric: tabular-nums" fill="#898781">07-04</text>
<text x="478.9" y="322" text-anchor="middle" font-family='system-ui, -apple-system, "Segoe UI", sans-serif' font-size="11" style="font-variant-numeric: tabular-nums" fill="#898781">07-07</text>
<text x="588.1" y="322" text-anchor="middle" font-family='system-ui, -apple-system, "Segoe UI", sans-serif' font-size="11" style="font-variant-numeric: tabular-nums" fill="#898781">07-09</text>
<text x="675.4" y="322" text-anchor="middle" font-family='system-ui, -apple-system, "Segoe UI", sans-serif' font-size="11" style="font-variant-numeric: tabular-nums" fill="#898781">07-11</text>
<path d="M424.3,88.2 L435.2,91.5 L446.1,77.0 L457.0,77.0 L468.0,73.3 L478.9,73.3 L489.8,73.4 L500.7,73.4 L511.6,73.4 L522.6,73.4 L533.5,73.4 L544.4,73.4 L555.3,73.4 L566.2,73.4 L577.1,73.4 L588.1,73.4 L599.0,73.2 L609.9,84.8 L620.8,79.1 L631.7,79.1 L642.7,84.4 L653.6,128.1 L664.5,128.2 L675.4,129.8 L686.3,218.6 L697.2,218.6 L708.2,218.6 L719.1,218.6 L730.0,218.6" fill="none" stroke="#3987e5" stroke-width="2" stroke-linejoin="round" stroke-linecap="round"/>
<circle cx="730.0" cy="218.6" r="6" fill="#1a1a19"/>
<circle cx="730.0" cy="218.6" r="4" fill="#3987e5"/>
<path d="M64.0,200.0 L74.9,200.0 L85.8,200.1 L96.8,200.1 L107.7,200.1 L118.6,205.3 L129.5,194.0 L140.4,151.6 L151.3,160.2 L162.3,153.8 L173.2,159.6 L184.1,159.5 L195.0,159.7 L205.9,159.4 L216.9,159.4 L227.8,159.4 L238.7,159.4 L249.6,159.4 L260.5,159.4 L271.4,159.4 L282.4,159.4 L293.3,158.9 L304.2,158.9 L315.1,158.9 L326.0,158.9 L337.0,158.9 L347.9,161.7 L358.8,151.6 L369.7,151.6 L380.6,151.6 L391.5,151.6 L402.5,151.6 L413.4,146.8 L424.3,152.6 L435.2,151.7 L446.1,124.7 L457.0,124.7 L468.0,134.3 L478.9,134.3 L489.8,134.4 L500.7,134.4 L511.6,134.4 L522.6,134.4 L533.5,134.4 L544.4,134.4 L555.3,134.4 L566.2,134.4 L577.1,134.4 L588.1,134.4 L599.0,134.4 L609.9,145.3 L620.8,139.5 L631.7,139.5 L642.7,149.2 L653.6,184.9 L664.5,185.5 L675.4,190.4 L686.3,288.8 L697.2,288.8 L708.2,288.8 L719.1,288.8 L730.0,288.8" fill="none" stroke="#199e70" stroke-width="2" stroke-linejoin="round" stroke-linecap="round"/>
<circle cx="730.0" cy="288.8" r="6" fill="#1a1a19"/>
<circle cx="730.0" cy="288.8" r="4" fill="#199e70"/>
<circle cx="745.0" cy="215.1" r="3.5" fill="#3987e5"/>
<text x="753.0" y="218.6" font-family='system-ui, -apple-system, "Segoe UI", sans-serif' font-size="11" fill="#ffffff">overhead</text>
<text x="753.0" y="230.6" font-family='system-ui, -apple-system, "Segoe UI", sans-serif' font-size="10" style="font-variant-numeric: tabular-nums" fill="#c3c2b7">570k</text>
<circle cx="745.0" cy="285.3" r="3.5" fill="#199e70"/>
<text x="753.0" y="288.8" font-family='system-ui, -apple-system, "Segoe UI", sans-serif' font-size="11" fill="#ffffff">proxy (abs_f32_value)</text>
<text x="753.0" y="300.8" font-family='system-ui, -apple-system, "Segoe UI", sans-serif' font-size="10" style="font-variant-numeric: tabular-nums" fill="#c3c2b7">515k</text>
</svg>