<svg xmlns="http://www.w3.org/2000/svg" width="880" height="340" viewBox="0 0 880 340" role="img" aria-label="Per-node engine overhead">
<rect width="880" height="340" rx="6" fill="#1a1a19"/>
<text x="64" y="24" font-family='system-ui, -apple-system, "Segoe UI", sans-serif' font-size="14" font-weight="600" fill="#ffffff">Per-node engine overhead</text>
<text x="64" y="41" font-family='system-ui, -apple-system, "Segoe UI", sans-serif' font-size="11" fill="#c3c2b7">callgrind instructions of a case that is ~pure engine stepping cost, gated like any operator. Axis zoomed.</text>
<line x1="64" y1="243.9" x2="730" y2="243.9" stroke="#2c2c2a" stroke-width="1"/>
<text x="56" y="247.4" text-anchor="end" font-family='system-ui, -apple-system, "Segoe UI", sans-serif' font-size="11" style="font-variant-numeric: tabular-nums" fill="#898781">550</text>
<line x1="64" y1="180.1" x2="730" y2="180.1" stroke="#2c2c2a" stroke-width="1"/>
<text x="56" y="183.6" text-anchor="end" font-family='system-ui, -apple-system, "Segoe UI", sans-serif' font-size="11" style="font-variant-numeric: tabular-nums" fill="#898781">600</text>
<line x1="64" y1="116.3" x2="730" y2="116.3" stroke="#2c2c2a" stroke-width="1"/>
<text x="56" y="119.8" text-anchor="end" font-family='system-ui, -apple-system, "Segoe UI", sans-serif' font-size="11" style="font-variant-numeric: tabular-nums" fill="#898781">650</text>
<text x="56" y="46" text-anchor="end" font-family='system-ui, -apple-system, "Segoe UI", sans-serif' font-size="10" fill="#898781">Ir (k)</text>
<line x1="64" y1="306" x2="730" y2="306" stroke="#383835" stroke-width="1"/>
<text x="64.0" y="322" text-anchor="middle" font-family='system-ui, -apple-system, "Segoe UI", sans-serif' font-size="11" style="font-variant-numeric: tabular-nums" fill="#898781">06-28</text>
<text x="121.1" y="322" text-anchor="middle" font-family='system-ui, -apple-system, "Segoe UI", sans-serif' font-size="11" style="font-variant-numeric: tabular-nums" fill="#898781">06-30</text>
<text x="168.7" y="322" text-anchor="middle" font-family='system-ui, -apple-system, "Segoe UI", sans-serif' font-size="11" style="font-variant-numeric: tabular-nums" fill="#898781">07-02</text>
<text x="273.3" y="322" text-anchor="middle" font-family='system-ui, -apple-system, "Segoe UI", sans-serif' font-size="11" style="font-variant-numeric: tabular-nums" fill="#898781">07-04</text>
<text x="425.5" y="322" text-anchor="middle" font-family='system-ui, -apple-system, "Segoe UI", sans-serif' font-size="11" style="font-variant-numeric: tabular-nums" fill="#898781">07-07</text>
<text x="520.7" y="322" text-anchor="middle" font-family='system-ui, -apple-system, "Segoe UI", sans-serif' font-size="11" style="font-variant-numeric: tabular-nums" fill="#898781">07-09</text>
<text x="596.8" y="322" text-anchor="middle" font-family='system-ui, -apple-system, "Segoe UI", sans-serif' font-size="11" style="font-variant-numeric: tabular-nums" fill="#898781">07-11</text>
<path d="M378.0,88.2 L387.5,91.5 L397.0,77.0 L406.5,77.0 L416.0,73.3 L425.5,73.3 L435.1,73.4 L444.6,73.4 L454.1,73.4 L463.6,73.4 L473.1,73.4 L482.6,73.4 L492.1,73.4 L501.7,73.4 L511.2,73.4 L520.7,73.4 L530.2,73.2 L539.7,84.8 L549.2,79.1 L558.7,79.1 L568.3,84.4 L577.8,128.1 L587.3,128.2 L596.8,129.8 L606.3,218.6 L615.8,218.6 L625.3,218.6 L634.9,218.6 L644.4,218.6 L653.9,218.6 L663.4,218.6 L672.9,218.6 L682.4,218.6 L691.9,218.6 L701.5,218.6 L711.0,218.6 L720.5,218.6 L730.0,218.6" fill="none" stroke="#3987e5" stroke-width="2" stroke-linejoin="round" stroke-linecap="round"/>
<circle cx="730.0" cy="218.6" r="6" fill="#1a1a19"/>
<circle cx="730.0" cy="218.6" r="4" fill="#3987e5"/>
<path d="M64.0,200.0 L73.5,200.0 L83.0,200.1 L92.5,200.1 L102.1,200.1 L111.6,205.3 L121.1,194.0 L130.6,151.6 L140.1,160.2 L149.6,153.8 L159.1,159.6 L168.7,159.5 L178.2,159.7 L187.7,159.4 L197.2,159.4 L206.7,159.4 L216.2,159.4 L225.7,159.4 L235.3,159.4 L244.8,159.4 L254.3,159.4 L263.8,158.9 L273.3,158.9 L282.8,158.9 L292.3,158.9 L301.9,158.9 L311.4,161.7 L320.9,151.6 L330.4,151.6 L339.9,151.6 L349.4,151.6 L358.9,151.6 L368.5,146.8 L378.0,152.6 L387.5,151.7 L397.0,124.7 L406.5,124.7 L416.0,134.3 L425.5,134.3 L435.1,134.4 L444.6,134.4 L454.1,134.4 L463.6,134.4 L473.1,134.4 L482.6,134.4 L492.1,134.4 L501.7,134.4 L511.2,134.4 L520.7,134.4 L530.2,134.4 L539.7,145.3 L549.2,139.5 L558.7,139.5 L568.3,149.2 L577.8,184.9 L587.3,185.5 L596.8,190.4 L606.3,288.8 L615.8,288.8 L625.3,288.8 L634.9,288.8 L644.4,288.8 L653.9,288.8 L663.4,288.8 L672.9,288.8 L682.4,288.8 L691.9,288.8 L701.5,288.8 L711.0,288.8 L720.5,288.8 L730.0,288.8" fill="none" stroke="#199e70" stroke-width="2" stroke-linejoin="round" stroke-linecap="round"/>
<circle cx="730.0" cy="288.8" r="6" fill="#1a1a19"/>
<circle cx="730.0" cy="288.8" r="4" fill="#199e70"/>
<circle cx="745.0" cy="215.1" r="3.5" fill="#3987e5"/>
<text x="753.0" y="218.6" font-family='system-ui, -apple-system, "Segoe UI", sans-serif' font-size="11" fill="#ffffff">overhead</text>
<text x="753.0" y="230.6" font-family='system-ui, -apple-system, "Segoe UI", sans-serif' font-size="10" style="font-variant-numeric: tabular-nums" fill="#c3c2b7">570k</text>
<circle cx="745.0" cy="285.3" r="3.5" fill="#199e70"/>
<text x="753.0" y="288.8" font-family='system-ui, -apple-system, "Segoe UI", sans-serif' font-size="11" fill="#ffffff">proxy (abs_f32_value)</text>
<text x="753.0" y="300.8" font-family='system-ui, -apple-system, "Segoe UI", sans-serif' font-size="10" style="font-variant-numeric: tabular-nums" fill="#c3c2b7">515k</text>
</svg>