<svg xmlns="http://www.w3.org/2000/svg" width="880" height="340" viewBox="0 0 880 340" role="img" aria-label="Per-node engine overhead">
<rect width="880" height="340" rx="6" fill="#1a1a19"/>
<text x="64" y="24" font-family='system-ui, -apple-system, "Segoe UI", sans-serif' font-size="14" font-weight="600" fill="#ffffff">Per-node engine overhead</text>
<text x="64" y="41" font-family='system-ui, -apple-system, "Segoe UI", sans-serif' font-size="11" fill="#c3c2b7">callgrind instructions of a case that is ~pure engine stepping cost, gated like any operator. Axis zoomed.</text>
<line x1="64" y1="262.2" x2="730" y2="262.2" stroke="#2c2c2a" stroke-width="1"/>
<text x="56" y="265.7" text-anchor="end" font-family='system-ui, -apple-system, "Segoe UI", sans-serif' font-size="11" style="font-variant-numeric: tabular-nums" fill="#898781">520</text>
<line x1="64" y1="186.5" x2="730" y2="186.5" stroke="#2c2c2a" stroke-width="1"/>
<text x="56" y="190.0" text-anchor="end" font-family='system-ui, -apple-system, "Segoe UI", sans-serif' font-size="11" style="font-variant-numeric: tabular-nums" fill="#898781">540</text>
<line x1="64" y1="110.7" x2="730" y2="110.7" stroke="#2c2c2a" stroke-width="1"/>
<text x="56" y="114.2" text-anchor="end" font-family='system-ui, -apple-system, "Segoe UI", sans-serif' font-size="11" style="font-variant-numeric: tabular-nums" fill="#898781">560</text>
<text x="56" y="46" text-anchor="end" font-family='system-ui, -apple-system, "Segoe UI", sans-serif' font-size="10" fill="#898781">Ir (k)</text>
<line x1="64" y1="306" x2="730" y2="306" stroke="#383835" stroke-width="1"/>
<text x="64.0" y="322" text-anchor="middle" font-family='system-ui, -apple-system, "Segoe UI", sans-serif' font-size="11" style="font-variant-numeric: tabular-nums" fill="#898781">07-12</text>
<text x="145.8" y="322" text-anchor="middle" font-family='system-ui, -apple-system, "Segoe UI", sans-serif' font-size="11" style="font-variant-numeric: tabular-nums" fill="#898781">07-14</text>
<text x="250.9" y="322" text-anchor="middle" font-family='system-ui, -apple-system, "Segoe UI", sans-serif' font-size="11" style="font-variant-numeric: tabular-nums" fill="#898781">07-17</text>
<text x="391.2" y="322" text-anchor="middle" font-family='system-ui, -apple-system, "Segoe UI", sans-serif' font-size="11" style="font-variant-numeric: tabular-nums" fill="#898781">07-19</text>
<text x="601.5" y="322" text-anchor="middle" font-family='system-ui, -apple-system, "Segoe UI", sans-serif' font-size="11" style="font-variant-numeric: tabular-nums" fill="#898781">07-21</text>
<path d="M64.0,73.2 L75.7,73.2 L87.4,73.2 L99.1,73.2 L110.7,73.2 L122.4,73.2 L134.1,73.2 L145.8,73.2 L157.5,73.2 L169.2,73.2 L180.8,73.2 L192.5,73.2 L204.2,73.2 L215.9,73.2 L227.6,73.2 L239.3,73.2 L250.9,73.2 L262.6,73.2 L274.3,73.2 L286.0,73.2 L297.7,73.2 L309.4,73.2 L321.1,73.2 L332.7,73.2 L344.4,73.2 L356.1,73.2 L367.8,73.2 L379.5,73.2 L391.2,73.2 L402.8,73.2 L414.5,81.2 L426.2,81.2 L437.9,81.2 L449.6,91.2 L461.3,91.2 L472.9,91.2 L484.6,91.2 L496.3,91.2 L508.0,91.2 L519.7,91.3 L531.4,91.3 L543.1,80.9 L554.7,80.9 L566.4,80.9 L578.1,80.9 L589.8,80.9 L601.5,80.9 L613.2,80.9 L624.8,80.9 L636.5,80.9 L648.2,80.9 L659.9,90.0 L671.6,90.0 L683.3,90.0 L694.9,90.0 L706.6,90.2 L718.3,95.4 L730.0,95.4" fill="none" stroke="#3987e5" stroke-width="2" stroke-linejoin="round" stroke-linecap="round"/>
<circle cx="730.0" cy="95.4" r="6" fill="#1a1a19"/>
<circle cx="730.0" cy="95.4" r="4" fill="#3987e5"/>
<path d="M64.0,281.6 L75.7,281.6 L87.4,281.6 L99.1,281.6 L110.7,281.6 L122.4,281.6 L134.1,281.6 L145.8,281.6 L157.5,281.6 L169.2,281.6 L180.8,281.6 L192.5,281.6 L204.2,281.6 L215.9,281.6 L227.6,281.6 L239.3,281.6 L250.9,281.6 L262.6,281.6 L274.3,281.6 L286.0,281.6 L297.7,281.6 L309.4,281.6 L321.1,281.6 L332.7,281.6 L344.4,281.6 L356.1,281.6 L367.8,281.6 L379.5,281.6 L391.2,281.6 L402.8,281.6 L414.5,280.2 L426.2,280.2 L437.9,280.2 L449.6,288.8 L461.3,288.8 L472.9,288.8 L484.6,288.8 L496.3,288.8 L508.0,288.8 L519.7,288.5 L531.4,288.5 L543.1,288.0 L554.7,288.0 L566.4,288.0 L578.1,288.0 L589.8,288.0 L601.5,288.0 L613.2,288.0 L624.8,288.0 L636.5,288.0 L648.2,288.0 L659.9,287.1 L671.6,287.1 L683.3,287.1 L694.9,287.1 L706.6,257.8 L718.3,263.2 L730.0,263.2" fill="none" stroke="#199e70" stroke-width="2" stroke-linejoin="round" stroke-linecap="round"/>
<circle cx="730.0" cy="263.2" r="6" fill="#1a1a19"/>
<circle cx="730.0" cy="263.2" r="4" fill="#199e70"/>
<circle cx="745.0" cy="91.9" r="3.5" fill="#3987e5"/>
<text x="753.0" y="95.4" font-family='system-ui, -apple-system, "Segoe UI", sans-serif' font-size="11" fill="#ffffff">overhead</text>
<text x="753.0" y="107.4" font-family='system-ui, -apple-system, "Segoe UI", sans-serif' font-size="10" style="font-variant-numeric: tabular-nums" fill="#c3c2b7">564k</text>
<circle cx="745.0" cy="259.7" r="3.5" fill="#199e70"/>
<text x="753.0" y="263.2" font-family='system-ui, -apple-system, "Segoe UI", sans-serif' font-size="11" fill="#ffffff">proxy (abs_f32_value)</text>
<text x="753.0" y="275.2" font-family='system-ui, -apple-system, "Segoe UI", sans-serif' font-size="10" style="font-variant-numeric: tabular-nums" fill="#c3c2b7">520k</text>
</svg>