<svg xmlns="http://www.w3.org/2000/svg" width="880" height="340" viewBox="0 0 880 340" role="img" aria-label="Per-node engine overhead">
<rect width="880" height="340" rx="6" fill="#fcfcfb"/>
<text x="64" y="24" font-family='system-ui, -apple-system, "Segoe UI", sans-serif' font-size="14" font-weight="600" fill="#0b0b0b">Per-node engine overhead</text>
<text x="64" y="41" font-family='system-ui, -apple-system, "Segoe UI", sans-serif' font-size="11" fill="#52514e">callgrind instructions of a case that is ~pure engine stepping cost, gated like any operator. Axis zoomed.</text>
<line x1="64" y1="299.7" x2="730" y2="299.7" stroke="#e1e0d9" stroke-width="1"/>
<text x="56" y="303.2" text-anchor="end" font-family='system-ui, -apple-system, "Segoe UI", sans-serif' font-size="11" style="font-variant-numeric: tabular-nums" fill="#898781">575</text>
<line x1="64" y1="247.6" x2="730" y2="247.6" stroke="#e1e0d9" stroke-width="1"/>
<text x="56" y="251.1" text-anchor="end" font-family='system-ui, -apple-system, "Segoe UI", sans-serif' font-size="11" style="font-variant-numeric: tabular-nums" fill="#898781">600</text>
<line x1="64" y1="195.6" x2="730" y2="195.6" stroke="#e1e0d9" stroke-width="1"/>
<text x="56" y="199.1" text-anchor="end" font-family='system-ui, -apple-system, "Segoe UI", sans-serif' font-size="11" style="font-variant-numeric: tabular-nums" fill="#898781">625</text>
<line x1="64" y1="143.5" x2="730" y2="143.5" stroke="#e1e0d9" stroke-width="1"/>
<text x="56" y="147.0" text-anchor="end" font-family='system-ui, -apple-system, "Segoe UI", sans-serif' font-size="11" style="font-variant-numeric: tabular-nums" fill="#898781">650</text>
<line x1="64" y1="91.5" x2="730" y2="91.5" stroke="#e1e0d9" stroke-width="1"/>
<text x="56" y="95.0" text-anchor="end" font-family='system-ui, -apple-system, "Segoe UI", sans-serif' font-size="11" style="font-variant-numeric: tabular-nums" fill="#898781">675</text>
<text x="56" y="46" text-anchor="end" font-family='system-ui, -apple-system, "Segoe UI", sans-serif' font-size="10" fill="#898781">Ir (k)</text>
<line x1="64" y1="306" x2="730" y2="306" stroke="#c3c2b7" stroke-width="1"/>
<text x="64.0" y="322" text-anchor="middle" font-family='system-ui, -apple-system, "Segoe UI", sans-serif' font-size="11" style="font-variant-numeric: tabular-nums" fill="#898781">06-28</text>
<text x="145.6" y="322" text-anchor="middle" font-family='system-ui, -apple-system, "Segoe UI", sans-serif' font-size="11" style="font-variant-numeric: tabular-nums" fill="#898781">06-30</text>
<text x="213.5" y="322" text-anchor="middle" font-family='system-ui, -apple-system, "Segoe UI", sans-serif' font-size="11" style="font-variant-numeric: tabular-nums" fill="#898781">07-02</text>
<text x="363.0" y="322" text-anchor="middle" font-family='system-ui, -apple-system, "Segoe UI", sans-serif' font-size="11" style="font-variant-numeric: tabular-nums" fill="#898781">07-04</text>
<text x="580.5" y="322" text-anchor="middle" font-family='system-ui, -apple-system, "Segoe UI", sans-serif' font-size="11" style="font-variant-numeric: tabular-nums" fill="#898781">07-07</text>
<text x="716.4" y="322" text-anchor="middle" font-family='system-ui, -apple-system, "Segoe UI", sans-serif' font-size="11" style="font-variant-numeric: tabular-nums" fill="#898781">07-09</text>
<path d="M512.5,97.6 L526.1,103.0 L539.7,79.4 L553.3,79.4 L566.9,73.3 L580.5,73.3 L594.1,73.4 L607.7,73.4 L621.3,73.4 L634.9,73.4 L648.4,73.4 L662.0,73.4 L675.6,73.4 L689.2,73.4 L702.8,73.4 L716.4,73.4 L730.0,73.2" fill="none" stroke="#2a78d6" stroke-width="2" stroke-linejoin="round" stroke-linecap="round"/>
<circle cx="730.0" cy="73.2" r="6" fill="#fcfcfb"/>
<circle cx="730.0" cy="73.2" r="4" fill="#2a78d6"/>
<path d="M64.0,280.1 L77.6,280.1 L91.2,280.2 L104.8,280.2 L118.4,280.2 L132.0,288.8 L145.6,270.2 L159.1,201.1 L172.7,215.1 L186.3,204.7 L199.9,214.2 L213.5,214.0 L227.1,214.4 L240.7,213.8 L254.3,213.8 L267.9,213.8 L281.5,213.8 L295.1,213.8 L308.7,213.8 L322.2,213.8 L335.8,213.9 L349.4,212.9 L363.0,212.9 L376.6,212.9 L390.2,212.9 L403.8,212.9 L417.4,217.5 L431.0,201.1 L444.6,201.1 L458.2,201.1 L471.8,201.1 L485.3,201.1 L498.9,193.3 L512.5,202.6 L526.1,201.3 L539.7,157.2 L553.3,157.2 L566.9,172.8 L580.5,172.8 L594.1,173.0 L607.7,173.0 L621.3,173.0 L634.9,173.0 L648.4,173.0 L662.0,173.0 L675.6,173.0 L689.2,173.0 L702.8,173.0 L716.4,173.0 L730.0,172.9" fill="none" stroke="#1baf7a" stroke-width="2" stroke-linejoin="round" stroke-linecap="round"/>
<circle cx="730.0" cy="172.9" r="6" fill="#fcfcfb"/>
<circle cx="730.0" cy="172.9" r="4" fill="#1baf7a"/>
<circle cx="745.0" cy="69.7" r="3.5" fill="#2a78d6"/>
<text x="753.0" y="73.2" font-family='system-ui, -apple-system, "Segoe UI", sans-serif' font-size="11" fill="#0b0b0b">overhead</text>
<text x="753.0" y="85.2" font-family='system-ui, -apple-system, "Segoe UI", sans-serif' font-size="10" style="font-variant-numeric: tabular-nums" fill="#52514e">684k</text>
<circle cx="745.0" cy="169.4" r="3.5" fill="#1baf7a"/>
<text x="753.0" y="172.9" font-family='system-ui, -apple-system, "Segoe UI", sans-serif' font-size="11" fill="#0b0b0b">proxy (abs_f32_value)</text>
<text x="753.0" y="184.9" font-family='system-ui, -apple-system, "Segoe UI", sans-serif' font-size="10" style="font-variant-numeric: tabular-nums" fill="#52514e">636k</text>
</svg>