<svg xmlns="http://www.w3.org/2000/svg" width="880" height="340" viewBox="0 0 880 340" role="img" aria-label="Per-node engine overhead">
<rect width="880" height="340" rx="6" fill="#fcfcfb"/>
<text x="64" y="24" font-family='system-ui, -apple-system, "Segoe UI", sans-serif' font-size="14" font-weight="600" fill="#0b0b0b">Per-node engine overhead</text>
<text x="64" y="41" font-family='system-ui, -apple-system, "Segoe UI", sans-serif' font-size="11" fill="#52514e">callgrind instructions of a case that is ~pure engine stepping cost, gated like any operator. Axis zoomed.</text>
<line x1="64" y1="262.2" x2="730" y2="262.2" stroke="#e1e0d9" stroke-width="1"/>
<text x="56" y="265.7" text-anchor="end" font-family='system-ui, -apple-system, "Segoe UI", sans-serif' font-size="11" style="font-variant-numeric: tabular-nums" fill="#898781">520</text>
<line x1="64" y1="186.5" x2="730" y2="186.5" stroke="#e1e0d9" stroke-width="1"/>
<text x="56" y="190.0" text-anchor="end" font-family='system-ui, -apple-system, "Segoe UI", sans-serif' font-size="11" style="font-variant-numeric: tabular-nums" fill="#898781">540</text>
<line x1="64" y1="110.7" x2="730" y2="110.7" stroke="#e1e0d9" stroke-width="1"/>
<text x="56" y="114.2" text-anchor="end" font-family='system-ui, -apple-system, "Segoe UI", sans-serif' font-size="11" style="font-variant-numeric: tabular-nums" fill="#898781">560</text>
<text x="56" y="46" text-anchor="end" font-family='system-ui, -apple-system, "Segoe UI", sans-serif' font-size="10" fill="#898781">Ir (k)</text>
<line x1="64" y1="306" x2="730" y2="306" stroke="#c3c2b7" stroke-width="1"/>
<text x="64.0" y="322" text-anchor="middle" font-family='system-ui, -apple-system, "Segoe UI", sans-serif' font-size="11" style="font-variant-numeric: tabular-nums" fill="#898781">07-12</text>
<text x="150.3" y="322" text-anchor="middle" font-family='system-ui, -apple-system, "Segoe UI", sans-serif' font-size="11" style="font-variant-numeric: tabular-nums" fill="#898781">07-14</text>
<text x="261.3" y="322" text-anchor="middle" font-family='system-ui, -apple-system, "Segoe UI", sans-serif' font-size="11" style="font-variant-numeric: tabular-nums" fill="#898781">07-17</text>
<text x="409.3" y="322" text-anchor="middle" font-family='system-ui, -apple-system, "Segoe UI", sans-serif' font-size="11" style="font-variant-numeric: tabular-nums" fill="#898781">07-19</text>
<text x="631.3" y="322" text-anchor="middle" font-family='system-ui, -apple-system, "Segoe UI", sans-serif' font-size="11" style="font-variant-numeric: tabular-nums" fill="#898781">07-21</text>
<path d="M64.0,73.2 L76.3,73.2 L88.7,73.2 L101.0,73.2 L113.3,73.2 L125.7,73.2 L138.0,73.2 L150.3,73.2 L162.7,73.2 L175.0,73.2 L187.3,73.2 L199.7,73.2 L212.0,73.2 L224.3,73.2 L236.7,73.2 L249.0,73.2 L261.3,73.2 L273.7,73.2 L286.0,73.2 L298.3,73.2 L310.7,73.2 L323.0,73.2 L335.3,73.2 L347.7,73.2 L360.0,73.2 L372.3,73.2 L384.7,73.2 L397.0,73.2 L409.3,73.2 L421.7,73.2 L434.0,81.2 L446.3,81.2 L458.7,81.2 L471.0,91.2 L483.3,91.2 L495.7,91.2 L508.0,91.2 L520.3,91.2 L532.7,91.2 L545.0,91.3 L557.3,91.3 L569.7,80.9 L582.0,80.9 L594.3,80.9 L606.7,80.9 L619.0,80.9 L631.3,80.9 L643.7,80.9 L656.0,80.9 L668.3,80.9 L680.7,80.9 L693.0,90.0 L705.3,90.0 L717.7,90.0 L730.0,90.0" fill="none" stroke="#2a78d6" stroke-width="2" stroke-linejoin="round" stroke-linecap="round"/>
<circle cx="730.0" cy="90.0" r="6" fill="#fcfcfb"/>
<circle cx="730.0" cy="90.0" r="4" fill="#2a78d6"/>
<path d="M64.0,281.6 L76.3,281.6 L88.7,281.6 L101.0,281.6 L113.3,281.6 L125.7,281.6 L138.0,281.6 L150.3,281.6 L162.7,281.6 L175.0,281.6 L187.3,281.6 L199.7,281.6 L212.0,281.6 L224.3,281.6 L236.7,281.6 L249.0,281.6 L261.3,281.6 L273.7,281.6 L286.0,281.6 L298.3,281.6 L310.7,281.6 L323.0,281.6 L335.3,281.6 L347.7,281.6 L360.0,281.6 L372.3,281.6 L384.7,281.6 L397.0,281.6 L409.3,281.6 L421.7,281.6 L434.0,280.2 L446.3,280.2 L458.7,280.2 L471.0,288.8 L483.3,288.8 L495.7,288.8 L508.0,288.8 L520.3,288.8 L532.7,288.8 L545.0,288.5 L557.3,288.5 L569.7,288.0 L582.0,288.0 L594.3,288.0 L606.7,288.0 L619.0,288.0 L631.3,288.0 L643.7,288.0 L656.0,288.0 L668.3,288.0 L680.7,288.0 L693.0,287.1 L705.3,287.1 L717.7,287.1 L730.0,287.1" fill="none" stroke="#1baf7a" stroke-width="2" stroke-linejoin="round" stroke-linecap="round"/>
<circle cx="730.0" cy="287.1" r="6" fill="#fcfcfb"/>
<circle cx="730.0" cy="287.1" r="4" fill="#1baf7a"/>
<circle cx="745.0" cy="86.5" r="3.5" fill="#2a78d6"/>
<text x="753.0" y="90.0" font-family='system-ui, -apple-system, "Segoe UI", sans-serif' font-size="11" fill="#0b0b0b">overhead</text>
<text x="753.0" y="102.0" font-family='system-ui, -apple-system, "Segoe UI", sans-serif' font-size="10" style="font-variant-numeric: tabular-nums" fill="#52514e">565k</text>
<circle cx="745.0" cy="283.6" r="3.5" fill="#1baf7a"/>
<text x="753.0" y="287.1" font-family='system-ui, -apple-system, "Segoe UI", sans-serif' font-size="11" fill="#0b0b0b">proxy (abs_f32_value)</text>
<text x="753.0" y="299.1" font-family='system-ui, -apple-system, "Segoe UI", sans-serif' font-size="10" style="font-variant-numeric: tabular-nums" fill="#52514e">513k</text>
</svg>