<svg xmlns="http://www.w3.org/2000/svg" width="880" height="340" viewBox="0 0 880 340" role="img" aria-label="Per-node engine overhead">
<rect width="880" height="340" rx="6" fill="#fcfcfb"/>
<text x="64" y="24" font-family='system-ui, -apple-system, "Segoe UI", sans-serif' font-size="14" font-weight="600" fill="#0b0b0b">Per-node engine overhead</text>
<text x="64" y="41" font-family='system-ui, -apple-system, "Segoe UI", sans-serif' font-size="11" fill="#52514e">callgrind instructions of a case that is ~pure engine stepping cost, gated like any operator. Axis zoomed.</text>
<line x1="64" y1="243.9" x2="730" y2="243.9" stroke="#e1e0d9" stroke-width="1"/>
<text x="56" y="247.4" text-anchor="end" font-family='system-ui, -apple-system, "Segoe UI", sans-serif' font-size="11" style="font-variant-numeric: tabular-nums" fill="#898781">550</text>
<line x1="64" y1="180.1" x2="730" y2="180.1" stroke="#e1e0d9" stroke-width="1"/>
<text x="56" y="183.6" text-anchor="end" font-family='system-ui, -apple-system, "Segoe UI", sans-serif' font-size="11" style="font-variant-numeric: tabular-nums" fill="#898781">600</text>
<line x1="64" y1="116.3" x2="730" y2="116.3" stroke="#e1e0d9" stroke-width="1"/>
<text x="56" y="119.8" text-anchor="end" font-family='system-ui, -apple-system, "Segoe UI", sans-serif' font-size="11" style="font-variant-numeric: tabular-nums" fill="#898781">650</text>
<text x="56" y="46" text-anchor="end" font-family='system-ui, -apple-system, "Segoe UI", sans-serif' font-size="10" fill="#898781">Ir (k)</text>
<line x1="64" y1="306" x2="730" y2="306" stroke="#c3c2b7" stroke-width="1"/>
<text x="64.0" y="322" text-anchor="middle" font-family='system-ui, -apple-system, "Segoe UI", sans-serif' font-size="11" style="font-variant-numeric: tabular-nums" fill="#898781">06-28</text>
<text x="127.4" y="322" text-anchor="middle" font-family='system-ui, -apple-system, "Segoe UI", sans-serif' font-size="11" style="font-variant-numeric: tabular-nums" fill="#898781">06-30</text>
<text x="180.3" y="322" text-anchor="middle" font-family='system-ui, -apple-system, "Segoe UI", sans-serif' font-size="11" style="font-variant-numeric: tabular-nums" fill="#898781">07-02</text>
<text x="296.6" y="322" text-anchor="middle" font-family='system-ui, -apple-system, "Segoe UI", sans-serif' font-size="11" style="font-variant-numeric: tabular-nums" fill="#898781">07-04</text>
<text x="465.7" y="322" text-anchor="middle" font-family='system-ui, -apple-system, "Segoe UI", sans-serif' font-size="11" style="font-variant-numeric: tabular-nums" fill="#898781">07-07</text>
<text x="571.4" y="322" text-anchor="middle" font-family='system-ui, -apple-system, "Segoe UI", sans-serif' font-size="11" style="font-variant-numeric: tabular-nums" fill="#898781">07-09</text>
<text x="656.0" y="322" text-anchor="middle" font-family='system-ui, -apple-system, "Segoe UI", sans-serif' font-size="11" style="font-variant-numeric: tabular-nums" fill="#898781">07-11</text>
<path d="M412.9,88.2 L423.4,91.5 L434.0,77.0 L444.6,77.0 L455.1,73.3 L465.7,73.3 L476.3,73.4 L486.9,73.4 L497.4,73.4 L508.0,73.4 L518.6,73.4 L529.1,73.4 L539.7,73.4 L550.3,73.4 L560.9,73.4 L571.4,73.4 L582.0,73.2 L592.6,84.8 L603.1,79.1 L613.7,79.1 L624.3,84.4 L634.9,128.1 L645.4,128.2 L656.0,129.8 L666.6,218.6 L677.1,218.6 L687.7,218.6 L698.3,218.6 L708.9,218.6 L719.4,218.6 L730.0,218.6" fill="none" stroke="#2a78d6" stroke-width="2" stroke-linejoin="round" stroke-linecap="round"/>
<circle cx="730.0" cy="218.6" r="6" fill="#fcfcfb"/>
<circle cx="730.0" cy="218.6" r="4" fill="#2a78d6"/>
<path d="M64.0,200.0 L74.6,200.0 L85.1,200.1 L95.7,200.1 L106.3,200.1 L116.9,205.3 L127.4,194.0 L138.0,151.6 L148.6,160.2 L159.1,153.8 L169.7,159.6 L180.3,159.5 L190.9,159.7 L201.4,159.4 L212.0,159.4 L222.6,159.4 L233.1,159.4 L243.7,159.4 L254.3,159.4 L264.9,159.4 L275.4,159.4 L286.0,158.9 L296.6,158.9 L307.1,158.9 L317.7,158.9 L328.3,158.9 L338.9,161.7 L349.4,151.6 L360.0,151.6 L370.6,151.6 L381.1,151.6 L391.7,151.6 L402.3,146.8 L412.9,152.6 L423.4,151.7 L434.0,124.7 L444.6,124.7 L455.1,134.3 L465.7,134.3 L476.3,134.4 L486.9,134.4 L497.4,134.4 L508.0,134.4 L518.6,134.4 L529.1,134.4 L539.7,134.4 L550.3,134.4 L560.9,134.4 L571.4,134.4 L582.0,134.4 L592.6,145.3 L603.1,139.5 L613.7,139.5 L624.3,149.2 L634.9,184.9 L645.4,185.5 L656.0,190.4 L666.6,288.8 L677.1,288.8 L687.7,288.8 L698.3,288.8 L708.9,288.8 L719.4,288.8 L730.0,288.8" fill="none" stroke="#1baf7a" stroke-width="2" stroke-linejoin="round" stroke-linecap="round"/>
<circle cx="730.0" cy="288.8" r="6" fill="#fcfcfb"/>
<circle cx="730.0" cy="288.8" r="4" fill="#1baf7a"/>
<circle cx="745.0" cy="215.1" r="3.5" fill="#2a78d6"/>
<text x="753.0" y="218.6" font-family='system-ui, -apple-system, "Segoe UI", sans-serif' font-size="11" fill="#0b0b0b">overhead</text>
<text x="753.0" y="230.6" font-family='system-ui, -apple-system, "Segoe UI", sans-serif' font-size="10" style="font-variant-numeric: tabular-nums" fill="#52514e">570k</text>
<circle cx="745.0" cy="285.3" r="3.5" fill="#1baf7a"/>
<text x="753.0" y="288.8" font-family='system-ui, -apple-system, "Segoe UI", sans-serif' font-size="11" fill="#0b0b0b">proxy (abs_f32_value)</text>
<text x="753.0" y="300.8" font-family='system-ui, -apple-system, "Segoe UI", sans-serif' font-size="10" style="font-variant-numeric: tabular-nums" fill="#52514e">515k</text>
</svg>