<svg xmlns="http://www.w3.org/2000/svg" width="880" height="340" viewBox="0 0 880 340" role="img" aria-label="Per-node engine overhead">
<rect width="880" height="340" rx="6" fill="#1a1a19"/>
<text x="64" y="24" font-family='system-ui, -apple-system, "Segoe UI", sans-serif' font-size="14" font-weight="600" fill="#ffffff">Per-node engine overhead</text>
<text x="64" y="41" font-family='system-ui, -apple-system, "Segoe UI", sans-serif' font-size="11" fill="#c3c2b7">callgrind instructions of a case that is ~pure engine stepping cost, gated like any operator. Axis zoomed.</text>
<line x1="64" y1="243.9" x2="730" y2="243.9" stroke="#2c2c2a" stroke-width="1"/>
<text x="56" y="247.4" text-anchor="end" font-family='system-ui, -apple-system, "Segoe UI", sans-serif' font-size="11" style="font-variant-numeric: tabular-nums" fill="#898781">550</text>
<line x1="64" y1="180.1" x2="730" y2="180.1" stroke="#2c2c2a" stroke-width="1"/>
<text x="56" y="183.6" text-anchor="end" font-family='system-ui, -apple-system, "Segoe UI", sans-serif' font-size="11" style="font-variant-numeric: tabular-nums" fill="#898781">600</text>
<line x1="64" y1="116.3" x2="730" y2="116.3" stroke="#2c2c2a" stroke-width="1"/>
<text x="56" y="119.8" text-anchor="end" font-family='system-ui, -apple-system, "Segoe UI", sans-serif' font-size="11" style="font-variant-numeric: tabular-nums" fill="#898781">650</text>
<text x="56" y="46" text-anchor="end" font-family='system-ui, -apple-system, "Segoe UI", sans-serif' font-size="10" fill="#898781">Ir (k)</text>
<line x1="64" y1="306" x2="730" y2="306" stroke="#383835" stroke-width="1"/>
<text x="64.0" y="322" text-anchor="middle" font-family='system-ui, -apple-system, "Segoe UI", sans-serif' font-size="11" style="font-variant-numeric: tabular-nums" fill="#898781">06-28</text>
<text x="119.5" y="322" text-anchor="middle" font-family='system-ui, -apple-system, "Segoe UI", sans-serif' font-size="11" style="font-variant-numeric: tabular-nums" fill="#898781">06-30</text>
<text x="165.8" y="322" text-anchor="middle" font-family='system-ui, -apple-system, "Segoe UI", sans-serif' font-size="11" style="font-variant-numeric: tabular-nums" fill="#898781">07-02</text>
<text x="267.5" y="322" text-anchor="middle" font-family='system-ui, -apple-system, "Segoe UI", sans-serif' font-size="11" style="font-variant-numeric: tabular-nums" fill="#898781">07-04</text>
<text x="415.5" y="322" text-anchor="middle" font-family='system-ui, -apple-system, "Segoe UI", sans-serif' font-size="11" style="font-variant-numeric: tabular-nums" fill="#898781">07-07</text>
<text x="508.0" y="322" text-anchor="middle" font-family='system-ui, -apple-system, "Segoe UI", sans-serif' font-size="11" style="font-variant-numeric: tabular-nums" fill="#898781">07-09</text>
<text x="582.0" y="322" text-anchor="middle" font-family='system-ui, -apple-system, "Segoe UI", sans-serif' font-size="11" style="font-variant-numeric: tabular-nums" fill="#898781">07-11</text>
<path d="M369.2,88.2 L378.5,91.5 L387.8,77.0 L397.0,77.0 L406.2,73.3 L415.5,73.3 L424.8,73.4 L434.0,73.4 L443.2,73.4 L452.5,73.4 L461.8,73.4 L471.0,73.4 L480.2,73.4 L489.5,73.4 L498.8,73.4 L508.0,73.4 L517.2,73.2 L526.5,84.8 L535.8,79.1 L545.0,79.1 L554.2,84.4 L563.5,128.1 L572.8,128.2 L582.0,129.8 L591.2,218.6 L600.5,218.6 L609.8,218.6 L619.0,218.6 L628.2,218.6 L637.5,218.6 L646.8,218.6 L656.0,218.6 L665.2,218.6 L674.5,218.6 L683.8,218.6 L693.0,218.6 L702.2,218.6 L711.5,218.6 L720.8,218.6 L730.0,218.6" fill="none" stroke="#3987e5" stroke-width="2" stroke-linejoin="round" stroke-linecap="round"/>
<circle cx="730.0" cy="218.6" r="6" fill="#1a1a19"/>
<circle cx="730.0" cy="218.6" r="4" fill="#3987e5"/>
<path d="M64.0,200.0 L73.2,200.0 L82.5,200.1 L91.8,200.1 L101.0,200.1 L110.2,205.3 L119.5,194.0 L128.8,151.6 L138.0,160.2 L147.2,153.8 L156.5,159.6 L165.8,159.5 L175.0,159.7 L184.2,159.4 L193.5,159.4 L202.8,159.4 L212.0,159.4 L221.2,159.4 L230.5,159.4 L239.8,159.4 L249.0,159.4 L258.2,158.9 L267.5,158.9 L276.8,158.9 L286.0,158.9 L295.2,158.9 L304.5,161.7 L313.8,151.6 L323.0,151.6 L332.2,151.6 L341.5,151.6 L350.8,151.6 L360.0,146.8 L369.2,152.6 L378.5,151.7 L387.8,124.7 L397.0,124.7 L406.2,134.3 L415.5,134.3 L424.8,134.4 L434.0,134.4 L443.2,134.4 L452.5,134.4 L461.8,134.4 L471.0,134.4 L480.2,134.4 L489.5,134.4 L498.8,134.4 L508.0,134.4 L517.2,134.4 L526.5,145.3 L535.8,139.5 L545.0,139.5 L554.2,149.2 L563.5,184.9 L572.8,185.5 L582.0,190.4 L591.2,288.8 L600.5,288.8 L609.8,288.8 L619.0,288.8 L628.2,288.8 L637.5,288.8 L646.8,288.8 L656.0,288.8 L665.2,288.8 L674.5,288.8 L683.8,288.8 L693.0,288.8 L702.2,288.8 L711.5,288.8 L720.8,288.8 L730.0,288.8" fill="none" stroke="#199e70" stroke-width="2" stroke-linejoin="round" stroke-linecap="round"/>
<circle cx="730.0" cy="288.8" r="6" fill="#1a1a19"/>
<circle cx="730.0" cy="288.8" r="4" fill="#199e70"/>
<circle cx="745.0" cy="215.1" r="3.5" fill="#3987e5"/>
<text x="753.0" y="218.6" font-family='system-ui, -apple-system, "Segoe UI", sans-serif' font-size="11" fill="#ffffff">overhead</text>
<text x="753.0" y="230.6" font-family='system-ui, -apple-system, "Segoe UI", sans-serif' font-size="10" style="font-variant-numeric: tabular-nums" fill="#c3c2b7">570k</text>
<circle cx="745.0" cy="285.3" r="3.5" fill="#199e70"/>
<text x="753.0" y="288.8" font-family='system-ui, -apple-system, "Segoe UI", sans-serif' font-size="11" fill="#ffffff">proxy (abs_f32_value)</text>
<text x="753.0" y="300.8" font-family='system-ui, -apple-system, "Segoe UI", sans-serif' font-size="10" style="font-variant-numeric: tabular-nums" fill="#c3c2b7">515k</text>
</svg>