<svg xmlns="http://www.w3.org/2000/svg" width="880" height="340" viewBox="0 0 880 340" role="img" aria-label="Per-node engine overhead">
<rect width="880" height="340" rx="6" fill="#fcfcfb"/>
<text x="64" y="24" font-family='system-ui, -apple-system, "Segoe UI", sans-serif' font-size="14" font-weight="600" fill="#0b0b0b">Per-node engine overhead</text>
<text x="64" y="41" font-family='system-ui, -apple-system, "Segoe UI", sans-serif' font-size="11" fill="#52514e">callgrind instructions of a case that is ~pure engine stepping cost, gated like any operator. Axis zoomed.</text>
<line x1="64" y1="262.2" x2="730" y2="262.2" stroke="#e1e0d9" stroke-width="1"/>
<text x="56" y="265.7" text-anchor="end" font-family='system-ui, -apple-system, "Segoe UI", sans-serif' font-size="11" style="font-variant-numeric: tabular-nums" fill="#898781">520</text>
<line x1="64" y1="186.5" x2="730" y2="186.5" stroke="#e1e0d9" stroke-width="1"/>
<text x="56" y="190.0" text-anchor="end" font-family='system-ui, -apple-system, "Segoe UI", sans-serif' font-size="11" style="font-variant-numeric: tabular-nums" fill="#898781">540</text>
<line x1="64" y1="110.7" x2="730" y2="110.7" stroke="#e1e0d9" stroke-width="1"/>
<text x="56" y="114.2" text-anchor="end" font-family='system-ui, -apple-system, "Segoe UI", sans-serif' font-size="11" style="font-variant-numeric: tabular-nums" fill="#898781">560</text>
<text x="56" y="46" text-anchor="end" font-family='system-ui, -apple-system, "Segoe UI", sans-serif' font-size="10" fill="#898781">Ir (k)</text>
<line x1="64" y1="306" x2="730" y2="306" stroke="#c3c2b7" stroke-width="1"/>
<text x="64.0" y="322" text-anchor="middle" font-family='system-ui, -apple-system, "Segoe UI", sans-serif' font-size="11" style="font-variant-numeric: tabular-nums" fill="#898781">07-12</text>
<text x="152.8" y="322" text-anchor="middle" font-family='system-ui, -apple-system, "Segoe UI", sans-serif' font-size="11" style="font-variant-numeric: tabular-nums" fill="#898781">07-13</text>
<text x="167.6" y="322" text-anchor="middle" font-family='system-ui, -apple-system, "Segoe UI", sans-serif' font-size="11" style="font-variant-numeric: tabular-nums" fill="#898781">07-14</text>
<text x="182.4" y="322" text-anchor="middle" font-family='system-ui, -apple-system, "Segoe UI", sans-serif' font-size="11" style="font-variant-numeric: tabular-nums" fill="#898781">07-16</text>
<text x="300.8" y="322" text-anchor="middle" font-family='system-ui, -apple-system, "Segoe UI", sans-serif' font-size="11" style="font-variant-numeric: tabular-nums" fill="#898781">07-17</text>
<text x="389.6" y="322" text-anchor="middle" font-family='system-ui, -apple-system, "Segoe UI", sans-serif' font-size="11" style="font-variant-numeric: tabular-nums" fill="#898781">07-18</text>
<text x="478.4" y="322" text-anchor="middle" font-family='system-ui, -apple-system, "Segoe UI", sans-serif' font-size="11" style="font-variant-numeric: tabular-nums" fill="#898781">07-19</text>
<text x="522.8" y="322" text-anchor="middle" font-family='system-ui, -apple-system, "Segoe UI", sans-serif' font-size="11" style="font-variant-numeric: tabular-nums" fill="#898781">07-20</text>
<path d="M64.0,73.2 L78.8,73.2 L93.6,73.2 L108.4,73.2 L123.2,73.2 L138.0,73.2 L152.8,73.2 L167.6,73.2 L182.4,73.2 L197.2,73.2 L212.0,73.2 L226.8,73.2 L241.6,73.2 L256.4,73.2 L271.2,73.2 L286.0,73.2 L300.8,73.2 L315.6,73.2 L330.4,73.2 L345.2,73.2 L360.0,73.2 L374.8,73.2 L389.6,73.2 L404.4,73.2 L419.2,73.2 L434.0,73.2 L448.8,73.2 L463.6,73.2 L478.4,73.2 L493.2,73.2 L508.0,81.2 L522.8,81.2 L537.6,81.2 L552.4,91.2 L567.2,91.2 L582.0,91.2 L596.8,91.2 L611.6,91.2 L626.4,91.2 L641.2,91.3 L656.0,91.3 L670.8,80.9 L685.6,80.9 L700.4,80.9 L715.2,80.9 L730.0,80.9" fill="none" stroke="#2a78d6" stroke-width="2" stroke-linejoin="round" stroke-linecap="round"/>
<circle cx="730.0" cy="80.9" r="6" fill="#fcfcfb"/>
<circle cx="730.0" cy="80.9" r="4" fill="#2a78d6"/>
<path d="M64.0,281.6 L78.8,281.6 L93.6,281.6 L108.4,281.6 L123.2,281.6 L138.0,281.6 L152.8,281.6 L167.6,281.6 L182.4,281.6 L197.2,281.6 L212.0,281.6 L226.8,281.6 L241.6,281.6 L256.4,281.6 L271.2,281.6 L286.0,281.6 L300.8,281.6 L315.6,281.6 L330.4,281.6 L345.2,281.6 L360.0,281.6 L374.8,281.6 L389.6,281.6 L404.4,281.6 L419.2,281.6 L434.0,281.6 L448.8,281.6 L463.6,281.6 L478.4,281.6 L493.2,281.6 L508.0,280.2 L522.8,280.2 L537.6,280.2 L552.4,288.8 L567.2,288.8 L582.0,288.8 L596.8,288.8 L611.6,288.8 L626.4,288.8 L641.2,288.5 L656.0,288.5 L670.8,288.0 L685.6,288.0 L700.4,288.0 L715.2,288.0 L730.0,288.0" fill="none" stroke="#1baf7a" stroke-width="2" stroke-linejoin="round" stroke-linecap="round"/>
<circle cx="730.0" cy="288.0" r="6" fill="#fcfcfb"/>
<circle cx="730.0" cy="288.0" r="4" fill="#1baf7a"/>
<circle cx="745.0" cy="77.4" r="3.5" fill="#2a78d6"/>
<text x="753.0" y="80.9" font-family='system-ui, -apple-system, "Segoe UI", sans-serif' font-size="11" fill="#0b0b0b">overhead</text>
<text x="753.0" y="92.9" font-family='system-ui, -apple-system, "Segoe UI", sans-serif' font-size="10" style="font-variant-numeric: tabular-nums" fill="#52514e">568k</text>
<circle cx="745.0" cy="284.5" r="3.5" fill="#1baf7a"/>
<text x="753.0" y="288.0" font-family='system-ui, -apple-system, "Segoe UI", sans-serif' font-size="11" fill="#0b0b0b">proxy (abs_f32_value)</text>
<text x="753.0" y="300.0" font-family='system-ui, -apple-system, "Segoe UI", sans-serif' font-size="10" style="font-variant-numeric: tabular-nums" fill="#52514e">513k</text>
</svg>